<?xml version="1.0" encoding="UTF-8"?>
<svg width="34px" height="34px" viewBox="0 0 34 34" version="1.1" xmlns="http://www.w3.org/2000/svg" xmlns:xlink="http://www.w3.org/1999/xlink">
    <title>AllBlack</title>
    <g stroke="none" stroke-width="1" fill="none" fill-rule="evenodd">
        <rect fill="#8E959E" x="0" y="0" width="34" height="34" rx="5"></rect>
        <path fill="#000000" d="M19.8300314,17.3948562 L17.2535783,19.6462561 L14.6792246,21.900901 C14.5506181,22.0134825 14.3785371,22.0316133 14.2347277,21.9477343 C14.0909183,21.8638552 14.0000672,21.6923651 14,21.5047636 L14,12.4950767 C14.0000659,12.3075742 14.0908695,12.136191 14.2345863,12.0523172 C14.3783031,11.9684434 14.5502895,11.9864611 14.6789041,12.0988651 L17.2531007,14.3504137 L19.8299529,16.6021364 C19.9336447,16.6927367 19.9962034,16.8336298 19.9998286,16.9847258 C20.0037439,17.1454476 19.9403968,17.2984238 19.8300314,17.3948562 Z"></path>
        <rect fill="#000000" x="23" y="7" width="6" height="20"></rect>
        <rect fill="#FFFFFF" x="5" y="7" width="6" height="20"></rect>
    </g>
</svg>
