<?xml version="1.0" encoding="UTF-8"?>
<svg width="120px" height="24px" viewBox="0 0 120 24" version="1.1" xmlns="http://www.w3.org/2000/svg" xmlns:xlink="http://www.w3.org/1999/xlink">
    <title>Cancel</title>
    <g stroke="none" stroke-width="1" fill="none" fill-rule="evenodd">
        <g id="Cancel">
            <rect fill="#C0C0C0" x="0" y="0" width="120" height="24" rx="5"></rect>
            <path fill="#FFFFFF" fill-rule="nonzero" d="M38.4306641,11.4257812 L35.9960938,11.8652344 C35.9140621,11.3789038 35.7280288,11.0126965 35.4379883,10.7666016 C35.1479478,10.5205066 34.7714867,10.3974609 34.3085938,10.3974609 C33.6933563,10.3974609 33.2026385,10.6098612 32.8364258,11.034668 C32.470213,11.4594748 32.2871094,12.1699169 32.2871094,13.1660156 C32.2871094,14.273443 32.4731427,15.0556618 32.8452148,15.5126953 C33.217287,15.9697288 33.7167937,16.1982422 34.34375,16.1982422 C34.8125023,16.1982422 35.1962876,16.0649427 35.4951172,15.7983398 C35.7939468,15.5317369 36.0048822,15.0732454 36.1279297,14.4228516 L38.5537109,14.8359375 C38.3017566,15.9492243 37.8183629,16.7900362 37.1035156,17.3583984 C36.3886683,17.9267607 35.4306701,18.2109375 34.2294922,18.2109375 C32.864251,18.2109375 31.775883,17.7802777 30.9643555,16.9189453 C30.152828,16.0576129 29.7470703,14.865242 29.7470703,13.3417969 C29.7470703,11.8007735 30.1542928,10.6010785 30.96875,9.74267578 C31.7832072,8.88427305 32.8847587,8.45507812 34.2734375,8.45507812 C35.4101619,8.45507812 36.3139615,8.69970458 36.9848633,9.18896484 C37.6557651,9.6782251 38.1376938,10.4238231 38.4306641,11.4257812 Z M42.1484375,11.5136719 L39.9072266,11.109375 C40.1591809,10.2070267 40.5927704,9.53906467 41.2080078,9.10546875 C41.8232453,8.67187283 42.7372986,8.45507812 43.9501953,8.45507812 C45.0517633,8.45507812 45.8720676,8.58544792 46.4111328,8.84619141 C46.950198,9.1069349 47.3295887,9.43798627 47.5493164,9.83935547 C47.7690441,10.2407247 47.8789062,10.9775337 47.8789062,12.0498047 L47.8525391,14.9326172 C47.8525391,15.7529338 47.8920894,16.3579082 47.9711914,16.7475586 C48.0502934,17.137209 48.1982411,17.5546853 48.4150391,18 L45.9716797,18 C45.9072262,17.8359367 45.8281255,17.592775 45.734375,17.2705078 C45.6933592,17.1240227 45.6640626,17.027344 45.6464844,16.9804688 C45.2246073,17.3906271 44.7734399,17.6982412 44.2929688,17.9033203 C43.8124976,18.1083995 43.2998074,18.2109375 42.7548828,18.2109375 C41.7939405,18.2109375 41.0366239,17.9501979 40.4829102,17.4287109 C39.9291965,16.907224 39.6523438,16.2480509 39.6523438,15.4511719 C39.6523438,14.9238255 39.7783191,14.4536153 40.0302734,14.0405273 C40.2822278,13.6274393 40.6352516,13.3110363 41.0893555,13.0913086 C41.5434593,12.8715809 42.1982379,12.6796883 43.0537109,12.515625 C44.2080136,12.298827 45.0078103,12.0966806 45.453125,11.9091797 L45.453125,11.6630859 C45.453125,11.1884742 45.3359387,10.8500987 45.1015625,10.6479492 C44.8671863,10.4457998 44.4248079,10.3447266 43.7744141,10.3447266 C43.3349587,10.3447266 42.9921887,10.4311515 42.7460938,10.6040039 C42.4999988,10.7768563 42.300782,11.080076 42.1484375,11.5136719 Z M45.453125,13.5175781 C45.1367172,13.6230474 44.6357456,13.7490227 43.9501953,13.8955078 C43.264645,14.0419929 42.8164073,14.1855462 42.6054688,14.3261719 C42.2832015,14.5546886 42.1220703,14.8447248 42.1220703,15.1962891 C42.1220703,15.5419939 42.2509753,15.8408191 42.5087891,16.0927734 C42.7666029,16.3447278 43.0947246,16.4707031 43.4931641,16.4707031 C43.9384788,16.4707031 44.3632792,16.3242202 44.7675781,16.03125 C45.0664077,15.8085926 45.2626948,15.5361344 45.3564453,15.2138672 C45.4208988,15.0029286 45.453125,14.6015655 45.453125,14.0097656 L45.453125,13.5175781 Z M58.8037109,18 L56.3339844,18 L56.3339844,13.2363281 C56.3339844,12.2285106 56.2812505,11.5766616 56.1757812,11.2807617 C56.070312,10.9848618 55.898927,10.7548836 55.6616211,10.5908203 C55.4243152,10.426757 55.1386735,10.3447266 54.8046875,10.3447266 C54.376951,10.3447266 53.9931658,10.4619129 53.6533203,10.6962891 C53.3134749,10.9306652 53.080567,11.241209 52.9545898,11.6279297 C52.8286127,12.0146504 52.765625,12.729487 52.765625,13.7724609 L52.765625,18 L50.2958984,18 L50.2958984,8.66601562 L52.5898438,8.66601562 L52.5898438,10.0371094 C53.4043009,8.9824166 54.4296813,8.45507812 55.6660156,8.45507812 C56.2109402,8.45507812 56.7089821,8.55322167 57.1601562,8.74951172 C57.6113304,8.94580176 57.9526356,9.19628754 58.184082,9.50097656 C58.4155285,9.80566559 58.5766597,10.1513653 58.6674805,10.5380859 C58.7583012,10.9248066 58.8037109,11.478512 58.8037109,12.1992188 L58.8037109,18 Z M69.4472656,11.4257812 L67.0126953,11.8652344 C66.9306637,11.3789038 66.7446304,11.0126965 66.4545898,10.7666016 C66.1645493,10.5205066 65.7880883,10.3974609 65.3251953,10.3974609 C64.7099579,10.3974609 64.2192401,10.6098612 63.8530273,11.034668 C63.4868146,11.4594748 63.3037109,12.1699169 63.3037109,13.1660156 C63.3037109,14.273443 63.4897442,15.0556618 63.8618164,15.5126953 C64.2338886,15.9697288 64.7333953,16.1982422 65.3603516,16.1982422 C65.8291039,16.1982422 66.2128891,16.0649427 66.5117188,15.7983398 C66.8105484,15.5317369 67.0214838,15.0732454 67.1445312,14.4228516 L69.5703125,14.8359375 C69.3183581,15.9492243 68.8349645,16.7900362 68.1201172,17.3583984 C67.4052699,17.9267607 66.4472716,18.2109375 65.2460938,18.2109375 C63.8808525,18.2109375 62.7924845,17.7802777 61.980957,16.9189453 C61.1694295,16.0576129 60.7636719,14.865242 60.7636719,13.3417969 C60.7636719,11.8007735 61.1708944,10.6010785 61.9853516,9.74267578 C62.7998088,8.88427305 63.9013602,8.45507812 65.2900391,8.45507812 C66.4267635,8.45507812 67.3305631,8.69970458 68.0014648,9.18896484 C68.6723666,9.6782251 69.1542954,10.4238231 69.4472656,11.4257812 Z M76.7246094,15.0292969 L79.1855469,15.4423828 C78.869139,16.3447311 78.3696323,17.0317359 77.6870117,17.503418 C77.0043911,17.9751 76.1503958,18.2109375 75.125,18.2109375 C73.501945,18.2109375 72.3007851,17.6806694 71.5214844,16.6201172 C70.9062469,15.7705036 70.5986328,14.6982487 70.5986328,13.4033203 C70.5986328,11.8564376 71.0029256,10.6450239 71.8115234,9.76904297 C72.6201212,8.89306203 73.6425719,8.45507812 74.8789062,8.45507812 C76.2675851,8.45507812 77.3632772,8.91356963 78.1660156,9.83056641 C78.968754,10.7475632 79.3525392,12.1523343 79.3173828,14.0449219 L73.1298828,14.0449219 C73.147461,14.7773474 73.3466778,15.3471659 73.7275391,15.7543945 C74.1084003,16.1616231 74.583005,16.3652344 75.1513672,16.3652344 C75.5380879,16.3652344 75.8632799,16.2597667 76.1269531,16.0488281 C76.3906263,15.8378896 76.5898431,15.4980492 76.7246094,15.0292969 Z M76.8652344,12.5332031 C76.8476562,11.8183558 76.6630877,11.2749042 76.3115234,10.902832 C75.9599592,10.5307599 75.5322291,10.3447266 75.0283203,10.3447266 C74.4892551,10.3447266 74.0439471,10.5410137 73.6923828,10.9335938 C73.3408186,11.3261738 73.1679687,11.8593716 73.1738281,12.5332031 L76.8652344,12.5332031 Z M81.3300781,18 L81.3300781,5.11523438 L83.7998047,5.11523438 L83.7998047,18 L81.3300781,18 Z"></path>
        </g>
    </g>
</svg>
