<?xml version="1.0" encoding="UTF-8"?>
<svg width="120px" height="24px" viewBox="0 0 120 24" version="1.1" xmlns="http://www.w3.org/2000/svg" xmlns:xlink="http://www.w3.org/1999/xlink">
    <title>Cancel</title>
    <g fill="#202124" stroke="none" stroke-width="1" fill-rule="evenodd">
        <path d="M115,0 C117.761424,-5.07265313e-16 120,2.23857625 120,5 L120,19 C120,21.7614237 117.761424,24 115,24 L5,24 C2.23857625,24 3.38176876e-16,21.7614237 0,19 L0,5 C-3.38176876e-16,2.23857625 2.23857625,2.28362215e-15 5,0 L115,0 Z M35.2734375,8.45507812 C33.8847587,8.45507812 32.7832072,8.88427305 31.96875,9.74267578 C31.1542928,10.6010785 30.7470703,11.8007735 30.7470703,13.3417969 C30.7470703,14.865242 31.152828,16.0576129 31.9643555,16.9189453 C32.775883,17.7802777 33.864251,18.2109375 35.2294922,18.2109375 C36.4306701,18.2109375 37.3886683,17.9267607 38.1035156,17.3583984 C38.8183629,16.7900362 39.3017566,15.9492243 39.5537109,14.8359375 L39.5537109,14.8359375 L37.1279297,14.4228516 C37.0048822,15.0732454 36.7939468,15.5317369 36.4951172,15.7983398 C36.1962876,16.0649427 35.8125023,16.1982422 35.34375,16.1982422 C34.7167937,16.1982422 34.217287,15.9697288 33.8452148,15.5126953 C33.4731427,15.0556618 33.2871094,14.273443 33.2871094,13.1660156 C33.2871094,12.1699169 33.470213,11.4594748 33.8364258,11.034668 C34.2026385,10.6098612 34.6933563,10.3974609 35.3085938,10.3974609 C35.7714867,10.3974609 36.1479478,10.5205066 36.4379883,10.7666016 C36.7280288,11.0126965 36.9140621,11.3789038 36.9960938,11.8652344 L36.9960938,11.8652344 L39.4306641,11.4257812 C39.1376938,10.4238231 38.6557651,9.6782251 37.9848633,9.18896484 C37.3139615,8.69970458 36.4101619,8.45507812 35.2734375,8.45507812 Z M44.9501953,8.45507812 C43.7372986,8.45507812 42.8232453,8.67187283 42.2080078,9.10546875 C41.5927704,9.53906467 41.1591809,10.2070267 40.9072266,11.109375 L40.9072266,11.109375 L43.1484375,11.5136719 C43.300782,11.080076 43.4999988,10.7768563 43.7460938,10.6040039 C43.9921887,10.4311515 44.3349587,10.3447266 44.7744141,10.3447266 C45.4248079,10.3447266 45.8671863,10.4457998 46.1015625,10.6479492 C46.3359387,10.8500987 46.453125,11.1884742 46.453125,11.6630859 L46.453125,11.6630859 L46.453125,11.9091797 C46.0078103,12.0966806 45.2080136,12.298827 44.0537109,12.515625 C43.1982379,12.6796883 42.5434593,12.8715809 42.0893555,13.0913086 C41.6352516,13.3110363 41.2822278,13.6274393 41.0302734,14.0405273 C40.7783191,14.4536153 40.6523438,14.9238255 40.6523438,15.4511719 C40.6523438,16.2480509 40.9291965,16.907224 41.4829102,17.4287109 C42.0366239,17.9501979 42.7939405,18.2109375 43.7548828,18.2109375 C44.2998074,18.2109375 44.8124976,18.1083995 45.2929688,17.9033203 C45.7734399,17.6982412 46.2246073,17.3906271 46.6464844,16.9804688 C46.6640626,17.027344 46.6933592,17.1240227 46.734375,17.2705078 C46.8281255,17.592775 46.9072262,17.8359367 46.9716797,18 L46.9716797,18 L49.4150391,18 C49.1982411,17.5546853 49.0502934,17.137209 48.9711914,16.7475586 C48.8920894,16.3579082 48.8525391,15.7529338 48.8525391,14.9326172 L48.8525391,14.9326172 L48.8789062,12.0498047 C48.8789062,10.9775337 48.7690441,10.2407247 48.5493164,9.83935547 C48.3295887,9.43798627 47.950198,9.1069349 47.4111328,8.84619141 C46.8720676,8.58544792 46.0517633,8.45507812 44.9501953,8.45507812 Z M66.2900391,8.45507812 C64.9013602,8.45507812 63.7998088,8.88427305 62.9853516,9.74267578 C62.1708944,10.6010785 61.7636719,11.8007735 61.7636719,13.3417969 C61.7636719,14.865242 62.1694295,16.0576129 62.980957,16.9189453 C63.7924845,17.7802777 64.8808525,18.2109375 66.2460938,18.2109375 C67.4472716,18.2109375 68.4052699,17.9267607 69.1201172,17.3583984 C69.8349645,16.7900362 70.3183581,15.9492243 70.5703125,14.8359375 L70.5703125,14.8359375 L68.1445312,14.4228516 C68.0214838,15.0732454 67.8105484,15.5317369 67.5117188,15.7983398 C67.2128891,16.0649427 66.8291039,16.1982422 66.3603516,16.1982422 C65.7333953,16.1982422 65.2338886,15.9697288 64.8618164,15.5126953 C64.4897442,15.0556618 64.3037109,14.273443 64.3037109,13.1660156 C64.3037109,12.1699169 64.4868146,11.4594748 64.8530273,11.034668 C65.2192401,10.6098612 65.7099579,10.3974609 66.3251953,10.3974609 C66.7880883,10.3974609 67.1645493,10.5205066 67.4545898,10.7666016 C67.7446304,11.0126965 67.9306637,11.3789038 68.0126953,11.8652344 L68.0126953,11.8652344 L70.4472656,11.4257812 C70.1542954,10.4238231 69.6723666,9.6782251 69.0014648,9.18896484 C68.3305631,8.69970458 67.4267635,8.45507812 66.2900391,8.45507812 Z M75.8789062,8.45507812 C74.6425719,8.45507812 73.6201212,8.89306203 72.8115234,9.76904297 C72.0029256,10.6450239 71.5986328,11.8564376 71.5986328,13.4033203 C71.5986328,14.6982487 71.9062469,15.7705036 72.5214844,16.6201172 C73.3007851,17.6806694 74.501945,18.2109375 76.125,18.2109375 C77.1503958,18.2109375 78.0043911,17.9751 78.6870117,17.503418 C79.3696323,17.0317359 79.869139,16.3447311 80.1855469,15.4423828 L80.1855469,15.4423828 L77.7246094,15.0292969 C77.5898431,15.4980492 77.3906263,15.8378896 77.1269531,16.0488281 C76.8632799,16.2597667 76.5380879,16.3652344 76.1513672,16.3652344 C75.583005,16.3652344 75.1084003,16.1616231 74.7275391,15.7543945 C74.3466778,15.3471659 74.147461,14.7773474 74.1298828,14.0449219 L74.1298828,14.0449219 L80.3173828,14.0449219 C80.3525392,12.1523343 79.968754,10.7475632 79.1660156,9.83056641 C78.3632772,8.91356963 77.2675851,8.45507812 75.8789062,8.45507812 Z M56.6660156,8.45507812 C55.4296813,8.45507812 54.4043009,8.9824166 53.5898438,10.0371094 L53.5898438,10.0371094 L53.5898438,8.66601562 L51.2958984,8.66601562 L51.2958984,18 L53.765625,18 L53.765625,13.7724609 C53.765625,12.729487 53.8286127,12.0146504 53.9545898,11.6279297 C54.080567,11.241209 54.3134749,10.9306652 54.6533203,10.6962891 C54.9931658,10.4619129 55.376951,10.3447266 55.8046875,10.3447266 C56.1386735,10.3447266 56.4243152,10.426757 56.6616211,10.5908203 C56.898927,10.7548836 57.070312,10.9848618 57.1757812,11.2807617 C57.2812505,11.5766616 57.3339844,12.2285106 57.3339844,13.2363281 L57.3339844,13.2363281 L57.3339844,18 L59.8037109,18 L59.8037109,12.1992188 C59.8037109,11.478512 59.7583012,10.9248066 59.6674805,10.5380859 C59.5766597,10.1513653 59.4155285,9.80566559 59.184082,9.50097656 C58.9526356,9.19628754 58.6113304,8.94580176 58.1601562,8.74951172 C57.7089821,8.55322167 57.2109402,8.45507812 56.6660156,8.45507812 Z M84.7998047,5.11523438 L82.3300781,5.11523438 L82.3300781,18 L84.7998047,18 L84.7998047,5.11523438 Z M46.453125,13.5175781 L46.453125,14.0097656 C46.453125,14.6015655 46.4208988,15.0029286 46.3564453,15.2138672 C46.2626948,15.5361344 46.0664077,15.8085926 45.7675781,16.03125 C45.3632792,16.3242202 44.9384788,16.4707031 44.4931641,16.4707031 C44.0947246,16.4707031 43.7666029,16.3447278 43.5087891,16.0927734 C43.2509753,15.8408191 43.1220703,15.5419939 43.1220703,15.1962891 C43.1220703,14.8447248 43.2832015,14.5546886 43.6054688,14.3261719 C43.8164073,14.1855462 44.264645,14.0419929 44.9501953,13.8955078 C45.6357456,13.7490227 46.1367172,13.6230474 46.453125,13.5175781 L46.453125,13.5175781 Z M76.0283203,10.3447266 C76.5322291,10.3447266 76.9599592,10.5307599 77.3115234,10.902832 C77.6630877,11.2749042 77.8476562,11.8183558 77.8652344,12.5332031 L77.8652344,12.5332031 L74.1738281,12.5332031 C74.1679687,11.8593716 74.3408186,11.3261738 74.6923828,10.9335938 C75.0439471,10.5410137 75.4892551,10.3447266 76.0283203,10.3447266 Z"></path>
    </g>
</svg>
