<?xml version="1.0" encoding="UTF-8"?>
<svg width="80px" height="24px" viewBox="0 0 80 24">
    <g stroke="none" stroke-width="1" fill="#202124" fill-rule="evenodd">
        <path d="M75,0 C77.7614237,-5.07265313e-16 80,2.23857625 80,5 L80,19 C80,21.7614237 77.7614237,24 75,24 L5,24 C2.23857625,24 3.38176876e-16,21.7614237 0,19 L0,5 C-3.38176876e-16,2.23857625 2.23857625,1.39544373e-15 5,0 L75,0 Z M17.2734375,8.45507812 C15.8847656,8.45507812 14.7832031,8.88427734 13.96875,9.74267578 C13.1542969,10.6010742 12.7470703,11.8007812 12.7470703,13.3417969 C12.7470703,14.8652344 13.152832,16.0576172 13.9643555,16.9189453 C14.7758789,17.7802734 15.8642578,18.2109375 17.2294922,18.2109375 C18.4306641,18.2109375 19.3886719,17.9267578 20.1035156,17.3583984 C20.8183594,16.7900391 21.3017578,15.9492188 21.5537109,14.8359375 L21.5537109,14.8359375 L19.1279297,14.4228516 C19.0048828,15.0732422 18.7939453,15.5317383 18.4951172,15.7983398 C18.1962891,16.0649414 17.8125,16.1982422 17.34375,16.1982422 C16.7167969,16.1982422 16.2172852,15.9697266 15.8452148,15.5126953 C15.4731445,15.0556641 15.2871094,14.2734375 15.2871094,13.1660156 C15.2871094,12.1699219 15.4702148,11.4594727 15.8364258,11.034668 C16.2026367,10.6098633 16.6933594,10.3974609 17.3085938,10.3974609 C17.7714844,10.3974609 18.1479492,10.5205078 18.4379883,10.7666016 C18.7280273,11.0126953 18.9140625,11.3789062 18.9960938,11.8652344 L18.9960938,11.8652344 L21.4306641,11.4257812 C21.1376953,10.4238281 20.6557617,9.67822266 19.9848633,9.18896484 C19.3139648,8.69970703 18.4101562,8.45507812 17.2734375,8.45507812 Z M26.9501953,8.45507812 C25.7373047,8.45507812 24.8232422,8.671875 24.2080078,9.10546875 C23.5927734,9.5390625 23.1591797,10.2070312 22.9072266,11.109375 L22.9072266,11.109375 L25.1484375,11.5136719 C25.3007812,11.0800781 25.5,10.7768555 25.7460938,10.6040039 C25.9921875,10.4311523 26.3349609,10.3447266 26.7744141,10.3447266 C27.4248047,10.3447266 27.8671875,10.4458008 28.1015625,10.6479492 C28.3359375,10.8500977 28.453125,11.1884766 28.453125,11.6630859 L28.453125,11.6630859 L28.453125,11.9091797 C28.0078125,12.0966797 27.2080078,12.2988281 26.0537109,12.515625 C25.1982422,12.6796875 24.543457,12.871582 24.0893555,13.0913086 C23.6352539,13.3110352 23.2822266,13.6274414 23.0302734,14.0405273 C22.7783203,14.4536133 22.6523438,14.9238281 22.6523438,15.4511719 C22.6523438,16.2480469 22.9291992,16.9072266 23.4829102,17.4287109 C24.0366211,17.9501953 24.7939453,18.2109375 25.7548828,18.2109375 C26.2998047,18.2109375 26.8125,18.1083984 27.2929688,17.9033203 C27.7734375,17.6982422 28.2246094,17.390625 28.6464844,16.9804688 C28.6640625,17.0273438 28.6933594,17.1240234 28.734375,17.2705078 C28.828125,17.5927734 28.9072266,17.8359375 28.9716797,18 L28.9716797,18 L31.4150391,18 C31.1982422,17.5546875 31.050293,17.137207 30.9711914,16.7475586 C30.8920898,16.3579102 30.8525391,15.7529297 30.8525391,14.9326172 L30.8525391,14.9326172 L30.8789062,12.0498047 C30.8789062,10.9775391 30.769043,10.2407227 30.5493164,9.83935547 C30.3295898,9.43798828 29.9501953,9.10693359 29.4111328,8.84619141 C28.8720703,8.58544922 28.0517578,8.45507812 26.9501953,8.45507812 Z M48.2900391,8.45507812 C46.9013672,8.45507812 45.7998047,8.88427734 44.9853516,9.74267578 C44.1708984,10.6010742 43.7636719,11.8007812 43.7636719,13.3417969 C43.7636719,14.8652344 44.1694336,16.0576172 44.980957,16.9189453 C45.7924805,17.7802734 46.8808594,18.2109375 48.2460938,18.2109375 C49.4472656,18.2109375 50.4052734,17.9267578 51.1201172,17.3583984 C51.8349609,16.7900391 52.3183594,15.9492188 52.5703125,14.8359375 L52.5703125,14.8359375 L50.1445312,14.4228516 C50.0214844,15.0732422 49.8105469,15.5317383 49.5117188,15.7983398 C49.2128906,16.0649414 48.8291016,16.1982422 48.3603516,16.1982422 C47.7333984,16.1982422 47.2338867,15.9697266 46.8618164,15.5126953 C46.4897461,15.0556641 46.3037109,14.2734375 46.3037109,13.1660156 C46.3037109,12.1699219 46.4868164,11.4594727 46.8530273,11.034668 C47.2192383,10.6098633 47.7099609,10.3974609 48.3251953,10.3974609 C48.7880859,10.3974609 49.1645508,10.5205078 49.4545898,10.7666016 C49.7446289,11.0126953 49.9306641,11.3789062 50.0126953,11.8652344 L50.0126953,11.8652344 L52.4472656,11.4257812 C52.1542969,10.4238281 51.6723633,9.67822266 51.0014648,9.18896484 C50.3305664,8.69970703 49.4267578,8.45507812 48.2900391,8.45507812 Z M57.8789062,8.45507812 C56.6425781,8.45507812 55.6201172,8.89306641 54.8115234,9.76904297 C54.0029297,10.6450195 53.5986328,11.8564453 53.5986328,13.4033203 C53.5986328,14.6982422 53.90625,15.7705078 54.5214844,16.6201172 C55.3007812,17.6806641 56.5019531,18.2109375 58.125,18.2109375 C59.1503906,18.2109375 60.0043945,17.9750977 60.6870117,17.503418 C61.3696289,17.0317383 61.8691406,16.3447266 62.1855469,15.4423828 L62.1855469,15.4423828 L59.7246094,15.0292969 C59.5898438,15.4980469 59.390625,15.8378906 59.1269531,16.0488281 C58.8632812,16.2597656 58.5380859,16.3652344 58.1513672,16.3652344 C57.5830078,16.3652344 57.1083984,16.1616211 56.7275391,15.7543945 C56.3466797,15.347168 56.1474609,14.7773438 56.1298828,14.0449219 L56.1298828,14.0449219 L62.3173828,14.0449219 C62.3525391,12.1523438 61.96875,10.7475586 61.1660156,9.83056641 C60.3632812,8.91357422 59.2675781,8.45507812 57.8789062,8.45507812 Z M38.6660156,8.45507812 C37.4296875,8.45507812 36.4042969,8.98242188 35.5898438,10.0371094 L35.5898438,10.0371094 L35.5898438,8.66601562 L33.2958984,8.66601562 L33.2958984,18 L35.765625,18 L35.765625,13.7724609 C35.765625,12.7294922 35.8286133,12.0146484 35.9545898,11.6279297 C36.0805664,11.2412109 36.3134766,10.9306641 36.6533203,10.6962891 C36.9931641,10.4619141 37.3769531,10.3447266 37.8046875,10.3447266 C38.1386719,10.3447266 38.4243164,10.4267578 38.6616211,10.5908203 C38.8989258,10.7548828 39.0703125,10.9848633 39.1757812,11.2807617 C39.28125,11.5766602 39.3339844,12.2285156 39.3339844,13.2363281 L39.3339844,13.2363281 L39.3339844,18 L41.8037109,18 L41.8037109,12.1992188 C41.8037109,11.4785156 41.7583008,10.9248047 41.6674805,10.5380859 C41.5766602,10.1513672 41.4155273,9.80566406 41.184082,9.50097656 C40.9526367,9.19628906 40.6113281,8.94580078 40.1601562,8.74951172 C39.7089844,8.55322266 39.2109375,8.45507812 38.6660156,8.45507812 Z M66.7998047,5.11523438 L64.3300781,5.11523438 L64.3300781,18 L66.7998047,18 L66.7998047,5.11523438 Z M28.453125,13.5175781 L28.453125,14.0097656 C28.453125,14.6015625 28.4208984,15.0029297 28.3564453,15.2138672 C28.2626953,15.5361328 28.0664062,15.8085938 27.7675781,16.03125 C27.3632812,16.3242188 26.9384766,16.4707031 26.4931641,16.4707031 C26.0947266,16.4707031 25.7666016,16.3447266 25.5087891,16.0927734 C25.2509766,15.8408203 25.1220703,15.5419922 25.1220703,15.1962891 C25.1220703,14.8447266 25.2832031,14.5546875 25.6054688,14.3261719 C25.8164062,14.1855469 26.2646484,14.0419922 26.9501953,13.8955078 C27.6357422,13.7490234 28.1367188,13.6230469 28.453125,13.5175781 L28.453125,13.5175781 Z M58.0283203,10.3447266 C58.5322266,10.3447266 58.9599609,10.5307617 59.3115234,10.902832 C59.6630859,11.2749023 59.8476562,11.8183594 59.8652344,12.5332031 L59.8652344,12.5332031 L56.1738281,12.5332031 C56.1679688,11.859375 56.3408203,11.3261719 56.6923828,10.9335938 C57.0439453,10.5410156 57.4892578,10.3447266 58.0283203,10.3447266 Z"></path>
    </g>
</svg>
