<?xml version="1.0" encoding="UTF-8"?>
<svg width="300px" height="40px" viewBox="0 0 300 40" version="1.1" xmlns="http://www.w3.org/2000/svg" xmlns:xlink="http://www.w3.org/1999/xlink">
    <title>Community</title>
    <g stroke="none" stroke-width="1" fill="none" fill-rule="evenodd">
        <g id="Community">
            <polygon fill="#FFFFFF" points="0 5.05077461e-13 300 5.05077461e-13 300 40 0 40"></polygon>
            <path fill="#424242" fill-rule="nonzero" d="M62.2294922,26.2109375 C63.4306641,26.2109375 64.3886719,25.9267578 65.1035156,25.3583984 C65.8183594,24.7900391 66.3017578,23.9492188 66.5537109,22.8359375 L66.5537109,22.8359375 L64.1279297,22.4228516 C64.0048828,23.0732422 63.7939453,23.5317383 63.4951172,23.7983398 C63.1962891,24.0649414 62.8125,24.1982422 62.34375,24.1982422 C61.7167969,24.1982422 61.2172852,23.9697266 60.8452148,23.5126953 C60.4731445,23.0556641 60.2871094,22.2734375 60.2871094,21.1660156 C60.2871094,20.1699219 60.4702148,19.4594727 60.8364258,19.034668 C61.2026367,18.6098633 61.6933594,18.3974609 62.3085938,18.3974609 C62.7714844,18.3974609 63.1479492,18.5205078 63.4379883,18.7666016 C63.7280273,19.0126953 63.9140625,19.3789062 63.9960938,19.8652344 L63.9960938,19.8652344 L66.4306641,19.4257812 C66.1376953,18.4238281 65.6557617,17.6782227 64.9848633,17.1889648 C64.3139648,16.699707 63.4101562,16.4550781 62.2734375,16.4550781 C60.8847656,16.4550781 59.7832031,16.8842773 58.96875,17.7426758 C58.1542969,18.6010742 57.7470703,19.8007812 57.7470703,21.3417969 C57.7470703,22.8652344 58.152832,24.0576172 58.9643555,24.9189453 C59.7758789,25.7802734 60.8642578,26.2109375 62.2294922,26.2109375 Z M72.5566406,26.2109375 C73.9394531,26.2109375 75.0864258,25.746582 75.9975586,24.8178711 C76.9086914,23.8891602 77.3642578,22.71875 77.3642578,21.3066406 C77.3642578,19.90625 76.9130859,18.7475586 76.0107422,17.8305664 C75.1083984,16.9135742 73.9511719,16.4550781 72.5390625,16.4550781 C71.625,16.4550781 70.7973633,16.6572266 70.0561523,17.0615234 C69.3149414,17.4658203 68.7421875,18.0517578 68.3378906,18.8193359 C67.9335938,19.5869141 67.7314453,20.3808594 67.7314453,21.2011719 C67.7314453,22.2734375 67.9335938,23.1831055 68.3378906,23.9301758 C68.7421875,24.6772461 69.3325195,25.2441406 70.1088867,25.6308594 C70.8852539,26.0175781 71.7011719,26.2109375 72.5566406,26.2109375 Z M72.5478516,24.1982422 C71.9033203,24.1982422 71.3613281,23.9521484 70.921875,23.4599609 C70.4824219,22.9677734 70.2626953,22.2587891 70.2626953,21.3330078 C70.2626953,20.4072266 70.4824219,19.6982422 70.921875,19.2060547 C71.3613281,18.7138672 71.9033203,18.4677734 72.5478516,18.4677734 C73.1923828,18.4677734 73.7329102,18.7138672 74.1694336,19.2060547 C74.605957,19.6982422 74.8242188,20.4013672 74.8242188,21.3154297 C74.8242188,22.2529297 74.605957,22.9677734 74.1694336,23.4599609 C73.7329102,23.9521484 73.1923828,24.1982422 72.5478516,24.1982422 Z M81.5830078,26 L81.5830078,21.4648438 C81.5830078,20.5683594 81.6489258,19.9267578 81.7807617,19.5400391 C81.9125977,19.1533203 82.1308594,18.8574219 82.4355469,18.6523438 C82.7402344,18.4472656 83.0830078,18.3447266 83.4638672,18.3447266 C83.7802734,18.3447266 84.0307617,18.4091797 84.215332,18.5380859 C84.3999023,18.6669922 84.5361328,18.8632812 84.6240234,19.1269531 C84.7119141,19.390625 84.7558594,19.9765625 84.7558594,20.8847656 L84.7558594,20.8847656 L84.7558594,26 L87.2255859,26 L87.2255859,21.5175781 C87.2255859,20.6386719 87.2929688,19.9956055 87.4277344,19.5883789 C87.5625,19.1811523 87.7822266,18.8720703 88.0869141,18.6611328 C88.3916016,18.4501953 88.7167969,18.3447266 89.0625,18.3447266 C89.5371094,18.3447266 89.8886719,18.5205078 90.1171875,18.8720703 C90.2871094,19.1416016 90.3720703,19.7392578 90.3720703,20.6650391 L90.3720703,20.6650391 L90.3720703,26 L92.8417969,26 L92.8417969,20.0322266 C92.8417969,19.1416016 92.7568359,18.4970703 92.5869141,18.0986328 C92.3525391,17.5595703 91.9980469,17.1508789 91.5234375,16.8725586 C91.0488281,16.5942383 90.46875,16.4550781 89.7832031,16.4550781 C89.2441406,16.4550781 88.7373047,16.578125 88.2626953,16.8242188 C87.7880859,17.0703125 87.3457031,17.4423828 86.9355469,17.9404297 C86.6542969,17.4423828 86.2939453,17.0703125 85.8544922,16.8242188 C85.4150391,16.578125 84.8964844,16.4550781 84.2988281,16.4550781 C83.1738281,16.4550781 82.2041016,16.9501953 81.3896484,17.9404297 L81.3896484,17.9404297 L81.3896484,16.6660156 L79.1132812,16.6660156 L79.1132812,26 L81.5830078,26 Z M97.5878906,26 L97.5878906,21.4648438 C97.5878906,20.5683594 97.6538086,19.9267578 97.7856445,19.5400391 C97.9174805,19.1533203 98.1357422,18.8574219 98.4404297,18.6523438 C98.7451172,18.4472656 99.0878906,18.3447266 99.46875,18.3447266 C99.7851562,18.3447266 100.035645,18.4091797 100.220215,18.5380859 C100.404785,18.6669922 100.541016,18.8632812 100.628906,19.1269531 C100.716797,19.390625 100.760742,19.9765625 100.760742,20.8847656 L100.760742,20.8847656 L100.760742,26 L103.230469,26 L103.230469,21.5175781 C103.230469,20.6386719 103.297852,19.9956055 103.432617,19.5883789 C103.567383,19.1811523 103.787109,18.8720703 104.091797,18.6611328 C104.396484,18.4501953 104.72168,18.3447266 105.067383,18.3447266 C105.541992,18.3447266 105.893555,18.5205078 106.12207,18.8720703 C106.291992,19.1416016 106.376953,19.7392578 106.376953,20.6650391 L106.376953,20.6650391 L106.376953,26 L108.84668,26 L108.84668,20.0322266 C108.84668,19.1416016 108.761719,18.4970703 108.591797,18.0986328 C108.357422,17.5595703 108.00293,17.1508789 107.52832,16.8725586 C107.053711,16.5942383 106.473633,16.4550781 105.788086,16.4550781 C105.249023,16.4550781 104.742188,16.578125 104.267578,16.8242188 C103.792969,17.0703125 103.350586,17.4423828 102.94043,17.9404297 C102.65918,17.4423828 102.298828,17.0703125 101.859375,16.8242188 C101.419922,16.578125 100.901367,16.4550781 100.303711,16.4550781 C99.1787109,16.4550781 98.2089844,16.9501953 97.3945312,17.9404297 L97.3945312,17.9404297 L97.3945312,16.6660156 L95.1181641,16.6660156 L95.1181641,26 L97.5878906,26 Z M114.357422,26.2109375 C114.972656,26.2109375 115.557129,26.0673828 116.11084,25.7802734 C116.664551,25.4931641 117.111328,25.1005859 117.451172,24.6025391 L117.451172,24.6025391 L117.451172,26 L119.745117,26 L119.745117,16.6660156 L117.275391,16.6660156 L117.275391,20.6035156 C117.275391,21.9394531 117.213867,22.7788086 117.09082,23.121582 C116.967773,23.4643555 116.739258,23.7514648 116.405273,23.9829102 C116.071289,24.2143555 115.693359,24.3300781 115.271484,24.3300781 C114.902344,24.3300781 114.597656,24.2436523 114.357422,24.0708008 C114.117188,23.8979492 113.95166,23.6635742 113.86084,23.3676758 C113.77002,23.0717773 113.724609,22.2675781 113.724609,20.9550781 L113.724609,20.9550781 L113.724609,16.6660156 L111.254883,16.6660156 L111.254883,22.5722656 C111.254883,23.4511719 111.366211,24.1396484 111.588867,24.6376953 C111.811523,25.1357422 112.171875,25.5224609 112.669922,25.7978516 C113.167969,26.0732422 113.730469,26.2109375 114.357422,26.2109375 Z M124.754883,26 L124.754883,21.7724609 C124.754883,20.7294922 124.817871,20.0146484 124.943848,19.6279297 C125.069824,19.2412109 125.302734,18.9306641 125.642578,18.6962891 C125.982422,18.4619141 126.366211,18.3447266 126.793945,18.3447266 C127.12793,18.3447266 127.413574,18.4267578 127.650879,18.5908203 C127.888184,18.7548828 128.05957,18.9848633 128.165039,19.2807617 C128.270508,19.5766602 128.323242,20.2285156 128.323242,21.2363281 L128.323242,21.2363281 L128.323242,26 L130.792969,26 L130.792969,20.1992188 C130.792969,19.4785156 130.747559,18.9248047 130.656738,18.5380859 C130.565918,18.1513672 130.404785,17.8056641 130.17334,17.5009766 C129.941895,17.1962891 129.600586,16.9458008 129.149414,16.7495117 C128.698242,16.5532227 128.200195,16.4550781 127.655273,16.4550781 C126.418945,16.4550781 125.393555,16.9824219 124.579102,18.0371094 L124.579102,18.0371094 L124.579102,16.6660156 L122.285156,16.6660156 L122.285156,26 L124.754883,26 Z M135.767578,15.4003906 L135.767578,13.1152344 L133.297852,13.1152344 L133.297852,15.4003906 L135.767578,15.4003906 Z M135.767578,26 L135.767578,16.6660156 L133.297852,16.6660156 L133.297852,26 L135.767578,26 Z M140.830078,26.2109375 C141.556641,26.2109375 142.207031,26.0878906 142.78125,25.8417969 L142.78125,25.8417969 L142.570312,23.9257812 C142.136719,24.0839844 141.805664,24.1630859 141.577148,24.1630859 C141.413086,24.1630859 141.273926,24.1220703 141.159668,24.0400391 C141.04541,23.9580078 140.972168,23.8540039 140.939941,23.7280273 C140.907715,23.6020508 140.891602,23.1582031 140.891602,22.3964844 L140.891602,22.3964844 L140.891602,18.6347656 L142.579102,18.6347656 L142.579102,16.6660156 L140.891602,16.6660156 L140.891602,13.3701172 L138.413086,14.8115234 L138.413086,16.6660156 L137.279297,16.6660156 L137.279297,18.6347656 L138.413086,18.6347656 L138.41374,22.9349416 C138.418098,23.680196 138.444247,24.1833274 138.492188,24.4443359 C138.556641,24.8486328 138.672363,25.1694336 138.839355,25.4067383 C139.006348,25.644043 139.268555,25.8374023 139.625977,25.9868164 C139.983398,26.1362305 140.384766,26.2109375 140.830078,26.2109375 Z M145.338867,29.7880859 C145.807617,29.7880859 146.228027,29.7382812 146.600098,29.6386719 C146.972168,29.5390625 147.285645,29.3999023 147.540527,29.2211914 C147.79541,29.0424805 148.020996,28.8095703 148.217285,28.5224609 C148.413574,28.2353516 148.620117,27.8193359 148.836914,27.2744141 L148.836914,27.2744141 L149.425781,25.6484375 L152.72168,16.6660156 L150.164062,16.6660156 L147.984375,23.2929688 L145.751953,16.6660156 L143.124023,16.6660156 L146.674805,26.0263672 C146.52832,26.5478516 146.317383,26.9770508 146.041992,27.3139648 C145.766602,27.6508789 145.341797,27.8193359 144.767578,27.8193359 C144.457031,27.8193359 144.108398,27.78125 143.72168,27.7050781 L143.72168,27.7050781 L143.941406,29.6386719 C144.398438,29.7382812 144.864258,29.7880859 145.338867,29.7880859 Z M161.704102,29.5507812 L161.704102,24.8486328 C162.166992,25.3466797 162.60791,25.6982422 163.026855,25.9033203 C163.445801,26.1083984 163.913086,26.2109375 164.428711,26.2109375 C165.512695,26.2109375 166.435547,25.7788086 167.197266,24.9145508 C167.958984,24.050293 168.339844,22.8388672 168.339844,21.2802734 C168.339844,19.7626953 167.961914,18.5791016 167.206055,17.7294922 C166.450195,16.8798828 165.530273,16.4550781 164.446289,16.4550781 C163.825195,16.4550781 163.259766,16.6015625 162.75,16.8945312 C162.240234,17.1875 161.835938,17.5683594 161.537109,18.0371094 L161.537109,18.0371094 L161.537109,16.6660156 L159.234375,16.6660156 L159.234375,29.5507812 L161.704102,29.5507812 Z M163.822266,24.2509766 C163.224609,24.2509766 162.717773,24.0004883 162.301758,23.4995117 C161.885742,22.9985352 161.677734,22.2236328 161.677734,21.1748047 C161.677734,20.2607422 161.876953,19.5708008 162.275391,19.1049805 C162.673828,18.6391602 163.174805,18.40625 163.77832,18.40625 C164.358398,18.40625 164.844727,18.6435547 165.237305,19.1181641 C165.629883,19.5927734 165.826172,20.3193359 165.826172,21.2978516 C165.826172,22.3466797 165.635742,23.1010742 165.254883,23.5610352 C164.874023,24.0209961 164.396484,24.2509766 163.822266,24.2509766 Z M172.664062,26 L172.66498,22.806875 C172.673548,21.3926563 172.74209,20.453125 172.870605,19.9882812 C173.008301,19.4902344 173.197266,19.1459961 173.4375,18.9555664 C173.677734,18.7651367 173.970703,18.6699219 174.316406,18.6699219 C174.673828,18.6699219 175.060547,18.8046875 175.476562,19.0742188 L175.476562,19.0742188 L176.241211,16.9208984 C175.719727,16.6103516 175.177734,16.4550781 174.615234,16.4550781 C174.216797,16.4550781 173.86084,16.5546875 173.547363,16.7539062 C173.233887,16.953125 172.880859,17.3662109 172.488281,17.9931641 L172.488281,17.9931641 L172.488281,16.6660156 L170.194336,16.6660156 L170.194336,26 L172.664062,26 Z M181.110352,26.2109375 C182.135742,26.2109375 182.989746,25.9750977 183.672363,25.503418 C184.35498,25.0317383 184.854492,24.3447266 185.170898,23.4423828 L185.170898,23.4423828 L182.709961,23.0292969 C182.575195,23.4980469 182.375977,23.8378906 182.112305,24.0488281 C181.848633,24.2597656 181.523438,24.3652344 181.136719,24.3652344 C180.568359,24.3652344 180.09375,24.1616211 179.712891,23.7543945 C179.332031,23.347168 179.132812,22.7773438 179.115234,22.0449219 L179.115234,22.0449219 L185.302734,22.0449219 C185.337891,20.1523438 184.954102,18.7475586 184.151367,17.8305664 C183.348633,16.9135742 182.25293,16.4550781 180.864258,16.4550781 C179.62793,16.4550781 178.605469,16.8930664 177.796875,17.769043 C176.988281,18.6450195 176.583984,19.8564453 176.583984,21.4033203 C176.583984,22.6982422 176.891602,23.7705078 177.506836,24.6201172 C178.286133,25.6806641 179.487305,26.2109375 181.110352,26.2109375 Z M182.850586,20.5332031 L179.15918,20.5332031 C179.15332,19.859375 179.326172,19.3261719 179.677734,18.9335938 C180.029297,18.5410156 180.474609,18.3447266 181.013672,18.3447266 C181.517578,18.3447266 181.945312,18.5307617 182.296875,18.902832 C182.648438,19.2749023 182.833008,19.8183594 182.850586,20.5332031 L182.850586,20.5332031 Z M190.918945,26.2109375 C192.319336,26.2109375 193.376953,25.9033203 194.091797,25.2880859 C194.806641,24.6728516 195.164062,23.9375 195.164062,23.0820312 C195.164062,22.296875 194.90625,21.6845703 194.390625,21.2451172 C193.869141,20.8115234 192.950684,20.4453125 191.635254,20.1464844 C190.319824,19.8476562 189.550781,19.6162109 189.328125,19.4521484 C189.164062,19.3291016 189.082031,19.1796875 189.082031,19.0039062 C189.082031,18.7988281 189.175781,18.6318359 189.363281,18.5029297 C189.644531,18.3212891 190.110352,18.2304688 190.760742,18.2304688 C191.276367,18.2304688 191.67334,18.3271484 191.95166,18.5205078 C192.22998,18.7138672 192.418945,18.9921875 192.518555,19.3554688 L192.518555,19.3554688 L194.847656,18.9248047 C194.613281,18.1103516 194.185547,17.4951172 193.564453,17.0791016 C192.943359,16.6630859 191.994141,16.4550781 190.716797,16.4550781 C189.375,16.4550781 188.384766,16.7304688 187.746094,17.28125 C187.107422,17.8320312 186.788086,18.5117188 186.788086,19.3203125 C186.788086,20.2167969 187.157227,20.9169922 187.895508,21.4208984 C188.428711,21.7841797 189.691406,22.1855469 191.683594,22.625 C192.111328,22.7246094 192.386719,22.8330078 192.509766,22.9501953 C192.626953,23.0732422 192.685547,23.2285156 192.685547,23.4160156 C192.685547,23.6914062 192.577148,23.9111328 192.360352,24.0751953 C192.038086,24.3095703 191.557617,24.4267578 190.918945,24.4267578 C190.338867,24.4267578 189.887695,24.3022461 189.56543,24.0532227 C189.243164,23.8041992 189.029297,23.4394531 188.923828,22.9589844 L188.923828,22.9589844 L186.445312,23.3369141 C186.673828,24.2216797 187.158691,24.921875 187.899902,25.4375 C188.641113,25.953125 189.647461,26.2109375 190.918945,26.2109375 Z M201.131836,26.2109375 C202.157227,26.2109375 203.01123,25.9750977 203.693848,25.503418 C204.376465,25.0317383 204.875977,24.3447266 205.192383,23.4423828 L205.192383,23.4423828 L202.731445,23.0292969 C202.59668,23.4980469 202.397461,23.8378906 202.133789,24.0488281 C201.870117,24.2597656 201.544922,24.3652344 201.158203,24.3652344 C200.589844,24.3652344 200.115234,24.1616211 199.734375,23.7543945 C199.353516,23.347168 199.154297,22.7773438 199.136719,22.0449219 L199.136719,22.0449219 L205.324219,22.0449219 C205.359375,20.1523438 204.975586,18.7475586 204.172852,17.8305664 C203.370117,16.9135742 202.274414,16.4550781 200.885742,16.4550781 C199.649414,16.4550781 198.626953,16.8930664 197.818359,17.769043 C197.009766,18.6450195 196.605469,19.8564453 196.605469,21.4033203 C196.605469,22.6982422 196.913086,23.7705078 197.52832,24.6201172 C198.307617,25.6806641 199.508789,26.2109375 201.131836,26.2109375 Z M202.87207,20.5332031 L199.180664,20.5332031 C199.174805,19.859375 199.347656,19.3261719 199.699219,18.9335938 C200.050781,18.5410156 200.496094,18.3447266 201.035156,18.3447266 C201.539062,18.3447266 201.966797,18.5307617 202.318359,18.902832 C202.669922,19.2749023 202.854492,19.8183594 202.87207,20.5332031 L202.87207,20.5332031 Z M209.868164,26.2109375 C210.594727,26.2109375 211.245117,26.0878906 211.819336,25.8417969 L211.819336,25.8417969 L211.608398,23.9257812 C211.174805,24.0839844 210.84375,24.1630859 210.615234,24.1630859 C210.451172,24.1630859 210.312012,24.1220703 210.197754,24.0400391 C210.083496,23.9580078 210.010254,23.8540039 209.978027,23.7280273 C209.945801,23.6020508 209.929688,23.1582031 209.929688,22.3964844 L209.929688,22.3964844 L209.929688,18.6347656 L211.617188,18.6347656 L211.617188,16.6660156 L209.929688,16.6660156 L209.929688,13.3701172 L207.451172,14.8115234 L207.451172,16.6660156 L206.317383,16.6660156 L206.317383,18.6347656 L207.451172,18.6347656 L207.451826,22.9349416 C207.456184,23.680196 207.482333,24.1833274 207.530273,24.4443359 C207.594727,24.8486328 207.710449,25.1694336 207.877441,25.4067383 C208.044434,25.644043 208.306641,25.8374023 208.664062,25.9868164 C209.021484,26.1362305 209.422852,26.2109375 209.868164,26.2109375 Z M216.93457,26.2109375 C218.334961,26.2109375 219.392578,25.9033203 220.107422,25.2880859 C220.822266,24.6728516 221.179688,23.9375 221.179688,23.0820312 C221.179688,22.296875 220.921875,21.6845703 220.40625,21.2451172 C219.884766,20.8115234 218.966309,20.4453125 217.650879,20.1464844 C216.335449,19.8476562 215.566406,19.6162109 215.34375,19.4521484 C215.179688,19.3291016 215.097656,19.1796875 215.097656,19.0039062 C215.097656,18.7988281 215.191406,18.6318359 215.378906,18.5029297 C215.660156,18.3212891 216.125977,18.2304688 216.776367,18.2304688 C217.291992,18.2304688 217.688965,18.3271484 217.967285,18.5205078 C218.245605,18.7138672 218.43457,18.9921875 218.53418,19.3554688 L218.53418,19.3554688 L220.863281,18.9248047 C220.628906,18.1103516 220.201172,17.4951172 219.580078,17.0791016 C218.958984,16.6630859 218.009766,16.4550781 216.732422,16.4550781 C215.390625,16.4550781 214.400391,16.7304688 213.761719,17.28125 C213.123047,17.8320312 212.803711,18.5117188 212.803711,19.3203125 C212.803711,20.2167969 213.172852,20.9169922 213.911133,21.4208984 C214.444336,21.7841797 215.707031,22.1855469 217.699219,22.625 C218.126953,22.7246094 218.402344,22.8330078 218.525391,22.9501953 C218.642578,23.0732422 218.701172,23.2285156 218.701172,23.4160156 C218.701172,23.6914062 218.592773,23.9111328 218.375977,24.0751953 C218.053711,24.3095703 217.573242,24.4267578 216.93457,24.4267578 C216.354492,24.4267578 215.90332,24.3022461 215.581055,24.0532227 C215.258789,23.8041992 215.044922,23.4394531 214.939453,22.9589844 L214.939453,22.9589844 L212.460938,23.3369141 C212.689453,24.2216797 213.174316,24.921875 213.915527,25.4375 C214.656738,25.953125 215.663086,26.2109375 216.93457,26.2109375 Z"></path>
            <path fill="#00A8E8" fill-rule="nonzero" d="M37.1889936,15.1001074 L36.3122301,15.1001074 L34.9475811,15.1001074 C35.746239,14.5911292 36.2707021,13.7542729 36.2707021,12.8080309 C36.2707021,11.2596096 34.8714006,10 33.1517009,10 C31.6924452,10 29.9644949,12.5373572 29,14.1773053 C28.035505,12.5376362 26.3070047,10 24.848024,10 C23.1283243,10 21.7290228,11.2598887 21.7290228,12.8080309 C21.7290228,13.7542729 22.2532108,14.5911292 23.0521438,15.1001074 L21.8217046,15.1001074 L20.8112813,15.1001074 C19.8126839,15.1001074 19,15.9244067 19,16.9373404 L19,19.8502923 C19,20.5719029 19.4130799,21.1955688 20.0109733,21.4958213 L20.0109733,28.1622089 C20.0109733,29.1757008 20.8233822,30 21.8217046,30 L36.3119551,30 C37.3108275,30 38.1232364,29.1757008 38.1232364,28.1622089 L38.1232364,21.4215953 C38.6476994,21.0995772 39,20.5169311 39,19.8505713 L39,16.9373404 C39.000275,15.9244067 38.1878661,15.1001074 37.1889936,15.1001074 Z M20.8112813,20.0135337 C20.7224499,20.0135337 20.6501196,19.9404239 20.6501196,19.8505713 L20.6501196,16.9373404 C20.6501196,16.8474879 20.7224499,16.7743781 20.8112813,16.7743781 L28.1746651,16.7743781 L28.1746651,20.0132546 L20.8112813,20.0132546 L20.8112813,20.0135337 Z M29.8250598,16.7743781 L37.1889936,16.7743781 C37.2778251,16.7743781 37.3501553,16.8474879 37.3501553,16.9373404 L37.3501553,19.8502923 C37.3501553,19.9401448 37.2778251,20.0132546 37.1889936,20.0132546 L29.8250598,20.0132546 L29.8250598,16.7743781 Z M33.1514259,11.6742706 C33.9476086,11.6742706 34.6203074,12.1935736 34.6203074,12.8080309 C34.6203074,13.4224882 33.9476086,13.9417912 33.1514259,13.9417912 L31.1135282,13.9417912 C31.9482137,12.7187365 32.8057259,11.7465433 33.1514259,11.6742706 Z M24.8251973,11.6725964 C25.1882236,11.7462643 26.0501361,12.7187365 26.8859217,13.9420702 L24.848024,13.9420702 C24.0518412,13.9420702 23.3791425,13.4227673 23.3791425,12.80831 C23.3791425,12.1938526 24.0518412,11.6742706 24.8251973,11.6725964 Z M21.6610929,28.162488 L21.6610929,21.6878043 L28.1749402,21.6878043 L28.1749402,28.3260084 L21.8217046,28.3260084 C21.7331481,28.3260084 21.6610929,28.2526195 21.6610929,28.162488 Z M36.3122301,28.3260084 L29.8250598,28.3260084 L29.8250598,21.6878043 L36.4733918,21.6878043 L36.4733918,28.162488 C36.4733918,28.2526195 36.4010615,28.3260084 36.3122301,28.3260084 Z"></path>
        </g>
    </g>
</svg>
