<?xml version="1.0" encoding="UTF-8"?>
<svg width="300px" height="50px" viewBox="0 0 300 50" version="1.1" xmlns="http://www.w3.org/2000/svg" xmlns:xlink="http://www.w3.org/1999/xlink">
    <title>Community</title>
    <g id="Page-1" stroke="none" stroke-width="1" fill="none" fill-rule="evenodd">
        <g id="Community">
            <path d="M0,0 L300,0 L300,42 C300,46.418278 296.418278,50 292,50 L8,50 C3.581722,50 5.41083001e-16,46.418278 0,42 L0,0 Z" id="Background" fill="#FFFFFF"></path>
            <path d="M66.4306641,23.4257812 L63.9960938,23.8652344 C63.9140621,23.3789038 63.7280288,23.0126965 63.4379883,22.7666016 C63.1479478,22.5205066 62.7714867,22.3974609 62.3085938,22.3974609 C61.6933563,22.3974609 61.2026385,22.6098612 60.8364258,23.034668 C60.470213,23.4594748 60.2871094,24.1699169 60.2871094,25.1660156 C60.2871094,26.273443 60.4731427,27.0556618 60.8452148,27.5126953 C61.217287,27.9697288 61.7167937,28.1982422 62.34375,28.1982422 C62.8125023,28.1982422 63.1962876,28.0649427 63.4951172,27.7983398 C63.7939468,27.5317369 64.0048822,27.0732454 64.1279297,26.4228516 L66.5537109,26.8359375 C66.3017566,27.9492243 65.8183629,28.7900362 65.1035156,29.3583984 C64.3886683,29.9267607 63.4306701,30.2109375 62.2294922,30.2109375 C60.864251,30.2109375 59.775883,29.7802777 58.9643555,28.9189453 C58.152828,28.0576129 57.7470703,26.865242 57.7470703,25.3417969 C57.7470703,23.8007735 58.1542928,22.6010785 58.96875,21.7426758 C59.7832072,20.8842731 60.8847587,20.4550781 62.2734375,20.4550781 C63.4101619,20.4550781 64.3139615,20.6997046 64.9848633,21.1889648 C65.6557651,21.6782251 66.1376938,22.4238231 66.4306641,23.4257812 Z M67.7314453,25.2011719 C67.7314453,24.3808553 67.9335917,23.5869179 68.3378906,22.8193359 C68.7421895,22.051754 69.3149377,21.4658223 70.0561523,21.0615234 C70.797367,20.6572245 71.6249954,20.4550781 72.5390625,20.4550781 C73.9511789,20.4550781 75.1083939,20.9135696 76.0107422,21.8305664 C76.9130904,22.7475632 77.3642578,23.906243 77.3642578,25.3066406 C77.3642578,26.7187571 76.908696,27.8891555 75.9975586,28.8178711 C75.0864212,29.7465867 73.93946,30.2109375 72.5566406,30.2109375 C71.7011676,30.2109375 70.8852578,30.0175801 70.1088867,29.6308594 C69.3325156,29.2441387 68.7421895,28.6772498 68.3378906,27.9301758 C67.9335917,27.1831017 67.7314453,26.2734429 67.7314453,25.2011719 Z M70.2626953,25.3330078 C70.2626953,26.2587937 70.4824197,26.967771 70.921875,27.4599609 C71.3613303,27.9521509 71.9033171,28.1982422 72.5478516,28.1982422 C73.192386,28.1982422 73.732908,27.9521509 74.1694336,27.4599609 C74.6059592,26.967771 74.8242188,26.2529344 74.8242188,25.3154297 C74.8242188,24.4013626 74.6059592,23.6982446 74.1694336,23.2060547 C73.732908,22.7138647 73.192386,22.4677734 72.5478516,22.4677734 C71.9033171,22.4677734 71.3613303,22.7138647 70.921875,23.2060547 C70.4824197,23.6982446 70.2626953,24.4072219 70.2626953,25.3330078 Z M79.1132812,20.6660156 L81.3896484,20.6660156 L81.3896484,21.9404297 C82.2041056,20.9501904 83.1738225,20.4550781 84.2988281,20.4550781 C84.8964874,20.4550781 85.4150369,20.5781238 85.8544922,20.8242188 C86.2939475,21.0703137 86.6542955,21.4423803 86.9355469,21.9404297 C87.3457052,21.4423803 87.7880836,21.0703137 88.2626953,20.8242188 C88.7373071,20.5781238 89.2441379,20.4550781 89.7832031,20.4550781 C90.4687534,20.4550781 91.0488258,20.5942369 91.5234375,20.8725586 C91.9980492,21.1508803 92.3525379,21.5595676 92.5869141,22.0986328 C92.7568368,22.4970723 92.8417969,23.1415971 92.8417969,24.0322266 L92.8417969,30 L90.3720703,30 L90.3720703,24.6650391 C90.3720703,23.7392532 90.2871102,23.1416029 90.1171875,22.8720703 C89.8886707,22.5205061 89.5371117,22.3447266 89.0625,22.3447266 C88.7167951,22.3447266 88.3916031,22.4501943 88.0869141,22.6611328 C87.782225,22.8720714 87.5625007,23.1811503 87.4277344,23.5883789 C87.2929681,23.9956075 87.2255859,24.6386675 87.2255859,25.5175781 L87.2255859,30 L84.7558594,30 L84.7558594,24.8847656 C84.7558594,23.976558 84.7119145,23.3906263 84.6240234,23.1269531 C84.5361324,22.8632799 84.3999033,22.6669928 84.215332,22.5380859 C84.0307608,22.409179 83.780275,22.3447266 83.4638672,22.3447266 C83.0830059,22.3447266 82.7402359,22.4472646 82.4355469,22.6523438 C82.1308579,22.8574229 81.9125983,23.1533184 81.7807617,23.5400391 C81.6489251,23.9267597 81.5830078,24.5683549 81.5830078,25.4648438 L81.5830078,30 L79.1132812,30 L79.1132812,20.6660156 Z M95.1181641,20.6660156 L97.3945312,20.6660156 L97.3945312,21.9404297 C98.2089884,20.9501904 99.1787053,20.4550781 100.303711,20.4550781 C100.90137,20.4550781 101.41992,20.5781238 101.859375,20.8242188 C102.29883,21.0703137 102.659178,21.4423803 102.94043,21.9404297 C103.350588,21.4423803 103.792966,21.0703137 104.267578,20.8242188 C104.74219,20.5781238 105.249021,20.4550781 105.788086,20.4550781 C106.473636,20.4550781 107.053709,20.5942369 107.52832,20.8725586 C108.002932,21.1508803 108.357421,21.5595676 108.591797,22.0986328 C108.76172,22.4970723 108.84668,23.1415971 108.84668,24.0322266 L108.84668,30 L106.376953,30 L106.376953,24.6650391 C106.376953,23.7392532 106.291993,23.1416029 106.12207,22.8720703 C105.893554,22.5205061 105.541995,22.3447266 105.067383,22.3447266 C104.721678,22.3447266 104.396486,22.4501943 104.091797,22.6611328 C103.787108,22.8720714 103.567383,23.1811503 103.432617,23.5883789 C103.297851,23.9956075 103.230469,24.6386675 103.230469,25.5175781 L103.230469,30 L100.760742,30 L100.760742,24.8847656 C100.760742,23.976558 100.716797,23.3906263 100.628906,23.1269531 C100.541015,22.8632799 100.404786,22.6669928 100.220215,22.5380859 C100.035644,22.409179 99.7851578,22.3447266 99.46875,22.3447266 C99.0878887,22.3447266 98.7451187,22.4472646 98.4404297,22.6523438 C98.1357407,22.8574229 97.9174811,23.1533184 97.7856445,23.5400391 C97.6538079,23.9267597 97.5878906,24.5683549 97.5878906,25.4648438 L97.5878906,30 L95.1181641,30 L95.1181641,20.6660156 Z M117.451172,30 L117.451172,28.6025391 C117.111326,29.1005884 116.664554,29.4931626 116.11084,29.7802734 C115.557126,30.0673842 114.972659,30.2109375 114.357422,30.2109375 C113.730466,30.2109375 113.167971,30.0732436 112.669922,29.7978516 C112.171873,29.5224596 111.811525,29.1357447 111.588867,28.6376953 C111.36621,28.1396459 111.254883,27.4511763 111.254883,26.5722656 L111.254883,20.6660156 L113.724609,20.6660156 L113.724609,24.9550781 C113.724609,26.2675847 113.770019,27.0717759 113.86084,27.3676758 C113.951661,27.6635757 114.117186,27.8979484 114.357422,28.0708008 C114.597657,28.2436532 114.902342,28.3300781 115.271484,28.3300781 C115.693361,28.3300781 116.071287,28.2143566 116.405273,27.9829102 C116.739259,27.7514637 116.967773,27.4643572 117.09082,27.121582 C117.213868,26.7788069 117.275391,25.9394598 117.275391,24.6035156 L117.275391,20.6660156 L119.745117,20.6660156 L119.745117,30 L117.451172,30 Z M130.792969,30 L128.323242,30 L128.323242,25.2363281 C128.323242,24.2285106 128.270508,23.5766616 128.165039,23.2807617 C128.05957,22.9848618 127.888185,22.7548836 127.650879,22.5908203 C127.413573,22.426757 127.127931,22.3447266 126.793945,22.3447266 C126.366209,22.3447266 125.982424,22.4619129 125.642578,22.6962891 C125.302733,22.9306652 125.069825,23.241209 124.943848,23.6279297 C124.81787,24.0146504 124.754883,24.729487 124.754883,25.7724609 L124.754883,30 L122.285156,30 L122.285156,20.6660156 L124.579102,20.6660156 L124.579102,22.0371094 C125.393559,20.9824166 126.418939,20.4550781 127.655273,20.4550781 C128.200198,20.4550781 128.69824,20.5532217 129.149414,20.7495117 C129.600588,20.9458018 129.941893,21.1962875 130.17334,21.5009766 C130.404786,21.8056656 130.565918,22.1513653 130.656738,22.5380859 C130.747559,22.9248066 130.792969,23.478512 130.792969,24.1992188 L130.792969,30 Z M133.297852,19.4003906 L133.297852,17.1152344 L135.767578,17.1152344 L135.767578,19.4003906 L133.297852,19.4003906 Z M133.297852,30 L133.297852,20.6660156 L135.767578,20.6660156 L135.767578,30 L133.297852,30 Z M142.579102,20.6660156 L142.579102,22.6347656 L140.891602,22.6347656 L140.891602,26.3964844 C140.891602,27.1582069 140.907715,27.6020502 140.939941,27.7280273 C140.972168,27.8540045 141.04541,27.9580074 141.159668,28.0400391 C141.273926,28.1220707 141.413085,28.1630859 141.577148,28.1630859 C141.805665,28.1630859 142.136717,28.0839852 142.570312,27.9257812 L142.78125,29.8417969 C142.207028,30.0878919 141.556644,30.2109375 140.830078,30.2109375 C140.384763,30.2109375 139.9834,30.1362312 139.625977,29.9868164 C139.268553,29.8374016 139.006348,29.6440442 138.839355,29.4067383 C138.672362,29.1694324 138.556641,28.8486348 138.492188,28.4443359 C138.439453,28.1572251 138.413086,27.5771528 138.413086,26.7041016 L138.413086,22.6347656 L137.279297,22.6347656 L137.279297,20.6660156 L138.413086,20.6660156 L138.413086,18.8115234 L140.891602,17.3701172 L140.891602,20.6660156 L142.579102,20.6660156 Z M143.124023,20.6660156 L145.751953,20.6660156 L147.984375,27.2929688 L150.164062,20.6660156 L152.72168,20.6660156 L149.425781,29.6484375 L148.836914,31.2744141 C148.620116,31.8193387 148.413575,32.2353501 148.217285,32.5224609 C148.020995,32.8095717 147.795411,33.0424796 147.540527,33.2211914 C147.285643,33.3999032 146.97217,33.539062 146.600098,33.6386719 C146.228025,33.7382817 145.80762,33.7880859 145.338867,33.7880859 C144.864255,33.7880859 144.39844,33.7382817 143.941406,33.6386719 L143.72168,31.7050781 C144.1084,31.7812504 144.45703,31.8193359 144.767578,31.8193359 C145.3418,31.8193359 145.7666,31.6508806 146.041992,31.3139648 C146.317384,30.9770491 146.52832,30.5478542 146.674805,30.0263672 L143.124023,20.6660156 Z M159.234375,20.6660156 L161.537109,20.6660156 L161.537109,22.0371094 C161.835939,21.568357 162.240232,21.1875015 162.75,20.8945312 C163.259768,20.601561 163.825192,20.4550781 164.446289,20.4550781 C165.530279,20.4550781 166.450192,20.8798786 167.206055,21.7294922 C167.961918,22.5791058 168.339844,23.7626877 168.339844,25.2802734 C168.339844,26.838875 167.958988,28.0502886 167.197266,28.9145508 C166.435543,29.7788129 165.512701,30.2109375 164.428711,30.2109375 C163.913083,30.2109375 163.445803,30.1083995 163.026855,29.9033203 C162.607908,29.6982412 162.166995,29.3466822 161.704102,28.8486328 L161.704102,33.5507812 L159.234375,33.5507812 L159.234375,20.6660156 Z M161.677734,25.1748047 C161.677734,26.2236381 161.88574,26.9985327 162.301758,27.4995117 C162.717776,28.0004908 163.224606,28.2509766 163.822266,28.2509766 C164.396487,28.2509766 164.874022,28.0209984 165.254883,27.5610352 C165.635744,27.1010719 165.826172,26.3466849 165.826172,25.2978516 C165.826172,24.319331 165.629885,23.5927758 165.237305,23.1181641 C164.844725,22.6435523 164.358401,22.40625 163.77832,22.40625 C163.174802,22.40625 162.67383,22.6391578 162.275391,23.1049805 C161.876951,23.5708031 161.677734,24.2607376 161.677734,25.1748047 Z M172.664062,30 L170.194336,30 L170.194336,20.6660156 L172.488281,20.6660156 L172.488281,21.9931641 C172.880861,21.3662078 173.233885,20.953126 173.547363,20.7539062 C173.860841,20.5546865 174.216795,20.4550781 174.615234,20.4550781 C175.177737,20.4550781 175.719724,20.61035 176.241211,20.9208984 L175.476562,23.0742188 C175.060545,22.8046862 174.67383,22.6699219 174.316406,22.6699219 C173.970701,22.6699219 173.677736,22.7651358 173.4375,22.9555664 C173.197264,23.145997 173.008301,23.4902319 172.870605,23.9882812 C172.732909,24.4863306 172.664062,25.5292889 172.664062,27.1171875 L172.664062,30 Z M182.709961,27.0292969 L185.170898,27.4423828 C184.854491,28.3447311 184.354984,29.0317359 183.672363,29.503418 C182.989743,29.9751 182.135747,30.2109375 181.110352,30.2109375 C179.487297,30.2109375 178.286137,29.6806694 177.506836,28.6201172 C176.891598,27.7705036 176.583984,26.6982487 176.583984,25.4033203 C176.583984,23.8564376 176.988277,22.6450239 177.796875,21.769043 C178.605473,20.893062 179.627924,20.4550781 180.864258,20.4550781 C182.252937,20.4550781 183.348629,20.9135696 184.151367,21.8305664 C184.954106,22.7475632 185.337891,24.1523343 185.302734,26.0449219 L179.115234,26.0449219 C179.132813,26.7773474 179.332029,27.3471659 179.712891,27.7543945 C180.093752,28.1616231 180.568357,28.3652344 181.136719,28.3652344 C181.523439,28.3652344 181.848631,28.2597667 182.112305,28.0488281 C182.375978,27.8378896 182.575195,27.4980492 182.709961,27.0292969 Z M182.850586,24.5332031 C182.833008,23.8183558 182.648439,23.2749042 182.296875,22.902832 C181.945311,22.5307599 181.517581,22.3447266 181.013672,22.3447266 C180.474607,22.3447266 180.029299,22.5410137 179.677734,22.9335938 C179.32617,23.3261738 179.15332,23.8593716 179.15918,24.5332031 L182.850586,24.5332031 Z M186.445312,27.3369141 L188.923828,26.9589844 C189.029297,27.4394555 189.243162,27.804198 189.56543,28.0532227 C189.887697,28.3022473 190.338864,28.4267578 190.918945,28.4267578 C191.55762,28.4267578 192.038084,28.3095715 192.360352,28.0751953 C192.57715,27.911132 192.685547,27.6914076 192.685547,27.4160156 C192.685547,27.2285147 192.626954,27.0732428 192.509766,26.9501953 C192.386718,26.8330072 192.11133,26.7246099 191.683594,26.625 C189.691396,26.1855447 188.428714,25.7841815 187.895508,25.4208984 C187.157223,24.9169897 186.788086,24.2168014 186.788086,23.3203125 C186.788086,22.5117147 187.107419,21.832034 187.746094,21.28125 C188.384769,20.730466 189.374993,20.4550781 190.716797,20.4550781 C191.994147,20.4550781 192.943356,20.6630839 193.564453,21.0791016 C194.18555,21.4951193 194.61328,22.1103475 194.847656,22.9248047 L192.518555,23.3554688 C192.418945,22.9921857 192.229982,22.7138682 191.95166,22.5205078 C191.673338,22.3271475 191.27637,22.2304688 190.760742,22.2304688 C190.110348,22.2304688 189.644533,22.3212882 189.363281,22.5029297 C189.17578,22.6318366 189.082031,22.7988271 189.082031,23.0039062 C189.082031,23.1796884 189.164062,23.3291009 189.328125,23.4521484 C189.550782,23.6162118 190.319818,23.8476548 191.635254,24.1464844 C192.95069,24.445314 193.869138,24.8115213 194.390625,25.2451172 C194.906253,25.6845725 195.164062,26.2968711 195.164062,27.0820312 C195.164062,27.9375043 194.806644,28.6728485 194.091797,29.2880859 C193.37695,29.9033234 192.319343,30.2109375 190.918945,30.2109375 C189.647455,30.2109375 188.641117,29.9531276 187.899902,29.4375 C187.158688,28.9218724 186.673829,28.2216841 186.445312,27.3369141 Z M202.731445,27.0292969 L205.192383,27.4423828 C204.875975,28.3447311 204.376468,29.0317359 203.693848,29.503418 C203.011227,29.9751 202.157232,30.2109375 201.131836,30.2109375 C199.508781,30.2109375 198.307621,29.6806694 197.52832,28.6201172 C196.913083,27.7705036 196.605469,26.6982487 196.605469,25.4033203 C196.605469,23.8564376 197.009762,22.6450239 197.818359,21.769043 C198.626957,20.893062 199.649408,20.4550781 200.885742,20.4550781 C202.274421,20.4550781 203.370113,20.9135696 204.172852,21.8305664 C204.97559,22.7475632 205.359375,24.1523343 205.324219,26.0449219 L199.136719,26.0449219 C199.154297,26.7773474 199.353514,27.3471659 199.734375,27.7543945 C200.115236,28.1616231 200.589841,28.3652344 201.158203,28.3652344 C201.544924,28.3652344 201.870116,28.2597667 202.133789,28.0488281 C202.397462,27.8378896 202.596679,27.4980492 202.731445,27.0292969 Z M202.87207,24.5332031 C202.854492,23.8183558 202.669924,23.2749042 202.318359,22.902832 C201.966795,22.5307599 201.539065,22.3447266 201.035156,22.3447266 C200.496091,22.3447266 200.050783,22.5410137 199.699219,22.9335938 C199.347654,23.3261738 199.174805,23.8593716 199.180664,24.5332031 L202.87207,24.5332031 Z M211.617188,20.6660156 L211.617188,22.6347656 L209.929688,22.6347656 L209.929688,26.3964844 C209.929688,27.1582069 209.945801,27.6020502 209.978027,27.7280273 C210.010254,27.8540045 210.083496,27.9580074 210.197754,28.0400391 C210.312012,28.1220707 210.451171,28.1630859 210.615234,28.1630859 C210.843751,28.1630859 211.174803,28.0839852 211.608398,27.9257812 L211.819336,29.8417969 C211.245114,30.0878919 210.59473,30.2109375 209.868164,30.2109375 C209.422849,30.2109375 209.021486,30.1362312 208.664062,29.9868164 C208.306639,29.8374016 208.044434,29.6440442 207.877441,29.4067383 C207.710448,29.1694324 207.594727,28.8486348 207.530273,28.4443359 C207.477539,28.1572251 207.451172,27.5771528 207.451172,26.7041016 L207.451172,22.6347656 L206.317383,22.6347656 L206.317383,20.6660156 L207.451172,20.6660156 L207.451172,18.8115234 L209.929688,17.3701172 L209.929688,20.6660156 L211.617188,20.6660156 Z M212.460938,27.3369141 L214.939453,26.9589844 C215.044922,27.4394555 215.258787,27.804198 215.581055,28.0532227 C215.903322,28.3022473 216.354489,28.4267578 216.93457,28.4267578 C217.573245,28.4267578 218.053709,28.3095715 218.375977,28.0751953 C218.592775,27.911132 218.701172,27.6914076 218.701172,27.4160156 C218.701172,27.2285147 218.642579,27.0732428 218.525391,26.9501953 C218.402343,26.8330072 218.126955,26.7246099 217.699219,26.625 C215.707021,26.1855447 214.444339,25.7841815 213.911133,25.4208984 C213.172848,24.9169897 212.803711,24.2168014 212.803711,23.3203125 C212.803711,22.5117147 213.123044,21.832034 213.761719,21.28125 C214.400394,20.730466 215.390618,20.4550781 216.732422,20.4550781 C218.009772,20.4550781 218.958981,20.6630839 219.580078,21.0791016 C220.201175,21.4951193 220.628905,22.1103475 220.863281,22.9248047 L218.53418,23.3554688 C218.43457,22.9921857 218.245607,22.7138682 217.967285,22.5205078 C217.688963,22.3271475 217.291995,22.2304688 216.776367,22.2304688 C216.125973,22.2304688 215.660158,22.3212882 215.378906,22.5029297 C215.191405,22.6318366 215.097656,22.7988271 215.097656,23.0039062 C215.097656,23.1796884 215.179687,23.3291009 215.34375,23.4521484 C215.566407,23.6162118 216.335443,23.8476548 217.650879,24.1464844 C218.966315,24.445314 219.884763,24.8115213 220.40625,25.2451172 C220.921878,25.6845725 221.179688,26.2968711 221.179688,27.0820312 C221.179688,27.9375043 220.822269,28.6728485 220.107422,29.2880859 C219.392575,29.9033234 218.334968,30.2109375 216.93457,30.2109375 C215.66308,30.2109375 214.656742,29.9531276 213.915527,29.4375 C213.174313,28.9218724 212.689454,28.2216841 212.460938,27.3369141 Z" id="communitypresets" fill="#424242" fill-rule="nonzero"></path>
            <path d="M37.1889936,19.1001074 L36.3122301,19.1001074 L34.9475811,19.1001074 C35.746239,18.5911292 36.2707021,17.7542729 36.2707021,16.8080309 C36.2707021,15.2596096 34.8714006,14 33.1517009,14 C31.6924452,14 29.9644949,16.5373572 29,18.1773053 C28.035505,16.5376362 26.3070047,14 24.848024,14 C23.1283243,14 21.7290228,15.2598887 21.7290228,16.8080309 C21.7290228,17.7542729 22.2532108,18.5911292 23.0521438,19.1001074 L21.8217046,19.1001074 L20.8112813,19.1001074 C19.8126839,19.1001074 19,19.9244067 19,20.9373404 L19,23.8502923 C19,24.5719029 19.4130799,25.1955688 20.0109733,25.4958213 L20.0109733,32.1622089 C20.0109733,33.1757008 20.8233822,34 21.8217046,34 L36.3119551,34 C37.3108275,34 38.1232364,33.1757008 38.1232364,32.1622089 L38.1232364,25.4215953 C38.6476994,25.0995772 38.9999999,24.5169311 38.9999999,23.8505713 L38.9999999,20.9373404 C39.000275,19.9244067 38.1878661,19.1001074 37.1889936,19.1001074 Z M20.8112813,24.0135337 C20.7224499,24.0135337 20.6501196,23.9404239 20.6501196,23.8505713 L20.6501196,20.9373404 C20.6501196,20.8474879 20.7224499,20.7743781 20.8112813,20.7743781 L28.1746651,20.7743781 L28.1746651,24.0132546 L20.8112813,24.0132546 L20.8112813,24.0135337 Z M29.8250598,20.7743781 L37.1889936,20.7743781 C37.2778251,20.7743781 37.3501553,20.8474879 37.3501553,20.9373404 L37.3501553,23.8502923 C37.3501553,23.9401448 37.2778251,24.0132546 37.1889936,24.0132546 L29.8250598,24.0132546 L29.8250598,20.7743781 Z M33.1514259,15.6742706 C33.9476086,15.6742706 34.6203074,16.1935736 34.6203074,16.8080309 C34.6203074,17.4224882 33.9476086,17.9417912 33.1514259,17.9417912 L31.1135282,17.9417912 C31.9482137,16.7187365 32.8057259,15.7465433 33.1514259,15.6742706 Z M24.8251973,15.6725964 C25.1882236,15.7462643 26.0501361,16.7187365 26.8859217,17.9420702 L24.848024,17.9420702 C24.0518412,17.9420702 23.3791425,17.4227673 23.3791425,16.80831 C23.3791425,16.1938526 24.0518412,15.6742706 24.8251973,15.6725964 Z M21.6610929,32.162488 L21.6610929,25.6878043 L28.1749402,25.6878043 L28.1749402,32.3260084 L21.8217046,32.3260084 C21.7331481,32.3260084 21.6610929,32.2526195 21.6610929,32.162488 Z M36.3122301,32.3260084 L29.8250598,32.3260084 L29.8250598,25.6878043 L36.4733918,25.6878043 L36.4733918,32.162488 C36.4733918,32.2526195 36.4010615,32.3260084 36.3122301,32.3260084 Z" id="CommunityIcon" fill="#00A8E8" fill-rule="nonzero"></path>
        </g>
    </g>
</svg>
