<?xml version="1.0" encoding="UTF-8"?>
<svg width="80px" height="24px" viewBox="0 0 80 24" version="1.1" xmlns="http://www.w3.org/2000/svg" xmlns:xlink="http://www.w3.org/1999/xlink">
    <title>Copy</title>
    <g stroke="none" stroke-width="1" fill="none" fill-rule="evenodd">
        <g id="Copy">
            <polygon fill-opacity="0.00953343531" fill="#FFFFFF" points="0 3.03046477e-13 80 3.03046477e-13 80 24 0 24"></polygon>
            <path fill="#424242" fill-rule="nonzero" d="M23.3349609,9.88671875 L21.4414062,10.2285156 C21.3776038,9.85025853 21.2329113,9.56543064 21.0073242,9.37402344 C20.7817372,9.18261623 20.4889341,9.08691406 20.1289062,9.08691406 C19.6503882,9.08691406 19.2687189,9.25211423 18.9838867,9.58251953 C18.6990546,9.91292483 18.5566406,10.4654909 18.5566406,11.2402344 C18.5566406,12.1015668 18.7013332,12.7099592 18.9907227,13.0654297 C19.2801121,13.4209002 19.6686174,13.5986328 20.15625,13.5986328 C20.5208352,13.5986328 20.8193348,13.4949555 21.0517578,13.2875977 C21.2841808,13.0802398 21.4482417,12.7236353 21.5439453,12.2177734 L23.4306641,12.5390625 C23.2346995,13.4049522 22.8587267,14.0589171 22.3027344,14.5009766 C21.746742,14.9430361 21.0016323,15.1640625 20.0673828,15.1640625 C19.0055285,15.1640625 18.1590201,14.8291049 17.527832,14.1591797 C16.896644,13.4892545 16.5810547,12.5618549 16.5810547,11.3769531 C16.5810547,10.1783794 16.8977833,9.24528329 17.53125,8.57763672 C18.1647167,7.90999015 19.021479,7.57617188 20.1015625,7.57617188 C20.9856815,7.57617188 21.6886367,7.7664369 22.2104492,8.14697266 C22.7322617,8.52750841 23.1070952,9.10741798 23.3349609,9.88671875 Z M24.3466797,11.2675781 C24.3466797,10.6295541 24.5039047,10.0120473 24.8183594,9.41503906 C25.1328141,8.81803087 25.5782849,8.36230626 26.1547852,8.04785156 C26.7312854,7.73339687 27.3749964,7.57617188 28.0859375,7.57617188 C29.1842503,7.57617188 30.0843064,7.93277638 30.7861328,8.64599609 C31.4879592,9.35921581 31.8388672,10.2604112 31.8388672,11.3496094 C31.8388672,12.4479222 31.4845413,13.3582321 30.7758789,14.0805664 C30.0672165,14.8029007 29.1751356,15.1640625 28.0996094,15.1640625 C27.4342415,15.1640625 26.7996449,15.0136734 26.1958008,14.7128906 C25.5919566,14.4121079 25.1328141,13.9711943 24.8183594,13.3901367 C24.5039047,12.8090791 24.3466797,12.1015667 24.3466797,11.2675781 Z M26.3154297,11.3701172 C26.3154297,12.0901729 26.4863264,12.6415996 26.828125,13.0244141 C27.1699236,13.4072285 27.5914688,13.5986328 28.0927734,13.5986328 C28.594078,13.5986328 29.014484,13.4072285 29.3540039,13.0244141 C29.6935238,12.6415996 29.8632812,12.0856156 29.8632812,11.3564453 C29.8632812,10.6455043 29.6935238,10.0986347 29.3540039,9.71582031 C29.014484,9.3330059 28.594078,9.14160156 28.0927734,9.14160156 C27.5914688,9.14160156 27.1699236,9.3330059 26.828125,9.71582031 C26.4863264,10.0986347 26.3154297,10.6500615 26.3154297,11.3701172 Z M33.2880859,7.74023438 L35.0791016,7.74023438 L35.0791016,8.80664062 C35.3115246,8.44205547 35.6259746,8.14583447 36.0224609,7.91796875 C36.4189473,7.69010303 36.8587215,7.57617188 37.3417969,7.57617188 C38.1849,7.57617188 38.9003877,7.90657222 39.4882812,8.56738281 C40.0761748,9.22819341 40.3701172,10.1487571 40.3701172,11.3291016 C40.3701172,12.5413472 40.0738962,13.4835578 39.4814453,14.1557617 C38.8889944,14.8279656 38.1712282,15.1640625 37.328125,15.1640625 C36.9270813,15.1640625 36.563641,15.0843107 36.237793,14.9248047 C35.911945,14.7652987 35.5690122,14.4918639 35.2089844,14.1044922 L35.2089844,17.7617188 L33.2880859,17.7617188 L33.2880859,7.74023438 Z M35.1884766,11.2470703 C35.1884766,12.0628296 35.3502588,12.6655254 35.6738281,13.0551758 C35.9973975,13.4448262 36.3915992,13.6396484 36.8564453,13.6396484 C37.3030621,13.6396484 37.6744777,13.4607765 37.9707031,13.1030273 C38.2669286,12.7452782 38.4150391,12.1585327 38.4150391,11.3427734 C38.4150391,10.5817019 38.2623713,10.0166034 37.9570312,9.64746094 C37.6516912,9.27831847 37.2734398,9.09375 36.8222656,9.09375 C36.3528622,9.09375 35.9632177,9.27490053 35.6533203,9.63720703 C35.3434229,9.99951353 35.1884766,10.5361293 35.1884766,11.2470703 Z M40.9853516,7.74023438 L43.0292969,7.74023438 L44.765625,12.8945312 L46.4609375,7.74023438 L48.4501953,7.74023438 L45.8867188,14.7265625 L45.4287109,15.9912109 C45.2600903,16.4150412 45.0994474,16.7386057 44.9467773,16.9619141 C44.7941073,17.1852225 44.6186533,17.366373 44.4204102,17.5053711 C44.222167,17.6443692 43.9783543,17.7526038 43.6889648,17.8300781 C43.3995754,17.9075525 43.072593,17.9462891 42.7080078,17.9462891 C42.3388653,17.9462891 41.9765643,17.9075525 41.6210938,17.8300781 L41.4501953,16.3261719 C41.7509781,16.385417 42.0221342,16.4150391 42.2636719,16.4150391 C42.7102887,16.4150391 43.040689,16.2840182 43.2548828,16.0219727 C43.4690766,15.7599271 43.6331375,15.4261088 43.7470703,15.0205078 L40.9853516,7.74023438 Z"></path>
        </g>
    </g>
</svg>
