<?xml version="1.0" encoding="UTF-8"?>
<svg width="120px" height="34px" viewBox="0 0 120 34" version="1.1" xmlns="http://www.w3.org/2000/svg" xmlns:xlink="http://www.w3.org/1999/xlink">
    <title>CreateTag</title>
    <g id="Page-1" stroke="none" stroke-width="1" fill="none" fill-rule="evenodd">
        <g id="CreateTag" fill="#80848A">
            <path d="M115,0 C117.761424,-5.07265313e-16 120,2.23857625 120,5 L120,29 C120,31.7614237 117.761424,34 115,34 L5,34 C2.23857625,34 3.38176876e-16,31.7614237 0,29 L0,5 C-3.38176876e-16,2.23857625 2.23857625,2.28362215e-15 5,0 L115,0 Z M96.7021484,13.4550781 C95.5830078,13.4550781 94.6469727,13.8681641 93.894043,14.6943359 C93.1411133,15.5205078 92.7646484,16.7158203 92.7646484,18.2802734 C92.7646484,19.5283203 93.0517578,20.5712891 93.6259766,21.4091797 C94.3583984,22.4697266 95.3515625,23 96.6054688,23 C97.7304688,23 98.6621094,22.4960938 99.4003906,21.4882812 L99.4003906,21.4882812 L99.4003906,22.8505859 C99.4003906,23.4013672 99.3623047,23.7792969 99.2861328,23.984375 C99.1748047,24.2714844 99.0107422,24.4794922 98.7939453,24.6083984 C98.4716797,24.8017578 97.9882812,24.8984375 97.34375,24.8984375 C96.8398438,24.8984375 96.4707031,24.8105469 96.2363281,24.6347656 C96.0664062,24.5117188 95.9580078,24.2861328 95.9111328,23.9580078 L95.9111328,23.9580078 L93.0898438,23.6152344 C93.0839844,23.7324219 93.0810547,23.8320312 93.0810547,23.9140625 C93.0810547,24.7460938 93.4121094,25.4331055 94.0742188,25.9750977 C94.7363281,26.5170898 95.8583984,26.7880859 97.4404297,26.7880859 C98.2783203,26.7880859 98.9711914,26.7001953 99.519043,26.5244141 C100.066895,26.3486328 100.504883,26.1054688 100.833008,25.7949219 C101.161133,25.484375 101.416016,25.0566406 101.597656,24.5117188 C101.779297,23.9667969 101.870117,23.1435547 101.870117,22.0419922 L101.870117,22.0419922 L101.870117,13.6660156 L99.5585938,13.6660156 L99.5585938,14.9755859 C98.8085938,13.9619141 97.8564453,13.4550781 96.7021484,13.4550781 Z M23.2519531,13.4550781 C21.8632812,13.4550781 20.7617188,13.8842773 19.9472656,14.7426758 C19.1328125,15.6010742 18.7255859,16.8007812 18.7255859,18.3417969 C18.7255859,19.8652344 19.1313477,21.0576172 19.9428711,21.9189453 C20.7543945,22.7802734 21.8427734,23.2109375 23.2080078,23.2109375 C24.4091797,23.2109375 25.3671875,22.9267578 26.0820312,22.3583984 C26.796875,21.7900391 27.2802734,20.9492188 27.5322266,19.8359375 L27.5322266,19.8359375 L25.1064453,19.4228516 C24.9833984,20.0732422 24.7724609,20.5317383 24.4736328,20.7983398 C24.1748047,21.0649414 23.7910156,21.1982422 23.3222656,21.1982422 C22.6953125,21.1982422 22.1958008,20.9697266 21.8237305,20.5126953 C21.4516602,20.0556641 21.265625,19.2734375 21.265625,18.1660156 C21.265625,17.1699219 21.4487305,16.4594727 21.8149414,16.034668 C22.1811523,15.6098633 22.671875,15.3974609 23.2871094,15.3974609 C23.75,15.3974609 24.1264648,15.5205078 24.4165039,15.7666016 C24.706543,16.0126953 24.8925781,16.3789062 24.9746094,16.8652344 L24.9746094,16.8652344 L27.4091797,16.4257812 C27.1162109,15.4238281 26.6342773,14.6782227 25.9633789,14.1889648 C25.2924805,13.699707 24.3886719,13.4550781 23.2519531,13.4550781 Z M39.8457031,13.4550781 C38.609375,13.4550781 37.5869141,13.8930664 36.7783203,14.769043 C35.9697266,15.6450195 35.5654297,16.8564453 35.5654297,18.4033203 C35.5654297,19.6982422 35.8730469,20.7705078 36.4882813,21.6201172 C37.2675781,22.6806641 38.46875,23.2109375 40.0917969,23.2109375 C41.1171875,23.2109375 41.9711914,22.9750977 42.6538086,22.503418 C43.3364258,22.0317383 43.8359375,21.3447266 44.1523438,20.4423828 L44.1523438,20.4423828 L41.6914063,20.0292969 C41.5566406,20.4980469 41.3574219,20.8378906 41.09375,21.0488281 C40.8300781,21.2597656 40.5048828,21.3652344 40.1181641,21.3652344 C39.5498047,21.3652344 39.0751953,21.1616211 38.6943359,20.7543945 C38.3134766,20.347168 38.1142578,19.7773438 38.0966797,19.0449219 L38.0966797,19.0449219 L44.2841797,19.0449219 C44.3193359,17.1523438 43.9355469,15.7475586 43.1328125,14.8305664 C42.3300781,13.9135742 41.234375,13.4550781 39.8457031,13.4550781 Z M49.9443359,13.4550781 C48.7314453,13.4550781 47.8173828,13.671875 47.2021484,14.1054688 C46.5869141,14.5390625 46.1533203,15.2070312 45.9013672,16.109375 L45.9013672,16.109375 L48.1425781,16.5136719 C48.2949219,16.0800781 48.4941406,15.7768555 48.7402344,15.6040039 C48.9863281,15.4311523 49.3291016,15.3447266 49.7685547,15.3447266 C50.4189453,15.3447266 50.8613281,15.4458008 51.0957031,15.6479492 C51.3300781,15.8500977 51.4472656,16.1884766 51.4472656,16.6630859 L51.4472656,16.6630859 L51.4472656,16.9091797 C51.0019531,17.0966797 50.2021484,17.2988281 49.0478516,17.515625 C48.1923828,17.6796875 47.5375977,17.871582 47.0834961,18.0913086 C46.6293945,18.3110352 46.2763672,18.6274414 46.0244141,19.0405273 C45.7724609,19.4536133 45.6464844,19.9238281 45.6464844,20.4511719 C45.6464844,21.2480469 45.9233398,21.9072266 46.4770508,22.4287109 C47.0307617,22.9501953 47.7880859,23.2109375 48.7490234,23.2109375 C49.2939453,23.2109375 49.8066406,23.1083984 50.2871094,22.9033203 C50.7675781,22.6982422 51.21875,22.390625 51.640625,21.9804688 C51.6582031,22.0273438 51.6875,22.1240234 51.7285156,22.2705078 C51.8222656,22.5927734 51.9013672,22.8359375 51.9658203,23 L51.9658203,23 L54.4091797,23 C54.1923828,22.5546875 54.0444336,22.137207 53.965332,21.7475586 C53.8862305,21.3579102 53.8466797,20.7529297 53.8466797,19.9326172 L53.8466797,19.9326172 L53.8730469,17.0498047 C53.8730469,15.9775391 53.7631836,15.2407227 53.543457,14.8393555 C53.3237305,14.4379883 52.9443359,14.1069336 52.4052734,13.8461914 C51.8662109,13.5854492 51.0458984,13.4550781 49.9443359,13.4550781 Z M58.9003906,10.3701172 L56.421875,11.8115234 L56.421875,13.6660156 L55.2880859,13.6660156 L55.2880859,15.6347656 L56.421875,15.6347656 L56.421875,19.7041016 C56.421875,20.5771484 56.4482422,21.1572266 56.5009766,21.4443359 C56.5654297,21.8486328 56.6811523,22.1694336 56.8481445,22.4067383 C57.0151367,22.644043 57.2773438,22.8374023 57.6347656,22.9868164 C57.9921875,23.1362305 58.3935547,23.2109375 58.8388672,23.2109375 C59.5654297,23.2109375 60.2158203,23.0878906 60.7900391,22.8417969 L60.7900391,22.8417969 L60.5791016,20.9257812 C60.1455078,21.0839844 59.8144531,21.1630859 59.5859375,21.1630859 C59.421875,21.1630859 59.2827148,21.1220703 59.168457,21.0400391 C59.0541992,20.9580078 58.980957,20.8540039 58.9487305,20.7280273 C58.9165039,20.6020508 58.9003906,20.1582031 58.9003906,19.3964844 L58.9003906,15.6347656 L60.5878906,15.6347656 L60.5878906,13.6660156 L58.9003906,13.6660156 L58.9003906,10.3701172 Z M65.8613281,13.4550781 C64.625,13.4550781 63.6025391,13.8930664 62.7939453,14.769043 C61.9853516,15.6450195 61.5810547,16.8564453 61.5810547,18.4033203 C61.5810547,19.6982422 61.8886719,20.7705078 62.5039063,21.6201172 C63.2832031,22.6806641 64.484375,23.2109375 66.1074219,23.2109375 C67.1328125,23.2109375 67.9868164,22.9750977 68.6694336,22.503418 C69.3520508,22.0317383 69.8515625,21.3447266 70.1679688,20.4423828 L70.1679688,20.4423828 L67.7070313,20.0292969 C67.5722656,20.4980469 67.3730469,20.8378906 67.109375,21.0488281 C66.8457031,21.2597656 66.5205078,21.3652344 66.1337891,21.3652344 C65.5654297,21.3652344 65.0908203,21.1616211 64.7099609,20.7543945 C64.3291016,20.347168 64.1298828,19.7773438 64.1123047,19.0449219 L64.1123047,19.0449219 L70.2998047,19.0449219 C70.3349609,17.1523438 69.9511719,15.7475586 69.1484375,14.8305664 C68.3457031,13.9135742 67.25,13.4550781 65.8613281,13.4550781 Z M79.90625,10.3701172 L77.4277344,11.8115234 L77.4277344,13.6660156 L76.2939453,13.6660156 L76.2939453,15.6347656 L77.4277344,15.6347656 L77.4277344,19.7041016 C77.4277344,20.5771484 77.4541016,21.1572266 77.5068359,21.4443359 C77.5712891,21.8486328 77.6870117,22.1694336 77.8540039,22.4067383 C78.0209961,22.644043 78.2832031,22.8374023 78.640625,22.9868164 C78.9980469,23.1362305 79.3994141,23.2109375 79.8447266,23.2109375 C80.5712891,23.2109375 81.2216797,23.0878906 81.7958984,22.8417969 L81.7958984,22.8417969 L81.5849609,20.9257812 C81.1513672,21.0839844 80.8203125,21.1630859 80.5917969,21.1630859 C80.4277344,21.1630859 80.2885742,21.1220703 80.1743164,21.0400391 C80.0600586,20.9580078 79.9868164,20.8540039 79.9545898,20.7280273 C79.9223633,20.6020508 79.90625,20.1582031 79.90625,19.3964844 L79.90625,15.6347656 L81.59375,15.6347656 L81.59375,13.6660156 L79.90625,13.6660156 L79.90625,10.3701172 Z M86.9550781,13.4550781 C85.7421875,13.4550781 84.828125,13.671875 84.2128906,14.1054688 C83.5976562,14.5390625 83.1640625,15.2070312 82.9121094,16.109375 L82.9121094,16.109375 L85.1533203,16.5136719 C85.3056641,16.0800781 85.5048828,15.7768555 85.7509766,15.6040039 C85.9970703,15.4311523 86.3398438,15.3447266 86.7792969,15.3447266 C87.4296875,15.3447266 87.8720703,15.4458008 88.1064453,15.6479492 C88.3408203,15.8500977 88.4580078,16.1884766 88.4580078,16.6630859 L88.4580078,16.6630859 L88.4580078,16.9091797 C88.0126953,17.0966797 87.2128906,17.2988281 86.0585938,17.515625 C85.203125,17.6796875 84.5483398,17.871582 84.0942383,18.0913086 C83.6401367,18.3110352 83.2871094,18.6274414 83.0351562,19.0405273 C82.7832031,19.4536133 82.6572266,19.9238281 82.6572266,20.4511719 C82.6572266,21.2480469 82.934082,21.9072266 83.487793,22.4287109 C84.0415039,22.9501953 84.7988281,23.2109375 85.7597656,23.2109375 C86.3046875,23.2109375 86.8173828,23.1083984 87.2978516,22.9033203 C87.7783203,22.6982422 88.2294922,22.390625 88.6513672,21.9804688 C88.6689453,22.0273438 88.6982422,22.1240234 88.7392578,22.2705078 C88.8330078,22.5927734 88.9121094,22.8359375 88.9765625,23 L88.9765625,23 L91.4199219,23 C91.203125,22.5546875 91.0551758,22.137207 90.9760742,21.7475586 C90.8969727,21.3579102 90.8574219,20.7529297 90.8574219,19.9326172 L90.8574219,19.9326172 L90.8837891,17.0498047 C90.8837891,15.9775391 90.7739258,15.2407227 90.5541992,14.8393555 C90.3344727,14.4379883 89.9550781,14.1069336 89.4160156,13.8461914 C88.8769531,13.5854492 88.0566406,13.4550781 86.9550781,13.4550781 Z M33.5966797,13.4550781 C33.1982422,13.4550781 32.8422852,13.5546875 32.5288086,13.7539062 C32.215332,13.953125 31.8623047,14.3662109 31.4697266,14.9931641 L31.4697266,14.9931641 L31.4697266,13.6660156 L29.1757812,13.6660156 L29.1757812,23 L31.6455078,23 L31.6455078,20.1171875 C31.6455078,18.5292969 31.7143555,17.4863281 31.8520508,16.9882812 C31.9897461,16.4902344 32.1787109,16.1459961 32.4189453,15.9555664 C32.6591797,15.7651367 32.9521484,15.6699219 33.2978516,15.6699219 C33.6552734,15.6699219 34.0419922,15.8046875 34.4580078,16.0742188 L34.4580078,16.0742188 L35.2226562,13.9208984 C34.7011719,13.6103516 34.1591797,13.4550781 33.5966797,13.4550781 Z M51.4472656,18.5175781 L51.4472656,19.0097656 C51.4472656,19.6015625 51.4150391,20.0029297 51.3505859,20.2138672 C51.2568359,20.5361328 51.0605469,20.8085938 50.7617188,21.03125 C50.3574219,21.3242188 49.9326172,21.4707031 49.4873047,21.4707031 C49.0888672,21.4707031 48.7607422,21.3447266 48.5029297,21.0927734 C48.2451172,20.8408203 48.1162109,20.5419922 48.1162109,20.1962891 C48.1162109,19.8447266 48.2773438,19.5546875 48.5996094,19.3261719 C48.8105469,19.1855469 49.2587891,19.0419922 49.9443359,18.8955078 C50.6298828,18.7490234 51.1308594,18.6230469 51.4472656,18.5175781 L51.4472656,18.5175781 Z M88.4580078,18.5175781 L88.4580078,19.0097656 C88.4580078,19.6015625 88.4257812,20.0029297 88.3613281,20.2138672 C88.2675781,20.5361328 88.0712891,20.8085938 87.7724609,21.03125 C87.3681641,21.3242188 86.9433594,21.4707031 86.4980469,21.4707031 C86.0996094,21.4707031 85.7714844,21.3447266 85.5136719,21.0927734 C85.2558594,20.8408203 85.1269531,20.5419922 85.1269531,20.1962891 C85.1269531,19.8447266 85.2880859,19.5546875 85.6103516,19.3261719 C85.8212891,19.1855469 86.2695312,19.0419922 86.9550781,18.8955078 C87.640625,18.7490234 88.1416016,18.6230469 88.4580078,18.5175781 L88.4580078,18.5175781 Z M97.3349609,15.3447266 C97.9443359,15.3447266 98.4482422,15.5791016 98.8466797,16.0478516 C99.2451172,16.5166016 99.4443359,17.234375 99.4443359,18.2011719 C99.4443359,19.1269531 99.2363281,19.8256836 98.8203125,20.2973633 C98.4042969,20.769043 97.8945312,21.0048828 97.2910156,21.0048828 C96.7285156,21.0048828 96.2553711,20.7749023 95.871582,20.3149414 C95.487793,19.8549805 95.2958984,19.1298828 95.2958984,18.1396484 C95.2958984,17.1962891 95.487793,16.4946289 95.871582,16.034668 C96.2553711,15.574707 96.7431641,15.3447266 97.3349609,15.3447266 Z M39.9951172,15.3447266 C40.4990234,15.3447266 40.9267578,15.5307617 41.2783203,15.902832 C41.6298828,16.2749023 41.8144531,16.8183594 41.8320313,17.5332031 L41.8320313,17.5332031 L38.140625,17.5332031 C38.1347656,16.859375 38.3076172,16.3261719 38.6591797,15.9335938 C39.0107422,15.5410156 39.4560547,15.3447266 39.9951172,15.3447266 Z M66.0107422,15.3447266 C66.5146484,15.3447266 66.9423828,15.5307617 67.2939453,15.902832 C67.6455078,16.2749023 67.8300781,16.8183594 67.8476563,17.5332031 L67.8476563,17.5332031 L64.15625,17.5332031 C64.1503906,16.859375 64.3232422,16.3261719 64.6748047,15.9335938 C65.0263672,15.5410156 65.4716797,15.3447266 66.0107422,15.3447266 Z" id="Shape"></path>
        </g>
    </g>
</svg>
