<?xml version="1.0" encoding="UTF-8"?>
<svg width="80px" height="24px" viewBox="0 0 80 24" version="1.1" xmlns="http://www.w3.org/2000/svg" xmlns:xlink="http://www.w3.org/1999/xlink">
    <title>Cut</title>
    <g stroke="none" stroke-width="1" fill="none" fill-rule="evenodd">
        <g id="Cut">
            <path fill-opacity="0.0141225962" fill="#FFFFFF" d="M8,0 L72,0 C76.418278,-8.11624501e-16 80,3.581722 80,8 L80,24 L0,24 L0,8 C-5.41083001e-16,3.581722 3.581722,8.11624501e-16 8,0 Z"></path>
            <path fill="#424242" fill-rule="nonzero" d="M23.3349609,10.8867188 L21.4414062,11.2285156 C21.3776038,10.8502585 21.2329113,10.5654306 21.0073242,10.3740234 C20.7817372,10.1826162 20.4889341,10.0869141 20.1289062,10.0869141 C19.6503882,10.0869141 19.2687189,10.2521142 18.9838867,10.5825195 C18.6990546,10.9129248 18.5566406,11.4654909 18.5566406,12.2402344 C18.5566406,13.1015668 18.7013332,13.7099592 18.9907227,14.0654297 C19.2801121,14.4209002 19.6686174,14.5986328 20.15625,14.5986328 C20.5208352,14.5986328 20.8193348,14.4949555 21.0517578,14.2875977 C21.2841808,14.0802398 21.4482417,13.7236353 21.5439453,13.2177734 L23.4306641,13.5390625 C23.2346995,14.4049522 22.8587267,15.0589171 22.3027344,15.5009766 C21.746742,15.9430361 21.0016323,16.1640625 20.0673828,16.1640625 C19.0055285,16.1640625 18.1590201,15.8291049 17.527832,15.1591797 C16.896644,14.4892545 16.5810547,13.5618549 16.5810547,12.3769531 C16.5810547,11.1783794 16.8977833,10.2452833 17.53125,9.57763672 C18.1647167,8.90999015 19.021479,8.57617188 20.1015625,8.57617188 C20.9856815,8.57617188 21.6886367,8.7664369 22.2104492,9.14697266 C22.7322617,9.52750841 23.1070952,10.107418 23.3349609,10.8867188 Z M29.5693359,16 L29.5693359,14.9130859 C29.3050117,15.3004577 28.9575217,15.6057932 28.5268555,15.8291016 C28.0961893,16.05241 27.641604,16.1640625 27.1630859,16.1640625 C26.6754533,16.1640625 26.2379577,16.0569672 25.8505859,15.8427734 C25.4632142,15.6285797 25.1829436,15.3278014 25.0097656,14.9404297 C24.8365877,14.553058 24.75,14.0175815 24.75,13.3339844 L24.75,8.74023438 L26.6708984,8.74023438 L26.6708984,12.0761719 C26.6708984,13.0970103 26.7062171,13.7224923 26.7768555,13.9526367 C26.8474938,14.1827811 26.976236,14.3650709 27.1630859,14.4995117 C27.3499358,14.6339525 27.5869126,14.7011719 27.8740234,14.7011719 C28.2021501,14.7011719 28.4960925,14.6111663 28.7558594,14.4311523 C29.0156263,14.2511384 29.1933589,14.0278334 29.2890625,13.7612305 C29.3847661,13.4946276 29.4326172,12.8418021 29.4326172,11.8027344 L29.4326172,8.74023438 L31.3535156,8.74023438 L31.3535156,16 L29.5693359,16 Z M36.671875,8.74023438 L36.671875,10.2714844 L35.359375,10.2714844 L35.359375,13.1972656 C35.359375,13.7897165 35.3719074,14.1349279 35.3969727,14.2329102 C35.4220379,14.3308924 35.4790035,14.4117835 35.5678711,14.4755859 C35.6567387,14.5393883 35.7649733,14.5712891 35.8925781,14.5712891 C36.0703134,14.5712891 36.3277978,14.5097662 36.6650391,14.3867188 L36.8291016,15.8769531 C36.3824847,16.0683603 35.8766304,16.1640625 35.3115234,16.1640625 C34.9651675,16.1640625 34.6529962,16.1059576 34.375,15.9897461 C34.0970038,15.8735346 33.8930671,15.7231455 33.7631836,15.5385742 C33.6333001,15.354003 33.5432945,15.1044938 33.4931641,14.7900391 C33.4521482,14.5667307 33.4316406,14.1155633 33.4316406,13.4365234 L33.4316406,10.2714844 L32.5498047,10.2714844 L32.5498047,8.74023438 L33.4316406,8.74023438 L33.4316406,7.29785156 L35.359375,6.17675781 L35.359375,8.74023438 L36.671875,8.74023438 Z"></path>
        </g>
    </g>
</svg>
