<?xml version="1.0" encoding="UTF-8"?>
<svg width="34px" height="34px" viewBox="0 0 34 34" version="1.1" xmlns="http://www.w3.org/2000/svg" xmlns:xlink="http://www.w3.org/1999/xlink">
    <title>Delay</title>
    <g stroke="none" stroke-width="1" fill="none" fill-rule="evenodd">
        <g id="Delay">
            <circle fill="#C0C0C0" cx="17" cy="17" r="17"></circle>
            <path fill="#FFFFFF" fill-rule="nonzero" d="M26.5067974,10.3627056 C24.6945622,6.82680081 20.9798442,6.00028027 17.0047541,6 L17.0047541,6 C17.0033527,6 17.0025119,6 17.0019514,6 C17.0008303,6 17.00055,6 16.9994289,6 L16.9994289,6 C13.0237782,6.00028027 9.30934057,6.82680081 7.49654476,10.3627056 C5.68402922,13.9005722 9.35418401,20.3126227 10.1938773,21.8159988 C11.0338509,23.3182539 14.7878068,29.3244713 16.9991487,29.3328794 L16.9991487,29.3328794 C16.9999895,29.3328794 17.00055,29.3328794 17.0016711,29.3328794 C17.0022316,29.3328794 17.0030725,29.3328794 17.0044738,29.3328794 L17.0044738,29.3328794 C19.2158156,29.3244713 22.9697716,23.3182539 23.8094649,21.8162791 C24.6497187,20.3123424 28.3195932,13.9005722 26.5067974,10.3627056 Z"></path>
            <path fill="#C0C0C0" fill-rule="nonzero" d="M24.6027083,11.489554 C23.1531736,8.66132495 20.1819191,8.00022418 17.0024032,8 C13.8181797,8.00022418 10.8471493,8.66132495 9.39716632,11.489554 C7.94740753,14.3193522 10.8830178,19.4480953 11.5546549,20.6505858 C12.2265162,21.8521796 15.2291557,26.6563131 16.9979197,26.6630384 C18.7709431,26.6563131 21.7735825,21.8521796 22.4452197,20.65081 C23.1173052,19.4478711 26.0526912,14.3193522 24.6027083,11.489554 Z"></path>
            <path fill="#FFFFFF" fill-rule="nonzero" d="M22.7020312,12.6171655 C21.6148802,10.4959937 19.3864393,10.0001681 17.0018024,10 C14.6136347,10.0001681 12.385362,10.4959937 11.2978747,12.6171655 C10.2105556,14.7395142 12.4122633,18.5860715 12.9159912,19.4879394 C13.4198872,20.3891347 15.6718668,23.9922348 16.9984398,23.9972788 C18.3282073,23.9922348 20.5801869,20.3891347 21.0839148,19.4881075 C21.5879789,18.5859034 23.7895184,14.7395142 22.7020312,12.6171655 Z"></path>
        </g>
    </g>
</svg>
