<?xml version="1.0" encoding="UTF-8"?>
<svg width="34px" height="34px" viewBox="0 0 34 34" version="1.1" xmlns="http://www.w3.org/2000/svg" xmlns:xlink="http://www.w3.org/1999/xlink">
    <title>Delay</title>
    <g stroke="none" stroke-width="1" fill="none" fill-rule="evenodd">
        <circle fill-opacity="0" fill="#000000" cx="17" cy="17" r="17"></circle>
        <path fill="#747980" fill-rule="nonzero" d="M17.0030041,6 L17.3081856,6.00165896 C21.1666133,6.04381315 24.7379265,6.90437599 26.5033853,10.3004649 C28.315864,13.7878584 24.6466315,20.1081549 23.8065246,21.5906355 C22.9669782,23.0711823 19.2136789,28.9917118 17.0027238,29 L17.0027238,29 L16.9973996,29 L16.844315,28.9903949 C14.617345,28.7248901 11.0140583,23.0375273 10.1933186,21.5903593 C9.35377221,20.1084311 5.68425941,13.7878584 7.49645791,10.3004649 C9.30893662,6.81500523 13.0227246,6.00027627 16.9976798,6 L16.9976798,6 L17.0030041,6 Z M17.0018024,10 C14.6136347,10.0001682 12.385362,10.4960901 11.2978747,12.6176743 C10.2105556,14.7404356 12.4122633,18.5877407 12.9159912,19.4897839 C13.4198872,20.3911545 15.6718668,23.994955 16.9984398,24 C18.3282073,23.994955 20.5801869,20.3911545 21.0839148,19.4899521 C21.5879789,18.5875725 23.7895184,14.7404356 22.7020312,12.6176743 C21.6148802,10.4960901 19.3864393,10.0001682 17.0018024,10 Z"></path>
    </g>
</svg>
