<?xml version="1.0" encoding="UTF-8"?>
<svg width="80px" height="24px" viewBox="0 0 80 24">
    <g stroke="none" stroke-width="1" fill="#D44455" fill-rule="evenodd">
        <path d="M75,0 C77.7614237,-5.07265313e-16 80,2.23857625 80,5 L80,19 C80,21.7614237 77.7614237,24 75,24 L5,24 C2.23857625,24 3.38176876e-16,21.7614237 0,19 L0,5 C-3.38176876e-16,2.23857625 2.23857625,1.39544373e-15 5,0 L75,0 Z M23.8525391,5.11523438 L21.3828125,5.11523438 L21.3828125,9.75585938 C20.6210899,8.88866754 19.7187552,8.45507812 18.6757812,8.45507812 C17.5390568,8.45507812 16.5986365,8.8666951 15.8544922,9.68994141 C15.1103478,10.5131877 14.7382812,11.7158124 14.7382812,13.2978516 C14.7382812,14.8447343 15.1206016,16.0502886 15.8852539,16.9145508 C16.6499062,17.7788129 17.568354,18.2109375 18.640625,18.2109375 C19.1679714,18.2109375 19.6909154,18.0805677 20.2094727,17.8198242 C20.7280299,17.5590807 21.1777325,17.162112 21.5585938,16.6289062 L21.5585938,16.6289062 L21.5585938,18 L23.8525391,18 L23.8525391,5.11523438 Z M29.8466797,8.45507812 C28.6103454,8.45507812 27.5878947,8.89306203 26.7792969,9.76904297 C25.9706991,10.6450239 25.5664062,11.8564376 25.5664062,13.4033203 C25.5664062,14.6982487 25.8740204,15.7705036 26.4892578,16.6201172 C27.2685586,17.6806694 28.4697184,18.2109375 30.0927734,18.2109375 C31.1181692,18.2109375 31.9721646,17.9751 32.6547852,17.503418 C33.3374058,17.0317359 33.8369125,16.3447311 34.1533203,15.4423828 L34.1533203,15.4423828 L31.6923828,15.0292969 C31.5576165,15.4980492 31.3583998,15.8378896 31.0947266,16.0488281 C30.8310534,16.2597667 30.5058613,16.3652344 30.1191406,16.3652344 C29.5507784,16.3652344 29.0761738,16.1616231 28.6953125,15.7543945 C28.3144512,15.3471659 28.1152345,14.7773474 28.0976562,14.0449219 L28.0976562,14.0449219 L34.2851562,14.0449219 C34.3203127,12.1523343 33.9365275,10.7475632 33.1337891,9.83056641 C32.3310507,8.91356963 31.2353585,8.45507812 29.8466797,8.45507812 Z M44.8583984,8.45507812 C43.6220641,8.45507812 42.5996134,8.89306203 41.7910156,9.76904297 C40.9824178,10.6450239 40.578125,11.8564376 40.578125,13.4033203 C40.578125,14.6982487 40.8857391,15.7705036 41.5009766,16.6201172 C42.2802773,17.6806694 43.4814372,18.2109375 45.1044922,18.2109375 C46.1298879,18.2109375 46.9838833,17.9751 47.6665039,17.503418 C48.3491245,17.0317359 48.8486312,16.3447311 49.1650391,15.4423828 L49.1650391,15.4423828 L46.7041016,15.0292969 C46.5693353,15.4980492 46.3701185,15.8378896 46.1064453,16.0488281 C45.8427721,16.2597667 45.5175801,16.3652344 45.1308594,16.3652344 C44.5624972,16.3652344 44.0878925,16.1616231 43.7070312,15.7543945 C43.32617,15.3471659 43.1269532,14.7773474 43.109375,14.0449219 L43.109375,14.0449219 L49.296875,14.0449219 C49.3320314,12.1523343 48.9482462,10.7475632 48.1455078,9.83056641 C47.3427694,8.91356963 46.2470773,8.45507812 44.8583984,8.45507812 Z M53.9023438,5.37011719 L51.4238281,6.81152344 L51.4238281,8.66601562 L50.2900391,8.66601562 L50.2900391,10.6347656 L51.4238281,10.6347656 L51.4238281,14.7041016 C51.4238281,15.5771528 51.450195,16.1572251 51.5029297,16.4443359 C51.5673831,16.8486348 51.6831046,17.1694324 51.8500977,17.4067383 C52.0170907,17.6440442 52.2792951,17.8374016 52.6367188,17.9868164 C52.9941424,18.1362312 53.3955056,18.2109375 53.8408203,18.2109375 C54.5673864,18.2109375 55.2177706,18.0878919 55.7919922,17.8417969 L55.7919922,17.8417969 L55.5810547,15.9257812 C55.1474588,16.0839852 54.8164074,16.1630859 54.5878906,16.1630859 C54.4238273,16.1630859 54.2846685,16.1220707 54.1704102,16.0400391 C54.0561518,15.9580074 53.9829103,15.8540045 53.9506836,15.7280273 C53.9184569,15.6020502 53.9023438,15.1582069 53.9023438,14.3964844 L53.9023438,10.6347656 L55.5898438,10.6347656 L55.5898438,8.66601562 L53.9023438,8.66601562 L53.9023438,5.37011719 Z M60.8632812,8.45507812 C59.6269469,8.45507812 58.6044962,8.89306203 57.7958984,9.76904297 C56.9873006,10.6450239 56.5830078,11.8564376 56.5830078,13.4033203 C56.5830078,14.6982487 56.8906219,15.7705036 57.5058594,16.6201172 C58.2851601,17.6806694 59.48632,18.2109375 61.109375,18.2109375 C62.1347708,18.2109375 62.9887661,17.9751 63.6713867,17.503418 C64.3540073,17.0317359 64.853514,16.3447311 65.1699219,15.4423828 L65.1699219,15.4423828 L62.7089844,15.0292969 C62.5742181,15.4980492 62.3750013,15.8378896 62.1113281,16.0488281 C61.8476549,16.2597667 61.5224629,16.3652344 61.1357422,16.3652344 C60.56738,16.3652344 60.0927753,16.1616231 59.7119141,15.7543945 C59.3310528,15.3471659 59.131836,14.7773474 59.1142578,14.0449219 L59.1142578,14.0449219 L65.3017578,14.0449219 C65.3369142,12.1523343 64.953129,10.7475632 64.1503906,9.83056641 C63.3476522,8.91356963 62.2519601,8.45507812 60.8632812,8.45507812 Z M38.7675781,5.11523438 L36.2978516,5.11523438 L36.2978516,18 L38.7675781,18 L38.7675781,5.11523438 Z M19.3261719,10.3447266 C19.9296905,10.3447266 20.4248028,10.580564 20.8115234,11.0522461 C21.1982441,11.5239281 21.3916016,12.2958931 21.3916016,13.3681641 C21.3916016,14.3291064 21.1923848,15.0512671 20.7939453,15.534668 C20.3955058,16.0180688 19.9121122,16.2597656 19.34375,16.2597656 C18.6289027,16.2597656 18.0722676,15.9375032 17.6738281,15.2929688 C17.3984361,14.847654 17.2607422,14.1269581 17.2607422,13.1308594 C17.2607422,12.2050735 17.4584941,11.5092797 17.8540039,11.043457 C18.2495137,10.5776344 18.7402314,10.3447266 19.3261719,10.3447266 Z M29.9960937,10.3447266 C30.5000025,10.3447266 30.9277326,10.5307599 31.2792969,10.902832 C31.6308611,11.2749042 31.8154296,11.8183558 31.8330078,12.5332031 L31.8330078,12.5332031 L28.1416016,12.5332031 C28.1357422,11.8593716 28.308592,11.3261738 28.6601562,10.9335938 C29.0117205,10.5410137 29.4570286,10.3447266 29.9960937,10.3447266 Z M45.0078125,10.3447266 C45.5117213,10.3447266 45.9394514,10.5307599 46.2910156,10.902832 C46.6425799,11.2749042 46.8271483,11.8183558 46.8447266,12.5332031 L46.8447266,12.5332031 L43.1533203,12.5332031 C43.1474609,11.8593716 43.3203107,11.3261738 43.671875,10.9335938 C44.0234393,10.5410137 44.4687473,10.3447266 45.0078125,10.3447266 Z M61.0126953,10.3447266 C61.5166041,10.3447266 61.9443342,10.5307599 62.2958984,10.902832 C62.6474627,11.2749042 62.8320312,11.8183558 62.8496094,12.5332031 L62.8496094,12.5332031 L59.1582031,12.5332031 C59.1523437,11.8593716 59.3251936,11.3261738 59.6767578,10.9335938 C60.0283221,10.5410137 60.4736301,10.3447266 61.0126953,10.3447266 Z"></path>
    </g>
</svg>
