<?xml version="1.0" encoding="UTF-8"?>
<svg width="120px" height="24px" viewBox="0 0 120 24" version="1.1" xmlns="http://www.w3.org/2000/svg" xmlns:xlink="http://www.w3.org/1999/xlink">
    <title>Delete</title>
    <g fill="#D44455" stroke="none" stroke-width="1" fill-rule="evenodd">
        <path d="M115,0 C117.761424,-5.07265313e-16 120,2.23857625 120,5 L120,19 C120,21.7614237 117.761424,24 115,24 L5,24 C2.23857625,24 3.38176876e-16,21.7614237 0,19 L0,5 C-3.38176876e-16,2.23857625 2.23857625,2.28362215e-15 5,0 L115,0 Z M43.8525391,5.11523438 L41.3828125,5.11523438 L41.3828125,9.75585938 C40.6210899,8.88866754 39.7187552,8.45507812 38.6757812,8.45507812 C37.5390568,8.45507812 36.5986365,8.8666951 35.8544922,9.68994141 C35.1103478,10.5131877 34.7382812,11.7158124 34.7382812,13.2978516 C34.7382812,14.8447343 35.1206016,16.0502886 35.8852539,16.9145508 C36.6499062,17.7788129 37.568354,18.2109375 38.640625,18.2109375 C39.1679714,18.2109375 39.6909154,18.0805677 40.2094727,17.8198242 C40.7280299,17.5590807 41.1777325,17.162112 41.5585938,16.6289062 L41.5585938,16.6289062 L41.5585938,18 L43.8525391,18 L43.8525391,5.11523438 Z M49.8466797,8.45507812 C48.6103454,8.45507812 47.5878947,8.89306203 46.7792969,9.76904297 C45.9706991,10.6450239 45.5664062,11.8564376 45.5664062,13.4033203 C45.5664062,14.6982487 45.8740204,15.7705036 46.4892578,16.6201172 C47.2685586,17.6806694 48.4697184,18.2109375 50.0927734,18.2109375 C51.1181692,18.2109375 51.9721646,17.9751 52.6547852,17.503418 C53.3374058,17.0317359 53.8369125,16.3447311 54.1533203,15.4423828 L54.1533203,15.4423828 L51.6923828,15.0292969 C51.5576165,15.4980492 51.3583998,15.8378896 51.0947266,16.0488281 C50.8310534,16.2597667 50.5058613,16.3652344 50.1191406,16.3652344 C49.5507784,16.3652344 49.0761738,16.1616231 48.6953125,15.7543945 C48.3144512,15.3471659 48.1152345,14.7773474 48.0976562,14.0449219 L48.0976562,14.0449219 L54.2851562,14.0449219 C54.3203127,12.1523343 53.9365275,10.7475632 53.1337891,9.83056641 C52.3310507,8.91356963 51.2353585,8.45507812 49.8466797,8.45507812 Z M64.8583984,8.45507812 C63.6220641,8.45507812 62.5996134,8.89306203 61.7910156,9.76904297 C60.9824178,10.6450239 60.578125,11.8564376 60.578125,13.4033203 C60.578125,14.6982487 60.8857391,15.7705036 61.5009766,16.6201172 C62.2802773,17.6806694 63.4814372,18.2109375 65.1044922,18.2109375 C66.1298879,18.2109375 66.9838833,17.9751 67.6665039,17.503418 C68.3491245,17.0317359 68.8486312,16.3447311 69.1650391,15.4423828 L69.1650391,15.4423828 L66.7041016,15.0292969 C66.5693353,15.4980492 66.3701185,15.8378896 66.1064453,16.0488281 C65.8427721,16.2597667 65.5175801,16.3652344 65.1308594,16.3652344 C64.5624972,16.3652344 64.0878925,16.1616231 63.7070312,15.7543945 C63.32617,15.3471659 63.1269532,14.7773474 63.109375,14.0449219 L63.109375,14.0449219 L69.296875,14.0449219 C69.3320314,12.1523343 68.9482462,10.7475632 68.1455078,9.83056641 C67.3427694,8.91356963 66.2470773,8.45507812 64.8583984,8.45507812 Z M73.9023438,5.37011719 L71.4238281,6.81152344 L71.4238281,8.66601562 L70.2900391,8.66601562 L70.2900391,10.6347656 L71.4238281,10.6347656 L71.4238281,14.7041016 C71.4238281,15.5771528 71.450195,16.1572251 71.5029297,16.4443359 C71.5673831,16.8486348 71.6831046,17.1694324 71.8500977,17.4067383 C72.0170907,17.6440442 72.2792951,17.8374016 72.6367188,17.9868164 C72.9941424,18.1362312 73.3955056,18.2109375 73.8408203,18.2109375 C74.5673864,18.2109375 75.2177706,18.0878919 75.7919922,17.8417969 L75.7919922,17.8417969 L75.5810547,15.9257812 C75.1474588,16.0839852 74.8164074,16.1630859 74.5878906,16.1630859 C74.4238273,16.1630859 74.2846685,16.1220707 74.1704102,16.0400391 C74.0561518,15.9580074 73.9829103,15.8540045 73.9506836,15.7280273 C73.9184569,15.6020502 73.9023438,15.1582069 73.9023438,14.3964844 L73.9023438,10.6347656 L75.5898438,10.6347656 L75.5898438,8.66601562 L73.9023438,8.66601562 L73.9023438,5.37011719 Z M80.8632812,8.45507812 C79.6269469,8.45507812 78.6044962,8.89306203 77.7958984,9.76904297 C76.9873006,10.6450239 76.5830078,11.8564376 76.5830078,13.4033203 C76.5830078,14.6982487 76.8906219,15.7705036 77.5058594,16.6201172 C78.2851601,17.6806694 79.48632,18.2109375 81.109375,18.2109375 C82.1347708,18.2109375 82.9887661,17.9751 83.6713867,17.503418 C84.3540073,17.0317359 84.853514,16.3447311 85.1699219,15.4423828 L85.1699219,15.4423828 L82.7089844,15.0292969 C82.5742181,15.4980492 82.3750013,15.8378896 82.1113281,16.0488281 C81.8476549,16.2597667 81.5224629,16.3652344 81.1357422,16.3652344 C80.56738,16.3652344 80.0927753,16.1616231 79.7119141,15.7543945 C79.3310528,15.3471659 79.131836,14.7773474 79.1142578,14.0449219 L79.1142578,14.0449219 L85.3017578,14.0449219 C85.3369142,12.1523343 84.953129,10.7475632 84.1503906,9.83056641 C83.3476522,8.91356963 82.2519601,8.45507812 80.8632812,8.45507812 Z M58.7675781,5.11523438 L56.2978516,5.11523438 L56.2978516,18 L58.7675781,18 L58.7675781,5.11523438 Z M39.3261719,10.3447266 C39.9296905,10.3447266 40.4248028,10.580564 40.8115234,11.0522461 C41.1982441,11.5239281 41.3916016,12.2958931 41.3916016,13.3681641 C41.3916016,14.3291064 41.1923848,15.0512671 40.7939453,15.534668 C40.3955058,16.0180688 39.9121122,16.2597656 39.34375,16.2597656 C38.6289027,16.2597656 38.0722676,15.9375032 37.6738281,15.2929688 C37.3984361,14.847654 37.2607422,14.1269581 37.2607422,13.1308594 C37.2607422,12.2050735 37.4584941,11.5092797 37.8540039,11.043457 C38.2495137,10.5776344 38.7402314,10.3447266 39.3261719,10.3447266 Z M49.9960938,10.3447266 C50.5000025,10.3447266 50.9277326,10.5307599 51.2792969,10.902832 C51.6308611,11.2749042 51.8154296,11.8183558 51.8330078,12.5332031 L51.8330078,12.5332031 L48.1416016,12.5332031 C48.1357422,11.8593716 48.308592,11.3261738 48.6601562,10.9335938 C49.0117205,10.5410137 49.4570286,10.3447266 49.9960938,10.3447266 Z M65.0078125,10.3447266 C65.5117213,10.3447266 65.9394514,10.5307599 66.2910156,10.902832 C66.6425799,11.2749042 66.8271483,11.8183558 66.8447266,12.5332031 L66.8447266,12.5332031 L63.1533203,12.5332031 C63.1474609,11.8593716 63.3203107,11.3261738 63.671875,10.9335938 C64.0234393,10.5410137 64.4687473,10.3447266 65.0078125,10.3447266 Z M81.0126953,10.3447266 C81.5166041,10.3447266 81.9443342,10.5307599 82.2958984,10.902832 C82.6474627,11.2749042 82.8320312,11.8183558 82.8496094,12.5332031 L82.8496094,12.5332031 L79.1582031,12.5332031 C79.1523437,11.8593716 79.3251936,11.3261738 79.6767578,10.9335938 C80.0283221,10.5410137 80.4736301,10.3447266 81.0126953,10.3447266 Z"></path>
    </g>
</svg>
