<?xml version="1.0" encoding="UTF-8"?>
<svg width="120px" height="24px" viewBox="0 0 120 24" version="1.1" xmlns="http://www.w3.org/2000/svg" xmlns:xlink="http://www.w3.org/1999/xlink">
    <title>Delete</title>
    <g stroke="none" stroke-width="1" fill="none" fill-rule="evenodd">
        <g id="Delete">
            <rect fill="#EF476F" x="0" y="0" width="120" height="24" rx="5"></rect>
            <path fill="#FFFFFF" fill-rule="nonzero" d="M43.8525391,18 L41.5585938,18 L41.5585938,16.6289062 C41.1777325,17.162112 40.7280299,17.5590807 40.2094727,17.8198242 C39.6909154,18.0805677 39.1679714,18.2109375 38.640625,18.2109375 C37.568354,18.2109375 36.6499062,17.7788129 35.8852539,16.9145508 C35.1206016,16.0502886 34.7382812,14.8447343 34.7382812,13.2978516 C34.7382812,11.7158124 35.1103478,10.5131877 35.8544922,9.68994141 C36.5986365,8.8666951 37.5390568,8.45507812 38.6757812,8.45507812 C39.7187552,8.45507812 40.6210899,8.88866754 41.3828125,9.75585938 L41.3828125,5.11523438 L43.8525391,5.11523438 L43.8525391,18 Z M37.2607422,13.1308594 C37.2607422,14.1269581 37.3984361,14.847654 37.6738281,15.2929688 C38.0722676,15.9375032 38.6289027,16.2597656 39.34375,16.2597656 C39.9121122,16.2597656 40.3955058,16.0180688 40.7939453,15.534668 C41.1923848,15.0512671 41.3916016,14.3291064 41.3916016,13.3681641 C41.3916016,12.2958931 41.1982441,11.5239281 40.8115234,11.0522461 C40.4248028,10.580564 39.9296905,10.3447266 39.3261719,10.3447266 C38.7402314,10.3447266 38.2495137,10.5776344 37.8540039,11.043457 C37.4584941,11.5092797 37.2607422,12.2050735 37.2607422,13.1308594 Z M51.6923828,15.0292969 L54.1533203,15.4423828 C53.8369125,16.3447311 53.3374058,17.0317359 52.6547852,17.503418 C51.9721646,17.9751 51.1181692,18.2109375 50.0927734,18.2109375 C48.4697184,18.2109375 47.2685586,17.6806694 46.4892578,16.6201172 C45.8740204,15.7705036 45.5664062,14.6982487 45.5664062,13.4033203 C45.5664062,11.8564376 45.9706991,10.6450239 46.7792969,9.76904297 C47.5878947,8.89306203 48.6103454,8.45507812 49.8466797,8.45507812 C51.2353585,8.45507812 52.3310507,8.91356963 53.1337891,9.83056641 C53.9365275,10.7475632 54.3203127,12.1523343 54.2851562,14.0449219 L48.0976562,14.0449219 C48.1152345,14.7773474 48.3144512,15.3471659 48.6953125,15.7543945 C49.0761738,16.1616231 49.5507784,16.3652344 50.1191406,16.3652344 C50.5058613,16.3652344 50.8310534,16.2597667 51.0947266,16.0488281 C51.3583998,15.8378896 51.5576165,15.4980492 51.6923828,15.0292969 Z M51.8330078,12.5332031 C51.8154296,11.8183558 51.6308611,11.2749042 51.2792969,10.902832 C50.9277326,10.5307599 50.5000025,10.3447266 49.9960938,10.3447266 C49.4570286,10.3447266 49.0117205,10.5410137 48.6601562,10.9335938 C48.308592,11.3261738 48.1357422,11.8593716 48.1416016,12.5332031 L51.8330078,12.5332031 Z M56.2978516,18 L56.2978516,5.11523438 L58.7675781,5.11523438 L58.7675781,18 L56.2978516,18 Z M66.7041016,15.0292969 L69.1650391,15.4423828 C68.8486312,16.3447311 68.3491245,17.0317359 67.6665039,17.503418 C66.9838833,17.9751 66.1298879,18.2109375 65.1044922,18.2109375 C63.4814372,18.2109375 62.2802773,17.6806694 61.5009766,16.6201172 C60.8857391,15.7705036 60.578125,14.6982487 60.578125,13.4033203 C60.578125,11.8564376 60.9824178,10.6450239 61.7910156,9.76904297 C62.5996134,8.89306203 63.6220641,8.45507812 64.8583984,8.45507812 C66.2470773,8.45507812 67.3427694,8.91356963 68.1455078,9.83056641 C68.9482462,10.7475632 69.3320314,12.1523343 69.296875,14.0449219 L63.109375,14.0449219 C63.1269532,14.7773474 63.32617,15.3471659 63.7070312,15.7543945 C64.0878925,16.1616231 64.5624972,16.3652344 65.1308594,16.3652344 C65.5175801,16.3652344 65.8427721,16.2597667 66.1064453,16.0488281 C66.3701185,15.8378896 66.5693353,15.4980492 66.7041016,15.0292969 Z M66.8447266,12.5332031 C66.8271483,11.8183558 66.6425799,11.2749042 66.2910156,10.902832 C65.9394514,10.5307599 65.5117213,10.3447266 65.0078125,10.3447266 C64.4687473,10.3447266 64.0234393,10.5410137 63.671875,10.9335938 C63.3203107,11.3261738 63.1474609,11.8593716 63.1533203,12.5332031 L66.8447266,12.5332031 Z M75.5898438,8.66601562 L75.5898438,10.6347656 L73.9023438,10.6347656 L73.9023438,14.3964844 C73.9023438,15.1582069 73.9184569,15.6020502 73.9506836,15.7280273 C73.9829103,15.8540045 74.0561518,15.9580074 74.1704102,16.0400391 C74.2846685,16.1220707 74.4238273,16.1630859 74.5878906,16.1630859 C74.8164074,16.1630859 75.1474588,16.0839852 75.5810547,15.9257812 L75.7919922,17.8417969 C75.2177706,18.0878919 74.5673864,18.2109375 73.8408203,18.2109375 C73.3955056,18.2109375 72.9941424,18.1362312 72.6367188,17.9868164 C72.2792951,17.8374016 72.0170907,17.6440442 71.8500977,17.4067383 C71.6831046,17.1694324 71.5673831,16.8486348 71.5029297,16.4443359 C71.450195,16.1572251 71.4238281,15.5771528 71.4238281,14.7041016 L71.4238281,10.6347656 L70.2900391,10.6347656 L70.2900391,8.66601562 L71.4238281,8.66601562 L71.4238281,6.81152344 L73.9023438,5.37011719 L73.9023438,8.66601562 L75.5898438,8.66601562 Z M82.7089844,15.0292969 L85.1699219,15.4423828 C84.853514,16.3447311 84.3540073,17.0317359 83.6713867,17.503418 C82.9887661,17.9751 82.1347708,18.2109375 81.109375,18.2109375 C79.48632,18.2109375 78.2851601,17.6806694 77.5058594,16.6201172 C76.8906219,15.7705036 76.5830078,14.6982487 76.5830078,13.4033203 C76.5830078,11.8564376 76.9873006,10.6450239 77.7958984,9.76904297 C78.6044962,8.89306203 79.6269469,8.45507812 80.8632812,8.45507812 C82.2519601,8.45507812 83.3476522,8.91356963 84.1503906,9.83056641 C84.953129,10.7475632 85.3369142,12.1523343 85.3017578,14.0449219 L79.1142578,14.0449219 C79.131836,14.7773474 79.3310528,15.3471659 79.7119141,15.7543945 C80.0927753,16.1616231 80.56738,16.3652344 81.1357422,16.3652344 C81.5224629,16.3652344 81.8476549,16.2597667 82.1113281,16.0488281 C82.3750013,15.8378896 82.5742181,15.4980492 82.7089844,15.0292969 Z M82.8496094,12.5332031 C82.8320312,11.8183558 82.6474627,11.2749042 82.2958984,10.902832 C81.9443342,10.5307599 81.5166041,10.3447266 81.0126953,10.3447266 C80.4736301,10.3447266 80.0283221,10.5410137 79.6767578,10.9335938 C79.3251936,11.3261738 79.1523437,11.8593716 79.1582031,12.5332031 L82.8496094,12.5332031 Z"></path>
        </g>
    </g>
</svg>
