<?xml version="1.0" encoding="UTF-8"?>
<svg width="34px" height="34px" viewBox="0 0 34 34" version="1.1" xmlns="http://www.w3.org/2000/svg" xmlns:xlink="http://www.w3.org/1999/xlink">
    <title>DirectionABBA</title>
    <g stroke="none" stroke-width="1" fill="none" fill-rule="evenodd">
        <g id="DirectionABBA">
            <rect fill="#C0C0C0" x="0" y="0" width="34" height="34" rx="5"></rect>
            <path fill="#00A8E8" d="M26.8180191,11.8778133 L24.0595764,13.9134418 L21.3033814,15.9520043 C21.1656906,16.0537961 20.9814546,16.0701893 20.8274871,15.9943491 C20.6735196,15.9185089 20.5762512,15.7634542 20.576236,15.5938322 L20.576236,13.400459 L7.45350642,13.3936067 C7.20291859,13.3930988 7.00004042,13.1927935 7.0000065,12.945858 L7.0000065,10.053026 C7.00005354,9.80576732 7.20345376,9.60533832 7.45437006,9.60529963 L20.5761792,9.60529963 L20.5761792,7.44762267 C20.5762498,7.27809019 20.6734673,7.12313213 20.8273357,7.04729669 C20.981204,6.97146125 21.1653388,6.98775219 21.3030382,7.08938346 L24.059065,9.1251464 L26.817935,11.1610668 C26.9289511,11.2429841 26.9959288,11.3703742 26.99981,11.5069893 C27.0040019,11.6523077 26.9361802,11.7906228 26.8180191,11.8778133 Z"></path>
            <path fill="#00A8E8" d="M7.18198093,22.836201 C7.06381981,22.7490106 6.9959981,22.6106955 7.00019005,22.4653771 C7.00407124,22.3287619 7.07104887,22.2013718 7.18206502,22.1194545 L9.94093501,20.0835341 L12.6969618,18.0477712 C12.8346612,17.9461399 13.018796,17.929849 13.1726643,18.0056844 C13.3265327,18.0815199 13.4237502,18.2364779 13.4238208,18.4060104 L13.4238208,20.5636874 L26.5456299,20.5636874 C26.7965462,20.5637261 26.9999465,20.7641551 26.9999935,21.0114137 L26.9999935,23.9042458 C26.9999596,24.1511812 26.7970814,24.3514866 26.5464936,24.3519945 L13.423764,24.3588468 L13.423764,26.55222 C13.4237488,26.721842 13.3264804,26.8768967 13.1725129,26.9527369 C13.0185454,27.028577 12.8343094,27.0121838 12.6966186,26.910392 L9.94042365,24.8718296 L7.18198093,22.836201 Z"></path>
        </g>
    </g>
</svg>
