<?xml version="1.0" encoding="UTF-8"?>
<svg width="34px" height="34px" viewBox="0 0 34 34">
    <g stroke="none" stroke-width="1" fill="none" fill-rule="evenodd">
        <path fill="#7957BA" d="M5,0 L29,0 C31.7614237,-5.07265313e-16 34,2.23857625 34,5 L34,29 C34,31.7614237 31.7614237,34 29,34 L5,34 C2.23857625,34 2.11453371e-15,31.7614237 1.77635684e-15,29 L0,5 C-3.38176876e-16,2.23857625 2.23857625,2.28362215e-15 5,1.77635684e-15 Z M7,4 C5.34314575,4 4,5.34314575 4,7 L4,27 C4,28.6568542 5.34314575,30 7,30 L27,30 C28.6568542,30 30,28.6568542 30,27 L30,7 C30,5.34314575 28.6568542,4 27,4 L7,4 Z"></path>
        <path fill="#7957BA" d="M8.16378347,22.836201 C8.05743847,22.7490106 7.99639894,22.6106955 8.00017169,22.4653771 C8.00366477,22.3287619 8.06394463,22.2013718 8.16385915,22.1194545 L10.646842,20.0835341 L13.1272659,18.0477712 C13.2511954,17.9461399 13.4169166,17.929849 13.5553981,18.0056844 C13.6938796,18.0815199 13.7813754,18.2364779 13.7814389,18.4060104 L13.7814389,20.5636874 L25.5910663,20.5636874 C25.816891,20.5637261 25.9999512,20.7641551 25.9999935,21.0114137 L25.9999935,23.9042458 C25.999963,24.1511812 25.8173726,24.3514866 25.5918436,24.3519945 L13.7813878,24.3588468 L13.7813878,26.55222 C13.7813742,26.721842 13.6938326,26.8768967 13.5552619,26.9527369 C13.4166912,27.028577 13.2508787,27.0121838 13.1269571,26.910392 L10.6463817,24.8718296 L8.16378347,22.836201 Z"></path>
        <path fill="#7957BA" d="M25.8362165,11.8778133 L23.3536183,13.9134418 L20.8730429,15.9520043 C20.7491213,16.0537961 20.5833088,16.0701893 20.4447381,15.9943491 C20.3061674,15.9185089 20.2186258,15.7634542 20.2186122,15.5938322 L20.2186122,13.400459 L8.4081564,13.3936067 C8.18262737,13.3930988 8.00003703,13.1927935 8.0000065,12.945858 L8.0000065,10.053026 C8.00004884,9.80576732 8.18310902,9.60533832 8.40893367,9.60529963 L20.2185611,9.60529963 L20.2185611,7.44762267 C20.2186246,7.27809019 20.3061204,7.12313213 20.4446019,7.04729669 C20.5830834,6.97146125 20.7488046,6.98775219 20.8727341,7.08938346 L23.353158,9.1251464 L25.8361408,11.1610668 C25.9360554,11.2429841 25.9963352,11.3703742 25.9998283,11.5069893 C26.0036011,11.6523077 25.9425615,11.7906228 25.8362165,11.8778133 Z"></path>
    </g>
</svg>
