<?xml version="1.0" encoding="UTF-8"?>
<svg width="34px" height="34px" viewBox="0 0 34 34" version="1.1" xmlns="http://www.w3.org/2000/svg" xmlns:xlink="http://www.w3.org/1999/xlink">
    <title>DirectionBAAB</title>
    <g stroke="none" stroke-width="1" fill="none" fill-rule="evenodd">
        <path fill="#7957BA" d="M5,0 L29,0 C31.7614237,-5.07265313e-16 34,2.23857625 34,5 L34,29 C34,31.7614237 31.7614237,34 29,34 L5,34 C2.23857625,34 2.11453371e-15,31.7614237 1.77635684e-15,29 L0,5 C-3.38176876e-16,2.23857625 2.23857625,2.28362215e-15 5,1.77635684e-15 Z M7,4 C5.34314575,4 4,5.34314575 4,7 L4,27 C4,28.6568542 5.34314575,30 7,30 L27,30 C28.6568542,30 30,28.6568542 30,27 L30,7 C30,5.34314575 28.6568542,4 27,4 L7,4 Z"></path>
        <path fill="#7957BA" d="M25.8362165,22.836201 L23.3536183,24.8718296 L20.8730429,26.910392 C20.7491213,27.0121838 20.5833088,27.028577 20.4447381,26.9527369 C20.3061674,26.8768967 20.2186258,26.721842 20.2186122,26.55222 L20.2186122,24.3588468 L8.4081564,24.3519945 C8.18262737,24.3514866 8.00003703,24.1511812 8.0000065,23.9042458 L8.0000065,21.0114137 C8.00004884,20.7641551 8.18310902,20.5637261 8.40893367,20.5636874 L20.2185611,20.5636874 L20.2185611,18.4060104 C20.2186246,18.2364779 20.3061204,18.0815199 20.4446019,18.0056844 C20.5830834,17.929849 20.7488046,17.9461399 20.8727341,18.0477712 L23.353158,20.0835341 L25.8361408,22.1194545 C25.9360554,22.2013718 25.9963352,22.3287619 25.9998283,22.4653771 C26.0036011,22.6106955 25.9425615,22.7490106 25.8362165,22.836201 Z"></path>
        <path fill="#7957BA" d="M8.16378347,11.8778133 C8.05743847,11.7906228 7.99639894,11.6523077 8.00017169,11.5069893 C8.00366477,11.3703742 8.06394463,11.2429841 8.16385915,11.1610668 L10.646842,9.1251464 L13.1272659,7.08938346 C13.2511954,6.98775219 13.4169166,6.97146125 13.5553981,7.04729669 C13.6938796,7.12313213 13.7813754,7.27809019 13.7814389,7.44762267 L13.7814389,9.60529963 L25.5910663,9.60529963 C25.816891,9.60533832 25.9999512,9.80576732 25.9999935,10.053026 L25.9999935,12.945858 C25.999963,13.1927935 25.8173726,13.3930988 25.5918436,13.3936067 L13.7813878,13.400459 L13.7813878,15.5938322 C13.7813742,15.7634542 13.6938326,15.9185089 13.5552619,15.9943491 C13.4166912,16.0701893 13.2508787,16.0537961 13.1269571,15.9520043 L10.6463817,13.9134418 L8.16378347,11.8778133 Z"></path>
    </g>
</svg>
