<?xml version="1.0" encoding="UTF-8"?>
<svg width="300px" height="50px" viewBox="0 0 300 50" version="1.1" xmlns="http://www.w3.org/2000/svg" xmlns:xlink="http://www.w3.org/1999/xlink">
    <title>ExportOFF</title>
    <g stroke="none" stroke-width="1" fill="none" fill-rule="evenodd">
        <g id="ExportOFF">
            <rect fill="#FFFFFF" x="0" y="0" width="300" height="50"></rect>
            <path stroke="#DBDBDB" stroke-linecap="square" d="M1,49.5 L299,49.5"></path>
            <path fill="#C0C0C0" fill-rule="nonzero" d="M63.6972656,27.0292969 L66.1582031,27.4423828 C65.8417953,28.3447311 65.3422886,29.0317359 64.659668,29.503418 C63.9770474,29.9751 63.123052,30.2109375 62.0976562,30.2109375 C60.4746013,30.2109375 59.2734414,29.6806694 58.4941406,28.6201172 C57.8789032,27.7705036 57.5712891,26.6982487 57.5712891,25.4033203 C57.5712891,23.8564376 57.9755819,22.6450239 58.7841797,21.769043 C59.5927775,20.893062 60.6152282,20.4550781 61.8515625,20.4550781 C63.2402413,20.4550781 64.3359335,20.9135696 65.1386719,21.8305664 C65.9414103,22.7475632 66.3251955,24.1523343 66.2900391,26.0449219 L60.1025391,26.0449219 C60.1201173,26.7773474 60.319334,27.3471659 60.7001953,27.7543945 C61.0810566,28.1616231 61.5556612,28.3652344 62.1240234,28.3652344 C62.5107441,28.3652344 62.8359362,28.2597667 63.0996094,28.0488281 C63.3632826,27.8378896 63.5624993,27.4980492 63.6972656,27.0292969 Z M63.8378906,24.5332031 C63.8203124,23.8183558 63.6357439,23.2749042 63.2841797,22.902832 C62.9326154,22.5307599 62.5048853,22.3447266 62.0009766,22.3447266 C61.4619114,22.3447266 61.0166033,22.5410137 60.6650391,22.9335938 C60.3134748,23.3261738 60.140625,23.8593716 60.1464844,24.5332031 L63.8378906,24.5332031 Z M67.1162109,30 L70.4824219,25.1923828 L67.2568359,20.6660156 L70.2714844,20.6660156 L71.9238281,23.2324219 L73.6640625,20.6660156 L76.5644531,20.6660156 L73.4003906,25.0869141 L76.8544922,30 L73.8222656,30 L71.9238281,27.1083984 L70.0078125,30 L67.1162109,30 Z M78.2431641,20.6660156 L80.5458984,20.6660156 L80.5458984,22.0371094 C80.8447281,21.568357 81.2490209,21.1875015 81.7587891,20.8945312 C82.2685572,20.601561 82.8339813,20.4550781 83.4550781,20.4550781 C84.5390679,20.4550781 85.4589806,20.8798786 86.2148438,21.7294922 C86.9707069,22.5791058 87.3486328,23.7626877 87.3486328,25.2802734 C87.3486328,26.838875 86.9677772,28.0502886 86.2060547,28.9145508 C85.4443321,29.7788129 84.5214898,30.2109375 83.4375,30.2109375 C82.9218724,30.2109375 82.4545919,30.1083995 82.0356445,29.9033203 C81.6166971,29.6982412 81.1757836,29.3466822 80.7128906,28.8486328 L80.7128906,33.5507812 L78.2431641,33.5507812 L78.2431641,20.6660156 Z M80.6865234,25.1748047 C80.6865234,26.2236381 80.8945292,26.9985327 81.3105469,27.4995117 C81.7265646,28.0004908 82.2333954,28.2509766 82.8310547,28.2509766 C83.4052763,28.2509766 83.8828106,28.0209984 84.2636719,27.5610352 C84.6445332,27.1010719 84.8349609,26.3466849 84.8349609,25.2978516 C84.8349609,24.319331 84.6386738,23.5927758 84.2460938,23.1181641 C83.8535137,22.6435523 83.3671904,22.40625 82.7871094,22.40625 C82.1835907,22.40625 81.6826192,22.6391578 81.2841797,23.1049805 C80.8857402,23.5708031 80.6865234,24.2607376 80.6865234,25.1748047 Z M88.7373047,25.2011719 C88.7373047,24.3808553 88.9394511,23.5869179 89.34375,22.8193359 C89.7480489,22.051754 90.3207971,21.4658223 91.0620117,21.0615234 C91.8032264,20.6572245 92.6308548,20.4550781 93.5449219,20.4550781 C94.9570383,20.4550781 96.1142533,20.9135696 97.0166016,21.8305664 C97.9189498,22.7475632 98.3701172,23.906243 98.3701172,25.3066406 C98.3701172,26.7187571 97.9145553,27.8891555 97.003418,28.8178711 C96.0922806,29.7465867 94.9453194,30.2109375 93.5625,30.2109375 C92.707027,30.2109375 91.8911172,30.0175801 91.1147461,29.6308594 C90.338375,29.2441387 89.7480489,28.6772498 89.34375,27.9301758 C88.9394511,27.1831017 88.7373047,26.2734429 88.7373047,25.2011719 Z M91.2685547,25.3330078 C91.2685547,26.2587937 91.4882791,26.967771 91.9277344,27.4599609 C92.3671897,27.9521509 92.9091765,28.1982422 93.5537109,28.1982422 C94.1982454,28.1982422 94.7387673,27.9521509 95.175293,27.4599609 C95.6118186,26.967771 95.8300781,26.2529344 95.8300781,25.3154297 C95.8300781,24.4013626 95.6118186,23.6982446 95.175293,23.2060547 C94.7387673,22.7138647 94.1982454,22.4677734 93.5537109,22.4677734 C92.9091765,22.4677734 92.3671897,22.7138647 91.9277344,23.2060547 C91.4882791,23.6982446 91.2685547,24.4072219 91.2685547,25.3330078 Z M102.667969,30 L100.198242,30 L100.198242,20.6660156 L102.492188,20.6660156 L102.492188,21.9931641 C102.884768,21.3662078 103.237791,20.953126 103.55127,20.7539062 C103.864748,20.5546865 104.220701,20.4550781 104.619141,20.4550781 C105.181643,20.4550781 105.72363,20.61035 106.245117,20.9208984 L105.480469,23.0742188 C105.064451,22.8046862 104.677736,22.6699219 104.320312,22.6699219 C103.974608,22.6699219 103.681642,22.7651358 103.441406,22.9555664 C103.201171,23.145997 103.012208,23.4902319 102.874512,23.9882812 C102.736816,24.4863306 102.667969,25.5292889 102.667969,27.1171875 L102.667969,30 Z M111.588867,20.6660156 L111.588867,22.6347656 L109.901367,22.6347656 L109.901367,26.3964844 C109.901367,27.1582069 109.91748,27.6020502 109.949707,27.7280273 C109.981934,27.8540045 110.055175,27.9580074 110.169434,28.0400391 C110.283692,28.1220707 110.422851,28.1630859 110.586914,28.1630859 C110.815431,28.1630859 111.146482,28.0839852 111.580078,27.9257812 L111.791016,29.8417969 C111.216794,30.0878919 110.56641,30.2109375 109.839844,30.2109375 C109.394529,30.2109375 108.993166,30.1362312 108.635742,29.9868164 C108.278319,29.8374016 108.016114,29.6440442 107.849121,29.4067383 C107.682128,29.1694324 107.566407,28.8486348 107.501953,28.4443359 C107.449218,28.1572251 107.422852,27.5771528 107.422852,26.7041016 L107.422852,22.6347656 L106.289062,22.6347656 L106.289062,20.6660156 L107.422852,20.6660156 L107.422852,18.8115234 L109.901367,17.3701172 L109.901367,20.6660156 L111.588867,20.6660156 Z M126.442383,23.4257812 L124.007812,23.8652344 C123.925781,23.3789038 123.739748,23.0126965 123.449707,22.7666016 C123.159667,22.5205066 122.783205,22.3974609 122.320312,22.3974609 C121.705075,22.3974609 121.214357,22.6098612 120.848145,23.034668 C120.481932,23.4594748 120.298828,24.1699169 120.298828,25.1660156 C120.298828,26.273443 120.484861,27.0556618 120.856934,27.5126953 C121.229006,27.9697288 121.728512,28.1982422 122.355469,28.1982422 C122.824221,28.1982422 123.208006,28.0649427 123.506836,27.7983398 C123.805666,27.5317369 124.016601,27.0732454 124.139648,26.4228516 L126.56543,26.8359375 C126.313475,27.9492243 125.830082,28.7900362 125.115234,29.3583984 C124.400387,29.9267607 123.442389,30.2109375 122.241211,30.2109375 C120.87597,30.2109375 119.787602,29.7802777 118.976074,28.9189453 C118.164547,28.0576129 117.758789,26.865242 117.758789,25.3417969 C117.758789,23.8007735 118.166012,22.6010785 118.980469,21.7426758 C119.794926,20.8842731 120.896477,20.4550781 122.285156,20.4550781 C123.421881,20.4550781 124.32568,20.6997046 124.996582,21.1889648 C125.667484,21.6782251 126.149413,22.4238231 126.442383,23.4257812 Z M134.458008,30 L134.458008,28.6025391 C134.118162,29.1005884 133.671389,29.4931626 133.117676,29.7802734 C132.563962,30.0673842 131.979495,30.2109375 131.364258,30.2109375 C130.737302,30.2109375 130.174807,30.0732436 129.676758,29.7978516 C129.178708,29.5224596 128.81836,29.1357447 128.595703,28.6376953 C128.373046,28.1396459 128.261719,27.4511763 128.261719,26.5722656 L128.261719,20.6660156 L130.731445,20.6660156 L130.731445,24.9550781 C130.731445,26.2675847 130.776855,27.0717759 130.867676,27.3676758 C130.958497,27.6635757 131.124022,27.8979484 131.364258,28.0708008 C131.604493,28.2436532 131.909178,28.3300781 132.27832,28.3300781 C132.700197,28.3300781 133.078123,28.2143566 133.412109,27.9829102 C133.746095,27.7514637 133.974609,27.4643572 134.097656,27.121582 C134.220704,26.7788069 134.282227,25.9394598 134.282227,24.6035156 L134.282227,20.6660156 L136.751953,20.6660156 L136.751953,30 L134.458008,30 Z M141.673828,30 L139.204102,30 L139.204102,20.6660156 L141.498047,20.6660156 L141.498047,21.9931641 C141.890627,21.3662078 142.243651,20.953126 142.557129,20.7539062 C142.870607,20.5546865 143.226561,20.4550781 143.625,20.4550781 C144.187503,20.4550781 144.72949,20.61035 145.250977,20.9208984 L144.486328,23.0742188 C144.07031,22.8046862 143.683596,22.6699219 143.326172,22.6699219 C142.980467,22.6699219 142.687501,22.7651358 142.447266,22.9555664 C142.20703,23.145997 142.018067,23.4902319 141.880371,23.9882812 C141.742675,24.4863306 141.673828,25.5292889 141.673828,27.1171875 L141.673828,30 Z M148.678711,30 L146.208984,30 L146.208984,20.6660156 L148.50293,20.6660156 L148.50293,21.9931641 C148.89551,21.3662078 149.248534,20.953126 149.562012,20.7539062 C149.87549,20.5546865 150.231443,20.4550781 150.629883,20.4550781 C151.192386,20.4550781 151.734372,20.61035 152.255859,20.9208984 L151.491211,23.0742188 C151.075193,22.8046862 150.688478,22.6699219 150.331055,22.6699219 C149.98535,22.6699219 149.692384,22.7651358 149.452148,22.9555664 C149.211913,23.145997 149.02295,23.4902319 148.885254,23.9882812 C148.747558,24.4863306 148.678711,25.5292889 148.678711,27.1171875 L148.678711,30 Z M158.724609,27.0292969 L161.185547,27.4423828 C160.869139,28.3447311 160.369632,29.0317359 159.687012,29.503418 C159.004391,29.9751 158.150396,30.2109375 157.125,30.2109375 C155.501945,30.2109375 154.300785,29.6806694 153.521484,28.6201172 C152.906247,27.7705036 152.598633,26.6982487 152.598633,25.4033203 C152.598633,23.8564376 153.002926,22.6450239 153.811523,21.769043 C154.620121,20.893062 155.642572,20.4550781 156.878906,20.4550781 C158.267585,20.4550781 159.363277,20.9135696 160.166016,21.8305664 C160.968754,22.7475632 161.352539,24.1523343 161.317383,26.0449219 L155.129883,26.0449219 C155.147461,26.7773474 155.346678,27.3471659 155.727539,27.7543945 C156.1084,28.1616231 156.583005,28.3652344 157.151367,28.3652344 C157.538088,28.3652344 157.86328,28.2597667 158.126953,28.0488281 C158.390626,27.8378896 158.589843,27.4980492 158.724609,27.0292969 Z M158.865234,24.5332031 C158.847656,23.8183558 158.663088,23.2749042 158.311523,22.902832 C157.959959,22.5307599 157.532229,22.3447266 157.02832,22.3447266 C156.489255,22.3447266 156.043947,22.5410137 155.692383,22.9335938 C155.340819,23.3261738 155.167969,23.8593716 155.173828,24.5332031 L158.865234,24.5332031 Z M171.820312,30 L169.350586,30 L169.350586,25.2363281 C169.350586,24.2285106 169.297852,23.5766616 169.192383,23.2807617 C169.086914,22.9848618 168.915529,22.7548836 168.678223,22.5908203 C168.440917,22.426757 168.155275,22.3447266 167.821289,22.3447266 C167.393553,22.3447266 167.009767,22.4619129 166.669922,22.6962891 C166.330076,22.9306652 166.097169,23.241209 165.971191,23.6279297 C165.845214,24.0146504 165.782227,24.729487 165.782227,25.7724609 L165.782227,30 L163.3125,30 L163.3125,20.6660156 L165.606445,20.6660156 L165.606445,22.0371094 C166.420903,20.9824166 167.446283,20.4550781 168.682617,20.4550781 C169.227542,20.4550781 169.725584,20.5532217 170.176758,20.7495117 C170.627932,20.9458018 170.969237,21.1962875 171.200684,21.5009766 C171.43213,21.8056656 171.593261,22.1513653 171.684082,22.5380859 C171.774903,22.9248066 171.820312,23.478512 171.820312,24.1992188 L171.820312,30 Z M178.605469,20.6660156 L178.605469,22.6347656 L176.917969,22.6347656 L176.917969,26.3964844 C176.917969,27.1582069 176.934082,27.6020502 176.966309,27.7280273 C176.998535,27.8540045 177.071777,27.9580074 177.186035,28.0400391 C177.300294,28.1220707 177.439452,28.1630859 177.603516,28.1630859 C177.832032,28.1630859 178.163084,28.0839852 178.59668,27.9257812 L178.807617,29.8417969 C178.233396,30.0878919 177.583011,30.2109375 176.856445,30.2109375 C176.411131,30.2109375 176.009767,30.1362312 175.652344,29.9868164 C175.29492,29.8374016 175.032716,29.6440442 174.865723,29.4067383 C174.69873,29.1694324 174.583008,28.8486348 174.518555,28.4443359 C174.46582,28.1572251 174.439453,27.5771528 174.439453,26.7041016 L174.439453,22.6347656 L173.305664,22.6347656 L173.305664,20.6660156 L174.439453,20.6660156 L174.439453,18.8115234 L176.917969,17.3701172 L176.917969,20.6660156 L178.605469,20.6660156 Z M185.25,20.6660156 L187.552734,20.6660156 L187.552734,22.0371094 C187.851564,21.568357 188.255857,21.1875015 188.765625,20.8945312 C189.275393,20.601561 189.840817,20.4550781 190.461914,20.4550781 C191.545904,20.4550781 192.465817,20.8798786 193.22168,21.7294922 C193.977543,22.5791058 194.355469,23.7626877 194.355469,25.2802734 C194.355469,26.838875 193.974613,28.0502886 193.212891,28.9145508 C192.451168,29.7788129 191.528326,30.2109375 190.444336,30.2109375 C189.928708,30.2109375 189.461428,30.1083995 189.04248,29.9033203 C188.623533,29.6982412 188.18262,29.3466822 187.719727,28.8486328 L187.719727,33.5507812 L185.25,33.5507812 L185.25,20.6660156 Z M187.693359,25.1748047 C187.693359,26.2236381 187.901365,26.9985327 188.317383,27.4995117 C188.733401,28.0004908 189.240231,28.2509766 189.837891,28.2509766 C190.412112,28.2509766 190.889647,28.0209984 191.270508,27.5610352 C191.651369,27.1010719 191.841797,26.3466849 191.841797,25.2978516 C191.841797,24.319331 191.64551,23.5927758 191.25293,23.1181641 C190.86035,22.6435523 190.374026,22.40625 189.793945,22.40625 C189.190427,22.40625 188.689455,22.6391578 188.291016,23.1049805 C187.892576,23.5708031 187.693359,24.2607376 187.693359,25.1748047 Z M198.679688,30 L196.209961,30 L196.209961,20.6660156 L198.503906,20.6660156 L198.503906,21.9931641 C198.896486,21.3662078 199.24951,20.953126 199.562988,20.7539062 C199.876466,20.5546865 200.23242,20.4550781 200.630859,20.4550781 C201.193362,20.4550781 201.735349,20.61035 202.256836,20.9208984 L201.492188,23.0742188 C201.07617,22.8046862 200.689455,22.6699219 200.332031,22.6699219 C199.986326,22.6699219 199.693361,22.7651358 199.453125,22.9555664 C199.212889,23.145997 199.023926,23.4902319 198.88623,23.9882812 C198.748534,24.4863306 198.679688,25.5292889 198.679688,27.1171875 L198.679688,30 Z M208.725586,27.0292969 L211.186523,27.4423828 C210.870116,28.3447311 210.370609,29.0317359 209.687988,29.503418 C209.005368,29.9751 208.151372,30.2109375 207.125977,30.2109375 C205.502922,30.2109375 204.301762,29.6806694 203.522461,28.6201172 C202.907223,27.7705036 202.599609,26.6982487 202.599609,25.4033203 C202.599609,23.8564376 203.003902,22.6450239 203.8125,21.769043 C204.621098,20.893062 205.643549,20.4550781 206.879883,20.4550781 C208.268562,20.4550781 209.364254,20.9135696 210.166992,21.8305664 C210.969731,22.7475632 211.353516,24.1523343 211.318359,26.0449219 L205.130859,26.0449219 C205.148438,26.7773474 205.347654,27.3471659 205.728516,27.7543945 C206.109377,28.1616231 206.583982,28.3652344 207.152344,28.3652344 C207.539064,28.3652344 207.864256,28.2597667 208.12793,28.0488281 C208.391603,27.8378896 208.59082,27.4980492 208.725586,27.0292969 Z M208.866211,24.5332031 C208.848633,23.8183558 208.664064,23.2749042 208.3125,22.902832 C207.960936,22.5307599 207.533206,22.3447266 207.029297,22.3447266 C206.490232,22.3447266 206.044924,22.5410137 205.693359,22.9335938 C205.341795,23.3261738 205.168945,23.8593716 205.174805,24.5332031 L208.866211,24.5332031 Z M212.460938,27.3369141 L214.939453,26.9589844 C215.044922,27.4394555 215.258787,27.804198 215.581055,28.0532227 C215.903322,28.3022473 216.354489,28.4267578 216.93457,28.4267578 C217.573245,28.4267578 218.053709,28.3095715 218.375977,28.0751953 C218.592775,27.911132 218.701172,27.6914076 218.701172,27.4160156 C218.701172,27.2285147 218.642579,27.0732428 218.525391,26.9501953 C218.402343,26.8330072 218.126955,26.7246099 217.699219,26.625 C215.707021,26.1855447 214.444339,25.7841815 213.911133,25.4208984 C213.172848,24.9169897 212.803711,24.2168014 212.803711,23.3203125 C212.803711,22.5117147 213.123044,21.832034 213.761719,21.28125 C214.400394,20.730466 215.390618,20.4550781 216.732422,20.4550781 C218.009772,20.4550781 218.958981,20.6630839 219.580078,21.0791016 C220.201175,21.4951193 220.628905,22.1103475 220.863281,22.9248047 L218.53418,23.3554688 C218.43457,22.9921857 218.245607,22.7138682 217.967285,22.5205078 C217.688963,22.3271475 217.291995,22.2304688 216.776367,22.2304688 C216.125973,22.2304688 215.660158,22.3212882 215.378906,22.5029297 C215.191405,22.6318366 215.097656,22.7988271 215.097656,23.0039062 C215.097656,23.1796884 215.179687,23.3291009 215.34375,23.4521484 C215.566407,23.6162118 216.335443,23.8476548 217.650879,24.1464844 C218.966315,24.445314 219.884763,24.8115213 220.40625,25.2451172 C220.921878,25.6845725 221.179688,26.2968711 221.179688,27.0820312 C221.179688,27.9375043 220.822269,28.6728485 220.107422,29.2880859 C219.392575,29.9033234 218.334968,30.2109375 216.93457,30.2109375 C215.66308,30.2109375 214.656742,29.9531276 213.915527,29.4375 C213.174313,28.9218724 212.689454,28.2216841 212.460938,27.3369141 Z M228.74707,27.0292969 L231.208008,27.4423828 C230.8916,28.3447311 230.392093,29.0317359 229.709473,29.503418 C229.026852,29.9751 228.172857,30.2109375 227.147461,30.2109375 C225.524406,30.2109375 224.323246,29.6806694 223.543945,28.6201172 C222.928708,27.7705036 222.621094,26.6982487 222.621094,25.4033203 C222.621094,23.8564376 223.025387,22.6450239 223.833984,21.769043 C224.642582,20.893062 225.665033,20.4550781 226.901367,20.4550781 C228.290046,20.4550781 229.385738,20.9135696 230.188477,21.8305664 C230.991215,22.7475632 231.375,24.1523343 231.339844,26.0449219 L225.152344,26.0449219 C225.169922,26.7773474 225.369139,27.3471659 225.75,27.7543945 C226.130861,28.1616231 226.605466,28.3652344 227.173828,28.3652344 C227.560549,28.3652344 227.885741,28.2597667 228.149414,28.0488281 C228.413087,27.8378896 228.612304,27.4980492 228.74707,27.0292969 Z M228.887695,24.5332031 C228.870117,23.8183558 228.685549,23.2749042 228.333984,22.902832 C227.98242,22.5307599 227.55469,22.3447266 227.050781,22.3447266 C226.511716,22.3447266 226.066408,22.5410137 225.714844,22.9335938 C225.363279,23.3261738 225.19043,23.8593716 225.196289,24.5332031 L228.887695,24.5332031 Z M237.632812,20.6660156 L237.632812,22.6347656 L235.945312,22.6347656 L235.945312,26.3964844 C235.945312,27.1582069 235.961426,27.6020502 235.993652,27.7280273 C236.025879,27.8540045 236.099121,27.9580074 236.213379,28.0400391 C236.327637,28.1220707 236.466796,28.1630859 236.630859,28.1630859 C236.859376,28.1630859 237.190428,28.0839852 237.624023,27.9257812 L237.834961,29.8417969 C237.260739,30.0878919 236.610355,30.2109375 235.883789,30.2109375 C235.438474,30.2109375 235.037111,30.1362312 234.679688,29.9868164 C234.322264,29.8374016 234.060059,29.6440442 233.893066,29.4067383 C233.726073,29.1694324 233.610352,28.8486348 233.545898,28.4443359 C233.493164,28.1572251 233.466797,27.5771528 233.466797,26.7041016 L233.466797,22.6347656 L232.333008,22.6347656 L232.333008,20.6660156 L233.466797,20.6660156 L233.466797,18.8115234 L235.945312,17.3701172 L235.945312,20.6660156 L237.632812,20.6660156 Z"></path>
            <path fill="#C0C0C0" fill-rule="nonzero" d="M31.0273349,16 L36.7220957,16 L39,16 L39,18.2779043 L39,23.9726651 L36.7220957,23.9726651 L36.7220957,19.8876234 L25.6097191,31 L24,29.3902809 L35.1123766,18.2779043 L31.0273349,18.2779043 L31.0273349,16 Z M36.7777778,33.7777778 L36.7777778,26 L39,26 L39,34.1481481 C39,35.1708977 38.1708977,36 37.1481481,36 L20.8518519,36 C19.8291023,36 19,35.1708977 19,34.1481481 L19,17.8518519 C19,16.8291023 19.8291023,16 20.8518519,16 L29,16 L29,18.2222222 L21.2222222,18.2222222 L21.2222222,33.7777778 L36.7777778,33.7777778 Z"></path>
        </g>
    </g>
</svg>
