<?xml version="1.0" encoding="UTF-8"?>
<svg width="300px" height="40px" viewBox="0 0 300 40" version="1.1" xmlns="http://www.w3.org/2000/svg" xmlns:xlink="http://www.w3.org/1999/xlink">
    <title>ExportPresetOFF</title>
    <g stroke="none" stroke-width="1" fill="none" fill-rule="evenodd">
        <g id="ExportPreset">
            <rect fill="#FFFFFF" x="0" y="0" width="300" height="40"></rect>
            <line x1="1" y1="39.5" x2="299" y2="39.5" id="Line" stroke="#DBDBDB" stroke-linecap="square"></line>
            <path d="M62.0976562,26.2109375 C63.1230469,26.2109375 63.9770508,25.9750977 64.659668,25.503418 C65.3422852,25.0317383 65.8417969,24.3447266 66.1582031,23.4423828 L66.1582031,23.4423828 L63.6972656,23.0292969 C63.5625,23.4980469 63.3632812,23.8378906 63.0996094,24.0488281 C62.8359375,24.2597656 62.5107422,24.3652344 62.1240234,24.3652344 C61.5556641,24.3652344 61.0810547,24.1616211 60.7001953,23.7543945 C60.3193359,23.347168 60.1201172,22.7773438 60.1025391,22.0449219 L60.1025391,22.0449219 L66.2900391,22.0449219 C66.3251953,20.1523438 65.9414062,18.7475586 65.1386719,17.8305664 C64.3359375,16.9135742 63.2402344,16.4550781 61.8515625,16.4550781 C60.6152344,16.4550781 59.5927734,16.8930664 58.7841797,17.769043 C57.9755859,18.6450195 57.5712891,19.8564453 57.5712891,21.4033203 C57.5712891,22.6982422 57.8789062,23.7705078 58.4941406,24.6201172 C59.2734375,25.6806641 60.4746094,26.2109375 62.0976562,26.2109375 Z M63.8378906,20.5332031 L60.1464844,20.5332031 C60.140625,19.859375 60.3134766,19.3261719 60.6650391,18.9335938 C61.0166016,18.5410156 61.4619141,18.3447266 62.0009766,18.3447266 C62.5048828,18.3447266 62.9326172,18.5307617 63.2841797,18.902832 C63.6357422,19.2749023 63.8203125,19.8183594 63.8378906,20.5332031 L63.8378906,20.5332031 Z M70.0078125,26 L71.9238281,23.1083984 L73.8222656,26 L76.8544922,26 L73.4003906,21.0869141 L76.5644531,16.6660156 L73.6640625,16.6660156 L71.9238281,19.2324219 L70.2714844,16.6660156 L67.2568359,16.6660156 L70.4824219,21.1923828 L67.1162109,26 L70.0078125,26 Z M80.7128906,29.5507812 L80.7128906,24.8486328 C81.1757812,25.3466797 81.6166992,25.6982422 82.0356445,25.9033203 C82.4545898,26.1083984 82.921875,26.2109375 83.4375,26.2109375 C84.5214844,26.2109375 85.4443359,25.7788086 86.2060547,24.9145508 C86.9677734,24.050293 87.3486328,22.8388672 87.3486328,21.2802734 C87.3486328,19.7626953 86.9707031,18.5791016 86.2148438,17.7294922 C85.4589844,16.8798828 84.5390625,16.4550781 83.4550781,16.4550781 C82.8339844,16.4550781 82.2685547,16.6015625 81.7587891,16.8945312 C81.2490234,17.1875 80.8447266,17.5683594 80.5458984,18.0371094 L80.5458984,18.0371094 L80.5458984,16.6660156 L78.2431641,16.6660156 L78.2431641,29.5507812 L80.7128906,29.5507812 Z M82.8310547,24.2509766 C82.2333984,24.2509766 81.7265625,24.0004883 81.3105469,23.4995117 C80.8945312,22.9985352 80.6865234,22.2236328 80.6865234,21.1748047 C80.6865234,20.2607422 80.8857422,19.5708008 81.2841797,19.1049805 C81.6826172,18.6391602 82.1835938,18.40625 82.7871094,18.40625 C83.3671875,18.40625 83.8535156,18.6435547 84.2460938,19.1181641 C84.6386719,19.5927734 84.8349609,20.3193359 84.8349609,21.2978516 C84.8349609,22.3466797 84.6445312,23.1010742 84.2636719,23.5610352 C83.8828125,24.0209961 83.4052734,24.2509766 82.8310547,24.2509766 Z M93.5625,26.2109375 C94.9453125,26.2109375 96.0922852,25.746582 97.003418,24.8178711 C97.9145508,23.8891602 98.3701172,22.71875 98.3701172,21.3066406 C98.3701172,19.90625 97.9189453,18.7475586 97.0166016,17.8305664 C96.1142578,16.9135742 94.9570312,16.4550781 93.5449219,16.4550781 C92.6308594,16.4550781 91.8032227,16.6572266 91.0620117,17.0615234 C90.3208008,17.4658203 89.7480469,18.0517578 89.34375,18.8193359 C88.9394531,19.5869141 88.7373047,20.3808594 88.7373047,21.2011719 C88.7373047,22.2734375 88.9394531,23.1831055 89.34375,23.9301758 C89.7480469,24.6772461 90.3383789,25.2441406 91.1147461,25.6308594 C91.8911133,26.0175781 92.7070312,26.2109375 93.5625,26.2109375 Z M93.5537109,24.1982422 C92.9091797,24.1982422 92.3671875,23.9521484 91.9277344,23.4599609 C91.4882812,22.9677734 91.2685547,22.2587891 91.2685547,21.3330078 C91.2685547,20.4072266 91.4882812,19.6982422 91.9277344,19.2060547 C92.3671875,18.7138672 92.9091797,18.4677734 93.5537109,18.4677734 C94.1982422,18.4677734 94.7387695,18.7138672 95.175293,19.2060547 C95.6118164,19.6982422 95.8300781,20.4013672 95.8300781,21.3154297 C95.8300781,22.2529297 95.6118164,22.9677734 95.175293,23.4599609 C94.7387695,23.9521484 94.1982422,24.1982422 93.5537109,24.1982422 Z M102.667969,26 L102.667969,23.1171875 C102.667969,21.5292969 102.736816,20.4863281 102.874512,19.9882812 C103.012207,19.4902344 103.201172,19.1459961 103.441406,18.9555664 C103.681641,18.7651367 103.974609,18.6699219 104.320312,18.6699219 C104.677734,18.6699219 105.064453,18.8046875 105.480469,19.0742188 L105.480469,19.0742188 L106.245117,16.9208984 C105.723633,16.6103516 105.181641,16.4550781 104.619141,16.4550781 C104.220703,16.4550781 103.864746,16.5546875 103.55127,16.7539062 C103.237793,16.953125 102.884766,17.3662109 102.492188,17.9931641 L102.492188,17.9931641 L102.492188,16.6660156 L100.198242,16.6660156 L100.198242,26 L102.667969,26 Z M109.839844,26.2109375 C110.566406,26.2109375 111.216797,26.0878906 111.791016,25.8417969 L111.791016,25.8417969 L111.580078,23.9257812 C111.146484,24.0839844 110.81543,24.1630859 110.586914,24.1630859 C110.422852,24.1630859 110.283691,24.1220703 110.169434,24.0400391 C110.055176,23.9580078 109.981934,23.8540039 109.949707,23.7280273 C109.91748,23.6020508 109.901367,23.1582031 109.901367,22.3964844 L109.901367,18.6347656 L111.588867,18.6347656 L111.588867,16.6660156 L109.901367,16.6660156 L109.901367,13.3701172 L107.422852,14.8115234 L107.422852,16.6660156 L106.289062,16.6660156 L106.289062,18.6347656 L107.422852,18.6347656 L107.422852,22.7041016 C107.422852,23.5771484 107.449219,24.1572266 107.501953,24.4443359 C107.566406,24.8486328 107.682129,25.1694336 107.849121,25.4067383 C108.016113,25.644043 108.27832,25.8374023 108.635742,25.9868164 C108.993164,26.1362305 109.394531,26.2109375 109.839844,26.2109375 Z M122.241211,26.2109375 C123.442383,26.2109375 124.400391,25.9267578 125.115234,25.3583984 C125.830078,24.7900391 126.313477,23.9492188 126.56543,22.8359375 L126.56543,22.8359375 L124.139648,22.4228516 C124.016602,23.0732422 123.805664,23.5317383 123.506836,23.7983398 C123.208008,24.0649414 122.824219,24.1982422 122.355469,24.1982422 C121.728516,24.1982422 121.229004,23.9697266 120.856934,23.5126953 C120.484863,23.0556641 120.298828,22.2734375 120.298828,21.1660156 C120.298828,20.1699219 120.481934,19.4594727 120.848145,19.034668 C121.214355,18.6098633 121.705078,18.3974609 122.320312,18.3974609 C122.783203,18.3974609 123.159668,18.5205078 123.449707,18.7666016 C123.739746,19.0126953 123.925781,19.3789062 124.007812,19.8652344 L124.007812,19.8652344 L126.442383,19.4257812 C126.149414,18.4238281 125.66748,17.6782227 124.996582,17.1889648 C124.325684,16.699707 123.421875,16.4550781 122.285156,16.4550781 C120.896484,16.4550781 119.794922,16.8842773 118.980469,17.7426758 C118.166016,18.6010742 117.758789,19.8007812 117.758789,21.3417969 C117.758789,22.8652344 118.164551,24.0576172 118.976074,24.9189453 C119.787598,25.7802734 120.875977,26.2109375 122.241211,26.2109375 Z M131.364258,26.2109375 C131.979492,26.2109375 132.563965,26.0673828 133.117676,25.7802734 C133.671387,25.4931641 134.118164,25.1005859 134.458008,24.6025391 L134.458008,24.6025391 L134.458008,26 L136.751953,26 L136.751953,16.6660156 L134.282227,16.6660156 L134.282227,20.6035156 C134.282227,21.9394531 134.220703,22.7788086 134.097656,23.121582 C133.974609,23.4643555 133.746094,23.7514648 133.412109,23.9829102 C133.078125,24.2143555 132.700195,24.3300781 132.27832,24.3300781 C131.90918,24.3300781 131.604492,24.2436523 131.364258,24.0708008 C131.124023,23.8979492 130.958496,23.6635742 130.867676,23.3676758 C130.776855,23.0717773 130.731445,22.2675781 130.731445,20.9550781 L130.731445,20.9550781 L130.731445,16.6660156 L128.261719,16.6660156 L128.261719,22.5722656 C128.261719,23.4511719 128.373047,24.1396484 128.595703,24.6376953 C128.818359,25.1357422 129.178711,25.5224609 129.676758,25.7978516 C130.174805,26.0732422 130.737305,26.2109375 131.364258,26.2109375 Z M141.673828,26 L141.673828,23.1171875 C141.673828,21.5292969 141.742676,20.4863281 141.880371,19.9882812 C142.018066,19.4902344 142.207031,19.1459961 142.447266,18.9555664 C142.6875,18.7651367 142.980469,18.6699219 143.326172,18.6699219 C143.683594,18.6699219 144.070312,18.8046875 144.486328,19.0742188 L144.486328,19.0742188 L145.250977,16.9208984 C144.729492,16.6103516 144.1875,16.4550781 143.625,16.4550781 C143.226562,16.4550781 142.870605,16.5546875 142.557129,16.7539062 C142.243652,16.953125 141.890625,17.3662109 141.498047,17.9931641 L141.498047,17.9931641 L141.498047,16.6660156 L139.204102,16.6660156 L139.204102,26 L141.673828,26 Z M148.678711,26 L148.678711,23.1171875 C148.678711,21.5292969 148.747559,20.4863281 148.885254,19.9882812 C149.022949,19.4902344 149.211914,19.1459961 149.452148,18.9555664 C149.692383,18.7651367 149.985352,18.6699219 150.331055,18.6699219 C150.688477,18.6699219 151.075195,18.8046875 151.491211,19.0742188 L151.491211,19.0742188 L152.255859,16.9208984 C151.734375,16.6103516 151.192383,16.4550781 150.629883,16.4550781 C150.231445,16.4550781 149.875488,16.5546875 149.562012,16.7539062 C149.248535,16.953125 148.895508,17.3662109 148.50293,17.9931641 L148.50293,17.9931641 L148.50293,16.6660156 L146.208984,16.6660156 L146.208984,26 L148.678711,26 Z M157.125,26.2109375 C158.150391,26.2109375 159.004395,25.9750977 159.687012,25.503418 C160.369629,25.0317383 160.869141,24.3447266 161.185547,23.4423828 L161.185547,23.4423828 L158.724609,23.0292969 C158.589844,23.4980469 158.390625,23.8378906 158.126953,24.0488281 C157.863281,24.2597656 157.538086,24.3652344 157.151367,24.3652344 C156.583008,24.3652344 156.108398,24.1616211 155.727539,23.7543945 C155.34668,23.347168 155.147461,22.7773438 155.129883,22.0449219 L155.129883,22.0449219 L161.317383,22.0449219 C161.352539,20.1523438 160.96875,18.7475586 160.166016,17.8305664 C159.363281,16.9135742 158.267578,16.4550781 156.878906,16.4550781 C155.642578,16.4550781 154.620117,16.8930664 153.811523,17.769043 C153.00293,18.6450195 152.598633,19.8564453 152.598633,21.4033203 C152.598633,22.6982422 152.90625,23.7705078 153.521484,24.6201172 C154.300781,25.6806641 155.501953,26.2109375 157.125,26.2109375 Z M158.865234,20.5332031 L155.173828,20.5332031 C155.167969,19.859375 155.34082,19.3261719 155.692383,18.9335938 C156.043945,18.5410156 156.489258,18.3447266 157.02832,18.3447266 C157.532227,18.3447266 157.959961,18.5307617 158.311523,18.902832 C158.663086,19.2749023 158.847656,19.8183594 158.865234,20.5332031 L158.865234,20.5332031 Z M165.782227,26 L165.782227,21.7724609 C165.782227,20.7294922 165.845215,20.0146484 165.971191,19.6279297 C166.097168,19.2412109 166.330078,18.9306641 166.669922,18.6962891 C167.009766,18.4619141 167.393555,18.3447266 167.821289,18.3447266 C168.155273,18.3447266 168.440918,18.4267578 168.678223,18.5908203 C168.915527,18.7548828 169.086914,18.9848633 169.192383,19.2807617 C169.297852,19.5766602 169.350586,20.2285156 169.350586,21.2363281 L169.350586,21.2363281 L169.350586,26 L171.820312,26 L171.820312,20.1992188 C171.820312,19.4785156 171.774902,18.9248047 171.684082,18.5380859 C171.593262,18.1513672 171.432129,17.8056641 171.200684,17.5009766 C170.969238,17.1962891 170.62793,16.9458008 170.176758,16.7495117 C169.725586,16.5532227 169.227539,16.4550781 168.682617,16.4550781 C167.446289,16.4550781 166.420898,16.9824219 165.606445,18.0371094 L165.606445,18.0371094 L165.606445,16.6660156 L163.3125,16.6660156 L163.3125,26 L165.782227,26 Z M176.856445,26.2109375 C177.583008,26.2109375 178.233398,26.0878906 178.807617,25.8417969 L178.807617,25.8417969 L178.59668,23.9257812 C178.163086,24.0839844 177.832031,24.1630859 177.603516,24.1630859 C177.439453,24.1630859 177.300293,24.1220703 177.186035,24.0400391 C177.071777,23.9580078 176.998535,23.8540039 176.966309,23.7280273 C176.934082,23.6020508 176.917969,23.1582031 176.917969,22.3964844 L176.917969,22.3964844 L176.917969,18.6347656 L178.605469,18.6347656 L178.605469,16.6660156 L176.917969,16.6660156 L176.917969,13.3701172 L174.439453,14.8115234 L174.439453,16.6660156 L173.305664,16.6660156 L173.305664,18.6347656 L174.439453,18.6347656 L174.439453,22.7041016 C174.439453,23.5771484 174.46582,24.1572266 174.518555,24.4443359 C174.583008,24.8486328 174.69873,25.1694336 174.865723,25.4067383 C175.032715,25.644043 175.294922,25.8374023 175.652344,25.9868164 C176.009766,26.1362305 176.411133,26.2109375 176.856445,26.2109375 Z M187.719727,29.5507812 L187.719727,24.8486328 C188.182617,25.3466797 188.623535,25.6982422 189.04248,25.9033203 C189.461426,26.1083984 189.928711,26.2109375 190.444336,26.2109375 C191.52832,26.2109375 192.451172,25.7788086 193.212891,24.9145508 C193.974609,24.050293 194.355469,22.8388672 194.355469,21.2802734 C194.355469,19.7626953 193.977539,18.5791016 193.22168,17.7294922 C192.46582,16.8798828 191.545898,16.4550781 190.461914,16.4550781 C189.84082,16.4550781 189.275391,16.6015625 188.765625,16.8945312 C188.255859,17.1875 187.851562,17.5683594 187.552734,18.0371094 L187.552734,18.0371094 L187.552734,16.6660156 L185.25,16.6660156 L185.25,29.5507812 L187.719727,29.5507812 Z M189.837891,24.2509766 C189.240234,24.2509766 188.733398,24.0004883 188.317383,23.4995117 C187.901367,22.9985352 187.693359,22.2236328 187.693359,21.1748047 C187.693359,20.2607422 187.892578,19.5708008 188.291016,19.1049805 C188.689453,18.6391602 189.19043,18.40625 189.793945,18.40625 C190.374023,18.40625 190.860352,18.6435547 191.25293,19.1181641 C191.645508,19.5927734 191.841797,20.3193359 191.841797,21.2978516 C191.841797,22.3466797 191.651367,23.1010742 191.270508,23.5610352 C190.889648,24.0209961 190.412109,24.2509766 189.837891,24.2509766 Z M198.679688,26 L198.679688,23.1171875 C198.679688,21.5292969 198.748535,20.4863281 198.88623,19.9882812 C199.023926,19.4902344 199.212891,19.1459961 199.453125,18.9555664 C199.693359,18.7651367 199.986328,18.6699219 200.332031,18.6699219 C200.689453,18.6699219 201.076172,18.8046875 201.492188,19.0742188 L201.492188,19.0742188 L202.256836,16.9208984 C201.735352,16.6103516 201.193359,16.4550781 200.630859,16.4550781 C200.232422,16.4550781 199.876465,16.5546875 199.562988,16.7539062 C199.249512,16.953125 198.896484,17.3662109 198.503906,17.9931641 L198.503906,17.9931641 L198.503906,16.6660156 L196.209961,16.6660156 L196.209961,26 L198.679688,26 Z M207.125977,26.2109375 C208.151367,26.2109375 209.005371,25.9750977 209.687988,25.503418 C210.370605,25.0317383 210.870117,24.3447266 211.186523,23.4423828 L211.186523,23.4423828 L208.725586,23.0292969 C208.59082,23.4980469 208.391602,23.8378906 208.12793,24.0488281 C207.864258,24.2597656 207.539062,24.3652344 207.152344,24.3652344 C206.583984,24.3652344 206.109375,24.1616211 205.728516,23.7543945 C205.347656,23.347168 205.148438,22.7773438 205.130859,22.0449219 L205.130859,22.0449219 L211.318359,22.0449219 C211.353516,20.1523438 210.969727,18.7475586 210.166992,17.8305664 C209.364258,16.9135742 208.268555,16.4550781 206.879883,16.4550781 C205.643555,16.4550781 204.621094,16.8930664 203.8125,17.769043 C203.003906,18.6450195 202.599609,19.8564453 202.599609,21.4033203 C202.599609,22.6982422 202.907227,23.7705078 203.522461,24.6201172 C204.301758,25.6806641 205.50293,26.2109375 207.125977,26.2109375 Z M208.866211,20.5332031 L205.174805,20.5332031 C205.168945,19.859375 205.341797,19.3261719 205.693359,18.9335938 C206.044922,18.5410156 206.490234,18.3447266 207.029297,18.3447266 C207.533203,18.3447266 207.960937,18.5307617 208.3125,18.902832 C208.664062,19.2749023 208.848633,19.8183594 208.866211,20.5332031 L208.866211,20.5332031 Z M216.93457,26.2109375 C218.334961,26.2109375 219.392578,25.9033203 220.107422,25.2880859 C220.822266,24.6728516 221.179688,23.9375 221.179688,23.0820312 C221.179688,22.296875 220.921875,21.6845703 220.40625,21.2451172 C219.884766,20.8115234 218.966309,20.4453125 217.650879,20.1464844 C216.335449,19.8476562 215.566406,19.6162109 215.34375,19.4521484 C215.179688,19.3291016 215.097656,19.1796875 215.097656,19.0039062 C215.097656,18.7988281 215.191406,18.6318359 215.378906,18.5029297 C215.660156,18.3212891 216.125977,18.2304688 216.776367,18.2304688 C217.291992,18.2304688 217.688965,18.3271484 217.967285,18.5205078 C218.245605,18.7138672 218.43457,18.9921875 218.53418,19.3554688 L218.53418,19.3554688 L220.863281,18.9248047 C220.628906,18.1103516 220.201172,17.4951172 219.580078,17.0791016 C218.958984,16.6630859 218.009766,16.4550781 216.732422,16.4550781 C215.390625,16.4550781 214.400391,16.7304688 213.761719,17.28125 C213.123047,17.8320312 212.803711,18.5117188 212.803711,19.3203125 C212.803711,20.2167969 213.172852,20.9169922 213.911133,21.4208984 C214.444336,21.7841797 215.707031,22.1855469 217.699219,22.625 C218.126953,22.7246094 218.402344,22.8330078 218.525391,22.9501953 C218.642578,23.0732422 218.701172,23.2285156 218.701172,23.4160156 C218.701172,23.6914062 218.592773,23.9111328 218.375977,24.0751953 C218.053711,24.3095703 217.573242,24.4267578 216.93457,24.4267578 C216.354492,24.4267578 215.90332,24.3022461 215.581055,24.0532227 C215.258789,23.8041992 215.044922,23.4394531 214.939453,22.9589844 L214.939453,22.9589844 L212.460938,23.3369141 C212.689453,24.2216797 213.174316,24.921875 213.915527,25.4375 C214.656738,25.953125 215.663086,26.2109375 216.93457,26.2109375 Z M227.147461,26.2109375 C228.172852,26.2109375 229.026855,25.9750977 229.709473,25.503418 C230.39209,25.0317383 230.891602,24.3447266 231.208008,23.4423828 L231.208008,23.4423828 L228.74707,23.0292969 C228.612305,23.4980469 228.413086,23.8378906 228.149414,24.0488281 C227.885742,24.2597656 227.560547,24.3652344 227.173828,24.3652344 C226.605469,24.3652344 226.130859,24.1616211 225.75,23.7543945 C225.369141,23.347168 225.169922,22.7773438 225.152344,22.0449219 L225.152344,22.0449219 L231.339844,22.0449219 C231.375,20.1523438 230.991211,18.7475586 230.188477,17.8305664 C229.385742,16.9135742 228.290039,16.4550781 226.901367,16.4550781 C225.665039,16.4550781 224.642578,16.8930664 223.833984,17.769043 C223.025391,18.6450195 222.621094,19.8564453 222.621094,21.4033203 C222.621094,22.6982422 222.928711,23.7705078 223.543945,24.6201172 C224.323242,25.6806641 225.524414,26.2109375 227.147461,26.2109375 Z M228.887695,20.5332031 L225.196289,20.5332031 C225.19043,19.859375 225.363281,19.3261719 225.714844,18.9335938 C226.066406,18.5410156 226.511719,18.3447266 227.050781,18.3447266 C227.554687,18.3447266 227.982422,18.5307617 228.333984,18.902832 C228.685547,19.2749023 228.870117,19.8183594 228.887695,20.5332031 L228.887695,20.5332031 Z M235.883789,26.2109375 C236.610352,26.2109375 237.260742,26.0878906 237.834961,25.8417969 L237.834961,25.8417969 L237.624023,23.9257812 C237.19043,24.0839844 236.859375,24.1630859 236.630859,24.1630859 C236.466797,24.1630859 236.327637,24.1220703 236.213379,24.0400391 C236.099121,23.9580078 236.025879,23.8540039 235.993652,23.7280273 C235.961426,23.6020508 235.945312,23.1582031 235.945312,22.3964844 L235.945312,18.6347656 L237.632812,18.6347656 L237.632812,16.6660156 L235.945312,16.6660156 L235.945312,13.3701172 L233.466797,14.8115234 L233.466797,16.6660156 L232.333008,16.6660156 L232.333008,18.6347656 L233.466797,18.6347656 L233.466797,22.7041016 C233.466797,23.5771484 233.493164,24.1572266 233.545898,24.4443359 C233.610352,24.8486328 233.726074,25.1694336 233.893066,25.4067383 C234.060059,25.644043 234.322266,25.8374023 234.679688,25.9868164 C235.037109,26.1362305 235.438477,26.2109375 235.883789,26.2109375 Z" id="exportcurrentpreset" fill="#C0C0C0" fill-rule="nonzero"></path>
            <path d="M29,11 L29,13.2222222 L21.2222222,13.2222222 L21.2222222,28.7777778 L36.7777778,28.7777778 L36.7777778,21 L39,21 L39,29.1481481 C39,30.1708977 38.1708977,31 37.1481481,31 L37.1481481,31 L20.8518519,31 C19.8291023,31 19,30.1708977 19,29.1481481 L19,29.1481481 L19,12.8518519 C19,11.8291023 19.8291023,11 20.8518519,11 L20.8518519,11 L29,11 Z M39,11 L39,18.9726651 L36.7220957,18.9726651 L36.7220957,14.8876234 L25.6097191,26 L24,24.3902809 L35.1123766,13.2779043 L31.0273349,13.2779043 L31.0273349,11 L39,11 Z" id="ExportIcon" fill="#C0C0C0" fill-rule="nonzero"></path>
        </g>
    </g>
</svg>
