<?xml version="1.0" encoding="UTF-8"?>
<svg width="120px" height="34px" viewBox="0 0 120 34" version="1.1" xmlns="http://www.w3.org/2000/svg" xmlns:xlink="http://www.w3.org/1999/xlink">
    <title>FavoritesON</title>
    <g id="Page-1" stroke="none" stroke-width="1" fill="none" fill-rule="evenodd">
        <g id="FavoritesON">
            <rect id="Button" fill="#00A8E8" x="0" y="0" width="120" height="34" rx="5"></rect>
            <path d="M22.6948242,13.6660156 L24.065918,13.6660156 L24.065918,12.9628906 C24.065918,12.1777304 24.1494132,11.5917988 24.3164062,11.2050781 C24.4833993,10.8183574 24.7910134,10.5034192 25.2392578,10.2602539 C25.6875022,10.0170886 26.2543911,9.89550781 26.9399414,9.89550781 C27.6430699,9.89550781 28.3315396,10.0009755 29.0053711,10.2119141 L28.6713867,11.9345703 C28.2788066,11.8408198 27.9008807,11.7939453 27.5375977,11.7939453 C27.180174,11.7939453 26.9238289,11.8774406 26.7685547,12.0444336 C26.6132805,12.2114266 26.5356445,12.5322242 26.5356445,13.0068359 L26.5356445,13.6660156 L28.3813477,13.6660156 L28.3813477,15.6083984 L26.5356445,15.6083984 L26.5356445,23 L24.065918,23 L24.065918,15.6083984 L22.6948242,15.6083984 L22.6948242,13.6660156 Z M31.6157227,16.5136719 L29.3745117,16.109375 C29.6264661,15.2070267 30.0600555,14.5390647 30.675293,14.1054688 C31.2905304,13.6718728 32.2045838,13.4550781 33.4174805,13.4550781 C34.5190485,13.4550781 35.3393528,13.5854479 35.878418,13.8461914 C36.4174832,14.1069349 36.7968739,14.4379863 37.0166016,14.8393555 C37.2363292,15.2407247 37.3461914,15.9775337 37.3461914,17.0498047 L37.3198242,19.9326172 C37.3198242,20.7529338 37.3593746,21.3579082 37.4384766,21.7475586 C37.5175785,22.137209 37.6655263,22.5546853 37.8823242,23 L35.4389648,23 C35.3745114,22.8359367 35.2954106,22.592775 35.2016602,22.2705078 C35.1606443,22.1240227 35.1313477,22.027344 35.1137695,21.9804688 C34.6918924,22.3906271 34.2407251,22.6982412 33.7602539,22.9033203 C33.2797828,23.1083995 32.7670926,23.2109375 32.222168,23.2109375 C31.2612257,23.2109375 30.503909,22.9501979 29.9501953,22.4287109 C29.3964816,21.907224 29.1196289,21.2480509 29.1196289,20.4511719 C29.1196289,19.9238255 29.2456042,19.4536153 29.4975586,19.0405273 C29.749513,18.6274393 30.1025368,18.3110363 30.5566406,18.0913086 C31.0107445,17.8715809 31.6655231,17.6796883 32.5209961,17.515625 C33.6752987,17.298827 34.4750954,17.0966806 34.9204102,16.9091797 L34.9204102,16.6630859 C34.9204102,16.1884742 34.8032238,15.8500987 34.5688477,15.6479492 C34.3344715,15.4457998 33.8920931,15.3447266 33.2416992,15.3447266 C32.8022439,15.3447266 32.4594739,15.4311515 32.2133789,15.6040039 C31.9672839,15.7768563 31.7680672,16.080076 31.6157227,16.5136719 Z M34.9204102,18.5175781 C34.6040023,18.6230474 34.1030308,18.7490227 33.4174805,18.8955078 C32.7319302,19.0419929 32.2836925,19.1855462 32.0727539,19.3261719 C31.7504867,19.5546886 31.5893555,19.8447248 31.5893555,20.1962891 C31.5893555,20.5419939 31.7182604,20.8408191 31.9760742,21.0927734 C32.233888,21.3447278 32.5620097,21.4707031 32.9604492,21.4707031 C33.4057639,21.4707031 33.8305644,21.3242202 34.2348633,21.03125 C34.5336929,20.8085926 34.72998,20.5361344 34.8237305,20.2138672 C34.8881839,20.0029286 34.9204102,19.6015655 34.9204102,19.0097656 L34.9204102,18.5175781 Z M42.347168,23 L38.5854492,13.6660156 L41.1782227,13.6660156 L42.9360352,18.4296875 L43.4458008,20.0205078 C43.5805671,19.6162089 43.6655272,19.34961 43.7006836,19.2207031 C43.7827153,18.9570299 43.870605,18.6933607 43.9643555,18.4296875 L45.7397461,13.6660156 L48.2797852,13.6660156 L44.5708008,23 L42.347168,23 Z M49.2202148,18.2011719 C49.2202148,17.3808553 49.4223613,16.5869179 49.8266602,15.8193359 C50.2309591,15.051754 50.8037072,14.4658223 51.5449219,14.0615234 C52.2861365,13.6572245 53.113765,13.4550781 54.027832,13.4550781 C55.4399485,13.4550781 56.5971635,13.9135696 57.4995117,14.8305664 C58.40186,15.7475632 58.8530273,16.906243 58.8530273,18.3066406 C58.8530273,19.7187571 58.3974655,20.8891555 57.4863281,21.8178711 C56.5751908,22.7465867 55.4282296,23.2109375 54.0454102,23.2109375 C53.1899371,23.2109375 52.3740273,23.0175801 51.5976562,22.6308594 C50.8212852,22.2441387 50.2309591,21.6772498 49.8266602,20.9301758 C49.4223613,20.1831017 49.2202148,19.2734429 49.2202148,18.2011719 Z M51.7514648,18.3330078 C51.7514648,19.2587937 51.9711892,19.967771 52.4106445,20.4599609 C52.8500999,20.9521509 53.3920866,21.1982422 54.0366211,21.1982422 C54.6811556,21.1982422 55.2216775,20.9521509 55.6582031,20.4599609 C56.0947287,19.967771 56.3129883,19.2529344 56.3129883,18.3154297 C56.3129883,17.4013626 56.0947287,16.6982446 55.6582031,16.2060547 C55.2216775,15.7138647 54.6811556,15.4677734 54.0366211,15.4677734 C53.3920866,15.4677734 52.8500999,15.7138647 52.4106445,16.2060547 C51.9711892,16.6982446 51.7514648,17.4072219 51.7514648,18.3330078 Z M63.1508789,23 L60.6811523,23 L60.6811523,13.6660156 L62.9750977,13.6660156 L62.9750977,14.9931641 C63.3676777,14.3662078 63.7207016,13.953126 64.0341797,13.7539062 C64.3476578,13.5546865 64.7036113,13.4550781 65.1020508,13.4550781 C65.6645536,13.4550781 66.2065404,13.61035 66.7280273,13.9208984 L65.9633789,16.0742188 C65.5473612,15.8046862 65.1606463,15.6699219 64.8032227,15.6699219 C64.4575178,15.6699219 64.164552,15.7651358 63.9243164,15.9555664 C63.6840808,16.145997 63.4951179,16.4902319 63.3574219,16.9882812 C63.2197259,17.4863306 63.1508789,18.5292889 63.1508789,20.1171875 L63.1508789,23 Z M67.7915039,12.4003906 L67.7915039,10.1152344 L70.2612305,10.1152344 L70.2612305,12.4003906 L67.7915039,12.4003906 Z M67.7915039,23 L67.7915039,13.6660156 L70.2612305,13.6660156 L70.2612305,23 L67.7915039,23 Z M77.0727539,13.6660156 L77.0727539,15.6347656 L75.3852539,15.6347656 L75.3852539,19.3964844 C75.3852539,20.1582069 75.401367,20.6020502 75.4335938,20.7280273 C75.4658205,20.8540045 75.5390619,20.9580074 75.6533203,21.0400391 C75.7675787,21.1220707 75.9067375,21.1630859 76.0708008,21.1630859 C76.2993175,21.1630859 76.6303689,21.0839852 77.0639648,20.9257812 L77.2749023,22.8417969 C76.7006807,23.0878919 76.0502966,23.2109375 75.3237305,23.2109375 C74.8784157,23.2109375 74.4770526,23.1362312 74.1196289,22.9868164 C73.7622052,22.8374016 73.5000008,22.6440442 73.3330078,22.4067383 C73.1660148,22.1694324 73.0502933,21.8486348 72.9858398,21.4443359 C72.9331052,21.1572251 72.9067383,20.5771528 72.9067383,19.7041016 L72.9067383,15.6347656 L71.7729492,15.6347656 L71.7729492,13.6660156 L72.9067383,13.6660156 L72.9067383,11.8115234 L75.3852539,10.3701172 L75.3852539,13.6660156 L77.0727539,13.6660156 Z M84.1918945,20.0292969 L86.652832,20.4423828 C86.3364242,21.3447311 85.8369175,22.0317359 85.1542969,22.503418 C84.4716763,22.9751 83.6176809,23.2109375 82.5922852,23.2109375 C80.9692302,23.2109375 79.7680703,22.6806694 78.9887695,21.6201172 C78.3735321,20.7705036 78.065918,19.6982487 78.065918,18.4033203 C78.065918,16.8564376 78.4702108,15.6450239 79.2788086,14.769043 C80.0874064,13.893062 81.1098571,13.4550781 82.3461914,13.4550781 C83.7348702,13.4550781 84.8305624,13.9135696 85.6333008,14.8305664 C86.4360392,15.7475632 86.8198244,17.1523343 86.784668,19.0449219 L80.597168,19.0449219 C80.6147462,19.7773474 80.8139629,20.3471659 81.1948242,20.7543945 C81.5756855,21.1616231 82.0502901,21.3652344 82.6186523,21.3652344 C83.005373,21.3652344 83.3305651,21.2597667 83.5942383,21.0488281 C83.8579115,20.8378896 84.0571282,20.4980492 84.1918945,20.0292969 Z M84.3325195,17.5332031 C84.3149413,16.8183558 84.1303729,16.2749042 83.7788086,15.902832 C83.4272443,15.5307599 82.9995142,15.3447266 82.4956055,15.3447266 C81.9565403,15.3447266 81.5112322,15.5410137 81.159668,15.9335938 C80.8081037,16.3261738 80.6352539,16.8593716 80.6411133,17.5332031 L84.3325195,17.5332031 Z M87.9272461,20.3369141 L90.4057617,19.9589844 C90.511231,20.4394555 90.725096,20.804198 91.0473633,21.0532227 C91.3696305,21.3022473 91.8207979,21.4267578 92.4008789,21.4267578 C93.039554,21.4267578 93.5200179,21.3095715 93.8422852,21.0751953 C94.0590831,20.911132 94.1674805,20.6914076 94.1674805,20.4160156 C94.1674805,20.2285147 94.1088873,20.0732428 93.9916992,19.9501953 C93.8686517,19.8330072 93.5932639,19.7246099 93.1655273,19.625 C91.1733299,19.1855447 89.9106472,18.7841815 89.3774414,18.4208984 C88.6391565,17.9169897 88.2700195,17.2168014 88.2700195,16.3203125 C88.2700195,15.5117147 88.5893523,14.832034 89.2280273,14.28125 C89.8667024,13.730466 90.8569269,13.4550781 92.1987305,13.4550781 C93.4760806,13.4550781 94.4252899,13.6630839 95.0463867,14.0791016 C95.6674836,14.4951193 96.0952137,15.1103475 96.3295898,15.9248047 L94.0004883,16.3554688 C93.9008784,15.9921857 93.7119155,15.7138682 93.4335938,15.5205078 C93.155272,15.3271475 92.7583034,15.2304688 92.2426758,15.2304688 C91.5922819,15.2304688 91.1264662,15.3212882 90.8452148,15.5029297 C90.6577139,15.6318366 90.5639648,15.7988271 90.5639648,16.0039062 C90.5639648,16.1796884 90.6459953,16.3291009 90.8100586,16.4521484 C91.032716,16.6162118 91.8017512,16.8476548 93.1171875,17.1464844 C94.4326238,17.445314 95.3510716,17.8115213 95.8725586,18.2451172 C96.3881862,18.6845725 96.6459961,19.2968711 96.6459961,20.0820312 C96.6459961,20.9375043 96.2885778,21.6728485 95.5737305,22.2880859 C94.8588831,22.9033234 93.8012765,23.2109375 92.4008789,23.2109375 C91.1293882,23.2109375 90.1230506,22.9531276 89.3818359,22.4375 C88.6406213,21.9218724 88.1557629,21.2216841 87.9272461,20.3369141 Z" id="favorites" fill="#FFFFFF" fill-rule="nonzero"></path>
        </g>
    </g>
</svg>
