<?xml version="1.0" encoding="UTF-8"?>
<svg width="300px" height="40px" viewBox="0 0 300 40" version="1.1" xmlns="http://www.w3.org/2000/svg" xmlns:xlink="http://www.w3.org/1999/xlink">
    <title>Footer</title>
    <g stroke="none" stroke-width="1" fill="none" fill-rule="evenodd">
        <g id="Footer">
            <path fill="#C0C0C0" d="M0,0 L300,0 L300,32 C300,36.418278 296.418278,40 292,40 L8,40 C3.581722,40 5.41083001e-16,36.418278 0,32 L0,0 L0,0 Z"></path>
            <path fill="#FFFFFF" fill-rule="nonzero" d="M80.0957031,25 L80.0957031,22.7578125 C80.0957031,21.5227865 80.1492513,20.7115885 80.2563477,20.3242188 C80.363444,19.936849 80.5104167,19.6691081 80.6972656,19.5209961 C80.8841146,19.3728841 81.1119792,19.2988281 81.3808594,19.2988281 C81.6588542,19.2988281 81.9596354,19.4036458 82.2832031,19.6132812 L82.2832031,19.6132812 L82.8779297,17.9384766 C82.4723307,17.6969401 82.0507812,17.5761719 81.6132812,17.5761719 C81.3033854,17.5761719 81.0265299,17.6536458 80.7827148,17.8085938 C80.5388997,17.9635417 80.2643229,18.2848307 79.9589844,18.7724609 L79.9589844,18.7724609 L79.9589844,17.7402344 L78.1748047,17.7402344 L78.1748047,25 L80.0957031,25 Z M85.6259766,16.7558594 L85.6259766,14.9785156 L83.7050781,14.9785156 L83.7050781,16.7558594 L85.6259766,16.7558594 Z M85.6259766,25 L85.6259766,17.7402344 L83.7050781,17.7402344 L83.7050781,25 L85.6259766,25 Z M89.4609375,27.7617188 L89.4609375,24.1044922 C89.8209635,24.491862 90.1638997,24.7652995 90.4897461,24.9248047 C90.8155924,25.0843099 91.1790365,25.1640625 91.5800781,25.1640625 C92.4231771,25.1640625 93.1409505,24.8279622 93.7333984,24.1557617 C94.3258464,23.4835612 94.6220703,22.5413411 94.6220703,21.3291016 C94.6220703,20.148763 94.328125,19.2281901 93.7402344,18.5673828 C93.1523438,17.9065755 92.436849,17.5761719 91.59375,17.5761719 C91.1106771,17.5761719 90.6708984,17.6901042 90.2744141,17.9179688 C89.8779297,18.1458333 89.5634766,18.4420573 89.3310547,18.8066406 L89.3310547,18.8066406 L89.3310547,17.7402344 L87.5400391,17.7402344 L87.5400391,27.7617188 L89.4609375,27.7617188 Z M91.1083984,23.6396484 C90.6435547,23.6396484 90.249349,23.4448242 89.9257812,23.0551758 C89.6022135,22.6655273 89.4404297,22.0628255 89.4404297,21.2470703 C89.4404297,20.5361328 89.5953776,19.9995117 89.9052734,19.637207 C90.2151693,19.2749023 90.6048177,19.09375 91.0742188,19.09375 C91.5253906,19.09375 91.9036458,19.2783203 92.2089844,19.6474609 C92.5143229,20.0166016 92.6669922,20.5817057 92.6669922,21.3427734 C92.6669922,22.1585286 92.5188802,22.7452799 92.2226562,23.1030273 C91.9264323,23.4607747 91.555013,23.6396484 91.1083984,23.6396484 Z M99.2089844,25.1640625 C100.143229,25.1640625 100.888346,24.9430339 101.444336,24.5009766 C102.000326,24.0589193 102.376302,23.4049479 102.572266,22.5390625 L102.572266,22.5390625 L100.685547,22.2177734 C100.589844,22.7236328 100.425781,23.0802409 100.193359,23.2875977 C99.9609375,23.4949544 99.6624349,23.5986328 99.2978516,23.5986328 C98.8102214,23.5986328 98.4217122,23.4208984 98.1323242,23.0654297 C97.8429362,22.7099609 97.6982422,22.1015625 97.6982422,21.2402344 C97.6982422,20.4654948 97.8406576,19.9129232 98.1254883,19.5825195 C98.410319,19.2521159 98.7919922,19.0869141 99.2705078,19.0869141 C99.6305339,19.0869141 99.9233398,19.1826172 100.148926,19.3740234 C100.374512,19.5654297 100.519206,19.8502604 100.583008,20.2285156 L100.583008,20.2285156 L102.476562,19.8867188 C102.248698,19.1074219 101.873861,18.5275065 101.352051,18.1469727 C100.830241,17.7664388 100.127279,17.5761719 99.2431641,17.5761719 C98.1630859,17.5761719 97.3063151,17.9099935 96.6728516,18.5776367 C96.039388,19.2452799 95.7226562,20.1783854 95.7226562,21.3769531 C95.7226562,22.561849 96.0382487,23.4892578 96.6694336,24.1591797 C97.3006185,24.8291016 98.1471354,25.1640625 99.2089844,25.1640625 Z M105.84668,25 L105.84668,21.3632812 C105.84668,20.7526042 105.904785,20.2911784 106.020996,19.9790039 C106.137207,19.6668294 106.320638,19.4332682 106.571289,19.2783203 C106.82194,19.1233724 107.106771,19.0458984 107.425781,19.0458984 C107.703776,19.0458984 107.935059,19.1062826 108.119629,19.2270508 C108.304199,19.347819 108.432943,19.5107422 108.505859,19.7158203 C108.578776,19.9208984 108.615234,20.4039714 108.615234,21.1650391 L108.615234,21.1650391 L108.615234,25 L110.536133,25 L110.536133,20.7412109 C110.536133,20.0895182 110.503092,19.608724 110.437012,19.2988281 C110.370931,18.9889323 110.247884,18.7063802 110.067871,18.4511719 C109.887858,18.1959635 109.620117,17.9863281 109.264648,17.8222656 C108.90918,17.6582031 108.510417,17.5761719 108.068359,17.5761719 C107.207031,17.5761719 106.466471,17.9384766 105.84668,18.6630859 L105.84668,18.6630859 L105.84668,14.9785156 L103.925781,14.9785156 L103.925781,25 L105.84668,25 Z M115.792969,25.1640625 C116.86849,25.1640625 117.760579,24.8028971 118.469238,24.0805664 C119.177897,23.3582357 119.532227,22.4479167 119.532227,21.3496094 C119.532227,20.2604167 119.181315,19.3592122 118.479492,18.6459961 C117.777669,17.9327799 116.877604,17.5761719 115.779297,17.5761719 C115.068359,17.5761719 114.424642,17.7333984 113.848145,18.0478516 C113.271647,18.3623047 112.826172,18.8180339 112.511719,19.4150391 C112.197266,20.0120443 112.040039,20.6295573 112.040039,21.2675781 C112.040039,22.1015625 112.197266,22.809082 112.511719,23.3901367 C112.826172,23.9711914 113.285319,24.4121094 113.88916,24.7128906 C114.493001,25.0136719 115.127604,25.1640625 115.792969,25.1640625 Z M115.786133,23.5986328 C115.284831,23.5986328 114.863281,23.4072266 114.521484,23.0244141 C114.179688,22.6416016 114.008789,22.0901693 114.008789,21.3701172 C114.008789,20.6500651 114.179688,20.0986328 114.521484,19.7158203 C114.863281,19.3330078 115.284831,19.1416016 115.786133,19.1416016 C116.287435,19.1416016 116.707845,19.3330078 117.047363,19.7158203 C117.386882,20.0986328 117.556641,20.6455078 117.556641,21.3564453 C117.556641,22.085612 117.386882,22.6416016 117.047363,23.0244141 C116.707845,23.4072266 116.287435,23.5986328 115.786133,23.5986328 Z M122.875,25 L122.87582,22.4996512 C122.882923,21.4090634 122.936198,20.6839193 123.035645,20.3242188 C123.142741,19.936849 123.289714,19.6691081 123.476562,19.5209961 C123.663411,19.3728841 123.891276,19.2988281 124.160156,19.2988281 C124.438151,19.2988281 124.738932,19.4036458 125.0625,19.6132812 L125.0625,19.6132812 L125.657227,17.9384766 C125.251628,17.6969401 124.830078,17.5761719 124.392578,17.5761719 C124.082682,17.5761719 123.805827,17.6536458 123.562012,17.8085938 C123.318197,17.9635417 123.04362,18.2848307 122.738281,18.7724609 L122.738281,18.7724609 L122.738281,17.7402344 L120.954102,17.7402344 L120.954102,25 L122.875,25 Z M129.088867,25.1640625 C129.499023,25.1640625 129.905762,25.0626628 130.309082,24.8598633 C130.712402,24.6570638 131.062174,24.3483073 131.358398,23.9335938 L131.358398,23.9335938 L131.358398,25 L133.142578,25 L133.142578,14.9785156 L131.22168,14.9785156 L131.22168,18.5878906 C130.629232,17.9134115 129.927409,17.5761719 129.116211,17.5761719 C128.232096,17.5761719 127.500651,17.8963216 126.921875,18.5366211 C126.343099,19.1769206 126.053711,20.1123047 126.053711,21.3427734 C126.053711,22.5458984 126.351074,23.4835612 126.945801,24.1557617 C127.540527,24.8279622 128.254883,25.1640625 129.088867,25.1640625 Z M129.635742,23.6464844 C129.079753,23.6464844 128.64681,23.3958333 128.336914,22.8945312 C128.122721,22.5481771 128.015625,21.9876302 128.015625,21.2128906 C128.015625,20.4928385 128.169434,19.9516602 128.477051,19.5893555 C128.784668,19.2270508 129.166341,19.0458984 129.62207,19.0458984 C130.091471,19.0458984 130.476562,19.2293294 130.777344,19.5961914 C131.078125,19.9630534 131.228516,20.5634766 131.228516,21.3974609 C131.228516,22.1448568 131.073568,22.706543 130.763672,23.0825195 C130.453776,23.4584961 130.077799,23.6464844 129.635742,23.6464844 Z M142.651367,25 L145.536133,17.7402344 L143.560547,17.7402344 L142.179688,21.4453125 C142.106771,21.6503906 142.038411,21.8554688 141.974609,22.0605469 C141.947266,22.1608073 141.881185,22.3681641 141.776367,22.6826172 L141.776367,22.6826172 L141.379883,21.4453125 L140.012695,17.7402344 L137.996094,17.7402344 L140.921875,25 L142.651367,25 Z M149.671875,25.1640625 C150.469401,25.1640625 151.133626,24.9806315 151.664551,24.6137695 C152.195475,24.2469076 152.583984,23.7125651 152.830078,23.0107422 L152.830078,23.0107422 L150.916016,22.6894531 C150.811198,23.0540365 150.65625,23.3183594 150.451172,23.4824219 C150.246094,23.6464844 149.993164,23.7285156 149.692383,23.7285156 C149.250326,23.7285156 148.881185,23.5701497 148.584961,23.253418 C148.288737,22.9366862 148.133789,22.4934896 148.120117,21.9238281 L148.120117,21.9238281 L152.932617,21.9238281 C152.959961,20.4518229 152.661458,19.3592122 152.037109,18.6459961 C151.41276,17.9327799 150.560547,17.5761719 149.480469,17.5761719 C148.51888,17.5761719 147.723633,17.9168294 147.094727,18.5981445 C146.46582,19.2794596 146.151367,20.2216797 146.151367,21.4248047 C146.151367,22.4319661 146.390625,23.2659505 146.869141,23.9267578 C147.47526,24.7516276 148.409505,25.1640625 149.671875,25.1640625 Z M151.025391,20.7480469 L148.154297,20.7480469 C148.14974,20.2239583 148.28418,19.8092448 148.557617,19.5039062 C148.831055,19.1985677 149.177409,19.0458984 149.59668,19.0458984 C149.988607,19.0458984 150.321289,19.1905924 150.594727,19.4799805 C150.868164,19.7693685 151.011719,20.1920573 151.025391,20.7480469 L151.025391,20.7480469 Z M156.336914,25 L156.336914,22.7578125 C156.336914,21.5227865 156.390462,20.7115885 156.497559,20.3242188 C156.604655,19.936849 156.751628,19.6691081 156.938477,19.5209961 C157.125326,19.3728841 157.35319,19.2988281 157.62207,19.2988281 C157.900065,19.2988281 158.200846,19.4036458 158.524414,19.6132812 L158.524414,19.6132812 L159.119141,17.9384766 C158.713542,17.6969401 158.291992,17.5761719 157.854492,17.5761719 C157.544596,17.5761719 157.267741,17.6536458 157.023926,17.8085938 C156.780111,17.9635417 156.505534,18.2848307 156.200195,18.7724609 L156.200195,18.7724609 L156.200195,17.7402344 L154.416016,17.7402344 L154.416016,25 L156.336914,25 Z M162.749023,25.1640625 C163.838216,25.1640625 164.660807,24.9248047 165.216797,24.4462891 C165.772786,23.9677734 166.050781,23.3958333 166.050781,22.7304688 C166.050781,22.1197917 165.85026,21.6435547 165.449219,21.3017578 C165.04362,20.9645182 164.329264,20.6796875 163.306152,20.4472656 C162.28304,20.2148438 161.684896,20.0348307 161.511719,19.9072266 C161.384115,19.8115234 161.320312,19.6953125 161.320312,19.5585938 C161.320312,19.3990885 161.393229,19.2692057 161.539062,19.1689453 C161.757812,19.0276693 162.120117,18.9570312 162.625977,18.9570312 C163.027018,18.9570312 163.335775,19.0322266 163.552246,19.1826172 C163.768717,19.3330078 163.91569,19.5494792 163.993164,19.8320312 L163.993164,19.8320312 L165.804688,19.4970703 C165.622396,18.8636068 165.289714,18.3850911 164.806641,18.0615234 C164.323568,17.7379557 163.585286,17.5761719 162.591797,17.5761719 C161.548177,17.5761719 160.777995,17.7903646 160.28125,18.21875 C159.784505,18.6471354 159.536133,19.1757812 159.536133,19.8046875 C159.536133,20.5019531 159.823242,21.0465495 160.397461,21.4384766 C160.812174,21.7210286 161.794271,22.0332031 163.34375,22.375 C163.676432,22.452474 163.890625,22.5367839 163.986328,22.6279297 C164.077474,22.7236328 164.123047,22.844401 164.123047,22.9902344 C164.123047,23.2044271 164.038737,23.3753255 163.870117,23.5029297 C163.619466,23.6852214 163.245768,23.7763672 162.749023,23.7763672 C162.297852,23.7763672 161.94694,23.6795247 161.696289,23.4858398 C161.445638,23.2921549 161.279297,23.0084635 161.197266,22.6347656 L161.197266,22.6347656 L159.269531,22.9287109 C159.447266,23.616862 159.824382,24.1614583 160.400879,24.5625 C160.977376,24.9635417 161.760091,25.1640625 162.749023,25.1640625 Z M169.65332,16.7558594 L169.65332,14.9785156 L167.732422,14.9785156 L167.732422,16.7558594 L169.65332,16.7558594 Z M169.65332,25 L169.65332,17.7402344 L167.732422,17.7402344 L167.732422,25 L169.65332,25 Z M174.930664,25.1640625 C176.006185,25.1640625 176.898275,24.8028971 177.606934,24.0805664 C178.315592,23.3582357 178.669922,22.4479167 178.669922,21.3496094 C178.669922,20.2604167 178.31901,19.3592122 177.617188,18.6459961 C176.915365,17.9327799 176.015299,17.5761719 174.916992,17.5761719 C174.206055,17.5761719 173.562337,17.7333984 172.98584,18.0478516 C172.409342,18.3623047 171.963867,18.8180339 171.649414,19.4150391 C171.334961,20.0120443 171.177734,20.6295573 171.177734,21.2675781 C171.177734,22.1015625 171.334961,22.809082 171.649414,23.3901367 C171.963867,23.9711914 172.423014,24.4121094 173.026855,24.7128906 C173.630697,25.0136719 174.265299,25.1640625 174.930664,25.1640625 Z M174.923828,23.5986328 C174.422526,23.5986328 174.000977,23.4072266 173.65918,23.0244141 C173.317383,22.6416016 173.146484,22.0901693 173.146484,21.3701172 C173.146484,20.6500651 173.317383,20.0986328 173.65918,19.7158203 C174.000977,19.3330078 174.422526,19.1416016 174.923828,19.1416016 C175.42513,19.1416016 175.84554,19.3330078 176.185059,19.7158203 C176.524577,20.0986328 176.694336,20.6455078 176.694336,21.3564453 C176.694336,22.085612 176.524577,22.6416016 176.185059,23.0244141 C175.84554,23.4072266 175.42513,23.5986328 174.923828,23.5986328 Z M182.081055,25 L182.081055,21.7119141 C182.081055,20.9007161 182.130046,20.3447266 182.228027,20.0439453 C182.326009,19.7431641 182.507161,19.5016276 182.771484,19.3193359 C183.035807,19.1370443 183.33431,19.0458984 183.666992,19.0458984 C183.926758,19.0458984 184.148926,19.1097005 184.333496,19.2373047 C184.518066,19.3649089 184.651367,19.5437826 184.733398,19.7739258 C184.81543,20.004069 184.856445,20.5110677 184.856445,21.2949219 L184.856445,21.2949219 L184.856445,25 L186.777344,25 L186.777344,20.4882812 C186.777344,19.9277344 186.742025,19.4970703 186.671387,19.1962891 C186.600749,18.8955078 186.475423,18.6266276 186.29541,18.3896484 C186.115397,18.1526693 185.849935,17.9578451 185.499023,17.8051758 C185.148112,17.6525065 184.760742,17.5761719 184.336914,17.5761719 C183.375326,17.5761719 182.577799,17.9863281 181.944336,18.8066406 L181.944336,18.8066406 L181.944336,17.7402344 L180.160156,17.7402344 L180.160156,25 L182.081055,25 Z M198.692383,25 L198.692383,23.2158203 L194.87793,23.2158203 C194.97819,23.0426432 195.109212,22.8649089 195.270996,22.6826172 C195.43278,22.5003255 195.816732,22.1311849 196.422852,21.5751953 C197.028971,21.0192057 197.448242,20.593099 197.680664,20.296875 C198.031576,19.8502604 198.287923,19.4230143 198.449707,19.0151367 C198.611491,18.6072591 198.692383,18.1777344 198.692383,17.7265625 C198.692383,16.9335938 198.409831,16.2705078 197.844727,15.7373047 C197.279622,15.2041016 196.502604,14.9375 195.513672,14.9375 C194.611328,14.9375 193.859375,15.1676432 193.257812,15.6279297 C192.65625,16.0882161 192.298503,16.8470052 192.18457,17.9042969 L192.18457,17.9042969 L194.098633,18.0957031 C194.135091,17.5351562 194.27181,17.1341146 194.508789,16.8925781 C194.745768,16.6510417 195.064779,16.5302734 195.46582,16.5302734 C195.871419,16.5302734 196.18929,16.6453451 196.419434,16.8754883 C196.649577,17.1056315 196.764648,17.4348958 196.764648,17.8632812 C196.764648,18.250651 196.632487,18.6425781 196.368164,19.0390625 C196.172201,19.3261719 195.641276,19.8730469 194.775391,20.6796875 C193.69987,21.6777344 192.979818,22.4786784 192.615234,23.0825195 C192.250651,23.6863607 192.031901,24.3255208 191.958984,25 L191.958984,25 L198.692383,25 Z M202.322266,25 L202.322266,23.0791016 L200.401367,23.0791016 L200.401367,25 L202.322266,25 Z M207.107422,25.1708984 C208.064453,25.1708984 208.864258,24.8610026 209.506836,24.2412109 C210.149414,23.6214193 210.470703,22.8717448 210.470703,21.9921875 C210.470703,21.3860677 210.298665,20.8688151 209.95459,20.4404297 C209.610514,20.0120443 209.151367,19.7363281 208.577148,19.6132812 C209.538737,19.0891927 210.019531,18.3873698 210.019531,17.5078125 C210.019531,16.8880208 209.784831,16.3320312 209.31543,15.8398438 C208.745768,15.2382812 207.989258,14.9375 207.045898,14.9375 C206.494466,14.9375 205.996582,15.0411784 205.552246,15.2485352 C205.10791,15.4558919 204.761556,15.7407227 204.513184,16.1030273 C204.264811,16.465332 204.079102,16.9495443 203.956055,17.5556641 L203.956055,17.5556641 L205.726562,17.8564453 C205.776693,17.4189453 205.917969,17.086263 206.150391,16.8583984 C206.382812,16.6305339 206.663086,16.5166016 206.991211,16.5166016 C207.323893,16.5166016 207.590495,16.616862 207.791016,16.8173828 C207.991536,17.0179036 208.091797,17.2867839 208.091797,17.6240234 C208.091797,18.0205078 207.955078,18.3383789 207.681641,18.5776367 C207.408203,18.8168945 207.011719,18.9296875 206.492188,18.9160156 L206.492188,18.9160156 L206.280273,20.4814453 C206.62207,20.3857422 206.916016,20.3378906 207.162109,20.3378906 C207.535807,20.3378906 207.852539,20.4791667 208.112305,20.7617188 C208.37207,21.0442708 208.501953,21.4270833 208.501953,21.9101562 C208.501953,22.4205729 208.366374,22.8261719 208.095215,23.1269531 C207.824056,23.4277344 207.490234,23.578125 207.09375,23.578125 C206.724609,23.578125 206.410156,23.4527995 206.150391,23.2021484 C205.890625,22.9514974 205.73112,22.5891927 205.671875,22.1152344 L205.671875,22.1152344 L203.8125,22.3408203 C203.908203,23.1839193 204.254557,23.8663737 204.851562,24.3881836 C205.448568,24.9099935 206.200521,25.1708984 207.107422,25.1708984 Z M213.998047,25 L213.998047,23.0791016 L212.077148,23.0791016 L212.077148,25 L213.998047,25 Z M218.803711,25.1708984 C219.774414,25.1708984 220.530924,24.8291016 221.073242,24.1455078 C221.729492,23.3160807 222.057617,21.9534505 222.057617,20.0576172 C222.057617,18.1572266 221.731771,16.796875 221.080078,15.9765625 C220.533203,15.2838542 219.774414,14.9375 218.803711,14.9375 C217.833008,14.9375 217.076497,15.2792969 216.53418,15.9628906 C215.87793,16.7923177 215.549805,18.1503906 215.549805,20.0371094 C215.549805,21.9602865 215.848307,23.2967122 216.445312,24.0463867 C217.042318,24.7960612 217.828451,25.1708984 218.803711,25.1708984 Z M218.803711,23.578125 C218.571289,23.578125 218.365072,23.5052083 218.185059,23.359375 C218.005046,23.2135417 217.855794,22.9207357 217.737305,22.480957 C217.618815,22.0411784 217.55957,21.2333984 217.55957,20.0576172 C217.55957,18.8818359 217.625651,18.0455729 217.757812,17.5488281 C217.858073,17.1660156 217.999349,16.9005534 218.181641,16.7524414 C218.363932,16.6043294 218.571289,16.5302734 218.803711,16.5302734 C219.036133,16.5302734 219.24235,16.6043294 219.422363,16.7524414 C219.602376,16.9005534 219.751628,17.1944987 219.870117,17.6342773 C219.988607,18.074056 220.047852,18.8818359 220.047852,20.0576172 C220.047852,21.2333984 219.981771,22.0673828 219.849609,22.5595703 C219.749349,22.9423828 219.608073,23.2078451 219.425781,23.355957 C219.24349,23.504069 219.036133,23.578125 218.803711,23.578125 Z"></path>
        </g>
    </g>
</svg>
