<?xml version="1.0" encoding="UTF-8"?>
<svg width="34px" height="34px" viewBox="0 0 34 34" version="1.1" xmlns="http://www.w3.org/2000/svg" xmlns:xlink="http://www.w3.org/1999/xlink">
    <title>Gear</title>
    <g id="Page-1" stroke="none" stroke-width="1" fill="none" fill-rule="evenodd">
        <g id="Elements" transform="translate(-744.000000, -9.000000)" fill="#C0C0C0" fill-rule="nonzero">
            <path d="M776.980748,26.9425474 L774.179876,25.9538764 C773.605338,25.7707892 773.210343,25.258145 773.102617,24.6356484 C773.0308,23.9765344 772.887165,23.3174204 772.707622,22.6949239 C772.528079,22.1090448 772.707622,21.4865483 773.138525,21.0471389 L775.221226,18.9599447 C775.795764,18.3740656 775.867581,17.422012 775.36486,16.762898 L773.53352,14.3827642 C773.0308,13.7236502 772.097175,13.5771804 771.379003,14.0165898 L768.901307,15.6277573 C768.398587,15.9573143 767.78814,15.9939317 767.249511,15.6643747 C766.674973,15.3348177 766.100435,15.0418782 765.454079,14.8221735 C764.879541,14.6024689 764.484546,14.0898247 764.448638,13.4673281 L764.12546,10.4646977 C764.053643,9.62249654 763.33547,9 762.509572,9 L759.565065,9 C758.739166,9 758.056902,9.62249654 757.949176,10.4646977 L757.625999,13.4673281 C757.554181,14.0898247 757.159187,14.6024689 756.620557,14.8221735 C756.01011,15.0418782 755.399664,15.3348177 754.825126,15.6643747 C754.322405,15.9573143 753.67605,15.9206968 753.173329,15.6277573 L750.695634,14.0165898 C750.01337,13.5771804 749.079746,13.7236502 748.541116,14.3827642 L746.709776,16.7262806 C746.207055,17.3853946 746.242964,18.3374481 746.853411,18.9233272 L748.936111,21.0471389 C749.367015,21.4865483 749.510649,22.1090448 749.367015,22.6583065 C749.187471,23.280803 749.043837,23.939917 748.97202,24.599031 C748.900202,25.2215275 748.469299,25.7341717 747.894761,25.9172589 L745.093888,26.9059299 C744.303898,27.162252 743.837086,28.0044532 744.052538,28.8466544 L744.698893,31.7760499 C744.878436,32.6182511 745.632517,33.1675128 746.458416,33.0576604 L749.438832,32.691486 C750.01337,32.6182511 750.587908,32.9111907 750.911085,33.4238349 C751.270172,33.9730965 751.665167,34.4857407 752.09607,34.9617675 C752.491065,35.4011768 752.670608,36.0236734 752.455156,36.572935 L751.449715,39.4290956 C751.162446,40.2346794 751.521532,41.113498 752.275613,41.4796725 L754.896943,42.8345179 C755.651024,43.2006923 756.54874,42.9443702 756.979643,42.2120213 L758.523714,39.6854177 C758.846892,39.1361561 759.457339,38.8432165 760.067785,38.9164514 C760.355054,38.9530689 760.678232,38.9530689 760.965501,38.9530689 C761.288679,38.9530689 761.575948,38.9164514 761.899125,38.879834 C762.509572,38.8065991 763.120019,39.0995386 763.443196,39.6488003 L764.951359,42.1754039 C765.382262,42.9077528 766.279978,43.1640749 767.034059,42.7979004 L769.691297,41.4796725 C770.445378,41.113498 770.804465,40.2346794 770.517196,39.4290956 L769.511754,36.5363176 C769.332211,35.9870559 769.475845,35.3645594 769.87084,34.9251501 C770.301744,34.4491233 770.696739,33.9364791 771.055825,33.3872174 C771.414911,32.8745732 772.025358,32.6182511 772.635805,32.691486 L775.472586,33.0576604 C776.298485,33.1675128 777.052566,32.6182511 777.232109,31.7760499 L777.914373,28.8466544 C778.201642,28.0410707 777.73483,27.1988695 776.980748,26.9425474 Z M761.00141,32.691486 C757.625999,32.691486 754.861034,29.9085603 754.861034,26.4299031 C754.861034,22.9878634 757.59009,20.1683203 761.00141,20.1683203 C764.37682,20.1683203 767.141785,22.951246 767.141785,26.4299031 C767.141785,29.9085603 764.37682,32.691486 761.00141,32.691486 Z" id="Gear"></path>
        </g>
    </g>
</svg>
