<?xml version="1.0" encoding="UTF-8"?>
<svg width="34px" height="34px" viewBox="0 0 34 34">
    <g stroke="none" stroke-width="1" fill="none" fill-rule="evenodd">
        <path fill="#80848A" d="M17,0 C26.3888407,0 34,7.61115925 34,17 C34,26.3888407 26.3888407,34 17,34 C7.61115925,34 0,26.3888407 0,17 C0,7.61115925 7.61115925,0 17,0 Z M18.0655802,5 L15.9871044,5 C15.4041172,5 14.9225192,5.43940932 14.8464774,6.03390429 L14.618352,8.15340808 C14.5676575,8.59281741 14.2888375,8.95468391 13.9086286,9.10976955 C13.477725,9.26485519 13.0468215,9.47163605 12.6412653,9.70426452 C12.2864035,9.91104538 11.8301528,9.88519777 11.475291,9.67841691 L9.72632968,8.54112219 C9.24473163,8.2309509 8.58570272,8.33434133 8.20549373,8.79959826 L6.91278317,10.4538451 C6.55792145,10.9191021 6.58326871,11.5911398 7.01417223,12.0047016 L8.48431366,13.5038628 C8.78848085,13.8140341 8.88986991,14.2534434 8.78848085,14.6411575 C8.66174452,15.0805668 8.56035545,15.5458238 8.50966092,16.0110807 C8.45896639,16.45049 8.1547992,16.8123565 7.74924295,16.9415945 L5.77215621,17.6394799 C5.21451636,17.8204132 4.8850019,18.4149082 5.0370855,19.0094031 L5.49333628,21.0772117 C5.62007261,21.6717067 6.15236519,22.0594208 6.73535231,21.981878 L8.83917538,21.7234019 C9.24473163,21.6717067 9.65028789,21.8784875 9.87841328,22.240354 C10.1318859,22.6280681 10.4107059,22.9899346 10.7148731,23.3259535 C10.993693,23.6361248 11.1204293,24.0755341 10.9683457,24.4632482 L10.2586223,26.4793616 C10.0558441,27.048009 10.3093168,27.6683515 10.8416094,27.9268276 L12.6919598,28.8831891 C13.2242524,29.1416652 13.857934,28.9607319 14.1621012,28.4437798 L15.2520336,26.6602949 C15.480159,26.2725808 15.9110626,26.0657999 16.3419661,26.1174951 C16.5447442,26.1433427 16.7728696,26.1433427 16.9756477,26.1433427 C17.2037731,26.1433427 17.4065512,26.1174951 17.6346766,26.0916475 C18.0655802,26.0399523 18.4964837,26.2467331 18.7246091,26.6344473 L19.7891942,28.4179322 C20.0933614,28.9348843 20.7270431,29.1158176 21.2593357,28.8573415 L23.1350333,27.9268276 C23.6673259,27.6683515 23.9207986,27.048009 23.7180205,26.4793616 L23.008297,24.4374006 C22.8815607,24.0496865 22.9829497,23.6102772 23.2617697,23.3001059 C23.5659369,22.964087 23.8447568,22.6022205 24.0982294,22.2145064 C24.3517021,21.8526399 24.7826056,21.6717067 25.2135091,21.7234019 L27.2159431,21.981878 C27.7989303,22.0594208 28.3312228,21.6717067 28.4579592,21.0772117 L28.9395572,19.0094031 C29.1423354,18.4407558 28.8128209,17.8462608 28.2805283,17.6653275 L26.3034416,16.9674422 C25.8978853,16.8382041 25.6190654,16.4763376 25.5430236,16.0369283 C25.4923291,15.5716714 25.39094,15.1064144 25.2642037,14.6670051 C25.1374673,14.2534434 25.2642037,13.8140341 25.5683709,13.5038628 L27.0385123,12.0305492 C27.4440685,11.6169875 27.4947631,10.9449497 27.1399014,10.4796927 L25.8471908,8.79959826 C25.4923291,8.33434133 24.8333002,8.2309509 24.3263548,8.54112219 L22.5773935,9.67841691 C22.2225318,9.91104538 21.7916282,9.93689298 21.4114193,9.70426452 C21.005863,9.47163605 20.6003068,9.26485519 20.144056,9.10976955 C19.7384997,8.95468391 19.4596798,8.59281741 19.4343325,8.15340808 L19.2062071,6.03390429 C19.1555126,5.43940932 18.6485673,5 18.0655802,5 Z M17.000995,12.8835202 C19.383638,12.8835202 21.3353775,14.8479384 21.3353775,17.303461 C21.3353775,19.7589837 19.383638,21.7234019 17.000995,21.7234019 C14.618352,21.7234019 12.6666125,19.7589837 12.6666125,17.303461 C12.6666125,14.873786 14.5930047,12.8835202 17.000995,12.8835202 Z"></path>
    </g>
</svg>
