<?xml version="1.0" encoding="UTF-8"?>
<svg width="34px" height="34px" viewBox="0 0 100 100" version="1.1" xmlns="http://www.w3.org/2000/svg" xmlns:xlink="http://www.w3.org/1999/xlink">
    <title>Gear</title>
    <g stroke="none" stroke-width="1" fill="none" fill-rule="evenodd">
        <path id="Gear" fill="#C0C0C0" fill-rule="nonzero" d="M22.227152,90.2747833 C21.4768253,90.9955975 20.2683008,90.9793574 19.5366959,90.2473739 L9.75509315,80.4607079 C9.01952199,79.7247558 8.99937855,78.5284043 9.72821217,77.76973 L15.129564,72.1472301 C15.8502894,71.3969961 16.1150958,70.0175745 15.7161418,69.0544142 L12.2841458,60.7688431 C11.8873786,59.8109621 10.7342484,59.0177657 9.68242156,58.9966652 L1.88738133,58.8402899 C0.847256024,58.819424 0.00384812775,57.9533868 0.00358042338,56.9184735 L6.53611988e-08,43.0816179 C-0.000269142971,42.0410939 0.831101832,41.1809001 1.88305839,41.1597968 L9.67906059,41.0034023 C10.7193143,40.982534 11.8821262,40.1942279 12.281159,39.2308775 L15.7138321,30.9436713 C16.1106777,29.9856013 15.8561586,28.6091133 15.1272351,27.8503455 L9.72521666,22.227152 C9.00440252,21.4768253 9.02064263,20.2683008 9.7526261,19.5366959 L19.5392921,9.75509315 C20.2752442,9.01952199 21.4715957,8.99937855 22.23027,9.72821217 L27.8527699,15.129564 C28.6030039,15.8502894 29.9824255,16.1150958 30.9455858,15.7161418 L39.2311569,12.2841458 C40.1890379,11.8873786 40.9822343,10.7342484 41.0033348,9.68242156 L41.1597101,1.88738133 C41.180576,0.847256024 42.0466132,0.00384812775 43.0815265,0.00358042338 L56.9183821,6.53611988e-08 C57.9589061,-0.000269142971 58.8190999,0.831101832 58.8402032,1.88305839 L58.9965977,9.67906059 C59.017466,10.7193143 59.8057721,11.8821262 60.7691225,12.281159 L69.0563287,15.7138321 C70.0143987,16.1106777 71.3908867,15.8561586 72.1496545,15.1272351 L77.772848,9.72521666 C78.5231747,9.00440252 79.7316992,9.02064263 80.4633041,9.7526261 L90.2449069,19.5392921 C90.980478,20.2752442 91.0006214,21.4715957 90.2717878,22.23027 L84.870436,27.8527699 C84.1497106,28.6030039 83.8849042,29.9824255 84.2838582,30.9455858 L87.7158542,39.2311569 C88.1126214,40.1890379 89.2657516,40.9822343 90.3175784,41.0033348 L98.1126187,41.1597101 C99.152744,41.180576 99.9961519,42.0466132 99.9964196,43.0815265 L99.9999999,56.9183821 C100.000269,57.9589061 99.1688982,58.8190999 98.1169416,58.8402032 L90.3209394,58.9965977 C89.2806857,59.017466 88.1178738,59.8057721 87.718841,60.7691225 L84.2861679,69.0563287 C83.8893223,70.0143987 84.1438414,71.3908867 84.8727649,72.1496545 L90.2747833,77.772848 C90.9955975,78.5231747 90.9793574,79.7316992 90.2473739,80.4633041 L80.4607079,90.2449069 C79.7247558,90.980478 78.5284043,91.0006214 77.76973,90.2717878 L72.1472301,84.870436 C71.3969961,84.1497106 70.0175745,83.8849042 69.0544142,84.2838582 L60.7688431,87.7158542 C59.8109621,88.1126214 59.0177657,89.2657516 58.9966652,90.3175784 L58.8402899,98.1126187 C58.819424,99.152744 57.9533868,99.9961519 56.9184735,99.9964196 L43.0816179,99.9999999 C42.0410939,100.000269 41.1809001,99.1688982 41.1597968,98.1169416 L41.0034023,90.3209394 C40.982534,89.2806857 40.1942279,88.1178738 39.2308775,87.718841 L30.9436713,84.2861679 C29.9856013,83.8893223 28.6091133,84.1438414 27.8503455,84.8727649 L22.227152,90.2747833 Z M40.6474833,72.5789726 C53.1175056,77.7442249 67.4137203,71.8225389 72.5789726,59.3525167 C77.7442249,46.8824944 71.8225389,32.5862797 59.3525167,27.4210274 C46.8824944,22.2557751 32.5862797,28.1774611 27.4210274,40.6474833 C22.2557751,53.1175056 28.1774611,67.4137203 40.6474833,72.5789726 Z"></path>
    </g>
</svg>
