<?xml version="1.0" encoding="UTF-8"?>
<svg width="20px" height="20px" viewBox="0 0 20 20" version="1.1" xmlns="http://www.w3.org/2000/svg" xmlns:xlink="http://www.w3.org/1999/xlink">
    <title>Gear</title>
    <g id="Page-1" stroke="none" stroke-width="1" fill="none" fill-rule="evenodd">
        <path d="M19.4004403,10.5544396 L17.752868,9.97286846 C17.4149044,9.8651701 17.1825545,9.56361468 17.1191863,9.19744024 C17.0769409,8.80972613 16.99245,8.42201202 16.8868364,8.05583759 C16.7812228,7.71120283 16.8868364,7.34502839 17.1403091,7.08655232 L18.3654269,5.85879097 C18.7033905,5.51415621 18.7456359,4.95412472 18.4499178,4.56641061 L17.372659,3.16633189 C17.0769409,2.77861778 16.5277501,2.69245909 16.1052957,2.95093516 L14.6478279,3.89868076 C14.3521098,4.09253781 13.9930235,4.11407749 13.6761827,3.92022043 C13.3382192,3.72636338 13.0002556,3.554046 12.6200466,3.42480796 C12.2820831,3.29556992 12.0497332,2.9940145 12.0286104,2.62784007 L11.8385059,0.861586908 C11.7962605,0.366174436 11.3738061,0 10.8879835,0 L9.1559203,0 C8.6700977,0 8.26876599,0.366174436 8.20539783,0.861586908 L8.01529333,2.62784007 C7.97304789,2.9940145 7.74069795,3.29556992 7.42385713,3.42480796 C7.06477086,3.554046 6.7056846,3.72636338 6.36772105,3.92022043 C6.07200295,4.09253781 5.69179396,4.07099814 5.39607586,3.89868076 L3.93860807,2.95093516 C3.53727636,2.69245909 2.9880856,2.77861778 2.67124478,3.16633189 L1.59398598,4.54487094 C1.29826787,4.93258505 1.3193906,5.49261654 1.67847686,5.8372513 L2.90359471,7.08655232 C3.15706737,7.34502839 3.24155826,7.71120283 3.15706737,8.03429792 C3.05145376,8.40047235 2.96696288,8.78818646 2.92471744,9.17590057 C2.88247199,9.54207501 2.62899933,9.84363042 2.29103579,9.95132879 L0.643463505,10.5328999 C0.17876363,10.6836777 -0.0958317501,11.1790901 0.0309045793,11.6745026 L0.411113568,13.3976764 C0.516727176,13.8930889 0.960304329,14.216184 1.44612692,14.151565 L3.19931282,13.9361682 C3.53727636,13.8930889 3.87523991,14.0654063 4.0653444,14.3669617 C4.27657162,14.6900568 4.50892155,14.9916122 4.76239421,15.2716279 C4.99474415,15.530104 5.10035776,15.8962785 4.97362143,16.2193735 L4.38218522,17.899468 C4.21320345,18.3733408 4.42443067,18.890293 4.86800782,19.1056897 L6.40996649,19.9026576 C6.85354365,20.1180543 7.38161169,19.9672766 7.63508435,19.5364831 L8.54336137,18.0502457 C8.73346587,17.7271506 9.09255213,17.5548332 9.4516384,17.5979126 C9.62062017,17.6194523 9.81072467,17.6194523 9.97970644,17.6194523 C10.1698109,17.6194523 10.3387927,17.5979126 10.5288972,17.5763729 C10.8879835,17.5332936 11.2470697,17.705611 11.4371742,18.028706 L12.3243285,19.5149435 C12.5778012,19.9457369 13.1058692,20.0965146 13.5494464,19.8811179 L15.1125278,19.1056897 C15.5561049,18.890293 15.7673322,18.3733408 15.5983504,17.899468 L15.0069142,16.1978339 C14.9013006,15.8747388 14.9857915,15.5085643 15.2181414,15.2500883 C15.4716141,14.9700725 15.703964,14.6685171 15.9151912,14.345422 C16.1264184,14.0438666 16.4855047,13.8930889 16.844591,13.9361682 L18.513286,14.151565 C18.9991086,14.216184 19.4426857,13.8930889 19.5482993,13.3976764 L19.949631,11.6745026 C20.1186128,11.2006298 19.8440174,10.7052173 19.4004403,10.5544396 Z M10.0008292,13.9361682 C8.01529333,13.9361682 6.38884377,12.2991531 6.38884377,10.2528842 C6.38884377,8.22815497 7.99417061,6.56960017 10.0008292,6.56960017 C11.986365,6.56960017 13.6128146,8.2066153 13.6128146,10.2528842 C13.6128146,12.2991531 11.986365,13.9361682 10.0008292,13.9361682 Z" id="Gear" fill="#202124" fill-rule="nonzero"></path>
    </g>
</svg>
