<?xml version="1.0" encoding="UTF-8"?>
<svg width="120px" height="34px" viewBox="0 0 120 34" version="1.1" xmlns="http://www.w3.org/2000/svg" xmlns:xlink="http://www.w3.org/1999/xlink">
    <title>HTS</title>
    <g stroke="none" stroke-width="1" fill="none" fill-rule="evenodd">
        <g id="HTS">
            <path fill="#C0C0C0" d="M60,0 L115,0 C117.761424,-5.07265313e-16 120,2.23857625 120,5 L120,29 C120,31.7614237 117.761424,34 115,34 L60,34 L60,0 Z"></path>
            <path fill="#7957BA" transform="translate(30.000000, 17.000000) scale(-1, 1) translate(-30.000000, -17.000000)" d="M0,0 L55,0 C57.7614237,-5.07265313e-16 60,2.23857625 60,5 L60,29 C60,31.7614237 57.7614237,34 55,34 L0,34 L0,0 Z"></path>
            <path fill="#FFFFFF" fill-rule="nonzero" d="M72.6503906,18.8076172 L75.1816406,18.5615234 C75.3339851,19.4111371 75.6430641,20.0351543 76.1088867,20.4335938 C76.5747094,20.8320332 77.203121,21.03125 77.9941406,21.03125 C78.8320354,21.03125 79.4633768,20.8540057 79.8881836,20.4995117 C80.3129904,20.1450178 80.5253906,19.7304711 80.5253906,19.2558594 C80.5253906,18.9511704 80.436036,18.6918956 80.2573242,18.4780273 C80.0786124,18.2641591 79.7666038,18.0781258 79.3212891,17.9199219 C79.0166,17.8144526 78.322271,17.6269545 77.2382812,17.3574219 C75.843743,17.011717 74.8652372,16.5869166 74.3027344,16.0830078 C73.5117148,15.3740199 73.1162109,14.5097707 73.1162109,13.4902344 C73.1162109,12.8339811 73.3022442,12.2202177 73.6743164,11.6489258 C74.0463886,11.0776339 74.582516,10.6425796 75.2827148,10.34375 C75.9829137,10.0449204 76.82812,9.89550781 77.8183594,9.89550781 C79.435555,9.89550781 80.6528279,10.2499965 81.4702148,10.9589844 C82.2876017,11.6679723 82.7167967,12.6142519 82.7578125,13.7978516 L80.15625,13.9121094 C80.0449213,13.2499967 79.8061542,12.7739272 79.4399414,12.4838867 C79.0737286,12.1938462 78.5244177,12.0488281 77.7919922,12.0488281 C77.036129,12.0488281 76.4443381,12.2041 76.0166016,12.5146484 C75.7412096,12.7138682 75.6035156,12.9804671 75.6035156,13.3144531 C75.6035156,13.6191421 75.7324206,13.8798817 75.9902344,14.0966797 C76.318361,14.3720717 77.115228,14.6591782 78.3808594,14.9580078 C79.6464907,15.2568374 80.5825165,15.5659164 81.1889648,15.8852539 C81.7954132,16.2045914 82.2700178,16.6411105 82.612793,17.1948242 C82.9555681,17.7485379 83.1269531,18.4326131 83.1269531,19.2470703 C83.1269531,19.9853553 82.9218771,20.6767546 82.5117188,21.3212891 C82.1015604,21.9658235 81.5214881,22.4448227 80.7714844,22.7583008 C80.0214806,23.0717789 79.0869197,23.2285156 77.9677734,23.2285156 C76.338859,23.2285156 75.087895,22.8520545 74.2148438,22.0991211 C73.3417925,21.3461876 72.8203133,20.2490306 72.6503906,18.8076172 Z M88.2158203,23 L88.2158203,12.2949219 L84.3925781,12.2949219 L84.3925781,10.1152344 L94.6318359,10.1152344 L94.6318359,12.2949219 L90.8173828,12.2949219 L90.8173828,23 L88.2158203,23 Z M96.3193359,23 L96.3193359,10.1152344 L98.9208984,10.1152344 L98.9208984,15.1865234 L104.018555,15.1865234 L104.018555,10.1152344 L106.620117,10.1152344 L106.620117,23 L104.018555,23 L104.018555,17.3662109 L98.9208984,17.3662109 L98.9208984,23 L96.3193359,23 Z"></path>
            <path fill="#FFFFFF" fill-rule="nonzero" d="M13.3183594,23 L13.3183594,10.1152344 L15.9199219,10.1152344 L15.9199219,15.1865234 L21.0175781,15.1865234 L21.0175781,10.1152344 L23.6191406,10.1152344 L23.6191406,23 L21.0175781,23 L21.0175781,17.3662109 L15.9199219,17.3662109 L15.9199219,23 L13.3183594,23 Z M29.2089844,23 L29.2089844,12.2949219 L25.3857422,12.2949219 L25.3857422,10.1152344 L35.625,10.1152344 L35.625,12.2949219 L31.8105469,12.2949219 L31.8105469,23 L29.2089844,23 Z M36.6445312,18.8076172 L39.1757812,18.5615234 C39.3281258,19.4111371 39.6372047,20.0351543 40.1030273,20.4335938 C40.56885,20.8320332 41.1972617,21.03125 41.9882812,21.03125 C42.8261761,21.03125 43.4575174,20.8540057 43.8823242,20.4995117 C44.307131,20.1450178 44.5195312,19.7304711 44.5195312,19.2558594 C44.5195312,18.9511704 44.4301767,18.6918956 44.2514648,18.4780273 C44.072753,18.2641591 43.7607444,18.0781258 43.3154297,17.9199219 C43.0107407,17.8144526 42.3164117,17.6269545 41.2324219,17.3574219 C39.8378837,17.011717 38.8593778,16.5869166 38.296875,16.0830078 C37.5058554,15.3740199 37.1103516,14.5097707 37.1103516,13.4902344 C37.1103516,12.8339811 37.2963849,12.2202177 37.668457,11.6489258 C38.0405292,11.0776339 38.5766567,10.6425796 39.2768555,10.34375 C39.9770543,10.0449204 40.8222607,9.89550781 41.8125,9.89550781 C43.4296956,9.89550781 44.6469686,10.2499965 45.4643555,10.9589844 C46.2817424,11.6679723 46.7109373,12.6142519 46.7519531,13.7978516 L44.1503906,13.9121094 C44.0390619,13.2499967 43.8002948,12.7739272 43.434082,12.4838867 C43.0678693,12.1938462 42.5185583,12.0488281 41.7861328,12.0488281 C41.0302697,12.0488281 40.4384787,12.2041 40.0107422,12.5146484 C39.7353502,12.7138682 39.5976562,12.9804671 39.5976562,13.3144531 C39.5976562,13.6191421 39.7265612,13.8798817 39.984375,14.0966797 C40.3125016,14.3720717 41.1093687,14.6591782 42.375,14.9580078 C43.6406313,15.2568374 44.5766571,15.5659164 45.1831055,15.8852539 C45.7895538,16.2045914 46.2641584,16.6411105 46.6069336,17.1948242 C46.9497087,17.7485379 47.1210938,18.4326131 47.1210938,19.2470703 C47.1210938,19.9853553 46.9160177,20.6767546 46.5058594,21.3212891 C46.0957011,21.9658235 45.5156287,22.4448227 44.765625,22.7583008 C44.0156213,23.0717789 43.0810603,23.2285156 41.9619141,23.2285156 C40.3329997,23.2285156 39.0820356,22.8520545 38.2089844,22.0991211 C37.3359331,21.3461876 36.814454,20.2490306 36.6445312,18.8076172 Z"></path>
        </g>
    </g>
</svg>
