<?xml version="1.0" encoding="UTF-8"?>
<svg width="300px" height="40px" viewBox="0 0 300 40" version="1.1" xmlns="http://www.w3.org/2000/svg" xmlns:xlink="http://www.w3.org/1999/xlink">
    <title>Import</title>
    <g stroke="none" stroke-width="1" fill="none" fill-rule="evenodd">
        <g id="Import">
            <rect fill="#FFFFFF" x="0" y="0" width="300" height="40"></rect>
            <line x1="1" y1="39.5" x2="299" y2="39.5" id="Line" stroke="#DBDBDB" stroke-linecap="square"></line>
            <path fill="#424242" fill-rule="nonzero" d="M60.7617188,15.4003906 L60.7617188,13.1152344 L58.2919922,13.1152344 L58.2919922,15.4003906 L60.7617188,15.4003906 Z M60.7617188,26 L60.7617188,16.6660156 L58.2919922,16.6660156 L58.2919922,26 L60.7617188,26 Z M65.578125,26 L65.578125,21.4648438 C65.578125,20.5683594 65.644043,19.9267578 65.7758789,19.5400391 C65.9077148,19.1533203 66.1259766,18.8574219 66.4306641,18.6523438 C66.7353516,18.4472656 67.078125,18.3447266 67.4589844,18.3447266 C67.7753906,18.3447266 68.0258789,18.4091797 68.2104492,18.5380859 C68.3950195,18.6669922 68.53125,18.8632812 68.6191406,19.1269531 C68.7070312,19.390625 68.7509766,19.9765625 68.7509766,20.8847656 L68.7509766,26 L71.2207031,26 L71.2207031,21.5175781 C71.2207031,20.6386719 71.2880859,19.9956055 71.4228516,19.5883789 C71.5576172,19.1811523 71.7773438,18.8720703 72.0820312,18.6611328 C72.3867188,18.4501953 72.7119141,18.3447266 73.0576172,18.3447266 C73.5322266,18.3447266 73.8837891,18.5205078 74.1123047,18.8720703 C74.2822266,19.1416016 74.3671875,19.7392578 74.3671875,20.6650391 L74.3671875,20.6650391 L74.3671875,26 L76.8369141,26 L76.8369141,20.0322266 C76.8369141,19.1416016 76.7519531,18.4970703 76.5820312,18.0986328 C76.3476562,17.5595703 75.9931641,17.1508789 75.5185547,16.8725586 C75.0439453,16.5942383 74.4638672,16.4550781 73.7783203,16.4550781 C73.2392578,16.4550781 72.7324219,16.578125 72.2578125,16.8242188 C71.7832031,17.0703125 71.3408203,17.4423828 70.9306641,17.9404297 C70.6494141,17.4423828 70.2890625,17.0703125 69.8496094,16.8242188 C69.4101562,16.578125 68.8916016,16.4550781 68.2939453,16.4550781 C67.1689453,16.4550781 66.1992188,16.9501953 65.3847656,17.9404297 L65.3847656,17.9404297 L65.3847656,16.6660156 L63.1083984,16.6660156 L63.1083984,26 L65.578125,26 Z M81.6972656,29.5507812 L81.6972656,24.8486328 C82.1601562,25.3466797 82.6010742,25.6982422 83.0200195,25.9033203 C83.4389648,26.1083984 83.90625,26.2109375 84.421875,26.2109375 C85.5058594,26.2109375 86.4287109,25.7788086 87.1904297,24.9145508 C87.9521484,24.050293 88.3330078,22.8388672 88.3330078,21.2802734 C88.3330078,19.7626953 87.9550781,18.5791016 87.1992188,17.7294922 C86.4433594,16.8798828 85.5234375,16.4550781 84.4394531,16.4550781 C83.8183594,16.4550781 83.2529297,16.6015625 82.7431641,16.8945312 C82.2333984,17.1875 81.8291016,17.5683594 81.5302734,18.0371094 L81.5302734,18.0371094 L81.5302734,16.6660156 L79.2275391,16.6660156 L79.2275391,29.5507812 L81.6972656,29.5507812 Z M83.8154297,24.2509766 C83.2177734,24.2509766 82.7109375,24.0004883 82.2949219,23.4995117 C81.8789062,22.9985352 81.6708984,22.2236328 81.6708984,21.1748047 C81.6708984,20.2607422 81.8701172,19.5708008 82.2685547,19.1049805 C82.6669922,18.6391602 83.1679688,18.40625 83.7714844,18.40625 C84.3515625,18.40625 84.8378906,18.6435547 85.2304688,19.1181641 C85.6230469,19.5927734 85.8193359,20.3193359 85.8193359,21.2978516 C85.8193359,22.3466797 85.6289062,23.1010742 85.2480469,23.5610352 C84.8671875,24.0209961 84.3896484,24.2509766 83.8154297,24.2509766 Z M94.546875,26.2109375 C95.9296875,26.2109375 97.0766602,25.746582 97.987793,24.8178711 C98.8989258,23.8891602 99.3544922,22.71875 99.3544922,21.3066406 C99.3544922,19.90625 98.9033203,18.7475586 98.0009766,17.8305664 C97.0986328,16.9135742 95.9414062,16.4550781 94.5292969,16.4550781 C93.6152344,16.4550781 92.7875977,16.6572266 92.0463867,17.0615234 C91.3051758,17.4658203 90.7324219,18.0517578 90.328125,18.8193359 C89.9238281,19.5869141 89.7216797,20.3808594 89.7216797,21.2011719 C89.7216797,22.2734375 89.9238281,23.1831055 90.328125,23.9301758 C90.7324219,24.6772461 91.3227539,25.2441406 92.0991211,25.6308594 C92.8754883,26.0175781 93.6914062,26.2109375 94.546875,26.2109375 Z M94.5380859,24.1982422 C93.8935547,24.1982422 93.3515625,23.9521484 92.9121094,23.4599609 C92.4726562,22.9677734 92.2529297,22.2587891 92.2529297,21.3330078 C92.2529297,20.4072266 92.4726562,19.6982422 92.9121094,19.2060547 C93.3515625,18.7138672 93.8935547,18.4677734 94.5380859,18.4677734 C95.1826172,18.4677734 95.7231445,18.7138672 96.159668,19.2060547 C96.5961914,19.6982422 96.8144531,20.4013672 96.8144531,21.3154297 C96.8144531,22.2529297 96.5961914,22.9677734 96.159668,23.4599609 C95.7231445,23.9521484 95.1826172,24.1982422 94.5380859,24.1982422 Z M103.652344,26 L103.652344,23.1171875 C103.652344,21.5292969 103.721191,20.4863281 103.858887,19.9882812 C103.996582,19.4902344 104.185547,19.1459961 104.425781,18.9555664 C104.666016,18.7651367 104.958984,18.6699219 105.304688,18.6699219 C105.662109,18.6699219 106.048828,18.8046875 106.464844,19.0742188 L106.464844,19.0742188 L107.229492,16.9208984 C106.708008,16.6103516 106.166016,16.4550781 105.603516,16.4550781 C105.205078,16.4550781 104.849121,16.5546875 104.535645,16.7539062 C104.222168,16.953125 103.869141,17.3662109 103.476562,17.9931641 L103.476562,17.9931641 L103.476562,16.6660156 L101.182617,16.6660156 L101.182617,26 L103.652344,26 Z M110.824219,26.2109375 C111.550781,26.2109375 112.201172,26.0878906 112.775391,25.8417969 L112.775391,25.8417969 L112.564453,23.9257812 C112.130859,24.0839844 111.799805,24.1630859 111.571289,24.1630859 C111.407227,24.1630859 111.268066,24.1220703 111.153809,24.0400391 C111.039551,23.9580078 110.966309,23.8540039 110.934082,23.7280273 C110.901855,23.6020508 110.885742,23.1582031 110.885742,22.3964844 L110.885742,22.3964844 L110.885742,18.6347656 L112.573242,18.6347656 L112.573242,16.6660156 L110.885742,16.6660156 L110.885742,13.3701172 L108.407227,14.8115234 L108.407227,16.6660156 L107.273438,16.6660156 L107.273438,18.6347656 L108.407227,18.6347656 L108.40788,22.9349416 C108.412239,23.680196 108.438388,24.1833274 108.486328,24.4443359 C108.550781,24.8486328 108.666504,25.1694336 108.833496,25.4067383 C109.000488,25.644043 109.262695,25.8374023 109.620117,25.9868164 C109.977539,26.1362305 110.378906,26.2109375 110.824219,26.2109375 Z M121.740234,26.2109375 C122.285156,26.2109375 122.797852,26.1083984 123.27832,25.9033203 C123.758789,25.6982422 124.209961,25.390625 124.631836,24.9804688 C124.649414,25.0273438 124.678711,25.1240234 124.719727,25.2705078 C124.813477,25.5927734 124.892578,25.8359375 124.957031,26 L124.957031,26 L127.400391,26 C127.183594,25.5546875 127.035645,25.137207 126.956543,24.7475586 C126.877441,24.3579102 126.837891,23.7529297 126.837891,22.9326172 L126.837891,22.9326172 L126.864258,20.0498047 C126.864258,18.9775391 126.754395,18.2407227 126.534668,17.8393555 C126.314941,17.4379883 125.935547,17.1069336 125.396484,16.8461914 C124.857422,16.5854492 124.037109,16.4550781 122.935547,16.4550781 C121.722656,16.4550781 120.808594,16.671875 120.193359,17.1054688 C119.578125,17.5390625 119.144531,18.2070312 118.892578,19.109375 L118.892578,19.109375 L121.133789,19.5136719 C121.286133,19.0800781 121.485352,18.7768555 121.731445,18.6040039 C121.977539,18.4311523 122.320312,18.3447266 122.759766,18.3447266 C123.410156,18.3447266 123.852539,18.4458008 124.086914,18.6479492 C124.321289,18.8500977 124.438477,19.1884766 124.438477,19.6630859 L124.438477,19.6630859 L124.438477,19.9091797 C123.993164,20.0966797 123.193359,20.2988281 122.039062,20.515625 C121.183594,20.6796875 120.528809,20.871582 120.074707,21.0913086 C119.620605,21.3110352 119.267578,21.6274414 119.015625,22.0405273 C118.763672,22.4536133 118.637695,22.9238281 118.637695,23.4511719 C118.637695,24.2480469 118.914551,24.9072266 119.468262,25.4287109 C120.021973,25.9501953 120.779297,26.2109375 121.740234,26.2109375 Z M122.478516,24.4707031 C122.080078,24.4707031 121.751953,24.3447266 121.494141,24.0927734 C121.236328,23.8408203 121.107422,23.5419922 121.107422,23.1962891 C121.107422,22.8447266 121.268555,22.5546875 121.59082,22.3261719 C121.801758,22.1855469 122.25,22.0419922 122.935547,21.8955078 C123.621094,21.7490234 124.12207,21.6230469 124.438477,21.5175781 L124.438477,21.5175781 L124.438477,22.0097656 C124.438477,22.6015625 124.40625,23.0029297 124.341797,23.2138672 C124.248047,23.5361328 124.051758,23.8085938 123.75293,24.03125 C123.348633,24.3242188 122.923828,24.4707031 122.478516,24.4707031 Z M136.699219,29.5507812 L136.699219,24.8486328 C137.162109,25.3466797 137.603027,25.6982422 138.021973,25.9033203 C138.440918,26.1083984 138.908203,26.2109375 139.423828,26.2109375 C140.507812,26.2109375 141.430664,25.7788086 142.192383,24.9145508 C142.954102,24.050293 143.334961,22.8388672 143.334961,21.2802734 C143.334961,19.7626953 142.957031,18.5791016 142.201172,17.7294922 C141.445312,16.8798828 140.525391,16.4550781 139.441406,16.4550781 C138.820312,16.4550781 138.254883,16.6015625 137.745117,16.8945312 C137.235352,17.1875 136.831055,17.5683594 136.532227,18.0371094 L136.532227,18.0371094 L136.532227,16.6660156 L134.229492,16.6660156 L134.229492,29.5507812 L136.699219,29.5507812 Z M138.817383,24.2509766 C138.219727,24.2509766 137.712891,24.0004883 137.296875,23.4995117 C136.880859,22.9985352 136.672852,22.2236328 136.672852,21.1748047 C136.672852,20.2607422 136.87207,19.5708008 137.270508,19.1049805 C137.668945,18.6391602 138.169922,18.40625 138.773438,18.40625 C139.353516,18.40625 139.839844,18.6435547 140.232422,19.1181641 C140.625,19.5927734 140.821289,20.3193359 140.821289,21.2978516 C140.821289,22.3466797 140.630859,23.1010742 140.25,23.5610352 C139.869141,24.0209961 139.391602,24.2509766 138.817383,24.2509766 Z M147.65918,26 L147.65918,23.1171875 C147.65918,21.5292969 147.728027,20.4863281 147.865723,19.9882812 C148.003418,19.4902344 148.192383,19.1459961 148.432617,18.9555664 C148.672852,18.7651367 148.96582,18.6699219 149.311523,18.6699219 C149.668945,18.6699219 150.055664,18.8046875 150.47168,19.0742188 L150.47168,19.0742188 L151.236328,16.9208984 C150.714844,16.6103516 150.172852,16.4550781 149.610352,16.4550781 C149.211914,16.4550781 148.855957,16.5546875 148.54248,16.7539062 C148.229004,16.953125 147.875977,17.3662109 147.483398,17.9931641 L147.483398,17.9931641 L147.483398,16.6660156 L145.189453,16.6660156 L145.189453,26 L147.65918,26 Z M156.105469,26.2109375 C157.130859,26.2109375 157.984863,25.9750977 158.66748,25.503418 C159.350098,25.0317383 159.849609,24.3447266 160.166016,23.4423828 L160.166016,23.4423828 L157.705078,23.0292969 C157.570312,23.4980469 157.371094,23.8378906 157.107422,24.0488281 C156.84375,24.2597656 156.518555,24.3652344 156.131836,24.3652344 C155.563477,24.3652344 155.088867,24.1616211 154.708008,23.7543945 C154.327148,23.347168 154.12793,22.7773438 154.110352,22.0449219 L154.110352,22.0449219 L160.297852,22.0449219 C160.333008,20.1523438 159.949219,18.7475586 159.146484,17.8305664 C158.34375,16.9135742 157.248047,16.4550781 155.859375,16.4550781 C154.623047,16.4550781 153.600586,16.8930664 152.791992,17.769043 C151.983398,18.6450195 151.579102,19.8564453 151.579102,21.4033203 C151.579102,22.6982422 151.886719,23.7705078 152.501953,24.6201172 C153.28125,25.6806641 154.482422,26.2109375 156.105469,26.2109375 Z M157.845703,20.5332031 L154.154297,20.5332031 C154.148438,19.859375 154.321289,19.3261719 154.672852,18.9335938 C155.024414,18.5410156 155.469727,18.3447266 156.008789,18.3447266 C156.512695,18.3447266 156.94043,18.5307617 157.291992,18.902832 C157.643555,19.2749023 157.828125,19.8183594 157.845703,20.5332031 L157.845703,20.5332031 Z M165.914062,26.2109375 C167.314453,26.2109375 168.37207,25.9033203 169.086914,25.2880859 C169.801758,24.6728516 170.15918,23.9375 170.15918,23.0820312 C170.15918,22.296875 169.901367,21.6845703 169.385742,21.2451172 C168.864258,20.8115234 167.945801,20.4453125 166.630371,20.1464844 C165.314941,19.8476562 164.545898,19.6162109 164.323242,19.4521484 C164.15918,19.3291016 164.077148,19.1796875 164.077148,19.0039062 C164.077148,18.7988281 164.170898,18.6318359 164.358398,18.5029297 C164.639648,18.3212891 165.105469,18.2304688 165.755859,18.2304688 C166.271484,18.2304688 166.668457,18.3271484 166.946777,18.5205078 C167.225098,18.7138672 167.414062,18.9921875 167.513672,19.3554688 L167.513672,19.3554688 L169.842773,18.9248047 C169.608398,18.1103516 169.180664,17.4951172 168.55957,17.0791016 C167.938477,16.6630859 166.989258,16.4550781 165.711914,16.4550781 C164.370117,16.4550781 163.379883,16.7304688 162.741211,17.28125 C162.102539,17.8320312 161.783203,18.5117188 161.783203,19.3203125 C161.783203,20.2167969 162.152344,20.9169922 162.890625,21.4208984 C163.423828,21.7841797 164.686523,22.1855469 166.678711,22.625 C167.106445,22.7246094 167.381836,22.8330078 167.504883,22.9501953 C167.62207,23.0732422 167.680664,23.2285156 167.680664,23.4160156 C167.680664,23.6914062 167.572266,23.9111328 167.355469,24.0751953 C167.033203,24.3095703 166.552734,24.4267578 165.914062,24.4267578 C165.333984,24.4267578 164.882812,24.3022461 164.560547,24.0532227 C164.238281,23.8041992 164.024414,23.4394531 163.918945,22.9589844 L163.918945,22.9589844 L161.44043,23.3369141 C161.668945,24.2216797 162.153809,24.921875 162.89502,25.4375 C163.63623,25.953125 164.642578,26.2109375 165.914062,26.2109375 Z M176.126953,26.2109375 C177.152344,26.2109375 178.006348,25.9750977 178.688965,25.503418 C179.371582,25.0317383 179.871094,24.3447266 180.1875,23.4423828 L180.1875,23.4423828 L177.726562,23.0292969 C177.591797,23.4980469 177.392578,23.8378906 177.128906,24.0488281 C176.865234,24.2597656 176.540039,24.3652344 176.15332,24.3652344 C175.584961,24.3652344 175.110352,24.1616211 174.729492,23.7543945 C174.348633,23.347168 174.149414,22.7773438 174.131836,22.0449219 L174.131836,22.0449219 L180.319336,22.0449219 C180.354492,20.1523438 179.970703,18.7475586 179.167969,17.8305664 C178.365234,16.9135742 177.269531,16.4550781 175.880859,16.4550781 C174.644531,16.4550781 173.62207,16.8930664 172.813477,17.769043 C172.004883,18.6450195 171.600586,19.8564453 171.600586,21.4033203 C171.600586,22.6982422 171.908203,23.7705078 172.523438,24.6201172 C173.302734,25.6806641 174.503906,26.2109375 176.126953,26.2109375 Z M177.867188,20.5332031 L174.175781,20.5332031 C174.169922,19.859375 174.342773,19.3261719 174.694336,18.9335938 C175.045898,18.5410156 175.491211,18.3447266 176.030273,18.3447266 C176.53418,18.3447266 176.961914,18.5307617 177.313477,18.902832 C177.665039,19.2749023 177.849609,19.8183594 177.867188,20.5332031 L177.867188,20.5332031 Z M184.863281,26.2109375 C185.589844,26.2109375 186.240234,26.0878906 186.814453,25.8417969 L186.814453,25.8417969 L186.603516,23.9257812 C186.169922,24.0839844 185.838867,24.1630859 185.610352,24.1630859 C185.446289,24.1630859 185.307129,24.1220703 185.192871,24.0400391 C185.078613,23.9580078 185.005371,23.8540039 184.973145,23.7280273 C184.940918,23.6020508 184.924805,23.1582031 184.924805,22.3964844 L184.924805,22.3964844 L184.924805,18.6347656 L186.612305,18.6347656 L186.612305,16.6660156 L184.924805,16.6660156 L184.924805,13.3701172 L182.446289,14.8115234 L182.446289,16.6660156 L181.3125,16.6660156 L181.3125,18.6347656 L182.446289,18.6347656 L182.446943,22.9349416 C182.451301,23.680196 182.47745,24.1833274 182.525391,24.4443359 C182.589844,24.8486328 182.705566,25.1694336 182.872559,25.4067383 C183.039551,25.644043 183.301758,25.8374023 183.65918,25.9868164 C184.016602,26.1362305 184.417969,26.2109375 184.863281,26.2109375 Z M196.086914,26 L196.086914,18.6083984 L197.932617,18.6083984 L197.932617,16.6660156 L196.086914,16.6660156 L196.086914,16.0068359 C196.086914,15.5322266 196.164551,15.2114258 196.319824,15.0444336 C196.475098,14.8774414 196.731445,14.7939453 197.088867,14.7939453 C197.452148,14.7939453 197.830078,14.8408203 198.222656,14.9345703 L198.222656,14.9345703 L198.556641,13.2119141 C197.882812,13.0009766 197.194336,12.8955078 196.491211,12.8955078 C195.805664,12.8955078 195.23877,13.0170898 194.790527,13.2602539 C194.342285,13.503418 194.034668,13.8183594 193.867676,14.2050781 C193.700684,14.5917969 193.617188,15.1777344 193.617188,15.9628906 L193.617188,15.9628906 L193.617188,16.6660156 L192.246094,16.6660156 L192.246094,18.6083984 L193.617188,18.6083984 L193.617188,26 L196.086914,26 Z M201.791016,15.4003906 L201.791016,13.1152344 L199.321289,13.1152344 L199.321289,15.4003906 L201.791016,15.4003906 Z M201.791016,26 L201.791016,16.6660156 L199.321289,16.6660156 L199.321289,26 L201.791016,26 Z M206.791992,26 L206.791992,13.1152344 L204.322266,13.1152344 L204.322266,26 L206.791992,26 Z M213.128906,26.2109375 C214.154297,26.2109375 215.008301,25.9750977 215.690918,25.503418 C216.373535,25.0317383 216.873047,24.3447266 217.189453,23.4423828 L217.189453,23.4423828 L214.728516,23.0292969 C214.59375,23.4980469 214.394531,23.8378906 214.130859,24.0488281 C213.867188,24.2597656 213.541992,24.3652344 213.155273,24.3652344 C212.586914,24.3652344 212.112305,24.1616211 211.731445,23.7543945 C211.350586,23.347168 211.151367,22.7773438 211.133789,22.0449219 L211.133789,22.0449219 L217.321289,22.0449219 C217.356445,20.1523438 216.972656,18.7475586 216.169922,17.8305664 C215.367188,16.9135742 214.271484,16.4550781 212.882812,16.4550781 C211.646484,16.4550781 210.624023,16.8930664 209.81543,17.769043 C209.006836,18.6450195 208.602539,19.8564453 208.602539,21.4033203 C208.602539,22.6982422 208.910156,23.7705078 209.525391,24.6201172 C210.304688,25.6806641 211.505859,26.2109375 213.128906,26.2109375 Z M214.869141,20.5332031 L211.177734,20.5332031 C211.171875,19.859375 211.344727,19.3261719 211.696289,18.9335938 C212.047852,18.5410156 212.493164,18.3447266 213.032227,18.3447266 C213.536133,18.3447266 213.963867,18.5307617 214.31543,18.902832 C214.666992,19.2749023 214.851562,19.8183594 214.869141,20.5332031 L214.869141,20.5332031 Z M224.835938,26.2197266 L228.061523,12.8955078 L226.207031,12.8955078 L223.016602,26.2197266 L224.835938,26.2197266 Z M237.09668,26 L237.09668,18.6083984 L238.942383,18.6083984 L238.942383,16.6660156 L237.09668,16.6660156 L237.09668,16.0068359 C237.09668,15.5322266 237.174316,15.2114258 237.32959,15.0444336 C237.484863,14.8774414 237.741211,14.7939453 238.098633,14.7939453 C238.461914,14.7939453 238.839844,14.8408203 239.232422,14.9345703 L239.232422,14.9345703 L239.566406,13.2119141 C238.892578,13.0009766 238.204102,12.8955078 237.500977,12.8955078 C236.81543,12.8955078 236.248535,13.0170898 235.800293,13.2602539 C235.352051,13.503418 235.044434,13.8183594 234.877441,14.2050781 C234.710449,14.5917969 234.626953,15.1777344 234.626953,15.9628906 L234.626953,15.9628906 L234.626953,16.6660156 L233.255859,16.6660156 L233.255859,18.6083984 L234.626953,18.6083984 L234.626953,26 L237.09668,26 Z M242.800781,15.4003906 L242.800781,13.1152344 L240.331055,13.1152344 L240.331055,15.4003906 L242.800781,15.4003906 Z M242.800781,26 L242.800781,16.6660156 L240.331055,16.6660156 L240.331055,26 L242.800781,26 Z M247.801758,26 L247.801758,13.1152344 L245.332031,13.1152344 L245.332031,26 L247.801758,26 Z M254.138672,26.2109375 C255.164062,26.2109375 256.018066,25.9750977 256.700684,25.503418 C257.383301,25.0317383 257.882812,24.3447266 258.199219,23.4423828 L258.199219,23.4423828 L255.738281,23.0292969 C255.603516,23.4980469 255.404297,23.8378906 255.140625,24.0488281 C254.876953,24.2597656 254.551758,24.3652344 254.165039,24.3652344 C253.59668,24.3652344 253.12207,24.1616211 252.741211,23.7543945 C252.360352,23.347168 252.161133,22.7773438 252.143555,22.0449219 L252.143555,22.0449219 L258.331055,22.0449219 C258.366211,20.1523438 257.982422,18.7475586 257.179688,17.8305664 C256.376953,16.9135742 255.28125,16.4550781 253.892578,16.4550781 C252.65625,16.4550781 251.633789,16.8930664 250.825195,17.769043 C250.016602,18.6450195 249.612305,19.8564453 249.612305,21.4033203 C249.612305,22.6982422 249.919922,23.7705078 250.535156,24.6201172 C251.314453,25.6806641 252.515625,26.2109375 254.138672,26.2109375 Z M255.878906,20.5332031 L252.1875,20.5332031 C252.181641,19.859375 252.354492,19.3261719 252.706055,18.9335938 C253.057617,18.5410156 253.50293,18.3447266 254.041992,18.3447266 C254.545898,18.3447266 254.973633,18.5307617 255.325195,18.902832 C255.676758,19.2749023 255.861328,19.8183594 255.878906,20.5332031 L255.878906,20.5332031 Z M263.947266,26.2109375 C265.347656,26.2109375 266.405273,25.9033203 267.120117,25.2880859 C267.834961,24.6728516 268.192383,23.9375 268.192383,23.0820312 C268.192383,22.296875 267.93457,21.6845703 267.418945,21.2451172 C266.897461,20.8115234 265.979004,20.4453125 264.663574,20.1464844 C263.348145,19.8476562 262.579102,19.6162109 262.356445,19.4521484 C262.192383,19.3291016 262.110352,19.1796875 262.110352,19.0039062 C262.110352,18.7988281 262.204102,18.6318359 262.391602,18.5029297 C262.672852,18.3212891 263.138672,18.2304688 263.789062,18.2304688 C264.304688,18.2304688 264.70166,18.3271484 264.97998,18.5205078 C265.258301,18.7138672 265.447266,18.9921875 265.546875,19.3554688 L265.546875,19.3554688 L267.875977,18.9248047 C267.641602,18.1103516 267.213867,17.4951172 266.592773,17.0791016 C265.97168,16.6630859 265.022461,16.4550781 263.745117,16.4550781 C262.40332,16.4550781 261.413086,16.7304688 260.774414,17.28125 C260.135742,17.8320312 259.816406,18.5117188 259.816406,19.3203125 C259.816406,20.2167969 260.185547,20.9169922 260.923828,21.4208984 C261.457031,21.7841797 262.719727,22.1855469 264.711914,22.625 C265.139648,22.7246094 265.415039,22.8330078 265.538086,22.9501953 C265.655273,23.0732422 265.713867,23.2285156 265.713867,23.4160156 C265.713867,23.6914062 265.605469,23.9111328 265.388672,24.0751953 C265.066406,24.3095703 264.585938,24.4267578 263.947266,24.4267578 C263.367188,24.4267578 262.916016,24.3022461 262.59375,24.0532227 C262.271484,23.8041992 262.057617,23.4394531 261.952148,22.9589844 L261.952148,22.9589844 L259.473633,23.3369141 C259.702148,24.2216797 260.187012,24.921875 260.928223,25.4375 C261.669434,25.953125 262.675781,26.2109375 263.947266,26.2109375 Z"></path>
            <path fill="#00A8E8" fill-rule="nonzero" d="M29,11 L29,13.2222222 L21.2222222,13.2222222 L21.2222222,28.7777778 L36.7777778,28.7777778 L36.7777778,21 L39,21 L39,29.1481481 C39,30.1708977 38.1708977,31 37.1481481,31 L37.1481481,31 L20.8518519,31 C19.8291023,31 19,30.1708977 19,29.1481481 L19,29.1481481 L19,12.8518519 C19,11.8291023 19.8291023,11 20.8518519,11 L20.8518519,11 L29,11 Z M37.3902809,11 L39,12.6097191 L27.8876234,23.7220957 L31.9726651,23.7220957 L31.9726651,26 L24,26 L24,18.0273349 L26.2779043,18.0273349 L26.2779043,22.1123766 L37.3902809,11 Z"></path>
        </g>
    </g>
</svg>
