<?xml version="1.0" encoding="UTF-8"?>
<svg width="300px" height="50px" viewBox="0 0 300 50" version="1.1" xmlns="http://www.w3.org/2000/svg" xmlns:xlink="http://www.w3.org/1999/xlink">
    <title>Import</title>
    <g stroke="none" stroke-width="1" fill="none" fill-rule="evenodd">
        <g id="Import">
            <rect fill="#FFFFFF" x="0" y="0" width="300" height="50"></rect>
            <path stroke="#DBDBDB" stroke-linecap="square" d="M1,49.5 L299,49.5"></path>
            <path fill="#424242" fill-rule="nonzero" d="M58.2919922,19.4003906 L58.2919922,17.1152344 L60.7617188,17.1152344 L60.7617188,19.4003906 L58.2919922,19.4003906 Z M58.2919922,30 L58.2919922,20.6660156 L60.7617188,20.6660156 L60.7617188,30 L58.2919922,30 Z M63.1083984,20.6660156 L65.3847656,20.6660156 L65.3847656,21.9404297 C66.1992228,20.9501904 67.1689397,20.4550781 68.2939453,20.4550781 C68.8916046,20.4550781 69.4101541,20.5781238 69.8496094,20.8242188 C70.2890647,21.0703137 70.6494127,21.4423803 70.9306641,21.9404297 C71.3408224,21.4423803 71.7832008,21.0703137 72.2578125,20.8242188 C72.7324242,20.5781238 73.2392551,20.4550781 73.7783203,20.4550781 C74.4638706,20.4550781 75.0439429,20.5942369 75.5185547,20.8725586 C75.9931664,21.1508803 76.3476551,21.5595676 76.5820312,22.0986328 C76.751954,22.4970723 76.8369141,23.1415971 76.8369141,24.0322266 L76.8369141,30 L74.3671875,30 L74.3671875,24.6650391 C74.3671875,23.7392532 74.2822274,23.1416029 74.1123047,22.8720703 C73.8837879,22.5205061 73.5322289,22.3447266 73.0576172,22.3447266 C72.7119123,22.3447266 72.3867203,22.4501943 72.0820312,22.6611328 C71.7773422,22.8720714 71.5576179,23.1811503 71.4228516,23.5883789 C71.2880853,23.9956075 71.2207031,24.6386675 71.2207031,25.5175781 L71.2207031,30 L68.7509766,30 L68.7509766,24.8847656 C68.7509766,23.976558 68.7070317,23.3906263 68.6191406,23.1269531 C68.5312496,22.8632799 68.3950205,22.6669928 68.2104492,22.5380859 C68.025878,22.409179 67.7753922,22.3447266 67.4589844,22.3447266 C67.0781231,22.3447266 66.7353531,22.4472646 66.4306641,22.6523438 C66.125975,22.8574229 65.9077155,23.1533184 65.7758789,23.5400391 C65.6440423,23.9267597 65.578125,24.5683549 65.578125,25.4648438 L65.578125,30 L63.1083984,30 L63.1083984,20.6660156 Z M79.2275391,20.6660156 L81.5302734,20.6660156 L81.5302734,22.0371094 C81.8291031,21.568357 82.2333959,21.1875015 82.7431641,20.8945312 C83.2529322,20.601561 83.8183563,20.4550781 84.4394531,20.4550781 C85.5234429,20.4550781 86.4433556,20.8798786 87.1992188,21.7294922 C87.9550819,22.5791058 88.3330078,23.7626877 88.3330078,25.2802734 C88.3330078,26.838875 87.9521522,28.0502886 87.1904297,28.9145508 C86.4287071,29.7788129 85.5058648,30.2109375 84.421875,30.2109375 C83.9062474,30.2109375 83.4389669,30.1083995 83.0200195,29.9033203 C82.6010721,29.6982412 82.1601586,29.3466822 81.6972656,28.8486328 L81.6972656,33.5507812 L79.2275391,33.5507812 L79.2275391,20.6660156 Z M81.6708984,25.1748047 C81.6708984,26.2236381 81.8789042,26.9985327 82.2949219,27.4995117 C82.7109396,28.0004908 83.2177704,28.2509766 83.8154297,28.2509766 C84.3896513,28.2509766 84.8671856,28.0209984 85.2480469,27.5610352 C85.6289082,27.1010719 85.8193359,26.3466849 85.8193359,25.2978516 C85.8193359,24.319331 85.6230488,23.5927758 85.2304688,23.1181641 C84.8378887,22.6435523 84.3515654,22.40625 83.7714844,22.40625 C83.1679657,22.40625 82.6669942,22.6391578 82.2685547,23.1049805 C81.8701152,23.5708031 81.6708984,24.2607376 81.6708984,25.1748047 Z M89.7216797,25.2011719 C89.7216797,24.3808553 89.9238261,23.5869179 90.328125,22.8193359 C90.7324239,22.051754 91.3051721,21.4658223 92.0463867,21.0615234 C92.7876014,20.6572245 93.6152298,20.4550781 94.5292969,20.4550781 C95.9414133,20.4550781 97.0986283,20.9135696 98.0009766,21.8305664 C98.9033248,22.7475632 99.3544922,23.906243 99.3544922,25.3066406 C99.3544922,26.7187571 98.8989303,27.8891555 97.987793,28.8178711 C97.0766556,29.7465867 95.9296944,30.2109375 94.546875,30.2109375 C93.691402,30.2109375 92.8754922,30.0175801 92.0991211,29.6308594 C91.32275,29.2441387 90.7324239,28.6772498 90.328125,27.9301758 C89.9238261,27.1831017 89.7216797,26.2734429 89.7216797,25.2011719 Z M92.2529297,25.3330078 C92.2529297,26.2587937 92.4726541,26.967771 92.9121094,27.4599609 C93.3515647,27.9521509 93.8935515,28.1982422 94.5380859,28.1982422 C95.1826204,28.1982422 95.7231423,27.9521509 96.159668,27.4599609 C96.5961936,26.967771 96.8144531,26.2529344 96.8144531,25.3154297 C96.8144531,24.4013626 96.5961936,23.6982446 96.159668,23.2060547 C95.7231423,22.7138647 95.1826204,22.4677734 94.5380859,22.4677734 C93.8935515,22.4677734 93.3515647,22.7138647 92.9121094,23.2060547 C92.4726541,23.6982446 92.2529297,24.4072219 92.2529297,25.3330078 Z M103.652344,30 L101.182617,30 L101.182617,20.6660156 L103.476562,20.6660156 L103.476562,21.9931641 C103.869143,21.3662078 104.222166,20.953126 104.535645,20.7539062 C104.849123,20.5546865 105.205076,20.4550781 105.603516,20.4550781 C106.166018,20.4550781 106.708005,20.61035 107.229492,20.9208984 L106.464844,23.0742188 C106.048826,22.8046862 105.662111,22.6699219 105.304688,22.6699219 C104.958983,22.6699219 104.666017,22.7651358 104.425781,22.9555664 C104.185546,23.145997 103.996583,23.4902319 103.858887,23.9882812 C103.721191,24.4863306 103.652344,25.5292889 103.652344,27.1171875 L103.652344,30 Z M112.573242,20.6660156 L112.573242,22.6347656 L110.885742,22.6347656 L110.885742,26.3964844 C110.885742,27.1582069 110.901855,27.6020502 110.934082,27.7280273 C110.966309,27.8540045 111.03955,27.9580074 111.153809,28.0400391 C111.268067,28.1220707 111.407226,28.1630859 111.571289,28.1630859 C111.799806,28.1630859 112.130857,28.0839852 112.564453,27.9257812 L112.775391,29.8417969 C112.201169,30.0878919 111.550785,30.2109375 110.824219,30.2109375 C110.378904,30.2109375 109.977541,30.1362312 109.620117,29.9868164 C109.262694,29.8374016 109.000489,29.6440442 108.833496,29.4067383 C108.666503,29.1694324 108.550782,28.8486348 108.486328,28.4443359 C108.433593,28.1572251 108.407227,27.5771528 108.407227,26.7041016 L108.407227,22.6347656 L107.273438,22.6347656 L107.273438,20.6660156 L108.407227,20.6660156 L108.407227,18.8115234 L110.885742,17.3701172 L110.885742,20.6660156 L112.573242,20.6660156 Z M121.133789,23.5136719 L118.892578,23.109375 C119.144533,22.2070267 119.578122,21.5390647 120.193359,21.1054688 C120.808597,20.6718728 121.72265,20.4550781 122.935547,20.4550781 C124.037115,20.4550781 124.857419,20.5854479 125.396484,20.8461914 C125.93555,21.1069349 126.31494,21.4379863 126.534668,21.8393555 C126.754396,22.2407247 126.864258,22.9775337 126.864258,24.0498047 L126.837891,26.9326172 C126.837891,27.7529338 126.877441,28.3579082 126.956543,28.7475586 C127.035645,29.137209 127.183593,29.5546853 127.400391,30 L124.957031,30 C124.892578,29.8359367 124.813477,29.592775 124.719727,29.2705078 C124.678711,29.1240227 124.649414,29.027344 124.631836,28.9804688 C124.209959,29.3906271 123.758791,29.6982412 123.27832,29.9033203 C122.797849,30.1083995 122.285159,30.2109375 121.740234,30.2109375 C120.779292,30.2109375 120.021975,29.9501979 119.468262,29.4287109 C118.914548,28.907224 118.637695,28.2480509 118.637695,27.4511719 C118.637695,26.9238255 118.763671,26.4536153 119.015625,26.0405273 C119.267579,25.6274393 119.620603,25.3110363 120.074707,25.0913086 C120.528811,24.8715809 121.183589,24.6796883 122.039062,24.515625 C123.193365,24.298827 123.993162,24.0966806 124.438477,23.9091797 L124.438477,23.6630859 C124.438477,23.1884742 124.32129,22.8500987 124.086914,22.6479492 C123.852538,22.4457998 123.41016,22.3447266 122.759766,22.3447266 C122.32031,22.3447266 121.97754,22.4311515 121.731445,22.6040039 C121.48535,22.7768563 121.286134,23.080076 121.133789,23.5136719 Z M124.438477,25.5175781 C124.122069,25.6230474 123.621097,25.7490227 122.935547,25.8955078 C122.249997,26.0419929 121.801759,26.1855462 121.59082,26.3261719 C121.268553,26.5546886 121.107422,26.8447248 121.107422,27.1962891 C121.107422,27.5419939 121.236327,27.8408191 121.494141,28.0927734 C121.751954,28.3447278 122.080076,28.4707031 122.478516,28.4707031 C122.92383,28.4707031 123.348631,28.3242202 123.75293,28.03125 C124.051759,27.8085926 124.248046,27.5361344 124.341797,27.2138672 C124.40625,27.0029286 124.438477,26.6015655 124.438477,26.0097656 L124.438477,25.5175781 Z M134.229492,20.6660156 L136.532227,20.6660156 L136.532227,22.0371094 C136.831056,21.568357 137.235349,21.1875015 137.745117,20.8945312 C138.254885,20.601561 138.820309,20.4550781 139.441406,20.4550781 C140.525396,20.4550781 141.445309,20.8798786 142.201172,21.7294922 C142.957035,22.5791058 143.334961,23.7626877 143.334961,25.2802734 C143.334961,26.838875 142.954105,28.0502886 142.192383,28.9145508 C141.43066,29.7788129 140.507818,30.2109375 139.423828,30.2109375 C138.908201,30.2109375 138.44092,30.1083995 138.021973,29.9033203 C137.603025,29.6982412 137.162112,29.3466822 136.699219,28.8486328 L136.699219,33.5507812 L134.229492,33.5507812 L134.229492,20.6660156 Z M136.672852,25.1748047 C136.672852,26.2236381 136.880857,26.9985327 137.296875,27.4995117 C137.712893,28.0004908 138.219724,28.2509766 138.817383,28.2509766 C139.391604,28.2509766 139.869139,28.0209984 140.25,27.5610352 C140.630861,27.1010719 140.821289,26.3466849 140.821289,25.2978516 C140.821289,24.319331 140.625002,23.5927758 140.232422,23.1181641 C139.839842,22.6435523 139.353519,22.40625 138.773438,22.40625 C138.169919,22.40625 137.668947,22.6391578 137.270508,23.1049805 C136.872068,23.5708031 136.672852,24.2607376 136.672852,25.1748047 Z M147.65918,30 L145.189453,30 L145.189453,20.6660156 L147.483398,20.6660156 L147.483398,21.9931641 C147.875979,21.3662078 148.229002,20.953126 148.54248,20.7539062 C148.855959,20.5546865 149.211912,20.4550781 149.610352,20.4550781 C150.172854,20.4550781 150.714841,20.61035 151.236328,20.9208984 L150.47168,23.0742188 C150.055662,22.8046862 149.668947,22.6699219 149.311523,22.6699219 C148.965819,22.6699219 148.672853,22.7651358 148.432617,22.9555664 C148.192382,23.145997 148.003419,23.4902319 147.865723,23.9882812 C147.728027,24.4863306 147.65918,25.5292889 147.65918,27.1171875 L147.65918,30 Z M157.705078,27.0292969 L160.166016,27.4423828 C159.849608,28.3447311 159.350101,29.0317359 158.66748,29.503418 C157.98486,29.9751 157.130865,30.2109375 156.105469,30.2109375 C154.482414,30.2109375 153.281254,29.6806694 152.501953,28.6201172 C151.886716,27.7705036 151.579102,26.6982487 151.579102,25.4033203 C151.579102,23.8564376 151.983394,22.6450239 152.791992,21.769043 C153.60059,20.893062 154.623041,20.4550781 155.859375,20.4550781 C157.248054,20.4550781 158.343746,20.9135696 159.146484,21.8305664 C159.949223,22.7475632 160.333008,24.1523343 160.297852,26.0449219 L154.110352,26.0449219 C154.12793,26.7773474 154.327147,27.3471659 154.708008,27.7543945 C155.088869,28.1616231 155.563474,28.3652344 156.131836,28.3652344 C156.518557,28.3652344 156.843749,28.2597667 157.107422,28.0488281 C157.371095,27.8378896 157.570312,27.4980492 157.705078,27.0292969 Z M157.845703,24.5332031 C157.828125,23.8183558 157.643556,23.2749042 157.291992,22.902832 C156.940428,22.5307599 156.512698,22.3447266 156.008789,22.3447266 C155.469724,22.3447266 155.024416,22.5410137 154.672852,22.9335938 C154.321287,23.3261738 154.148437,23.8593716 154.154297,24.5332031 L157.845703,24.5332031 Z M161.44043,27.3369141 L163.918945,26.9589844 C164.024415,27.4394555 164.23828,27.804198 164.560547,28.0532227 C164.882814,28.3022473 165.333981,28.4267578 165.914062,28.4267578 C166.552738,28.4267578 167.033202,28.3095715 167.355469,28.0751953 C167.572267,27.911132 167.680664,27.6914076 167.680664,27.4160156 C167.680664,27.2285147 167.622071,27.0732428 167.504883,26.9501953 C167.381835,26.8330072 167.106447,26.7246099 166.678711,26.625 C164.686513,26.1855447 163.423831,25.7841815 162.890625,25.4208984 C162.15234,24.9169897 161.783203,24.2168014 161.783203,23.3203125 C161.783203,22.5117147 162.102536,21.832034 162.741211,21.28125 C163.379886,20.730466 164.37011,20.4550781 165.711914,20.4550781 C166.989264,20.4550781 167.938473,20.6630839 168.55957,21.0791016 C169.180667,21.4951193 169.608397,22.1103475 169.842773,22.9248047 L167.513672,23.3554688 C167.414062,22.9921857 167.225099,22.7138682 166.946777,22.5205078 C166.668456,22.3271475 166.271487,22.2304688 165.755859,22.2304688 C165.105465,22.2304688 164.63965,22.3212882 164.358398,22.5029297 C164.170897,22.6318366 164.077148,22.7988271 164.077148,23.0039062 C164.077148,23.1796884 164.159179,23.3291009 164.323242,23.4521484 C164.5459,23.6162118 165.314935,23.8476548 166.630371,24.1464844 C167.945807,24.445314 168.864255,24.8115213 169.385742,25.2451172 C169.90137,25.6845725 170.15918,26.2968711 170.15918,27.0820312 C170.15918,27.9375043 169.801761,28.6728485 169.086914,29.2880859 C168.372067,29.9033234 167.31446,30.2109375 165.914062,30.2109375 C164.642572,30.2109375 163.636234,29.9531276 162.89502,29.4375 C162.153805,28.9218724 161.668946,28.2216841 161.44043,27.3369141 Z M177.726562,27.0292969 L180.1875,27.4423828 C179.871092,28.3447311 179.371585,29.0317359 178.688965,29.503418 C178.006344,29.9751 177.152349,30.2109375 176.126953,30.2109375 C174.503898,30.2109375 173.302738,29.6806694 172.523438,28.6201172 C171.9082,27.7705036 171.600586,26.6982487 171.600586,25.4033203 C171.600586,23.8564376 172.004879,22.6450239 172.813477,21.769043 C173.622074,20.893062 174.644525,20.4550781 175.880859,20.4550781 C177.269538,20.4550781 178.36523,20.9135696 179.167969,21.8305664 C179.970707,22.7475632 180.354492,24.1523343 180.319336,26.0449219 L174.131836,26.0449219 C174.149414,26.7773474 174.348631,27.3471659 174.729492,27.7543945 C175.110353,28.1616231 175.584958,28.3652344 176.15332,28.3652344 C176.540041,28.3652344 176.865233,28.2597667 177.128906,28.0488281 C177.392579,27.8378896 177.591796,27.4980492 177.726562,27.0292969 Z M177.867188,24.5332031 C177.849609,23.8183558 177.665041,23.2749042 177.313477,22.902832 C176.961912,22.5307599 176.534182,22.3447266 176.030273,22.3447266 C175.491208,22.3447266 175.0459,22.5410137 174.694336,22.9335938 C174.342772,23.3261738 174.169922,23.8593716 174.175781,24.5332031 L177.867188,24.5332031 Z M186.612305,20.6660156 L186.612305,22.6347656 L184.924805,22.6347656 L184.924805,26.3964844 C184.924805,27.1582069 184.940918,27.6020502 184.973145,27.7280273 C185.005371,27.8540045 185.078613,27.9580074 185.192871,28.0400391 C185.307129,28.1220707 185.446288,28.1630859 185.610352,28.1630859 C185.838868,28.1630859 186.16992,28.0839852 186.603516,27.9257812 L186.814453,29.8417969 C186.240232,30.0878919 185.589847,30.2109375 184.863281,30.2109375 C184.417967,30.2109375 184.016603,30.1362312 183.65918,29.9868164 C183.301756,29.8374016 183.039552,29.6440442 182.872559,29.4067383 C182.705566,29.1694324 182.589844,28.8486348 182.525391,28.4443359 C182.472656,28.1572251 182.446289,27.5771528 182.446289,26.7041016 L182.446289,22.6347656 L181.3125,22.6347656 L181.3125,20.6660156 L182.446289,20.6660156 L182.446289,18.8115234 L184.924805,17.3701172 L184.924805,20.6660156 L186.612305,20.6660156 Z"></path>
            <path fill="#00A8E8" fill-rule="nonzero" d="M26.2779043,26.1123766 L37.3902809,15 L39,16.6097191 L27.8876234,27.7220957 L31.9726651,27.7220957 L31.9726651,30 L26.2779043,30 L24,30 L24,27.7220957 L24,22.0273349 L26.2779043,22.0273349 L26.2779043,26.1123766 Z M36.7777778,32.7777778 L36.7777778,25 L39,25 L39,33.1481481 C39,34.1708977 38.1708977,35 37.1481481,35 L20.8518519,35 C19.8291023,35 19,34.1708977 19,33.1481481 L19,16.8518519 C19,15.8291023 19.8291023,15 20.8518519,15 L29,15 L29,17.2222222 L21.2222222,17.2222222 L21.2222222,32.7777778 L36.7777778,32.7777778 Z"></path>
        </g>
    </g>
</svg>
