<?xml version="1.0" encoding="UTF-8"?>
<svg width="300px" height="50px" viewBox="0 0 300 50" version="1.1" xmlns="http://www.w3.org/2000/svg" xmlns:xlink="http://www.w3.org/1999/xlink">
    <title>Import</title>
    <g stroke="none" stroke-width="1" fill="none" fill-rule="evenodd">
        <g id="Import">
            <rect fill="#FFFFFF" x="0" y="0" width="300" height="50"></rect>
            <path stroke="#DBDBDB" stroke-linecap="square" d="M1,49.5 L299,49.5"></path>
            <path fill="#424242" fill-rule="nonzero" d="M60.7617188,19.4003906 L60.7617188,17.1152344 L58.2919922,17.1152344 L58.2919922,19.4003906 L60.7617188,19.4003906 Z M60.7617188,30 L60.7617188,20.6660156 L58.2919922,20.6660156 L58.2919922,30 L60.7617188,30 Z M65.578125,30 L65.578125,25.4648438 C65.578125,24.5683594 65.644043,23.9267578 65.7758789,23.5400391 C65.9077148,23.1533203 66.1259766,22.8574219 66.4306641,22.6523438 C66.7353516,22.4472656 67.078125,22.3447266 67.4589844,22.3447266 C67.7753906,22.3447266 68.0258789,22.4091797 68.2104492,22.5380859 C68.3950195,22.6669922 68.53125,22.8632812 68.6191406,23.1269531 C68.7070312,23.390625 68.7509766,23.9765625 68.7509766,24.8847656 L68.7509766,30 L71.2207031,30 L71.2207031,25.5175781 C71.2207031,24.6386719 71.2880859,23.9956055 71.4228516,23.5883789 C71.5576172,23.1811523 71.7773438,22.8720703 72.0820312,22.6611328 C72.3867188,22.4501953 72.7119141,22.3447266 73.0576172,22.3447266 C73.5322266,22.3447266 73.8837891,22.5205078 74.1123047,22.8720703 C74.2822266,23.1416016 74.3671875,23.7392578 74.3671875,24.6650391 L74.3671875,24.6650391 L74.3671875,30 L76.8369141,30 L76.8369141,24.0322266 C76.8369141,23.1416016 76.7519531,22.4970703 76.5820312,22.0986328 C76.3476562,21.5595703 75.9931641,21.1508789 75.5185547,20.8725586 C75.0439453,20.5942383 74.4638672,20.4550781 73.7783203,20.4550781 C73.2392578,20.4550781 72.7324219,20.578125 72.2578125,20.8242188 C71.7832031,21.0703125 71.3408203,21.4423828 70.9306641,21.9404297 C70.6494141,21.4423828 70.2890625,21.0703125 69.8496094,20.8242188 C69.4101562,20.578125 68.8916016,20.4550781 68.2939453,20.4550781 C67.1689453,20.4550781 66.1992188,20.9501953 65.3847656,21.9404297 L65.3847656,21.9404297 L65.3847656,20.6660156 L63.1083984,20.6660156 L63.1083984,30 L65.578125,30 Z M81.6972656,33.5507812 L81.6972656,28.8486328 C82.1601562,29.3466797 82.6010742,29.6982422 83.0200195,29.9033203 C83.4389648,30.1083984 83.90625,30.2109375 84.421875,30.2109375 C85.5058594,30.2109375 86.4287109,29.7788086 87.1904297,28.9145508 C87.9521484,28.050293 88.3330078,26.8388672 88.3330078,25.2802734 C88.3330078,23.7626953 87.9550781,22.5791016 87.1992188,21.7294922 C86.4433594,20.8798828 85.5234375,20.4550781 84.4394531,20.4550781 C83.8183594,20.4550781 83.2529297,20.6015625 82.7431641,20.8945312 C82.2333984,21.1875 81.8291016,21.5683594 81.5302734,22.0371094 L81.5302734,22.0371094 L81.5302734,20.6660156 L79.2275391,20.6660156 L79.2275391,33.5507812 L81.6972656,33.5507812 Z M83.8154297,28.2509766 C83.2177734,28.2509766 82.7109375,28.0004883 82.2949219,27.4995117 C81.8789062,26.9985352 81.6708984,26.2236328 81.6708984,25.1748047 C81.6708984,24.2607422 81.8701172,23.5708008 82.2685547,23.1049805 C82.6669922,22.6391602 83.1679688,22.40625 83.7714844,22.40625 C84.3515625,22.40625 84.8378906,22.6435547 85.2304688,23.1181641 C85.6230469,23.5927734 85.8193359,24.3193359 85.8193359,25.2978516 C85.8193359,26.3466797 85.6289062,27.1010742 85.2480469,27.5610352 C84.8671875,28.0209961 84.3896484,28.2509766 83.8154297,28.2509766 Z M94.546875,30.2109375 C95.9296875,30.2109375 97.0766602,29.746582 97.987793,28.8178711 C98.8989258,27.8891602 99.3544922,26.71875 99.3544922,25.3066406 C99.3544922,23.90625 98.9033203,22.7475586 98.0009766,21.8305664 C97.0986328,20.9135742 95.9414062,20.4550781 94.5292969,20.4550781 C93.6152344,20.4550781 92.7875977,20.6572266 92.0463867,21.0615234 C91.3051758,21.4658203 90.7324219,22.0517578 90.328125,22.8193359 C89.9238281,23.5869141 89.7216797,24.3808594 89.7216797,25.2011719 C89.7216797,26.2734375 89.9238281,27.1831055 90.328125,27.9301758 C90.7324219,28.6772461 91.3227539,29.2441406 92.0991211,29.6308594 C92.8754883,30.0175781 93.6914062,30.2109375 94.546875,30.2109375 Z M94.5380859,28.1982422 C93.8935547,28.1982422 93.3515625,27.9521484 92.9121094,27.4599609 C92.4726562,26.9677734 92.2529297,26.2587891 92.2529297,25.3330078 C92.2529297,24.4072266 92.4726562,23.6982422 92.9121094,23.2060547 C93.3515625,22.7138672 93.8935547,22.4677734 94.5380859,22.4677734 C95.1826172,22.4677734 95.7231445,22.7138672 96.159668,23.2060547 C96.5961914,23.6982422 96.8144531,24.4013672 96.8144531,25.3154297 C96.8144531,26.2529297 96.5961914,26.9677734 96.159668,27.4599609 C95.7231445,27.9521484 95.1826172,28.1982422 94.5380859,28.1982422 Z M103.652344,30 L103.652344,27.1171875 C103.652344,25.5292969 103.721191,24.4863281 103.858887,23.9882812 C103.996582,23.4902344 104.185547,23.1459961 104.425781,22.9555664 C104.666016,22.7651367 104.958984,22.6699219 105.304688,22.6699219 C105.662109,22.6699219 106.048828,22.8046875 106.464844,23.0742188 L106.464844,23.0742188 L107.229492,20.9208984 C106.708008,20.6103516 106.166016,20.4550781 105.603516,20.4550781 C105.205078,20.4550781 104.849121,20.5546875 104.535645,20.7539062 C104.222168,20.953125 103.869141,21.3662109 103.476562,21.9931641 L103.476562,21.9931641 L103.476562,20.6660156 L101.182617,20.6660156 L101.182617,30 L103.652344,30 Z M110.824219,30.2109375 C111.550781,30.2109375 112.201172,30.0878906 112.775391,29.8417969 L112.775391,29.8417969 L112.564453,27.9257812 C112.130859,28.0839844 111.799805,28.1630859 111.571289,28.1630859 C111.407227,28.1630859 111.268066,28.1220703 111.153809,28.0400391 C111.039551,27.9580078 110.966309,27.8540039 110.934082,27.7280273 C110.901855,27.6020508 110.885742,27.1582031 110.885742,26.3964844 L110.885742,26.3964844 L110.885742,22.6347656 L112.573242,22.6347656 L112.573242,20.6660156 L110.885742,20.6660156 L110.885742,17.3701172 L108.407227,18.8115234 L108.407227,20.6660156 L107.273438,20.6660156 L107.273438,22.6347656 L108.407227,22.6347656 L108.40788,26.9349416 C108.412239,27.680196 108.438388,28.1833274 108.486328,28.4443359 C108.550781,28.8486328 108.666504,29.1694336 108.833496,29.4067383 C109.000488,29.644043 109.262695,29.8374023 109.620117,29.9868164 C109.977539,30.1362305 110.378906,30.2109375 110.824219,30.2109375 Z M121.740234,30.2109375 C122.285156,30.2109375 122.797852,30.1083984 123.27832,29.9033203 C123.758789,29.6982422 124.209961,29.390625 124.631836,28.9804688 C124.649414,29.0273438 124.678711,29.1240234 124.719727,29.2705078 C124.813477,29.5927734 124.892578,29.8359375 124.957031,30 L124.957031,30 L127.400391,30 C127.183594,29.5546875 127.035645,29.137207 126.956543,28.7475586 C126.877441,28.3579102 126.837891,27.7529297 126.837891,26.9326172 L126.837891,26.9326172 L126.864258,24.0498047 C126.864258,22.9775391 126.754395,22.2407227 126.534668,21.8393555 C126.314941,21.4379883 125.935547,21.1069336 125.396484,20.8461914 C124.857422,20.5854492 124.037109,20.4550781 122.935547,20.4550781 C121.722656,20.4550781 120.808594,20.671875 120.193359,21.1054688 C119.578125,21.5390625 119.144531,22.2070312 118.892578,23.109375 L118.892578,23.109375 L121.133789,23.5136719 C121.286133,23.0800781 121.485352,22.7768555 121.731445,22.6040039 C121.977539,22.4311523 122.320312,22.3447266 122.759766,22.3447266 C123.410156,22.3447266 123.852539,22.4458008 124.086914,22.6479492 C124.321289,22.8500977 124.438477,23.1884766 124.438477,23.6630859 L124.438477,23.6630859 L124.438477,23.9091797 C123.993164,24.0966797 123.193359,24.2988281 122.039062,24.515625 C121.183594,24.6796875 120.528809,24.871582 120.074707,25.0913086 C119.620605,25.3110352 119.267578,25.6274414 119.015625,26.0405273 C118.763672,26.4536133 118.637695,26.9238281 118.637695,27.4511719 C118.637695,28.2480469 118.914551,28.9072266 119.468262,29.4287109 C120.021973,29.9501953 120.779297,30.2109375 121.740234,30.2109375 Z M122.478516,28.4707031 C122.080078,28.4707031 121.751953,28.3447266 121.494141,28.0927734 C121.236328,27.8408203 121.107422,27.5419922 121.107422,27.1962891 C121.107422,26.8447266 121.268555,26.5546875 121.59082,26.3261719 C121.801758,26.1855469 122.25,26.0419922 122.935547,25.8955078 C123.621094,25.7490234 124.12207,25.6230469 124.438477,25.5175781 L124.438477,25.5175781 L124.438477,26.0097656 C124.438477,26.6015625 124.40625,27.0029297 124.341797,27.2138672 C124.248047,27.5361328 124.051758,27.8085938 123.75293,28.03125 C123.348633,28.3242188 122.923828,28.4707031 122.478516,28.4707031 Z M136.699219,33.5507812 L136.699219,28.8486328 C137.162109,29.3466797 137.603027,29.6982422 138.021973,29.9033203 C138.440918,30.1083984 138.908203,30.2109375 139.423828,30.2109375 C140.507812,30.2109375 141.430664,29.7788086 142.192383,28.9145508 C142.954102,28.050293 143.334961,26.8388672 143.334961,25.2802734 C143.334961,23.7626953 142.957031,22.5791016 142.201172,21.7294922 C141.445312,20.8798828 140.525391,20.4550781 139.441406,20.4550781 C138.820312,20.4550781 138.254883,20.6015625 137.745117,20.8945312 C137.235352,21.1875 136.831055,21.5683594 136.532227,22.0371094 L136.532227,22.0371094 L136.532227,20.6660156 L134.229492,20.6660156 L134.229492,33.5507812 L136.699219,33.5507812 Z M138.817383,28.2509766 C138.219727,28.2509766 137.712891,28.0004883 137.296875,27.4995117 C136.880859,26.9985352 136.672852,26.2236328 136.672852,25.1748047 C136.672852,24.2607422 136.87207,23.5708008 137.270508,23.1049805 C137.668945,22.6391602 138.169922,22.40625 138.773438,22.40625 C139.353516,22.40625 139.839844,22.6435547 140.232422,23.1181641 C140.625,23.5927734 140.821289,24.3193359 140.821289,25.2978516 C140.821289,26.3466797 140.630859,27.1010742 140.25,27.5610352 C139.869141,28.0209961 139.391602,28.2509766 138.817383,28.2509766 Z M147.65918,30 L147.65918,27.1171875 C147.65918,25.5292969 147.728027,24.4863281 147.865723,23.9882812 C148.003418,23.4902344 148.192383,23.1459961 148.432617,22.9555664 C148.672852,22.7651367 148.96582,22.6699219 149.311523,22.6699219 C149.668945,22.6699219 150.055664,22.8046875 150.47168,23.0742188 L150.47168,23.0742188 L151.236328,20.9208984 C150.714844,20.6103516 150.172852,20.4550781 149.610352,20.4550781 C149.211914,20.4550781 148.855957,20.5546875 148.54248,20.7539062 C148.229004,20.953125 147.875977,21.3662109 147.483398,21.9931641 L147.483398,21.9931641 L147.483398,20.6660156 L145.189453,20.6660156 L145.189453,30 L147.65918,30 Z M156.105469,30.2109375 C157.130859,30.2109375 157.984863,29.9750977 158.66748,29.503418 C159.350098,29.0317383 159.849609,28.3447266 160.166016,27.4423828 L160.166016,27.4423828 L157.705078,27.0292969 C157.570312,27.4980469 157.371094,27.8378906 157.107422,28.0488281 C156.84375,28.2597656 156.518555,28.3652344 156.131836,28.3652344 C155.563477,28.3652344 155.088867,28.1616211 154.708008,27.7543945 C154.327148,27.347168 154.12793,26.7773438 154.110352,26.0449219 L154.110352,26.0449219 L160.297852,26.0449219 C160.333008,24.1523438 159.949219,22.7475586 159.146484,21.8305664 C158.34375,20.9135742 157.248047,20.4550781 155.859375,20.4550781 C154.623047,20.4550781 153.600586,20.8930664 152.791992,21.769043 C151.983398,22.6450195 151.579102,23.8564453 151.579102,25.4033203 C151.579102,26.6982422 151.886719,27.7705078 152.501953,28.6201172 C153.28125,29.6806641 154.482422,30.2109375 156.105469,30.2109375 Z M157.845703,24.5332031 L154.154297,24.5332031 C154.148438,23.859375 154.321289,23.3261719 154.672852,22.9335938 C155.024414,22.5410156 155.469727,22.3447266 156.008789,22.3447266 C156.512695,22.3447266 156.94043,22.5307617 157.291992,22.902832 C157.643555,23.2749023 157.828125,23.8183594 157.845703,24.5332031 L157.845703,24.5332031 Z M165.914062,30.2109375 C167.314453,30.2109375 168.37207,29.9033203 169.086914,29.2880859 C169.801758,28.6728516 170.15918,27.9375 170.15918,27.0820312 C170.15918,26.296875 169.901367,25.6845703 169.385742,25.2451172 C168.864258,24.8115234 167.945801,24.4453125 166.630371,24.1464844 C165.314941,23.8476562 164.545898,23.6162109 164.323242,23.4521484 C164.15918,23.3291016 164.077148,23.1796875 164.077148,23.0039062 C164.077148,22.7988281 164.170898,22.6318359 164.358398,22.5029297 C164.639648,22.3212891 165.105469,22.2304688 165.755859,22.2304688 C166.271484,22.2304688 166.668457,22.3271484 166.946777,22.5205078 C167.225098,22.7138672 167.414062,22.9921875 167.513672,23.3554688 L167.513672,23.3554688 L169.842773,22.9248047 C169.608398,22.1103516 169.180664,21.4951172 168.55957,21.0791016 C167.938477,20.6630859 166.989258,20.4550781 165.711914,20.4550781 C164.370117,20.4550781 163.379883,20.7304688 162.741211,21.28125 C162.102539,21.8320312 161.783203,22.5117188 161.783203,23.3203125 C161.783203,24.2167969 162.152344,24.9169922 162.890625,25.4208984 C163.423828,25.7841797 164.686523,26.1855469 166.678711,26.625 C167.106445,26.7246094 167.381836,26.8330078 167.504883,26.9501953 C167.62207,27.0732422 167.680664,27.2285156 167.680664,27.4160156 C167.680664,27.6914062 167.572266,27.9111328 167.355469,28.0751953 C167.033203,28.3095703 166.552734,28.4267578 165.914062,28.4267578 C165.333984,28.4267578 164.882812,28.3022461 164.560547,28.0532227 C164.238281,27.8041992 164.024414,27.4394531 163.918945,26.9589844 L163.918945,26.9589844 L161.44043,27.3369141 C161.668945,28.2216797 162.153809,28.921875 162.89502,29.4375 C163.63623,29.953125 164.642578,30.2109375 165.914062,30.2109375 Z M176.126953,30.2109375 C177.152344,30.2109375 178.006348,29.9750977 178.688965,29.503418 C179.371582,29.0317383 179.871094,28.3447266 180.1875,27.4423828 L180.1875,27.4423828 L177.726562,27.0292969 C177.591797,27.4980469 177.392578,27.8378906 177.128906,28.0488281 C176.865234,28.2597656 176.540039,28.3652344 176.15332,28.3652344 C175.584961,28.3652344 175.110352,28.1616211 174.729492,27.7543945 C174.348633,27.347168 174.149414,26.7773438 174.131836,26.0449219 L174.131836,26.0449219 L180.319336,26.0449219 C180.354492,24.1523438 179.970703,22.7475586 179.167969,21.8305664 C178.365234,20.9135742 177.269531,20.4550781 175.880859,20.4550781 C174.644531,20.4550781 173.62207,20.8930664 172.813477,21.769043 C172.004883,22.6450195 171.600586,23.8564453 171.600586,25.4033203 C171.600586,26.6982422 171.908203,27.7705078 172.523438,28.6201172 C173.302734,29.6806641 174.503906,30.2109375 176.126953,30.2109375 Z M177.867188,24.5332031 L174.175781,24.5332031 C174.169922,23.859375 174.342773,23.3261719 174.694336,22.9335938 C175.045898,22.5410156 175.491211,22.3447266 176.030273,22.3447266 C176.53418,22.3447266 176.961914,22.5307617 177.313477,22.902832 C177.665039,23.2749023 177.849609,23.8183594 177.867188,24.5332031 L177.867188,24.5332031 Z M184.863281,30.2109375 C185.589844,30.2109375 186.240234,30.0878906 186.814453,29.8417969 L186.814453,29.8417969 L186.603516,27.9257812 C186.169922,28.0839844 185.838867,28.1630859 185.610352,28.1630859 C185.446289,28.1630859 185.307129,28.1220703 185.192871,28.0400391 C185.078613,27.9580078 185.005371,27.8540039 184.973145,27.7280273 C184.940918,27.6020508 184.924805,27.1582031 184.924805,26.3964844 L184.924805,26.3964844 L184.924805,22.6347656 L186.612305,22.6347656 L186.612305,20.6660156 L184.924805,20.6660156 L184.924805,17.3701172 L182.446289,18.8115234 L182.446289,20.6660156 L181.3125,20.6660156 L181.3125,22.6347656 L182.446289,22.6347656 L182.446943,26.9349416 C182.451301,27.680196 182.47745,28.1833274 182.525391,28.4443359 C182.589844,28.8486328 182.705566,29.1694336 182.872559,29.4067383 C183.039551,29.644043 183.301758,29.8374023 183.65918,29.9868164 C184.016602,30.1362305 184.417969,30.2109375 184.863281,30.2109375 Z M196.086914,30 L196.086914,22.6083984 L197.932617,22.6083984 L197.932617,20.6660156 L196.086914,20.6660156 L196.086914,20.0068359 C196.086914,19.5322266 196.164551,19.2114258 196.319824,19.0444336 C196.475098,18.8774414 196.731445,18.7939453 197.088867,18.7939453 C197.452148,18.7939453 197.830078,18.8408203 198.222656,18.9345703 L198.222656,18.9345703 L198.556641,17.2119141 C197.882812,17.0009766 197.194336,16.8955078 196.491211,16.8955078 C195.805664,16.8955078 195.23877,17.0170898 194.790527,17.2602539 C194.342285,17.503418 194.034668,17.8183594 193.867676,18.2050781 C193.700684,18.5917969 193.617188,19.1777344 193.617188,19.9628906 L193.617188,19.9628906 L193.617188,20.6660156 L192.246094,20.6660156 L192.246094,22.6083984 L193.617188,22.6083984 L193.617188,30 L196.086914,30 Z M201.791016,19.4003906 L201.791016,17.1152344 L199.321289,17.1152344 L199.321289,19.4003906 L201.791016,19.4003906 Z M201.791016,30 L201.791016,20.6660156 L199.321289,20.6660156 L199.321289,30 L201.791016,30 Z M206.791992,30 L206.791992,17.1152344 L204.322266,17.1152344 L204.322266,30 L206.791992,30 Z M213.128906,30.2109375 C214.154297,30.2109375 215.008301,29.9750977 215.690918,29.503418 C216.373535,29.0317383 216.873047,28.3447266 217.189453,27.4423828 L217.189453,27.4423828 L214.728516,27.0292969 C214.59375,27.4980469 214.394531,27.8378906 214.130859,28.0488281 C213.867188,28.2597656 213.541992,28.3652344 213.155273,28.3652344 C212.586914,28.3652344 212.112305,28.1616211 211.731445,27.7543945 C211.350586,27.347168 211.151367,26.7773438 211.133789,26.0449219 L211.133789,26.0449219 L217.321289,26.0449219 C217.356445,24.1523438 216.972656,22.7475586 216.169922,21.8305664 C215.367188,20.9135742 214.271484,20.4550781 212.882812,20.4550781 C211.646484,20.4550781 210.624023,20.8930664 209.81543,21.769043 C209.006836,22.6450195 208.602539,23.8564453 208.602539,25.4033203 C208.602539,26.6982422 208.910156,27.7705078 209.525391,28.6201172 C210.304688,29.6806641 211.505859,30.2109375 213.128906,30.2109375 Z M214.869141,24.5332031 L211.177734,24.5332031 C211.171875,23.859375 211.344727,23.3261719 211.696289,22.9335938 C212.047852,22.5410156 212.493164,22.3447266 213.032227,22.3447266 C213.536133,22.3447266 213.963867,22.5307617 214.31543,22.902832 C214.666992,23.2749023 214.851562,23.8183594 214.869141,24.5332031 L214.869141,24.5332031 Z M223.429688,33.7880859 C222.914062,32.6689453 222.553711,31.8105469 222.348633,31.2128906 C222.038086,30.3046875 221.793457,29.3466797 221.614746,28.3388672 C221.436035,27.3310547 221.34668,26.3466797 221.34668,25.3857422 C221.34668,23.9912109 221.497559,22.6713867 221.799316,21.4262695 C222.101074,20.1811523 222.65332,18.6708984 223.456055,16.8955078 L223.456055,16.8955078 L221.768555,16.8955078 C220.995117,18.0029297 220.356445,19.2128906 219.852539,20.5253906 C219.272461,22.0371094 218.982422,23.6396484 218.982422,25.3330078 C218.982422,26.6982422 219.216797,28.1103516 219.685547,29.5693359 C220.154297,31.0283203 220.836914,32.4345703 221.733398,33.7880859 L221.733398,33.7880859 L223.429688,33.7880859 Z M228.931641,30.2109375 C230.332031,30.2109375 231.389648,29.9033203 232.104492,29.2880859 C232.819336,28.6728516 233.176758,27.9375 233.176758,27.0820312 C233.176758,26.296875 232.918945,25.6845703 232.40332,25.2451172 C231.881836,24.8115234 230.963379,24.4453125 229.647949,24.1464844 C228.33252,23.8476562 227.563477,23.6162109 227.34082,23.4521484 C227.176758,23.3291016 227.094727,23.1796875 227.094727,23.0039062 C227.094727,22.7988281 227.188477,22.6318359 227.375977,22.5029297 C227.657227,22.3212891 228.123047,22.2304688 228.773438,22.2304688 C229.289062,22.2304688 229.686035,22.3271484 229.964355,22.5205078 C230.242676,22.7138672 230.431641,22.9921875 230.53125,23.3554688 L230.53125,23.3554688 L232.860352,22.9248047 C232.625977,22.1103516 232.198242,21.4951172 231.577148,21.0791016 C230.956055,20.6630859 230.006836,20.4550781 228.729492,20.4550781 C227.387695,20.4550781 226.397461,20.7304688 225.758789,21.28125 C225.120117,21.8320312 224.800781,22.5117188 224.800781,23.3203125 C224.800781,24.2167969 225.169922,24.9169922 225.908203,25.4208984 C226.441406,25.7841797 227.704102,26.1855469 229.696289,26.625 C230.124023,26.7246094 230.399414,26.8330078 230.522461,26.9501953 C230.639648,27.0732422 230.698242,27.2285156 230.698242,27.4160156 C230.698242,27.6914062 230.589844,27.9111328 230.373047,28.0751953 C230.050781,28.3095703 229.570312,28.4267578 228.931641,28.4267578 C228.351562,28.4267578 227.900391,28.3022461 227.578125,28.0532227 C227.255859,27.8041992 227.041992,27.4394531 226.936523,26.9589844 L226.936523,26.9589844 L224.458008,27.3369141 C224.686523,28.2216797 225.171387,28.921875 225.912598,29.4375 C226.653809,29.953125 227.660156,30.2109375 228.931641,30.2109375 Z M236.358398,33.7880859 C237.366211,32.2587891 238.089844,30.7089844 238.529297,29.1386719 C238.916016,27.7382812 239.109375,26.4257812 239.109375,25.2011719 C239.109375,23.7480469 238.864746,22.3154297 238.375488,20.9033203 C237.88623,19.4912109 237.199219,18.1552734 236.314453,16.8955078 L236.314453,16.8955078 L234.635742,16.8955078 C235.438477,18.6708984 235.989258,20.1811523 236.288086,21.4262695 C236.586914,22.6713867 236.736328,23.9912109 236.736328,25.3857422 C236.736328,26.0712891 236.695312,26.7407227 236.613281,27.394043 C236.53125,28.0473633 236.405273,28.7373047 236.235352,29.4638672 C236.06543,30.1904297 235.880859,30.8320312 235.681641,31.3886719 C235.482422,31.9453125 235.139648,32.7451172 234.65332,33.7880859 L234.65332,33.7880859 L236.358398,33.7880859 Z"></path>
            <path fill="#00A8E8" fill-rule="nonzero" d="M26.2779043,26.1123766 L37.3902809,15 L39,16.6097191 L27.8876234,27.7220957 L31.9726651,27.7220957 L31.9726651,30 L26.2779043,30 L24,30 L24,27.7220957 L24,22.0273349 L26.2779043,22.0273349 L26.2779043,26.1123766 Z M36.7777778,32.7777778 L36.7777778,25 L39,25 L39,33.1481481 C39,34.1708977 38.1708977,35 37.1481481,35 L20.8518519,35 C19.8291023,35 19,34.1708977 19,33.1481481 L19,16.8518519 C19,15.8291023 19.8291023,15 20.8518519,15 L29,15 L29,17.2222222 L21.2222222,17.2222222 L21.2222222,32.7777778 L36.7777778,32.7777778 Z"></path>
        </g>
    </g>
</svg>
