<?xml version="1.0" encoding="UTF-8"?>
<svg width="120px" height="34px" viewBox="0 0 120 34" version="1.1" xmlns="http://www.w3.org/2000/svg" xmlns:xlink="http://www.w3.org/1999/xlink">
    <title>Keyboards</title>
    <g stroke="none" stroke-width="1" fill="none" fill-rule="evenodd">
        <rect fill="#747980" x="0" y="0" width="120" height="34" rx="5"></rect>
        <path fill="#FFFFFF" fill-rule="nonzero" d="M16.6821289,23 L16.6821289,10.1152344 L19.1518555,10.1152344 L19.1518555,16.953125 L22.043457,13.6660156 L25.0844727,13.6660156 L21.894043,17.0761719 L25.3129883,23 L22.6499023,23 L20.3032227,18.8076172 L19.1518555,20.0117188 L19.1518555,23 L16.6821289,23 Z M32.1860352,20.0292969 L34.6469727,20.4423828 C34.3305648,21.3447311 33.8310581,22.0317359 33.1484375,22.503418 C32.4658169,22.9751 31.6118215,23.2109375 30.5864258,23.2109375 C28.9633708,23.2109375 27.7622109,22.6806694 26.9829102,21.6201172 C26.3676727,20.7705036 26.0600586,19.6982487 26.0600586,18.4033203 C26.0600586,16.8564376 26.4643514,15.6450239 27.2729492,14.769043 C28.081547,13.893062 29.1039977,13.4550781 30.340332,13.4550781 C31.7290108,13.4550781 32.824703,13.9135696 33.6274414,14.8305664 C34.4301798,15.7475632 34.813965,17.1523343 34.7788086,19.0449219 L28.5913086,19.0449219 C28.6088868,19.7773474 28.8081036,20.3471659 29.1889648,20.7543945 C29.5698261,21.1616231 30.0444308,21.3652344 30.612793,21.3652344 C30.9995137,21.3652344 31.3247057,21.2597667 31.5883789,21.0488281 C31.8520521,20.8378896 32.0512689,20.4980492 32.1860352,20.0292969 Z M32.3266602,17.5332031 C32.3090819,16.8183558 32.1245135,16.2749042 31.7729492,15.902832 C31.421385,15.5307599 30.9936549,15.3447266 30.4897461,15.3447266 C29.9506809,15.3447266 29.5053729,15.5410137 29.1538086,15.9335938 C28.8022443,16.3261738 28.6293945,16.8593716 28.6352539,17.5332031 L32.3266602,17.5332031 Z M35.6225586,13.6660156 L38.2504883,13.6660156 L40.4829102,20.2929688 L42.6625977,13.6660156 L45.2202148,13.6660156 L41.9243164,22.6484375 L41.3354492,24.2744141 C41.1186513,24.8193387 40.9121104,25.2353501 40.7158203,25.5224609 C40.5195303,25.8095717 40.2939466,26.0424796 40.0390625,26.2211914 C39.7841784,26.3999032 39.470705,26.539062 39.0986328,26.6386719 C38.7265606,26.7382817 38.3061547,26.7880859 37.8374023,26.7880859 C37.3627906,26.7880859 36.8969749,26.7382817 36.4399414,26.6386719 L36.2202148,24.7050781 C36.6069355,24.7812504 36.9555649,24.8193359 37.2661133,24.8193359 C37.8403349,24.8193359 38.2651353,24.6508806 38.5405273,24.3139648 C38.8159193,23.9770491 39.0268547,23.5478542 39.1733398,23.0263672 L35.6225586,13.6660156 Z M46.6967773,23 L46.6967773,10.1152344 L49.1665039,10.1152344 L49.1665039,14.7558594 C49.9282265,13.8886675 50.8305612,13.4550781 51.8735352,13.4550781 C53.0102596,13.4550781 53.9506799,13.8666951 54.6948242,14.6899414 C55.4389686,15.5131877 55.8110352,16.6953048 55.8110352,18.2363281 C55.8110352,19.8300861 55.4316444,21.0576129 54.6728516,21.9189453 C53.9140587,22.7802777 52.9926812,23.2109375 51.9086914,23.2109375 C51.3754856,23.2109375 50.849612,23.0776381 50.3310547,22.8110352 C49.8124974,22.5444323 49.3657245,22.1503932 48.9907227,21.6289062 L48.9907227,23 L46.6967773,23 Z M49.1489258,18.1308594 C49.1489258,19.0976611 49.301268,19.8124977 49.605957,20.2753906 C50.0336935,20.9316439 50.6020472,21.2597656 51.3110352,21.2597656 C51.8559598,21.2597656 52.3203106,21.0268578 52.7041016,20.5610352 C53.0878925,20.0952125 53.2797852,19.3613331 53.2797852,18.359375 C53.2797852,17.2929634 53.0864277,16.5239281 52.699707,16.0522461 C52.3129863,15.580564 51.8178741,15.3447266 51.2143555,15.3447266 C50.6225556,15.3447266 50.1303731,15.5747047 49.737793,16.034668 C49.3452129,16.4946312 49.1489258,17.1933547 49.1489258,18.1308594 Z M57.2260742,18.2011719 C57.2260742,17.3808553 57.4282206,16.5869179 57.8325195,15.8193359 C58.2368184,15.051754 58.8095666,14.4658223 59.5507812,14.0615234 C60.2919959,13.6572245 61.1196243,13.4550781 62.0336914,13.4550781 C63.4458078,13.4550781 64.6030228,13.9135696 65.5053711,14.8305664 C66.4077194,15.7475632 66.8588867,16.906243 66.8588867,18.3066406 C66.8588867,19.7187571 66.4033249,20.8891555 65.4921875,21.8178711 C64.5810501,22.7465867 63.4340889,23.2109375 62.0512695,23.2109375 C61.1957965,23.2109375 60.3798867,23.0175801 59.6035156,22.6308594 C58.8271446,22.2441387 58.2368184,21.6772498 57.8325195,20.9301758 C57.4282206,20.1831017 57.2260742,19.2734429 57.2260742,18.2011719 Z M59.7573242,18.3330078 C59.7573242,19.2587937 59.9770486,19.9677734 60.4165039,20.4599609 C60.8559592,20.9521509 61.397946,21.1982422 62.0424805,21.1982422 C62.6870149,21.1982422 63.2275369,20.9521509 63.6640625,20.4599609 C64.1005881,19.9677734 64.3188477,19.2529344 64.3188477,18.3154297 C64.3188477,17.4013626 64.1005881,16.6982446 63.6640625,16.2060547 C63.2275369,15.7138647 62.6870149,15.4677734 62.0424805,15.4677734 C61.397946,15.4677734 60.8559592,15.7138647 60.4165039,16.2060547 C59.9770486,16.6982446 59.7573242,17.4072219 59.7573242,18.3330078 Z M70.6381836,16.5136719 L68.3969727,16.109375 C68.648927,15.2070267 69.0825165,14.5390647 69.6977539,14.1054688 C70.3129914,13.6718728 71.2270447,13.4550781 72.4399414,13.4550781 C73.5415094,13.4550781 74.3618137,13.5854479 74.9008789,13.8461914 C75.4399441,14.1069349 75.8193348,14.4379863 76.0390625,14.8393555 C76.2587902,15.2407247 76.3686523,15.9775337 76.3686523,17.0498047 L76.3422852,19.9326172 C76.3422852,20.7529338 76.3818355,21.3579082 76.4609375,21.7475586 C76.5400395,22.137209 76.6879872,22.5546853 76.9047852,23 L74.4614258,23 C74.3969723,22.8359367 74.3178716,22.592775 74.2241211,22.2705078 C74.1831053,22.1240227 74.1538087,22.027344 74.1362305,21.9804688 C73.7143534,22.3906271 73.263186,22.6982412 72.7827148,22.9033203 C72.3022437,23.1083995 71.7895535,23.2109375 71.2446289,23.2109375 C70.2836866,23.2109375 69.52637,22.9501979 68.9726562,22.4287109 C68.4189425,21.907224 68.1420898,21.2480509 68.1420898,20.4511719 C68.1420898,19.9238255 68.2680651,19.4536153 68.5200195,19.0405273 C68.7719739,18.6274393 69.1249977,18.3110363 69.5791016,18.0913086 C70.0332054,17.8715809 70.687984,17.6796883 71.543457,17.515625 C72.6977597,17.298827 73.4975564,17.0966806 73.9428711,16.9091797 L73.9428711,16.6630859 C73.9428711,16.1884742 73.8256848,15.8500987 73.5913086,15.6479492 C73.3569324,15.4457998 72.914554,15.3447266 72.2641602,15.3447266 C71.8247048,15.3447266 71.4819348,15.4311515 71.2358398,15.6040039 C70.9897449,15.7768563 70.7905281,16.080076 70.6381836,16.5136719 Z M73.9428711,18.5175781 C73.6264633,18.6230474 73.1254917,18.7490227 72.4399414,18.8955078 C71.7543911,19.0419929 71.3061534,19.1855462 71.0952148,19.3261719 C70.7729476,19.5546886 70.6118164,19.8447248 70.6118164,20.1962891 C70.6118164,20.5419939 70.7407214,20.8408191 70.9985352,21.0927734 C71.2563489,21.3447278 71.5844707,21.4707031 71.9829102,21.4707031 C72.4282249,21.4707031 72.8530253,21.3242202 73.2573242,21.03125 C73.5561538,20.8085926 73.7524409,20.5361344 73.8461914,20.2138672 C73.9106449,20.0029286 73.9428711,19.6015655 73.9428711,19.0097656 L73.9428711,18.5175781 Z M81.1674805,23 L78.6977539,23 L78.6977539,13.6660156 L80.9916992,13.6660156 L80.9916992,14.9931641 C81.3842793,14.3662078 81.7373031,13.953126 82.0507812,13.7539062 C82.3642594,13.5546865 82.7202129,13.4550781 83.1186523,13.4550781 C83.6811552,13.4550781 84.2231419,13.61035 84.7446289,13.9208984 L83.9799805,16.0742188 C83.5639628,15.8046862 83.1772479,15.6699219 82.8198242,15.6699219 C82.4741194,15.6699219 82.1811535,15.7651358 81.940918,15.9555664 C81.7006824,16.145997 81.5117194,16.4902319 81.3740234,16.9882812 C81.2363274,17.4863306 81.1674805,18.5292889 81.1674805,20.1171875 L81.1674805,23 Z M94.3686523,23 L92.074707,23 L92.074707,21.6289062 C91.6938458,22.162112 91.2441432,22.5590807 90.7255859,22.8198242 C90.2070287,23.0805677 89.6840847,23.2109375 89.1567383,23.2109375 C88.0844673,23.2109375 87.1660194,22.7788129 86.4013672,21.9145508 C85.6367149,21.0502886 85.2543945,19.8447343 85.2543945,18.2978516 C85.2543945,16.7158124 85.6264611,15.5131877 86.3706055,14.6899414 C87.1147498,13.8666951 88.0551701,13.4550781 89.1918945,13.4550781 C90.2348685,13.4550781 91.1372032,13.8886675 91.8989258,14.7558594 L91.8989258,10.1152344 L94.3686523,10.1152344 L94.3686523,23 Z M87.7768555,18.1308594 C87.7768555,19.1269581 87.9145494,19.847654 88.1899414,20.2929688 C88.5883809,20.9375032 89.145016,21.2597656 89.8598633,21.2597656 C90.4282255,21.2597656 90.9116191,21.0180688 91.3100586,20.534668 C91.7084981,20.0512671 91.9077148,19.3291064 91.9077148,18.3681641 C91.9077148,17.2958931 91.7143574,16.5239281 91.3276367,16.0522461 C90.940916,15.580564 90.4458038,15.3447266 89.8422852,15.3447266 C89.2563447,15.3447266 88.765627,15.5776344 88.3701172,16.043457 C87.9746074,16.5092797 87.7768555,17.2050735 87.7768555,18.1308594 Z M95.9331055,20.3369141 L98.4116211,19.9589844 C98.5170904,20.4394555 98.7309554,20.804198 99.0532227,21.0532227 C99.3754899,21.3022473 99.8266573,21.4267578 100.406738,21.4267578 C101.045413,21.4267578 101.525877,21.3095715 101.848145,21.0751953 C102.064942,20.911132 102.17334,20.6914076 102.17334,20.4160156 C102.17334,20.2285147 102.114747,20.0732428 101.997559,19.9501953 C101.874511,19.8330072 101.599123,19.7246099 101.171387,19.625 C99.1791893,19.1855447 97.9165066,18.7841815 97.3833008,18.4208984 C96.6450158,17.9169897 96.2758789,17.2168014 96.2758789,16.3203125 C96.2758789,15.5117147 96.5952117,14.832034 97.2338867,14.28125 C97.8725618,13.730466 98.8627863,13.4550781 100.20459,13.4550781 C101.48194,13.4550781 102.431149,13.6630839 103.052246,14.0791016 C103.673343,14.4951193 104.101073,15.1103475 104.335449,15.9248047 L102.006348,16.3554688 C101.906738,15.9921857 101.717775,15.7138682 101.439453,15.5205078 C101.161131,15.3271475 100.764163,15.2304688 100.248535,15.2304688 C99.5981413,15.2304688 99.1323256,15.3212882 98.8510742,15.5029297 C98.6635733,15.6318366 98.5698242,15.7988271 98.5698242,16.0039062 C98.5698242,16.1796884 98.6518546,16.3291009 98.815918,16.4521484 C99.0385753,16.6162118 99.8076106,16.8476548 101.123047,17.1464844 C102.438483,17.445314 103.356931,17.8115213 103.878418,18.2451172 C104.394046,18.6845725 104.651855,19.2968711 104.651855,20.0820312 C104.651855,20.9375043 104.294437,21.6728485 103.57959,22.2880859 C102.864743,22.9033234 101.807136,23.2109375 100.406738,23.2109375 C99.1352475,23.2109375 98.12891,22.9531276 97.3876953,22.4375 C96.6464807,21.9218724 96.1616222,21.2216841 95.9331055,20.3369141 Z"></path>
    </g>
</svg>
