<?xml version="1.0" encoding="UTF-8"?>
<svg width="120px" height="34px" viewBox="0 0 120 34" version="1.1" xmlns="http://www.w3.org/2000/svg" xmlns:xlink="http://www.w3.org/1999/xlink">
    <title>LTR</title>
    <g stroke="none" stroke-width="1" fill="none" fill-rule="evenodd">
        <g id="LTR">
            <path fill="#C0C0C0" d="M60,0 L115,0 C117.761424,-5.07265313e-16 120,2.23857625 120,5 L120,29 C120,31.7614237 117.761424,34 115,34 L60,34 L60,0 Z"></path>
            <path fill="#7957BA" transform="translate(30.000000, 17.000000) scale(-1, 1) translate(-30.000000, -17.000000)" d="M0,0 L55,0 C57.7614237,-5.07265313e-16 60,2.23857625 60,5 L60,29 C60,31.7614237 57.7614237,34 55,34 L0,34 L0,0 Z"></path>
            <path fill="#FFFFFF" fill-rule="nonzero" d="M74.3183594,23 L74.3183594,10.1152344 L79.7939453,10.1152344 C81.1709053,10.1152344 82.1713836,10.2309559 82.7954102,10.4624023 C83.4194367,10.6938488 83.9189434,11.1054658 84.2939453,11.6972656 C84.6689472,12.2890655 84.8564453,12.9658165 84.8564453,13.7275391 C84.8564453,14.6943408 84.5722685,15.4926726 84.0039062,16.1225586 C83.435544,16.7524446 82.5859432,17.1494132 81.4550781,17.3134766 C82.0175809,17.6416032 82.4819318,18.0019512 82.8481445,18.3945312 C83.2143573,18.7871113 83.7080047,19.48437 84.3291016,20.4863281 L85.9023438,23 L82.7910156,23 L80.9101562,20.1962891 C80.2421842,19.1943309 79.7851575,18.5629896 79.5390625,18.3022461 C79.2929675,18.0415026 79.0322279,17.8627935 78.7568359,17.7661133 C78.4814439,17.6694331 78.0449249,17.6210938 77.4472656,17.6210938 L76.9199219,17.6210938 L76.9199219,23 L74.3183594,23 Z M76.9199219,15.5644531 L78.8447266,15.5644531 C80.0927797,15.5644531 80.8720688,15.5117193 81.1826172,15.40625 C81.4931656,15.3007807 81.7363272,15.1191419 81.9121094,14.8613281 C82.0878915,14.6035143 82.1757812,14.2812519 82.1757812,13.8945312 C82.1757812,13.4609353 82.0600598,13.1108412 81.8286133,12.8442383 C81.5971668,12.5776354 81.2705099,12.40918 80.8486328,12.3388672 C80.6376943,12.3095702 80.0048881,12.2949219 78.9501953,12.2949219 L76.9199219,12.2949219 L76.9199219,15.5644531 Z M90.2089844,23 L90.2089844,12.2949219 L86.3857422,12.2949219 L86.3857422,10.1152344 L96.625,10.1152344 L96.625,12.2949219 L92.8105469,12.2949219 L92.8105469,23 L90.2089844,23 Z M98.3740234,23 L98.3740234,10.2207031 L100.975586,10.2207031 L100.975586,20.8291016 L107.444336,20.8291016 L107.444336,23 L98.3740234,23 Z"></path>
            <path fill="#FFFFFF" fill-rule="nonzero" d="M14.3798828,23 L14.3798828,10.2207031 L16.9814453,10.2207031 L16.9814453,20.8291016 L23.4501953,20.8291016 L23.4501953,23 L14.3798828,23 Z M26.8691406,23 L26.8691406,12.2949219 L23.0458984,12.2949219 L23.0458984,10.1152344 L33.2851562,10.1152344 L33.2851562,12.2949219 L29.4707031,12.2949219 L29.4707031,23 L26.8691406,23 Z M34.9726562,23 L34.9726562,10.1152344 L40.4482422,10.1152344 C41.8252022,10.1152344 42.8256805,10.2309559 43.449707,10.4624023 C44.0737336,10.6938488 44.5732403,11.1054658 44.9482422,11.6972656 C45.3232441,12.2890655 45.5107422,12.9658165 45.5107422,13.7275391 C45.5107422,14.6943408 45.2265653,15.4926726 44.6582031,16.1225586 C44.0898409,16.7524446 43.24024,17.1494132 42.109375,17.3134766 C42.6718778,17.6416032 43.1362286,18.0019512 43.5024414,18.3945312 C43.8686542,18.7871113 44.3623016,19.48437 44.9833984,20.4863281 L46.5566406,23 L43.4453125,23 L41.5644531,20.1962891 C40.896481,19.1943309 40.4394544,18.5629896 40.1933594,18.3022461 C39.9472644,18.0415026 39.6865248,17.8627935 39.4111328,17.7661133 C39.1357408,17.6694331 38.6992217,17.6210938 38.1015625,17.6210938 L37.5742188,17.6210938 L37.5742188,23 L34.9726562,23 Z M37.5742188,15.5644531 L39.4990234,15.5644531 C40.7470766,15.5644531 41.5263656,15.5117193 41.8369141,15.40625 C42.1474625,15.3007807 42.3906241,15.1191419 42.5664062,14.8613281 C42.7421884,14.6035143 42.8300781,14.2812519 42.8300781,13.8945312 C42.8300781,13.4609353 42.7143566,13.1108412 42.4829102,12.8442383 C42.2514637,12.5776354 41.9248068,12.40918 41.5029297,12.3388672 C41.2919911,12.3095702 40.659185,12.2949219 39.6044922,12.2949219 L37.5742188,12.2949219 L37.5742188,15.5644531 Z"></path>
        </g>
    </g>
</svg>
