<?xml version="1.0" encoding="UTF-8"?>
<svg width="120px" height="30px" viewBox="0 0 120 30" version="1.1" xmlns="http://www.w3.org/2000/svg" xmlns:xlink="http://www.w3.org/1999/xlink">
    <title>MenuLegatoSOFT</title>
    <g stroke="none" stroke-width="1" fill="none" fill-rule="evenodd">
        <path fill="#1497CA" d="M115,0 C117.761424,-5.07265313e-16 120,2.23857625 120,5 L120,25 C120,27.7614237 117.761424,30 115,30 L60,30 L60,0 L115,0 Z M79.5078125,11.515625 C78.3151042,11.515625 77.4348958,11.7604167 76.8671875,12.25 C76.2994792,12.7395833 76.015625,13.34375 76.015625,14.0625 C76.015625,14.859375 76.34375,15.4817708 77,15.9296875 C77.4739583,16.2526042 78.5963542,16.609375 80.3671875,17 C80.7473958,17.0885417 80.9921875,17.1848958 81.1015625,17.2890625 C81.2057292,17.3984375 81.2578125,17.5364583 81.2578125,17.703125 C81.2578125,17.9479167 81.1614583,18.1432292 80.96875,18.2890625 C80.6822917,18.4973958 80.2552083,18.6015625 79.6875,18.6015625 C79.171875,18.6015625 78.7708333,18.4908854 78.484375,18.2695312 C78.2388393,18.0797991 78.0640944,17.814493 77.9601403,17.4736129 L77.9140625,17.296875 L75.7109375,17.6328125 C75.9140625,18.4192708 76.3450521,19.0416667 77.0039062,19.5 C77.6627604,19.9583333 78.5572917,20.1875 79.6875,20.1875 C80.9322917,20.1875 81.8723958,19.9140625 82.5078125,19.3671875 C83.1432292,18.8203125 83.4609375,18.1666667 83.4609375,17.40625 C83.4609375,16.7083333 83.2317708,16.1640625 82.7734375,15.7734375 C82.3098958,15.3880208 81.4934896,15.0625 80.3242188,14.796875 C79.1549479,14.53125 78.4713542,14.3255208 78.2734375,14.1796875 C78.1276042,14.0703125 78.0546875,13.9375 78.0546875,13.78125 C78.0546875,13.5989583 78.1380208,13.4505208 78.3046875,13.3359375 C78.5546875,13.1744792 78.96875,13.09375 79.546875,13.09375 C80.0052083,13.09375 80.3580729,13.1796875 80.6054688,13.3515625 C80.8116319,13.4947917 80.9626374,13.6904659 81.0584852,13.9385851 L81.109375,14.09375 L83.1796875,13.7109375 C82.9713542,12.9869792 82.5911458,12.4401042 82.0390625,12.0703125 C81.4869792,11.7005208 80.6432292,11.515625 79.5078125,11.515625 Z M89.1484375,11.515625 C88.3359375,11.515625 87.6002604,11.6953125 86.9414062,12.0546875 C86.2825521,12.4140625 85.7734375,12.9348958 85.4140625,13.6171875 C85.0546875,14.2994792 84.875,15.0052083 84.875,15.734375 C84.875,16.6875 85.0546875,17.4960938 85.4140625,18.1601562 C85.7734375,18.8242188 86.2981771,19.328125 86.9882812,19.671875 C87.6783854,20.015625 88.4036458,20.1875 89.1640625,20.1875 C90.3932292,20.1875 91.4127604,19.7747396 92.2226562,18.9492188 C93.0325521,18.1236979 93.4375,17.0833333 93.4375,15.828125 C93.4375,14.5833333 93.0364583,13.5533854 92.234375,12.7382812 C91.4322917,11.9231771 90.4036458,11.515625 89.1484375,11.515625 Z M102.789062,8.7734375 L100.585938,10.0546875 L100.585938,11.703125 L99.578125,11.703125 L99.578125,13.453125 L100.585938,13.453125 L100.585938,17.0703125 C100.585938,17.8463542 100.609375,18.3619792 100.65625,18.6171875 C100.713542,18.9765625 100.816406,19.2617188 100.964844,19.4726562 C101.113281,19.6835938 101.346354,19.8554688 101.664062,19.9882812 C101.981771,20.1210938 102.338542,20.1875 102.734375,20.1875 C103.287946,20.1875 103.791773,20.1071429 104.245855,19.9464286 L104.46875,19.859375 L104.28125,18.15625 C103.895833,18.296875 103.601562,18.3671875 103.398438,18.3671875 C103.252604,18.3671875 103.128906,18.3307292 103.027344,18.2578125 C102.925781,18.1848958 102.860677,18.0924479 102.832031,17.9804688 C102.80625,17.8796875 102.79207,17.5500391 102.789492,16.9915234 L102.789062,13.453125 L104.289062,13.453125 L104.289062,11.703125 L102.789062,11.703125 L102.789062,8.7734375 Z M97.96875,8.3515625 C97.359375,8.3515625 96.8554688,8.45963542 96.4570312,8.67578125 C96.0585938,8.89192708 95.7851562,9.171875 95.6367188,9.515625 C95.5068359,9.81640625 95.4337769,10.2527669 95.4175415,10.824707 L95.4140625,11.078125 L95.4140625,11.703125 L94.1953125,11.703125 L94.1953125,13.4296875 L95.4140625,13.4296875 L95.4140625,20 L97.609375,20 L97.609375,13.4296875 L99.25,13.4296875 L99.25,11.703125 L97.609375,11.703125 L97.609375,11.1171875 C97.609375,10.6953125 97.6783854,10.4101562 97.8164062,10.2617188 C97.9544271,10.1132812 98.1822917,10.0390625 98.5,10.0390625 C98.7421875,10.0390625 98.9916992,10.0625 99.2485352,10.109375 L99.5078125,10.1640625 L99.8046875,8.6328125 C99.2057292,8.4453125 98.59375,8.3515625 97.96875,8.3515625 Z M89.15625,13.3046875 C89.7291667,13.3046875 90.2096354,13.5234375 90.5976562,13.9609375 C90.9856771,14.3984375 91.1796875,15.0234375 91.1796875,15.8359375 C91.1796875,16.6692708 90.9856771,17.3046875 90.5976562,17.7421875 C90.2096354,18.1796875 89.7291667,18.3984375 89.15625,18.3984375 C88.5833333,18.3984375 88.1015625,18.1796875 87.7109375,17.7421875 C87.3203125,17.3046875 87.125,16.6744792 87.125,15.8515625 C87.125,15.0286458 87.3203125,14.3984375 87.7109375,13.9609375 C88.1015625,13.5234375 88.5833333,13.3046875 89.15625,13.3046875 Z"></path>
        <path fill="#80848A" d="M60,0 L60,30 L5,30 C2.23857625,30 3.38176876e-16,27.7614237 0,25 L0,5 C-3.38176876e-16,2.23857625 2.23857625,-1.26909153e-15 5,0 L60,0 Z M26.828125,11.515625 C25.75,11.515625 24.9375,11.7083333 24.390625,12.09375 C23.8984375,12.440625 23.5370313,12.95625 23.3064063,13.640625 L23.234375,13.875 L25.2265625,14.234375 C25.3619792,13.8489583 25.5390625,13.5794271 25.7578125,13.4257812 C25.9765625,13.2721354 26.28125,13.1953125 26.671875,13.1953125 C27.25,13.1953125 27.6432292,13.2851562 27.8515625,13.4648438 C28.0338542,13.6220703 28.1363932,13.8720093 28.1591797,14.2146606 L28.1640625,14.3671875 L28.1640625,14.5859375 C27.7682292,14.7526042 27.0572917,14.9322917 26.03125,15.125 C25.2708333,15.2708333 24.6888021,15.4414062 24.2851562,15.6367188 C23.8815104,15.8320312 23.5677083,16.1132812 23.34375,16.4804688 C23.1197917,16.8476562 23.0078125,17.265625 23.0078125,17.734375 C23.0078125,18.4427083 23.2539062,19.0286458 23.7460938,19.4921875 C24.2382812,19.9557292 24.9114583,20.1875 25.765625,20.1875 C26.25,20.1875 26.7057292,20.0963542 27.1328125,19.9140625 C27.5598958,19.7317708 27.9609375,19.4583333 28.3359375,19.09375 C28.3515625,19.1354167 28.3776042,19.2213542 28.4140625,19.3515625 C28.4807292,19.5807292 28.5390625,19.7648958 28.5890625,19.9040625 L28.625,20 L30.796875,20 C30.6041667,19.6041667 30.4726562,19.2330729 30.4023438,18.8867188 C30.3408203,18.5836589 30.3062134,18.1340535 30.2985229,17.5379028 L30.296875,17.2734375 L30.3203125,14.7109375 C30.3203125,13.7578125 30.2226562,13.1028646 30.0273438,12.7460938 C29.8320312,12.3893229 29.4947917,12.0950521 29.015625,11.8632812 C28.5364583,11.6315104 27.8072917,11.515625 26.828125,11.515625 Z M46.3203125,8.546875 L44.125,8.546875 L44.125,12.671875 C43.4479167,11.9010417 42.6458333,11.515625 41.71875,11.515625 C40.7083333,11.515625 39.8723958,11.8815104 39.2109375,12.6132812 C38.5494792,13.3450521 38.21875,14.4140625 38.21875,15.8203125 C38.21875,17.1953125 38.5585938,18.2669271 39.2382812,19.0351562 C39.9179688,19.8033854 40.734375,20.1875 41.6875,20.1875 C42.15625,20.1875 42.6210938,20.0716146 43.0820312,19.8398438 C43.4771205,19.641183 43.8272481,19.3535555 44.1324139,18.9769611 L44.28125,18.78125 L44.28125,20 L46.3203125,20 L46.3203125,8.546875 Z M16,8.546875 L13.8046875,8.546875 L13.8046875,20 L16,20 L16,15.84375 C16,15.1458333 16.0664062,14.6184896 16.1992188,14.2617188 C16.3320312,13.9049479 16.5416667,13.6380208 16.828125,13.4609375 C17.1145833,13.2838542 17.4401042,13.1953125 17.8046875,13.1953125 C18.1223958,13.1953125 18.3867188,13.2643229 18.5976562,13.4023438 C18.8085938,13.5403646 18.9557292,13.7265625 19.0390625,13.9609375 C19.1148201,14.1740057 19.1561424,14.6496427 19.1630294,15.3878487 L19.1640625,15.6171875 L19.1640625,20 L21.359375,20 L21.359375,15.1328125 C21.359375,14.3880208 21.3216146,13.8385417 21.2460938,13.484375 C21.1705729,13.1302083 21.0299479,12.8072917 20.8242188,12.515625 C20.6184896,12.2239583 20.3125,11.984375 19.90625,11.796875 C19.5,11.609375 19.0442708,11.515625 18.5390625,11.515625 C17.625,11.515625 16.8299453,11.8726483 16.1538983,12.5866948 L16,12.7578125 L16,8.546875 Z M36.3203125,11.515625 C35.9661458,11.515625 35.6497396,11.6041667 35.3710938,11.78125 C35.1272786,11.9361979 34.856547,12.2366943 34.5588989,12.6827393 L34.4296875,12.8828125 L34.4296875,11.703125 L32.390625,11.703125 L32.390625,20 L34.5859375,20 L34.5859375,17.4375 C34.5859375,16.0260417 34.6471354,15.0989583 34.7695312,14.65625 C34.8919271,14.2135417 35.0598958,13.9075521 35.2734375,13.7382812 C35.4869792,13.5690104 35.7473958,13.484375 36.0546875,13.484375 C36.3270089,13.484375 36.618463,13.5723852 36.9290497,13.7484056 L37.0859375,13.84375 L37.765625,11.9296875 C37.3020833,11.6536458 36.8203125,11.515625 36.3203125,11.515625 Z M28.1640625,16.015625 L28.1640625,16.453125 C28.1640625,16.9791667 28.1354167,17.3359375 28.078125,17.5234375 C27.9947917,17.8098958 27.8203125,18.0520833 27.5546875,18.25 C27.1953125,18.5104167 26.8177083,18.640625 26.421875,18.640625 C26.0677083,18.640625 25.7760417,18.5286458 25.546875,18.3046875 C25.3177083,18.0807292 25.203125,17.8151042 25.203125,17.5078125 C25.203125,17.1953125 25.3463542,16.9375 25.6328125,16.734375 C25.8203125,16.609375 26.21875,16.4817708 26.828125,16.3515625 C27.3613281,16.2376302 27.7689209,16.1376546 28.0509033,16.0516357 L28.1640625,16.015625 Z M42.296875,13.1953125 C42.8333333,13.1953125 43.2734375,13.4049479 43.6171875,13.8242188 C43.9609375,14.2434896 44.1328125,14.9296875 44.1328125,15.8828125 C44.1328125,16.7369792 43.9557292,17.3789062 43.6015625,17.8085938 C43.2473958,18.2382812 42.8177083,18.453125 42.3125,18.453125 C41.6770833,18.453125 41.1822917,18.1666667 40.828125,17.59375 C40.5833333,17.1979167 40.4609375,16.5572917 40.4609375,15.671875 C40.4609375,14.8489583 40.6367188,14.2304688 40.9882812,13.8164062 C41.3398438,13.4023438 41.7760417,13.1953125 42.296875,13.1953125 Z"></path>
    </g>
</svg>
