<?xml version="1.0" encoding="UTF-8"?>
<svg width="220px" height="30px" viewBox="0 0 220 30" version="1.1" xmlns="http://www.w3.org/2000/svg" xmlns:xlink="http://www.w3.org/1999/xlink">
    <title>MenuCommunity</title>
    <g id="Page-1" stroke="none" stroke-width="1" fill="none" fill-rule="evenodd">
        <g id="MenuCommunity" fill="#80848A">
            <path d="M215,0 C217.761424,-5.07265313e-16 220,2.23857625 220,5 L220,25 C220,27.7614237 217.761424,30 215,30 L5,30 C2.23857625,30 3.38176876e-16,27.7614237 0,25 L0,5 C-3.38176876e-16,2.23857625 2.23857625,-1.26909153e-15 5,0 L215,0 Z M115.535156,11.703125 L113.199219,11.703125 L116.355469,20.0234375 C116.22526,20.4869792 116.03776,20.8684896 115.792969,21.1679688 C115.548177,21.4674479 115.170573,21.6171875 114.660156,21.6171875 C114.453125,21.6171875 114.227051,21.5981445 113.981934,21.5600586 L113.730469,21.515625 L113.925781,23.234375 C114.332031,23.3229167 114.746094,23.3671875 115.167969,23.3671875 C115.584635,23.3671875 115.958333,23.3229167 116.289062,23.234375 C116.619792,23.1458333 116.898438,23.0221354 117.125,22.8632812 C117.351562,22.7044271 117.552083,22.4973958 117.726562,22.2421875 C117.876116,22.0234375 118.032366,21.7205038 118.195313,21.3333865 L118.277344,21.1328125 L118.800781,19.6875 L121.730469,11.703125 L119.457031,11.703125 L117.519531,17.59375 L115.535156,11.703125 Z M132.152344,11.515625 C131.60026,11.515625 131.097656,11.6458333 130.644531,11.90625 C130.256138,12.1294643 129.936623,12.4100765 129.685985,12.7480867 L129.566406,12.921875 L129.566406,11.703125 L127.519531,11.703125 L127.519531,23.15625 L129.714844,23.15625 L129.714844,18.9765625 C130.126302,19.4192708 130.518229,19.7317708 130.890625,19.9140625 C131.263021,20.0963542 131.678385,20.1875 132.136719,20.1875 C133.10026,20.1875 133.920573,19.8033854 134.597656,19.0351562 C135.27474,18.2669271 135.613281,17.1901042 135.613281,15.8046875 C135.613281,14.4557292 135.277344,13.4036458 134.605469,12.6484375 C133.933594,11.8932292 133.115885,11.515625 132.152344,11.515625 Z M50.4570312,11.515625 C49.6445312,11.515625 48.9088542,11.6953125 48.25,12.0546875 C47.5911458,12.4140625 47.0820312,12.9348958 46.7226562,13.6171875 C46.3632812,14.2994792 46.1835938,15.0052083 46.1835938,15.734375 C46.1835938,16.6875 46.3632812,17.4960938 46.7226562,18.1601562 C47.0820312,18.8242188 47.6067708,19.328125 48.296875,19.671875 C48.9869792,20.015625 49.7122396,20.1875 50.4726562,20.1875 C51.7018229,20.1875 52.7213542,19.7747396 53.53125,18.9492188 C54.3411458,18.1236979 54.7460938,17.0833333 54.7460938,15.828125 C54.7460938,14.5833333 54.3450521,13.5533854 53.5429688,12.7382812 C52.7408854,11.9231771 51.7122396,11.515625 50.4570312,11.515625 Z M41.3320312,11.515625 C40.0976562,11.515625 39.1184896,11.8971354 38.3945312,12.6601562 C37.6705729,13.4231771 37.3085938,14.4895833 37.3085938,15.859375 C37.3085938,17.2135417 37.6692708,18.2734375 38.390625,19.0390625 C39.1119792,19.8046875 40.0794271,20.1875 41.2929688,20.1875 C42.3606771,20.1875 43.2122396,19.9348958 43.8476562,19.4296875 C44.4253078,18.9704072 44.8329352,18.3109719 45.0705385,17.4513817 L45.1367188,17.1875 L42.9804688,16.8203125 C42.8710938,17.3984375 42.6835938,17.8059896 42.4179688,18.0429688 C42.1523438,18.2799479 41.8111979,18.3984375 41.3945312,18.3984375 C40.8372396,18.3984375 40.3932292,18.1953125 40.0625,17.7890625 C39.7317708,17.3828125 39.5664062,16.6875 39.5664062,15.703125 C39.5664062,14.8177083 39.7291667,14.1861979 40.0546875,13.8085938 C40.3802083,13.4309896 40.8164062,13.2421875 41.3632812,13.2421875 C41.7747396,13.2421875 42.109375,13.3515625 42.3671875,13.5703125 C42.5881696,13.7578125 42.7412309,14.0237564 42.8263712,14.3681441 L42.8632812,14.546875 L45.0273438,14.15625 C44.7669271,13.265625 44.3385417,12.6028646 43.7421875,12.1679688 C43.1458333,11.7330729 42.3424479,11.515625 41.3320312,11.515625 Z M172.582031,8.7734375 L170.378906,10.0546875 L170.378906,11.703125 L169.371094,11.703125 L169.371094,13.453125 L170.378906,13.453125 L170.378906,17.0703125 C170.378906,17.8463542 170.402344,18.3619792 170.449219,18.6171875 C170.50651,18.9765625 170.609375,19.2617188 170.757812,19.4726562 C170.90625,19.6835938 171.139323,19.8554688 171.457031,19.9882812 C171.77474,20.1210938 172.13151,20.1875 172.527344,20.1875 C173.080915,20.1875 173.584742,20.1071429 174.038823,19.9464286 L174.261719,19.859375 L174.074219,18.15625 C173.688802,18.296875 173.394531,18.3671875 173.191406,18.3671875 C173.045573,18.3671875 172.921875,18.3307292 172.820312,18.2578125 C172.71875,18.1848958 172.653646,18.0924479 172.625,17.9804688 C172.599219,17.8796875 172.585039,17.5500391 172.582461,16.9915234 L172.582031,13.453125 L174.082031,13.453125 L174.082031,11.703125 L172.582031,11.703125 L172.582031,8.7734375 Z M164.542969,11.515625 C163.44401,11.515625 162.535156,11.9049479 161.816406,12.6835938 C161.097656,13.4622396 160.738281,14.5390625 160.738281,15.9140625 C160.738281,17.0651042 161.011719,18.0182292 161.558594,18.7734375 C162.251302,19.7161458 163.31901,20.1875 164.761719,20.1875 C165.673177,20.1875 166.432292,19.9778646 167.039062,19.5585938 C167.585156,19.18125 167.999414,18.6488672 168.281836,17.9614453 L168.371094,17.7265625 L166.183594,17.359375 C166.063802,17.7760417 165.886719,18.078125 165.652344,18.265625 C165.417969,18.453125 165.128906,18.546875 164.785156,18.546875 C164.279948,18.546875 163.858073,18.3658854 163.519531,18.0039062 C163.218605,17.682147 163.045251,17.2461902 162.99947,16.6960359 L162.988281,16.484375 L168.488281,16.484375 C168.519531,14.8020833 168.178385,13.5533854 167.464844,12.7382812 C166.751302,11.9231771 165.777344,11.515625 164.542969,11.515625 Z M87.0664062,11.703125 L84.8710938,11.703125 L84.8710938,16.953125 C84.8710938,17.734375 84.9700521,18.3463542 85.1679688,18.7890625 C85.3658854,19.2317708 85.6861979,19.5755208 86.1289062,19.8203125 C86.5716146,20.0651042 87.0716146,20.1875 87.6289062,20.1875 C88.1757812,20.1875 88.6953125,20.0598958 89.1875,19.8046875 C89.609375,19.5859375 89.9614158,19.2983099 90.2436224,18.9418048 L90.3789062,18.7578125 L90.3789062,20 L92.4179688,20 L92.4179688,11.703125 L90.2226562,11.703125 L90.2226562,15.203125 C90.2226562,16.390625 90.1679688,17.1367188 90.0585938,17.4414062 C89.9492188,17.7460938 89.7460938,18.0013021 89.4492188,18.2070312 C89.1523438,18.4127604 88.8164062,18.515625 88.4414062,18.515625 C88.1132812,18.515625 87.8424479,18.4388021 87.6289062,18.2851562 C87.4153646,18.1315104 87.2682292,17.9231771 87.1875,17.6601562 C87.1125372,17.4159226 87.0723786,16.782107 87.0670241,15.7587093 L87.0664062,15.515625 L87.0664062,11.703125 Z M155.503906,11.515625 C154.311198,11.515625 153.43099,11.7604167 152.863281,12.25 C152.295573,12.7395833 152.011719,13.34375 152.011719,14.0625 C152.011719,14.859375 152.339844,15.4817708 152.996094,15.9296875 C153.470052,16.2526042 154.592448,16.609375 156.363281,17 C156.74349,17.0885417 156.988281,17.1848958 157.097656,17.2890625 C157.201823,17.3984375 157.253906,17.5364583 157.253906,17.703125 C157.253906,17.9479167 157.157552,18.1432292 156.964844,18.2890625 C156.678385,18.4973958 156.251302,18.6015625 155.683594,18.6015625 C155.167969,18.6015625 154.766927,18.4908854 154.480469,18.2695312 C154.234933,18.0797991 154.060188,17.814493 153.956234,17.4736129 L153.910156,17.296875 L151.707031,17.6328125 C151.910156,18.4192708 152.341146,19.0416667 153,19.5 C153.658854,19.9583333 154.553385,20.1875 155.683594,20.1875 C156.928385,20.1875 157.86849,19.9140625 158.503906,19.3671875 C159.139323,18.8203125 159.457031,18.1666667 159.457031,17.40625 C159.457031,16.7083333 159.227865,16.1640625 158.769531,15.7734375 C158.30599,15.3880208 157.489583,15.0625 156.320312,14.796875 C155.151042,14.53125 154.467448,14.3255208 154.269531,14.1796875 C154.123698,14.0703125 154.050781,13.9375 154.050781,13.78125 C154.050781,13.5989583 154.134115,13.4505208 154.300781,13.3359375 C154.550781,13.1744792 154.964844,13.09375 155.542969,13.09375 C156.001302,13.09375 156.354167,13.1796875 156.601562,13.3515625 C156.807726,13.4947917 156.958731,13.6904659 157.054579,13.9385851 L157.105469,14.09375 L159.175781,13.7109375 C158.967448,12.9869792 158.58724,12.4401042 158.035156,12.0703125 C157.483073,11.7005208 156.639323,11.515625 155.503906,11.515625 Z M146.746094,11.515625 C145.647135,11.515625 144.738281,11.9049479 144.019531,12.6835938 C143.300781,13.4622396 142.941406,14.5390625 142.941406,15.9140625 C142.941406,17.0651042 143.214844,18.0182292 143.761719,18.7734375 C144.454427,19.7161458 145.522135,20.1875 146.964844,20.1875 C147.876302,20.1875 148.635417,19.9778646 149.242188,19.5585938 C149.788281,19.18125 150.202539,18.6488672 150.484961,17.9614453 L150.574219,17.7265625 L148.386719,17.359375 C148.266927,17.7760417 148.089844,18.078125 147.855469,18.265625 C147.621094,18.453125 147.332031,18.546875 146.988281,18.546875 C146.483073,18.546875 146.061198,18.3658854 145.722656,18.0039062 C145.42173,17.682147 145.248376,17.2461902 145.202595,16.6960359 L145.191406,16.484375 L150.691406,16.484375 C150.722656,14.8020833 150.38151,13.5533854 149.667969,12.7382812 C148.954427,11.9231771 147.980469,11.515625 146.746094,11.515625 Z M111.214844,8.7734375 L109.011719,10.0546875 L109.011719,11.703125 L108.003906,11.703125 L108.003906,13.453125 L109.011719,13.453125 L109.011719,17.0703125 C109.011719,17.8463542 109.035156,18.3619792 109.082031,18.6171875 C109.139323,18.9765625 109.242188,19.2617188 109.390625,19.4726562 C109.539062,19.6835938 109.772135,19.8554688 110.089844,19.9882812 C110.407552,20.1210938 110.764323,20.1875 111.160156,20.1875 C111.713728,20.1875 112.217554,20.1071429 112.671636,19.9464286 L112.894531,19.859375 L112.707031,18.15625 C112.321615,18.296875 112.027344,18.3671875 111.824219,18.3671875 C111.678385,18.3671875 111.554688,18.3307292 111.453125,18.2578125 C111.351562,18.1848958 111.286458,18.0924479 111.257812,17.9804688 C111.232031,17.8796875 111.217852,17.5500391 111.215273,16.9915234 L111.214844,16.796875 L111.214844,13.453125 L112.714844,13.453125 L112.714844,11.703125 L111.214844,11.703125 L111.214844,8.7734375 Z M178.628906,11.515625 C177.436198,11.515625 176.55599,11.7604167 175.988281,12.25 C175.420573,12.7395833 175.136719,13.34375 175.136719,14.0625 C175.136719,14.859375 175.464844,15.4817708 176.121094,15.9296875 C176.595052,16.2526042 177.717448,16.609375 179.488281,17 C179.86849,17.0885417 180.113281,17.1848958 180.222656,17.2890625 C180.326823,17.3984375 180.378906,17.5364583 180.378906,17.703125 C180.378906,17.9479167 180.282552,18.1432292 180.089844,18.2890625 C179.803385,18.4973958 179.376302,18.6015625 178.808594,18.6015625 C178.292969,18.6015625 177.891927,18.4908854 177.605469,18.2695312 C177.359933,18.0797991 177.185188,17.814493 177.081234,17.4736129 L177.035156,17.296875 L174.832031,17.6328125 C175.035156,18.4192708 175.466146,19.0416667 176.125,19.5 C176.783854,19.9583333 177.678385,20.1875 178.808594,20.1875 C180.053385,20.1875 180.99349,19.9140625 181.628906,19.3671875 C182.264323,18.8203125 182.582031,18.1666667 182.582031,17.40625 C182.582031,16.7083333 182.352865,16.1640625 181.894531,15.7734375 C181.43099,15.3880208 180.614583,15.0625 179.445312,14.796875 C178.276042,14.53125 177.592448,14.3255208 177.394531,14.1796875 C177.248698,14.0703125 177.175781,13.9375 177.175781,13.78125 C177.175781,13.5989583 177.259115,13.4505208 177.425781,13.3359375 C177.675781,13.1744792 178.089844,13.09375 178.667969,13.09375 C179.126302,13.09375 179.479167,13.1796875 179.726562,13.3515625 C179.932726,13.4947917 180.083731,13.6904659 180.179579,13.9385851 L180.230469,14.09375 L182.300781,13.7109375 C182.092448,12.9869792 181.71224,12.4401042 181.160156,12.0703125 C180.608073,11.7005208 179.764323,11.515625 178.628906,11.515625 Z M141.191406,11.515625 C140.83724,11.515625 140.520833,11.6041667 140.242188,11.78125 C139.998372,11.9361979 139.727641,12.2366943 139.429993,12.6827393 L139.300781,12.8828125 L139.300781,11.703125 L137.261719,11.703125 L137.261719,20 L139.457031,20 L139.457847,17.1616667 C139.465463,15.9045833 139.526389,15.0694444 139.640625,14.65625 C139.763021,14.2135417 139.93099,13.9075521 140.144531,13.7382812 C140.358073,13.5690104 140.61849,13.484375 140.925781,13.484375 C141.198103,13.484375 141.489557,13.5723852 141.800143,13.7484056 L141.957031,13.84375 L142.636719,11.9296875 C142.173177,11.6536458 141.691406,11.515625 141.191406,11.515625 Z M106.660156,11.703125 L104.464844,11.703125 L104.464844,20 L106.660156,20 L106.660156,11.703125 Z M99.4492188,11.515625 C98.4235243,11.515625 97.5611632,11.9239583 96.8621354,12.740625 L96.7148438,12.921875 L96.7148438,11.703125 L94.6757812,11.703125 L94.6757812,20 L96.8710938,20 L96.8710938,16.2421875 C96.8710938,15.3151042 96.9270833,14.6796875 97.0390625,14.3359375 C97.1510417,13.9921875 97.3580729,13.7161458 97.6601562,13.5078125 C97.9622396,13.2994792 98.3033854,13.1953125 98.6835938,13.1953125 C98.9804688,13.1953125 99.234375,13.2682292 99.4453125,13.4140625 C99.65625,13.5598958 99.8085938,13.7643229 99.9023438,14.0273438 C99.987571,14.2664536 100.034059,14.7670562 100.041807,15.5291516 L100.042969,15.765625 L100.042969,20 L102.238281,20 L102.238281,14.84375 C102.238281,14.203125 102.197917,13.7109375 102.117188,13.3671875 C102.036458,13.0234375 101.893229,12.7161458 101.6875,12.4453125 C101.481771,12.1744792 101.178385,11.9518229 100.777344,11.7773438 C100.376302,11.6028646 99.9335938,11.515625 99.4492188,11.515625 Z M80.0117188,11.515625 C79.5325521,11.515625 79.0820312,11.625 78.6601562,11.84375 C78.2382812,12.0625 77.8450521,12.3932292 77.4804688,12.8359375 C77.2304688,12.3932292 76.9101562,12.0625 76.5195312,11.84375 C76.1289062,11.625 75.6679688,11.515625 75.1367188,11.515625 C74.2081473,11.515625 73.3985837,11.8951026 72.7080277,12.6540577 L72.5507812,12.8359375 L72.5507812,11.703125 L70.5273438,11.703125 L70.5273438,20 L72.7226562,20 L72.7226562,15.96875 C72.7226562,15.171875 72.78125,14.6015625 72.8984375,14.2578125 C73.015625,13.9140625 73.2096354,13.6510417 73.4804688,13.46875 C73.7513021,13.2864583 74.0559896,13.1953125 74.3945312,13.1953125 C74.6757812,13.1953125 74.8984375,13.2526042 75.0625,13.3671875 C75.2265625,13.4817708 75.3476562,13.65625 75.4257812,13.890625 C75.4960938,14.1015625 75.5347656,14.5445312 75.5417969,15.2195312 L75.5429688,15.453125 L75.5429688,20 L77.7382812,20 L77.7382812,16.015625 C77.7382812,15.234375 77.7981771,14.6627604 77.9179688,14.3007812 C78.0377604,13.9388021 78.2330729,13.6640625 78.5039062,13.4765625 C78.7747396,13.2890625 79.0638021,13.1953125 79.3710938,13.1953125 C79.7929688,13.1953125 80.1054688,13.3515625 80.3085938,13.6640625 C80.4459044,13.8818655 80.5208011,14.3407154 80.5332838,15.0406121 L80.5351562,15.2578125 L80.5351562,20 L82.7304688,20 L82.7304688,14.6953125 C82.7304688,13.9036458 82.6549479,13.3307292 82.5039062,12.9765625 C82.2955729,12.4973958 81.9804688,12.1341146 81.5585938,11.8867188 C81.1367188,11.6393229 80.6210938,11.515625 80.0117188,11.515625 Z M65.7851562,11.515625 C65.3059896,11.515625 64.8554688,11.625 64.4335938,11.84375 C64.0117188,12.0625 63.6184896,12.3932292 63.2539062,12.8359375 C63.0039062,12.3932292 62.6835938,12.0625 62.2929688,11.84375 C61.9023438,11.625 61.4414062,11.515625 60.9101562,11.515625 C59.9815848,11.515625 59.1720212,11.8951026 58.4814652,12.6540577 L58.3242188,12.8359375 L58.3242188,11.703125 L56.3007812,11.703125 L56.3007812,20 L58.4960938,20 L58.4960938,15.96875 C58.4960938,15.171875 58.5546875,14.6015625 58.671875,14.2578125 C58.7890625,13.9140625 58.9830729,13.6510417 59.2539062,13.46875 C59.5247396,13.2864583 59.8294271,13.1953125 60.1679688,13.1953125 C60.4492188,13.1953125 60.671875,13.2526042 60.8359375,13.3671875 C61,13.4817708 61.1210938,13.65625 61.1992188,13.890625 C61.2695312,14.1015625 61.3082031,14.5445312 61.3152344,15.2195312 L61.3164062,15.453125 L61.3164062,20 L63.5117188,20 L63.5117188,16.015625 C63.5117188,15.234375 63.5716146,14.6627604 63.6914062,14.3007812 C63.8111979,13.9388021 64.0065104,13.6640625 64.2773438,13.4765625 C64.5481771,13.2890625 64.8372396,13.1953125 65.1445312,13.1953125 C65.5664062,13.1953125 65.8789062,13.3515625 66.0820312,13.6640625 C66.2193419,13.8818655 66.2942386,14.3407154 66.3067213,15.0406121 L66.3085938,15.2578125 L66.3085938,20 L68.5039062,20 L68.5039062,14.6953125 C68.5039062,13.9036458 68.4283854,13.3307292 68.2773438,12.9765625 C68.0690104,12.4973958 67.7539062,12.1341146 67.3320312,11.8867188 C66.9101562,11.6393229 66.3945312,11.515625 65.7851562,11.515625 Z M131.558594,13.25 C132.074219,13.25 132.50651,13.4609375 132.855469,13.8828125 C133.204427,14.3046875 133.378906,14.9505208 133.378906,15.8203125 C133.378906,16.7526042 133.209635,17.4231771 132.871094,17.8320312 C132.532552,18.2408854 132.108073,18.4453125 131.597656,18.4453125 C131.066406,18.4453125 130.615885,18.2226562 130.246094,17.7773438 C129.876302,17.3320312 129.691406,16.6432292 129.691406,15.7109375 C129.691406,14.8984375 129.86849,14.2851562 130.222656,13.8710938 C130.576823,13.4570312 131.022135,13.25 131.558594,13.25 Z M50.4648438,13.3046875 C51.0377604,13.3046875 51.5182292,13.5234375 51.90625,13.9609375 C52.2942708,14.3984375 52.4882812,15.0234375 52.4882812,15.8359375 C52.4882812,16.6692708 52.2942708,17.3046875 51.90625,17.7421875 C51.5182292,18.1796875 51.0377604,18.3984375 50.4648438,18.3984375 C49.8919271,18.3984375 49.4101562,18.1796875 49.0195312,17.7421875 C48.6289062,17.3046875 48.4335938,16.6744792 48.4335938,15.8515625 C48.4335938,15.0286458 48.6289062,14.3984375 49.0195312,13.9609375 C49.4101562,13.5234375 49.8919271,13.3046875 50.4648438,13.3046875 Z M146.878906,13.1953125 C147.326823,13.1953125 147.707031,13.3606771 148.019531,13.6914062 C148.332031,14.0221354 148.496094,14.5052083 148.511719,15.140625 L145.230469,15.140625 C145.22526,14.5416667 145.378906,14.0677083 145.691406,13.71875 C146.003906,13.3697917 146.39974,13.1953125 146.878906,13.1953125 Z M164.675781,13.1953125 C165.123698,13.1953125 165.503906,13.3606771 165.816406,13.6914062 C166.128906,14.0221354 166.292969,14.5052083 166.308594,15.140625 L163.027344,15.140625 C163.022135,14.5416667 163.175781,14.0677083 163.488281,13.71875 C163.800781,13.3697917 164.196615,13.1953125 164.675781,13.1953125 Z M106.660156,8.546875 L104.464844,8.546875 L104.464844,10.578125 L106.660156,10.578125 L106.660156,8.546875 Z" id="Shape"></path>
        </g>
    </g>
</svg>