<?xml version="1.0" encoding="UTF-8"?>
<svg width="300px" height="40px" viewBox="0 0 300 40" version="1.1" xmlns="http://www.w3.org/2000/svg" xmlns:xlink="http://www.w3.org/1999/xlink">
    <title>Duplicate</title>
    <g stroke="none" stroke-width="1" fill="none" fill-rule="evenodd">
        <g id="Duplicate">
            <polygon fill="#FFFFFF" points="0 5.05077461e-13 300 5.05077461e-13 300 40 0 40"></polygon>
            <line x1="1" y1="39.5" x2="299" y2="39.5" id="Line" stroke="#DBDBDB" stroke-linecap="square"></line>
            <path fill="#424242" fill-rule="nonzero" d="M61.640625,26.2109375 C62.1679688,26.2109375 62.690918,26.0805664 63.2094727,25.8198242 C63.7280273,25.559082 64.1777344,25.1621094 64.5585938,24.6289062 L64.5585938,24.6289062 L64.5585938,26 L66.8525391,26 L66.8525391,13.1152344 L64.3828125,13.1152344 L64.3828125,17.7558594 C63.6210938,16.8886719 62.71875,16.4550781 61.6757812,16.4550781 C60.5390625,16.4550781 59.5986328,16.8666992 58.8544922,17.6899414 C58.1103516,18.5131836 57.7382812,19.7158203 57.7382812,21.2978516 C57.7382812,22.8447266 58.1206055,24.050293 58.8852539,24.9145508 C59.6499023,25.7788086 60.5683594,26.2109375 61.640625,26.2109375 Z M62.34375,24.2597656 C61.6289062,24.2597656 61.0722656,23.9375 60.6738281,23.2929688 C60.3984375,22.8476562 60.2607422,22.1269531 60.2607422,21.1308594 C60.2607422,20.2050781 60.4584961,19.5092773 60.8540039,19.043457 C61.2495117,18.5776367 61.7402344,18.3447266 62.3261719,18.3447266 C62.9296875,18.3447266 63.4248047,18.5805664 63.8115234,19.0522461 C64.1982422,19.5239258 64.3916016,20.2958984 64.3916016,21.3681641 C64.3916016,22.3291016 64.1923828,23.0512695 63.7939453,23.534668 C63.3955078,24.0180664 62.9121094,24.2597656 62.34375,24.2597656 Z M72.3369141,26.2109375 C72.9521484,26.2109375 73.5366211,26.0673828 74.090332,25.7802734 C74.644043,25.4931641 75.0908203,25.1005859 75.4306641,24.6025391 L75.4306641,24.6025391 L75.4306641,26 L77.7246094,26 L77.7246094,16.6660156 L75.2548828,16.6660156 L75.2540625,20.864082 C75.2464062,22.0491602 75.1851562,22.8016602 75.0703125,23.121582 C74.9472656,23.4643555 74.71875,23.7514648 74.3847656,23.9829102 C74.0507812,24.2143555 73.6728516,24.3300781 73.2509766,24.3300781 C72.8818359,24.3300781 72.5771484,24.2436523 72.3369141,24.0708008 C72.0966797,23.8979492 71.9311523,23.6635742 71.840332,23.3676758 C71.7495117,23.0717773 71.7041016,22.2675781 71.7041016,20.9550781 L71.7041016,16.6660156 L69.234375,16.6660156 L69.234375,22.5722656 C69.234375,23.4511719 69.3457031,24.1396484 69.5683594,24.6376953 C69.7910156,25.1357422 70.1513672,25.5224609 70.6494141,25.7978516 C71.1474609,26.0732422 71.7099609,26.2109375 72.3369141,26.2109375 Z M82.6816406,29.5507812 L82.6816406,24.8486328 C83.1445312,25.3466797 83.5854492,25.6982422 84.0043945,25.9033203 C84.4233398,26.1083984 84.890625,26.2109375 85.40625,26.2109375 C86.4902344,26.2109375 87.4130859,25.7788086 88.1748047,24.9145508 C88.9365234,24.050293 89.3173828,22.8388672 89.3173828,21.2802734 C89.3173828,19.7626953 88.9394531,18.5791016 88.1835938,17.7294922 C87.4277344,16.8798828 86.5078125,16.4550781 85.4238281,16.4550781 C84.8027344,16.4550781 84.2373047,16.6015625 83.7275391,16.8945312 C83.2177734,17.1875 82.8134766,17.5683594 82.5146484,18.0371094 L82.5146484,18.0371094 L82.5146484,16.6660156 L80.2119141,16.6660156 L80.2119141,29.5507812 L82.6816406,29.5507812 Z M84.7998047,24.2509766 C84.2021484,24.2509766 83.6953125,24.0004883 83.2792969,23.4995117 C82.8632812,22.9985352 82.6552734,22.2236328 82.6552734,21.1748047 C82.6552734,20.2607422 82.8544922,19.5708008 83.2529297,19.1049805 C83.6513672,18.6391602 84.1523438,18.40625 84.7558594,18.40625 C85.3359375,18.40625 85.8222656,18.6435547 86.2148438,19.1181641 C86.6074219,19.5927734 86.8037109,20.3193359 86.8037109,21.2978516 C86.8037109,22.3466797 86.6132812,23.1010742 86.2324219,23.5610352 C85.8515625,24.0209961 85.3740234,24.2509766 84.7998047,24.2509766 Z M93.7470703,26 L93.7470703,13.1152344 L91.2773438,13.1152344 L91.2773438,26 L93.7470703,26 Z M98.7480469,15.4003906 L98.7480469,13.1152344 L96.2783203,13.1152344 L96.2783203,15.4003906 L98.7480469,15.4003906 Z M98.7480469,26 L98.7480469,16.6660156 L96.2783203,16.6660156 L96.2783203,26 L98.7480469,26 Z M105.216797,26.2109375 C106.417969,26.2109375 107.375977,25.9267578 108.09082,25.3583984 C108.805664,24.7900391 109.289062,23.9492188 109.541016,22.8359375 L109.541016,22.8359375 L107.115234,22.4228516 C106.992188,23.0732422 106.78125,23.5317383 106.482422,23.7983398 C106.183594,24.0649414 105.799805,24.1982422 105.331055,24.1982422 C104.704102,24.1982422 104.20459,23.9697266 103.83252,23.5126953 C103.460449,23.0556641 103.274414,22.2734375 103.274414,21.1660156 C103.274414,20.1699219 103.45752,19.4594727 103.82373,19.034668 C104.189941,18.6098633 104.680664,18.3974609 105.295898,18.3974609 C105.758789,18.3974609 106.135254,18.5205078 106.425293,18.7666016 C106.715332,19.0126953 106.901367,19.3789062 106.983398,19.8652344 L106.983398,19.8652344 L109.417969,19.4257812 C109.125,18.4238281 108.643066,17.6782227 107.972168,17.1889648 C107.30127,16.699707 106.397461,16.4550781 105.260742,16.4550781 C103.87207,16.4550781 102.770508,16.8842773 101.956055,17.7426758 C101.141602,18.6010742 100.734375,19.8007812 100.734375,21.3417969 C100.734375,22.8652344 101.140137,24.0576172 101.95166,24.9189453 C102.763184,25.7802734 103.851562,26.2109375 105.216797,26.2109375 Z M113.742188,26.2109375 C114.287109,26.2109375 114.799805,26.1083984 115.280273,25.9033203 C115.760742,25.6982422 116.211914,25.390625 116.633789,24.9804688 C116.651367,25.0273438 116.680664,25.1240234 116.72168,25.2705078 C116.81543,25.5927734 116.894531,25.8359375 116.958984,26 L116.958984,26 L119.402344,26 C119.185547,25.5546875 119.037598,25.137207 118.958496,24.7475586 C118.879395,24.3579102 118.839844,23.7529297 118.839844,22.9326172 L118.839844,22.9326172 L118.866211,20.0498047 C118.866211,18.9775391 118.756348,18.2407227 118.536621,17.8393555 C118.316895,17.4379883 117.9375,17.1069336 117.398438,16.8461914 C116.859375,16.5854492 116.039062,16.4550781 114.9375,16.4550781 C113.724609,16.4550781 112.810547,16.671875 112.195312,17.1054688 C111.580078,17.5390625 111.146484,18.2070312 110.894531,19.109375 L110.894531,19.109375 L113.135742,19.5136719 C113.288086,19.0800781 113.487305,18.7768555 113.733398,18.6040039 C113.979492,18.4311523 114.322266,18.3447266 114.761719,18.3447266 C115.412109,18.3447266 115.854492,18.4458008 116.088867,18.6479492 C116.323242,18.8500977 116.44043,19.1884766 116.44043,19.6630859 L116.44043,19.6630859 L116.44043,19.9091797 C115.995117,20.0966797 115.195312,20.2988281 114.041016,20.515625 C113.185547,20.6796875 112.530762,20.871582 112.07666,21.0913086 C111.622559,21.3110352 111.269531,21.6274414 111.017578,22.0405273 C110.765625,22.4536133 110.639648,22.9238281 110.639648,23.4511719 C110.639648,24.2480469 110.916504,24.9072266 111.470215,25.4287109 C112.023926,25.9501953 112.78125,26.2109375 113.742188,26.2109375 Z M114.480469,24.4707031 C114.082031,24.4707031 113.753906,24.3447266 113.496094,24.0927734 C113.238281,23.8408203 113.109375,23.5419922 113.109375,23.1962891 C113.109375,22.8447266 113.270508,22.5546875 113.592773,22.3261719 C113.803711,22.1855469 114.251953,22.0419922 114.9375,21.8955078 C115.623047,21.7490234 116.124023,21.6230469 116.44043,21.5175781 L116.44043,21.5175781 L116.44043,22.0097656 C116.44043,22.6015625 116.408203,23.0029297 116.34375,23.2138672 C116.25,23.5361328 116.053711,23.8085938 115.754883,24.03125 C115.350586,24.3242188 114.925781,24.4707031 114.480469,24.4707031 Z M123.832031,26.2109375 C124.558594,26.2109375 125.208984,26.0878906 125.783203,25.8417969 L125.783203,25.8417969 L125.572266,23.9257812 C125.138672,24.0839844 124.807617,24.1630859 124.579102,24.1630859 C124.415039,24.1630859 124.275879,24.1220703 124.161621,24.0400391 C124.047363,23.9580078 123.974121,23.8540039 123.941895,23.7280273 C123.909668,23.6020508 123.893555,23.1582031 123.893555,22.3964844 L123.893555,18.6347656 L125.581055,18.6347656 L125.581055,16.6660156 L123.893555,16.6660156 L123.893555,13.3701172 L121.415039,14.8115234 L121.415039,16.6660156 L120.28125,16.6660156 L120.28125,18.6347656 L121.415039,18.6347656 L121.415693,22.9349416 C121.420051,23.680196 121.4462,24.1833274 121.494141,24.4443359 C121.558594,24.8486328 121.674316,25.1694336 121.841309,25.4067383 C122.008301,25.644043 122.270508,25.8374023 122.62793,25.9868164 C122.985352,26.1362305 123.386719,26.2109375 123.832031,26.2109375 Z M131.100586,26.2109375 C132.125977,26.2109375 132.97998,25.9750977 133.662598,25.503418 C134.345215,25.0317383 134.844727,24.3447266 135.161133,23.4423828 L135.161133,23.4423828 L132.700195,23.0292969 C132.56543,23.4980469 132.366211,23.8378906 132.102539,24.0488281 C131.838867,24.2597656 131.513672,24.3652344 131.126953,24.3652344 C130.558594,24.3652344 130.083984,24.1616211 129.703125,23.7543945 C129.322266,23.347168 129.123047,22.7773438 129.105469,22.0449219 L129.105469,22.0449219 L135.292969,22.0449219 C135.328125,20.1523438 134.944336,18.7475586 134.141602,17.8305664 C133.338867,16.9135742 132.243164,16.4550781 130.854492,16.4550781 C129.618164,16.4550781 128.595703,16.8930664 127.787109,17.769043 C126.978516,18.6450195 126.574219,19.8564453 126.574219,21.4033203 C126.574219,22.6982422 126.881836,23.7705078 127.49707,24.6201172 C128.276367,25.6806641 129.477539,26.2109375 131.100586,26.2109375 Z M132.84082,20.5332031 L129.149414,20.5332031 C129.143555,19.859375 129.316406,19.3261719 129.667969,18.9335938 C130.019531,18.5410156 130.464844,18.3447266 131.003906,18.3447266 C131.507812,18.3447266 131.935547,18.5307617 132.287109,18.902832 C132.638672,19.2749023 132.823242,19.8183594 132.84082,20.5332031 L132.84082,20.5332031 Z M146.244141,26.2109375 C147.445312,26.2109375 148.40332,25.9267578 149.118164,25.3583984 C149.833008,24.7900391 150.316406,23.9492188 150.568359,22.8359375 L150.568359,22.8359375 L148.142578,22.4228516 C148.019531,23.0732422 147.808594,23.5317383 147.509766,23.7983398 C147.210938,24.0649414 146.827148,24.1982422 146.358398,24.1982422 C145.731445,24.1982422 145.231934,23.9697266 144.859863,23.5126953 C144.487793,23.0556641 144.301758,22.2734375 144.301758,21.1660156 C144.301758,20.1699219 144.484863,19.4594727 144.851074,19.034668 C145.217285,18.6098633 145.708008,18.3974609 146.323242,18.3974609 C146.786133,18.3974609 147.162598,18.5205078 147.452637,18.7666016 C147.742676,19.0126953 147.928711,19.3789062 148.010742,19.8652344 L148.010742,19.8652344 L150.445312,19.4257812 C150.152344,18.4238281 149.67041,17.6782227 148.999512,17.1889648 C148.328613,16.699707 147.424805,16.4550781 146.288086,16.4550781 C144.899414,16.4550781 143.797852,16.8842773 142.983398,17.7426758 C142.168945,18.6010742 141.761719,19.8007812 141.761719,21.3417969 C141.761719,22.8652344 142.16748,24.0576172 142.979004,24.9189453 C143.790527,25.7802734 144.878906,26.2109375 146.244141,26.2109375 Z M155.367188,26.2109375 C155.982422,26.2109375 156.566895,26.0673828 157.120605,25.7802734 C157.674316,25.4931641 158.121094,25.1005859 158.460938,24.6025391 L158.460938,24.6025391 L158.460938,26 L160.754883,26 L160.754883,16.6660156 L158.285156,16.6660156 L158.285156,20.6035156 C158.285156,21.9394531 158.223633,22.7788086 158.100586,23.121582 C157.977539,23.4643555 157.749023,23.7514648 157.415039,23.9829102 C157.081055,24.2143555 156.703125,24.3300781 156.28125,24.3300781 C155.912109,24.3300781 155.607422,24.2436523 155.367188,24.0708008 C155.126953,23.8979492 154.961426,23.6635742 154.870605,23.3676758 C154.779785,23.0717773 154.734375,22.2675781 154.734375,20.9550781 L154.734375,16.6660156 L152.264648,16.6660156 L152.264648,22.5722656 C152.264648,23.4511719 152.375977,24.1396484 152.598633,24.6376953 C152.821289,25.1357422 153.181641,25.5224609 153.679688,25.7978516 C154.177734,26.0732422 154.740234,26.2109375 155.367188,26.2109375 Z M165.676758,26 L165.676758,23.1171875 C165.676758,21.5292969 165.745605,20.4863281 165.883301,19.9882812 C166.020996,19.4902344 166.209961,19.1459961 166.450195,18.9555664 C166.69043,18.7651367 166.983398,18.6699219 167.329102,18.6699219 C167.686523,18.6699219 168.073242,18.8046875 168.489258,19.0742188 L168.489258,19.0742188 L169.253906,16.9208984 C168.732422,16.6103516 168.19043,16.4550781 167.62793,16.4550781 C167.229492,16.4550781 166.873535,16.5546875 166.560059,16.7539062 C166.246582,16.953125 165.893555,17.3662109 165.500977,17.9931641 L165.500977,17.9931641 L165.500977,16.6660156 L163.207031,16.6660156 L163.207031,26 L165.676758,26 Z M172.681641,26 L172.681641,23.1171875 C172.681641,21.5292969 172.750488,20.4863281 172.888184,19.9882812 C173.025879,19.4902344 173.214844,19.1459961 173.455078,18.9555664 C173.695312,18.7651367 173.988281,18.6699219 174.333984,18.6699219 C174.691406,18.6699219 175.078125,18.8046875 175.494141,19.0742188 L175.494141,19.0742188 L176.258789,16.9208984 C175.737305,16.6103516 175.195312,16.4550781 174.632812,16.4550781 C174.234375,16.4550781 173.878418,16.5546875 173.564941,16.7539062 C173.251465,16.953125 172.898438,17.3662109 172.505859,17.9931641 L172.505859,17.9931641 L172.505859,16.6660156 L170.211914,16.6660156 L170.211914,26 L172.681641,26 Z M181.12793,26.2109375 C182.15332,26.2109375 183.007324,25.9750977 183.689941,25.503418 C184.372559,25.0317383 184.87207,24.3447266 185.188477,23.4423828 L185.188477,23.4423828 L182.727539,23.0292969 C182.592773,23.4980469 182.393555,23.8378906 182.129883,24.0488281 C181.866211,24.2597656 181.541016,24.3652344 181.154297,24.3652344 C180.585938,24.3652344 180.111328,24.1616211 179.730469,23.7543945 C179.349609,23.347168 179.150391,22.7773438 179.132812,22.0449219 L179.132812,22.0449219 L185.320312,22.0449219 C185.355469,20.1523438 184.97168,18.7475586 184.168945,17.8305664 C183.366211,16.9135742 182.270508,16.4550781 180.881836,16.4550781 C179.645508,16.4550781 178.623047,16.8930664 177.814453,17.769043 C177.005859,18.6450195 176.601562,19.8564453 176.601562,21.4033203 C176.601562,22.6982422 176.90918,23.7705078 177.524414,24.6201172 C178.303711,25.6806641 179.504883,26.2109375 181.12793,26.2109375 Z M182.868164,20.5332031 L179.176758,20.5332031 C179.170898,19.859375 179.34375,19.3261719 179.695312,18.9335938 C180.046875,18.5410156 180.492188,18.3447266 181.03125,18.3447266 C181.535156,18.3447266 181.962891,18.5307617 182.314453,18.902832 C182.666016,19.2749023 182.850586,19.8183594 182.868164,20.5332031 L182.868164,20.5332031 Z M189.785156,26 L189.785156,21.7724609 C189.785156,20.7294922 189.848145,20.0146484 189.974121,19.6279297 C190.100098,19.2412109 190.333008,18.9306641 190.672852,18.6962891 C191.012695,18.4619141 191.396484,18.3447266 191.824219,18.3447266 C192.158203,18.3447266 192.443848,18.4267578 192.681152,18.5908203 C192.918457,18.7548828 193.089844,18.9848633 193.195312,19.2807617 C193.300781,19.5766602 193.353516,20.2285156 193.353516,21.2363281 L193.353516,21.2363281 L193.353516,26 L195.823242,26 L195.823242,20.1992188 C195.823242,19.4785156 195.777832,18.9248047 195.687012,18.5380859 C195.596191,18.1513672 195.435059,17.8056641 195.203613,17.5009766 C194.972168,17.1962891 194.630859,16.9458008 194.179688,16.7495117 C193.728516,16.5532227 193.230469,16.4550781 192.685547,16.4550781 C191.449219,16.4550781 190.423828,16.9824219 189.609375,18.0371094 L189.609375,18.0371094 L189.609375,16.6660156 L187.31543,16.6660156 L187.31543,26 L189.785156,26 Z M200.859375,26.2109375 C201.585938,26.2109375 202.236328,26.0878906 202.810547,25.8417969 L202.810547,25.8417969 L202.599609,23.9257812 C202.166016,24.0839844 201.834961,24.1630859 201.606445,24.1630859 C201.442383,24.1630859 201.303223,24.1220703 201.188965,24.0400391 C201.074707,23.9580078 201.001465,23.8540039 200.969238,23.7280273 C200.937012,23.6020508 200.920898,23.1582031 200.920898,22.3964844 L200.920898,22.3964844 L200.920898,18.6347656 L202.608398,18.6347656 L202.608398,16.6660156 L200.920898,16.6660156 L200.920898,13.3701172 L198.442383,14.8115234 L198.442383,16.6660156 L197.308594,16.6660156 L197.308594,18.6347656 L198.442383,18.6347656 L198.442383,22.7041016 C198.442383,23.5771484 198.46875,24.1572266 198.521484,24.4443359 C198.585938,24.8486328 198.70166,25.1694336 198.868652,25.4067383 C199.035645,25.644043 199.297852,25.8374023 199.655273,25.9868164 C200.012695,26.1362305 200.414062,26.2109375 200.859375,26.2109375 Z M211.722656,29.5507812 L211.722656,24.8486328 C212.185547,25.3466797 212.626465,25.6982422 213.04541,25.9033203 C213.464355,26.1083984 213.931641,26.2109375 214.447266,26.2109375 C215.53125,26.2109375 216.454102,25.7788086 217.21582,24.9145508 C217.977539,24.050293 218.358398,22.8388672 218.358398,21.2802734 C218.358398,19.7626953 217.980469,18.5791016 217.224609,17.7294922 C216.46875,16.8798828 215.548828,16.4550781 214.464844,16.4550781 C213.84375,16.4550781 213.27832,16.6015625 212.768555,16.8945312 C212.258789,17.1875 211.854492,17.5683594 211.555664,18.0371094 L211.555664,18.0371094 L211.555664,16.6660156 L209.25293,16.6660156 L209.25293,29.5507812 L211.722656,29.5507812 Z M213.84082,24.2509766 C213.243164,24.2509766 212.736328,24.0004883 212.320312,23.4995117 C211.904297,22.9985352 211.696289,22.2236328 211.696289,21.1748047 C211.696289,20.2607422 211.895508,19.5708008 212.293945,19.1049805 C212.692383,18.6391602 213.193359,18.40625 213.796875,18.40625 C214.376953,18.40625 214.863281,18.6435547 215.255859,19.1181641 C215.648438,19.5927734 215.844727,20.3193359 215.844727,21.2978516 C215.844727,22.3466797 215.654297,23.1010742 215.273438,23.5610352 C214.892578,24.0209961 214.415039,24.2509766 213.84082,24.2509766 Z M222.682617,26 L222.682617,23.1171875 C222.682617,21.5292969 222.751465,20.4863281 222.88916,19.9882812 C223.026855,19.4902344 223.21582,19.1459961 223.456055,18.9555664 C223.696289,18.7651367 223.989258,18.6699219 224.334961,18.6699219 C224.692383,18.6699219 225.079102,18.8046875 225.495117,19.0742188 L225.495117,19.0742188 L226.259766,16.9208984 C225.738281,16.6103516 225.196289,16.4550781 224.633789,16.4550781 C224.235352,16.4550781 223.879395,16.5546875 223.565918,16.7539062 C223.252441,16.953125 222.899414,17.3662109 222.506836,17.9931641 L222.506836,17.9931641 L222.506836,16.6660156 L220.212891,16.6660156 L220.212891,26 L222.682617,26 Z M231.128906,26.2109375 C232.154297,26.2109375 233.008301,25.9750977 233.690918,25.503418 C234.373535,25.0317383 234.873047,24.3447266 235.189453,23.4423828 L235.189453,23.4423828 L232.728516,23.0292969 C232.59375,23.4980469 232.394531,23.8378906 232.130859,24.0488281 C231.867188,24.2597656 231.541992,24.3652344 231.155273,24.3652344 C230.586914,24.3652344 230.112305,24.1616211 229.731445,23.7543945 C229.350586,23.347168 229.151367,22.7773438 229.133789,22.0449219 L229.133789,22.0449219 L235.321289,22.0449219 C235.356445,20.1523438 234.972656,18.7475586 234.169922,17.8305664 C233.367188,16.9135742 232.271484,16.4550781 230.882812,16.4550781 C229.646484,16.4550781 228.624023,16.8930664 227.81543,17.769043 C227.006836,18.6450195 226.602539,19.8564453 226.602539,21.4033203 C226.602539,22.6982422 226.910156,23.7705078 227.525391,24.6201172 C228.304688,25.6806641 229.505859,26.2109375 231.128906,26.2109375 Z M232.869141,20.5332031 L229.177734,20.5332031 C229.171875,19.859375 229.344727,19.3261719 229.696289,18.9335938 C230.047852,18.5410156 230.493164,18.3447266 231.032227,18.3447266 C231.536133,18.3447266 231.963867,18.5307617 232.31543,18.902832 C232.666992,19.2749023 232.851562,19.8183594 232.869141,20.5332031 L232.869141,20.5332031 Z M240.9375,26.2109375 C242.337891,26.2109375 243.395508,25.9033203 244.110352,25.2880859 C244.825195,24.6728516 245.182617,23.9375 245.182617,23.0820312 C245.182617,22.296875 244.924805,21.6845703 244.40918,21.2451172 C243.887695,20.8115234 242.969238,20.4453125 241.653809,20.1464844 C240.338379,19.8476562 239.569336,19.6162109 239.34668,19.4521484 C239.182617,19.3291016 239.100586,19.1796875 239.100586,19.0039062 C239.100586,18.7988281 239.194336,18.6318359 239.381836,18.5029297 C239.663086,18.3212891 240.128906,18.2304688 240.779297,18.2304688 C241.294922,18.2304688 241.691895,18.3271484 241.970215,18.5205078 C242.248535,18.7138672 242.4375,18.9921875 242.537109,19.3554688 L242.537109,19.3554688 L244.866211,18.9248047 C244.631836,18.1103516 244.204102,17.4951172 243.583008,17.0791016 C242.961914,16.6630859 242.012695,16.4550781 240.735352,16.4550781 C239.393555,16.4550781 238.40332,16.7304688 237.764648,17.28125 C237.125977,17.8320312 236.806641,18.5117188 236.806641,19.3203125 C236.806641,20.2167969 237.175781,20.9169922 237.914062,21.4208984 C238.447266,21.7841797 239.709961,22.1855469 241.702148,22.625 C242.129883,22.7246094 242.405273,22.8330078 242.52832,22.9501953 C242.645508,23.0732422 242.704102,23.2285156 242.704102,23.4160156 C242.704102,23.6914062 242.595703,23.9111328 242.378906,24.0751953 C242.056641,24.3095703 241.576172,24.4267578 240.9375,24.4267578 C240.357422,24.4267578 239.90625,24.3022461 239.583984,24.0532227 C239.261719,23.8041992 239.047852,23.4394531 238.942383,22.9589844 L238.942383,22.9589844 L236.463867,23.3369141 C236.692383,24.2216797 237.177246,24.921875 237.918457,25.4375 C238.659668,25.953125 239.666016,26.2109375 240.9375,26.2109375 Z M251.150391,26.2109375 C252.175781,26.2109375 253.029785,25.9750977 253.712402,25.503418 C254.39502,25.0317383 254.894531,24.3447266 255.210938,23.4423828 L255.210938,23.4423828 L252.75,23.0292969 C252.615234,23.4980469 252.416016,23.8378906 252.152344,24.0488281 C251.888672,24.2597656 251.563477,24.3652344 251.176758,24.3652344 C250.608398,24.3652344 250.133789,24.1616211 249.75293,23.7543945 C249.37207,23.347168 249.172852,22.7773438 249.155273,22.0449219 L249.155273,22.0449219 L255.342773,22.0449219 C255.37793,20.1523438 254.994141,18.7475586 254.191406,17.8305664 C253.388672,16.9135742 252.292969,16.4550781 250.904297,16.4550781 C249.667969,16.4550781 248.645508,16.8930664 247.836914,17.769043 C247.02832,18.6450195 246.624023,19.8564453 246.624023,21.4033203 C246.624023,22.6982422 246.931641,23.7705078 247.546875,24.6201172 C248.326172,25.6806641 249.527344,26.2109375 251.150391,26.2109375 Z M252.890625,20.5332031 L249.199219,20.5332031 C249.193359,19.859375 249.366211,19.3261719 249.717773,18.9335938 C250.069336,18.5410156 250.514648,18.3447266 251.053711,18.3447266 C251.557617,18.3447266 251.985352,18.5307617 252.336914,18.902832 C252.688477,19.2749023 252.873047,19.8183594 252.890625,20.5332031 L252.890625,20.5332031 Z M259.886719,26.2109375 C260.613281,26.2109375 261.263672,26.0878906 261.837891,25.8417969 L261.837891,25.8417969 L261.626953,23.9257812 C261.193359,24.0839844 260.862305,24.1630859 260.633789,24.1630859 C260.469727,24.1630859 260.330566,24.1220703 260.216309,24.0400391 C260.102051,23.9580078 260.028809,23.8540039 259.996582,23.7280273 C259.964355,23.6020508 259.948242,23.1582031 259.948242,22.3964844 L259.948242,18.6347656 L261.635742,18.6347656 L261.635742,16.6660156 L259.948242,16.6660156 L259.948242,13.3701172 L257.469727,14.8115234 L257.469727,16.6660156 L256.335938,16.6660156 L256.335938,18.6347656 L257.469727,18.6347656 L257.469727,22.7041016 C257.469727,23.5771484 257.496094,24.1572266 257.548828,24.4443359 C257.613281,24.8486328 257.729004,25.1694336 257.895996,25.4067383 C258.062988,25.644043 258.325195,25.8374023 258.682617,25.9868164 C259.040039,26.1362305 259.441406,26.2109375 259.886719,26.2109375 Z"></path>
            <path fill="#00A8E8" fill-rule="nonzero" d="M21.9059829,15.8433048 L21.9059829,18.1225071 L21.2792023,18.1225071 L21.2792023,28.7207977 L31.8774929,28.7207977 L31.8774929,28.037037 L34.1566952,28.037037 L34.1566952,31 L19,31 L19,15.8433048 L21.9059829,15.8433048 Z M39,11 L39,26.1566952 L23.8433048,26.1566952 L23.8433048,11 L39,11 Z M36.7207977,13.2792023 L26.1225071,13.2792023 L26.1225071,23.8774929 L36.7207977,23.8774929 L36.7207977,13.2792023 Z"></path>
        </g>
    </g>
</svg>
