<?xml version="1.0" encoding="UTF-8"?>
<svg width="120px" height="30px" viewBox="0 0 120 30" version="1.1" xmlns="http://www.w3.org/2000/svg" xmlns:xlink="http://www.w3.org/1999/xlink">
    <title>MenuColorLIGHT</title>
    <g stroke="none" stroke-width="1" fill="none" fill-rule="evenodd">
        <path fill="#80848A" d="M115,0 C117.761424,-5.07265313e-16 120,2.23857625 120,5 L120,25 C120,27.7614237 117.761424,30 115,30 L60,30 L60,0 L115,0 Z M81.859375,8.546875 L79.6640625,8.546875 L79.6640625,12.671875 C78.9869792,11.9010417 78.1848958,11.515625 77.2578125,11.515625 C76.2473958,11.515625 75.4114583,11.8815104 74.75,12.6132812 C74.0885417,13.3450521 73.7578125,14.4140625 73.7578125,15.8203125 C73.7578125,17.1953125 74.0976562,18.2669271 74.7773438,19.0351562 C75.4570312,19.8033854 76.2734375,20.1875 77.2265625,20.1875 C77.6953125,20.1875 78.1601562,20.0716146 78.6210938,19.8398438 C79.016183,19.641183 79.3663106,19.3535555 79.6714764,18.9769611 L79.8203125,18.78125 L79.8203125,20 L81.859375,20 L81.859375,8.546875 Z M87.265625,11.515625 C86.1875,11.515625 85.375,11.7083333 84.828125,12.09375 C84.3359375,12.440625 83.9745312,12.95625 83.7439063,13.640625 L83.671875,13.875 L85.6640625,14.234375 C85.7994792,13.8489583 85.9765625,13.5794271 86.1953125,13.4257812 C86.4140625,13.2721354 86.71875,13.1953125 87.109375,13.1953125 C87.6875,13.1953125 88.0807292,13.2851562 88.2890625,13.4648438 C88.4713542,13.6220703 88.5738932,13.8720093 88.5966797,14.2146606 L88.6015625,14.3671875 L88.6015625,14.5859375 C88.2057292,14.7526042 87.4947917,14.9322917 86.46875,15.125 C85.7083333,15.2708333 85.1263021,15.4414062 84.7226562,15.6367188 C84.3190104,15.8320312 84.0052083,16.1132812 83.78125,16.4804688 C83.5572917,16.8476562 83.4453125,17.265625 83.4453125,17.734375 C83.4453125,18.4427083 83.6914062,19.0286458 84.1835938,19.4921875 C84.6757812,19.9557292 85.3489583,20.1875 86.203125,20.1875 C86.6875,20.1875 87.1432292,20.0963542 87.5703125,19.9140625 C87.9973958,19.7317708 88.3984375,19.4583333 88.7734375,19.09375 C88.7890625,19.1354167 88.8151042,19.2213542 88.8515625,19.3515625 C88.9182292,19.5807292 88.9765625,19.7648958 89.0265625,19.9040625 L89.0625,20 L91.234375,20 C91.0416667,19.6041667 90.9101562,19.2330729 90.8398438,18.8867188 C90.7783203,18.5836589 90.7437134,18.1340535 90.7360229,17.5379028 L90.734375,17.2734375 L90.7578125,14.7109375 C90.7578125,13.7578125 90.6601562,13.1028646 90.4648438,12.7460938 C90.2695312,12.3893229 89.9322917,12.0950521 89.453125,11.8632812 C88.9739583,11.6315104 88.2447917,11.515625 87.265625,11.515625 Z M96.7578125,11.515625 C96.4036458,11.515625 96.0872396,11.6041667 95.8085938,11.78125 C95.5647786,11.9361979 95.294047,12.2366943 94.9963989,12.6827393 L94.8671875,12.8828125 L94.8671875,11.703125 L92.828125,11.703125 L92.828125,20 L95.0234375,20 L95.0234375,17.4375 C95.0234375,16.0260417 95.0846354,15.0989583 95.2070312,14.65625 C95.3294271,14.2135417 95.4973958,13.9075521 95.7109375,13.7382812 C95.9244792,13.5690104 96.1848958,13.484375 96.4921875,13.484375 C96.7645089,13.484375 97.055963,13.5723852 97.3665497,13.7484056 L97.5234375,13.84375 L98.203125,11.9296875 C97.7395833,11.6536458 97.2578125,11.515625 96.7578125,11.515625 Z M101.265625,8.546875 L99.0703125,8.546875 L99.0703125,20 L101.265625,20 L101.265625,17.34375 L102.289062,16.2734375 L104.375,20 L106.742188,20 L103.703125,14.734375 L106.539062,11.703125 L103.835938,11.703125 L101.265625,14.625 L101.265625,8.546875 Z M88.6015625,16.015625 L88.6015625,16.453125 C88.6015625,16.9791667 88.5729167,17.3359375 88.515625,17.5234375 C88.4322917,17.8098958 88.2578125,18.0520833 87.9921875,18.25 C87.6328125,18.5104167 87.2552083,18.640625 86.859375,18.640625 C86.5052083,18.640625 86.2135417,18.5286458 85.984375,18.3046875 C85.7552083,18.0807292 85.640625,17.8151042 85.640625,17.5078125 C85.640625,17.1953125 85.7838542,16.9375 86.0703125,16.734375 C86.2578125,16.609375 86.65625,16.4817708 87.265625,16.3515625 C87.7988281,16.2376302 88.2064209,16.1376546 88.4884033,16.0516357 L88.6015625,16.015625 Z M77.8359375,13.1953125 C78.3723958,13.1953125 78.8125,13.4049479 79.15625,13.8242188 C79.5,14.2434896 79.671875,14.9296875 79.671875,15.8828125 C79.671875,16.7369792 79.4947917,17.3789062 79.140625,17.8085938 C78.7864583,18.2382812 78.3567708,18.453125 77.8515625,18.453125 C77.2161458,18.453125 76.7213542,18.1666667 76.3671875,17.59375 C76.1223958,17.1979167 76,16.5572917 76,15.671875 C76,14.8489583 76.1757812,14.2304688 76.5273438,13.8164062 C76.8789062,13.4023438 77.3151042,13.1953125 77.8359375,13.1953125 Z"></path>
        <path fill="#1497CA" d="M60,0 L60,30 L5,30 C2.23857625,30 3.38176876e-16,27.7614237 0,25 L0,5 C-3.38176876e-16,2.23857625 2.23857625,-1.26909153e-15 5,0 L60,0 Z M26.1640625,11.515625 C25.1692708,11.515625 24.3372396,11.8828125 23.6679688,12.6171875 C22.9986979,13.3515625 22.6640625,14.4140625 22.6640625,15.8046875 C22.6640625,16.9140625 22.9192708,17.8411458 23.4296875,18.5859375 C24.0807292,19.5286458 24.9635417,20 26.078125,20 C27.0114583,20 27.7950694,19.6098148 28.4289583,18.8294444 L28.5625,18.65625 L28.5625,19.8671875 C28.5625,20.3567708 28.5286458,20.6927083 28.4609375,20.875 C28.3619792,21.1302083 28.2161458,21.3151042 28.0234375,21.4296875 C27.7369792,21.6015625 27.3072917,21.6875 26.734375,21.6875 C26.2864583,21.6875 25.9583333,21.609375 25.75,21.453125 C25.6241319,21.3619792 25.5362413,21.2075376 25.4863281,20.9898003 L25.4609375,20.8515625 L22.953125,20.546875 C22.9479167,20.6510417 22.9453125,20.7395833 22.9453125,20.8125 C22.9453125,21.5520833 23.2395833,22.1627604 23.828125,22.6445312 C24.4166667,23.1263021 25.4140625,23.3671875 26.8203125,23.3671875 C27.5651042,23.3671875 28.1809896,23.2890625 28.6679688,23.1328125 C29.1549479,22.9765625 29.5442708,22.7604167 29.8359375,22.484375 C30.1276042,22.2083333 30.3541667,21.828125 30.515625,21.34375 C30.6609375,20.9078125 30.7408594,20.2714844 30.7553906,19.4347656 L30.7578125,19.1484375 L30.7578125,11.703125 L28.703125,11.703125 L28.703125,12.8671875 C28.0364583,11.9661458 27.1901042,11.515625 26.1640625,11.515625 Z M45.0078125,8.7734375 L42.8046875,10.0546875 L42.8046875,11.703125 L41.796875,11.703125 L41.796875,13.453125 L42.8046875,13.453125 L42.8046875,17.0703125 C42.8046875,17.8463542 42.828125,18.3619792 42.875,18.6171875 C42.9322917,18.9765625 43.0351562,19.2617188 43.1835938,19.4726562 C43.3320312,19.6835938 43.5651042,19.8554688 43.8828125,19.9882812 C44.2005208,20.1210938 44.5572917,20.1875 44.953125,20.1875 C45.5066964,20.1875 46.010523,20.1071429 46.4646046,19.9464286 L46.6875,19.859375 L46.5,18.15625 C46.1145833,18.296875 45.8203125,18.3671875 45.6171875,18.3671875 C45.4713542,18.3671875 45.3476562,18.3307292 45.2460938,18.2578125 C45.1445312,18.1848958 45.0794271,18.0924479 45.0507812,17.9804688 C45.025,17.8796875 45.0108203,17.5500391 45.0082422,16.9915234 L45.0078125,16.796875 L45.0078125,13.453125 L46.5078125,13.453125 L46.5078125,11.703125 L45.0078125,11.703125 L45.0078125,8.7734375 Z M16.4609375,8.546875 L14.265625,8.546875 L14.265625,20 L16.4609375,20 L16.4609375,8.546875 Z M20.90625,11.703125 L18.7109375,11.703125 L18.7109375,20 L20.90625,20 L20.90625,11.703125 Z M35.1171875,8.546875 L32.921875,8.546875 L32.921875,20 L35.1171875,20 L35.1171875,15.84375 C35.1171875,15.1458333 35.1835938,14.6184896 35.3164062,14.2617188 C35.4492188,13.9049479 35.6588542,13.6380208 35.9453125,13.4609375 C36.2317708,13.2838542 36.5572917,13.1953125 36.921875,13.1953125 C37.2395833,13.1953125 37.5039062,13.2643229 37.7148438,13.4023438 C37.9257812,13.5403646 38.0729167,13.7265625 38.15625,13.9609375 C38.2320076,14.1740057 38.2733299,14.6496427 38.2802169,15.3878487 L38.28125,15.6171875 L38.28125,20 L40.4765625,20 L40.4765625,15.1328125 C40.4765625,14.3880208 40.4388021,13.8385417 40.3632812,13.484375 C40.2877604,13.1302083 40.1471354,12.8072917 39.9414062,12.515625 C39.7356771,12.2239583 39.4296875,11.984375 39.0234375,11.796875 C38.6171875,11.609375 38.1614583,11.515625 37.65625,11.515625 C36.7421875,11.515625 35.9471328,11.8726483 35.2710858,12.5866948 L35.1171875,12.7578125 L35.1171875,8.546875 Z M26.7265625,13.1953125 C27.2682292,13.1953125 27.7161458,13.4036458 28.0703125,13.8203125 C28.4244792,14.2369792 28.6015625,14.875 28.6015625,15.734375 C28.6015625,16.5572917 28.4166667,17.1783854 28.046875,17.5976562 C27.6770833,18.0169271 27.2239583,18.2265625 26.6875,18.2265625 C26.1875,18.2265625 25.7669271,18.0221354 25.4257812,17.6132812 C25.0846354,17.2044271 24.9140625,16.5598958 24.9140625,15.6796875 C24.9140625,14.8411458 25.0846354,14.2174479 25.4257812,13.8085938 C25.7669271,13.3997396 26.2005208,13.1953125 26.7265625,13.1953125 Z M20.90625,8.546875 L18.7109375,8.546875 L18.7109375,10.578125 L20.90625,10.578125 L20.90625,8.546875 Z"></path>
    </g>
</svg>
