<?xml version="1.0" encoding="UTF-8"?>
<svg width="220px" height="30px" viewBox="0 0 220 30">
    <g stroke="none" stroke-width="1" fill="#80848A" fill-rule="evenodd" fill-opacity="0.3">
        <path d="M215,2.84217094e-14 C217.761424,2.79144441e-14 220,2.23857625 220,5 L220,25 C220,27.7614237 217.761424,30 215,30 L5,30 C2.23857625,30 3.38176876e-16,27.7614237 0,25 L0,5 C-3.38176876e-16,2.23857625 2.23857625,2.71526179e-14 5,2.84217094e-14 L215,2.84217094e-14 Z M52.546875,11.515625 C51.9947917,11.515625 51.4921875,11.6458333 51.0390625,11.90625 C50.6506696,12.1294643 50.3311543,12.4100765 50.0805166,12.7480867 L49.9609375,12.921875 L49.9609375,11.703125 L47.9140625,11.703125 L47.9140625,23.15625 L50.109375,23.15625 L50.109375,18.9765625 C50.5208333,19.4192708 50.9127604,19.7317708 51.2851562,19.9140625 C51.6575521,20.0963542 52.0729167,20.1875 52.53125,20.1875 C53.4947917,20.1875 54.3151042,19.8033854 54.9921875,19.0351563 C55.6692708,18.2669271 56.0078125,17.1901042 56.0078125,15.8046875 C56.0078125,14.4557292 55.671875,13.4036458 55,12.6484375 C54.328125,11.8932292 53.5104167,11.515625 52.546875,11.515625 Z M147.664062,11.515625 C147.111979,11.515625 146.609375,11.6458333 146.15625,11.90625 C145.767857,12.1294643 145.448342,12.4100765 145.197704,12.7480867 L145.078125,12.921875 L145.078125,11.703125 L143.03125,11.703125 L143.03125,23.15625 L145.226562,23.15625 L145.226562,18.9765625 C145.638021,19.4192708 146.029948,19.7317708 146.402344,19.9140625 C146.77474,20.0963542 147.190104,20.1875 147.648438,20.1875 C148.611979,20.1875 149.432292,19.8033854 150.109375,19.0351563 C150.786458,18.2669271 151.125,17.1901042 151.125,15.8046875 C151.125,14.4557292 150.789062,13.4036458 150.117188,12.6484375 C149.445312,11.8932292 148.627604,11.515625 147.664062,11.515625 Z M188.09375,8.7734375 L185.890625,10.0546875 L185.890625,11.703125 L184.882812,11.703125 L184.882812,13.453125 L185.890625,13.453125 L185.890625,17.0703125 C185.890625,17.8463542 185.914062,18.3619792 185.960938,18.6171875 C186.018229,18.9765625 186.121094,19.2617188 186.269531,19.4726563 C186.417969,19.6835938 186.651042,19.8554688 186.96875,19.9882813 C187.286458,20.1210938 187.643229,20.1875 188.039062,20.1875 C188.592634,20.1875 189.09646,20.1071429 189.550542,19.9464286 L189.773438,19.859375 L189.585938,18.15625 C189.200521,18.296875 188.90625,18.3671875 188.703125,18.3671875 C188.557292,18.3671875 188.433594,18.3307292 188.332031,18.2578125 C188.230469,18.1848958 188.165365,18.0924479 188.136719,17.9804688 C188.110937,17.8796875 188.096758,17.5500391 188.09418,16.9915234 L188.09375,16.796875 L188.09375,13.453125 L189.59375,13.453125 L189.59375,11.703125 L188.09375,11.703125 L188.09375,8.7734375 Z M33.34375,11.515625 C32.2447917,11.515625 31.3359375,11.9049479 30.6171875,12.6835938 C29.8984375,13.4622396 29.5390625,14.5390625 29.5390625,15.9140625 C29.5390625,17.0651042 29.8125,18.0182292 30.359375,18.7734375 C31.0520833,19.7161458 32.1197917,20.1875 33.5625,20.1875 C34.4739583,20.1875 35.2330729,19.9778646 35.8398438,19.5585938 C36.3859375,19.18125 36.8001953,18.6488672 37.0826172,17.9614453 L37.171875,17.7265625 L34.984375,17.359375 C34.8645833,17.7760417 34.6875,18.078125 34.453125,18.265625 C34.21875,18.453125 33.9296875,18.546875 33.5859375,18.546875 C33.0807292,18.546875 32.6588542,18.3658854 32.3203125,18.0039063 C32.0193866,17.682147 31.8460327,17.2461902 31.8002508,16.6960359 L31.7890625,16.484375 L37.2890625,16.484375 C37.3203125,14.8020833 36.9791667,13.5533854 36.265625,12.7382813 C35.5520833,11.9231771 34.578125,11.515625 33.34375,11.515625 Z M180.054688,11.515625 C178.955729,11.515625 178.046875,11.9049479 177.328125,12.6835938 C176.609375,13.4622396 176.25,14.5390625 176.25,15.9140625 C176.25,17.0651042 176.523438,18.0182292 177.070312,18.7734375 C177.763021,19.7161458 178.830729,20.1875 180.273438,20.1875 C181.184896,20.1875 181.94401,19.9778646 182.550781,19.5585938 C183.096875,19.18125 183.511133,18.6488672 183.793555,17.9614453 L183.882812,17.7265625 L181.695312,17.359375 C181.575521,17.7760417 181.398438,18.078125 181.164062,18.265625 C180.929688,18.453125 180.640625,18.546875 180.296875,18.546875 C179.791667,18.546875 179.369792,18.3658854 179.03125,18.0039063 C178.730324,17.682147 178.55697,17.2461902 178.511188,16.6960359 L178.5,16.484375 L184,16.484375 C184.03125,14.8020833 183.690104,13.5533854 182.976562,12.7382813 C182.263021,11.9231771 181.289062,11.515625 180.054688,11.515625 Z M171.015625,11.515625 C169.822917,11.515625 168.942708,11.7604167 168.375,12.25 C167.807292,12.7395833 167.523438,13.34375 167.523438,14.0625 C167.523438,14.859375 167.851562,15.4817708 168.507812,15.9296875 C168.981771,16.2526042 170.104167,16.609375 171.875,17 C172.255208,17.0885417 172.5,17.1848958 172.609375,17.2890625 C172.713542,17.3984375 172.765625,17.5364583 172.765625,17.703125 C172.765625,17.9479167 172.669271,18.1432292 172.476562,18.2890625 C172.190104,18.4973958 171.763021,18.6015625 171.195312,18.6015625 C170.679688,18.6015625 170.278646,18.4908854 169.992188,18.2695313 C169.746652,18.0797991 169.571907,17.814493 169.467953,17.4736129 L169.421875,17.296875 L167.21875,17.6328125 C167.421875,18.4192708 167.852865,19.0416667 168.511719,19.5 C169.170573,19.9583333 170.065104,20.1875 171.195312,20.1875 C172.440104,20.1875 173.380208,19.9140625 174.015625,19.3671875 C174.651042,18.8203125 174.96875,18.1666667 174.96875,17.40625 C174.96875,16.7083333 174.739583,16.1640625 174.28125,15.7734375 C173.817708,15.3880208 173.001302,15.0625 171.832031,14.796875 C170.66276,14.53125 169.979167,14.3255208 169.78125,14.1796875 C169.635417,14.0703125 169.5625,13.9375 169.5625,13.78125 C169.5625,13.5989583 169.645833,13.4505208 169.8125,13.3359375 C170.0625,13.1744792 170.476562,13.09375 171.054688,13.09375 C171.513021,13.09375 171.865885,13.1796875 172.113281,13.3515625 C172.319444,13.4947917 172.47045,13.6904659 172.566298,13.9385851 L172.617188,14.09375 L174.6875,13.7109375 C174.479167,12.9869792 174.098958,12.4401042 173.546875,12.0703125 C172.994792,11.7005208 172.151042,11.515625 171.015625,11.515625 Z M162.257812,11.515625 C161.158854,11.515625 160.25,11.9049479 159.53125,12.6835938 C158.8125,13.4622396 158.453125,14.5390625 158.453125,15.9140625 C158.453125,17.0651042 158.726562,18.0182292 159.273438,18.7734375 C159.966146,19.7161458 161.033854,20.1875 162.476562,20.1875 C163.388021,20.1875 164.147135,19.9778646 164.753906,19.5585938 C165.3,19.18125 165.714258,18.6488672 165.99668,17.9614453 L166.085938,17.7265625 L163.898438,17.359375 C163.778646,17.7760417 163.601562,18.078125 163.367188,18.265625 C163.132812,18.453125 162.84375,18.546875 162.5,18.546875 C161.994792,18.546875 161.572917,18.3658854 161.234375,18.0039063 C160.933449,17.682147 160.760095,17.2461902 160.714313,16.6960359 L160.703125,16.484375 L166.203125,16.484375 C166.234375,14.8020833 165.893229,13.5533854 165.179688,12.7382813 C164.466146,11.9231771 163.492188,11.515625 162.257812,11.515625 Z M61.515625,11.515625 C60.703125,11.515625 59.9674479,11.6953125 59.3085938,12.0546875 C58.6497396,12.4140625 58.140625,12.9348958 57.78125,13.6171875 C57.421875,14.2994792 57.2421875,15.0052083 57.2421875,15.734375 C57.2421875,16.6875 57.421875,17.4960938 57.78125,18.1601563 C58.140625,18.8242188 58.6653646,19.328125 59.3554688,19.671875 C60.0455729,20.015625 60.7708333,20.1875 61.53125,20.1875 C62.7604167,20.1875 63.7799479,19.7747396 64.5898438,18.9492188 C65.3997396,18.1236979 65.8046875,17.0833333 65.8046875,15.828125 C65.8046875,14.5833333 65.4036458,13.5533854 64.6015625,12.7382813 C63.7994792,11.9231771 62.7708333,11.515625 61.515625,11.515625 Z M135.625,8.7734375 L133.421875,10.0546875 L133.421875,11.703125 L132.414062,11.703125 L132.414062,13.453125 L133.421875,13.453125 L133.421875,17.0703125 C133.421875,17.8463542 133.445312,18.3619792 133.492188,18.6171875 C133.549479,18.9765625 133.652344,19.2617188 133.800781,19.4726563 C133.949219,19.6835938 134.182292,19.8554688 134.5,19.9882813 C134.817708,20.1210938 135.174479,20.1875 135.570312,20.1875 C136.123884,20.1875 136.62771,20.1071429 137.081792,19.9464286 L137.304688,19.859375 L137.117188,18.15625 C136.731771,18.296875 136.4375,18.3671875 136.234375,18.3671875 C136.088542,18.3671875 135.964844,18.3307292 135.863281,18.2578125 C135.761719,18.1848958 135.696615,18.0924479 135.667969,17.9804688 C135.642188,17.8796875 135.628008,17.5500391 135.62543,16.9915234 L135.625,13.453125 L137.125,13.453125 L137.125,11.703125 L135.625,11.703125 L135.625,8.7734375 Z M76.0546875,8.7734375 L73.8515625,10.0546875 L73.8515625,11.703125 L72.84375,11.703125 L72.84375,13.453125 L73.8515625,13.453125 L73.8515625,17.0703125 C73.8515625,17.8463542 73.875,18.3619792 73.921875,18.6171875 C73.9791667,18.9765625 74.0820312,19.2617188 74.2304688,19.4726563 C74.3789062,19.6835938 74.6119792,19.8554688 74.9296875,19.9882813 C75.2473958,20.1210938 75.6041667,20.1875 76,20.1875 C76.5535714,20.1875 77.057398,20.1071429 77.5114796,19.9464286 L77.734375,19.859375 L77.546875,18.15625 C77.1614583,18.296875 76.8671875,18.3671875 76.6640625,18.3671875 C76.5182292,18.3671875 76.3945312,18.3307292 76.2929688,18.2578125 C76.1914062,18.1848958 76.1263021,18.0924479 76.0976562,17.9804688 C76.071875,17.8796875 76.0576953,17.5500391 76.0551172,16.9915234 L76.0546875,16.796875 L76.0546875,13.453125 L77.5546875,13.453125 L77.5546875,11.703125 L76.0546875,11.703125 L76.0546875,8.7734375 Z M87.0625,11.515625 C85.828125,11.515625 84.8489583,11.8971354 84.125,12.6601563 C83.4010417,13.4231771 83.0390625,14.4895833 83.0390625,15.859375 C83.0390625,17.2135417 83.3997396,18.2734375 84.1210938,19.0390625 C84.8424479,19.8046875 85.8098958,20.1875 87.0234375,20.1875 C88.0911458,20.1875 88.9427083,19.9348958 89.578125,19.4296875 C90.1557765,18.9704072 90.5634039,18.3109719 90.8010072,17.4513817 L90.8671875,17.1875 L88.7109375,16.8203125 C88.6015625,17.3984375 88.4140625,17.8059896 88.1484375,18.0429688 C87.8828125,18.2799479 87.5416667,18.3984375 87.125,18.3984375 C86.5677083,18.3984375 86.1236979,18.1953125 85.7929688,17.7890625 C85.4622396,17.3828125 85.296875,16.6875 85.296875,15.703125 C85.296875,14.8177083 85.4596354,14.1861979 85.7851562,13.8085938 C86.1106771,13.4309896 86.546875,13.2421875 87.09375,13.2421875 C87.5052083,13.2421875 87.8398438,13.3515625 88.0976562,13.5703125 C88.3186384,13.7578125 88.4716996,14.0237564 88.5568399,14.3681441 L88.59375,14.546875 L90.7578125,14.15625 C90.4973958,13.265625 90.0690104,12.6028646 89.4726562,12.1679688 C88.8763021,11.7330729 88.0729167,11.515625 87.0625,11.515625 Z M117.8125,11.515625 C116.713542,11.515625 115.804688,11.9049479 115.085938,12.6835938 C114.367188,13.4622396 114.007812,14.5390625 114.007812,15.9140625 C114.007812,17.0651042 114.28125,18.0182292 114.828125,18.7734375 C115.520833,19.7161458 116.588542,20.1875 118.03125,20.1875 C118.942708,20.1875 119.701823,19.9778646 120.308594,19.5585938 C120.854687,19.18125 121.268945,18.6488672 121.551367,17.9614453 L121.640625,17.7265625 L119.453125,17.359375 C119.333333,17.7760417 119.15625,18.078125 118.921875,18.265625 C118.6875,18.453125 118.398438,18.546875 118.054688,18.546875 C117.549479,18.546875 117.127604,18.3658854 116.789062,18.0039063 C116.488137,17.682147 116.314783,17.2461902 116.269001,16.6960359 L116.257812,16.484375 L121.757812,16.484375 C121.789062,14.8020833 121.447917,13.5533854 120.734375,12.7382813 C120.020833,11.9231771 119.046875,11.515625 117.8125,11.515625 Z M94.5703125,11.703125 L92.375,11.703125 L92.375,16.953125 C92.375,17.734375 92.4739583,18.3463542 92.671875,18.7890625 C92.8697917,19.2317708 93.1901042,19.5755208 93.6328125,19.8203125 C94.0755208,20.0651042 94.5755208,20.1875 95.1328125,20.1875 C95.6796875,20.1875 96.1992188,20.0598958 96.6914062,19.8046875 C97.1132812,19.5859375 97.4653221,19.2983099 97.7475287,18.9418048 L97.8828125,18.7578125 L97.8828125,20 L99.921875,20 L99.921875,11.703125 L97.7265625,11.703125 L97.7265625,15.203125 C97.7265625,16.390625 97.671875,17.1367188 97.5625,17.4414063 C97.453125,17.7460938 97.25,18.0013021 96.953125,18.2070313 C96.65625,18.4127604 96.3203125,18.515625 95.9453125,18.515625 C95.6171875,18.515625 95.3463542,18.4388021 95.1328125,18.2851563 C94.9192708,18.1315104 94.7721354,17.9231771 94.6914062,17.6601563 C94.6164435,17.4159226 94.5762848,16.782107 94.5709303,15.7587093 L94.5703125,11.703125 Z M106.03125,11.515625 C105.677083,11.515625 105.360677,11.6041667 105.082031,11.78125 C104.838216,11.9361979 104.567485,12.2366943 104.269836,12.6827393 L104.140625,12.8828125 L104.140625,11.703125 L102.101562,11.703125 L102.101562,20 L104.296875,20 L104.296875,17.4375 C104.296875,16.0260417 104.358073,15.0989583 104.480469,14.65625 C104.602865,14.2135417 104.770833,13.9075521 104.984375,13.7382813 C105.197917,13.5690104 105.458333,13.484375 105.765625,13.484375 C106.037946,13.484375 106.329401,13.5723852 106.639987,13.7484056 L106.796875,13.84375 L107.476562,11.9296875 C107.013021,11.6536458 106.53125,11.515625 106.03125,11.515625 Z M112.257812,11.515625 C111.903646,11.515625 111.58724,11.6041667 111.308594,11.78125 C111.064779,11.9361979 110.794047,12.2366943 110.496399,12.6827393 L110.367188,12.8828125 L110.367188,11.703125 L108.328125,11.703125 L108.328125,20 L110.523438,20 L110.523438,17.4375 C110.523438,16.0260417 110.584635,15.0989583 110.707031,14.65625 C110.829427,14.2135417 110.997396,13.9075521 111.210938,13.7382813 C111.424479,13.5690104 111.684896,13.484375 111.992188,13.484375 C112.264509,13.484375 112.555963,13.5723852 112.86655,13.7484056 L113.023438,13.84375 L113.703125,11.9296875 C113.239583,11.6536458 112.757812,11.515625 112.257812,11.515625 Z M128.304688,11.515625 C127.278993,11.515625 126.416632,11.9239583 125.717604,12.740625 L125.570312,12.921875 L125.570312,11.703125 L123.53125,11.703125 L123.53125,20 L125.726562,20 L125.726562,16.2421875 C125.726562,15.3151042 125.782552,14.6796875 125.894531,14.3359375 C126.00651,13.9921875 126.213542,13.7161458 126.515625,13.5078125 C126.817708,13.2994792 127.158854,13.1953125 127.539062,13.1953125 C127.835938,13.1953125 128.089844,13.2682292 128.300781,13.4140625 C128.511719,13.5598958 128.664062,13.7643229 128.757812,14.0273438 C128.84304,14.2664536 128.889527,14.7670562 128.897275,15.5291516 L128.898438,15.765625 L128.898438,20 L131.09375,20 L131.09375,14.84375 C131.09375,14.203125 131.053385,13.7109375 130.972656,13.3671875 C130.891927,13.0234375 130.748698,12.7161458 130.542969,12.4453125 C130.33724,12.1744792 130.033854,11.9518229 129.632812,11.7773438 C129.231771,11.6028646 128.789062,11.515625 128.304688,11.515625 Z M71.359375,11.515625 C71.0052083,11.515625 70.6888021,11.6041667 70.4101562,11.78125 C70.1663411,11.9361979 69.8956095,12.2366943 69.5979614,12.6827393 L69.46875,12.8828125 L69.46875,11.703125 L67.4296875,11.703125 L67.4296875,20 L69.625,20 L69.625816,17.1616667 C69.6334317,15.9045833 69.6943576,15.0694444 69.8085938,14.65625 C69.9309896,14.2135417 70.0989583,13.9075521 70.3125,13.7382813 C70.5260417,13.5690104 70.7864583,13.484375 71.09375,13.484375 C71.3660714,13.484375 71.6575255,13.5723852 71.9681122,13.7484056 L72.125,13.84375 L72.8046875,11.9296875 C72.3411458,11.6536458 71.859375,11.515625 71.359375,11.515625 Z M156.703125,11.515625 C156.348958,11.515625 156.032552,11.6041667 155.753906,11.78125 C155.510091,11.9361979 155.23936,12.2366943 154.941711,12.6827393 L154.8125,12.8828125 L154.8125,11.703125 L152.773438,11.703125 L152.773438,20 L154.96875,20 L154.96875,17.4375 C154.96875,16.0260417 155.029948,15.0989583 155.152344,14.65625 C155.27474,14.2135417 155.442708,13.9075521 155.65625,13.7382813 C155.869792,13.5690104 156.130208,13.484375 156.4375,13.484375 C156.709821,13.484375 157.001276,13.5723852 157.311862,13.7484056 L157.46875,13.84375 L158.148438,11.9296875 C157.684896,11.6536458 157.203125,11.515625 156.703125,11.515625 Z M40.828125,11.703125 L38.1484375,11.703125 L41.015625,15.7265625 L38.0234375,20 L40.59375,20 L42.296875,17.4296875 L43.984375,20 L46.6796875,20 L43.609375,15.6328125 L46.421875,11.703125 L43.84375,11.703125 L42.296875,13.984375 L40.828125,11.703125 Z M147.070312,13.25 C147.585938,13.25 148.018229,13.4609375 148.367188,13.8828125 C148.716146,14.3046875 148.890625,14.9505208 148.890625,15.8203125 C148.890625,16.7526042 148.721354,17.4231771 148.382812,17.8320313 C148.044271,18.2408854 147.619792,18.4453125 147.109375,18.4453125 C146.578125,18.4453125 146.127604,18.2226563 145.757812,17.7773438 C145.388021,17.3320313 145.203125,16.6432292 145.203125,15.7109375 C145.203125,14.8984375 145.380208,14.2851563 145.734375,13.8710938 C146.088542,13.4570313 146.533854,13.25 147.070312,13.25 Z M51.953125,13.25 C52.46875,13.25 52.9010417,13.4609375 53.25,13.8828125 C53.5989583,14.3046875 53.7734375,14.9505208 53.7734375,15.8203125 C53.7734375,16.7526042 53.6041667,17.4231771 53.265625,17.8320313 C52.9270833,18.2408854 52.5026042,18.4453125 51.9921875,18.4453125 C51.4609375,18.4453125 51.0104167,18.2226563 50.640625,17.7773438 C50.2708333,17.3320313 50.0859375,16.6432292 50.0859375,15.7109375 C50.0859375,14.8984375 50.2630208,14.2851563 50.6171875,13.8710938 C50.9713542,13.4570313 51.4166667,13.25 51.953125,13.25 Z M61.5234375,13.3046875 C62.0963542,13.3046875 62.5768229,13.5234375 62.9648438,13.9609375 C63.3528646,14.3984375 63.546875,15.0234375 63.546875,15.8359375 C63.546875,16.6692708 63.3528646,17.3046875 62.9648438,17.7421875 C62.5768229,18.1796875 62.0963542,18.3984375 61.5234375,18.3984375 C60.9505208,18.3984375 60.46875,18.1796875 60.078125,17.7421875 C59.6875,17.3046875 59.4921875,16.6744792 59.4921875,15.8515625 C59.4921875,15.0286458 59.6875,14.3984375 60.078125,13.9609375 C60.46875,13.5234375 60.9505208,13.3046875 61.5234375,13.3046875 Z M117.945312,13.1953125 C118.393229,13.1953125 118.773438,13.3606771 119.085938,13.6914063 C119.398438,14.0221354 119.5625,14.5052083 119.578125,15.140625 L116.296875,15.140625 C116.291667,14.5416667 116.445312,14.0677083 116.757812,13.71875 C117.070312,13.3697917 117.466146,13.1953125 117.945312,13.1953125 Z M162.390625,13.1953125 C162.838542,13.1953125 163.21875,13.3606771 163.53125,13.6914063 C163.84375,14.0221354 164.007812,14.5052083 164.023438,15.140625 L160.742188,15.140625 C160.736979,14.5416667 160.890625,14.0677083 161.203125,13.71875 C161.515625,13.3697917 161.911458,13.1953125 162.390625,13.1953125 Z M33.4765625,13.1953125 C33.9244792,13.1953125 34.3046875,13.3606771 34.6171875,13.6914063 C34.9296875,14.0221354 35.09375,14.5052083 35.109375,15.140625 L31.828125,15.140625 C31.8229167,14.5416667 31.9765625,14.0677083 32.2890625,13.71875 C32.6015625,13.3697917 32.9973958,13.1953125 33.4765625,13.1953125 Z M180.1875,13.1953125 C180.635417,13.1953125 181.015625,13.3606771 181.328125,13.6914063 C181.640625,14.0221354 181.804688,14.5052083 181.820312,15.140625 L178.539062,15.140625 C178.533854,14.5416667 178.6875,14.0677083 179,13.71875 C179.3125,13.3697917 179.708333,13.1953125 180.1875,13.1953125 Z"></path>
    </g>
</svg>
