<?xml version="1.0" encoding="UTF-8"?>
<svg width="220px" height="30px" viewBox="0 0 220 30" version="1.1" xmlns="http://www.w3.org/2000/svg" xmlns:xlink="http://www.w3.org/1999/xlink">
    <title>MenuImportMidi</title>
    <g id="Page-1" stroke="none" stroke-width="1" fill="none" fill-rule="evenodd">
        <g id="MenuImportMidi" fill="#80848A">
            <path d="M215,0 C217.761424,-5.07265313e-16 220,2.23857625 220,5 L220,25 C220,27.7614237 217.761424,30 215,30 L5,30 C2.23857625,30 3.38176876e-16,27.7614237 0,25 L0,5 C-3.38176876e-16,2.23857625 2.23857625,-1.26909153e-15 5,0 L215,0 Z M63.7695312,11.515625 C63.2174479,11.515625 62.7148438,11.6458333 62.2617188,11.90625 C61.8733259,12.1294643 61.5538106,12.4100765 61.3031728,12.7480867 L61.1835938,12.921875 L61.1835938,11.703125 L59.1367188,11.703125 L59.1367188,23.15625 L61.3320312,23.15625 L61.3320312,18.9765625 C61.7434896,19.4192708 62.1354167,19.7317708 62.5078125,19.9140625 C62.8802083,20.0963542 63.2955729,20.1875 63.7539062,20.1875 C64.7174479,20.1875 65.5377604,19.8033854 66.2148438,19.0351562 C66.8919271,18.2669271 67.2304688,17.1901042 67.2304688,15.8046875 C67.2304688,14.4557292 66.8945312,13.4036458 66.2226562,12.6484375 C65.5507812,11.8932292 64.7330729,11.515625 63.7695312,11.515625 Z M172.738281,8.3515625 L171.089844,8.3515625 L168.253906,20.1953125 L169.871094,20.1953125 L172.738281,8.3515625 Z M97.9882812,11.515625 C96.9101562,11.515625 96.0976562,11.7083333 95.5507812,12.09375 C95.0585938,12.440625 94.6971875,12.95625 94.4665625,13.640625 L94.3945312,13.875 L96.3867188,14.234375 C96.5221354,13.8489583 96.6992188,13.5794271 96.9179688,13.4257812 C97.1367188,13.2721354 97.4414062,13.1953125 97.8320312,13.1953125 C98.4101562,13.1953125 98.8033854,13.2851562 99.0117188,13.4648438 C99.1940104,13.6220703 99.2965495,13.8720093 99.3193359,14.2146606 L99.3242188,14.3671875 L99.3242188,14.5859375 C98.9283854,14.7526042 98.2174479,14.9322917 97.1914062,15.125 C96.4309896,15.2708333 95.8489583,15.4414062 95.4453125,15.6367188 C95.0416667,15.8320312 94.7278646,16.1132812 94.5039062,16.4804688 C94.2799479,16.8476562 94.1679688,17.265625 94.1679688,17.734375 C94.1679688,18.4427083 94.4140625,19.0286458 94.90625,19.4921875 C95.3984375,19.9557292 96.0716146,20.1875 96.9257812,20.1875 C97.4101562,20.1875 97.8658854,20.0963542 98.2929688,19.9140625 C98.7200521,19.7317708 99.1210938,19.4583333 99.4960938,19.09375 C99.5117188,19.1354167 99.5377604,19.2213542 99.5742188,19.3515625 C99.6408854,19.5807292 99.6992188,19.7648958 99.7492187,19.9040625 L99.7851562,20 L101.957031,20 C101.764323,19.6041667 101.632812,19.2330729 101.5625,18.8867188 C101.500977,18.5836589 101.46637,18.1340535 101.458679,17.5379028 L101.457031,17.2734375 L101.480469,14.7109375 C101.480469,13.7578125 101.382812,13.1028646 101.1875,12.7460938 C100.992188,12.3893229 100.654948,12.0950521 100.175781,11.8632812 C99.6966146,11.6315104 98.9674479,11.515625 97.9882812,11.515625 Z M87.2773438,8.7734375 L85.0742188,10.0546875 L85.0742188,11.703125 L84.0664062,11.703125 L84.0664062,13.453125 L85.0742188,13.453125 L85.0749219,17.2953125 C85.0791406,17.946875 85.1023438,18.3875 85.1445312,18.6171875 C85.2018229,18.9765625 85.3046875,19.2617188 85.453125,19.4726562 C85.6015625,19.6835938 85.8346354,19.8554688 86.1523438,19.9882812 C86.4700521,20.1210938 86.8268229,20.1875 87.2226562,20.1875 C87.7762277,20.1875 88.2800542,20.1071429 88.7341358,19.9464286 L88.9570312,19.859375 L88.7695312,18.15625 C88.3841146,18.296875 88.0898438,18.3671875 87.8867188,18.3671875 C87.7408854,18.3671875 87.6171875,18.3307292 87.515625,18.2578125 C87.4140625,18.1848958 87.3489583,18.0924479 87.3203125,17.9804688 C87.2945313,17.8796875 87.2803516,17.5500391 87.2777734,16.9915234 L87.2773438,13.453125 L88.7773438,13.453125 L88.7773438,11.703125 L87.2773438,11.703125 L87.2773438,8.7734375 Z M176.894531,11.515625 C175.701823,11.515625 174.821615,11.7604167 174.253906,12.25 C173.686198,12.7395833 173.402344,13.34375 173.402344,14.0625 C173.402344,14.859375 173.730469,15.4817708 174.386719,15.9296875 C174.860677,16.2526042 175.983073,16.609375 177.753906,17 C178.134115,17.0885417 178.378906,17.1848958 178.488281,17.2890625 C178.592448,17.3984375 178.644531,17.5364583 178.644531,17.703125 C178.644531,17.9479167 178.548177,18.1432292 178.355469,18.2890625 C178.06901,18.4973958 177.641927,18.6015625 177.074219,18.6015625 C176.558594,18.6015625 176.157552,18.4908854 175.871094,18.2695312 C175.625558,18.0797991 175.450813,17.814493 175.346859,17.4736129 L175.300781,17.296875 L173.097656,17.6328125 C173.300781,18.4192708 173.731771,19.0416667 174.390625,19.5 C175.049479,19.9583333 175.94401,20.1875 177.074219,20.1875 C178.31901,20.1875 179.259115,19.9140625 179.894531,19.3671875 C180.529948,18.8203125 180.847656,18.1666667 180.847656,17.40625 C180.847656,16.7083333 180.61849,16.1640625 180.160156,15.7734375 C179.696615,15.3880208 178.880208,15.0625 177.710938,14.796875 C176.541667,14.53125 175.858073,14.3255208 175.660156,14.1796875 C175.514323,14.0703125 175.441406,13.9375 175.441406,13.78125 C175.441406,13.5989583 175.52474,13.4505208 175.691406,13.3359375 C175.941406,13.1744792 176.355469,13.09375 176.933594,13.09375 C177.391927,13.09375 177.744792,13.1796875 177.992188,13.3515625 C178.198351,13.4947917 178.349356,13.6904659 178.445204,13.9385851 L178.496094,14.09375 L180.566406,13.7109375 C180.358073,12.9869792 179.977865,12.4401042 179.425781,12.0703125 C178.873698,11.7005208 178.029948,11.515625 176.894531,11.515625 Z M72.7382812,11.515625 C71.9257812,11.515625 71.1901042,11.6953125 70.53125,12.0546875 C69.8723958,12.4140625 69.3632812,12.9348958 69.0039062,13.6171875 C68.6445312,14.2994792 68.4648438,15.0052083 68.4648438,15.734375 C68.4648438,16.6875 68.6445312,17.4960938 69.0039062,18.1601562 C69.3632812,18.8242188 69.8880208,19.328125 70.578125,19.671875 C71.2682292,20.015625 71.9934896,20.1875 72.7539062,20.1875 C73.9830729,20.1875 75.0026042,19.7747396 75.8125,18.9492188 C76.6223958,18.1236979 77.0273438,17.0833333 77.0273438,15.828125 C77.0273438,14.5833333 76.6263021,13.5533854 75.8242188,12.7382812 C75.0221354,11.9231771 73.9934896,11.515625 72.7382812,11.515625 Z M163.691406,11.515625 C162.592448,11.515625 161.683594,11.9049479 160.964844,12.6835938 C160.246094,13.4622396 159.886719,14.5390625 159.886719,15.9140625 C159.886719,17.0651042 160.160156,18.0182292 160.707031,18.7734375 C161.39974,19.7161458 162.467448,20.1875 163.910156,20.1875 C164.821615,20.1875 165.580729,19.9778646 166.1875,19.5585938 C166.733594,19.18125 167.147852,18.6488672 167.430273,17.9614453 L167.519531,17.7265625 L165.332031,17.359375 C165.21224,17.7760417 165.035156,18.078125 164.800781,18.265625 C164.566406,18.453125 164.277344,18.546875 163.933594,18.546875 C163.428385,18.546875 163.00651,18.3658854 162.667969,18.0039062 C162.367043,17.682147 162.193689,17.2461902 162.147907,16.6960359 L162.136719,16.484375 L167.636719,16.484375 C167.667969,14.8020833 167.326823,13.5533854 166.613281,12.7382812 C165.89974,11.9231771 164.925781,11.515625 163.691406,11.515625 Z M54.2929688,11.515625 C53.8138021,11.515625 53.3632812,11.625 52.9414062,11.84375 C52.5195312,12.0625 52.1263021,12.3932292 51.7617188,12.8359375 C51.5117188,12.3932292 51.1914062,12.0625 50.8007812,11.84375 C50.4101562,11.625 49.9492188,11.515625 49.4179688,11.515625 C48.4893973,11.515625 47.6798337,11.8951026 46.9892777,12.6540577 L46.8320312,12.8359375 L46.8320312,11.703125 L44.8085938,11.703125 L44.8085938,20 L47.0039062,20 L47.0039062,15.96875 C47.0039062,15.171875 47.0625,14.6015625 47.1796875,14.2578125 C47.296875,13.9140625 47.4908854,13.6510417 47.7617188,13.46875 C48.0325521,13.2864583 48.3372396,13.1953125 48.6757812,13.1953125 C48.9570312,13.1953125 49.1796875,13.2526042 49.34375,13.3671875 C49.5078125,13.4817708 49.6289062,13.65625 49.7070312,13.890625 C49.7773438,14.1015625 49.8160156,14.5445312 49.8230469,15.2195312 L49.8242188,15.453125 L49.8242188,20 L52.0195312,20 L52.0195312,16.015625 C52.0195312,15.234375 52.0794271,14.6627604 52.1992188,14.3007812 C52.3190104,13.9388021 52.5143229,13.6640625 52.7851562,13.4765625 C53.0559896,13.2890625 53.3450521,13.1953125 53.6523438,13.1953125 C54.0742188,13.1953125 54.3867188,13.3515625 54.5898438,13.6640625 C54.7271544,13.8818655 54.8020511,14.3407154 54.8145338,15.0406121 L54.8164062,15.2578125 L54.8164062,20 L57.0117188,20 L57.0117188,14.6953125 C57.0117188,13.9036458 56.9361979,13.3307292 56.7851562,12.9765625 C56.5768229,12.4973958 56.2617188,12.1341146 55.8398438,11.8867188 C55.4179688,11.6393229 54.9023438,11.515625 54.2929688,11.515625 Z M42.7226562,11.703125 L40.5273438,11.703125 L40.5273438,20 L42.7226562,20 L42.7226562,11.703125 Z M158.277344,8.546875 L156.082031,8.546875 L156.082031,20 L158.277344,20 L158.277344,8.546875 Z M153.832031,11.703125 L151.636719,11.703125 L151.636719,20 L153.832031,20 L153.832031,11.703125 Z M149.121094,8.3515625 C148.511719,8.3515625 148.007812,8.45963542 147.609375,8.67578125 C147.210938,8.89192708 146.9375,9.171875 146.789062,9.515625 C146.65918,9.81640625 146.586121,10.2527669 146.569885,10.824707 L146.566406,11.078125 L146.566406,11.703125 L145.347656,11.703125 L145.347656,13.4296875 L146.566406,13.4296875 L146.566406,20 L148.761719,20 L148.761719,13.4296875 L150.402344,13.4296875 L150.402344,11.703125 L148.761719,11.703125 L148.761719,11.1171875 C148.761719,10.6953125 148.830729,10.4101562 148.96875,10.2617188 C149.106771,10.1132812 149.334635,10.0390625 149.652344,10.0390625 C149.894531,10.0390625 150.144043,10.0625 150.400879,10.109375 L150.660156,10.1640625 L150.957031,8.6328125 C150.358073,8.4453125 149.746094,8.3515625 149.121094,8.3515625 Z M139.675781,8.546875 L137.363281,8.546875 L137.363281,20 L139.675781,20 L139.675781,8.546875 Z M130.097656,8.546875 L125.871094,8.546875 L125.871094,20 L130.222656,20 C131.076823,20 131.759115,19.9192708 132.269531,19.7578125 C132.951823,19.5390625 133.49349,19.234375 133.894531,18.84375 C134.425781,18.328125 134.834635,17.6536458 135.121094,16.8203125 C135.355469,16.1380208 135.472656,15.3255208 135.472656,14.3828125 C135.472656,13.3098958 135.347656,12.4075521 135.097656,11.6757812 C134.847656,10.9440104 134.483073,10.3255208 134.003906,9.8203125 C133.52474,9.31510417 132.949219,8.96354167 132.277344,8.765625 C131.832899,8.63599537 131.209443,8.56397891 130.406973,8.54957562 L130.097656,8.546875 Z M82.5820312,11.515625 C82.2278646,11.515625 81.9114583,11.6041667 81.6328125,11.78125 C81.3889974,11.9361979 81.1182658,12.2366943 80.8206177,12.6827393 L80.6914062,12.8828125 L80.6914062,11.703125 L78.6523438,11.703125 L78.6523438,20 L80.8476562,20 L80.8476562,17.4375 C80.8476562,16.0260417 80.9088542,15.0989583 81.03125,14.65625 C81.1536458,14.2135417 81.3216146,13.9075521 81.5351562,13.7382812 C81.7486979,13.5690104 82.0091146,13.484375 82.3164062,13.484375 C82.5887277,13.484375 82.8801818,13.5723852 83.1907685,13.7484056 L83.3476562,13.84375 L84.0273438,11.9296875 C83.5638021,11.6536458 83.0820312,11.515625 82.5820312,11.515625 Z M123.675781,8.546875 L121.363281,8.546875 L121.363281,20 L123.675781,20 L123.675781,8.546875 Z M111.535156,8.546875 L108.074219,8.546875 L108.074219,20 L110.222656,20 L110.222656,10.984375 L112.488281,20 L114.714844,20 L116.988281,10.984375 L116.988281,20 L119.136719,20 L119.136719,8.546875 L115.667969,8.546875 L113.613281,16.359375 L111.535156,8.546875 Z M99.3242188,16.015625 L99.3242188,16.453125 C99.3242188,16.9791667 99.2955729,17.3359375 99.2382812,17.5234375 C99.1549479,17.8098958 98.9804688,18.0520833 98.7148438,18.25 C98.3554688,18.5104167 97.9778646,18.640625 97.5820312,18.640625 C97.2278646,18.640625 96.9361979,18.5286458 96.7070312,18.3046875 C96.4778646,18.0807292 96.3632812,17.8151042 96.3632812,17.5078125 C96.3632812,17.1953125 96.5065104,16.9375 96.7929688,16.734375 C96.9804688,16.609375 97.3789062,16.4817708 97.9882812,16.3515625 C98.5214844,16.2376302 98.9290771,16.1376546 99.2110596,16.0516357 L99.3242188,16.015625 Z M63.1757812,13.25 C63.6914062,13.25 64.1236979,13.4609375 64.4726562,13.8828125 C64.8216146,14.3046875 64.9960938,14.9505208 64.9960938,15.8203125 C64.9960938,16.7526042 64.8268229,17.4231771 64.4882812,17.8320312 C64.1497396,18.2408854 63.7252604,18.4453125 63.2148438,18.4453125 C62.6835938,18.4453125 62.2330729,18.2226562 61.8632812,17.7773438 C61.4934896,17.3320312 61.3085938,16.6432292 61.3085938,15.7109375 C61.3085938,14.8984375 61.4856771,14.2851562 61.8398438,13.8710938 C62.1940104,13.4570312 62.6393229,13.25 63.1757812,13.25 Z M72.7460938,13.3046875 C73.3190104,13.3046875 73.7994792,13.5234375 74.1875,13.9609375 C74.5755208,14.3984375 74.7695312,15.0234375 74.7695312,15.8359375 C74.7695312,16.6692708 74.5755208,17.3046875 74.1875,17.7421875 C73.7994792,18.1796875 73.3190104,18.3984375 72.7460938,18.3984375 C72.1731771,18.3984375 71.6914062,18.1796875 71.3007812,17.7421875 C70.9101562,17.3046875 70.7148438,16.6744792 70.7148438,15.8515625 C70.7148438,15.0286458 70.9101562,14.3984375 71.3007812,13.9609375 C71.6914062,13.5234375 72.1731771,13.3046875 72.7460938,13.3046875 Z M129.222656,10.484375 C130.165365,10.484375 130.798177,10.5208333 131.121094,10.59375 C131.553385,10.6875 131.910156,10.8671875 132.191406,11.1328125 C132.472656,11.3984375 132.691406,11.7682292 132.847656,12.2421875 C133.003906,12.7161458 133.082031,13.3958333 133.082031,14.28125 C133.082031,15.1666667 133.003906,15.8658854 132.847656,16.3789062 C132.691406,16.8919271 132.489583,17.2604167 132.242188,17.484375 C131.994792,17.7083333 131.683594,17.8671875 131.308594,17.9609375 C131.022135,18.0338542 130.55599,18.0703125 129.910156,18.0703125 L128.183594,18.0703125 L128.183594,10.484375 L129.222656,10.484375 Z M163.824219,13.1953125 C164.272135,13.1953125 164.652344,13.3606771 164.964844,13.6914062 C165.277344,14.0221354 165.441406,14.5052083 165.457031,15.140625 L162.175781,15.140625 C162.170573,14.5416667 162.324219,14.0677083 162.636719,13.71875 C162.949219,13.3697917 163.345052,13.1953125 163.824219,13.1953125 Z M153.832031,8.546875 L151.636719,8.546875 L151.636719,10.578125 L153.832031,10.578125 L153.832031,8.546875 Z M42.7226562,8.546875 L40.5273438,8.546875 L40.5273438,10.578125 L42.7226562,10.578125 L42.7226562,8.546875 Z" id="Shape"></path>
        </g>
    </g>
</svg>