<?xml version="1.0" encoding="UTF-8"?>
<svg width="220px" height="30px" viewBox="0 0 220 30">
    <g stroke="none" stroke-width="1" fill="#80848A" fill-rule="evenodd" fill-opacity="0.3">
        <path d="M215,0 C217.761424,-5.07265313e-16 220,2.23857625 220,5 L220,25 C220,27.7614237 217.761424,30 215,30 L5,30 C2.23857625,30 3.38176876e-16,27.7614237 0,25 L0,5 C-3.38176876e-16,2.23857625 2.23857625,-1.26909153e-15 5,0 L215,0 Z M59.671875,11.515625 C59.1197917,11.515625 58.6171875,11.6458333 58.1640625,11.90625 C57.7756696,12.1294643 57.4561543,12.4100765 57.2055166,12.7480867 L57.0859375,12.921875 L57.0859375,11.703125 L55.0390625,11.703125 L55.0390625,23.15625 L57.234375,23.15625 L57.234375,18.9765625 C57.6458333,19.4192708 58.0377604,19.7317708 58.4101562,19.9140625 C58.7825521,20.0963542 59.1979167,20.1875 59.65625,20.1875 C60.6197917,20.1875 61.4401042,19.8033854 62.1171875,19.0351562 C62.7942708,18.2669271 63.1328125,17.1901042 63.1328125,15.8046875 C63.1328125,14.4557292 62.796875,13.4036458 62.125,12.6484375 C61.453125,11.8932292 60.6354167,11.515625 59.671875,11.515625 Z M68.640625,11.515625 C67.828125,11.515625 67.0924479,11.6953125 66.4335938,12.0546875 C65.7747396,12.4140625 65.265625,12.9348958 64.90625,13.6171875 C64.546875,14.2994792 64.3671875,15.0052083 64.3671875,15.734375 C64.3671875,16.6875 64.546875,17.4960938 64.90625,18.1601562 C65.265625,18.8242188 65.7903646,19.328125 66.4804688,19.671875 C67.1705729,20.015625 67.8958333,20.1875 68.65625,20.1875 C69.8854167,20.1875 70.9049479,19.7747396 71.7148438,18.9492188 C72.5247396,18.1236979 72.9296875,17.0833333 72.9296875,15.828125 C72.9296875,14.5833333 72.5286458,13.5533854 71.7265625,12.7382812 C70.9244792,11.9231771 69.8958333,11.515625 68.640625,11.515625 Z M83.1796875,8.7734375 L80.9765625,10.0546875 L80.9765625,11.703125 L79.96875,11.703125 L79.96875,13.453125 L80.9765625,13.453125 L80.9765625,17.0703125 C80.9765625,17.8463542 81,18.3619792 81.046875,18.6171875 C81.1041667,18.9765625 81.2070312,19.2617188 81.3554688,19.4726562 C81.5039062,19.6835938 81.7369792,19.8554688 82.0546875,19.9882812 C82.3723958,20.1210938 82.7291667,20.1875 83.125,20.1875 C83.6785714,20.1875 84.182398,20.1071429 84.6364796,19.9464286 L84.859375,19.859375 L84.671875,18.15625 C84.2864583,18.296875 83.9921875,18.3671875 83.7890625,18.3671875 C83.6432292,18.3671875 83.5195312,18.3307292 83.4179688,18.2578125 C83.3164062,18.1848958 83.2513021,18.0924479 83.2226562,17.9804688 C83.196875,17.8796875 83.1826953,17.5500391 83.1801172,16.9915234 L83.1796875,16.796875 L83.1796875,13.453125 L84.6796875,13.453125 L84.6796875,11.703125 L83.1796875,11.703125 L83.1796875,8.7734375 Z M94.1875,11.515625 C92.953125,11.515625 91.9739583,11.8971354 91.25,12.6601562 C90.5260417,13.4231771 90.1640625,14.4895833 90.1640625,15.859375 C90.1640625,17.2135417 90.5247396,18.2734375 91.2460938,19.0390625 C91.9674479,19.8046875 92.9348958,20.1875 94.1484375,20.1875 C95.2161458,20.1875 96.0677083,19.9348958 96.703125,19.4296875 C97.2807765,18.9704072 97.6884039,18.3109719 97.9260072,17.4513817 L97.9921875,17.1875 L95.8359375,16.8203125 C95.7265625,17.3984375 95.5390625,17.8059896 95.2734375,18.0429688 C95.0078125,18.2799479 94.6666667,18.3984375 94.25,18.3984375 C93.6927083,18.3984375 93.2486979,18.1953125 92.9179688,17.7890625 C92.5872396,17.3828125 92.421875,16.6875 92.421875,15.703125 C92.421875,14.8177083 92.5846354,14.1861979 92.9101562,13.8085938 C93.2356771,13.4309896 93.671875,13.2421875 94.21875,13.2421875 C94.6302083,13.2421875 94.9648438,13.3515625 95.2226562,13.5703125 C95.4436384,13.7578125 95.5966996,14.0237564 95.6818399,14.3681441 L95.71875,14.546875 L97.8828125,14.15625 C97.6223958,13.265625 97.1940104,12.6028646 96.5976562,12.1679688 C96.0013021,11.7330729 95.1979167,11.515625 94.1875,11.515625 Z M101.695312,11.703125 L99.5,11.703125 L99.5,16.953125 C99.5,17.734375 99.5989583,18.3463542 99.796875,18.7890625 C99.9947917,19.2317708 100.315104,19.5755208 100.757812,19.8203125 C101.200521,20.0651042 101.700521,20.1875 102.257812,20.1875 C102.804688,20.1875 103.324219,20.0598958 103.816406,19.8046875 C104.238281,19.5859375 104.590322,19.2983099 104.872529,18.9418048 L105.007812,18.7578125 L105.007812,20 L107.046875,20 L107.046875,11.703125 L104.851562,11.703125 L104.851562,15.203125 C104.851562,16.390625 104.796875,17.1367188 104.6875,17.4414062 C104.578125,17.7460938 104.375,18.0013021 104.078125,18.2070312 C103.78125,18.4127604 103.445312,18.515625 103.070312,18.515625 C102.742188,18.515625 102.471354,18.4388021 102.257812,18.2851562 C102.044271,18.1315104 101.897135,17.9231771 101.816406,17.6601562 C101.741443,17.4159226 101.701285,16.782107 101.69593,15.7587093 L101.695312,11.703125 Z M124.9375,11.515625 C123.838542,11.515625 122.929688,11.9049479 122.210938,12.6835938 C121.492188,13.4622396 121.132812,14.5390625 121.132812,15.9140625 C121.132812,17.0651042 121.40625,18.0182292 121.953125,18.7734375 C122.645833,19.7161458 123.713542,20.1875 125.15625,20.1875 C126.067708,20.1875 126.826823,19.9778646 127.433594,19.5585938 C127.979687,19.18125 128.393945,18.6488672 128.676367,17.9614453 L128.765625,17.7265625 L126.578125,17.359375 C126.458333,17.7760417 126.28125,18.078125 126.046875,18.265625 C125.8125,18.453125 125.523438,18.546875 125.179688,18.546875 C124.674479,18.546875 124.252604,18.3658854 123.914062,18.0039062 C123.613137,17.682147 123.439783,17.2461902 123.394001,16.6960359 L123.382812,16.484375 L128.882812,16.484375 C128.914062,14.8020833 128.572917,13.5533854 127.859375,12.7382812 C127.145833,11.9231771 126.171875,11.515625 124.9375,11.515625 Z M40.46875,11.515625 C39.3697917,11.515625 38.4609375,11.9049479 37.7421875,12.6835938 C37.0234375,13.4622396 36.6640625,14.5390625 36.6640625,15.9140625 C36.6640625,17.0651042 36.9375,18.0182292 37.484375,18.7734375 C38.1770833,19.7161458 39.2447917,20.1875 40.6875,20.1875 C41.5989583,20.1875 42.3580729,19.9778646 42.9648438,19.5585938 C43.5109375,19.18125 43.9251953,18.6488672 44.2076172,17.9614453 L44.296875,17.7265625 L42.109375,17.359375 C41.9895833,17.7760417 41.8125,18.078125 41.578125,18.265625 C41.34375,18.453125 41.0546875,18.546875 40.7109375,18.546875 C40.2057292,18.546875 39.7838542,18.3658854 39.4453125,18.0039062 C39.1443866,17.682147 38.9710327,17.2461902 38.9252508,16.6960359 L38.9140625,16.484375 L44.4140625,16.484375 C44.4453125,14.8020833 44.1041667,13.5533854 43.390625,12.7382812 C42.6770833,11.9231771 41.703125,11.515625 40.46875,11.515625 Z M142.75,8.7734375 L140.546875,10.0546875 L140.546875,11.703125 L139.539062,11.703125 L139.539062,13.453125 L140.546875,13.453125 L140.546875,17.0703125 C140.546875,17.8463542 140.570312,18.3619792 140.617188,18.6171875 C140.674479,18.9765625 140.777344,19.2617188 140.925781,19.4726562 C141.074219,19.6835938 141.307292,19.8554688 141.625,19.9882812 C141.942708,20.1210938 142.299479,20.1875 142.695312,20.1875 C143.248884,20.1875 143.75271,20.1071429 144.206792,19.9464286 L144.429688,19.859375 L144.242188,18.15625 C143.856771,18.296875 143.5625,18.3671875 143.359375,18.3671875 C143.213542,18.3671875 143.089844,18.3307292 142.988281,18.2578125 C142.886719,18.1848958 142.821615,18.0924479 142.792969,17.9804688 C142.767188,17.8796875 142.753008,17.5500391 142.75043,16.9915234 L142.75,13.453125 L144.25,13.453125 L144.25,11.703125 L142.75,11.703125 L142.75,8.7734375 Z M119.382812,11.515625 C119.028646,11.515625 118.71224,11.6041667 118.433594,11.78125 C118.189779,11.9361979 117.919047,12.2366943 117.621399,12.6827393 L117.492188,12.8828125 L117.492188,11.703125 L115.453125,11.703125 L115.453125,20 L117.648438,20 L117.648438,17.4375 C117.648438,16.0260417 117.709635,15.0989583 117.832031,14.65625 C117.954427,14.2135417 118.122396,13.9075521 118.335938,13.7382812 C118.549479,13.5690104 118.809896,13.484375 119.117188,13.484375 C119.389509,13.484375 119.680963,13.5723852 119.99155,13.7484056 L120.148438,13.84375 L120.828125,11.9296875 C120.364583,11.6536458 119.882812,11.515625 119.382812,11.515625 Z M153.664062,8.546875 L150.203125,8.546875 L150.203125,20 L152.351562,20 L152.351562,10.984375 L154.617188,20 L156.84375,20 L159.117188,10.984375 L159.117188,20 L161.265625,20 L161.265625,8.546875 L157.796875,8.546875 L155.742,16.358 L153.664062,8.546875 Z M181.804688,8.546875 L179.492188,8.546875 L179.492188,20 L181.804688,20 L181.804688,8.546875 Z M78.484375,11.515625 C78.1302083,11.515625 77.8138021,11.6041667 77.5351562,11.78125 C77.2913411,11.9361979 77.0206095,12.2366943 76.7229614,12.6827393 L76.59375,12.8828125 L76.59375,11.703125 L74.5546875,11.703125 L74.5546875,20 L76.75,20 L76.750816,17.1616667 C76.7584317,15.9045833 76.8193576,15.0694444 76.9335938,14.65625 C77.0559896,14.2135417 77.2239583,13.9075521 77.4375,13.7382812 C77.6510417,13.5690104 77.9114583,13.484375 78.21875,13.484375 C78.4910714,13.484375 78.7825255,13.5723852 79.0931122,13.7484056 L79.25,13.84375 L79.9296875,11.9296875 C79.4661458,11.6536458 78.984375,11.515625 78.484375,11.515625 Z M47.953125,11.703125 L45.2734375,11.703125 L48.140625,15.7265625 L45.1484375,20 L47.71875,20 L49.421875,17.4296875 L51.109375,20 L53.8046875,20 L50.734375,15.6328125 L53.546875,11.703125 L50.96875,11.703125 L49.421875,13.984375 L47.953125,11.703125 Z M172.226562,8.546875 L168,8.546875 L168,20 L172.351562,20 C173.205729,20 173.888021,19.9192708 174.398438,19.7578125 C175.080729,19.5390625 175.622396,19.234375 176.023438,18.84375 C176.554688,18.328125 176.963542,17.6536458 177.25,16.8203125 C177.484375,16.1380208 177.601562,15.3255208 177.601562,14.3828125 C177.601562,13.3098958 177.476562,12.4075521 177.226562,11.6757812 C176.976562,10.9440104 176.611979,10.3255208 176.132812,9.8203125 C175.653646,9.31510417 175.078125,8.96354167 174.40625,8.765625 C173.961806,8.63599537 173.338349,8.56397891 172.53588,8.54957562 L172.226562,8.546875 Z M113.15625,11.515625 C112.802083,11.515625 112.485677,11.6041667 112.207031,11.78125 C111.963216,11.9361979 111.692485,12.2366943 111.394836,12.6827393 L111.265625,12.8828125 L111.265625,11.703125 L109.226562,11.703125 L109.226562,20 L111.421875,20 L111.421875,17.4375 C111.421875,16.0260417 111.483073,15.0989583 111.605469,14.65625 C111.727865,14.2135417 111.895833,13.9075521 112.109375,13.7382812 C112.322917,13.5690104 112.583333,13.484375 112.890625,13.484375 C113.162946,13.484375 113.454401,13.5723852 113.764987,13.7484056 L113.921875,13.84375 L114.601562,11.9296875 C114.138021,11.6536458 113.65625,11.515625 113.15625,11.515625 Z M135.429688,11.515625 C134.403993,11.515625 133.541632,11.9239583 132.842604,12.740625 L132.695312,12.921875 L132.695312,11.703125 L130.65625,11.703125 L130.65625,20 L132.851562,20 L132.851562,16.2421875 C132.851562,15.3151042 132.907552,14.6796875 133.019531,14.3359375 C133.13151,13.9921875 133.338542,13.7161458 133.640625,13.5078125 C133.942708,13.2994792 134.283854,13.1953125 134.664062,13.1953125 C134.960938,13.1953125 135.214844,13.2682292 135.425781,13.4140625 C135.636719,13.5598958 135.789062,13.7643229 135.882812,14.0273438 C135.96804,14.2664536 136.014527,14.7670562 136.022275,15.5291516 L136.023438,15.765625 L136.023438,20 L138.21875,20 L138.21875,14.84375 C138.21875,14.203125 138.178385,13.7109375 138.097656,13.3671875 C138.016927,13.0234375 137.873698,12.7161458 137.667969,12.4453125 C137.46224,12.1744792 137.158854,11.9518229 136.757812,11.7773438 C136.356771,11.6028646 135.914062,11.515625 135.429688,11.515625 Z M165.804688,8.546875 L163.492188,8.546875 L163.492188,20 L165.804688,20 L165.804688,8.546875 Z M59.078125,13.25 C59.59375,13.25 60.0260417,13.4609375 60.375,13.8828125 C60.7239583,14.3046875 60.8984375,14.9505208 60.8984375,15.8203125 C60.8984375,16.7526042 60.7291667,17.4231771 60.390625,17.8320312 C60.0520833,18.2408854 59.6276042,18.4453125 59.1171875,18.4453125 C58.5859375,18.4453125 58.1354167,18.2226562 57.765625,17.7773438 C57.3958333,17.3320312 57.2109375,16.6432292 57.2109375,15.7109375 C57.2109375,14.8984375 57.3880208,14.2851562 57.7421875,13.8710938 C58.0963542,13.4570312 58.5416667,13.25 59.078125,13.25 Z M68.6484375,13.3046875 C69.2213542,13.3046875 69.7018229,13.5234375 70.0898438,13.9609375 C70.4778646,14.3984375 70.671875,15.0234375 70.671875,15.8359375 C70.671875,16.6692708 70.4778646,17.3046875 70.0898438,17.7421875 C69.7018229,18.1796875 69.2213542,18.3984375 68.6484375,18.3984375 C68.0755208,18.3984375 67.59375,18.1796875 67.203125,17.7421875 C66.8125,17.3046875 66.6171875,16.6744792 66.6171875,15.8515625 C66.6171875,15.0286458 66.8125,14.3984375 67.203125,13.9609375 C67.59375,13.5234375 68.0755208,13.3046875 68.6484375,13.3046875 Z M171.351562,10.484375 C172.294271,10.484375 172.927083,10.5208333 173.25,10.59375 C173.682292,10.6875 174.039062,10.8671875 174.320312,11.1328125 C174.601562,11.3984375 174.820312,11.7682292 174.976562,12.2421875 C175.132812,12.7161458 175.210938,13.3958333 175.210938,14.28125 C175.210938,15.1666667 175.132812,15.8658854 174.976562,16.3789062 C174.820312,16.8919271 174.61849,17.2604167 174.371094,17.484375 C174.123698,17.7083333 173.8125,17.8671875 173.4375,17.9609375 C173.151042,18.0338542 172.684896,18.0703125 172.039062,18.0703125 L170.3125,18.0703125 L170.3125,10.484375 L171.351562,10.484375 Z M125.070312,13.1953125 C125.518229,13.1953125 125.898438,13.3606771 126.210938,13.6914062 C126.523438,14.0221354 126.6875,14.5052083 126.703125,15.140625 L123.421875,15.140625 C123.416667,14.5416667 123.570312,14.0677083 123.882812,13.71875 C124.195312,13.3697917 124.591146,13.1953125 125.070312,13.1953125 Z M40.6015625,13.1953125 C41.0494792,13.1953125 41.4296875,13.3606771 41.7421875,13.6914062 C42.0546875,14.0221354 42.21875,14.5052083 42.234375,15.140625 L38.953125,15.140625 C38.9479167,14.5416667 39.1015625,14.0677083 39.4140625,13.71875 C39.7265625,13.3697917 40.1223958,13.1953125 40.6015625,13.1953125 Z"></path>
    </g>
</svg>
