<?xml version="1.0" encoding="UTF-8"?>
<svg width="220px" height="30px" viewBox="0 0 220 30" version="1.1" xmlns="http://www.w3.org/2000/svg" xmlns:xlink="http://www.w3.org/1999/xlink">
    <title>MenuDuplicate</title>
    <g id="Page-1" stroke="none" stroke-width="1" fill="none" fill-rule="evenodd">
        <g id="MenuDuplicate" fill="#80848A">
            <path d="M215,1.42108547e-14 C217.761424,1.37035894e-14 220,2.23857625 220,5 L220,25 C220,27.7614237 217.761424,30 215,30 L5,30 C2.23857625,30 3.38176876e-16,27.7614237 0,25 L0,5 C-3.38176876e-16,2.23857625 2.23857625,1.29417632e-14 5,1.42108547e-14 L215,1.42108547e-14 Z M43.6289062,11.515625 C43.0768229,11.515625 42.5742188,11.6458333 42.1210938,11.90625 C41.7327009,12.1294643 41.4131856,12.4100765 41.1625478,12.7480867 L41.0429688,12.921875 L41.0429688,11.703125 L38.9960938,11.703125 L38.9960938,23.15625 L41.1914062,23.15625 L41.1914062,18.9765625 C41.6028646,19.4192708 41.9947917,19.7317708 42.3671875,19.9140625 C42.7395833,20.0963542 43.1549479,20.1875 43.6132812,20.1875 C44.5768229,20.1875 45.3971354,19.8033854 46.0742188,19.0351563 C46.7513021,18.2669271 47.0898438,17.1901042 47.0898438,15.8046875 C47.0898438,14.4557292 46.7539062,13.4036458 46.0820312,12.6484375 C45.4101562,11.8932292 44.5924479,11.515625 43.6289062,11.515625 Z M158.332031,11.515625 C157.779948,11.515625 157.277344,11.6458333 156.824219,11.90625 C156.435826,12.1294643 156.116311,12.4100765 155.865673,12.7480867 L155.746094,12.921875 L155.746094,11.703125 L153.699219,11.703125 L153.699219,23.15625 L155.894531,23.15625 L155.894531,18.9765625 C156.30599,19.4192708 156.697917,19.7317708 157.070312,19.9140625 C157.442708,20.0963542 157.858073,20.1875 158.316406,20.1875 C159.279948,20.1875 160.10026,19.8033854 160.777344,19.0351563 C161.454427,18.2669271 161.792969,17.1901042 161.792969,15.8046875 C161.792969,14.4557292 161.457031,13.4036458 160.785156,12.6484375 C160.113281,11.8932292 159.295573,11.515625 158.332031,11.515625 Z M97.7304688,11.515625 C96.4960938,11.515625 95.5169271,11.8971354 94.7929688,12.6601563 C94.0690104,13.4231771 93.7070312,14.4895833 93.7070312,15.859375 C93.7070312,17.2135417 94.0677083,18.2734375 94.7890625,19.0390625 C95.5104167,19.8046875 96.4778646,20.1875 97.6914062,20.1875 C98.7591146,20.1875 99.6106771,19.9348958 100.246094,19.4296875 C100.823745,18.9704072 101.231373,18.3109719 101.468976,17.4513817 L101.535156,17.1875 L99.3789062,16.8203125 C99.2695312,17.3984375 99.0820312,17.8059896 98.8164062,18.0429688 C98.5507812,18.2799479 98.2096354,18.3984375 97.7929688,18.3984375 C97.2356771,18.3984375 96.7916667,18.1953125 96.4609375,17.7890625 C96.1302083,17.3828125 95.9648438,16.6875 95.9648438,15.703125 C95.9648438,14.8177083 96.1276042,14.1861979 96.453125,13.8085938 C96.7786458,13.4309896 97.2148438,13.2421875 97.7617188,13.2421875 C98.1731771,13.2421875 98.5078125,13.3515625 98.765625,13.5703125 C98.9866071,13.7578125 99.1396684,14.0237564 99.2248087,14.3681441 L99.2617188,14.546875 L101.425781,14.15625 C101.165365,13.265625 100.736979,12.6028646 100.140625,12.1679688 C99.5442708,11.7330729 98.7408854,11.515625 97.7304688,11.515625 Z M198.761719,8.7734375 L196.558594,10.0546875 L196.558594,11.703125 L195.550781,11.703125 L195.550781,13.453125 L196.558594,13.453125 L196.558594,17.0703125 C196.558594,17.8463542 196.582031,18.3619792 196.628906,18.6171875 C196.686198,18.9765625 196.789062,19.2617188 196.9375,19.4726563 C197.085938,19.6835938 197.31901,19.8554688 197.636719,19.9882813 C197.954427,20.1210938 198.311198,20.1875 198.707031,20.1875 C199.260603,20.1875 199.764429,20.1071429 200.218511,19.9464286 L200.441406,19.859375 L200.253906,18.15625 C199.86849,18.296875 199.574219,18.3671875 199.371094,18.3671875 C199.22526,18.3671875 199.101562,18.3307292 199,18.2578125 C198.898438,18.1848958 198.833333,18.0924479 198.804688,17.9804688 C198.778906,17.8796875 198.764727,17.5500391 198.762148,16.9915234 L198.761719,16.796875 L198.761719,13.453125 L200.261719,13.453125 L200.261719,11.703125 L198.761719,11.703125 L198.761719,8.7734375 Z M190.722656,11.515625 C189.623698,11.515625 188.714844,11.9049479 187.996094,12.6835938 C187.277344,13.4622396 186.917969,14.5390625 186.917969,15.9140625 C186.917969,17.0651042 187.191406,18.0182292 187.738281,18.7734375 C188.43099,19.7161458 189.498698,20.1875 190.941406,20.1875 C191.852865,20.1875 192.611979,19.9778646 193.21875,19.5585938 C193.764844,19.18125 194.179102,18.6488672 194.461523,17.9614453 L194.550781,17.7265625 L192.363281,17.359375 C192.24349,17.7760417 192.066406,18.078125 191.832031,18.265625 C191.597656,18.453125 191.308594,18.546875 190.964844,18.546875 C190.459635,18.546875 190.03776,18.3658854 189.699219,18.0039063 C189.398293,17.682147 189.224939,17.2461902 189.179157,16.6960359 L189.167969,16.484375 L194.667969,16.484375 C194.699219,14.8020833 194.358073,13.5533854 193.644531,12.7382813 C192.93099,11.9231771 191.957031,11.515625 190.722656,11.515625 Z M27.1210938,8.546875 L24.9257812,8.546875 L24.9257812,12.671875 C24.2486979,11.9010417 23.4466146,11.515625 22.5195312,11.515625 C21.5091146,11.515625 20.6731771,11.8815104 20.0117188,12.6132813 C19.3502604,13.3450521 19.0195312,14.4140625 19.0195312,15.8203125 C19.0195312,17.1953125 19.359375,18.2669271 20.0390625,19.0351563 C20.71875,19.8033854 21.5351562,20.1875 22.4882812,20.1875 C22.9570312,20.1875 23.421875,20.0716146 23.8828125,19.8398438 C24.2779018,19.641183 24.6280293,19.3535555 24.9331952,18.9769611 L25.0820312,18.78125 L25.0820312,20 L27.1210938,20 L27.1210938,8.546875 Z M181.683594,11.515625 C180.490885,11.515625 179.610677,11.7604167 179.042969,12.25 C178.47526,12.7395833 178.191406,13.34375 178.191406,14.0625 C178.191406,14.859375 178.519531,15.4817708 179.175781,15.9296875 C179.64974,16.2526042 180.772135,16.609375 182.542969,17 C182.923177,17.0885417 183.167969,17.1848958 183.277344,17.2890625 C183.38151,17.3984375 183.433594,17.5364583 183.433594,17.703125 C183.433594,17.9479167 183.33724,18.1432292 183.144531,18.2890625 C182.858073,18.4973958 182.43099,18.6015625 181.863281,18.6015625 C181.347656,18.6015625 180.946615,18.4908854 180.660156,18.2695313 C180.414621,18.0797991 180.239876,17.814493 180.135922,17.4736129 L180.089844,17.296875 L177.886719,17.6328125 C178.089844,18.4192708 178.520833,19.0416667 179.179688,19.5 C179.838542,19.9583333 180.733073,20.1875 181.863281,20.1875 C183.108073,20.1875 184.048177,19.9140625 184.683594,19.3671875 C185.31901,18.8203125 185.636719,18.1666667 185.636719,17.40625 C185.636719,16.7083333 185.407552,16.1640625 184.949219,15.7734375 C184.485677,15.3880208 183.669271,15.0625 182.5,14.796875 C181.330729,14.53125 180.647135,14.3255208 180.449219,14.1796875 C180.303385,14.0703125 180.230469,13.9375 180.230469,13.78125 C180.230469,13.5989583 180.313802,13.4505208 180.480469,13.3359375 C180.730469,13.1744792 181.144531,13.09375 181.722656,13.09375 C182.18099,13.09375 182.533854,13.1796875 182.78125,13.3515625 C182.987413,13.4947917 183.138419,13.6904659 183.234266,13.9385851 L183.285156,14.09375 L185.355469,13.7109375 C185.147135,12.9869792 184.766927,12.4401042 184.214844,12.0703125 C183.66276,11.7005208 182.81901,11.515625 181.683594,11.515625 Z M172.925781,11.515625 C171.826823,11.515625 170.917969,11.9049479 170.199219,12.6835938 C169.480469,13.4622396 169.121094,14.5390625 169.121094,15.9140625 C169.121094,17.0651042 169.394531,18.0182292 169.941406,18.7734375 C170.634115,19.7161458 171.701823,20.1875 173.144531,20.1875 C174.05599,20.1875 174.815104,19.9778646 175.421875,19.5585938 C175.967969,19.18125 176.382227,18.6488672 176.664648,17.9614453 L176.753906,17.7265625 L174.566406,17.359375 C174.446615,17.7760417 174.269531,18.078125 174.035156,18.265625 C173.800781,18.453125 173.511719,18.546875 173.167969,18.546875 C172.66276,18.546875 172.240885,18.3658854 171.902344,18.0039063 C171.601418,17.682147 171.428064,17.2461902 171.382282,16.6960359 L171.371094,16.484375 L176.871094,16.484375 C176.902344,14.8020833 176.561198,13.5533854 175.847656,12.7382813 C175.134115,11.9231771 174.160156,11.515625 172.925781,11.515625 Z M31.4335938,11.703125 L29.2382812,11.703125 L29.2382812,16.953125 C29.2382812,17.734375 29.3372396,18.3463542 29.5351562,18.7890625 C29.7330729,19.2317708 30.0533854,19.5755208 30.4960938,19.8203125 C30.9388021,20.0651042 31.4388021,20.1875 31.9960938,20.1875 C32.5429688,20.1875 33.0625,20.0598958 33.5546875,19.8046875 C33.9765625,19.5859375 34.3286033,19.2983099 34.6108099,18.9418048 L34.7460938,18.7578125 L34.7460938,20 L36.7851562,20 L36.7851562,11.703125 L34.5898438,11.703125 L34.5890067,15.4508331 C34.5817522,16.4949577 34.5273438,17.1584821 34.4257812,17.4414063 C34.3164062,17.7460938 34.1132812,18.0013021 33.8164062,18.2070313 C33.5195312,18.4127604 33.1835938,18.515625 32.8085938,18.515625 C32.4804688,18.515625 32.2096354,18.4388021 31.9960938,18.2851563 C31.7825521,18.1315104 31.6354167,17.9231771 31.5546875,17.6601563 C31.4797247,17.4159226 31.4395661,16.782107 31.4342116,15.7587093 L31.4335938,15.515625 L31.4335938,11.703125 Z M69.8632812,11.515625 C68.7851562,11.515625 67.9726562,11.7083333 67.4257812,12.09375 C66.9335938,12.440625 66.5721875,12.95625 66.3415625,13.640625 L66.2695312,13.875 L68.2617188,14.234375 C68.3971354,13.8489583 68.5742188,13.5794271 68.7929688,13.4257813 C69.0117188,13.2721354 69.3164062,13.1953125 69.7070312,13.1953125 C70.2851562,13.1953125 70.6783854,13.2851563 70.8867188,13.4648438 C71.0690104,13.6220703 71.1715495,13.8720093 71.1943359,14.2146606 L71.1992188,14.3671875 L71.1992188,14.5859375 C70.8033854,14.7526042 70.0924479,14.9322917 69.0664062,15.125 C68.3059896,15.2708333 67.7239583,15.4414063 67.3203125,15.6367188 C66.9166667,15.8320313 66.6028646,16.1132813 66.3789062,16.4804688 C66.1549479,16.8476563 66.0429688,17.265625 66.0429688,17.734375 C66.0429688,18.4427083 66.2890625,19.0286458 66.78125,19.4921875 C67.2734375,19.9557292 67.9466146,20.1875 68.8007812,20.1875 C69.2851562,20.1875 69.7408854,20.0963542 70.1679688,19.9140625 C70.5950521,19.7317708 70.9960938,19.4583333 71.3710938,19.09375 C71.3867188,19.1354167 71.4127604,19.2213542 71.4492188,19.3515625 C71.5158854,19.5807292 71.5742188,19.7648958 71.6242187,19.9040625 L71.6601562,20 L73.8320312,20 C73.6393229,19.6041667 73.5078125,19.2330729 73.4375,18.8867188 C73.3759766,18.5836589 73.3413696,18.1340535 73.3336792,17.5379028 L73.3320312,17.2734375 L73.3554688,14.7109375 C73.3554688,13.7578125 73.2578125,13.1028646 73.0625,12.7460938 C72.8671875,12.3893229 72.5299479,12.0950521 72.0507812,11.8632813 C71.5716146,11.6315104 70.8424479,11.515625 69.8632812,11.515625 Z M146.292969,8.7734375 L144.089844,10.0546875 L144.089844,11.703125 L143.082031,11.703125 L143.082031,13.453125 L144.089844,13.453125 L144.089844,17.0703125 C144.089844,17.8463542 144.113281,18.3619792 144.160156,18.6171875 C144.217448,18.9765625 144.320312,19.2617188 144.46875,19.4726563 C144.617188,19.6835938 144.85026,19.8554688 145.167969,19.9882813 C145.485677,20.1210938 145.842448,20.1875 146.238281,20.1875 C146.791853,20.1875 147.295679,20.1071429 147.749761,19.9464286 L147.972656,19.859375 L147.785156,18.15625 C147.39974,18.296875 147.105469,18.3671875 146.902344,18.3671875 C146.75651,18.3671875 146.632812,18.3307292 146.53125,18.2578125 C146.429688,18.1848958 146.364583,18.0924479 146.335938,17.9804688 C146.310156,17.8796875 146.295977,17.5500391 146.293398,16.9915234 L146.292969,16.796875 L146.292969,13.453125 L147.792969,13.453125 L147.792969,11.703125 L146.292969,11.703125 L146.292969,8.7734375 Z M128.480469,11.515625 C127.38151,11.515625 126.472656,11.9049479 125.753906,12.6835938 C125.035156,13.4622396 124.675781,14.5390625 124.675781,15.9140625 C124.675781,17.0651042 124.949219,18.0182292 125.496094,18.7734375 C126.188802,19.7161458 127.25651,20.1875 128.699219,20.1875 C129.610677,20.1875 130.369792,19.9778646 130.976562,19.5585938 C131.522656,19.18125 131.936914,18.6488672 132.219336,17.9614453 L132.308594,17.7265625 L130.121094,17.359375 C130.001302,17.7760417 129.824219,18.078125 129.589844,18.265625 C129.355469,18.453125 129.066406,18.546875 128.722656,18.546875 C128.217448,18.546875 127.795573,18.3658854 127.457031,18.0039063 C127.156105,17.682147 126.982751,17.2461902 126.93697,16.6960359 L126.925781,16.484375 L132.425781,16.484375 C132.457031,14.8020833 132.115885,13.5533854 131.402344,12.7382813 C130.688802,11.9231771 129.714844,11.515625 128.480469,11.515625 Z M61.2617188,11.515625 C60.0273438,11.515625 59.0481771,11.8971354 58.3242188,12.6601563 C57.6002604,13.4231771 57.2382812,14.4895833 57.2382812,15.859375 C57.2382812,17.2135417 57.5989583,18.2734375 58.3203125,19.0390625 C59.0416667,19.8046875 60.0091146,20.1875 61.2226562,20.1875 C62.2903646,20.1875 63.1419271,19.9348958 63.7773438,19.4296875 C64.3549953,18.9704072 64.7626227,18.3109719 65.000226,17.4513817 L65.0664062,17.1875 L62.9101562,16.8203125 C62.8007812,17.3984375 62.6132812,17.8059896 62.3476562,18.0429688 C62.0820312,18.2799479 61.7408854,18.3984375 61.3242188,18.3984375 C60.7669271,18.3984375 60.3229167,18.1953125 59.9921875,17.7890625 C59.6614583,17.3828125 59.4960938,16.6875 59.4960938,15.703125 C59.4960938,14.8177083 59.6588542,14.1861979 59.984375,13.8085938 C60.3098958,13.4309896 60.7460938,13.2421875 61.2929688,13.2421875 C61.7044271,13.2421875 62.0390625,13.3515625 62.296875,13.5703125 C62.5178571,13.7578125 62.6709184,14.0237564 62.7560587,14.3681441 L62.7929688,14.546875 L64.9570312,14.15625 C64.6966146,13.265625 64.2682292,12.6028646 63.671875,12.1679688 C63.0755208,11.7330729 62.2721354,11.515625 61.2617188,11.515625 Z M105.238281,11.703125 L103.042969,11.703125 L103.042969,16.953125 C103.042969,17.734375 103.141927,18.3463542 103.339844,18.7890625 C103.53776,19.2317708 103.858073,19.5755208 104.300781,19.8203125 C104.74349,20.0651042 105.24349,20.1875 105.800781,20.1875 C106.347656,20.1875 106.867188,20.0598958 107.359375,19.8046875 C107.78125,19.5859375 108.133291,19.2983099 108.415497,18.9418048 L108.550781,18.7578125 L108.550781,20 L110.589844,20 L110.589844,11.703125 L108.394531,11.703125 L108.394531,15.203125 C108.394531,16.390625 108.339844,17.1367188 108.230469,17.4414063 C108.121094,17.7460938 107.917969,18.0013021 107.621094,18.2070313 C107.324219,18.4127604 106.988281,18.515625 106.613281,18.515625 C106.285156,18.515625 106.014323,18.4388021 105.800781,18.2851563 C105.58724,18.1315104 105.440104,17.9231771 105.359375,17.6601563 C105.284412,17.4159226 105.244254,16.782107 105.238899,15.7587093 L105.238281,11.703125 Z M77.8242188,8.7734375 L75.6210938,10.0546875 L75.6210938,11.703125 L74.6132812,11.703125 L74.6132812,13.453125 L75.6210938,13.453125 L75.6217969,17.2953125 C75.6260156,17.946875 75.6492187,18.3875 75.6914062,18.6171875 C75.7486979,18.9765625 75.8515625,19.2617188 76,19.4726563 C76.1484375,19.6835938 76.3815104,19.8554688 76.6992188,19.9882813 C77.0169271,20.1210938 77.3736979,20.1875 77.7695312,20.1875 C78.3231027,20.1875 78.8269292,20.1071429 79.2810108,19.9464286 L79.5039062,19.859375 L79.3164062,18.15625 C78.9309896,18.296875 78.6367188,18.3671875 78.4335938,18.3671875 C78.2877604,18.3671875 78.1640625,18.3307292 78.0625,18.2578125 C77.9609375,18.1848958 77.8958333,18.0924479 77.8671875,17.9804688 C77.8414063,17.8796875 77.8272266,17.5500391 77.8246484,16.9915234 L77.8242188,13.453125 L79.3242188,13.453125 L79.3242188,11.703125 L77.8242188,11.703125 L77.8242188,8.7734375 Z M84.0117188,11.515625 C82.9127604,11.515625 82.0039062,11.9049479 81.2851562,12.6835938 C80.5664062,13.4622396 80.2070312,14.5390625 80.2070312,15.9140625 C80.2070312,17.0651042 80.4804688,18.0182292 81.0273438,18.7734375 C81.7200521,19.7161458 82.7877604,20.1875 84.2304688,20.1875 C85.1419271,20.1875 85.9010417,19.9778646 86.5078125,19.5585938 C87.0539063,19.18125 87.4681641,18.6488672 87.7505859,17.9614453 L87.8398438,17.7265625 L85.6523438,17.359375 C85.5325521,17.7760417 85.3554688,18.078125 85.1210938,18.265625 C84.8867188,18.453125 84.5976562,18.546875 84.2539062,18.546875 C83.7486979,18.546875 83.3268229,18.3658854 82.9882812,18.0039063 C82.6873553,17.682147 82.5140014,17.2461902 82.4682195,16.6960359 L82.4570312,16.484375 L87.9570312,16.484375 C87.9882812,14.8020833 87.6471354,13.5533854 86.9335938,12.7382813 C86.2200521,11.9231771 85.2460938,11.515625 84.0117188,11.515625 Z M55.4726562,11.703125 L53.2773438,11.703125 L53.2773438,20 L55.4726562,20 L55.4726562,11.703125 Z M116.699219,11.515625 C116.345052,11.515625 116.028646,11.6041667 115.75,11.78125 C115.506185,11.9361979 115.235453,12.2366943 114.937805,12.6827393 L114.808594,12.8828125 L114.808594,11.703125 L112.769531,11.703125 L112.769531,20 L114.964844,20 L114.964844,17.4375 C114.964844,16.0260417 115.026042,15.0989583 115.148438,14.65625 C115.270833,14.2135417 115.438802,13.9075521 115.652344,13.7382813 C115.865885,13.5690104 116.126302,13.484375 116.433594,13.484375 C116.705915,13.484375 116.997369,13.5723852 117.307956,13.7484056 L117.464844,13.84375 L118.144531,11.9296875 C117.68099,11.6536458 117.199219,11.515625 116.699219,11.515625 Z M122.925781,11.515625 C122.571615,11.515625 122.255208,11.6041667 121.976562,11.78125 C121.732747,11.9361979 121.462016,12.2366943 121.164368,12.6827393 L121.035156,12.8828125 L121.035156,11.703125 L118.996094,11.703125 L118.996094,20 L121.191406,20 L121.191406,17.4375 C121.191406,16.0260417 121.252604,15.0989583 121.375,14.65625 C121.497396,14.2135417 121.665365,13.9075521 121.878906,13.7382813 C122.092448,13.5690104 122.352865,13.484375 122.660156,13.484375 C122.932478,13.484375 123.223932,13.5723852 123.534518,13.7484056 L123.691406,13.84375 L124.371094,11.9296875 C123.907552,11.6536458 123.425781,11.515625 122.925781,11.515625 Z M51.0273438,8.546875 L48.8320312,8.546875 L48.8320312,20 L51.0273438,20 L51.0273438,8.546875 Z M138.972656,11.515625 C137.946962,11.515625 137.084601,11.9239583 136.385573,12.740625 L136.238281,12.921875 L136.238281,11.703125 L134.199219,11.703125 L134.199219,20 L136.394531,20 L136.394531,16.2421875 C136.394531,15.3151042 136.450521,14.6796875 136.5625,14.3359375 C136.674479,13.9921875 136.88151,13.7161458 137.183594,13.5078125 C137.485677,13.2994792 137.826823,13.1953125 138.207031,13.1953125 C138.503906,13.1953125 138.757812,13.2682292 138.96875,13.4140625 C139.179688,13.5598958 139.332031,13.7643229 139.425781,14.0273438 C139.511009,14.2664536 139.557496,14.7670562 139.565244,15.5291516 L139.566406,15.765625 L139.566406,20 L141.761719,20 L141.761719,14.84375 C141.761719,14.203125 141.721354,13.7109375 141.640625,13.3671875 C141.559896,13.0234375 141.416667,12.7161458 141.210938,12.4453125 C141.005208,12.1744792 140.701823,11.9518229 140.300781,11.7773438 C139.89974,11.6028646 139.457031,11.515625 138.972656,11.515625 Z M167.371094,11.515625 C167.016927,11.515625 166.700521,11.6041667 166.421875,11.78125 C166.17806,11.9361979 165.907328,12.2366943 165.60968,12.6827393 L165.480469,12.8828125 L165.480469,11.703125 L163.441406,11.703125 L163.441406,20 L165.636719,20 L165.636719,17.4375 C165.636719,16.0260417 165.697917,15.0989583 165.820312,14.65625 C165.942708,14.2135417 166.110677,13.9075521 166.324219,13.7382813 C166.53776,13.5690104 166.798177,13.484375 167.105469,13.484375 C167.37779,13.484375 167.669244,13.5723852 167.979831,13.7484056 L168.136719,13.84375 L168.816406,11.9296875 C168.352865,11.6536458 167.871094,11.515625 167.371094,11.515625 Z M71.1992188,16.015625 L71.1992188,16.453125 C71.1992188,16.9791667 71.1705729,17.3359375 71.1132812,17.5234375 C71.0299479,17.8098958 70.8554688,18.0520833 70.5898438,18.25 C70.2304688,18.5104167 69.8528646,18.640625 69.4570312,18.640625 C69.1028646,18.640625 68.8111979,18.5286458 68.5820312,18.3046875 C68.3528646,18.0807292 68.2382812,17.8151042 68.2382812,17.5078125 C68.2382812,17.1953125 68.3815104,16.9375 68.6679688,16.734375 C68.8554688,16.609375 69.2539062,16.4817708 69.8632812,16.3515625 C70.3964844,16.2376302 70.8040771,16.1376546 71.0860596,16.0516357 L71.1992188,16.015625 Z M23.0976562,13.1953125 C23.6341146,13.1953125 24.0742188,13.4049479 24.4179688,13.8242188 C24.7617188,14.2434896 24.9335938,14.9296875 24.9335938,15.8828125 C24.9335938,16.7369792 24.7565104,17.3789063 24.4023438,17.8085938 C24.0481771,18.2382813 23.6184896,18.453125 23.1132812,18.453125 C22.4778646,18.453125 21.9830729,18.1666667 21.6289062,17.59375 C21.3841146,17.1979167 21.2617188,16.5572917 21.2617188,15.671875 C21.2617188,14.8489583 21.4375,14.2304688 21.7890625,13.8164063 C22.140625,13.4023438 22.5768229,13.1953125 23.0976562,13.1953125 Z M157.738281,13.25 C158.253906,13.25 158.686198,13.4609375 159.035156,13.8828125 C159.384115,14.3046875 159.558594,14.9505208 159.558594,15.8203125 C159.558594,16.7526042 159.389323,17.4231771 159.050781,17.8320313 C158.71224,18.2408854 158.28776,18.4453125 157.777344,18.4453125 C157.246094,18.4453125 156.795573,18.2226563 156.425781,17.7773438 C156.05599,17.3320313 155.871094,16.6432292 155.871094,15.7109375 C155.871094,14.8984375 156.048177,14.2851563 156.402344,13.8710938 C156.75651,13.4570313 157.201823,13.25 157.738281,13.25 Z M43.0351562,13.25 C43.5507812,13.25 43.9830729,13.4609375 44.3320312,13.8828125 C44.6809896,14.3046875 44.8554688,14.9505208 44.8554688,15.8203125 C44.8554688,16.7526042 44.6861979,17.4231771 44.3476562,17.8320313 C44.0091146,18.2408854 43.5846354,18.4453125 43.0742188,18.4453125 C42.5429688,18.4453125 42.0924479,18.2226563 41.7226562,17.7773438 C41.3528646,17.3320313 41.1679688,16.6432292 41.1679688,15.7109375 C41.1679688,14.8984375 41.3450521,14.2851563 41.6992188,13.8710938 C42.0533854,13.4570313 42.4986979,13.25 43.0351562,13.25 Z M173.058594,13.1953125 C173.50651,13.1953125 173.886719,13.3606771 174.199219,13.6914063 C174.511719,14.0221354 174.675781,14.5052083 174.691406,15.140625 L171.410156,15.140625 C171.404948,14.5416667 171.558594,14.0677083 171.871094,13.71875 C172.183594,13.3697917 172.579427,13.1953125 173.058594,13.1953125 Z M128.613281,13.1953125 C129.061198,13.1953125 129.441406,13.3606771 129.753906,13.6914063 C130.066406,14.0221354 130.230469,14.5052083 130.246094,15.140625 L126.964844,15.140625 C126.959635,14.5416667 127.113281,14.0677083 127.425781,13.71875 C127.738281,13.3697917 128.134115,13.1953125 128.613281,13.1953125 Z M84.1445312,13.1953125 C84.5924479,13.1953125 84.9726562,13.3606771 85.2851562,13.6914063 C85.5976562,14.0221354 85.7617188,14.5052083 85.7773438,15.140625 L82.4960938,15.140625 C82.4908854,14.5416667 82.6445312,14.0677083 82.9570312,13.71875 C83.2695312,13.3697917 83.6653646,13.1953125 84.1445312,13.1953125 Z M190.855469,13.1953125 C191.303385,13.1953125 191.683594,13.3606771 191.996094,13.6914063 C192.308594,14.0221354 192.472656,14.5052083 192.488281,15.140625 L189.207031,15.140625 C189.201823,14.5416667 189.355469,14.0677083 189.667969,13.71875 C189.980469,13.3697917 190.376302,13.1953125 190.855469,13.1953125 Z M55.4726562,8.546875 L53.2773438,8.546875 L53.2773438,10.578125 L55.4726562,10.578125 L55.4726562,8.546875 Z" id="Shape"></path>
        </g>
    </g>
</svg>