<?xml version="1.0" encoding="UTF-8"?>
<svg width="300px" height="40px" viewBox="0 0 300 40" version="1.1" xmlns="http://www.w3.org/2000/svg" xmlns:xlink="http://www.w3.org/1999/xlink">
    <title>New</title>
    <g stroke="none" stroke-width="1" fill="none" fill-rule="evenodd">
        <g id="New">
            <path fill="#FFFFFF" d="M8,0 L292,0 C296.418278,-8.11624501e-16 300,3.581722 300,8 L300,40 L300,40 L0,40 L0,8 C-5.41083001e-16,3.581722 3.581722,8.11624501e-16 8,0 Z"></path>
            <line x1="1" y1="39.5" x2="299" y2="39.5" id="Line" stroke="#DBDBDB" stroke-linecap="square"></line>
            <path fill="#424242" fill-rule="nonzero" d="M61.8955078,26.2109375 C63.2958984,26.2109375 64.3535156,25.9033203 65.0683594,25.2880859 C65.7832031,24.6728516 66.140625,23.9375 66.140625,23.0820312 C66.140625,22.296875 65.8828125,21.6845703 65.3671875,21.2451172 C64.8457031,20.8115234 63.9272461,20.4453125 62.6118164,20.1464844 C61.2963867,19.8476562 60.5273438,19.6162109 60.3046875,19.4521484 C60.140625,19.3291016 60.0585938,19.1796875 60.0585938,19.0039062 C60.0585938,18.7988281 60.1523438,18.6318359 60.3398438,18.5029297 C60.6210938,18.3212891 61.0869141,18.2304688 61.7373047,18.2304688 C62.2529297,18.2304688 62.6499023,18.3271484 62.9282227,18.5205078 C63.206543,18.7138672 63.3955078,18.9921875 63.4951172,19.3554688 L63.4951172,19.3554688 L65.8242188,18.9248047 C65.5898438,18.1103516 65.1621094,17.4951172 64.5410156,17.0791016 C63.9199219,16.6630859 62.9707031,16.4550781 61.6933594,16.4550781 C60.3515625,16.4550781 59.3613281,16.7304688 58.7226562,17.28125 C58.0839844,17.8320312 57.7646484,18.5117188 57.7646484,19.3203125 C57.7646484,20.2167969 58.1337891,20.9169922 58.8720703,21.4208984 C59.4052734,21.7841797 60.6679688,22.1855469 62.6601562,22.625 C63.0878906,22.7246094 63.3632812,22.8330078 63.4863281,22.9501953 C63.6035156,23.0732422 63.6621094,23.2285156 63.6621094,23.4160156 C63.6621094,23.6914062 63.5537109,23.9111328 63.3369141,24.0751953 C63.0146484,24.3095703 62.5341797,24.4267578 61.8955078,24.4267578 C61.3154297,24.4267578 60.8642578,24.3022461 60.5419922,24.0532227 C60.2197266,23.8041992 60.0058594,23.4394531 59.9003906,22.9589844 L59.9003906,22.9589844 L57.421875,23.3369141 C57.6503906,24.2216797 58.1352539,24.921875 58.8764648,25.4375 C59.6176758,25.953125 60.6240234,26.2109375 61.8955078,26.2109375 Z M70.8339844,26.2109375 C71.5605469,26.2109375 72.2109375,26.0878906 72.7851562,25.8417969 L72.7851562,25.8417969 L72.5742188,23.9257812 C72.140625,24.0839844 71.8095703,24.1630859 71.5810547,24.1630859 C71.4169922,24.1630859 71.277832,24.1220703 71.1635742,24.0400391 C71.0493164,23.9580078 70.9760742,23.8540039 70.9438477,23.7280273 C70.9116211,23.6020508 70.8955078,23.1582031 70.8955078,22.3964844 L70.8955078,18.6347656 L72.5830078,18.6347656 L72.5830078,16.6660156 L70.8955078,16.6660156 L70.8955078,13.3701172 L68.4169922,14.8115234 L68.4169922,16.6660156 L67.2832031,16.6660156 L67.2832031,18.6347656 L68.4169922,18.6347656 L68.4169922,22.7041016 C68.4169922,23.5771484 68.4433594,24.1572266 68.4960938,24.4443359 C68.5605469,24.8486328 68.6762695,25.1694336 68.8432617,25.4067383 C69.0102539,25.644043 69.2724609,25.8374023 69.6298828,25.9868164 C69.9873047,26.1362305 70.3886719,26.2109375 70.8339844,26.2109375 Z M76.7490234,26.2109375 C77.2939453,26.2109375 77.8066406,26.1083984 78.2871094,25.9033203 C78.7675781,25.6982422 79.21875,25.390625 79.640625,24.9804688 C79.6582031,25.0273438 79.6875,25.1240234 79.7285156,25.2705078 C79.8222656,25.5927734 79.9013672,25.8359375 79.9658203,26 L79.9658203,26 L82.4091797,26 C82.1923828,25.5546875 82.0444336,25.137207 81.965332,24.7475586 C81.8862305,24.3579102 81.8466797,23.7529297 81.8466797,22.9326172 L81.8466797,22.9326172 L81.8730469,20.0498047 C81.8730469,18.9775391 81.7631836,18.2407227 81.543457,17.8393555 C81.3237305,17.4379883 80.9443359,17.1069336 80.4052734,16.8461914 C79.8662109,16.5854492 79.0458984,16.4550781 77.9443359,16.4550781 C76.7314453,16.4550781 75.8173828,16.671875 75.2021484,17.1054688 C74.5869141,17.5390625 74.1533203,18.2070312 73.9013672,19.109375 L73.9013672,19.109375 L76.1425781,19.5136719 C76.2949219,19.0800781 76.4941406,18.7768555 76.7402344,18.6040039 C76.9863281,18.4311523 77.3291016,18.3447266 77.7685547,18.3447266 C78.4189453,18.3447266 78.8613281,18.4458008 79.0957031,18.6479492 C79.3300781,18.8500977 79.4472656,19.1884766 79.4472656,19.6630859 L79.4472656,19.6630859 L79.4472656,19.9091797 C79.0019531,20.0966797 78.2021484,20.2988281 77.0478516,20.515625 C76.1923828,20.6796875 75.5375977,20.871582 75.0834961,21.0913086 C74.6293945,21.3110352 74.2763672,21.6274414 74.0244141,22.0405273 C73.7724609,22.4536133 73.6464844,22.9238281 73.6464844,23.4511719 C73.6464844,24.2480469 73.9233398,24.9072266 74.4770508,25.4287109 C75.0307617,25.9501953 75.7880859,26.2109375 76.7490234,26.2109375 Z M77.4873047,24.4707031 C77.0888672,24.4707031 76.7607422,24.3447266 76.5029297,24.0927734 C76.2451172,23.8408203 76.1162109,23.5419922 76.1162109,23.1962891 C76.1162109,22.8447266 76.2773438,22.5546875 76.5996094,22.3261719 C76.8105469,22.1855469 77.2587891,22.0419922 77.9443359,21.8955078 C78.6298828,21.7490234 79.1308594,21.6230469 79.4472656,21.5175781 L79.4472656,21.5175781 L79.4472656,22.0097656 C79.4472656,22.6015625 79.4150391,23.0029297 79.3505859,23.2138672 C79.2568359,23.5361328 79.0605469,23.8085938 78.7617188,24.03125 C78.3574219,24.3242188 77.9326172,24.4707031 77.4873047,24.4707031 Z M86.671875,26 L86.671875,23.1171875 C86.671875,21.5292969 86.7407227,20.4863281 86.878418,19.9882812 C87.0161133,19.4902344 87.2050781,19.1459961 87.4453125,18.9555664 C87.6855469,18.7651367 87.9785156,18.6699219 88.3242188,18.6699219 C88.6816406,18.6699219 89.0683594,18.8046875 89.484375,19.0742188 L89.484375,19.0742188 L90.2490234,16.9208984 C89.7275391,16.6103516 89.1855469,16.4550781 88.6230469,16.4550781 C88.2246094,16.4550781 87.8686523,16.5546875 87.5551758,16.7539062 C87.2416992,16.953125 86.8886719,17.3662109 86.4960938,17.9931641 L86.4960938,17.9931641 L86.4960938,16.6660156 L84.2021484,16.6660156 L84.2021484,26 L86.671875,26 Z M93.84375,26.2109375 C94.5703125,26.2109375 95.2207031,26.0878906 95.7949219,25.8417969 L95.7949219,25.8417969 L95.5839844,23.9257812 C95.1503906,24.0839844 94.8193359,24.1630859 94.5908203,24.1630859 C94.4267578,24.1630859 94.2875977,24.1220703 94.1733398,24.0400391 C94.059082,23.9580078 93.9858398,23.8540039 93.9536133,23.7280273 C93.9213867,23.6020508 93.9052734,23.1582031 93.9052734,22.3964844 L93.9052734,18.6347656 L95.5927734,18.6347656 L95.5927734,16.6660156 L93.9052734,16.6660156 L93.9052734,13.3701172 L91.4267578,14.8115234 L91.4267578,16.6660156 L90.2929688,16.6660156 L90.2929688,18.6347656 L91.4267578,18.6347656 L91.4267578,22.7041016 C91.4267578,23.5771484 91.453125,24.1572266 91.5058594,24.4443359 C91.5703125,24.8486328 91.6860352,25.1694336 91.8530273,25.4067383 C92.0200195,25.644043 92.2822266,25.8374023 92.6396484,25.9868164 C92.9970703,26.1362305 93.3984375,26.2109375 93.84375,26.2109375 Z M104.759766,26.2109375 C105.304688,26.2109375 105.817383,26.1083984 106.297852,25.9033203 C106.77832,25.6982422 107.229492,25.390625 107.651367,24.9804688 C107.668945,25.0273438 107.698242,25.1240234 107.739258,25.2705078 C107.833008,25.5927734 107.912109,25.8359375 107.976562,26 L107.976562,26 L110.419922,26 C110.203125,25.5546875 110.055176,25.137207 109.976074,24.7475586 C109.896973,24.3579102 109.857422,23.7529297 109.857422,22.9326172 L109.857422,22.9326172 L109.883789,20.0498047 C109.883789,18.9775391 109.773926,18.2407227 109.554199,17.8393555 C109.334473,17.4379883 108.955078,17.1069336 108.416016,16.8461914 C107.876953,16.5854492 107.056641,16.4550781 105.955078,16.4550781 C104.742188,16.4550781 103.828125,16.671875 103.212891,17.1054688 C102.597656,17.5390625 102.164062,18.2070312 101.912109,19.109375 L101.912109,19.109375 L104.15332,19.5136719 C104.305664,19.0800781 104.504883,18.7768555 104.750977,18.6040039 C104.99707,18.4311523 105.339844,18.3447266 105.779297,18.3447266 C106.429688,18.3447266 106.87207,18.4458008 107.106445,18.6479492 C107.34082,18.8500977 107.458008,19.1884766 107.458008,19.6630859 L107.458008,19.6630859 L107.458008,19.9091797 C107.012695,20.0966797 106.212891,20.2988281 105.058594,20.515625 C104.203125,20.6796875 103.54834,20.871582 103.094238,21.0913086 C102.640137,21.3110352 102.287109,21.6274414 102.035156,22.0405273 C101.783203,22.4536133 101.657227,22.9238281 101.657227,23.4511719 C101.657227,24.2480469 101.934082,24.9072266 102.487793,25.4287109 C103.041504,25.9501953 103.798828,26.2109375 104.759766,26.2109375 Z M105.498047,24.4707031 C105.099609,24.4707031 104.771484,24.3447266 104.513672,24.0927734 C104.255859,23.8408203 104.126953,23.5419922 104.126953,23.1962891 C104.126953,22.8447266 104.288086,22.5546875 104.610352,22.3261719 C104.821289,22.1855469 105.269531,22.0419922 105.955078,21.8955078 C106.640625,21.7490234 107.141602,21.6230469 107.458008,21.5175781 L107.458008,21.5175781 L107.458008,22.0097656 C107.458008,22.6015625 107.425781,23.0029297 107.361328,23.2138672 C107.267578,23.5361328 107.071289,23.8085938 106.772461,24.03125 C106.368164,24.3242188 105.943359,24.4707031 105.498047,24.4707031 Z M119.771484,26 L119.771484,21.7724609 C119.771484,20.7294922 119.834473,20.0146484 119.960449,19.6279297 C120.086426,19.2412109 120.319336,18.9306641 120.65918,18.6962891 C120.999023,18.4619141 121.382812,18.3447266 121.810547,18.3447266 C122.144531,18.3447266 122.430176,18.4267578 122.66748,18.5908203 C122.904785,18.7548828 123.076172,18.9848633 123.181641,19.2807617 C123.287109,19.5766602 123.339844,20.2285156 123.339844,21.2363281 L123.339844,21.2363281 L123.339844,26 L125.80957,26 L125.80957,20.1992188 C125.80957,19.4785156 125.76416,18.9248047 125.67334,18.5380859 C125.58252,18.1513672 125.421387,17.8056641 125.189941,17.5009766 C124.958496,17.1962891 124.617188,16.9458008 124.166016,16.7495117 C123.714844,16.5532227 123.216797,16.4550781 122.671875,16.4550781 C121.435547,16.4550781 120.410156,16.9824219 119.595703,18.0371094 L119.595703,18.0371094 L119.595703,16.6660156 L117.301758,16.6660156 L117.301758,26 L119.771484,26 Z M132.120117,26.2109375 C133.145508,26.2109375 133.999512,25.9750977 134.682129,25.503418 C135.364746,25.0317383 135.864258,24.3447266 136.180664,23.4423828 L136.180664,23.4423828 L133.719727,23.0292969 C133.584961,23.4980469 133.385742,23.8378906 133.12207,24.0488281 C132.858398,24.2597656 132.533203,24.3652344 132.146484,24.3652344 C131.578125,24.3652344 131.103516,24.1616211 130.722656,23.7543945 C130.341797,23.347168 130.142578,22.7773438 130.125,22.0449219 L130.125,22.0449219 L136.3125,22.0449219 C136.347656,20.1523438 135.963867,18.7475586 135.161133,17.8305664 C134.358398,16.9135742 133.262695,16.4550781 131.874023,16.4550781 C130.637695,16.4550781 129.615234,16.8930664 128.806641,17.769043 C127.998047,18.6450195 127.59375,19.8564453 127.59375,21.4033203 C127.59375,22.6982422 127.901367,23.7705078 128.516602,24.6201172 C129.295898,25.6806641 130.49707,26.2109375 132.120117,26.2109375 Z M133.860352,20.5332031 L130.168945,20.5332031 C130.163086,19.859375 130.335938,19.3261719 130.6875,18.9335938 C131.039062,18.5410156 131.484375,18.3447266 132.023438,18.3447266 C132.527344,18.3447266 132.955078,18.5307617 133.306641,18.902832 C133.658203,19.2749023 133.842773,19.8183594 133.860352,20.5332031 L133.860352,20.5332031 Z M142.464844,26 L144.046875,19.9970703 L145.655273,26 L148.02832,26 L151.025391,16.6660156 L148.59082,16.6660156 L146.806641,22.7832031 L145.250977,16.6660156 L142.869141,16.6660156 L141.260742,22.7832031 L139.511719,16.6660156 L137.112305,16.6660156 L140.06543,26 L142.464844,26 Z M159.726562,29.5507812 L159.726562,24.8486328 C160.189453,25.3466797 160.630371,25.6982422 161.049316,25.9033203 C161.468262,26.1083984 161.935547,26.2109375 162.451172,26.2109375 C163.535156,26.2109375 164.458008,25.7788086 165.219727,24.9145508 C165.981445,24.050293 166.362305,22.8388672 166.362305,21.2802734 C166.362305,19.7626953 165.984375,18.5791016 165.228516,17.7294922 C164.472656,16.8798828 163.552734,16.4550781 162.46875,16.4550781 C161.847656,16.4550781 161.282227,16.6015625 160.772461,16.8945312 C160.262695,17.1875 159.858398,17.5683594 159.55957,18.0371094 L159.55957,18.0371094 L159.55957,16.6660156 L157.256836,16.6660156 L157.256836,29.5507812 L159.726562,29.5507812 Z M161.844727,24.2509766 C161.24707,24.2509766 160.740234,24.0004883 160.324219,23.4995117 C159.908203,22.9985352 159.700195,22.2236328 159.700195,21.1748047 C159.700195,20.2607422 159.899414,19.5708008 160.297852,19.1049805 C160.696289,18.6391602 161.197266,18.40625 161.800781,18.40625 C162.380859,18.40625 162.867188,18.6435547 163.259766,19.1181641 C163.652344,19.5927734 163.848633,20.3193359 163.848633,21.2978516 C163.848633,22.3466797 163.658203,23.1010742 163.277344,23.5610352 C162.896484,24.0209961 162.418945,24.2509766 161.844727,24.2509766 Z M170.686523,26 L170.686523,23.1171875 C170.686523,21.5292969 170.755371,20.4863281 170.893066,19.9882812 C171.030762,19.4902344 171.219727,19.1459961 171.459961,18.9555664 C171.700195,18.7651367 171.993164,18.6699219 172.338867,18.6699219 C172.696289,18.6699219 173.083008,18.8046875 173.499023,19.0742188 L173.499023,19.0742188 L174.263672,16.9208984 C173.742188,16.6103516 173.200195,16.4550781 172.637695,16.4550781 C172.239258,16.4550781 171.883301,16.5546875 171.569824,16.7539062 C171.256348,16.953125 170.90332,17.3662109 170.510742,17.9931641 L170.510742,17.9931641 L170.510742,16.6660156 L168.216797,16.6660156 L168.216797,26 L170.686523,26 Z M179.132812,26.2109375 C180.158203,26.2109375 181.012207,25.9750977 181.694824,25.503418 C182.377441,25.0317383 182.876953,24.3447266 183.193359,23.4423828 L183.193359,23.4423828 L180.732422,23.0292969 C180.597656,23.4980469 180.398438,23.8378906 180.134766,24.0488281 C179.871094,24.2597656 179.545898,24.3652344 179.15918,24.3652344 C178.59082,24.3652344 178.116211,24.1616211 177.735352,23.7543945 C177.354492,23.347168 177.155273,22.7773438 177.137695,22.0449219 L177.137695,22.0449219 L183.325195,22.0449219 C183.360352,20.1523438 182.976562,18.7475586 182.173828,17.8305664 C181.371094,16.9135742 180.275391,16.4550781 178.886719,16.4550781 C177.650391,16.4550781 176.62793,16.8930664 175.819336,17.769043 C175.010742,18.6450195 174.606445,19.8564453 174.606445,21.4033203 C174.606445,22.6982422 174.914062,23.7705078 175.529297,24.6201172 C176.308594,25.6806641 177.509766,26.2109375 179.132812,26.2109375 Z M180.873047,20.5332031 L177.181641,20.5332031 C177.175781,19.859375 177.348633,19.3261719 177.700195,18.9335938 C178.051758,18.5410156 178.49707,18.3447266 179.036133,18.3447266 C179.540039,18.3447266 179.967773,18.5307617 180.319336,18.902832 C180.670898,19.2749023 180.855469,19.8183594 180.873047,20.5332031 L180.873047,20.5332031 Z M188.941406,26.2109375 C190.341797,26.2109375 191.399414,25.9033203 192.114258,25.2880859 C192.829102,24.6728516 193.186523,23.9375 193.186523,23.0820312 C193.186523,22.296875 192.928711,21.6845703 192.413086,21.2451172 C191.891602,20.8115234 190.973145,20.4453125 189.657715,20.1464844 C188.342285,19.8476562 187.573242,19.6162109 187.350586,19.4521484 C187.186523,19.3291016 187.104492,19.1796875 187.104492,19.0039062 C187.104492,18.7988281 187.198242,18.6318359 187.385742,18.5029297 C187.666992,18.3212891 188.132812,18.2304688 188.783203,18.2304688 C189.298828,18.2304688 189.695801,18.3271484 189.974121,18.5205078 C190.252441,18.7138672 190.441406,18.9921875 190.541016,19.3554688 L190.541016,19.3554688 L192.870117,18.9248047 C192.635742,18.1103516 192.208008,17.4951172 191.586914,17.0791016 C190.96582,16.6630859 190.016602,16.4550781 188.739258,16.4550781 C187.397461,16.4550781 186.407227,16.7304688 185.768555,17.28125 C185.129883,17.8320312 184.810547,18.5117188 184.810547,19.3203125 C184.810547,20.2167969 185.179688,20.9169922 185.917969,21.4208984 C186.451172,21.7841797 187.713867,22.1855469 189.706055,22.625 C190.133789,22.7246094 190.40918,22.8330078 190.532227,22.9501953 C190.649414,23.0732422 190.708008,23.2285156 190.708008,23.4160156 C190.708008,23.6914062 190.599609,23.9111328 190.382812,24.0751953 C190.060547,24.3095703 189.580078,24.4267578 188.941406,24.4267578 C188.361328,24.4267578 187.910156,24.3022461 187.587891,24.0532227 C187.265625,23.8041992 187.051758,23.4394531 186.946289,22.9589844 L186.946289,22.9589844 L184.467773,23.3369141 C184.696289,24.2216797 185.181152,24.921875 185.922363,25.4375 C186.663574,25.953125 187.669922,26.2109375 188.941406,26.2109375 Z M199.154297,26.2109375 C200.179688,26.2109375 201.033691,25.9750977 201.716309,25.503418 C202.398926,25.0317383 202.898438,24.3447266 203.214844,23.4423828 L203.214844,23.4423828 L200.753906,23.0292969 C200.619141,23.4980469 200.419922,23.8378906 200.15625,24.0488281 C199.892578,24.2597656 199.567383,24.3652344 199.180664,24.3652344 C198.612305,24.3652344 198.137695,24.1616211 197.756836,23.7543945 C197.375977,23.347168 197.176758,22.7773438 197.15918,22.0449219 L197.15918,22.0449219 L203.34668,22.0449219 C203.381836,20.1523438 202.998047,18.7475586 202.195312,17.8305664 C201.392578,16.9135742 200.296875,16.4550781 198.908203,16.4550781 C197.671875,16.4550781 196.649414,16.8930664 195.84082,17.769043 C195.032227,18.6450195 194.62793,19.8564453 194.62793,21.4033203 C194.62793,22.6982422 194.935547,23.7705078 195.550781,24.6201172 C196.330078,25.6806641 197.53125,26.2109375 199.154297,26.2109375 Z M200.894531,20.5332031 L197.203125,20.5332031 C197.197266,19.859375 197.370117,19.3261719 197.72168,18.9335938 C198.073242,18.5410156 198.518555,18.3447266 199.057617,18.3447266 C199.561523,18.3447266 199.989258,18.5307617 200.34082,18.902832 C200.692383,19.2749023 200.876953,19.8183594 200.894531,20.5332031 L200.894531,20.5332031 Z M207.890625,26.2109375 C208.617188,26.2109375 209.267578,26.0878906 209.841797,25.8417969 L209.841797,25.8417969 L209.630859,23.9257812 C209.197266,24.0839844 208.866211,24.1630859 208.637695,24.1630859 C208.473633,24.1630859 208.334473,24.1220703 208.220215,24.0400391 C208.105957,23.9580078 208.032715,23.8540039 208.000488,23.7280273 C207.968262,23.6020508 207.952148,23.1582031 207.952148,22.3964844 L207.952148,18.6347656 L209.639648,18.6347656 L209.639648,16.6660156 L207.952148,16.6660156 L207.952148,13.3701172 L205.473633,14.8115234 L205.473633,16.6660156 L204.339844,16.6660156 L204.339844,18.6347656 L205.473633,18.6347656 L205.473633,22.7041016 C205.473633,23.5771484 205.5,24.1572266 205.552734,24.4443359 C205.617188,24.8486328 205.73291,25.1694336 205.899902,25.4067383 C206.066895,25.644043 206.329102,25.8374023 206.686523,25.9868164 C207.043945,26.1362305 207.445312,26.2109375 207.890625,26.2109375 Z"></path>
            <polygon fill="#00A8E8" fill-rule="nonzero" points="39 19.5052632 30.4947368 19.5052632 30.4947368 11 27.5052632 11 27.5052632 19.5052632 19 19.5052632 19 22.4947368 27.5052632 22.4947368 27.5052632 31 30.4947368 31 30.4947368 22.4947368 39 22.4947368"></polygon>
        </g>
    </g>
</svg>
