<?xml version="1.0" encoding="UTF-8"?>
<svg width="220px" height="30px" viewBox="0 0 220 30">
    <g stroke="none" stroke-width="1" fill="#80848A" fill-rule="evenodd">
        <path d="M215,0 C217.761424,-5.07265313e-16 220,2.23857625 220,5 L220,25 C220,27.7614237 217.761424,30 215,30 L5,30 C2.23857625,30 3.38176876e-16,27.7614237 0,25 L0,5 C-3.38176876e-16,2.23857625 2.23857625,-1.26909153e-15 5,0 L215,0 Z M153.164062,11.515625 C152.351562,11.515625 151.615885,11.6953125 150.957031,12.0546875 C150.298177,12.4140625 149.789062,12.9348958 149.429688,13.6171875 C149.070312,14.2994792 148.890625,15.0052083 148.890625,15.734375 C148.890625,16.6875 149.070312,17.4960938 149.429688,18.1601562 C149.789062,18.8242188 150.313802,19.328125 151.003906,19.671875 C151.69401,20.015625 152.419271,20.1875 153.179688,20.1875 C154.408854,20.1875 155.428385,19.7747396 156.238281,18.9492188 C157.048177,18.1236979 157.453125,17.0833333 157.453125,15.828125 C157.453125,14.5833333 157.052083,13.5533854 156.25,12.7382812 C155.447917,11.9231771 154.419271,11.515625 153.164062,11.515625 Z M60.9609375,11.515625 C59.8619792,11.515625 58.953125,11.9049479 58.234375,12.6835938 C57.515625,13.4622396 57.15625,14.5390625 57.15625,15.9140625 C57.15625,17.0651042 57.4296875,18.0182292 57.9765625,18.7734375 C58.6692708,19.7161458 59.7369792,20.1875 61.1796875,20.1875 C62.0911458,20.1875 62.8502604,19.9778646 63.4570312,19.5585938 C64.0638021,19.1393229 64.5078125,18.5286458 64.7890625,17.7265625 L64.7890625,17.7265625 L62.6015625,17.359375 C62.4817708,17.7760417 62.3046875,18.078125 62.0703125,18.265625 C61.8359375,18.453125 61.546875,18.546875 61.203125,18.546875 C60.6979167,18.546875 60.2760417,18.3658854 59.9375,18.0039062 C59.5989583,17.6419271 59.421875,17.1354167 59.40625,16.484375 L59.40625,16.484375 L64.90625,16.484375 C64.9375,14.8020833 64.5963542,13.5533854 63.8828125,12.7382812 C63.1692708,11.9231771 62.1953125,11.515625 60.9609375,11.515625 Z M172.109375,11.515625 C171.010417,11.515625 170.101562,11.9049479 169.382812,12.6835938 C168.664062,13.4622396 168.304687,14.5390625 168.304687,15.9140625 C168.304687,17.0651042 168.578125,18.0182292 169.125,18.7734375 C169.817708,19.7161458 170.885417,20.1875 172.328125,20.1875 C173.239583,20.1875 173.998698,19.9778646 174.605469,19.5585938 C175.21224,19.1393229 175.65625,18.5286458 175.9375,17.7265625 L175.9375,17.7265625 L173.75,17.359375 C173.630208,17.7760417 173.453125,18.078125 173.21875,18.265625 C172.984375,18.453125 172.695312,18.546875 172.351562,18.546875 C171.846354,18.546875 171.424479,18.3658854 171.085937,18.0039062 C170.747396,17.6419271 170.570312,17.1354167 170.554687,16.484375 L170.554687,16.484375 L176.054687,16.484375 C176.085937,14.8020833 175.744792,13.5533854 175.03125,12.7382812 C174.317708,11.9231771 173.34375,11.515625 172.109375,11.515625 Z M86.609375,11.515625 C85.4166667,11.515625 84.5364583,11.7604167 83.96875,12.25 C83.4010417,12.7395833 83.1171875,13.34375 83.1171875,14.0625 C83.1171875,14.859375 83.4453125,15.4817708 84.1015625,15.9296875 C84.5755208,16.2526042 85.6979167,16.609375 87.46875,17 C87.8489583,17.0885417 88.09375,17.1848958 88.203125,17.2890625 C88.3072917,17.3984375 88.359375,17.5364583 88.359375,17.703125 C88.359375,17.9479167 88.2630208,18.1432292 88.0703125,18.2890625 C87.7838542,18.4973958 87.3567708,18.6015625 86.7890625,18.6015625 C86.2734375,18.6015625 85.8723958,18.4908854 85.5859375,18.2695312 C85.2994792,18.0481771 85.109375,17.7239583 85.015625,17.296875 L85.015625,17.296875 L82.8125,17.6328125 C83.015625,18.4192708 83.4466146,19.0416667 84.1054688,19.5 C84.7643229,19.9583333 85.6588542,20.1875 86.7890625,20.1875 C88.0338542,20.1875 88.9739583,19.9140625 89.609375,19.3671875 C90.2447917,18.8203125 90.5625,18.1666667 90.5625,17.40625 C90.5625,16.7083333 90.3333333,16.1640625 89.875,15.7734375 C89.4114583,15.3880208 88.5950521,15.0625 87.4257812,14.796875 C86.2565104,14.53125 85.5729167,14.3255208 85.375,14.1796875 C85.2291667,14.0703125 85.15625,13.9375 85.15625,13.78125 C85.15625,13.5989583 85.2395833,13.4505208 85.40625,13.3359375 C85.65625,13.1744792 86.0703125,13.09375 86.6484375,13.09375 C87.1067708,13.09375 87.4596354,13.1796875 87.7070312,13.3515625 C87.9544271,13.5234375 88.1223958,13.7708333 88.2109375,14.09375 L88.2109375,14.09375 L90.28125,13.7109375 C90.0729167,12.9869792 89.6927083,12.4401042 89.140625,12.0703125 C88.5885417,11.7005208 87.7447917,11.515625 86.609375,11.515625 Z M96.25,11.515625 C95.4375,11.515625 94.7018229,11.6953125 94.0429688,12.0546875 C93.3841146,12.4140625 92.875,12.9348958 92.515625,13.6171875 C92.15625,14.2994792 91.9765625,15.0052083 91.9765625,15.734375 C91.9765625,16.6875 92.15625,17.4960938 92.515625,18.1601562 C92.875,18.8242188 93.3997396,19.328125 94.0898438,19.671875 C94.7799479,20.015625 95.5052083,20.1875 96.265625,20.1875 C97.4947917,20.1875 98.5143229,19.7747396 99.3242188,18.9492188 C100.134115,18.1236979 100.539062,17.0833333 100.539062,15.828125 C100.539062,14.5833333 100.138021,13.5533854 99.3359375,12.7382812 C98.5338542,11.9231771 97.5052083,11.515625 96.25,11.515625 Z M104.40625,11.703125 L102.210938,11.703125 L102.210938,16.953125 C102.210938,17.734375 102.309896,18.3463542 102.507812,18.7890625 C102.705729,19.2317708 103.026042,19.5755208 103.46875,19.8203125 C103.911458,20.0651042 104.411458,20.1875 104.96875,20.1875 C105.515625,20.1875 106.035156,20.0598958 106.527344,19.8046875 C107.019531,19.5494792 107.416667,19.2005208 107.71875,18.7578125 L107.71875,18.7578125 L107.71875,20 L109.757812,20 L109.757812,11.703125 L107.5625,11.703125 L107.5625,15.203125 C107.5625,16.390625 107.507812,17.1367188 107.398438,17.4414062 C107.289062,17.7460938 107.085938,18.0013021 106.789062,18.2070312 C106.492188,18.4127604 106.15625,18.515625 105.78125,18.515625 C105.453125,18.515625 105.182292,18.4388021 104.96875,18.2851562 C104.755208,18.1315104 104.608073,17.9231771 104.527344,17.6601562 C104.446615,17.3971354 104.40625,16.6822917 104.40625,15.515625 L104.40625,11.703125 Z M166.78125,8.546875 L164.585938,8.546875 L164.585938,12.671875 C163.908854,11.9010417 163.106771,11.515625 162.179688,11.515625 C161.169271,11.515625 160.333333,11.8815104 159.671875,12.6132812 C159.010417,13.3450521 158.679688,14.4140625 158.679688,15.8203125 C158.679688,17.1953125 159.019531,18.2669271 159.699219,19.0351562 C160.378906,19.8033854 161.195312,20.1875 162.148438,20.1875 C162.617188,20.1875 163.082031,20.0716146 163.542969,19.8398438 C164.003906,19.6080729 164.403646,19.2552083 164.742188,18.78125 L164.742188,18.78125 L164.742188,20 L166.78125,20 L166.78125,8.546875 Z M144.039062,11.515625 C142.804688,11.515625 141.825521,11.8971354 141.101562,12.6601562 C140.377604,13.4231771 140.015625,14.4895833 140.015625,15.859375 C140.015625,17.2135417 140.376302,18.2734375 141.097656,19.0390625 C141.81901,19.8046875 142.786458,20.1875 144,20.1875 C145.067708,20.1875 145.919271,19.9348958 146.554688,19.4296875 C147.190104,18.9244792 147.619792,18.1770833 147.84375,17.1875 L147.84375,17.1875 L145.6875,16.8203125 C145.578125,17.3984375 145.390625,17.8059896 145.125,18.0429688 C144.859375,18.2799479 144.518229,18.3984375 144.101562,18.3984375 C143.544271,18.3984375 143.10026,18.1953125 142.769531,17.7890625 C142.438802,17.3828125 142.273438,16.6875 142.273438,15.703125 C142.273438,14.8177083 142.436198,14.1861979 142.761719,13.8085938 C143.08724,13.4309896 143.523438,13.2421875 144.070312,13.2421875 C144.481771,13.2421875 144.816406,13.3515625 145.074219,13.5703125 C145.332031,13.7890625 145.497396,14.1145833 145.570312,14.546875 L145.570312,14.546875 L147.734375,14.15625 C147.473958,13.265625 147.045573,12.6028646 146.449219,12.1679688 C145.852865,11.7330729 145.049479,11.515625 144.039062,11.515625 Z M121.796875,11.515625 C120.5625,11.515625 119.583333,11.8971354 118.859375,12.6601562 C118.135417,13.4231771 117.773438,14.4895833 117.773438,15.859375 C117.773438,17.2135417 118.134115,18.2734375 118.855469,19.0390625 C119.576823,19.8046875 120.544271,20.1875 121.757812,20.1875 C122.825521,20.1875 123.677083,19.9348958 124.3125,19.4296875 C124.947917,18.9244792 125.377604,18.1770833 125.601562,17.1875 L125.601562,17.1875 L123.445312,16.8203125 C123.335938,17.3984375 123.148438,17.8059896 122.882812,18.0429688 C122.617188,18.2799479 122.276042,18.3984375 121.859375,18.3984375 C121.302083,18.3984375 120.858073,18.1953125 120.527344,17.7890625 C120.196615,17.3828125 120.03125,16.6875 120.03125,15.703125 C120.03125,14.8177083 120.19401,14.1861979 120.519531,13.8085938 C120.845052,13.4309896 121.28125,13.2421875 121.828125,13.2421875 C122.239583,13.2421875 122.574219,13.3515625 122.832031,13.5703125 C123.089844,13.7890625 123.255208,14.1145833 123.328125,14.546875 L123.328125,14.546875 L125.492188,14.15625 C125.231771,13.265625 124.803385,12.6028646 124.207031,12.1679688 C123.610677,11.7330729 122.807292,11.515625 121.796875,11.515625 Z M130.320312,11.515625 C129.221354,11.515625 128.3125,11.9049479 127.59375,12.6835938 C126.875,13.4622396 126.515625,14.5390625 126.515625,15.9140625 C126.515625,17.0651042 126.789062,18.0182292 127.335938,18.7734375 C128.028646,19.7161458 129.096354,20.1875 130.539062,20.1875 C131.450521,20.1875 132.209635,19.9778646 132.816406,19.5585938 C133.423177,19.1393229 133.867188,18.5286458 134.148438,17.7265625 L134.148438,17.7265625 L131.960938,17.359375 C131.841146,17.7760417 131.664062,18.078125 131.429688,18.265625 C131.195312,18.453125 130.90625,18.546875 130.5625,18.546875 C130.057292,18.546875 129.635417,18.3658854 129.296875,18.0039062 C128.958333,17.6419271 128.78125,17.1354167 128.765625,16.484375 L128.765625,16.484375 L134.265625,16.484375 C134.296875,14.8020833 133.955729,13.5533854 133.242188,12.7382812 C132.528646,11.9231771 131.554688,11.515625 130.320312,11.515625 Z M115.867188,11.515625 C115.513021,11.515625 115.196615,11.6041667 114.917969,11.78125 C114.639323,11.9583333 114.325521,12.3255208 113.976562,12.8828125 L113.976562,12.8828125 L113.976562,11.703125 L111.9375,11.703125 L111.9375,20 L114.132812,20 L114.132812,17.4375 C114.132812,16.0260417 114.19401,15.0989583 114.316406,14.65625 C114.438802,14.2135417 114.606771,13.9075521 114.820312,13.7382812 C115.033854,13.5690104 115.294271,13.484375 115.601562,13.484375 C115.919271,13.484375 116.263021,13.6041667 116.632812,13.84375 L116.632812,13.84375 L117.3125,11.9296875 C116.848958,11.6536458 116.367188,11.515625 115.867188,11.515625 Z M67.75,11.703125 L65.6171875,11.703125 L68.2421875,20 L70.375,20 L71.78125,14.6640625 L73.2109375,20 L75.3203125,20 L77.984375,11.703125 L75.8203125,11.703125 L74.234375,17.140625 L72.8515625,11.703125 L70.734375,11.703125 L69.3046875,17.140625 L67.75,11.703125 Z M55.546875,11.703125 L53.3515625,11.703125 L53.3515625,20 L55.546875,20 L55.546875,11.703125 Z M45.6953125,11.703125 L43.390625,11.703125 L46.734375,20 L48.7109375,20 L52.0078125,11.703125 L49.75,11.703125 L48.171875,15.9375 C48.0885417,16.171875 48.0104167,16.40625 47.9375,16.640625 C47.90625,16.7552083 47.8307292,16.9921875 47.7109375,17.3515625 L47.7109375,17.3515625 L47.2578125,15.9375 L45.6953125,11.703125 Z M162.757812,13.1953125 C163.294271,13.1953125 163.734375,13.4049479 164.078125,13.8242188 C164.421875,14.2434896 164.59375,14.9296875 164.59375,15.8828125 C164.59375,16.7369792 164.416667,17.3789062 164.0625,17.8085938 C163.708333,18.2382812 163.278646,18.453125 162.773438,18.453125 C162.138021,18.453125 161.643229,18.1666667 161.289062,17.59375 C161.044271,17.1979167 160.921875,16.5572917 160.921875,15.671875 C160.921875,14.8489583 161.097656,14.2304688 161.449219,13.8164062 C161.800781,13.4023438 162.236979,13.1953125 162.757812,13.1953125 Z M153.171875,13.3046875 C153.744792,13.3046875 154.22526,13.5234375 154.613281,13.9609375 C155.001302,14.3984375 155.195312,15.0234375 155.195312,15.8359375 C155.195312,16.6692708 155.001302,17.3046875 154.613281,17.7421875 C154.22526,18.1796875 153.744792,18.3984375 153.171875,18.3984375 C152.598958,18.3984375 152.117188,18.1796875 151.726562,17.7421875 C151.335938,17.3046875 151.140625,16.6744792 151.140625,15.8515625 C151.140625,15.0286458 151.335938,14.3984375 151.726562,13.9609375 C152.117188,13.5234375 152.598958,13.3046875 153.171875,13.3046875 Z M96.2578125,13.3046875 C96.8307292,13.3046875 97.3111979,13.5234375 97.6992188,13.9609375 C98.0872396,14.3984375 98.28125,15.0234375 98.28125,15.8359375 C98.28125,16.6692708 98.0872396,17.3046875 97.6992188,17.7421875 C97.3111979,18.1796875 96.8307292,18.3984375 96.2578125,18.3984375 C95.6848958,18.3984375 95.203125,18.1796875 94.8125,17.7421875 C94.421875,17.3046875 94.2265625,16.6744792 94.2265625,15.8515625 C94.2265625,15.0286458 94.421875,14.3984375 94.8125,13.9609375 C95.203125,13.5234375 95.6848958,13.3046875 96.2578125,13.3046875 Z M172.242187,13.1953125 C172.690104,13.1953125 173.070312,13.3606771 173.382812,13.6914062 C173.695312,14.0221354 173.859375,14.5052083 173.875,15.140625 L173.875,15.140625 L170.59375,15.140625 C170.588542,14.5416667 170.742187,14.0677083 171.054687,13.71875 C171.367187,13.3697917 171.763021,13.1953125 172.242187,13.1953125 Z M130.453125,13.1953125 C130.901042,13.1953125 131.28125,13.3606771 131.59375,13.6914062 C131.90625,14.0221354 132.070312,14.5052083 132.085938,15.140625 L132.085938,15.140625 L128.804688,15.140625 C128.799479,14.5416667 128.953125,14.0677083 129.265625,13.71875 C129.578125,13.3697917 129.973958,13.1953125 130.453125,13.1953125 Z M61.09375,13.1953125 C61.5416667,13.1953125 61.921875,13.3606771 62.234375,13.6914062 C62.546875,14.0221354 62.7109375,14.5052083 62.7265625,15.140625 L62.7265625,15.140625 L59.4453125,15.140625 C59.4401042,14.5416667 59.59375,14.0677083 59.90625,13.71875 C60.21875,13.3697917 60.6145833,13.1953125 61.09375,13.1953125 Z M55.546875,8.546875 L53.3515625,8.546875 L53.3515625,10.578125 L55.546875,10.578125 L55.546875,8.546875 Z"></path>
    </g>
</svg>
