<?xml version="1.0" encoding="UTF-8"?>
<svg width="220px" height="30px" viewBox="0 0 220 30">
    <g stroke="none" stroke-width="1" fill="#80848A" fill-rule="evenodd">
        <path d="M215,0 C217.761424,-5.07265313e-16 220,2.23857625 220,5 L220,25 C220,27.7614237 217.761424,30 215,30 L5,30 C2.23857625,30 3.38176876e-16,27.7614237 0,25 L0,5 C-3.38176876e-16,2.23857625 2.23857625,-1.26909153e-15 5,0 L215,0 Z M136.043757,11.515625 C135.491674,11.515625 134.98907,11.6458333 134.535945,11.90625 C134.147552,12.1294643 133.828037,12.4100765 133.577399,12.7480867 L133.45782,12.921875 L133.45782,11.703125 L131.410945,11.703125 L131.410945,23.15625 L133.606257,23.15625 L133.606257,18.9765625 C134.017716,19.4192708 134.409643,19.7317708 134.782038,19.9140625 C135.154434,20.0963542 135.569799,20.1875 136.028132,20.1875 C136.991674,20.1875 137.811986,19.8033854 138.48907,19.0351562 C139.166153,18.2669271 139.504695,17.1901042 139.504695,15.8046875 C139.504695,14.4557292 139.168757,13.4036458 138.496882,12.6484375 C137.825007,11.8932292 137.007299,11.515625 136.043757,11.515625 Z M75.0984447,8.7734375 L72.8953197,10.0546875 L72.8953197,11.703125 L71.8875072,11.703125 L71.8875072,13.453125 L72.8953197,13.453125 L72.8953197,17.0703125 C72.8953197,17.8463542 72.9187572,18.3619792 72.9656322,18.6171875 C73.0229238,18.9765625 73.1257884,19.2617188 73.2742259,19.4726562 C73.4226634,19.6835938 73.6557363,19.8554688 73.9734447,19.9882812 C74.291153,20.1210938 74.6479238,20.1875 75.0437572,20.1875 C75.5973286,20.1875 76.1011551,20.1071429 76.5552368,19.9464286 L76.7781322,19.859375 L76.5906322,18.15625 C76.2052155,18.296875 75.9109447,18.3671875 75.7078197,18.3671875 C75.5619863,18.3671875 75.4382884,18.3307292 75.3367259,18.2578125 C75.2351634,18.1848958 75.1700593,18.0924479 75.1414134,17.9804688 C75.1156322,17.8796875 75.1014525,17.5500391 75.0988744,16.9915234 L75.0984447,13.453125 L76.5984447,13.453125 L76.5984447,11.703125 L75.0984447,11.703125 L75.0984447,8.7734375 Z M159.39532,11.515625 C158.202611,11.515625 157.322403,11.7604167 156.754695,12.25 C156.186986,12.7395833 155.903132,13.34375 155.903132,14.0625 C155.903132,14.859375 156.231257,15.4817708 156.887507,15.9296875 C157.361466,16.2526042 158.483861,16.609375 160.254695,17 C160.634903,17.0885417 160.879695,17.1848958 160.98907,17.2890625 C161.093236,17.3984375 161.14532,17.5364583 161.14532,17.703125 C161.14532,17.9479167 161.048966,18.1432292 160.856257,18.2890625 C160.569799,18.4973958 160.142716,18.6015625 159.575007,18.6015625 C159.059382,18.6015625 158.658341,18.4908854 158.371882,18.2695312 C158.126346,18.0797991 157.951602,17.814493 157.847647,17.4736129 L157.80157,17.296875 L155.598445,17.6328125 C155.80157,18.4192708 156.232559,19.0416667 156.891413,19.5 C157.550268,19.9583333 158.444799,20.1875 159.575007,20.1875 C160.819799,20.1875 161.759903,19.9140625 162.39532,19.3671875 C163.030736,18.8203125 163.348445,18.1666667 163.348445,17.40625 C163.348445,16.7083333 163.119278,16.1640625 162.660945,15.7734375 C162.197403,15.3880208 161.380997,15.0625 160.211726,14.796875 C159.042455,14.53125 158.358861,14.3255208 158.160945,14.1796875 C158.015111,14.0703125 157.942195,13.9375 157.942195,13.78125 C157.942195,13.5989583 158.025528,13.4505208 158.192195,13.3359375 C158.442195,13.1744792 158.856257,13.09375 159.434382,13.09375 C159.892716,13.09375 160.24558,13.1796875 160.492976,13.3515625 C160.699139,13.4947917 160.850145,13.6904659 160.945992,13.9385851 L160.996882,14.09375 L163.067195,13.7109375 C162.858861,12.9869792 162.478653,12.4401042 161.92657,12.0703125 C161.374486,11.7005208 160.530736,11.515625 159.39532,11.515625 Z M85.8093822,11.515625 C84.7312572,11.515625 83.9187572,11.7083333 83.3718822,12.09375 C82.8796947,12.440625 82.5182884,12.95625 82.2876634,13.640625 L82.2156322,13.875 L84.2078197,14.234375 C84.3432363,13.8489583 84.5203197,13.5794271 84.7390697,13.4257812 C84.9578197,13.2721354 85.2625072,13.1953125 85.6531322,13.1953125 C86.2312572,13.1953125 86.6244863,13.2851562 86.8328197,13.4648438 C87.0151113,13.6220703 87.1176504,13.8720093 87.1404369,14.2146606 L87.1453197,14.3671875 L87.1453197,14.5859375 C86.7494863,14.7526042 86.0385488,14.9322917 85.0125072,15.125 C84.2520905,15.2708333 83.6700593,15.4414062 83.2664134,15.6367188 C82.8627676,15.8320312 82.5489655,16.1132812 82.3250072,16.4804688 C82.1010488,16.8476562 81.9890697,17.265625 81.9890697,17.734375 C81.9890697,18.4427083 82.2351634,19.0286458 82.7273509,19.4921875 C83.2195384,19.9557292 83.8927155,20.1875 84.7468822,20.1875 C85.2312572,20.1875 85.6869863,20.0963542 86.1140697,19.9140625 C86.541153,19.7317708 86.9421947,19.4583333 87.3171947,19.09375 C87.3328197,19.1354167 87.3588613,19.2213542 87.3953197,19.3515625 C87.4619863,19.5807292 87.5203197,19.7648958 87.5703197,19.9040625 L87.6062572,20 L89.7781322,20 C89.5854238,19.6041667 89.4539134,19.2330729 89.3836009,18.8867188 C89.3220775,18.5836589 89.2874705,18.1340535 89.2797801,17.5379028 L89.2781322,17.2734375 L89.3015697,14.7109375 C89.3015697,13.7578125 89.2039134,13.1028646 89.0086009,12.7460938 C88.8132884,12.3893229 88.4760488,12.0950521 87.9968822,11.8632812 C87.5177155,11.6315104 86.7885488,11.515625 85.8093822,11.515625 Z M168.434382,11.515625 C167.335424,11.515625 166.42657,11.9049479 165.70782,12.6835938 C164.98907,13.4622396 164.629695,14.5390625 164.629695,15.9140625 C164.629695,17.0651042 164.903132,18.0182292 165.450007,18.7734375 C166.142716,19.7161458 167.210424,20.1875 168.653132,20.1875 C169.564591,20.1875 170.323705,19.9778646 170.930476,19.5585938 C171.47657,19.18125 171.890827,18.6488672 172.173249,17.9614453 L172.262507,17.7265625 L170.075007,17.359375 C169.955216,17.7760417 169.778132,18.078125 169.543757,18.265625 C169.309382,18.453125 169.02032,18.546875 168.67657,18.546875 C168.171361,18.546875 167.749486,18.3658854 167.410945,18.0039062 C167.110019,17.682147 166.936665,17.2461902 166.890883,16.6960359 L166.879695,16.484375 L172.379695,16.484375 C172.410945,14.8020833 172.069799,13.5533854 171.356257,12.7382812 C170.642716,11.9231771 169.668757,11.515625 168.434382,11.515625 Z M108.848445,11.515625 C107.749486,11.515625 106.840632,11.9049479 106.121882,12.6835938 C105.403132,13.4622396 105.043757,14.5390625 105.043757,15.9140625 C105.043757,17.0651042 105.317195,18.0182292 105.86407,18.7734375 C106.556778,19.7161458 107.624486,20.1875 109.067195,20.1875 C109.978653,20.1875 110.737768,19.9778646 111.344538,19.5585938 C111.890632,19.18125 112.30489,18.6488672 112.587312,17.9614453 L112.67657,17.7265625 L110.48907,17.359375 C110.369278,17.7760417 110.192195,18.078125 109.95782,18.265625 C109.723445,18.453125 109.434382,18.546875 109.090632,18.546875 C108.585424,18.546875 108.163549,18.3658854 107.825007,18.0039062 C107.524081,17.682147 107.350727,17.2461902 107.304945,16.6960359 L107.293757,16.484375 L112.793757,16.484375 C112.825007,14.8020833 112.483861,13.5533854 111.77032,12.7382812 C111.056778,11.9231771 110.08282,11.515625 108.848445,11.515625 Z M46.4656322,11.515625 C45.2729238,11.515625 44.3927155,11.7604167 43.8250072,12.25 C43.2572988,12.7395833 42.9734447,13.34375 42.9734447,14.0625 C42.9734447,14.859375 43.3015697,15.4817708 43.9578197,15.9296875 C44.431778,16.2526042 45.5541738,16.609375 47.3250072,17 C47.7052155,17.0885417 47.9500072,17.1848958 48.0593822,17.2890625 C48.1635488,17.3984375 48.2156322,17.5364583 48.2156322,17.703125 C48.2156322,17.9479167 48.119278,18.1432292 47.9265697,18.2890625 C47.6401113,18.4973958 47.213028,18.6015625 46.6453197,18.6015625 C46.1296947,18.6015625 45.728653,18.4908854 45.4421947,18.2695312 C45.196659,18.0797991 45.0219141,17.814493 44.91796,17.4736129 L44.8718822,17.296875 L42.6687572,17.6328125 C42.8718822,18.4192708 43.3028718,19.0416667 43.9617259,19.5 C44.6205801,19.9583333 45.5151113,20.1875 46.6453197,20.1875 C47.8901113,20.1875 48.8302155,19.9140625 49.4656322,19.3671875 C50.1010488,18.8203125 50.4187572,18.1666667 50.4187572,17.40625 C50.4187572,16.7083333 50.1895905,16.1640625 49.7312572,15.7734375 C49.2677155,15.3880208 48.4513093,15.0625 47.2820384,14.796875 C46.1127676,14.53125 45.4291738,14.3255208 45.2312572,14.1796875 C45.0854238,14.0703125 45.0125072,13.9375 45.0125072,13.78125 C45.0125072,13.5989583 45.0958405,13.4505208 45.2625072,13.3359375 C45.5125072,13.1744792 45.9265697,13.09375 46.5046947,13.09375 C46.963028,13.09375 47.3158926,13.1796875 47.5632884,13.3515625 C47.7694516,13.4947917 47.9204571,13.6904659 48.0163049,13.9385851 L48.0671947,14.09375 L50.1375072,13.7109375 C49.9291738,12.9869792 49.5489655,12.4401042 48.9968822,12.0703125 C48.4447988,11.7005208 47.6010488,11.515625 46.4656322,11.515625 Z M60.9109447,11.515625 C59.8328197,11.515625 59.0203197,11.7083333 58.4734447,12.09375 C57.9812572,12.440625 57.6198509,12.95625 57.3892259,13.640625 L57.3171947,13.875 L59.3093822,14.234375 C59.4447988,13.8489583 59.6218822,13.5794271 59.8406322,13.4257812 C60.0593822,13.2721354 60.3640697,13.1953125 60.7546947,13.1953125 C61.3328197,13.1953125 61.7260488,13.2851562 61.9343822,13.4648438 C62.1166738,13.6220703 62.2192129,13.8720093 62.2419994,14.2146606 L62.2468822,14.3671875 L62.2468822,14.5859375 C61.8510488,14.7526042 61.1401113,14.9322917 60.1140697,15.125 C59.353653,15.2708333 58.7716218,15.4414062 58.3679759,15.6367188 C57.9643301,15.8320312 57.650528,16.1132812 57.4265697,16.4804688 C57.2026113,16.8476562 57.0906322,17.265625 57.0906322,17.734375 C57.0906322,18.4427083 57.3367259,19.0286458 57.8289134,19.4921875 C58.3211009,19.9557292 58.994278,20.1875 59.8484447,20.1875 C60.3328197,20.1875 60.7885488,20.0963542 61.2156322,19.9140625 C61.6427155,19.7317708 62.0437572,19.4583333 62.4187572,19.09375 C62.4343822,19.1354167 62.4604238,19.2213542 62.4968822,19.3515625 C62.5635488,19.5807292 62.6218822,19.7648958 62.6718822,19.9040625 L62.7078197,20 L64.8796947,20 C64.6869863,19.6041667 64.5554759,19.2330729 64.4851634,18.8867188 C64.42364,18.5836589 64.389033,18.1340535 64.3813426,17.5379028 L64.3796947,17.2734375 L64.4031322,14.7109375 C64.4031322,13.7578125 64.3054759,13.1028646 64.1101634,12.7460938 C63.9148509,12.3893229 63.5776113,12.0950521 63.0984447,11.8632812 C62.619278,11.6315104 61.8901113,11.515625 60.9109447,11.515625 Z M150.637507,11.515625 C149.538549,11.515625 148.629695,11.9049479 147.910945,12.6835938 C147.192195,13.4622396 146.83282,14.5390625 146.83282,15.9140625 C146.83282,17.0651042 147.106257,18.0182292 147.653132,18.7734375 C148.345841,19.7161458 149.413549,20.1875 150.856257,20.1875 C151.767716,20.1875 152.52683,19.9778646 153.133601,19.5585938 C153.679695,19.18125 154.093952,18.6488672 154.376374,17.9614453 L154.465632,17.7265625 L152.278132,17.359375 C152.158341,17.7760417 151.981257,18.078125 151.746882,18.265625 C151.512507,18.453125 151.223445,18.546875 150.879695,18.546875 C150.374486,18.546875 149.952611,18.3658854 149.61407,18.0039062 C149.313144,17.682147 149.13979,17.2461902 149.094008,16.6960359 L149.08282,16.484375 L154.58282,16.484375 C154.61407,14.8020833 154.272924,13.5533854 153.559382,12.7382812 C152.845841,11.9231771 151.871882,11.515625 150.637507,11.515625 Z M176.473445,8.7734375 L174.27032,10.0546875 L174.27032,11.703125 L173.262507,11.703125 L173.262507,13.453125 L174.27032,13.453125 L174.27032,17.0703125 C174.27032,17.8463542 174.293757,18.3619792 174.340632,18.6171875 C174.397924,18.9765625 174.500788,19.2617188 174.649226,19.4726562 C174.797663,19.6835938 175.030736,19.8554688 175.348445,19.9882812 C175.666153,20.1210938 176.022924,20.1875 176.418757,20.1875 C176.972329,20.1875 177.476155,20.1071429 177.930237,19.9464286 L178.153132,19.859375 L177.965632,18.15625 C177.580216,18.296875 177.285945,18.3671875 177.08282,18.3671875 C176.936986,18.3671875 176.813288,18.3307292 176.711726,18.2578125 C176.610163,18.1848958 176.545059,18.0924479 176.516413,17.9804688 C176.490632,17.8796875 176.476452,17.5500391 176.473874,16.9915234 L176.473445,13.453125 L177.973445,13.453125 L177.973445,11.703125 L176.473445,11.703125 L176.473445,8.7734375 Z M54.6453197,8.7734375 L52.4421947,10.0546875 L52.4421947,11.703125 L51.4343822,11.703125 L51.4343822,13.453125 L52.4421947,13.453125 L52.4428978,17.2953125 C52.4471165,17.946875 52.4703197,18.3875 52.5125072,18.6171875 C52.5697988,18.9765625 52.6726634,19.2617188 52.8211009,19.4726562 C52.9695384,19.6835938 53.2026113,19.8554688 53.5203197,19.9882812 C53.838028,20.1210938 54.1947988,20.1875 54.5906322,20.1875 C55.1442036,20.1875 55.6480301,20.1071429 56.1021118,19.9464286 L56.3250072,19.859375 L56.1375072,18.15625 C55.7520905,18.296875 55.4578197,18.3671875 55.2546947,18.3671875 C55.1088613,18.3671875 54.9851634,18.3307292 54.8836009,18.2578125 C54.7820384,18.1848958 54.7169343,18.0924479 54.6882884,17.9804688 C54.6625072,17.8796875 54.6483275,17.5500391 54.6457494,16.9915234 L54.6453197,13.453125 L56.1453197,13.453125 L56.1453197,11.703125 L54.6453197,11.703125 L54.6453197,8.7734375 Z M100.668757,11.515625 C99.6430627,11.515625 98.7807016,11.9239583 98.0816738,12.740625 L97.9343822,12.921875 L97.9343822,11.703125 L95.8953197,11.703125 L95.8953197,20 L98.0906322,20 L98.0906322,16.2421875 C98.0906322,15.3151042 98.1466218,14.6796875 98.2586009,14.3359375 C98.3705801,13.9921875 98.5776113,13.7161458 98.8796947,13.5078125 C99.181778,13.2994792 99.5229238,13.1953125 99.9031322,13.1953125 C100.200007,13.1953125 100.453913,13.2682292 100.664851,13.4140625 C100.875788,13.5598958 101.028132,13.7643229 101.121882,14.0273438 C101.207109,14.2664536 101.253597,14.7670562 101.261345,15.5291516 L101.262507,15.765625 L101.262507,20 L103.45782,20 L103.45782,14.84375 C103.45782,14.203125 103.417455,13.7109375 103.336726,13.3671875 C103.255997,13.0234375 103.112768,12.7161458 102.907038,12.4453125 C102.701309,12.1744792 102.397924,11.9518229 101.996882,11.7773438 C101.595841,11.6028646 101.153132,11.515625 100.668757,11.515625 Z M115.637507,11.703125 L113.504695,11.703125 L116.129695,20 L118.262507,20 L119.668757,14.6640625 L121.098445,20 L123.20782,20 L125.871882,11.703125 L123.70782,11.703125 L122.121882,17.140625 L120.73907,11.703125 L118.621882,11.703125 L117.192195,17.140625 L115.637507,11.703125 Z M145.08282,11.515625 C144.728653,11.515625 144.412247,11.6041667 144.133601,11.78125 C143.889786,11.9361979 143.619054,12.2366943 143.321406,12.6827393 L143.192195,12.8828125 L143.192195,11.703125 L141.153132,11.703125 L141.153132,20 L143.348445,20 L143.348445,17.4375 C143.348445,16.0260417 143.409643,15.0989583 143.532038,14.65625 C143.654434,14.2135417 143.822403,13.9075521 144.035945,13.7382812 C144.249486,13.5690104 144.509903,13.484375 144.817195,13.484375 C145.089516,13.484375 145.38097,13.5723852 145.691557,13.7484056 L145.848445,13.84375 L146.528132,11.9296875 C146.064591,11.6536458 145.58282,11.515625 145.08282,11.515625 Z M70.4031322,11.515625 C70.0489655,11.515625 69.7325593,11.6041667 69.4539134,11.78125 C69.2100983,11.9361979 68.9393667,12.2366943 68.6417186,12.6827393 L68.5125072,12.8828125 L68.5125072,11.703125 L66.4734447,11.703125 L66.4734447,20 L68.6687572,20 L68.6687572,17.4375 C68.6687572,16.0260417 68.7299551,15.0989583 68.8523509,14.65625 C68.9747468,14.2135417 69.1427155,13.9075521 69.3562572,13.7382812 C69.5697988,13.5690104 69.8302155,13.484375 70.1375072,13.484375 C70.4098286,13.484375 70.7012827,13.5723852 71.0118694,13.7484056 L71.1687572,13.84375 L71.8484447,11.9296875 C71.384903,11.6536458 70.9031322,11.515625 70.4031322,11.515625 Z M62.2468822,16.015625 L62.2468822,16.453125 C62.2468822,16.9791667 62.2182363,17.3359375 62.1609447,17.5234375 C62.0776113,17.8098958 61.9031322,18.0520833 61.6375072,18.25 C61.2781322,18.5104167 60.900528,18.640625 60.5046947,18.640625 C60.150528,18.640625 59.8588613,18.5286458 59.6296947,18.3046875 C59.400528,18.0807292 59.2859447,17.8151042 59.2859447,17.5078125 C59.2859447,17.1953125 59.4291738,16.9375 59.7156322,16.734375 C59.9031322,16.609375 60.3015697,16.4817708 60.9109447,16.3515625 C61.4441478,16.2376302 61.8517406,16.1376546 62.133723,16.0516357 L62.2468822,16.015625 Z M87.1453197,16.015625 L87.1453197,16.453125 C87.1453197,16.9791667 87.1166738,17.3359375 87.0593822,17.5234375 C86.9760488,17.8098958 86.8015697,18.0520833 86.5359447,18.25 C86.1765697,18.5104167 85.7989655,18.640625 85.4031322,18.640625 C85.0489655,18.640625 84.7572988,18.5286458 84.5281322,18.3046875 C84.2989655,18.0807292 84.1843822,17.8151042 84.1843822,17.5078125 C84.1843822,17.1953125 84.3276113,16.9375 84.6140697,16.734375 C84.8015697,16.609375 85.2000072,16.4817708 85.8093822,16.3515625 C86.3425853,16.2376302 86.7501781,16.1376546 87.0321605,16.0516357 L87.1453197,16.015625 Z M135.450007,13.25 C135.965632,13.25 136.397924,13.4609375 136.746882,13.8828125 C137.095841,14.3046875 137.27032,14.9505208 137.27032,15.8203125 C137.27032,16.7526042 137.101049,17.4231771 136.762507,17.8320312 C136.423966,18.2408854 135.999486,18.4453125 135.48907,18.4453125 C134.95782,18.4453125 134.507299,18.2226562 134.137507,17.7773438 C133.767716,17.3320312 133.58282,16.6432292 133.58282,15.7109375 C133.58282,14.8984375 133.759903,14.2851562 134.11407,13.8710938 C134.468236,13.4570312 134.913549,13.25 135.450007,13.25 Z M168.567195,13.1953125 C169.015111,13.1953125 169.39532,13.3606771 169.70782,13.6914062 C170.02032,14.0221354 170.184382,14.5052083 170.200007,15.140625 L166.918757,15.140625 C166.913549,14.5416667 167.067195,14.0677083 167.379695,13.71875 C167.692195,13.3697917 168.088028,13.1953125 168.567195,13.1953125 Z M108.981257,13.1953125 C109.429174,13.1953125 109.809382,13.3606771 110.121882,13.6914062 C110.434382,14.0221354 110.598445,14.5052083 110.61407,15.140625 L107.33282,15.140625 C107.327611,14.5416667 107.481257,14.0677083 107.793757,13.71875 C108.106257,13.3697917 108.502091,13.1953125 108.981257,13.1953125 Z M150.77032,13.1953125 C151.218236,13.1953125 151.598445,13.3606771 151.910945,13.6914062 C152.223445,14.0221354 152.387507,14.5052083 152.403132,15.140625 L149.121882,15.140625 C149.116674,14.5416667 149.27032,14.0677083 149.58282,13.71875 C149.89532,13.3697917 150.291153,13.1953125 150.77032,13.1953125 Z"></path>
    </g>
</svg>
