<?xml version="1.0" encoding="UTF-8"?>
<svg width="220px" height="30px" viewBox="0 0 220 30" version="1.1" xmlns="http://www.w3.org/2000/svg" xmlns:xlink="http://www.w3.org/1999/xlink">
    <title>MenuImportPreset</title>
    <g id="Page-1" stroke="none" stroke-width="1" fill="none" fill-rule="evenodd">
        <g id="MenuImportPreset" fill="#80848A">
            <path d="M215,0 C217.761424,-5.07265313e-16 220,2.23857625 220,5 L220,25 C220,27.7614237 217.761424,30 215,30 L5,30 C2.23857625,30 3.38176876e-16,27.7614237 0,25 L0,5 C-3.38176876e-16,2.23857625 2.23857625,-1.26909153e-15 5,0 L215,0 Z M105.035156,11.515625 C104.483073,11.515625 103.980469,11.6458333 103.527344,11.90625 C103.138951,12.1294643 102.819436,12.4100765 102.568798,12.7480867 L102.449219,12.921875 L102.449219,11.703125 L100.402344,11.703125 L100.402344,23.15625 L102.597656,23.15625 L102.597656,18.9765625 C103.009115,19.4192708 103.401042,19.7317708 103.773438,19.9140625 C104.145833,20.0963542 104.561198,20.1875 105.019531,20.1875 C105.983073,20.1875 106.803385,19.8033854 107.480469,19.0351562 C108.157552,18.2669271 108.496094,17.1901042 108.496094,15.8046875 C108.496094,14.4557292 108.160156,13.4036458 107.488281,12.6484375 C106.816406,11.8932292 105.998698,11.515625 105.035156,11.515625 Z M56.1445312,11.515625 C55.5924479,11.515625 55.0898438,11.6458333 54.6367188,11.90625 C54.2483259,12.1294643 53.9288106,12.4100765 53.6781728,12.7480867 L53.5585938,12.921875 L53.5585938,11.703125 L51.5117188,11.703125 L51.5117188,23.15625 L53.7070312,23.15625 L53.7070312,18.9765625 C54.1184896,19.4192708 54.5104167,19.7317708 54.8828125,19.9140625 C55.2552083,20.0963542 55.6705729,20.1875 56.1289062,20.1875 C57.0924479,20.1875 57.9127604,19.8033854 58.5898438,19.0351562 C59.2669271,18.2669271 59.6054688,17.1901042 59.6054688,15.8046875 C59.6054688,14.4557292 59.2695312,13.4036458 58.5976562,12.6484375 C57.9257812,11.8932292 57.1080729,11.515625 56.1445312,11.515625 Z M179.363281,8.3515625 L177.714844,8.3515625 L174.878906,20.1953125 L176.496094,20.1953125 L179.363281,8.3515625 Z M90.3632812,11.515625 C89.2851562,11.515625 88.4726562,11.7083333 87.9257812,12.09375 C87.4335938,12.440625 87.0721875,12.95625 86.8415625,13.640625 L86.7695312,13.875 L88.7617188,14.234375 C88.8971354,13.8489583 89.0742188,13.5794271 89.2929688,13.4257812 C89.5117188,13.2721354 89.8164062,13.1953125 90.2070312,13.1953125 C90.7851562,13.1953125 91.1783854,13.2851562 91.3867188,13.4648438 C91.5690104,13.6220703 91.6715495,13.8720093 91.6943359,14.2146606 L91.6992188,14.3671875 L91.6992188,14.5859375 C91.3033854,14.7526042 90.5924479,14.9322917 89.5664062,15.125 C88.8059896,15.2708333 88.2239583,15.4414062 87.8203125,15.6367188 C87.4166667,15.8320312 87.1028646,16.1132812 86.8789062,16.4804688 C86.6549479,16.8476562 86.5429688,17.265625 86.5429688,17.734375 C86.5429688,18.4427083 86.7890625,19.0286458 87.28125,19.4921875 C87.7734375,19.9557292 88.4466146,20.1875 89.3007812,20.1875 C89.7851562,20.1875 90.2408854,20.0963542 90.6679688,19.9140625 C91.0950521,19.7317708 91.4960938,19.4583333 91.8710938,19.09375 C91.8867188,19.1354167 91.9127604,19.2213542 91.9492188,19.3515625 C92.0158854,19.5807292 92.0742188,19.7648958 92.1242188,19.9040625 L92.1601562,20 L94.3320312,20 C94.1393229,19.6041667 94.0078125,19.2330729 93.9375,18.8867188 C93.8759766,18.5836589 93.8413696,18.1340535 93.8336792,17.5379028 L93.8320312,17.2734375 L93.8554688,14.7109375 C93.8554688,13.7578125 93.7578125,13.1028646 93.5625,12.7460938 C93.3671875,12.3893229 93.0299479,12.0950521 92.5507812,11.8632812 C92.0716146,11.6315104 91.3424479,11.515625 90.3632812,11.515625 Z M145.464844,8.7734375 L143.261719,10.0546875 L143.261719,11.703125 L142.253906,11.703125 L142.253906,13.453125 L143.261719,13.453125 L143.261719,17.0703125 C143.261719,17.8463542 143.285156,18.3619792 143.332031,18.6171875 C143.389323,18.9765625 143.492188,19.2617188 143.640625,19.4726562 C143.789062,19.6835938 144.022135,19.8554688 144.339844,19.9882812 C144.657552,20.1210938 145.014323,20.1875 145.410156,20.1875 C145.963728,20.1875 146.467554,20.1071429 146.921636,19.9464286 L147.144531,19.859375 L146.957031,18.15625 C146.571615,18.296875 146.277344,18.3671875 146.074219,18.3671875 C145.928385,18.3671875 145.804688,18.3307292 145.703125,18.2578125 C145.601562,18.1848958 145.536458,18.0924479 145.507812,17.9804688 C145.482031,17.8796875 145.467852,17.5500391 145.465273,16.9915234 L145.464844,16.796875 L145.464844,13.453125 L146.964844,13.453125 L146.964844,11.703125 L145.464844,11.703125 L145.464844,8.7734375 Z M137.425781,11.515625 C136.326823,11.515625 135.417969,11.9049479 134.699219,12.6835938 C133.980469,13.4622396 133.621094,14.5390625 133.621094,15.9140625 C133.621094,17.0651042 133.894531,18.0182292 134.441406,18.7734375 C135.134115,19.7161458 136.201823,20.1875 137.644531,20.1875 C138.55599,20.1875 139.315104,19.9778646 139.921875,19.5585938 C140.467969,19.18125 140.882227,18.6488672 141.164648,17.9614453 L141.253906,17.7265625 L139.066406,17.359375 C138.946615,17.7760417 138.769531,18.078125 138.535156,18.265625 C138.300781,18.453125 138.011719,18.546875 137.667969,18.546875 C137.16276,18.546875 136.740885,18.3658854 136.402344,18.0039062 C136.101418,17.682147 135.928064,17.2461902 135.882282,16.6960359 L135.871094,16.484375 L141.371094,16.484375 C141.402344,14.8020833 141.061198,13.5533854 140.347656,12.7382812 C139.634115,11.9231771 138.660156,11.515625 137.425781,11.515625 Z M128.386719,11.515625 C127.19401,11.515625 126.313802,11.7604167 125.746094,12.25 C125.178385,12.7395833 124.894531,13.34375 124.894531,14.0625 C124.894531,14.859375 125.222656,15.4817708 125.878906,15.9296875 C126.352865,16.2526042 127.47526,16.609375 129.246094,17 C129.626302,17.0885417 129.871094,17.1848958 129.980469,17.2890625 C130.084635,17.3984375 130.136719,17.5364583 130.136719,17.703125 C130.136719,17.9479167 130.040365,18.1432292 129.847656,18.2890625 C129.561198,18.4973958 129.134115,18.6015625 128.566406,18.6015625 C128.050781,18.6015625 127.64974,18.4908854 127.363281,18.2695312 C127.117746,18.0797991 126.943001,17.814493 126.839047,17.4736129 L126.792969,17.296875 L124.589844,17.6328125 C124.792969,18.4192708 125.223958,19.0416667 125.882812,19.5 C126.541667,19.9583333 127.436198,20.1875 128.566406,20.1875 C129.811198,20.1875 130.751302,19.9140625 131.386719,19.3671875 C132.022135,18.8203125 132.339844,18.1666667 132.339844,17.40625 C132.339844,16.7083333 132.110677,16.1640625 131.652344,15.7734375 C131.188802,15.3880208 130.372396,15.0625 129.203125,14.796875 C128.033854,14.53125 127.35026,14.3255208 127.152344,14.1796875 C127.00651,14.0703125 126.933594,13.9375 126.933594,13.78125 C126.933594,13.5989583 127.016927,13.4505208 127.183594,13.3359375 C127.433594,13.1744792 127.847656,13.09375 128.425781,13.09375 C128.884115,13.09375 129.236979,13.1796875 129.484375,13.3515625 C129.690538,13.4947917 129.841544,13.6904659 129.937391,13.9385851 L129.988281,14.09375 L132.058594,13.7109375 C131.85026,12.9869792 131.470052,12.4401042 130.917969,12.0703125 C130.365885,11.7005208 129.522135,11.515625 128.386719,11.515625 Z M119.628906,11.515625 C118.529948,11.515625 117.621094,11.9049479 116.902344,12.6835938 C116.183594,13.4622396 115.824219,14.5390625 115.824219,15.9140625 C115.824219,17.0651042 116.097656,18.0182292 116.644531,18.7734375 C117.33724,19.7161458 118.404948,20.1875 119.847656,20.1875 C120.759115,20.1875 121.518229,19.9778646 122.125,19.5585938 C122.671094,19.18125 123.085352,18.6488672 123.367773,17.9614453 L123.457031,17.7265625 L121.269531,17.359375 C121.14974,17.7760417 120.972656,18.078125 120.738281,18.265625 C120.503906,18.453125 120.214844,18.546875 119.871094,18.546875 C119.365885,18.546875 118.94401,18.3658854 118.605469,18.0039062 C118.304543,17.682147 118.131189,17.2461902 118.085407,16.6960359 L118.074219,16.484375 L123.574219,16.484375 C123.605469,14.8020833 123.264323,13.5533854 122.550781,12.7382812 C121.83724,11.9231771 120.863281,11.515625 119.628906,11.515625 Z M183.519531,11.515625 C182.326823,11.515625 181.446615,11.7604167 180.878906,12.25 C180.311198,12.7395833 180.027344,13.34375 180.027344,14.0625 C180.027344,14.859375 180.355469,15.4817708 181.011719,15.9296875 C181.485677,16.2526042 182.608073,16.609375 184.378906,17 C184.759115,17.0885417 185.003906,17.1848958 185.113281,17.2890625 C185.217448,17.3984375 185.269531,17.5364583 185.269531,17.703125 C185.269531,17.9479167 185.173177,18.1432292 184.980469,18.2890625 C184.69401,18.4973958 184.266927,18.6015625 183.699219,18.6015625 C183.183594,18.6015625 182.782552,18.4908854 182.496094,18.2695312 C182.250558,18.0797991 182.075813,17.814493 181.971859,17.4736129 L181.925781,17.296875 L179.722656,17.6328125 C179.925781,18.4192708 180.356771,19.0416667 181.015625,19.5 C181.674479,19.9583333 182.56901,20.1875 183.699219,20.1875 C184.94401,20.1875 185.884115,19.9140625 186.519531,19.3671875 C187.154948,18.8203125 187.472656,18.1666667 187.472656,17.40625 C187.472656,16.7083333 187.24349,16.1640625 186.785156,15.7734375 C186.321615,15.3880208 185.505208,15.0625 184.335938,14.796875 C183.166667,14.53125 182.483073,14.3255208 182.285156,14.1796875 C182.139323,14.0703125 182.066406,13.9375 182.066406,13.78125 C182.066406,13.5989583 182.14974,13.4505208 182.316406,13.3359375 C182.566406,13.1744792 182.980469,13.09375 183.558594,13.09375 C184.016927,13.09375 184.369792,13.1796875 184.617188,13.3515625 C184.823351,13.4947917 184.974356,13.6904659 185.070204,13.9385851 L185.121094,14.09375 L187.191406,13.7109375 C186.983073,12.9869792 186.602865,12.4401042 186.050781,12.0703125 C185.498698,11.7005208 184.654948,11.515625 183.519531,11.515625 Z M65.1132812,11.515625 C64.3007812,11.515625 63.5651042,11.6953125 62.90625,12.0546875 C62.2473958,12.4140625 61.7382812,12.9348958 61.3789062,13.6171875 C61.0195312,14.2994792 60.8398438,15.0052083 60.8398438,15.734375 C60.8398438,16.6875 61.0195312,17.4960938 61.3789062,18.1601562 C61.7382812,18.8242188 62.2630208,19.328125 62.953125,19.671875 C63.6432292,20.015625 64.3684896,20.1875 65.1289062,20.1875 C66.3580729,20.1875 67.3776042,19.7747396 68.1875,18.9492188 C68.9973958,18.1236979 69.4023438,17.0833333 69.4023438,15.828125 C69.4023438,14.5833333 69.0013021,13.5533854 68.1992188,12.7382812 C67.3971354,11.9231771 66.3684896,11.515625 65.1132812,11.515625 Z M79.6523438,8.7734375 L77.4492188,10.0546875 L77.4492188,11.703125 L76.4414062,11.703125 L76.4414062,13.453125 L77.4492188,13.453125 L77.4499219,17.2953125 C77.4541406,17.946875 77.4773438,18.3875 77.5195312,18.6171875 C77.5768229,18.9765625 77.6796875,19.2617188 77.828125,19.4726562 C77.9765625,19.6835938 78.2096354,19.8554688 78.5273438,19.9882812 C78.8450521,20.1210938 79.2018229,20.1875 79.5976562,20.1875 C80.1512277,20.1875 80.6550542,20.1071429 81.1091358,19.9464286 L81.3320312,19.859375 L81.1445312,18.15625 C80.7591146,18.296875 80.4648438,18.3671875 80.2617188,18.3671875 C80.1158854,18.3671875 79.9921875,18.3307292 79.890625,18.2578125 C79.7890625,18.1848958 79.7239583,18.0924479 79.6953125,17.9804688 C79.6695312,17.8796875 79.6553516,17.5500391 79.6527734,16.9915234 L79.6523438,13.453125 L81.1523438,13.453125 L81.1523438,11.703125 L79.6523438,11.703125 L79.6523438,8.7734375 Z M170.316406,11.515625 C169.217448,11.515625 168.308594,11.9049479 167.589844,12.6835938 C166.871094,13.4622396 166.511719,14.5390625 166.511719,15.9140625 C166.511719,17.0651042 166.785156,18.0182292 167.332031,18.7734375 C168.02474,19.7161458 169.092448,20.1875 170.535156,20.1875 C171.446615,20.1875 172.205729,19.9778646 172.8125,19.5585938 C173.358594,19.18125 173.772852,18.6488672 174.055273,17.9614453 L174.144531,17.7265625 L171.957031,17.359375 C171.83724,17.7760417 171.660156,18.078125 171.425781,18.265625 C171.191406,18.453125 170.902344,18.546875 170.558594,18.546875 C170.053385,18.546875 169.63151,18.3658854 169.292969,18.0039062 C168.992043,17.682147 168.818689,17.2461902 168.772907,16.6960359 L168.761719,16.484375 L174.261719,16.484375 C174.292969,14.8020833 173.951823,13.5533854 173.238281,12.7382812 C172.52474,11.9231771 171.550781,11.515625 170.316406,11.515625 Z M35.0976562,11.703125 L32.9023438,11.703125 L32.9023438,20 L35.0976562,20 L35.0976562,11.703125 Z M114.074219,11.515625 C113.720052,11.515625 113.403646,11.6041667 113.125,11.78125 C112.881185,11.9361979 112.610453,12.2366943 112.312805,12.6827393 L112.183594,12.8828125 L112.183594,11.703125 L110.144531,11.703125 L110.144531,20 L112.339844,20 L112.339844,17.4375 C112.339844,16.0260417 112.401042,15.0989583 112.523438,14.65625 C112.645833,14.2135417 112.813802,13.9075521 113.027344,13.7382812 C113.240885,13.5690104 113.501302,13.484375 113.808594,13.484375 C114.080915,13.484375 114.372369,13.5723852 114.682956,13.7484056 L114.839844,13.84375 L115.519531,11.9296875 C115.05599,11.6536458 114.574219,11.515625 114.074219,11.515625 Z M160.457031,11.703125 L158.261719,11.703125 L158.261719,20 L160.457031,20 L160.457031,11.703125 Z M164.902344,8.546875 L162.707031,8.546875 L162.707031,20 L164.902344,20 L164.902344,8.546875 Z M46.6679688,11.515625 C46.1888021,11.515625 45.7382812,11.625 45.3164062,11.84375 C44.8945312,12.0625 44.5013021,12.3932292 44.1367188,12.8359375 C43.8867188,12.3932292 43.5664062,12.0625 43.1757812,11.84375 C42.7851562,11.625 42.3242188,11.515625 41.7929688,11.515625 C40.8643973,11.515625 40.0548337,11.8951026 39.3642777,12.6540577 L39.2070312,12.8359375 L39.2070312,11.703125 L37.1835938,11.703125 L37.1835938,20 L39.3789062,20 L39.3789062,15.96875 C39.3789062,15.171875 39.4375,14.6015625 39.5546875,14.2578125 C39.671875,13.9140625 39.8658854,13.6510417 40.1367188,13.46875 C40.4075521,13.2864583 40.7122396,13.1953125 41.0507812,13.1953125 C41.3320312,13.1953125 41.5546875,13.2526042 41.71875,13.3671875 C41.8828125,13.4817708 42.0039062,13.65625 42.0820312,13.890625 C42.1523438,14.1015625 42.1910156,14.5445312 42.1980469,15.2195312 L42.1992188,15.453125 L42.1992188,20 L44.3945312,20 L44.3945312,16.015625 C44.3945312,15.234375 44.4544271,14.6627604 44.5742188,14.3007812 C44.6940104,13.9388021 44.8893229,13.6640625 45.1601562,13.4765625 C45.4309896,13.2890625 45.7200521,13.1953125 46.0273438,13.1953125 C46.4492188,13.1953125 46.7617188,13.3515625 46.9648438,13.6640625 C47.1021544,13.8818655 47.1770511,14.3407154 47.1895338,15.0406121 L47.1914062,15.2578125 L47.1914062,20 L49.3867188,20 L49.3867188,14.6953125 C49.3867188,13.9036458 49.3111979,13.3307292 49.1601562,12.9765625 C48.9518229,12.4973958 48.6367188,12.1341146 48.2148438,11.8867188 C47.7929688,11.6393229 47.2773438,11.515625 46.6679688,11.515625 Z M74.9570312,11.515625 C74.6028646,11.515625 74.2864583,11.6041667 74.0078125,11.78125 C73.7639974,11.9361979 73.4932658,12.2366943 73.1956177,12.6827393 L73.0664062,12.8828125 L73.0664062,11.703125 L71.0273438,11.703125 L71.0273438,20 L73.2226562,20 L73.2226562,17.4375 C73.2226562,16.0260417 73.2838542,15.0989583 73.40625,14.65625 C73.5286458,14.2135417 73.6966146,13.9075521 73.9101562,13.7382812 C74.1236979,13.5690104 74.3841146,13.484375 74.6914062,13.484375 C74.9637277,13.484375 75.2551818,13.5723852 75.5657685,13.7484056 L75.7226562,13.84375 L76.4023438,11.9296875 C75.9388021,11.6536458 75.4570312,11.515625 74.9570312,11.515625 Z M155.746094,8.3515625 C155.136719,8.3515625 154.632812,8.45963542 154.234375,8.67578125 C153.835938,8.89192708 153.5625,9.171875 153.414062,9.515625 C153.28418,9.81640625 153.211121,10.2527669 153.194885,10.824707 L153.191406,11.078125 L153.191406,11.703125 L151.972656,11.703125 L151.972656,13.4296875 L153.191406,13.4296875 L153.191406,20 L155.386719,20 L155.386719,13.4296875 L157.027344,13.4296875 L157.027344,11.703125 L155.386719,11.703125 L155.386719,11.1171875 C155.386719,10.6953125 155.455729,10.4101562 155.59375,10.2617188 C155.731771,10.1132812 155.959635,10.0390625 156.277344,10.0390625 C156.519531,10.0390625 156.769043,10.0625 157.025879,10.109375 L157.285156,10.1640625 L157.582031,8.6328125 C156.983073,8.4453125 156.371094,8.3515625 155.746094,8.3515625 Z M91.6992188,16.015625 L91.6992188,16.453125 C91.6992188,16.9791667 91.6705729,17.3359375 91.6132812,17.5234375 C91.5299479,17.8098958 91.3554688,18.0520833 91.0898438,18.25 C90.7304688,18.5104167 90.3528646,18.640625 89.9570312,18.640625 C89.6028646,18.640625 89.3111979,18.5286458 89.0820312,18.3046875 C88.8528646,18.0807292 88.7382812,17.8151042 88.7382812,17.5078125 C88.7382812,17.1953125 88.8815104,16.9375 89.1679688,16.734375 C89.3554688,16.609375 89.7539062,16.4817708 90.3632812,16.3515625 C90.8964844,16.2376302 91.3040771,16.1376546 91.5860596,16.0516357 L91.6992188,16.015625 Z M55.5507812,13.25 C56.0664062,13.25 56.4986979,13.4609375 56.8476562,13.8828125 C57.1966146,14.3046875 57.3710938,14.9505208 57.3710938,15.8203125 C57.3710938,16.7526042 57.2018229,17.4231771 56.8632812,17.8320312 C56.5247396,18.2408854 56.1002604,18.4453125 55.5898438,18.4453125 C55.0585938,18.4453125 54.6080729,18.2226562 54.2382812,17.7773438 C53.8684896,17.3320312 53.6835938,16.6432292 53.6835938,15.7109375 C53.6835938,14.8984375 53.8606771,14.2851562 54.2148438,13.8710938 C54.5690104,13.4570312 55.0143229,13.25 55.5507812,13.25 Z M104.441406,13.25 C104.957031,13.25 105.389323,13.4609375 105.738281,13.8828125 C106.08724,14.3046875 106.261719,14.9505208 106.261719,15.8203125 C106.261719,16.7526042 106.092448,17.4231771 105.753906,17.8320312 C105.415365,18.2408854 104.990885,18.4453125 104.480469,18.4453125 C103.949219,18.4453125 103.498698,18.2226562 103.128906,17.7773438 C102.759115,17.3320312 102.574219,16.6432292 102.574219,15.7109375 C102.574219,14.8984375 102.751302,14.2851562 103.105469,13.8710938 C103.459635,13.4570312 103.904948,13.25 104.441406,13.25 Z M65.1210938,13.3046875 C65.6940104,13.3046875 66.1744792,13.5234375 66.5625,13.9609375 C66.9505208,14.3984375 67.1445312,15.0234375 67.1445312,15.8359375 C67.1445312,16.6692708 66.9505208,17.3046875 66.5625,17.7421875 C66.1744792,18.1796875 65.6940104,18.3984375 65.1210938,18.3984375 C64.5481771,18.3984375 64.0664062,18.1796875 63.6757812,17.7421875 C63.2851562,17.3046875 63.0898438,16.6744792 63.0898438,15.8515625 C63.0898438,15.0286458 63.2851562,14.3984375 63.6757812,13.9609375 C64.0664062,13.5234375 64.5481771,13.3046875 65.1210938,13.3046875 Z M170.449219,13.1953125 C170.897135,13.1953125 171.277344,13.3606771 171.589844,13.6914062 C171.902344,14.0221354 172.066406,14.5052083 172.082031,15.140625 L168.800781,15.140625 C168.795573,14.5416667 168.949219,14.0677083 169.261719,13.71875 C169.574219,13.3697917 169.970052,13.1953125 170.449219,13.1953125 Z M119.761719,13.1953125 C120.209635,13.1953125 120.589844,13.3606771 120.902344,13.6914062 C121.214844,14.0221354 121.378906,14.5052083 121.394531,15.140625 L118.113281,15.140625 C118.108073,14.5416667 118.261719,14.0677083 118.574219,13.71875 C118.886719,13.3697917 119.282552,13.1953125 119.761719,13.1953125 Z M137.558594,13.1953125 C138.00651,13.1953125 138.386719,13.3606771 138.699219,13.6914062 C139.011719,14.0221354 139.175781,14.5052083 139.191406,15.140625 L135.910156,15.140625 C135.904948,14.5416667 136.058594,14.0677083 136.371094,13.71875 C136.683594,13.3697917 137.079427,13.1953125 137.558594,13.1953125 Z M160.457031,8.546875 L158.261719,8.546875 L158.261719,10.578125 L160.457031,10.578125 L160.457031,8.546875 Z M35.0976562,8.546875 L32.9023438,8.546875 L32.9023438,10.578125 L35.0976562,10.578125 L35.0976562,8.546875 Z" id="Shape"></path>
        </g>
    </g>
</svg>