<?xml version="1.0" encoding="UTF-8"?>
<svg width="300px" height="40px" viewBox="0 0 300 40" version="1.1" xmlns="http://www.w3.org/2000/svg" xmlns:xlink="http://www.w3.org/1999/xlink">
    <title>ExportMidi</title>
    <g stroke="none" stroke-width="1" fill="none" fill-rule="evenodd">
        <g id="ExportMidi">
            <rect fill="#FFFFFF" x="0" y="0" width="300" height="40"></rect>
            <line x1="1" y1="39.5" x2="299" y2="39.5" id="Line" stroke="#DBDBDB" stroke-linecap="square"></line>
            <path d="M62.0976562,26.2109375 C63.1230469,26.2109375 63.9770508,25.9750977 64.659668,25.503418 C65.3422852,25.0317383 65.8417969,24.3447266 66.1582031,23.4423828 L66.1582031,23.4423828 L63.6972656,23.0292969 C63.5625,23.4980469 63.3632812,23.8378906 63.0996094,24.0488281 C62.8359375,24.2597656 62.5107422,24.3652344 62.1240234,24.3652344 C61.5556641,24.3652344 61.0810547,24.1616211 60.7001953,23.7543945 C60.3193359,23.347168 60.1201172,22.7773438 60.1025391,22.0449219 L60.1025391,22.0449219 L66.2900391,22.0449219 C66.3251953,20.1523438 65.9414062,18.7475586 65.1386719,17.8305664 C64.3359375,16.9135742 63.2402344,16.4550781 61.8515625,16.4550781 C60.6152344,16.4550781 59.5927734,16.8930664 58.7841797,17.769043 C57.9755859,18.6450195 57.5712891,19.8564453 57.5712891,21.4033203 C57.5712891,22.6982422 57.8789062,23.7705078 58.4941406,24.6201172 C59.2734375,25.6806641 60.4746094,26.2109375 62.0976562,26.2109375 Z M63.8378906,20.5332031 L60.1464844,20.5332031 C60.140625,19.859375 60.3134766,19.3261719 60.6650391,18.9335938 C61.0166016,18.5410156 61.4619141,18.3447266 62.0009766,18.3447266 C62.5048828,18.3447266 62.9326172,18.5307617 63.2841797,18.902832 C63.6357422,19.2749023 63.8203125,19.8183594 63.8378906,20.5332031 L63.8378906,20.5332031 Z M70.0078125,26 L71.9238281,23.1083984 L73.8222656,26 L76.8544922,26 L73.4003906,21.0869141 L76.5644531,16.6660156 L73.6640625,16.6660156 L71.9238281,19.2324219 L70.2714844,16.6660156 L67.2568359,16.6660156 L70.4824219,21.1923828 L67.1162109,26 L70.0078125,26 Z M80.7128906,29.5507812 L80.7128906,24.8486328 C81.1757812,25.3466797 81.6166992,25.6982422 82.0356445,25.9033203 C82.4545898,26.1083984 82.921875,26.2109375 83.4375,26.2109375 C84.5214844,26.2109375 85.4443359,25.7788086 86.2060547,24.9145508 C86.9677734,24.050293 87.3486328,22.8388672 87.3486328,21.2802734 C87.3486328,19.7626953 86.9707031,18.5791016 86.2148438,17.7294922 C85.4589844,16.8798828 84.5390625,16.4550781 83.4550781,16.4550781 C82.8339844,16.4550781 82.2685547,16.6015625 81.7587891,16.8945312 C81.2490234,17.1875 80.8447266,17.5683594 80.5458984,18.0371094 L80.5458984,18.0371094 L80.5458984,16.6660156 L78.2431641,16.6660156 L78.2431641,29.5507812 L80.7128906,29.5507812 Z M82.8310547,24.2509766 C82.2333984,24.2509766 81.7265625,24.0004883 81.3105469,23.4995117 C80.8945312,22.9985352 80.6865234,22.2236328 80.6865234,21.1748047 C80.6865234,20.2607422 80.8857422,19.5708008 81.2841797,19.1049805 C81.6826172,18.6391602 82.1835938,18.40625 82.7871094,18.40625 C83.3671875,18.40625 83.8535156,18.6435547 84.2460938,19.1181641 C84.6386719,19.5927734 84.8349609,20.3193359 84.8349609,21.2978516 C84.8349609,22.3466797 84.6445312,23.1010742 84.2636719,23.5610352 C83.8828125,24.0209961 83.4052734,24.2509766 82.8310547,24.2509766 Z M93.5625,26.2109375 C94.9453125,26.2109375 96.0922852,25.746582 97.003418,24.8178711 C97.9145508,23.8891602 98.3701172,22.71875 98.3701172,21.3066406 C98.3701172,19.90625 97.9189453,18.7475586 97.0166016,17.8305664 C96.1142578,16.9135742 94.9570312,16.4550781 93.5449219,16.4550781 C92.6308594,16.4550781 91.8032227,16.6572266 91.0620117,17.0615234 C90.3208008,17.4658203 89.7480469,18.0517578 89.34375,18.8193359 C88.9394531,19.5869141 88.7373047,20.3808594 88.7373047,21.2011719 C88.7373047,22.2734375 88.9394531,23.1831055 89.34375,23.9301758 C89.7480469,24.6772461 90.3383789,25.2441406 91.1147461,25.6308594 C91.8911133,26.0175781 92.7070312,26.2109375 93.5625,26.2109375 Z M93.5537109,24.1982422 C92.9091797,24.1982422 92.3671875,23.9521484 91.9277344,23.4599609 C91.4882812,22.9677734 91.2685547,22.2587891 91.2685547,21.3330078 C91.2685547,20.4072266 91.4882812,19.6982422 91.9277344,19.2060547 C92.3671875,18.7138672 92.9091797,18.4677734 93.5537109,18.4677734 C94.1982422,18.4677734 94.7387695,18.7138672 95.175293,19.2060547 C95.6118164,19.6982422 95.8300781,20.4013672 95.8300781,21.3154297 C95.8300781,22.2529297 95.6118164,22.9677734 95.175293,23.4599609 C94.7387695,23.9521484 94.1982422,24.1982422 93.5537109,24.1982422 Z M102.667969,26 L102.667969,23.1171875 C102.667969,21.5292969 102.736816,20.4863281 102.874512,19.9882812 C103.012207,19.4902344 103.201172,19.1459961 103.441406,18.9555664 C103.681641,18.7651367 103.974609,18.6699219 104.320312,18.6699219 C104.677734,18.6699219 105.064453,18.8046875 105.480469,19.0742188 L105.480469,19.0742188 L106.245117,16.9208984 C105.723633,16.6103516 105.181641,16.4550781 104.619141,16.4550781 C104.220703,16.4550781 103.864746,16.5546875 103.55127,16.7539062 C103.237793,16.953125 102.884766,17.3662109 102.492188,17.9931641 L102.492188,17.9931641 L102.492188,16.6660156 L100.198242,16.6660156 L100.198242,26 L102.667969,26 Z M109.839844,26.2109375 C110.566406,26.2109375 111.216797,26.0878906 111.791016,25.8417969 L111.791016,25.8417969 L111.580078,23.9257812 C111.146484,24.0839844 110.81543,24.1630859 110.586914,24.1630859 C110.422852,24.1630859 110.283691,24.1220703 110.169434,24.0400391 C110.055176,23.9580078 109.981934,23.8540039 109.949707,23.7280273 C109.91748,23.6020508 109.901367,23.1582031 109.901367,22.3964844 L109.901367,18.6347656 L111.588867,18.6347656 L111.588867,16.6660156 L109.901367,16.6660156 L109.901367,13.3701172 L107.422852,14.8115234 L107.422852,16.6660156 L106.289062,16.6660156 L106.289062,18.6347656 L107.422852,18.6347656 L107.422852,22.7041016 C107.422852,23.5771484 107.449219,24.1572266 107.501953,24.4443359 C107.566406,24.8486328 107.682129,25.1694336 107.849121,25.4067383 C108.016113,25.644043 108.27832,25.8374023 108.635742,25.9868164 C108.993164,26.1362305 109.394531,26.2109375 109.839844,26.2109375 Z M122.241211,26.2109375 C123.442383,26.2109375 124.400391,25.9267578 125.115234,25.3583984 C125.830078,24.7900391 126.313477,23.9492188 126.56543,22.8359375 L126.56543,22.8359375 L124.139648,22.4228516 C124.016602,23.0732422 123.805664,23.5317383 123.506836,23.7983398 C123.208008,24.0649414 122.824219,24.1982422 122.355469,24.1982422 C121.728516,24.1982422 121.229004,23.9697266 120.856934,23.5126953 C120.484863,23.0556641 120.298828,22.2734375 120.298828,21.1660156 C120.298828,20.1699219 120.481934,19.4594727 120.848145,19.034668 C121.214355,18.6098633 121.705078,18.3974609 122.320312,18.3974609 C122.783203,18.3974609 123.159668,18.5205078 123.449707,18.7666016 C123.739746,19.0126953 123.925781,19.3789062 124.007812,19.8652344 L124.007812,19.8652344 L126.442383,19.4257812 C126.149414,18.4238281 125.66748,17.6782227 124.996582,17.1889648 C124.325684,16.699707 123.421875,16.4550781 122.285156,16.4550781 C120.896484,16.4550781 119.794922,16.8842773 118.980469,17.7426758 C118.166016,18.6010742 117.758789,19.8007812 117.758789,21.3417969 C117.758789,22.8652344 118.164551,24.0576172 118.976074,24.9189453 C119.787598,25.7802734 120.875977,26.2109375 122.241211,26.2109375 Z M131.364258,26.2109375 C131.979492,26.2109375 132.563965,26.0673828 133.117676,25.7802734 C133.671387,25.4931641 134.118164,25.1005859 134.458008,24.6025391 L134.458008,24.6025391 L134.458008,26 L136.751953,26 L136.751953,16.6660156 L134.282227,16.6660156 L134.282227,20.6035156 C134.282227,21.9394531 134.220703,22.7788086 134.097656,23.121582 C133.974609,23.4643555 133.746094,23.7514648 133.412109,23.9829102 C133.078125,24.2143555 132.700195,24.3300781 132.27832,24.3300781 C131.90918,24.3300781 131.604492,24.2436523 131.364258,24.0708008 C131.124023,23.8979492 130.958496,23.6635742 130.867676,23.3676758 C130.776855,23.0717773 130.731445,22.2675781 130.731445,20.9550781 L130.731445,20.9550781 L130.731445,16.6660156 L128.261719,16.6660156 L128.261719,22.5722656 C128.261719,23.4511719 128.373047,24.1396484 128.595703,24.6376953 C128.818359,25.1357422 129.178711,25.5224609 129.676758,25.7978516 C130.174805,26.0732422 130.737305,26.2109375 131.364258,26.2109375 Z M141.673828,26 L141.673828,23.1171875 C141.673828,21.5292969 141.742676,20.4863281 141.880371,19.9882812 C142.018066,19.4902344 142.207031,19.1459961 142.447266,18.9555664 C142.6875,18.7651367 142.980469,18.6699219 143.326172,18.6699219 C143.683594,18.6699219 144.070312,18.8046875 144.486328,19.0742188 L144.486328,19.0742188 L145.250977,16.9208984 C144.729492,16.6103516 144.1875,16.4550781 143.625,16.4550781 C143.226562,16.4550781 142.870605,16.5546875 142.557129,16.7539062 C142.243652,16.953125 141.890625,17.3662109 141.498047,17.9931641 L141.498047,17.9931641 L141.498047,16.6660156 L139.204102,16.6660156 L139.204102,26 L141.673828,26 Z M148.678711,26 L148.678711,23.1171875 C148.678711,21.5292969 148.747559,20.4863281 148.885254,19.9882812 C149.022949,19.4902344 149.211914,19.1459961 149.452148,18.9555664 C149.692383,18.7651367 149.985352,18.6699219 150.331055,18.6699219 C150.688477,18.6699219 151.075195,18.8046875 151.491211,19.0742188 L151.491211,19.0742188 L152.255859,16.9208984 C151.734375,16.6103516 151.192383,16.4550781 150.629883,16.4550781 C150.231445,16.4550781 149.875488,16.5546875 149.562012,16.7539062 C149.248535,16.953125 148.895508,17.3662109 148.50293,17.9931641 L148.50293,17.9931641 L148.50293,16.6660156 L146.208984,16.6660156 L146.208984,26 L148.678711,26 Z M157.125,26.2109375 C158.150391,26.2109375 159.004395,25.9750977 159.687012,25.503418 C160.369629,25.0317383 160.869141,24.3447266 161.185547,23.4423828 L161.185547,23.4423828 L158.724609,23.0292969 C158.589844,23.4980469 158.390625,23.8378906 158.126953,24.0488281 C157.863281,24.2597656 157.538086,24.3652344 157.151367,24.3652344 C156.583008,24.3652344 156.108398,24.1616211 155.727539,23.7543945 C155.34668,23.347168 155.147461,22.7773438 155.129883,22.0449219 L155.129883,22.0449219 L161.317383,22.0449219 C161.352539,20.1523438 160.96875,18.7475586 160.166016,17.8305664 C159.363281,16.9135742 158.267578,16.4550781 156.878906,16.4550781 C155.642578,16.4550781 154.620117,16.8930664 153.811523,17.769043 C153.00293,18.6450195 152.598633,19.8564453 152.598633,21.4033203 C152.598633,22.6982422 152.90625,23.7705078 153.521484,24.6201172 C154.300781,25.6806641 155.501953,26.2109375 157.125,26.2109375 Z M158.865234,20.5332031 L155.173828,20.5332031 C155.167969,19.859375 155.34082,19.3261719 155.692383,18.9335938 C156.043945,18.5410156 156.489258,18.3447266 157.02832,18.3447266 C157.532227,18.3447266 157.959961,18.5307617 158.311523,18.902832 C158.663086,19.2749023 158.847656,19.8183594 158.865234,20.5332031 L158.865234,20.5332031 Z M165.782227,26 L165.782227,21.7724609 C165.782227,20.7294922 165.845215,20.0146484 165.971191,19.6279297 C166.097168,19.2412109 166.330078,18.9306641 166.669922,18.6962891 C167.009766,18.4619141 167.393555,18.3447266 167.821289,18.3447266 C168.155273,18.3447266 168.440918,18.4267578 168.678223,18.5908203 C168.915527,18.7548828 169.086914,18.9848633 169.192383,19.2807617 C169.297852,19.5766602 169.350586,20.2285156 169.350586,21.2363281 L169.350586,21.2363281 L169.350586,26 L171.820312,26 L171.820312,20.1992188 C171.820312,19.4785156 171.774902,18.9248047 171.684082,18.5380859 C171.593262,18.1513672 171.432129,17.8056641 171.200684,17.5009766 C170.969238,17.1962891 170.62793,16.9458008 170.176758,16.7495117 C169.725586,16.5532227 169.227539,16.4550781 168.682617,16.4550781 C167.446289,16.4550781 166.420898,16.9824219 165.606445,18.0371094 L165.606445,18.0371094 L165.606445,16.6660156 L163.3125,16.6660156 L163.3125,26 L165.782227,26 Z M176.856445,26.2109375 C177.583008,26.2109375 178.233398,26.0878906 178.807617,25.8417969 L178.807617,25.8417969 L178.59668,23.9257812 C178.163086,24.0839844 177.832031,24.1630859 177.603516,24.1630859 C177.439453,24.1630859 177.300293,24.1220703 177.186035,24.0400391 C177.071777,23.9580078 176.998535,23.8540039 176.966309,23.7280273 C176.934082,23.6020508 176.917969,23.1582031 176.917969,22.3964844 L176.917969,22.3964844 L176.917969,18.6347656 L178.605469,18.6347656 L178.605469,16.6660156 L176.917969,16.6660156 L176.917969,13.3701172 L174.439453,14.8115234 L174.439453,16.6660156 L173.305664,16.6660156 L173.305664,18.6347656 L174.439453,18.6347656 L174.439453,22.7041016 C174.439453,23.5771484 174.46582,24.1572266 174.518555,24.4443359 C174.583008,24.8486328 174.69873,25.1694336 174.865723,25.4067383 C175.032715,25.644043 175.294922,25.8374023 175.652344,25.9868164 C176.009766,26.1362305 176.411133,26.2109375 176.856445,26.2109375 Z M187.719727,26 L187.719727,15.8574219 L190.268555,26 L192.773438,26 L195.331055,15.8574219 L195.331055,26 L197.748047,26 L197.748047,13.1152344 L193.845703,13.1152344 L191.53418,21.9042969 L189.196289,13.1152344 L185.302734,13.1152344 L185.302734,26 L187.719727,26 Z M202.854492,26 L202.854492,13.1152344 L200.25293,13.1152344 L200.25293,26 L202.854492,26 Z M210.219727,26 C211.180664,26 211.948242,25.9091797 212.522461,25.7275391 C213.290039,25.4814453 213.899414,25.1386719 214.350586,24.6992188 C214.948242,24.1191406 215.408203,23.3603516 215.730469,22.4228516 C215.994141,21.6552734 216.125977,20.7412109 216.125977,19.6806641 C216.125977,18.4736328 215.985352,17.4584961 215.704102,16.6352539 C215.422852,15.8120117 215.012695,15.1162109 214.473633,14.5478516 C213.93457,13.9794922 213.287109,13.5839844 212.53125,13.3613281 C211.96875,13.1972656 211.151367,13.1152344 210.079102,13.1152344 L210.079102,13.1152344 L205.324219,13.1152344 L205.324219,26 L210.219727,26 Z M209.868164,23.8291016 L207.925781,23.8291016 L207.925781,15.2949219 L209.094727,15.2949219 C210.155273,15.2949219 210.867188,15.3359375 211.230469,15.4179688 C211.716797,15.5234375 212.118164,15.7255859 212.43457,16.0244141 C212.750977,16.3232422 212.99707,16.7392578 213.172852,17.2724609 C213.348633,17.8056641 213.436523,18.5703125 213.436523,19.5664062 C213.436523,20.5625 213.348633,21.3491211 213.172852,21.9262695 C212.99707,22.503418 212.77002,22.9179688 212.491699,23.1699219 C212.213379,23.421875 211.863281,23.6005859 211.441406,23.7060547 C211.119141,23.7880859 210.594727,23.8291016 209.868164,23.8291016 L209.868164,23.8291016 Z M220.854492,26 L220.854492,13.1152344 L218.25293,13.1152344 L218.25293,26 L220.854492,26 Z" id="exportcurrentMIDI" fill="#424242" fill-rule="nonzero"></path>
            <path d="M29,11 L29,13.2222222 L21.2222222,13.2222222 L21.2222222,28.7777778 L36.7777778,28.7777778 L36.7777778,21 L39,21 L39,29.1481481 C39,30.1708977 38.1708977,31 37.1481481,31 L37.1481481,31 L20.8518519,31 C19.8291023,31 19,30.1708977 19,29.1481481 L19,29.1481481 L19,12.8518519 C19,11.8291023 19.8291023,11 20.8518519,11 L20.8518519,11 L29,11 Z M39,11 L39,18.9726651 L36.7220957,18.9726651 L36.7220957,14.8876234 L25.6097191,26 L24,24.3902809 L35.1123766,13.2779043 L31.0273349,13.2779043 L31.0273349,11 L39,11 Z" id="ExportIcon" fill="#00A8E8" fill-rule="nonzero"></path>
        </g>
    </g>
</svg>
