<?xml version="1.0" encoding="UTF-8"?>
<svg width="220px" height="30px" viewBox="0 0 220 30">
    <g stroke="none" stroke-width="1" fill="#80848A" fill-rule="evenodd">
        <path d="M215,0 C217.761424,-5.07265313e-16 220,2.23857625 220,5 L220,25 C220,27.7614237 217.761424,30 215,30 L5,30 C2.23857625,30 3.38176876e-16,27.7614237 0,25 L0,5 C-3.38176876e-16,2.23857625 2.23857625,-1.26909153e-15 5,0 L215,0 Z M62.3789062,11.515625 C61.8268229,11.515625 61.3242188,11.6458333 60.8710938,11.90625 C60.4179688,12.1666667 60.0585938,12.5052083 59.7929688,12.921875 L59.7929688,12.921875 L59.7929688,11.703125 L57.7460938,11.703125 L57.7460938,23.15625 L59.9414062,23.15625 L59.9414062,18.9765625 C60.3528646,19.4192708 60.7447917,19.7317708 61.1171875,19.9140625 C61.4895833,20.0963542 61.9049479,20.1875 62.3632812,20.1875 C63.3268229,20.1875 64.1471354,19.8033854 64.8242188,19.0351562 C65.5013021,18.2669271 65.8398438,17.1901042 65.8398438,15.8046875 C65.8398438,14.4557292 65.5039062,13.4036458 64.8320312,12.6484375 C64.1601562,11.8932292 63.3424479,11.515625 62.3789062,11.515625 Z M173.128906,8.3515625 L171.480469,8.3515625 L168.644531,20.1953125 L170.261719,20.1953125 L173.128906,8.3515625 Z M135.667969,8.3515625 C134.063802,8.3515625 132.769531,8.87890625 131.785156,9.93359375 C130.800781,10.9882812 130.308594,12.46875 130.308594,14.375 C130.308594,16.1770833 130.798177,17.5976562 131.777344,18.6367188 C132.75651,19.6757812 134.00651,20.1953125 135.527344,20.1953125 C136.75651,20.1953125 137.770833,19.8919271 138.570312,19.2851562 C139.369792,18.6783854 139.941406,17.75 140.285156,16.5 L140.285156,16.5 L138.042969,15.7890625 C137.85026,16.6276042 137.532552,17.2421875 137.089844,17.6328125 C136.647135,18.0234375 136.11849,18.21875 135.503906,18.21875 C134.670573,18.21875 133.99349,17.9114583 133.472656,17.296875 C132.951823,16.6822917 132.691406,15.6510417 132.691406,14.203125 C132.691406,12.8385417 132.955729,11.8515625 133.484375,11.2421875 C134.013021,10.6328125 134.701823,10.328125 135.550781,10.328125 C136.165365,10.328125 136.6875,10.5 137.117188,10.84375 C137.546875,11.1875 137.829427,11.65625 137.964844,12.25 L137.964844,12.25 L140.253906,11.703125 C139.99349,10.7864583 139.602865,10.0833333 139.082031,9.59375 C138.207031,8.765625 137.06901,8.3515625 135.667969,8.3515625 Z M96.5976562,11.515625 C95.5195312,11.515625 94.7070312,11.7083333 94.1601562,12.09375 C93.6132812,12.4791667 93.2278646,13.0729167 93.0039062,13.875 L93.0039062,13.875 L94.9960938,14.234375 C95.1315104,13.8489583 95.3085938,13.5794271 95.5273438,13.4257812 C95.7460938,13.2721354 96.0507812,13.1953125 96.4414062,13.1953125 C97.0195312,13.1953125 97.4127604,13.2851562 97.6210938,13.4648438 C97.8294271,13.6445312 97.9335938,13.9453125 97.9335938,14.3671875 L97.9335938,14.3671875 L97.9335938,14.5859375 C97.5377604,14.7526042 96.8268229,14.9322917 95.8007812,15.125 C95.0403646,15.2708333 94.4583333,15.4414062 94.0546875,15.6367188 C93.6510417,15.8320312 93.3372396,16.1132812 93.1132812,16.4804688 C92.8893229,16.8476562 92.7773438,17.265625 92.7773438,17.734375 C92.7773438,18.4427083 93.0234375,19.0286458 93.515625,19.4921875 C94.0078125,19.9557292 94.6809896,20.1875 95.5351562,20.1875 C96.0195312,20.1875 96.4752604,20.0963542 96.9023438,19.9140625 C97.3294271,19.7317708 97.7304688,19.4583333 98.1054688,19.09375 C98.1210938,19.1354167 98.1471354,19.2213542 98.1835938,19.3515625 C98.2669271,19.6380208 98.3372396,19.8541667 98.3945312,20 L98.3945312,20 L100.566406,20 C100.373698,19.6041667 100.242188,19.2330729 100.171875,18.8867188 C100.101562,18.5403646 100.066406,18.0026042 100.066406,17.2734375 L100.066406,17.2734375 L100.089844,14.7109375 C100.089844,13.7578125 99.9921875,13.1028646 99.796875,12.7460938 C99.6015625,12.3893229 99.2643229,12.0950521 98.7851562,11.8632812 C98.3059896,11.6315104 97.5768229,11.515625 96.5976562,11.515625 Z M85.8867188,8.7734375 L83.6835938,10.0546875 L83.6835938,11.703125 L82.6757812,11.703125 L82.6757812,13.453125 L83.6835938,13.453125 L83.6835938,17.0703125 C83.6835938,17.8463542 83.7070312,18.3619792 83.7539062,18.6171875 C83.8111979,18.9765625 83.9140625,19.2617188 84.0625,19.4726562 C84.2109375,19.6835938 84.4440104,19.8554688 84.7617188,19.9882812 C85.0794271,20.1210938 85.4361979,20.1875 85.8320312,20.1875 C86.4778646,20.1875 87.0559896,20.078125 87.5664062,19.859375 L87.5664062,19.859375 L87.3789062,18.15625 C86.9934896,18.296875 86.6992188,18.3671875 86.4960938,18.3671875 C86.3502604,18.3671875 86.2265625,18.3307292 86.125,18.2578125 C86.0234375,18.1848958 85.9583333,18.0924479 85.9296875,17.9804688 C85.9010417,17.8684896 85.8867188,17.4739583 85.8867188,16.796875 L85.8867188,16.796875 L85.8867188,13.453125 L87.3867188,13.453125 L87.3867188,11.703125 L85.8867188,11.703125 L85.8867188,8.7734375 Z M71.3476562,11.515625 C70.5351562,11.515625 69.7994792,11.6953125 69.140625,12.0546875 C68.4817708,12.4140625 67.9726562,12.9348958 67.6132812,13.6171875 C67.2539062,14.2994792 67.0742188,15.0052083 67.0742188,15.734375 C67.0742188,16.6875 67.2539062,17.4960938 67.6132812,18.1601562 C67.9726562,18.8242188 68.4973958,19.328125 69.1875,19.671875 C69.8776042,20.015625 70.6028646,20.1875 71.3632812,20.1875 C72.5924479,20.1875 73.6119792,19.7747396 74.421875,18.9492188 C75.2317708,18.1236979 75.6367188,17.0833333 75.6367188,15.828125 C75.6367188,14.5833333 75.2356771,13.5533854 74.4335938,12.7382812 C73.6315104,11.9231771 72.6028646,11.515625 71.3476562,11.515625 Z M164.082031,11.515625 C162.983073,11.515625 162.074219,11.9049479 161.355469,12.6835938 C160.636719,13.4622396 160.277344,14.5390625 160.277344,15.9140625 C160.277344,17.0651042 160.550781,18.0182292 161.097656,18.7734375 C161.790365,19.7161458 162.858073,20.1875 164.300781,20.1875 C165.21224,20.1875 165.971354,19.9778646 166.578125,19.5585938 C167.184896,19.1393229 167.628906,18.5286458 167.910156,17.7265625 L167.910156,17.7265625 L165.722656,17.359375 C165.602865,17.7760417 165.425781,18.078125 165.191406,18.265625 C164.957031,18.453125 164.667969,18.546875 164.324219,18.546875 C163.81901,18.546875 163.397135,18.3658854 163.058594,18.0039062 C162.720052,17.6419271 162.542969,17.1354167 162.527344,16.484375 L162.527344,16.484375 L168.027344,16.484375 C168.058594,14.8020833 167.717448,13.5533854 167.003906,12.7382812 C166.290365,11.9231771 165.316406,11.515625 164.082031,11.515625 Z M177.285156,11.515625 C176.092448,11.515625 175.21224,11.7604167 174.644531,12.25 C174.076823,12.7395833 173.792969,13.34375 173.792969,14.0625 C173.792969,14.859375 174.121094,15.4817708 174.777344,15.9296875 C175.251302,16.2526042 176.373698,16.609375 178.144531,17 C178.52474,17.0885417 178.769531,17.1848958 178.878906,17.2890625 C178.983073,17.3984375 179.035156,17.5364583 179.035156,17.703125 C179.035156,17.9479167 178.938802,18.1432292 178.746094,18.2890625 C178.459635,18.4973958 178.032552,18.6015625 177.464844,18.6015625 C176.949219,18.6015625 176.548177,18.4908854 176.261719,18.2695312 C175.97526,18.0481771 175.785156,17.7239583 175.691406,17.296875 L175.691406,17.296875 L173.488281,17.6328125 C173.691406,18.4192708 174.122396,19.0416667 174.78125,19.5 C175.440104,19.9583333 176.334635,20.1875 177.464844,20.1875 C178.709635,20.1875 179.64974,19.9140625 180.285156,19.3671875 C180.920573,18.8203125 181.238281,18.1666667 181.238281,17.40625 C181.238281,16.7083333 181.009115,16.1640625 180.550781,15.7734375 C180.08724,15.3880208 179.270833,15.0625 178.101562,14.796875 C176.932292,14.53125 176.248698,14.3255208 176.050781,14.1796875 C175.904948,14.0703125 175.832031,13.9375 175.832031,13.78125 C175.832031,13.5989583 175.915365,13.4505208 176.082031,13.3359375 C176.332031,13.1744792 176.746094,13.09375 177.324219,13.09375 C177.782552,13.09375 178.135417,13.1796875 178.382812,13.3515625 C178.630208,13.5234375 178.798177,13.7708333 178.886719,14.09375 L178.886719,14.09375 L180.957031,13.7109375 C180.748698,12.9869792 180.36849,12.4401042 179.816406,12.0703125 C179.264323,11.7005208 178.420573,11.515625 177.285156,11.515625 Z M52.9023438,11.515625 C52.4231771,11.515625 51.9726562,11.625 51.5507812,11.84375 C51.1289062,12.0625 50.7356771,12.3932292 50.3710938,12.8359375 C50.1210938,12.3932292 49.8007812,12.0625 49.4101562,11.84375 C49.0195312,11.625 48.5585938,11.515625 48.0273438,11.515625 C47.0273438,11.515625 46.1653646,11.9557292 45.4414062,12.8359375 L45.4414062,12.8359375 L45.4414062,11.703125 L43.4179688,11.703125 L43.4179688,20 L45.6132812,20 L45.6132812,15.96875 C45.6132812,15.171875 45.671875,14.6015625 45.7890625,14.2578125 C45.90625,13.9140625 46.1002604,13.6510417 46.3710938,13.46875 C46.6419271,13.2864583 46.9466146,13.1953125 47.2851562,13.1953125 C47.5664062,13.1953125 47.7890625,13.2526042 47.953125,13.3671875 C48.1171875,13.4817708 48.2382812,13.65625 48.3164062,13.890625 C48.3945312,14.125 48.4335938,14.6458333 48.4335938,15.453125 L48.4335938,15.453125 L48.4335938,20 L50.6289062,20 L50.6289062,16.015625 C50.6289062,15.234375 50.6888021,14.6627604 50.8085938,14.3007812 C50.9283854,13.9388021 51.1236979,13.6640625 51.3945312,13.4765625 C51.6653646,13.2890625 51.9544271,13.1953125 52.2617188,13.1953125 C52.6835938,13.1953125 52.9960938,13.3515625 53.1992188,13.6640625 C53.3502604,13.9036458 53.4257812,14.4348958 53.4257812,15.2578125 L53.4257812,15.2578125 L53.4257812,20 L55.6210938,20 L55.6210938,14.6953125 C55.6210938,13.9036458 55.5455729,13.3307292 55.3945312,12.9765625 C55.1861979,12.4973958 54.8710938,12.1341146 54.4492188,11.8867188 C54.0273438,11.6393229 53.5117188,11.515625 52.9023438,11.515625 Z M41.3320312,11.703125 L39.1367188,11.703125 L39.1367188,20 L41.3320312,20 L41.3320312,11.703125 Z M158.667969,8.546875 L156.472656,8.546875 L156.472656,20 L158.667969,20 L158.667969,8.546875 Z M154.222656,11.703125 L152.027344,11.703125 L152.027344,20 L154.222656,20 L154.222656,11.703125 Z M149.511719,8.3515625 C148.902344,8.3515625 148.398438,8.45963542 148,8.67578125 C147.601562,8.89192708 147.328125,9.171875 147.179688,9.515625 C147.03125,9.859375 146.957031,10.3802083 146.957031,11.078125 L146.957031,11.078125 L146.957031,11.703125 L145.738281,11.703125 L145.738281,13.4296875 L146.957031,13.4296875 L146.957031,20 L149.152344,20 L149.152344,13.4296875 L150.792969,13.4296875 L150.792969,11.703125 L149.152344,11.703125 L149.152344,11.1171875 C149.152344,10.6953125 149.221354,10.4101562 149.359375,10.2617188 C149.497396,10.1132812 149.72526,10.0390625 150.042969,10.0390625 C150.365885,10.0390625 150.701823,10.0807292 151.050781,10.1640625 L151.050781,10.1640625 L151.347656,8.6328125 C150.748698,8.4453125 150.136719,8.3515625 149.511719,8.3515625 Z M123.753906,8.546875 L120.042969,8.546875 L120.042969,20 L122.355469,20 L122.355469,15.6796875 L123.863281,15.6796875 C124.910156,15.6796875 125.709635,15.625 126.261719,15.515625 C126.667969,15.4270833 127.067708,15.2460938 127.460938,14.9726562 C127.854167,14.6992188 128.178385,14.3229167 128.433594,13.84375 C128.688802,13.3645833 128.816406,12.7734375 128.816406,12.0703125 C128.816406,11.1588542 128.595052,10.4153646 128.152344,9.83984375 C127.709635,9.26432292 127.160156,8.890625 126.503906,8.71875 C126.076823,8.60416667 125.160156,8.546875 123.753906,8.546875 L123.753906,8.546875 Z M81.1914062,11.515625 C80.8372396,11.515625 80.5208333,11.6041667 80.2421875,11.78125 C79.9635417,11.9583333 79.6497396,12.3255208 79.3007812,12.8828125 L79.3007812,12.8828125 L79.3007812,11.703125 L77.2617188,11.703125 L77.2617188,20 L79.4570312,20 L79.4578472,17.1616667 C79.465463,15.9045833 79.5263889,15.0694444 79.640625,14.65625 C79.7630208,14.2135417 79.9309896,13.9075521 80.1445312,13.7382812 C80.3580729,13.5690104 80.6184896,13.484375 80.9257812,13.484375 C81.2434896,13.484375 81.5872396,13.6041667 81.9570312,13.84375 L81.9570312,13.84375 L82.6367188,11.9296875 C82.1731771,11.6536458 81.6914062,11.515625 81.1914062,11.515625 Z M110.144531,8.546875 L106.683594,8.546875 L106.683594,20 L108.832031,20 L108.832031,10.984375 L111.097656,20 L113.324219,20 L115.597656,10.984375 L115.597656,20 L117.746094,20 L117.746094,8.546875 L114.277344,8.546875 L112.222656,16.359375 L110.144531,8.546875 Z M97.9335938,16.015625 L97.9335938,16.453125 C97.9335938,16.9791667 97.9049479,17.3359375 97.8476562,17.5234375 C97.7643229,17.8098958 97.5898438,18.0520833 97.3242188,18.25 C96.9648438,18.5104167 96.5872396,18.640625 96.1914062,18.640625 C95.8372396,18.640625 95.5455729,18.5286458 95.3164062,18.3046875 C95.0872396,18.0807292 94.9726562,17.8151042 94.9726562,17.5078125 C94.9726562,17.1953125 95.1158854,16.9375 95.4023438,16.734375 C95.5898438,16.609375 95.9882812,16.4817708 96.5976562,16.3515625 C97.2070312,16.2213542 97.6523438,16.109375 97.9335938,16.015625 L97.9335938,16.015625 Z M61.7851562,13.25 C62.3007812,13.25 62.7330729,13.4609375 63.0820312,13.8828125 C63.4309896,14.3046875 63.6054688,14.9505208 63.6054688,15.8203125 C63.6054688,16.7526042 63.4361979,17.4231771 63.0976562,17.8320312 C62.7591146,18.2408854 62.3346354,18.4453125 61.8242188,18.4453125 C61.2929688,18.4453125 60.8424479,18.2226562 60.4726562,17.7773438 C60.1028646,17.3320312 59.9179688,16.6432292 59.9179688,15.7109375 C59.9179688,14.8984375 60.0950521,14.2851562 60.4492188,13.8710938 C60.8033854,13.4570312 61.2486979,13.25 61.7851562,13.25 Z M71.3554688,13.3046875 C71.9283854,13.3046875 72.4088542,13.5234375 72.796875,13.9609375 C73.1848958,14.3984375 73.3789062,15.0234375 73.3789062,15.8359375 C73.3789062,16.6692708 73.1848958,17.3046875 72.796875,17.7421875 C72.4088542,18.1796875 71.9283854,18.3984375 71.3554688,18.3984375 C70.7825521,18.3984375 70.3007812,18.1796875 69.9101562,17.7421875 C69.5195312,17.3046875 69.3242188,16.6744792 69.3242188,15.8515625 C69.3242188,15.0286458 69.5195312,14.3984375 69.9101562,13.9609375 C70.3007812,13.5234375 70.7825521,13.3046875 71.3554688,13.3046875 Z M164.214844,13.1953125 C164.66276,13.1953125 165.042969,13.3606771 165.355469,13.6914062 C165.667969,14.0221354 165.832031,14.5052083 165.847656,15.140625 L165.847656,15.140625 L162.566406,15.140625 C162.561198,14.5416667 162.714844,14.0677083 163.027344,13.71875 C163.339844,13.3697917 163.735677,13.1953125 164.214844,13.1953125 Z M123.472656,10.484375 C124.30599,10.484375 124.860677,10.5104167 125.136719,10.5625 C125.511719,10.6302083 125.821615,10.7994792 126.066406,11.0703125 C126.311198,11.3411458 126.433594,11.6848958 126.433594,12.1015625 C126.433594,12.4401042 126.346354,12.7369792 126.171875,12.9921875 C125.997396,13.2473958 125.75651,13.4348958 125.449219,13.5546875 C125.141927,13.6744792 124.532552,13.734375 123.621094,13.734375 L123.621094,13.734375 L122.355469,13.734375 L122.355469,10.484375 Z M41.3320312,8.546875 L39.1367188,8.546875 L39.1367188,10.578125 L41.3320312,10.578125 L41.3320312,8.546875 Z M154.222656,8.546875 L152.027344,8.546875 L152.027344,10.578125 L154.222656,10.578125 L154.222656,8.546875 Z"></path>
    </g>
</svg>
