<?xml version="1.0" encoding="UTF-8"?>
<svg width="300px" height="50px" viewBox="0 0 300 50" version="1.1" xmlns="http://www.w3.org/2000/svg" xmlns:xlink="http://www.w3.org/1999/xlink">
    <title>MIDI</title>
    <g stroke="none" stroke-width="1" fill="none" fill-rule="evenodd">
        <g id="MIDI">
            <polygon fill="#FFFFFF" points="0 6.31346827e-13 300 6.31346827e-13 300 50 0 50"></polygon>
            <path d="M1,49.5 L299,49.5" id="Line" stroke="#DBDBDB" stroke-linecap="square"></path>
            <path fill="#424242" fill-rule="nonzero" d="M60.7617188,19.4003906 L60.7617188,17.1152344 L58.2919922,17.1152344 L58.2919922,19.4003906 L60.7617188,19.4003906 Z M60.7617188,30 L60.7617188,20.6660156 L58.2919922,20.6660156 L58.2919922,30 L60.7617188,30 Z M65.578125,30 L65.578125,25.4648438 C65.578125,24.5683594 65.644043,23.9267578 65.7758789,23.5400391 C65.9077148,23.1533203 66.1259766,22.8574219 66.4306641,22.6523438 C66.7353516,22.4472656 67.078125,22.3447266 67.4589844,22.3447266 C67.7753906,22.3447266 68.0258789,22.4091797 68.2104492,22.5380859 C68.3950195,22.6669922 68.53125,22.8632812 68.6191406,23.1269531 C68.7070312,23.390625 68.7509766,23.9765625 68.7509766,24.8847656 L68.7509766,30 L71.2207031,30 L71.2207031,25.5175781 C71.2207031,24.6386719 71.2880859,23.9956055 71.4228516,23.5883789 C71.5576172,23.1811523 71.7773438,22.8720703 72.0820312,22.6611328 C72.3867188,22.4501953 72.7119141,22.3447266 73.0576172,22.3447266 C73.5322266,22.3447266 73.8837891,22.5205078 74.1123047,22.8720703 C74.2822266,23.1416016 74.3671875,23.7392578 74.3671875,24.6650391 L74.3671875,24.6650391 L74.3671875,30 L76.8369141,30 L76.8369141,24.0322266 C76.8369141,23.1416016 76.7519531,22.4970703 76.5820312,22.0986328 C76.3476562,21.5595703 75.9931641,21.1508789 75.5185547,20.8725586 C75.0439453,20.5942383 74.4638672,20.4550781 73.7783203,20.4550781 C73.2392578,20.4550781 72.7324219,20.578125 72.2578125,20.8242188 C71.7832031,21.0703125 71.3408203,21.4423828 70.9306641,21.9404297 C70.6494141,21.4423828 70.2890625,21.0703125 69.8496094,20.8242188 C69.4101562,20.578125 68.8916016,20.4550781 68.2939453,20.4550781 C67.1689453,20.4550781 66.1992188,20.9501953 65.3847656,21.9404297 L65.3847656,21.9404297 L65.3847656,20.6660156 L63.1083984,20.6660156 L63.1083984,30 L65.578125,30 Z M81.6972656,33.5507812 L81.6972656,28.8486328 C82.1601562,29.3466797 82.6010742,29.6982422 83.0200195,29.9033203 C83.4389648,30.1083984 83.90625,30.2109375 84.421875,30.2109375 C85.5058594,30.2109375 86.4287109,29.7788086 87.1904297,28.9145508 C87.9521484,28.050293 88.3330078,26.8388672 88.3330078,25.2802734 C88.3330078,23.7626953 87.9550781,22.5791016 87.1992188,21.7294922 C86.4433594,20.8798828 85.5234375,20.4550781 84.4394531,20.4550781 C83.8183594,20.4550781 83.2529297,20.6015625 82.7431641,20.8945312 C82.2333984,21.1875 81.8291016,21.5683594 81.5302734,22.0371094 L81.5302734,22.0371094 L81.5302734,20.6660156 L79.2275391,20.6660156 L79.2275391,33.5507812 L81.6972656,33.5507812 Z M83.8154297,28.2509766 C83.2177734,28.2509766 82.7109375,28.0004883 82.2949219,27.4995117 C81.8789062,26.9985352 81.6708984,26.2236328 81.6708984,25.1748047 C81.6708984,24.2607422 81.8701172,23.5708008 82.2685547,23.1049805 C82.6669922,22.6391602 83.1679688,22.40625 83.7714844,22.40625 C84.3515625,22.40625 84.8378906,22.6435547 85.2304688,23.1181641 C85.6230469,23.5927734 85.8193359,24.3193359 85.8193359,25.2978516 C85.8193359,26.3466797 85.6289062,27.1010742 85.2480469,27.5610352 C84.8671875,28.0209961 84.3896484,28.2509766 83.8154297,28.2509766 Z M94.546875,30.2109375 C95.9296875,30.2109375 97.0766602,29.746582 97.987793,28.8178711 C98.8989258,27.8891602 99.3544922,26.71875 99.3544922,25.3066406 C99.3544922,23.90625 98.9033203,22.7475586 98.0009766,21.8305664 C97.0986328,20.9135742 95.9414062,20.4550781 94.5292969,20.4550781 C93.6152344,20.4550781 92.7875977,20.6572266 92.0463867,21.0615234 C91.3051758,21.4658203 90.7324219,22.0517578 90.328125,22.8193359 C89.9238281,23.5869141 89.7216797,24.3808594 89.7216797,25.2011719 C89.7216797,26.2734375 89.9238281,27.1831055 90.328125,27.9301758 C90.7324219,28.6772461 91.3227539,29.2441406 92.0991211,29.6308594 C92.8754883,30.0175781 93.6914062,30.2109375 94.546875,30.2109375 Z M94.5380859,28.1982422 C93.8935547,28.1982422 93.3515625,27.9521484 92.9121094,27.4599609 C92.4726562,26.9677734 92.2529297,26.2587891 92.2529297,25.3330078 C92.2529297,24.4072266 92.4726562,23.6982422 92.9121094,23.2060547 C93.3515625,22.7138672 93.8935547,22.4677734 94.5380859,22.4677734 C95.1826172,22.4677734 95.7231445,22.7138672 96.159668,23.2060547 C96.5961914,23.6982422 96.8144531,24.4013672 96.8144531,25.3154297 C96.8144531,26.2529297 96.5961914,26.9677734 96.159668,27.4599609 C95.7231445,27.9521484 95.1826172,28.1982422 94.5380859,28.1982422 Z M103.652344,30 L103.652344,27.1171875 C103.652344,25.5292969 103.721191,24.4863281 103.858887,23.9882812 C103.996582,23.4902344 104.185547,23.1459961 104.425781,22.9555664 C104.666016,22.7651367 104.958984,22.6699219 105.304688,22.6699219 C105.662109,22.6699219 106.048828,22.8046875 106.464844,23.0742188 L106.464844,23.0742188 L107.229492,20.9208984 C106.708008,20.6103516 106.166016,20.4550781 105.603516,20.4550781 C105.205078,20.4550781 104.849121,20.5546875 104.535645,20.7539062 C104.222168,20.953125 103.869141,21.3662109 103.476562,21.9931641 L103.476562,21.9931641 L103.476562,20.6660156 L101.182617,20.6660156 L101.182617,30 L103.652344,30 Z M110.824219,30.2109375 C111.550781,30.2109375 112.201172,30.0878906 112.775391,29.8417969 L112.775391,29.8417969 L112.564453,27.9257812 C112.130859,28.0839844 111.799805,28.1630859 111.571289,28.1630859 C111.407227,28.1630859 111.268066,28.1220703 111.153809,28.0400391 C111.039551,27.9580078 110.966309,27.8540039 110.934082,27.7280273 C110.901855,27.6020508 110.885742,27.1582031 110.885742,26.3964844 L110.885742,26.3964844 L110.885742,22.6347656 L112.573242,22.6347656 L112.573242,20.6660156 L110.885742,20.6660156 L110.885742,17.3701172 L108.407227,18.8115234 L108.407227,20.6660156 L107.273438,20.6660156 L107.273438,22.6347656 L108.407227,22.6347656 L108.40788,26.9349416 C108.412239,27.680196 108.438388,28.1833274 108.486328,28.4443359 C108.550781,28.8486328 108.666504,29.1694336 108.833496,29.4067383 C109.000488,29.644043 109.262695,29.8374023 109.620117,29.9868164 C109.977539,30.1362305 110.378906,30.2109375 110.824219,30.2109375 Z M121.740234,30.2109375 C122.285156,30.2109375 122.797852,30.1083984 123.27832,29.9033203 C123.758789,29.6982422 124.209961,29.390625 124.631836,28.9804688 C124.649414,29.0273438 124.678711,29.1240234 124.719727,29.2705078 C124.813477,29.5927734 124.892578,29.8359375 124.957031,30 L124.957031,30 L127.400391,30 C127.183594,29.5546875 127.035645,29.137207 126.956543,28.7475586 C126.877441,28.3579102 126.837891,27.7529297 126.837891,26.9326172 L126.837891,26.9326172 L126.864258,24.0498047 C126.864258,22.9775391 126.754395,22.2407227 126.534668,21.8393555 C126.314941,21.4379883 125.935547,21.1069336 125.396484,20.8461914 C124.857422,20.5854492 124.037109,20.4550781 122.935547,20.4550781 C121.722656,20.4550781 120.808594,20.671875 120.193359,21.1054688 C119.578125,21.5390625 119.144531,22.2070312 118.892578,23.109375 L118.892578,23.109375 L121.133789,23.5136719 C121.286133,23.0800781 121.485352,22.7768555 121.731445,22.6040039 C121.977539,22.4311523 122.320312,22.3447266 122.759766,22.3447266 C123.410156,22.3447266 123.852539,22.4458008 124.086914,22.6479492 C124.321289,22.8500977 124.438477,23.1884766 124.438477,23.6630859 L124.438477,23.6630859 L124.438477,23.9091797 C123.993164,24.0966797 123.193359,24.2988281 122.039062,24.515625 C121.183594,24.6796875 120.528809,24.871582 120.074707,25.0913086 C119.620605,25.3110352 119.267578,25.6274414 119.015625,26.0405273 C118.763672,26.4536133 118.637695,26.9238281 118.637695,27.4511719 C118.637695,28.2480469 118.914551,28.9072266 119.468262,29.4287109 C120.021973,29.9501953 120.779297,30.2109375 121.740234,30.2109375 Z M122.478516,28.4707031 C122.080078,28.4707031 121.751953,28.3447266 121.494141,28.0927734 C121.236328,27.8408203 121.107422,27.5419922 121.107422,27.1962891 C121.107422,26.8447266 121.268555,26.5546875 121.59082,26.3261719 C121.801758,26.1855469 122.25,26.0419922 122.935547,25.8955078 C123.621094,25.7490234 124.12207,25.6230469 124.438477,25.5175781 L124.438477,25.5175781 L124.438477,26.0097656 C124.438477,26.6015625 124.40625,27.0029297 124.341797,27.2138672 C124.248047,27.5361328 124.051758,27.8085938 123.75293,28.03125 C123.348633,28.3242188 122.923828,28.4707031 122.478516,28.4707031 Z M136.699219,30 L136.699219,19.8574219 L139.248047,30 L141.75293,30 L144.310547,19.8574219 L144.310547,30 L146.727539,30 L146.727539,17.1152344 L142.825195,17.1152344 L140.513672,25.9042969 L138.175781,17.1152344 L134.282227,17.1152344 L134.282227,30 L136.699219,30 Z M151.833984,30 L151.833984,17.1152344 L149.232422,17.1152344 L149.232422,30 L151.833984,30 Z M159.199219,30 C160.160156,30 160.927734,29.9091797 161.501953,29.7275391 C162.269531,29.4814453 162.878906,29.1386719 163.330078,28.6992188 C163.927734,28.1191406 164.387695,27.3603516 164.709961,26.4228516 C164.973633,25.6552734 165.105469,24.7412109 165.105469,23.6806641 C165.105469,22.4736328 164.964844,21.4584961 164.683594,20.6352539 C164.402344,19.8120117 163.992188,19.1162109 163.453125,18.5478516 C162.914062,17.9794922 162.266602,17.5839844 161.510742,17.3613281 C160.948242,17.1972656 160.130859,17.1152344 159.058594,17.1152344 L159.058594,17.1152344 L154.303711,17.1152344 L154.303711,30 L159.199219,30 Z M158.847656,27.8291016 L156.905273,27.8291016 L156.905273,19.2949219 L158.074219,19.2949219 C159.134766,19.2949219 159.84668,19.3359375 160.209961,19.4179688 C160.696289,19.5234375 161.097656,19.7255859 161.414062,20.0244141 C161.730469,20.3232422 161.976562,20.7392578 162.152344,21.2724609 C162.328125,21.8056641 162.416016,22.5703125 162.416016,23.5664062 C162.416016,24.5625 162.328125,25.3491211 162.152344,25.9262695 C161.976562,26.503418 161.749512,26.9179688 161.471191,27.1699219 C161.192871,27.421875 160.842773,27.6005859 160.420898,27.7060547 C160.098633,27.7880859 159.574219,27.8291016 158.847656,27.8291016 L158.847656,27.8291016 Z M169.833984,30 L169.833984,17.1152344 L167.232422,17.1152344 L167.232422,30 L169.833984,30 Z M180.055664,30 L180.055664,22.6083984 L181.901367,22.6083984 L181.901367,20.6660156 L180.055664,20.6660156 L180.055664,20.0068359 C180.055664,19.5322266 180.133301,19.2114258 180.288574,19.0444336 C180.443848,18.8774414 180.700195,18.7939453 181.057617,18.7939453 C181.420898,18.7939453 181.798828,18.8408203 182.191406,18.9345703 L182.191406,18.9345703 L182.525391,17.2119141 C181.851562,17.0009766 181.163086,16.8955078 180.459961,16.8955078 C179.774414,16.8955078 179.20752,17.0170898 178.759277,17.2602539 C178.311035,17.503418 178.003418,17.8183594 177.836426,18.2050781 C177.669434,18.5917969 177.585938,19.1777344 177.585938,19.9628906 L177.585938,19.9628906 L177.585938,20.6660156 L176.214844,20.6660156 L176.214844,22.6083984 L177.585938,22.6083984 L177.585938,30 L180.055664,30 Z M185.759766,19.4003906 L185.759766,17.1152344 L183.290039,17.1152344 L183.290039,19.4003906 L185.759766,19.4003906 Z M185.759766,30 L185.759766,20.6660156 L183.290039,20.6660156 L183.290039,30 L185.759766,30 Z M190.760742,30 L190.760742,17.1152344 L188.291016,17.1152344 L188.291016,30 L190.760742,30 Z M197.097656,30.2109375 C198.123047,30.2109375 198.977051,29.9750977 199.659668,29.503418 C200.342285,29.0317383 200.841797,28.3447266 201.158203,27.4423828 L201.158203,27.4423828 L198.697266,27.0292969 C198.5625,27.4980469 198.363281,27.8378906 198.099609,28.0488281 C197.835938,28.2597656 197.510742,28.3652344 197.124023,28.3652344 C196.555664,28.3652344 196.081055,28.1616211 195.700195,27.7543945 C195.319336,27.347168 195.120117,26.7773438 195.102539,26.0449219 L195.102539,26.0449219 L201.290039,26.0449219 C201.325195,24.1523438 200.941406,22.7475586 200.138672,21.8305664 C199.335938,20.9135742 198.240234,20.4550781 196.851562,20.4550781 C195.615234,20.4550781 194.592773,20.8930664 193.78418,21.769043 C192.975586,22.6450195 192.571289,23.8564453 192.571289,25.4033203 C192.571289,26.6982422 192.878906,27.7705078 193.494141,28.6201172 C194.273438,29.6806641 195.474609,30.2109375 197.097656,30.2109375 Z M198.837891,24.5332031 L195.146484,24.5332031 C195.140625,23.859375 195.313477,23.3261719 195.665039,22.9335938 C196.016602,22.5410156 196.461914,22.3447266 197.000977,22.3447266 C197.504883,22.3447266 197.932617,22.5307617 198.28418,22.902832 C198.635742,23.2749023 198.820312,23.8183594 198.837891,24.5332031 L198.837891,24.5332031 Z M207.398438,33.7880859 C206.882812,32.6689453 206.522461,31.8105469 206.317383,31.2128906 C206.006836,30.3046875 205.762207,29.3466797 205.583496,28.3388672 C205.404785,27.3310547 205.31543,26.3466797 205.31543,25.3857422 C205.31543,23.9912109 205.466309,22.6713867 205.768066,21.4262695 C206.069824,20.1811523 206.62207,18.6708984 207.424805,16.8955078 L207.424805,16.8955078 L205.737305,16.8955078 C204.963867,18.0029297 204.325195,19.2128906 203.821289,20.5253906 C203.241211,22.0371094 202.951172,23.6396484 202.951172,25.3330078 C202.951172,26.6982422 203.185547,28.1103516 203.654297,29.5693359 C204.123047,31.0283203 204.805664,32.4345703 205.702148,33.7880859 L205.702148,33.7880859 L207.398438,33.7880859 Z M212.900391,30.2109375 C214.300781,30.2109375 215.358398,29.9033203 216.073242,29.2880859 C216.788086,28.6728516 217.145508,27.9375 217.145508,27.0820312 C217.145508,26.296875 216.887695,25.6845703 216.37207,25.2451172 C215.850586,24.8115234 214.932129,24.4453125 213.616699,24.1464844 C212.30127,23.8476562 211.532227,23.6162109 211.30957,23.4521484 C211.145508,23.3291016 211.063477,23.1796875 211.063477,23.0039062 C211.063477,22.7988281 211.157227,22.6318359 211.344727,22.5029297 C211.625977,22.3212891 212.091797,22.2304688 212.742188,22.2304688 C213.257812,22.2304688 213.654785,22.3271484 213.933105,22.5205078 C214.211426,22.7138672 214.400391,22.9921875 214.5,23.3554688 L214.5,23.3554688 L216.829102,22.9248047 C216.594727,22.1103516 216.166992,21.4951172 215.545898,21.0791016 C214.924805,20.6630859 213.975586,20.4550781 212.698242,20.4550781 C211.356445,20.4550781 210.366211,20.7304688 209.727539,21.28125 C209.088867,21.8320312 208.769531,22.5117188 208.769531,23.3203125 C208.769531,24.2167969 209.138672,24.9169922 209.876953,25.4208984 C210.410156,25.7841797 211.672852,26.1855469 213.665039,26.625 C214.092773,26.7246094 214.368164,26.8330078 214.491211,26.9501953 C214.608398,27.0732422 214.666992,27.2285156 214.666992,27.4160156 C214.666992,27.6914062 214.558594,27.9111328 214.341797,28.0751953 C214.019531,28.3095703 213.539062,28.4267578 212.900391,28.4267578 C212.320312,28.4267578 211.869141,28.3022461 211.546875,28.0532227 C211.224609,27.8041992 211.010742,27.4394531 210.905273,26.9589844 L210.905273,26.9589844 L208.426758,27.3369141 C208.655273,28.2216797 209.140137,28.921875 209.881348,29.4375 C210.622559,29.953125 211.628906,30.2109375 212.900391,30.2109375 Z M220.327148,33.7880859 C221.334961,32.2587891 222.058594,30.7089844 222.498047,29.1386719 C222.884766,27.7382812 223.078125,26.4257812 223.078125,25.2011719 C223.078125,23.7480469 222.833496,22.3154297 222.344238,20.9033203 C221.85498,19.4912109 221.167969,18.1552734 220.283203,16.8955078 L220.283203,16.8955078 L218.604492,16.8955078 C219.407227,18.6708984 219.958008,20.1811523 220.256836,21.4262695 C220.555664,22.6713867 220.705078,23.9912109 220.705078,25.3857422 C220.705078,26.0712891 220.664062,26.7407227 220.582031,27.394043 C220.5,28.0473633 220.374023,28.7373047 220.204102,29.4638672 C220.03418,30.1904297 219.849609,30.8320312 219.650391,31.3886719 C219.451172,31.9453125 219.108398,32.7451172 218.62207,33.7880859 L218.62207,33.7880859 L220.327148,33.7880859 Z"></path>
            <path fill="#00A8E8" fill-rule="nonzero" d="M32.8304632,14 L32.3399219,14 L25.6606436,14 L25.1701023,14 L18,14 L18,34.4827586 L25.1698196,34.4827586 L25.6603609,34.4827586 L32.3396391,34.4827586 L32.8301804,34.4827586 L40,34.4827586 L40,14 L32.8304632,14 Z M19.5172414,32.9655172 L19.5172414,15.5172414 L23.1800645,15.5172414 L23.1800645,25.9458904 L24.8275862,25.9458904 L24.8275862,32.9655172 L19.5172414,32.9655172 Z M31.6551724,32.9655172 L26.3448276,32.9655172 L26.3448276,25.9458904 L27.7759843,25.9458904 L27.7759843,15.5172414 L30.0078684,15.5172414 L30.0078684,25.9458904 L31.6551724,25.9458904 L31.6551724,32.9655172 Z M33.1724138,32.9655172 L33.1724138,25.9458904 L34.6581768,25.9458904 L34.6581768,15.5172414 L38.4827586,15.5172414 L38.4827586,32.9655172 L33.1724138,32.9655172 Z"></path>
        </g>
    </g>
</svg>
