<?xml version="1.0" encoding="UTF-8"?>
<svg width="300px" height="40px" viewBox="0 0 300 40" version="1.1" xmlns="http://www.w3.org/2000/svg" xmlns:xlink="http://www.w3.org/1999/xlink">
    <title>MIDI</title>
    <g stroke="none" stroke-width="1" fill="none" fill-rule="evenodd">
        <g id="MIDI">
            <polygon fill="#FFFFFF" points="0 5.05077461e-13 300 5.05077461e-13 300 40 0 40"></polygon>
            <line x1="1" y1="39.5" x2="299" y2="39.5" id="Line" stroke="#DBDBDB" stroke-linecap="square"></line>
            <path fill="#424242" fill-rule="nonzero" d="M60.7617188,15.4003906 L60.7617188,13.1152344 L58.2919922,13.1152344 L58.2919922,15.4003906 L60.7617188,15.4003906 Z M60.7617188,26 L60.7617188,16.6660156 L58.2919922,16.6660156 L58.2919922,26 L60.7617188,26 Z M65.578125,26 L65.578125,21.4648438 C65.578125,20.5683594 65.644043,19.9267578 65.7758789,19.5400391 C65.9077148,19.1533203 66.1259766,18.8574219 66.4306641,18.6523438 C66.7353516,18.4472656 67.078125,18.3447266 67.4589844,18.3447266 C67.7753906,18.3447266 68.0258789,18.4091797 68.2104492,18.5380859 C68.3950195,18.6669922 68.53125,18.8632812 68.6191406,19.1269531 C68.7070312,19.390625 68.7509766,19.9765625 68.7509766,20.8847656 L68.7509766,26 L71.2207031,26 L71.2207031,21.5175781 C71.2207031,20.6386719 71.2880859,19.9956055 71.4228516,19.5883789 C71.5576172,19.1811523 71.7773438,18.8720703 72.0820312,18.6611328 C72.3867188,18.4501953 72.7119141,18.3447266 73.0576172,18.3447266 C73.5322266,18.3447266 73.8837891,18.5205078 74.1123047,18.8720703 C74.2822266,19.1416016 74.3671875,19.7392578 74.3671875,20.6650391 L74.3671875,20.6650391 L74.3671875,26 L76.8369141,26 L76.8369141,20.0322266 C76.8369141,19.1416016 76.7519531,18.4970703 76.5820312,18.0986328 C76.3476562,17.5595703 75.9931641,17.1508789 75.5185547,16.8725586 C75.0439453,16.5942383 74.4638672,16.4550781 73.7783203,16.4550781 C73.2392578,16.4550781 72.7324219,16.578125 72.2578125,16.8242188 C71.7832031,17.0703125 71.3408203,17.4423828 70.9306641,17.9404297 C70.6494141,17.4423828 70.2890625,17.0703125 69.8496094,16.8242188 C69.4101562,16.578125 68.8916016,16.4550781 68.2939453,16.4550781 C67.1689453,16.4550781 66.1992188,16.9501953 65.3847656,17.9404297 L65.3847656,17.9404297 L65.3847656,16.6660156 L63.1083984,16.6660156 L63.1083984,26 L65.578125,26 Z M81.6972656,29.5507812 L81.6972656,24.8486328 C82.1601562,25.3466797 82.6010742,25.6982422 83.0200195,25.9033203 C83.4389648,26.1083984 83.90625,26.2109375 84.421875,26.2109375 C85.5058594,26.2109375 86.4287109,25.7788086 87.1904297,24.9145508 C87.9521484,24.050293 88.3330078,22.8388672 88.3330078,21.2802734 C88.3330078,19.7626953 87.9550781,18.5791016 87.1992188,17.7294922 C86.4433594,16.8798828 85.5234375,16.4550781 84.4394531,16.4550781 C83.8183594,16.4550781 83.2529297,16.6015625 82.7431641,16.8945312 C82.2333984,17.1875 81.8291016,17.5683594 81.5302734,18.0371094 L81.5302734,18.0371094 L81.5302734,16.6660156 L79.2275391,16.6660156 L79.2275391,29.5507812 L81.6972656,29.5507812 Z M83.8154297,24.2509766 C83.2177734,24.2509766 82.7109375,24.0004883 82.2949219,23.4995117 C81.8789062,22.9985352 81.6708984,22.2236328 81.6708984,21.1748047 C81.6708984,20.2607422 81.8701172,19.5708008 82.2685547,19.1049805 C82.6669922,18.6391602 83.1679688,18.40625 83.7714844,18.40625 C84.3515625,18.40625 84.8378906,18.6435547 85.2304688,19.1181641 C85.6230469,19.5927734 85.8193359,20.3193359 85.8193359,21.2978516 C85.8193359,22.3466797 85.6289062,23.1010742 85.2480469,23.5610352 C84.8671875,24.0209961 84.3896484,24.2509766 83.8154297,24.2509766 Z M94.546875,26.2109375 C95.9296875,26.2109375 97.0766602,25.746582 97.987793,24.8178711 C98.8989258,23.8891602 99.3544922,22.71875 99.3544922,21.3066406 C99.3544922,19.90625 98.9033203,18.7475586 98.0009766,17.8305664 C97.0986328,16.9135742 95.9414062,16.4550781 94.5292969,16.4550781 C93.6152344,16.4550781 92.7875977,16.6572266 92.0463867,17.0615234 C91.3051758,17.4658203 90.7324219,18.0517578 90.328125,18.8193359 C89.9238281,19.5869141 89.7216797,20.3808594 89.7216797,21.2011719 C89.7216797,22.2734375 89.9238281,23.1831055 90.328125,23.9301758 C90.7324219,24.6772461 91.3227539,25.2441406 92.0991211,25.6308594 C92.8754883,26.0175781 93.6914062,26.2109375 94.546875,26.2109375 Z M94.5380859,24.1982422 C93.8935547,24.1982422 93.3515625,23.9521484 92.9121094,23.4599609 C92.4726562,22.9677734 92.2529297,22.2587891 92.2529297,21.3330078 C92.2529297,20.4072266 92.4726562,19.6982422 92.9121094,19.2060547 C93.3515625,18.7138672 93.8935547,18.4677734 94.5380859,18.4677734 C95.1826172,18.4677734 95.7231445,18.7138672 96.159668,19.2060547 C96.5961914,19.6982422 96.8144531,20.4013672 96.8144531,21.3154297 C96.8144531,22.2529297 96.5961914,22.9677734 96.159668,23.4599609 C95.7231445,23.9521484 95.1826172,24.1982422 94.5380859,24.1982422 Z M103.652344,26 L103.652344,23.1171875 C103.652344,21.5292969 103.721191,20.4863281 103.858887,19.9882812 C103.996582,19.4902344 104.185547,19.1459961 104.425781,18.9555664 C104.666016,18.7651367 104.958984,18.6699219 105.304688,18.6699219 C105.662109,18.6699219 106.048828,18.8046875 106.464844,19.0742188 L106.464844,19.0742188 L107.229492,16.9208984 C106.708008,16.6103516 106.166016,16.4550781 105.603516,16.4550781 C105.205078,16.4550781 104.849121,16.5546875 104.535645,16.7539062 C104.222168,16.953125 103.869141,17.3662109 103.476562,17.9931641 L103.476562,17.9931641 L103.476562,16.6660156 L101.182617,16.6660156 L101.182617,26 L103.652344,26 Z M110.824219,26.2109375 C111.550781,26.2109375 112.201172,26.0878906 112.775391,25.8417969 L112.775391,25.8417969 L112.564453,23.9257812 C112.130859,24.0839844 111.799805,24.1630859 111.571289,24.1630859 C111.407227,24.1630859 111.268066,24.1220703 111.153809,24.0400391 C111.039551,23.9580078 110.966309,23.8540039 110.934082,23.7280273 C110.901855,23.6020508 110.885742,23.1582031 110.885742,22.3964844 L110.885742,22.3964844 L110.885742,18.6347656 L112.573242,18.6347656 L112.573242,16.6660156 L110.885742,16.6660156 L110.885742,13.3701172 L108.407227,14.8115234 L108.407227,16.6660156 L107.273438,16.6660156 L107.273438,18.6347656 L108.407227,18.6347656 L108.40788,22.9349416 C108.412239,23.680196 108.438388,24.1833274 108.486328,24.4443359 C108.550781,24.8486328 108.666504,25.1694336 108.833496,25.4067383 C109.000488,25.644043 109.262695,25.8374023 109.620117,25.9868164 C109.977539,26.1362305 110.378906,26.2109375 110.824219,26.2109375 Z M121.740234,26.2109375 C122.285156,26.2109375 122.797852,26.1083984 123.27832,25.9033203 C123.758789,25.6982422 124.209961,25.390625 124.631836,24.9804688 C124.649414,25.0273438 124.678711,25.1240234 124.719727,25.2705078 C124.813477,25.5927734 124.892578,25.8359375 124.957031,26 L124.957031,26 L127.400391,26 C127.183594,25.5546875 127.035645,25.137207 126.956543,24.7475586 C126.877441,24.3579102 126.837891,23.7529297 126.837891,22.9326172 L126.837891,22.9326172 L126.864258,20.0498047 C126.864258,18.9775391 126.754395,18.2407227 126.534668,17.8393555 C126.314941,17.4379883 125.935547,17.1069336 125.396484,16.8461914 C124.857422,16.5854492 124.037109,16.4550781 122.935547,16.4550781 C121.722656,16.4550781 120.808594,16.671875 120.193359,17.1054688 C119.578125,17.5390625 119.144531,18.2070312 118.892578,19.109375 L118.892578,19.109375 L121.133789,19.5136719 C121.286133,19.0800781 121.485352,18.7768555 121.731445,18.6040039 C121.977539,18.4311523 122.320312,18.3447266 122.759766,18.3447266 C123.410156,18.3447266 123.852539,18.4458008 124.086914,18.6479492 C124.321289,18.8500977 124.438477,19.1884766 124.438477,19.6630859 L124.438477,19.6630859 L124.438477,19.9091797 C123.993164,20.0966797 123.193359,20.2988281 122.039062,20.515625 C121.183594,20.6796875 120.528809,20.871582 120.074707,21.0913086 C119.620605,21.3110352 119.267578,21.6274414 119.015625,22.0405273 C118.763672,22.4536133 118.637695,22.9238281 118.637695,23.4511719 C118.637695,24.2480469 118.914551,24.9072266 119.468262,25.4287109 C120.021973,25.9501953 120.779297,26.2109375 121.740234,26.2109375 Z M122.478516,24.4707031 C122.080078,24.4707031 121.751953,24.3447266 121.494141,24.0927734 C121.236328,23.8408203 121.107422,23.5419922 121.107422,23.1962891 C121.107422,22.8447266 121.268555,22.5546875 121.59082,22.3261719 C121.801758,22.1855469 122.25,22.0419922 122.935547,21.8955078 C123.621094,21.7490234 124.12207,21.6230469 124.438477,21.5175781 L124.438477,21.5175781 L124.438477,22.0097656 C124.438477,22.6015625 124.40625,23.0029297 124.341797,23.2138672 C124.248047,23.5361328 124.051758,23.8085938 123.75293,24.03125 C123.348633,24.3242188 122.923828,24.4707031 122.478516,24.4707031 Z M136.699219,26 L136.699219,15.8574219 L139.248047,26 L141.75293,26 L144.310547,15.8574219 L144.310547,26 L146.727539,26 L146.727539,13.1152344 L142.825195,13.1152344 L140.513672,21.9042969 L138.175781,13.1152344 L134.282227,13.1152344 L134.282227,26 L136.699219,26 Z M151.833984,26 L151.833984,13.1152344 L149.232422,13.1152344 L149.232422,26 L151.833984,26 Z M159.199219,26 C160.160156,26 160.927734,25.9091797 161.501953,25.7275391 C162.269531,25.4814453 162.878906,25.1386719 163.330078,24.6992188 C163.927734,24.1191406 164.387695,23.3603516 164.709961,22.4228516 C164.973633,21.6552734 165.105469,20.7412109 165.105469,19.6806641 C165.105469,18.4736328 164.964844,17.4584961 164.683594,16.6352539 C164.402344,15.8120117 163.992188,15.1162109 163.453125,14.5478516 C162.914062,13.9794922 162.266602,13.5839844 161.510742,13.3613281 C160.948242,13.1972656 160.130859,13.1152344 159.058594,13.1152344 L159.058594,13.1152344 L154.303711,13.1152344 L154.303711,26 L159.199219,26 Z M158.847656,23.8291016 L156.905273,23.8291016 L156.905273,15.2949219 L158.074219,15.2949219 C159.134766,15.2949219 159.84668,15.3359375 160.209961,15.4179688 C160.696289,15.5234375 161.097656,15.7255859 161.414062,16.0244141 C161.730469,16.3232422 161.976562,16.7392578 162.152344,17.2724609 C162.328125,17.8056641 162.416016,18.5703125 162.416016,19.5664062 C162.416016,20.5625 162.328125,21.3491211 162.152344,21.9262695 C161.976562,22.503418 161.749512,22.9179688 161.471191,23.1699219 C161.192871,23.421875 160.842773,23.6005859 160.420898,23.7060547 C160.098633,23.7880859 159.574219,23.8291016 158.847656,23.8291016 L158.847656,23.8291016 Z M169.833984,26 L169.833984,13.1152344 L167.232422,13.1152344 L167.232422,26 L169.833984,26 Z M180.055664,26 L180.055664,18.6083984 L181.901367,18.6083984 L181.901367,16.6660156 L180.055664,16.6660156 L180.055664,16.0068359 C180.055664,15.5322266 180.133301,15.2114258 180.288574,15.0444336 C180.443848,14.8774414 180.700195,14.7939453 181.057617,14.7939453 C181.420898,14.7939453 181.798828,14.8408203 182.191406,14.9345703 L182.191406,14.9345703 L182.525391,13.2119141 C181.851562,13.0009766 181.163086,12.8955078 180.459961,12.8955078 C179.774414,12.8955078 179.20752,13.0170898 178.759277,13.2602539 C178.311035,13.503418 178.003418,13.8183594 177.836426,14.2050781 C177.669434,14.5917969 177.585938,15.1777344 177.585938,15.9628906 L177.585938,15.9628906 L177.585938,16.6660156 L176.214844,16.6660156 L176.214844,18.6083984 L177.585938,18.6083984 L177.585938,26 L180.055664,26 Z M185.759766,15.4003906 L185.759766,13.1152344 L183.290039,13.1152344 L183.290039,15.4003906 L185.759766,15.4003906 Z M185.759766,26 L185.759766,16.6660156 L183.290039,16.6660156 L183.290039,26 L185.759766,26 Z M190.760742,26 L190.760742,13.1152344 L188.291016,13.1152344 L188.291016,26 L190.760742,26 Z M197.097656,26.2109375 C198.123047,26.2109375 198.977051,25.9750977 199.659668,25.503418 C200.342285,25.0317383 200.841797,24.3447266 201.158203,23.4423828 L201.158203,23.4423828 L198.697266,23.0292969 C198.5625,23.4980469 198.363281,23.8378906 198.099609,24.0488281 C197.835938,24.2597656 197.510742,24.3652344 197.124023,24.3652344 C196.555664,24.3652344 196.081055,24.1616211 195.700195,23.7543945 C195.319336,23.347168 195.120117,22.7773438 195.102539,22.0449219 L195.102539,22.0449219 L201.290039,22.0449219 C201.325195,20.1523438 200.941406,18.7475586 200.138672,17.8305664 C199.335938,16.9135742 198.240234,16.4550781 196.851562,16.4550781 C195.615234,16.4550781 194.592773,16.8930664 193.78418,17.769043 C192.975586,18.6450195 192.571289,19.8564453 192.571289,21.4033203 C192.571289,22.6982422 192.878906,23.7705078 193.494141,24.6201172 C194.273438,25.6806641 195.474609,26.2109375 197.097656,26.2109375 Z M198.837891,20.5332031 L195.146484,20.5332031 C195.140625,19.859375 195.313477,19.3261719 195.665039,18.9335938 C196.016602,18.5410156 196.461914,18.3447266 197.000977,18.3447266 C197.504883,18.3447266 197.932617,18.5307617 198.28418,18.902832 C198.635742,19.2749023 198.820312,19.8183594 198.837891,20.5332031 L198.837891,20.5332031 Z M208.804688,26.2197266 L212.030273,12.8955078 L210.175781,12.8955078 L206.985352,26.2197266 L208.804688,26.2197266 Z M221.06543,26 L221.06543,18.6083984 L222.911133,18.6083984 L222.911133,16.6660156 L221.06543,16.6660156 L221.06543,16.0068359 C221.06543,15.5322266 221.143066,15.2114258 221.29834,15.0444336 C221.453613,14.8774414 221.709961,14.7939453 222.067383,14.7939453 C222.430664,14.7939453 222.808594,14.8408203 223.201172,14.9345703 L223.201172,14.9345703 L223.535156,13.2119141 C222.861328,13.0009766 222.172852,12.8955078 221.469727,12.8955078 C220.78418,12.8955078 220.217285,13.0170898 219.769043,13.2602539 C219.320801,13.503418 219.013184,13.8183594 218.846191,14.2050781 C218.679199,14.5917969 218.595703,15.1777344 218.595703,15.9628906 L218.595703,15.9628906 L218.595703,16.6660156 L217.224609,16.6660156 L217.224609,18.6083984 L218.595703,18.6083984 L218.595703,26 L221.06543,26 Z M226.769531,15.4003906 L226.769531,13.1152344 L224.299805,13.1152344 L224.299805,15.4003906 L226.769531,15.4003906 Z M226.769531,26 L226.769531,16.6660156 L224.299805,16.6660156 L224.299805,26 L226.769531,26 Z M231.770508,26 L231.770508,13.1152344 L229.300781,13.1152344 L229.300781,26 L231.770508,26 Z M238.107422,26.2109375 C239.132812,26.2109375 239.986816,25.9750977 240.669434,25.503418 C241.352051,25.0317383 241.851562,24.3447266 242.167969,23.4423828 L242.167969,23.4423828 L239.707031,23.0292969 C239.572266,23.4980469 239.373047,23.8378906 239.109375,24.0488281 C238.845703,24.2597656 238.520508,24.3652344 238.133789,24.3652344 C237.56543,24.3652344 237.09082,24.1616211 236.709961,23.7543945 C236.329102,23.347168 236.129883,22.7773438 236.112305,22.0449219 L236.112305,22.0449219 L242.299805,22.0449219 C242.334961,20.1523438 241.951172,18.7475586 241.148438,17.8305664 C240.345703,16.9135742 239.25,16.4550781 237.861328,16.4550781 C236.625,16.4550781 235.602539,16.8930664 234.793945,17.769043 C233.985352,18.6450195 233.581055,19.8564453 233.581055,21.4033203 C233.581055,22.6982422 233.888672,23.7705078 234.503906,24.6201172 C235.283203,25.6806641 236.484375,26.2109375 238.107422,26.2109375 Z M239.847656,20.5332031 L236.15625,20.5332031 C236.150391,19.859375 236.323242,19.3261719 236.674805,18.9335938 C237.026367,18.5410156 237.47168,18.3447266 238.010742,18.3447266 C238.514648,18.3447266 238.942383,18.5307617 239.293945,18.902832 C239.645508,19.2749023 239.830078,19.8183594 239.847656,20.5332031 L239.847656,20.5332031 Z M247.916016,26.2109375 C249.316406,26.2109375 250.374023,25.9033203 251.088867,25.2880859 C251.803711,24.6728516 252.161133,23.9375 252.161133,23.0820312 C252.161133,22.296875 251.90332,21.6845703 251.387695,21.2451172 C250.866211,20.8115234 249.947754,20.4453125 248.632324,20.1464844 C247.316895,19.8476562 246.547852,19.6162109 246.325195,19.4521484 C246.161133,19.3291016 246.079102,19.1796875 246.079102,19.0039062 C246.079102,18.7988281 246.172852,18.6318359 246.360352,18.5029297 C246.641602,18.3212891 247.107422,18.2304688 247.757812,18.2304688 C248.273438,18.2304688 248.67041,18.3271484 248.94873,18.5205078 C249.227051,18.7138672 249.416016,18.9921875 249.515625,19.3554688 L249.515625,19.3554688 L251.844727,18.9248047 C251.610352,18.1103516 251.182617,17.4951172 250.561523,17.0791016 C249.94043,16.6630859 248.991211,16.4550781 247.713867,16.4550781 C246.37207,16.4550781 245.381836,16.7304688 244.743164,17.28125 C244.104492,17.8320312 243.785156,18.5117188 243.785156,19.3203125 C243.785156,20.2167969 244.154297,20.9169922 244.892578,21.4208984 C245.425781,21.7841797 246.688477,22.1855469 248.680664,22.625 C249.108398,22.7246094 249.383789,22.8330078 249.506836,22.9501953 C249.624023,23.0732422 249.682617,23.2285156 249.682617,23.4160156 C249.682617,23.6914062 249.574219,23.9111328 249.357422,24.0751953 C249.035156,24.3095703 248.554688,24.4267578 247.916016,24.4267578 C247.335938,24.4267578 246.884766,24.3022461 246.5625,24.0532227 C246.240234,23.8041992 246.026367,23.4394531 245.920898,22.9589844 L245.920898,22.9589844 L243.442383,23.3369141 C243.670898,24.2216797 244.155762,24.921875 244.896973,25.4375 C245.638184,25.953125 246.644531,26.2109375 247.916016,26.2109375 Z"></path>
            <path fill="#00A8E8" fill-rule="nonzero" d="M32.8304632,10 L32.3399219,10 L25.6606436,10 L25.1701023,10 L18,10 L18,30.4827586 L25.1698196,30.4827586 L25.6603609,30.4827586 L32.3396391,30.4827586 L32.8301804,30.4827586 L40,30.4827586 L40,10 L32.8304632,10 Z M19.5172414,28.9655172 L19.5172414,11.5172414 L23.1800645,11.5172414 L23.1800645,21.9458904 L24.8275862,21.9458904 L24.8275862,28.9655172 L19.5172414,28.9655172 Z M31.6551724,28.9655172 L26.3448276,28.9655172 L26.3448276,21.9458904 L27.7759843,21.9458904 L27.7759843,11.5172414 L30.0078684,11.5172414 L30.0078684,21.9458904 L31.6551724,21.9458904 L31.6551724,28.9655172 Z M33.1724138,28.9655172 L33.1724138,21.9458904 L34.6581768,21.9458904 L34.6581768,11.5172414 L38.4827586,11.5172414 L38.4827586,28.9655172 L33.1724138,28.9655172 Z"></path>
        </g>
    </g>
</svg>
