<?xml version="1.0" encoding="UTF-8"?>
<svg width="300px" height="50px" viewBox="0 0 300 50" version="1.1" xmlns="http://www.w3.org/2000/svg" xmlns:xlink="http://www.w3.org/1999/xlink">
    <title>MIDI</title>
    <g stroke="none" stroke-width="1" fill="none" fill-rule="evenodd">
        <g id="MIDI">
            <polygon fill="#FFFFFF" points="0 6.31346827e-13 300 6.31346827e-13 300 50 0 50"></polygon>
            <path d="M1,49.5 L299,49.5" id="Line" stroke="#DBDBDB" stroke-linecap="square"></path>
            <path fill="#424242" fill-rule="nonzero" d="M58.2919922,19.4003906 L58.2919922,17.1152344 L60.7617188,17.1152344 L60.7617188,19.4003906 L58.2919922,19.4003906 Z M58.2919922,30 L58.2919922,20.6660156 L60.7617188,20.6660156 L60.7617188,30 L58.2919922,30 Z M63.1083984,20.6660156 L65.3847656,20.6660156 L65.3847656,21.9404297 C66.1992228,20.9501904 67.1689397,20.4550781 68.2939453,20.4550781 C68.8916046,20.4550781 69.4101541,20.5781238 69.8496094,20.8242188 C70.2890647,21.0703137 70.6494127,21.4423803 70.9306641,21.9404297 C71.3408224,21.4423803 71.7832008,21.0703137 72.2578125,20.8242188 C72.7324242,20.5781238 73.2392551,20.4550781 73.7783203,20.4550781 C74.4638706,20.4550781 75.0439429,20.5942369 75.5185547,20.8725586 C75.9931664,21.1508803 76.3476551,21.5595676 76.5820312,22.0986328 C76.751954,22.4970723 76.8369141,23.1415971 76.8369141,24.0322266 L76.8369141,30 L74.3671875,30 L74.3671875,24.6650391 C74.3671875,23.7392532 74.2822274,23.1416029 74.1123047,22.8720703 C73.8837879,22.5205061 73.5322289,22.3447266 73.0576172,22.3447266 C72.7119123,22.3447266 72.3867203,22.4501943 72.0820312,22.6611328 C71.7773422,22.8720714 71.5576179,23.1811503 71.4228516,23.5883789 C71.2880853,23.9956075 71.2207031,24.6386675 71.2207031,25.5175781 L71.2207031,30 L68.7509766,30 L68.7509766,24.8847656 C68.7509766,23.976558 68.7070317,23.3906263 68.6191406,23.1269531 C68.5312496,22.8632799 68.3950205,22.6669928 68.2104492,22.5380859 C68.025878,22.409179 67.7753922,22.3447266 67.4589844,22.3447266 C67.0781231,22.3447266 66.7353531,22.4472646 66.4306641,22.6523438 C66.125975,22.8574229 65.9077155,23.1533184 65.7758789,23.5400391 C65.6440423,23.9267597 65.578125,24.5683549 65.578125,25.4648438 L65.578125,30 L63.1083984,30 L63.1083984,20.6660156 Z M79.2275391,20.6660156 L81.5302734,20.6660156 L81.5302734,22.0371094 C81.8291031,21.568357 82.2333959,21.1875015 82.7431641,20.8945312 C83.2529322,20.601561 83.8183563,20.4550781 84.4394531,20.4550781 C85.5234429,20.4550781 86.4433556,20.8798786 87.1992188,21.7294922 C87.9550819,22.5791058 88.3330078,23.7626877 88.3330078,25.2802734 C88.3330078,26.838875 87.9521522,28.0502886 87.1904297,28.9145508 C86.4287071,29.7788129 85.5058648,30.2109375 84.421875,30.2109375 C83.9062474,30.2109375 83.4389669,30.1083995 83.0200195,29.9033203 C82.6010721,29.6982412 82.1601586,29.3466822 81.6972656,28.8486328 L81.6972656,33.5507812 L79.2275391,33.5507812 L79.2275391,20.6660156 Z M81.6708984,25.1748047 C81.6708984,26.2236381 81.8789042,26.9985327 82.2949219,27.4995117 C82.7109396,28.0004908 83.2177704,28.2509766 83.8154297,28.2509766 C84.3896513,28.2509766 84.8671856,28.0209984 85.2480469,27.5610352 C85.6289082,27.1010719 85.8193359,26.3466849 85.8193359,25.2978516 C85.8193359,24.319331 85.6230488,23.5927758 85.2304688,23.1181641 C84.8378887,22.6435523 84.3515654,22.40625 83.7714844,22.40625 C83.1679657,22.40625 82.6669942,22.6391578 82.2685547,23.1049805 C81.8701152,23.5708031 81.6708984,24.2607376 81.6708984,25.1748047 Z M89.7216797,25.2011719 C89.7216797,24.3808553 89.9238261,23.5869179 90.328125,22.8193359 C90.7324239,22.051754 91.3051721,21.4658223 92.0463867,21.0615234 C92.7876014,20.6572245 93.6152298,20.4550781 94.5292969,20.4550781 C95.9414133,20.4550781 97.0986283,20.9135696 98.0009766,21.8305664 C98.9033248,22.7475632 99.3544922,23.906243 99.3544922,25.3066406 C99.3544922,26.7187571 98.8989303,27.8891555 97.987793,28.8178711 C97.0766556,29.7465867 95.9296944,30.2109375 94.546875,30.2109375 C93.691402,30.2109375 92.8754922,30.0175801 92.0991211,29.6308594 C91.32275,29.2441387 90.7324239,28.6772498 90.328125,27.9301758 C89.9238261,27.1831017 89.7216797,26.2734429 89.7216797,25.2011719 Z M92.2529297,25.3330078 C92.2529297,26.2587937 92.4726541,26.967771 92.9121094,27.4599609 C93.3515647,27.9521509 93.8935515,28.1982422 94.5380859,28.1982422 C95.1826204,28.1982422 95.7231423,27.9521509 96.159668,27.4599609 C96.5961936,26.967771 96.8144531,26.2529344 96.8144531,25.3154297 C96.8144531,24.4013626 96.5961936,23.6982446 96.159668,23.2060547 C95.7231423,22.7138647 95.1826204,22.4677734 94.5380859,22.4677734 C93.8935515,22.4677734 93.3515647,22.7138647 92.9121094,23.2060547 C92.4726541,23.6982446 92.2529297,24.4072219 92.2529297,25.3330078 Z M103.652344,30 L101.182617,30 L101.182617,20.6660156 L103.476562,20.6660156 L103.476562,21.9931641 C103.869143,21.3662078 104.222166,20.953126 104.535645,20.7539062 C104.849123,20.5546865 105.205076,20.4550781 105.603516,20.4550781 C106.166018,20.4550781 106.708005,20.61035 107.229492,20.9208984 L106.464844,23.0742188 C106.048826,22.8046862 105.662111,22.6699219 105.304688,22.6699219 C104.958983,22.6699219 104.666017,22.7651358 104.425781,22.9555664 C104.185546,23.145997 103.996583,23.4902319 103.858887,23.9882812 C103.721191,24.4863306 103.652344,25.5292889 103.652344,27.1171875 L103.652344,30 Z M112.573242,20.6660156 L112.573242,22.6347656 L110.885742,22.6347656 L110.885742,26.3964844 C110.885742,27.1582069 110.901855,27.6020502 110.934082,27.7280273 C110.966309,27.8540045 111.03955,27.9580074 111.153809,28.0400391 C111.268067,28.1220707 111.407226,28.1630859 111.571289,28.1630859 C111.799806,28.1630859 112.130857,28.0839852 112.564453,27.9257812 L112.775391,29.8417969 C112.201169,30.0878919 111.550785,30.2109375 110.824219,30.2109375 C110.378904,30.2109375 109.977541,30.1362312 109.620117,29.9868164 C109.262694,29.8374016 109.000489,29.6440442 108.833496,29.4067383 C108.666503,29.1694324 108.550782,28.8486348 108.486328,28.4443359 C108.433593,28.1572251 108.407227,27.5771528 108.407227,26.7041016 L108.407227,22.6347656 L107.273438,22.6347656 L107.273438,20.6660156 L108.407227,20.6660156 L108.407227,18.8115234 L110.885742,17.3701172 L110.885742,20.6660156 L112.573242,20.6660156 Z M121.133789,23.5136719 L118.892578,23.109375 C119.144533,22.2070267 119.578122,21.5390647 120.193359,21.1054688 C120.808597,20.6718728 121.72265,20.4550781 122.935547,20.4550781 C124.037115,20.4550781 124.857419,20.5854479 125.396484,20.8461914 C125.93555,21.1069349 126.31494,21.4379863 126.534668,21.8393555 C126.754396,22.2407247 126.864258,22.9775337 126.864258,24.0498047 L126.837891,26.9326172 C126.837891,27.7529338 126.877441,28.3579082 126.956543,28.7475586 C127.035645,29.137209 127.183593,29.5546853 127.400391,30 L124.957031,30 C124.892578,29.8359367 124.813477,29.592775 124.719727,29.2705078 C124.678711,29.1240227 124.649414,29.027344 124.631836,28.9804688 C124.209959,29.3906271 123.758791,29.6982412 123.27832,29.9033203 C122.797849,30.1083995 122.285159,30.2109375 121.740234,30.2109375 C120.779292,30.2109375 120.021975,29.9501979 119.468262,29.4287109 C118.914548,28.907224 118.637695,28.2480509 118.637695,27.4511719 C118.637695,26.9238255 118.763671,26.4536153 119.015625,26.0405273 C119.267579,25.6274393 119.620603,25.3110363 120.074707,25.0913086 C120.528811,24.8715809 121.183589,24.6796883 122.039062,24.515625 C123.193365,24.298827 123.993162,24.0966806 124.438477,23.9091797 L124.438477,23.6630859 C124.438477,23.1884742 124.32129,22.8500987 124.086914,22.6479492 C123.852538,22.4457998 123.41016,22.3447266 122.759766,22.3447266 C122.32031,22.3447266 121.97754,22.4311515 121.731445,22.6040039 C121.48535,22.7768563 121.286134,23.080076 121.133789,23.5136719 Z M124.438477,25.5175781 C124.122069,25.6230474 123.621097,25.7490227 122.935547,25.8955078 C122.249997,26.0419929 121.801759,26.1855462 121.59082,26.3261719 C121.268553,26.5546886 121.107422,26.8447248 121.107422,27.1962891 C121.107422,27.5419939 121.236327,27.8408191 121.494141,28.0927734 C121.751954,28.3447278 122.080076,28.4707031 122.478516,28.4707031 C122.92383,28.4707031 123.348631,28.3242202 123.75293,28.03125 C124.051759,27.8085926 124.248046,27.5361344 124.341797,27.2138672 C124.40625,27.0029286 124.438477,26.6015655 124.438477,26.0097656 L124.438477,25.5175781 Z M134.282227,30 L134.282227,17.1152344 L138.175781,17.1152344 L140.513672,25.9042969 L142.825195,17.1152344 L146.727539,17.1152344 L146.727539,30 L144.310547,30 L144.310547,19.8574219 L141.75293,30 L139.248047,30 L136.699219,19.8574219 L136.699219,30 L134.282227,30 Z M149.232422,30 L149.232422,17.1152344 L151.833984,17.1152344 L151.833984,30 L149.232422,30 Z M154.303711,17.1152344 L159.058594,17.1152344 C160.130865,17.1152344 160.948239,17.1972648 161.510742,17.3613281 C162.266605,17.5839855 162.91406,17.9794893 163.453125,18.5478516 C163.99219,19.1162138 164.402342,19.8120076 164.683594,20.6352539 C164.964845,21.4585002 165.105469,22.4736268 165.105469,23.6806641 C165.105469,24.7412162 164.973634,25.6552696 164.709961,26.4228516 C164.387694,27.3603562 163.927737,28.1191377 163.330078,28.6992188 C162.878904,29.1386741 162.269535,29.4814441 161.501953,29.7275391 C160.927732,29.9091806 160.160161,30 159.199219,30 L154.303711,30 L154.303711,17.1152344 Z M156.905273,19.2949219 L156.905273,27.8291016 L158.847656,27.8291016 C159.574222,27.8291016 160.098631,27.7880863 160.420898,27.7060547 C160.842776,27.6005854 161.19287,27.4218763 161.471191,27.1699219 C161.749513,26.9179675 161.976562,26.5034209 162.152344,25.9262695 C162.328126,25.3491182 162.416016,24.562505 162.416016,23.5664062 C162.416016,22.5703075 162.328126,21.8056667 162.152344,21.2724609 C161.976562,20.7392551 161.73047,20.3232437 161.414062,20.0244141 C161.097655,19.7255844 160.696291,19.523438 160.209961,19.4179688 C159.846678,19.3359371 159.134771,19.2949219 158.074219,19.2949219 L156.905273,19.2949219 Z M167.232422,30 L167.232422,17.1152344 L169.833984,17.1152344 L169.833984,30 L167.232422,30 Z M176.214844,20.6660156 L177.585938,20.6660156 L177.585938,19.9628906 C177.585938,19.1777304 177.669433,18.5917988 177.836426,18.2050781 C178.003419,17.8183574 178.311033,17.5034192 178.759277,17.2602539 C179.207522,17.0170886 179.774411,16.8955078 180.459961,16.8955078 C181.163089,16.8955078 181.851559,17.0009755 182.525391,17.2119141 L182.191406,18.9345703 C181.798826,18.8408198 181.4209,18.7939453 181.057617,18.7939453 C180.700194,18.7939453 180.443848,18.8774406 180.288574,19.0444336 C180.1333,19.2114266 180.055664,19.5322242 180.055664,20.0068359 L180.055664,20.6660156 L181.901367,20.6660156 L181.901367,22.6083984 L180.055664,22.6083984 L180.055664,30 L177.585938,30 L177.585938,22.6083984 L176.214844,22.6083984 L176.214844,20.6660156 Z M183.290039,19.4003906 L183.290039,17.1152344 L185.759766,17.1152344 L185.759766,19.4003906 L183.290039,19.4003906 Z M183.290039,30 L183.290039,20.6660156 L185.759766,20.6660156 L185.759766,30 L183.290039,30 Z M188.291016,30 L188.291016,17.1152344 L190.760742,17.1152344 L190.760742,30 L188.291016,30 Z M198.697266,27.0292969 L201.158203,27.4423828 C200.841795,28.3447311 200.342289,29.0317359 199.659668,29.503418 C198.977047,29.9751 198.123052,30.2109375 197.097656,30.2109375 C195.474601,30.2109375 194.273441,29.6806694 193.494141,28.6201172 C192.878903,27.7705036 192.571289,26.6982487 192.571289,25.4033203 C192.571289,23.8564376 192.975582,22.6450239 193.78418,21.769043 C194.592777,20.893062 195.615228,20.4550781 196.851562,20.4550781 C198.240241,20.4550781 199.335933,20.9135696 200.138672,21.8305664 C200.94141,22.7475632 201.325195,24.1523343 201.290039,26.0449219 L195.102539,26.0449219 C195.120117,26.7773474 195.319334,27.3471659 195.700195,27.7543945 C196.081057,28.1616231 196.555661,28.3652344 197.124023,28.3652344 C197.510744,28.3652344 197.835936,28.2597667 198.099609,28.0488281 C198.363283,27.8378896 198.562499,27.4980492 198.697266,27.0292969 Z M198.837891,24.5332031 C198.820312,23.8183558 198.635744,23.2749042 198.28418,22.902832 C197.932615,22.5307599 197.504885,22.3447266 197.000977,22.3447266 C196.461911,22.3447266 196.016603,22.5410137 195.665039,22.9335938 C195.313475,23.3261738 195.140625,23.8593716 195.146484,24.5332031 L198.837891,24.5332031 Z"></path>
            <path fill="#00A8E8" fill-rule="nonzero" d="M32.8304632,14 L32.3399219,14 L25.6606436,14 L25.1701023,14 L18,14 L18,34.4827586 L25.1698196,34.4827586 L25.6603609,34.4827586 L32.3396391,34.4827586 L32.8301804,34.4827586 L40,34.4827586 L40,14 L32.8304632,14 Z M19.5172414,32.9655172 L19.5172414,15.5172414 L23.1800645,15.5172414 L23.1800645,25.9458904 L24.8275862,25.9458904 L24.8275862,32.9655172 L19.5172414,32.9655172 Z M31.6551724,32.9655172 L26.3448276,32.9655172 L26.3448276,25.9458904 L27.7759843,25.9458904 L27.7759843,15.5172414 L30.0078684,15.5172414 L30.0078684,25.9458904 L31.6551724,25.9458904 L31.6551724,32.9655172 Z M33.1724138,32.9655172 L33.1724138,25.9458904 L34.6581768,25.9458904 L34.6581768,15.5172414 L38.4827586,15.5172414 L38.4827586,32.9655172 L33.1724138,32.9655172 Z"></path>
        </g>
    </g>
</svg>
