<?xml version="1.0" encoding="UTF-8"?>
<svg width="120px" height="34px" viewBox="0 0 120 34">
    <g stroke="none" stroke-width="1" fill="none" fill-rule="evenodd">
        <path fill="#80848A" d="M115,0 C117.761424,0 120,2.23857625 120,5 L120,29 C120,31.7614237 117.761424,34 115,34 L60,34 L60,0 L115,0 Z M77.8515625,13.4550781 C76.6152282,13.4550781 75.5927775,13.893062 74.7841797,14.769043 C73.9755819,15.6450239 73.5712891,16.8564376 73.5712891,18.4033203 C73.5712891,19.6982487 73.8789032,20.7705036 74.4941406,21.6201172 C75.2734414,22.6806694 76.4746013,23.2109375 78.0976562,23.2109375 C79.123052,23.2109375 79.9770474,22.9751 80.659668,22.503418 C81.3422886,22.0317359 81.8417953,21.3447311 82.1582031,20.4423828 L82.1582031,20.4423828 L79.6972656,20.0292969 C79.5624993,20.4980492 79.3632826,20.8378896 79.0996094,21.0488281 C78.8359362,21.2597667 78.5107441,21.3652344 78.1240234,21.3652344 C77.5556612,21.3652344 77.0810566,21.1616231 76.7001953,20.7543945 C76.319334,20.3471659 76.1201173,19.7773474 76.1025391,19.0449219 L76.1025391,19.0449219 L82.2900391,19.0449219 C82.3251955,17.1523343 81.9414103,15.7475632 81.1386719,14.8305664 C80.3359335,13.9135696 79.2402413,13.4550781 77.8515625,13.4550781 Z M92.8632812,10.1152344 L90.3935547,10.1152344 L90.3935547,14.7558594 C89.6318321,13.8886675 88.7294974,13.4550781 87.6865234,13.4550781 C86.549799,13.4550781 85.6093787,13.8666951 84.8652344,14.6899414 C84.12109,15.5131877 83.7490234,16.7158124 83.7490234,18.2978516 C83.7490234,19.8447343 84.1313438,21.0502886 84.8959961,21.9145508 C85.6606484,22.7788129 86.5790962,23.2109375 87.6513672,23.2109375 C88.1787136,23.2109375 88.7016576,23.0805677 89.2202148,22.8198242 C89.7387721,22.5590807 90.1884747,22.162112 90.5693359,21.6289062 L90.5693359,21.6289062 L90.5693359,23 L92.8632812,23 L92.8632812,10.1152344 Z M102.891602,10.3701172 L100.413086,11.8115234 L100.413086,13.6660156 L99.2792969,13.6660156 L99.2792969,15.6347656 L100.413086,15.6347656 L100.41374,19.9349425 C100.418098,20.6801993 100.444247,21.1833261 100.492188,21.4443359 C100.556641,21.8486348 100.672362,22.1694324 100.839355,22.4067383 C101.006348,22.6440442 101.268553,22.8374016 101.625977,22.9868164 C101.9834,23.1362312 102.384763,23.2109375 102.830078,23.2109375 C103.556644,23.2109375 104.207028,23.0878919 104.78125,22.8417969 L104.78125,22.8417969 L104.570312,20.9257812 C104.136717,21.0839852 103.805665,21.1630859 103.577148,21.1630859 C103.413085,21.1630859 103.273926,21.1220707 103.159668,21.0400391 C103.04541,20.9580074 102.972168,20.8540045 102.939941,20.7280273 C102.907715,20.6020502 102.891602,20.1582069 102.891602,19.3964844 L102.891602,19.3964844 L102.891602,15.6347656 L104.579102,15.6347656 L104.579102,13.6660156 L102.891602,13.6660156 L102.891602,10.3701172 Z M97.7675781,13.6660156 L95.2978516,13.6660156 L95.2978516,23 L97.7675781,23 L97.7675781,13.6660156 Z M88.3369141,15.3447266 C88.9404327,15.3447266 89.4355449,15.580564 89.8222656,16.0522461 C90.2089863,16.5239281 90.4023438,17.2958931 90.4023438,18.3681641 C90.4023438,19.3291064 90.203127,20.0512671 89.8046875,20.534668 C89.406248,21.0180688 88.9228544,21.2597656 88.3544922,21.2597656 C87.6396449,21.2597656 87.0830098,20.9375032 86.6845703,20.2929688 C86.4091783,19.847654 86.2714844,19.1269581 86.2714844,18.1308594 C86.2714844,17.2050735 86.4692363,16.5092797 86.8647461,16.043457 C87.2602559,15.5776344 87.7509736,15.3447266 88.3369141,15.3447266 Z M78.0009766,15.3447266 C78.5048853,15.3447266 78.9326154,15.5307599 79.2841797,15.902832 C79.6357439,16.2749042 79.8203124,16.8183558 79.8378906,17.5332031 L79.8378906,17.5332031 L76.1464844,17.5332031 C76.140625,16.8593716 76.3134748,16.3261738 76.6650391,15.9335938 C77.0166033,15.5410137 77.4619114,15.3447266 78.0009766,15.3447266 Z M97.7675781,10.1152344 L95.2978516,10.1152344 L95.2978516,12.4003906 L97.7675781,12.4003906 L97.7675781,10.1152344 Z"></path>
        <path fill="#1497CA" d="M60,0 L60,34 L5,34 C2.23857625,34 0,31.7614237 0,29 L0,29 L0,5 C0,2.23857625 2.23857625,0 5,0 L5,0 L60,0 Z M40.7578125,13.6660156 L38.1298828,13.6660156 L41.6806641,23.0263672 C41.534179,23.5478542 41.3232436,23.9770491 41.0478516,24.3139648 C40.7724596,24.6508806 40.3476591,24.8193359 39.7734375,24.8193359 C39.4628891,24.8193359 39.1142597,24.7812504 38.7275391,24.7050781 L38.7275391,24.7050781 L38.9472656,26.6386719 C39.4042992,26.7382817 39.8701148,26.7880859 40.3447266,26.7880859 C40.8134789,26.7880859 41.2338849,26.7382817 41.605957,26.6386719 C41.9780292,26.539062 42.2915026,26.3999032 42.5463867,26.2211914 C42.8012708,26.0424796 43.0268545,25.8095717 43.2231445,25.5224609 C43.4194346,25.2353501 43.6259755,24.8193387 43.8427734,24.2744141 L43.8427734,24.2744141 L44.4316406,22.6484375 L47.7275391,13.6660156 L45.1699219,13.6660156 L42.9902344,20.2929688 L40.7578125,13.6660156 Z M18.4335938,13.4550781 C17.8124969,13.4550781 17.2470729,13.601561 16.7373047,13.8945312 C16.2275365,14.1875015 15.8232437,14.568357 15.5244141,15.0371094 L15.5244141,15.0371094 L15.5244141,13.6660156 L13.2216797,13.6660156 L13.2216797,26.5507812 L15.6914062,26.5507812 L15.6914062,21.8486328 C16.1542992,22.3466822 16.5952127,22.6982412 17.0141602,22.9033203 C17.4331076,23.1083995 17.900388,23.2109375 18.4160156,23.2109375 C19.5000054,23.2109375 20.4228478,22.7788129 21.1845703,21.9145508 C21.9462929,21.0502886 22.3271484,19.838875 22.3271484,18.2802734 C22.3271484,16.7626877 21.9492225,15.5791058 21.1933594,14.7294922 C20.4374962,13.8798786 19.5175835,13.4550781 18.4335938,13.4550781 Z M32.9355469,13.4550781 C31.7226502,13.4550781 30.8085968,13.6718728 30.1933594,14.1054688 C29.5781219,14.5390647 29.1445325,15.2070267 28.8925781,16.109375 L28.8925781,16.109375 L31.1337891,16.5136719 C31.2861336,16.080076 31.4853503,15.7768563 31.7314453,15.6040039 C31.9775403,15.4311515 32.3203103,15.3447266 32.7597656,15.3447266 C33.4101595,15.3447266 33.8525379,15.4457998 34.0869141,15.6479492 C34.3212902,15.8500987 34.4384766,16.1884742 34.4384766,16.6630859 L34.4384766,16.6630859 L34.4384766,16.9091797 C33.9931618,17.0966806 33.1933651,17.298827 32.0390625,17.515625 C31.1835895,17.6796883 30.5288109,17.8715809 30.074707,18.0913086 C29.6206032,18.3110363 29.2675794,18.6274393 29.015625,19.0405273 C28.7636706,19.4536153 28.6376953,19.9238255 28.6376953,20.4511719 C28.6376953,21.2480509 28.914548,21.907224 29.4682617,22.4287109 C30.0219754,22.9501979 30.7792921,23.2109375 31.7402344,23.2109375 C32.285159,23.2109375 32.7978492,23.1083995 33.2783203,22.9033203 C33.7587915,22.6982412 34.2099588,22.3906271 34.6318359,21.9804688 C34.6494142,22.027344 34.6787107,22.1240227 34.7197266,22.2705078 C34.813477,22.592775 34.8925778,22.8359367 34.9570312,23 L34.9570312,23 L37.4003906,23 C37.1835927,22.5546853 37.0356449,22.137209 36.956543,21.7475586 C36.877441,21.3579082 36.8378906,20.7529338 36.8378906,19.9326172 L36.8378906,19.9326172 L36.8642578,17.0498047 C36.8642578,15.9775337 36.7543956,15.2407247 36.534668,14.8393555 C36.3149403,14.4379863 35.9355496,14.1069349 35.3964844,13.8461914 C34.8574192,13.5854479 34.0371149,13.4550781 32.9355469,13.4550781 Z M26.7568359,10.1152344 L24.2871094,10.1152344 L24.2871094,23 L26.7568359,23 L26.7568359,10.1152344 Z M34.4384766,18.5175781 L34.4384766,19.0097656 C34.4384766,19.6015655 34.4062503,20.0029286 34.3417969,20.2138672 C34.2480464,20.5361344 34.0517593,20.8085926 33.7529297,21.03125 C33.3486308,21.3242202 32.9238304,21.4707031 32.4785156,21.4707031 C32.0800761,21.4707031 31.7519544,21.3447278 31.4941406,21.0927734 C31.2363268,20.8408191 31.1074219,20.5419939 31.1074219,20.1962891 C31.1074219,19.8447248 31.2685531,19.5546886 31.5908203,19.3261719 C31.8017589,19.1855462 32.2499966,19.0419929 32.9355469,18.8955078 C33.6210972,18.7490227 34.1220687,18.6230474 34.4384766,18.5175781 L34.4384766,18.5175781 Z M17.765625,15.40625 C18.345706,15.40625 18.8320293,15.6435523 19.2246094,16.1181641 C19.6171895,16.5927758 19.8134766,17.319331 19.8134766,18.2978516 C19.8134766,19.3466849 19.6230488,20.1010719 19.2421875,20.5610352 C18.8613262,21.0209984 18.3837919,21.2509766 17.8095703,21.2509766 C17.2119111,21.2509766 16.7050802,21.0004908 16.2890625,20.4995117 C15.8730448,19.9985327 15.6650391,19.2236381 15.6650391,18.1748047 C15.6650391,17.2607376 15.8642558,16.5708031 16.2626953,16.1049805 C16.6611348,15.6391578 17.1621064,15.40625 17.765625,15.40625 Z"></path>
    </g>
</svg>
