<?xml version="1.0" encoding="UTF-8"?>
<svg width="34px" height="34px" viewBox="0 0 34 34" version="1.1" xmlns="http://www.w3.org/2000/svg" xmlns:xlink="http://www.w3.org/1999/xlink">
    <title>MoveRight</title>
    <g fill="#80848A" stroke="none" stroke-width="1" fill-rule="evenodd">
        <path d="M29,0 C31.7614237,-5.07265313e-16 34,2.23857625 34,5 L34,29 C34,31.7614237 31.7614237,34 29,34 L5,34 C2.23857625,34 2.11453371e-15,31.7614237 0,29 L0,5 C-3.38176876e-16,2.23857625 2.23857625,2.28362215e-15 5,0 L29,0 Z M27,4 L7,4 C5.34314575,4 4,5.34314575 4,7 L4,7 L4,27 C4,28.6568542 5.34314575,30 7,30 L7,30 L27,30 C28.6568542,30 30,28.6568542 30,27 L30,27 L30,7 C30,5.34314575 28.6568542,4 27,4 L27,4 Z"></path>
        <polygon fill-rule="nonzero" points="12 10.3023256 18.9019608 17 12 23.6976744 14.372549 26 23.6470588 17 14.372549 8"></polygon>
    </g>
</svg>
