<?xml version="1.0" encoding="UTF-8"?>
<svg width="300px" height="50px" viewBox="0 0 300 50" version="1.1" xmlns="http://www.w3.org/2000/svg" xmlns:xlink="http://www.w3.org/1999/xlink">
    <title>New</title>
    <g id="Page-1" stroke="none" stroke-width="1" fill="none" fill-rule="evenodd">
        <g id="New">
            <path d="M8,0 L292,0 C296.418278,-8.11624501e-16 300,3.581722 300,8 L300,50 L0,50 L0,8 C-5.41083001e-16,3.581722 3.581722,8.11624501e-16 8,0 Z" id="Background" fill="#FFFFFF"></path>
            <path d="M1,49.5 L299,49.5" id="Line" stroke="#DBDBDB" stroke-linecap="square"></path>
            <path d="M57.421875,27.3369141 L59.9003906,26.9589844 C60.0058599,27.4394555 60.219725,27.804198 60.5419922,28.0532227 C60.8642594,28.3022473 61.3154268,28.4267578 61.8955078,28.4267578 C62.5341829,28.4267578 63.0146468,28.3095715 63.3369141,28.0751953 C63.553712,27.911132 63.6621094,27.6914076 63.6621094,27.4160156 C63.6621094,27.2285147 63.6035162,27.0732428 63.4863281,26.9501953 C63.3632806,26.8330072 63.0878928,26.7246099 62.6601562,26.625 C60.6679588,26.1855447 59.4052761,25.7841815 58.8720703,25.4208984 C58.1337854,24.9169897 57.7646484,24.2168014 57.7646484,23.3203125 C57.7646484,22.5117147 58.0839812,21.832034 58.7226562,21.28125 C59.3613313,20.730466 60.3515558,20.4550781 61.6933594,20.4550781 C62.9707095,20.4550781 63.9199188,20.6630839 64.5410156,21.0791016 C65.1621125,21.4951193 65.5898426,22.1103475 65.8242188,22.9248047 L63.4951172,23.3554688 C63.3955073,22.9921857 63.2065444,22.7138682 62.9282227,22.5205078 C62.649901,22.3271475 62.2529323,22.2304688 61.7373047,22.2304688 C61.0869108,22.2304688 60.6210952,22.3212882 60.3398438,22.5029297 C60.1523428,22.6318366 60.0585938,22.7988271 60.0585938,23.0039062 C60.0585938,23.1796884 60.1406242,23.3291009 60.3046875,23.4521484 C60.5273449,23.6162118 61.2963801,23.8476548 62.6118164,24.1464844 C63.9272527,24.445314 64.8457005,24.8115213 65.3671875,25.2451172 C65.8828151,25.6845725 66.140625,26.2968711 66.140625,27.0820312 C66.140625,27.9375043 65.7832067,28.6728485 65.0683594,29.2880859 C64.3535121,29.9033234 63.2959054,30.2109375 61.8955078,30.2109375 C60.6240171,30.2109375 59.6176795,29.9531276 58.8764648,29.4375 C58.1352502,28.9218724 57.6503918,28.2216841 57.421875,27.3369141 Z M72.5830078,20.6660156 L72.5830078,22.6347656 L70.8955078,22.6347656 L70.8955078,26.3964844 C70.8955078,27.1582069 70.9116209,27.6020502 70.9438477,27.7280273 C70.9760744,27.8540045 71.0493158,27.9580074 71.1635742,28.0400391 C71.2778326,28.1220707 71.4169914,28.1630859 71.5810547,28.1630859 C71.8095715,28.1630859 72.1406228,28.0839852 72.5742188,27.9257812 L72.7851562,29.8417969 C72.2109346,30.0878919 71.5605505,30.2109375 70.8339844,30.2109375 C70.3886696,30.2109375 69.9873065,30.1362312 69.6298828,29.9868164 C69.2724592,29.8374016 69.0102547,29.6440442 68.8432617,29.4067383 C68.6762687,29.1694324 68.5605472,28.8486348 68.4960938,28.4443359 C68.4433591,28.1572251 68.4169922,27.5771528 68.4169922,26.7041016 L68.4169922,22.6347656 L67.2832031,22.6347656 L67.2832031,20.6660156 L68.4169922,20.6660156 L68.4169922,18.8115234 L70.8955078,17.3701172 L70.8955078,20.6660156 L72.5830078,20.6660156 Z M76.1425781,23.5136719 L73.9013672,23.109375 C74.1533216,22.2070267 74.586911,21.5390647 75.2021484,21.1054688 C75.8173859,20.6718728 76.7314392,20.4550781 77.9443359,20.4550781 C79.0459039,20.4550781 79.8662082,20.5854479 80.4052734,20.8461914 C80.9443386,21.1069349 81.3237294,21.4379863 81.543457,21.8393555 C81.7631847,22.2407247 81.8730469,22.9775337 81.8730469,24.0498047 L81.8466797,26.9326172 C81.8466797,27.7529338 81.8862301,28.3579082 81.965332,28.7475586 C82.044434,29.137209 82.1923817,29.5546853 82.4091797,30 L79.9658203,30 C79.9013669,29.8359367 79.8222661,29.592775 79.7285156,29.2705078 C79.6874998,29.1240227 79.6582032,29.027344 79.640625,28.9804688 C79.2187479,29.3906271 78.7675805,29.6982412 78.2871094,29.9033203 C77.8066382,30.1083995 77.293948,30.2109375 76.7490234,30.2109375 C75.7880811,30.2109375 75.0307645,29.9501979 74.4770508,29.4287109 C73.9233371,28.907224 73.6464844,28.2480509 73.6464844,27.4511719 C73.6464844,26.9238255 73.7724597,26.4536153 74.0244141,26.0405273 C74.2763684,25.6274393 74.6293923,25.3110363 75.0834961,25.0913086 C75.5375999,24.8715809 76.1923785,24.6796883 77.0478516,24.515625 C78.2021542,24.298827 79.0019509,24.0966806 79.4472656,23.9091797 L79.4472656,23.6630859 C79.4472656,23.1884742 79.3300793,22.8500987 79.0957031,22.6479492 C78.861327,22.4457998 78.4189486,22.3447266 77.7685547,22.3447266 C77.3290994,22.3447266 76.9863294,22.4311515 76.7402344,22.6040039 C76.4941394,22.7768563 76.2949226,23.080076 76.1425781,23.5136719 Z M79.4472656,25.5175781 C79.1308578,25.6230474 78.6298862,25.7490227 77.9443359,25.8955078 C77.2587856,26.0419929 76.8105479,26.1855462 76.5996094,26.3261719 C76.2773421,26.5546886 76.1162109,26.8447248 76.1162109,27.1962891 C76.1162109,27.5419939 76.2451159,27.8408191 76.5029297,28.0927734 C76.7607435,28.3447278 77.0888652,28.4707031 77.4873047,28.4707031 C77.9326194,28.4707031 78.3574199,28.3242202 78.7617188,28.03125 C79.0605484,27.8085926 79.2568355,27.5361344 79.3505859,27.2138672 C79.4150394,27.0029286 79.4472656,26.6015655 79.4472656,26.0097656 L79.4472656,25.5175781 Z M86.671875,30 L84.2021484,30 L84.2021484,20.6660156 L86.4960938,20.6660156 L86.4960938,21.9931641 C86.8886738,21.3662078 87.2416977,20.953126 87.5551758,20.7539062 C87.8686539,20.5546865 88.2246074,20.4550781 88.6230469,20.4550781 C89.1855497,20.4550781 89.7275365,20.61035 90.2490234,20.9208984 L89.484375,23.0742188 C89.0683573,22.8046862 88.6816424,22.6699219 88.3242188,22.6699219 C87.9785139,22.6699219 87.6855481,22.7651358 87.4453125,22.9555664 C87.2050769,23.145997 87.016114,23.4902319 86.878418,23.9882812 C86.740722,24.4863306 86.671875,25.5292889 86.671875,27.1171875 L86.671875,30 Z M95.5927734,20.6660156 L95.5927734,22.6347656 L93.9052734,22.6347656 L93.9052734,26.3964844 C93.9052734,27.1582069 93.9213866,27.6020502 93.9536133,27.7280273 C93.98584,27.8540045 94.0590815,27.9580074 94.1733398,28.0400391 C94.2875982,28.1220707 94.426757,28.1630859 94.5908203,28.1630859 C94.8193371,28.1630859 95.1503885,28.0839852 95.5839844,27.9257812 L95.7949219,29.8417969 C95.2207003,30.0878919 94.5703161,30.2109375 93.84375,30.2109375 C93.3984353,30.2109375 92.9970721,30.1362312 92.6396484,29.9868164 C92.2822248,29.8374016 92.0200204,29.6440442 91.8530273,29.4067383 C91.6860343,29.1694324 91.5703128,28.8486348 91.5058594,28.4443359 C91.4531247,28.1572251 91.4267578,27.5771528 91.4267578,26.7041016 L91.4267578,22.6347656 L90.2929688,22.6347656 L90.2929688,20.6660156 L91.4267578,20.6660156 L91.4267578,18.8115234 L93.9052734,17.3701172 L93.9052734,20.6660156 L95.5927734,20.6660156 Z M104.15332,23.5136719 L101.912109,23.109375 C102.164064,22.2070267 102.597653,21.5390647 103.212891,21.1054688 C103.828128,20.6718728 104.742181,20.4550781 105.955078,20.4550781 C107.056646,20.4550781 107.87695,20.5854479 108.416016,20.8461914 C108.955081,21.1069349 109.334472,21.4379863 109.554199,21.8393555 C109.773927,22.2407247 109.883789,22.9775337 109.883789,24.0498047 L109.857422,26.9326172 C109.857422,27.7529338 109.896972,28.3579082 109.976074,28.7475586 C110.055176,29.137209 110.203124,29.5546853 110.419922,30 L107.976562,30 C107.912109,29.8359367 107.833008,29.592775 107.739258,29.2705078 C107.698242,29.1240227 107.668945,29.027344 107.651367,28.9804688 C107.22949,29.3906271 106.778323,29.6982412 106.297852,29.9033203 C105.81738,30.1083995 105.30469,30.2109375 104.759766,30.2109375 C103.798823,30.2109375 103.041507,29.9501979 102.487793,29.4287109 C101.934079,28.907224 101.657227,28.2480509 101.657227,27.4511719 C101.657227,26.9238255 101.783202,26.4536153 102.035156,26.0405273 C102.287111,25.6274393 102.640134,25.3110363 103.094238,25.0913086 C103.548342,24.8715809 104.203121,24.6796883 105.058594,24.515625 C106.212896,24.298827 107.012693,24.0966806 107.458008,23.9091797 L107.458008,23.6630859 C107.458008,23.1884742 107.340821,22.8500987 107.106445,22.6479492 C106.872069,22.4457998 106.429691,22.3447266 105.779297,22.3447266 C105.339842,22.3447266 104.997072,22.4311515 104.750977,22.6040039 C104.504882,22.7768563 104.305665,23.080076 104.15332,23.5136719 Z M107.458008,25.5175781 C107.1416,25.6230474 106.640628,25.7490227 105.955078,25.8955078 C105.269528,26.0419929 104.82129,26.1855462 104.610352,26.3261719 C104.288084,26.5546886 104.126953,26.8447248 104.126953,27.1962891 C104.126953,27.5419939 104.255858,27.8408191 104.513672,28.0927734 C104.771486,28.3447278 105.099607,28.4707031 105.498047,28.4707031 C105.943362,28.4707031 106.368162,28.3242202 106.772461,28.03125 C107.071291,27.8085926 107.267578,27.5361344 107.361328,27.2138672 C107.425782,27.0029286 107.458008,26.6015655 107.458008,26.0097656 L107.458008,25.5175781 Z M125.80957,30 L123.339844,30 L123.339844,25.2363281 C123.339844,24.2285106 123.28711,23.5766616 123.181641,23.2807617 C123.076171,22.9848618 122.904786,22.7548836 122.66748,22.5908203 C122.430175,22.426757 122.144533,22.3447266 121.810547,22.3447266 C121.38281,22.3447266 120.999025,22.4619129 120.65918,22.6962891 C120.319334,22.9306652 120.086426,23.241209 119.960449,23.6279297 C119.834472,24.0146504 119.771484,24.729487 119.771484,25.7724609 L119.771484,30 L117.301758,30 L117.301758,20.6660156 L119.595703,20.6660156 L119.595703,22.0371094 C120.41016,20.9824166 121.435541,20.4550781 122.671875,20.4550781 C123.2168,20.4550781 123.714841,20.5532217 124.166016,20.7495117 C124.61719,20.9458018 124.958495,21.1962875 125.189941,21.5009766 C125.421388,21.8056656 125.582519,22.1513653 125.67334,22.5380859 C125.764161,22.9248066 125.80957,23.478512 125.80957,24.1992188 L125.80957,30 Z M133.719727,27.0292969 L136.180664,27.4423828 C135.864256,28.3447311 135.36475,29.0317359 134.682129,29.503418 C133.999508,29.9751 133.145513,30.2109375 132.120117,30.2109375 C130.497062,30.2109375 129.295902,29.6806694 128.516602,28.6201172 C127.901364,27.7705036 127.59375,26.6982487 127.59375,25.4033203 C127.59375,23.8564376 127.998043,22.6450239 128.806641,21.769043 C129.615238,20.893062 130.637689,20.4550781 131.874023,20.4550781 C133.262702,20.4550781 134.358394,20.9135696 135.161133,21.8305664 C135.963871,22.7475632 136.347656,24.1523343 136.3125,26.0449219 L130.125,26.0449219 C130.142578,26.7773474 130.341795,27.3471659 130.722656,27.7543945 C131.103518,28.1616231 131.578122,28.3652344 132.146484,28.3652344 C132.533205,28.3652344 132.858397,28.2597667 133.12207,28.0488281 C133.385744,27.8378896 133.58496,27.4980492 133.719727,27.0292969 Z M133.860352,24.5332031 C133.842773,23.8183558 133.658205,23.2749042 133.306641,22.902832 C132.955076,22.5307599 132.527346,22.3447266 132.023438,22.3447266 C131.484372,22.3447266 131.039064,22.5410137 130.6875,22.9335938 C130.335936,23.3261738 130.163086,23.8593716 130.168945,24.5332031 L133.860352,24.5332031 Z M140.06543,30 L137.112305,20.6660156 L139.511719,20.6660156 L141.260742,26.7832031 L142.869141,20.6660156 L145.250977,20.6660156 L146.806641,26.7832031 L148.59082,20.6660156 L151.025391,20.6660156 L148.02832,30 L145.655273,30 L144.046875,23.9970703 L142.464844,30 L140.06543,30 Z M157.256836,20.6660156 L159.55957,20.6660156 L159.55957,22.0371094 C159.8584,21.568357 160.262693,21.1875015 160.772461,20.8945312 C161.282229,20.601561 161.847653,20.4550781 162.46875,20.4550781 C163.55274,20.4550781 164.472652,20.8798786 165.228516,21.7294922 C165.984379,22.5791058 166.362305,23.7626877 166.362305,25.2802734 C166.362305,26.838875 165.981449,28.0502886 165.219727,28.9145508 C164.458004,29.7788129 163.535162,30.2109375 162.451172,30.2109375 C161.935544,30.2109375 161.468264,30.1083995 161.049316,29.9033203 C160.630369,29.6982412 160.189455,29.3466822 159.726562,28.8486328 L159.726562,33.5507812 L157.256836,33.5507812 L157.256836,20.6660156 Z M159.700195,25.1748047 C159.700195,26.2236381 159.908201,26.9985327 160.324219,27.4995117 C160.740236,28.0004908 161.247067,28.2509766 161.844727,28.2509766 C162.418948,28.2509766 162.896482,28.0209984 163.277344,27.5610352 C163.658205,27.1010719 163.848633,26.3466849 163.848633,25.2978516 C163.848633,24.319331 163.652346,23.5927758 163.259766,23.1181641 C162.867186,22.6435523 162.380862,22.40625 161.800781,22.40625 C161.197263,22.40625 160.696291,22.6391578 160.297852,23.1049805 C159.899412,23.5708031 159.700195,24.2607376 159.700195,25.1748047 Z M170.686523,30 L168.216797,30 L168.216797,20.6660156 L170.510742,20.6660156 L170.510742,21.9931641 C170.903322,21.3662078 171.256346,20.953126 171.569824,20.7539062 C171.883302,20.5546865 172.239256,20.4550781 172.637695,20.4550781 C173.200198,20.4550781 173.742185,20.61035 174.263672,20.9208984 L173.499023,23.0742188 C173.083006,22.8046862 172.696291,22.6699219 172.338867,22.6699219 C171.993162,22.6699219 171.700197,22.7651358 171.459961,22.9555664 C171.219725,23.145997 171.030762,23.4902319 170.893066,23.9882812 C170.75537,24.4863306 170.686523,25.5292889 170.686523,27.1171875 L170.686523,30 Z M180.732422,27.0292969 L183.193359,27.4423828 C182.876952,28.3447311 182.377445,29.0317359 181.694824,29.503418 C181.012204,29.9751 180.158208,30.2109375 179.132812,30.2109375 C177.509758,30.2109375 176.308598,29.6806694 175.529297,28.6201172 C174.914059,27.7705036 174.606445,26.6982487 174.606445,25.4033203 C174.606445,23.8564376 175.010738,22.6450239 175.819336,21.769043 C176.627934,20.893062 177.650384,20.4550781 178.886719,20.4550781 C180.275398,20.4550781 181.37109,20.9135696 182.173828,21.8305664 C182.976567,22.7475632 183.360352,24.1523343 183.325195,26.0449219 L177.137695,26.0449219 C177.155274,26.7773474 177.35449,27.3471659 177.735352,27.7543945 C178.116213,28.1616231 178.590817,28.3652344 179.15918,28.3652344 C179.5459,28.3652344 179.871092,28.2597667 180.134766,28.0488281 C180.398439,27.8378896 180.597656,27.4980492 180.732422,27.0292969 Z M180.873047,24.5332031 C180.855469,23.8183558 180.6709,23.2749042 180.319336,22.902832 C179.967772,22.5307599 179.540042,22.3447266 179.036133,22.3447266 C178.497068,22.3447266 178.05176,22.5410137 177.700195,22.9335938 C177.348631,23.3261738 177.175781,23.8593716 177.181641,24.5332031 L180.873047,24.5332031 Z M184.467773,27.3369141 L186.946289,26.9589844 C187.051758,27.4394555 187.265623,27.804198 187.587891,28.0532227 C187.910158,28.3022473 188.361325,28.4267578 188.941406,28.4267578 C189.580081,28.4267578 190.060545,28.3095715 190.382812,28.0751953 C190.59961,27.911132 190.708008,27.6914076 190.708008,27.4160156 C190.708008,27.2285147 190.649415,27.0732428 190.532227,26.9501953 C190.409179,26.8330072 190.133791,26.7246099 189.706055,26.625 C187.713857,26.1855447 186.451175,25.7841815 185.917969,25.4208984 C185.179684,24.9169897 184.810547,24.2168014 184.810547,23.3203125 C184.810547,22.5117147 185.12988,21.832034 185.768555,21.28125 C186.40723,20.730466 187.397454,20.4550781 188.739258,20.4550781 C190.016608,20.4550781 190.965817,20.6630839 191.586914,21.0791016 C192.208011,21.4951193 192.635741,22.1103475 192.870117,22.9248047 L190.541016,23.3554688 C190.441406,22.9921857 190.252443,22.7138682 189.974121,22.5205078 C189.695799,22.3271475 189.298831,22.2304688 188.783203,22.2304688 C188.132809,22.2304688 187.666994,22.3212882 187.385742,22.5029297 C187.198241,22.6318366 187.104492,22.7988271 187.104492,23.0039062 C187.104492,23.1796884 187.186523,23.3291009 187.350586,23.4521484 C187.573243,23.6162118 188.342279,23.8476548 189.657715,24.1464844 C190.973151,24.445314 191.891599,24.8115213 192.413086,25.2451172 C192.928714,25.6845725 193.186523,26.2968711 193.186523,27.0820312 C193.186523,27.9375043 192.829105,28.6728485 192.114258,29.2880859 C191.39941,29.9033234 190.341804,30.2109375 188.941406,30.2109375 C187.669916,30.2109375 186.663578,29.9531276 185.922363,29.4375 C185.181149,28.9218724 184.69629,28.2216841 184.467773,27.3369141 Z M200.753906,27.0292969 L203.214844,27.4423828 C202.898436,28.3447311 202.398929,29.0317359 201.716309,29.503418 C201.033688,29.9751 200.179693,30.2109375 199.154297,30.2109375 C197.531242,30.2109375 196.330082,29.6806694 195.550781,28.6201172 C194.935544,27.7705036 194.62793,26.6982487 194.62793,25.4033203 C194.62793,23.8564376 195.032223,22.6450239 195.84082,21.769043 C196.649418,20.893062 197.671869,20.4550781 198.908203,20.4550781 C200.296882,20.4550781 201.392574,20.9135696 202.195312,21.8305664 C202.998051,22.7475632 203.381836,24.1523343 203.34668,26.0449219 L197.15918,26.0449219 C197.176758,26.7773474 197.375975,27.3471659 197.756836,27.7543945 C198.137697,28.1616231 198.612302,28.3652344 199.180664,28.3652344 C199.567385,28.3652344 199.892577,28.2597667 200.15625,28.0488281 C200.419923,27.8378896 200.61914,27.4980492 200.753906,27.0292969 Z M200.894531,24.5332031 C200.876953,23.8183558 200.692385,23.2749042 200.34082,22.902832 C199.989256,22.5307599 199.561526,22.3447266 199.057617,22.3447266 C198.518552,22.3447266 198.073244,22.5410137 197.72168,22.9335938 C197.370115,23.3261738 197.197266,23.8593716 197.203125,24.5332031 L200.894531,24.5332031 Z M209.639648,20.6660156 L209.639648,22.6347656 L207.952148,22.6347656 L207.952148,26.3964844 C207.952148,27.1582069 207.968262,27.6020502 208.000488,27.7280273 C208.032715,27.8540045 208.105956,27.9580074 208.220215,28.0400391 C208.334473,28.1220707 208.473632,28.1630859 208.637695,28.1630859 C208.866212,28.1630859 209.197263,28.0839852 209.630859,27.9257812 L209.841797,29.8417969 C209.267575,30.0878919 208.617191,30.2109375 207.890625,30.2109375 C207.44531,30.2109375 207.043947,30.1362312 206.686523,29.9868164 C206.3291,29.8374016 206.066895,29.6440442 205.899902,29.4067383 C205.732909,29.1694324 205.617188,28.8486348 205.552734,28.4443359 C205.5,28.1572251 205.473633,27.5771528 205.473633,26.7041016 L205.473633,22.6347656 L204.339844,22.6347656 L204.339844,20.6660156 L205.473633,20.6660156 L205.473633,18.8115234 L207.952148,17.3701172 L207.952148,20.6660156 L209.639648,20.6660156 Z" id="startanewpreset" fill="#424242" fill-rule="nonzero"></path>
            <polygon id="NewIcon" fill="#00A8E8" fill-rule="nonzero" points="39 23.5052632 30.4947368 23.5052632 30.4947368 15 27.5052632 15 27.5052632 23.5052632 19 23.5052632 19 26.4947368 27.5052632 26.4947368 27.5052632 35 30.4947368 35 30.4947368 26.4947368 39 26.4947368"></polygon>
        </g>
    </g>
</svg>
