<?xml version="1.0" encoding="UTF-8"?>
<svg width="34px" height="34px" viewBox="0 0 34 34" version="1.1" xmlns="http://www.w3.org/2000/svg" xmlns:xlink="http://www.w3.org/1999/xlink">
    <title>NewTag</title>
    <g id="Page-1" stroke="none" stroke-width="1" fill="none" fill-rule="evenodd">
        <path d="M29,0 C31.7614237,-5.07265313e-16 34,2.23857625 34,5 L34,29 C34,31.7614237 31.7614237,34 29,34 L5,34 C2.23857625,34 2.11453371e-15,31.7614237 0,29 L0,5 C-3.38176876e-16,2.23857625 2.23857625,2.28362215e-15 5,0 L29,0 Z M19.4161611,7 L14.5842526,7 L14.5838182,14.5839907 L7,14.5839907 L7,19.4160093 L14.5842629,19.4160093 L14.5838285,27 L19.4157371,27 L19.4157371,19.4160093 L27,19.4160093 L27,14.5839907 L19.4161611,14.5839907 L19.4161611,7 Z" id="NewTag" fill="#80848A"></path>
    </g>
</svg>