<?xml version="1.0" encoding="UTF-8"?>
<svg width="34px" height="34px" viewBox="0 0 34 34" version="1.1" xmlns="http://www.w3.org/2000/svg" xmlns:xlink="http://www.w3.org/1999/xlink">
    <title>Power</title>
    <g stroke="none" stroke-width="1" fill="none" fill-rule="evenodd">
        <path fill="#747980" d="M17,0 C26.3888407,0 34,7.61115925 34,17 C34,26.3888407 26.3888407,34 17,34 C7.61115925,34 0,26.3888407 0,17 C0,7.61115925 7.61115925,0 17,0 Z M23.875,8.44444444 C23.1416667,7.86388889 22.1027778,7.98611111 21.5222222,8.68888889 C20.9416667,9.42222222 21.0638889,10.4611111 21.7666667,11.0416667 C23.5694444,12.5083333 24.6083333,14.6777778 24.6083333,17 C24.6083333,21.2166667 21.1861111,24.6388889 16.9694444,24.6388889 C12.7527778,24.6388889 9.33055556,21.2166667 9.33055556,17 C9.33055556,14.8 10.2777778,12.6916667 11.9583333,11.225 C12.6611111,10.6138889 12.7222222,9.54444444 12.1416667,8.84166667 C11.5305556,8.13888889 10.4611111,8.07777778 9.75833333,8.65833333 C7.40555556,10.7972222 6,13.8222222 6,17 C6,23.05 10.9194444,28 17,28 C23.0805556,28 28,23.0805556 28,17 C28,13.6694444 26.5027778,10.5527778 23.875,8.44444444 Z M17,6 C16.0833333,6 15.3194444,6.76388889 15.3194444,7.68055556 L15.3194444,7.68055556 L15.3194444,17.0305556 L15.3257035,17.1782638 C15.400277,18.0529394 16.1315789,18.7111111 17,18.7111111 C17.9166667,18.7111111 18.6805556,17.9472222 18.6805556,17.0305556 L18.6805556,17.0305556 L18.6805556,7.68055556 L18.6742965,7.53717743 C18.599723,6.68559557 17.8684211,6 17,6 Z"></path>
    </g>
</svg>
