<?xml version="1.0" encoding="UTF-8"?>
<svg width="34px" height="34px" viewBox="0 0 34 34" version="1.1" xmlns="http://www.w3.org/2000/svg" xmlns:xlink="http://www.w3.org/1999/xlink">
    <title>PowerON</title>
    <g stroke="none" stroke-width="1" fill="none" fill-rule="evenodd">
        <path id="PowerON" fill="#00A8E8" fill-rule="nonzero" d="M23.9888889,4.15555556 C24.8861111,3.06944444 26.4916667,2.88055556 27.625,3.77777778 C31.6861111,7.03611111 34,11.8527778 34,17 C34,26.3972222 26.3972222,34 17,34 C7.60277778,34 0,26.35 0,17 C0,12.0888889 2.17222222,7.41388889 5.80833333,4.10833333 C6.89444444,3.21111111 8.54722222,3.30555556 9.49166667,4.39166667 C10.3888889,5.47777778 10.2944444,7.13055556 9.20833333,8.075 C6.61111111,10.3416667 5.14722222,13.6 5.14722222,17 C5.14722222,23.5166667 10.4361111,28.8055556 16.9527778,28.8055556 C23.4694444,28.8055556 28.7583333,23.5166667 28.7583333,17 C28.7583333,13.4111111 27.1527778,10.0583333 24.3666667,7.79166667 C23.2805556,6.89444444 23.0916667,5.28888889 23.9888889,4.15555556 Z M17,0 C18.4166667,0 19.5972222,1.18055556 19.5972222,2.59722222 L19.5972222,2.59722222 L19.5972222,17.0472222 C19.5972222,18.4638889 18.4166667,19.6444444 17,19.6444444 C15.5833333,19.6444444 14.4027778,18.5111111 14.4027778,17.0472222 L14.4027778,17.0472222 L14.4027778,2.59722222 C14.4027778,1.18055556 15.5833333,0 17,0 Z"></path>
    </g>
</svg>
