<?xml version="1.0" encoding="UTF-8"?>
<svg width="120px" height="34px" viewBox="0 0 120 34" version="1.1" xmlns="http://www.w3.org/2000/svg" xmlns:xlink="http://www.w3.org/1999/xlink">
    <title>Presets</title>
    <g stroke="none" stroke-width="1" fill="none" fill-rule="evenodd">
        <rect fill="#8E959E" x="0" y="0" width="120" height="34" rx="5"></rect>
        <path fill="#FFFFFF" fill-rule="nonzero" d="M29.703125,13.6660156 L32.0058594,13.6660156 L32.0058594,15.0371094 C32.304689,14.568357 32.7089818,14.1875015 33.21875,13.8945312 C33.7285182,13.601561 34.2939422,13.4550781 34.9150391,13.4550781 C35.9990289,13.4550781 36.9189415,13.8798786 37.6748047,14.7294922 C38.4306678,15.5791058 38.8085938,16.7626877 38.8085938,18.2802734 C38.8085938,19.838875 38.4277382,21.0502886 37.6660156,21.9145508 C36.9042931,22.7788129 35.9814507,23.2109375 34.8974609,23.2109375 C34.3818334,23.2109375 33.9145529,23.1083995 33.4956055,22.9033203 C33.0766581,22.6982412 32.6357445,22.3466822 32.1728516,21.8486328 L32.1728516,26.5507812 L29.703125,26.5507812 L29.703125,13.6660156 Z M32.1464844,18.1748047 C32.1464844,19.2236381 32.3544901,19.9985327 32.7705078,20.4995117 C33.1865255,21.0004908 33.6933564,21.2509766 34.2910156,21.2509766 C34.8652372,21.2509766 35.3427715,21.0209984 35.7236328,20.5610352 C36.1044941,20.1010719 36.2949219,19.3466849 36.2949219,18.2978516 C36.2949219,17.319331 36.0986348,16.5927758 35.7060547,16.1181641 C35.3134746,15.6435523 34.8271513,15.40625 34.2470703,15.40625 C33.6435517,15.40625 33.1425801,15.6391578 32.7441406,16.1049805 C32.3457011,16.5708031 32.1464844,17.2607376 32.1464844,18.1748047 Z M43.1328125,23 L40.6630859,23 L40.6630859,13.6660156 L42.9570312,13.6660156 L42.9570312,14.9931641 C43.3496113,14.3662078 43.7026352,13.953126 44.0161133,13.7539062 C44.3295914,13.5546865 44.6855449,13.4550781 45.0839844,13.4550781 C45.6464872,13.4550781 46.188474,13.61035 46.7099609,13.9208984 L45.9453125,16.0742188 C45.5292948,15.8046862 45.1425799,15.6699219 44.7851562,15.6699219 C44.4394514,15.6699219 44.1464856,15.7651358 43.90625,15.9555664 C43.6660144,16.145997 43.4770515,16.4902319 43.3393555,16.9882812 C43.2016595,17.4863306 43.1328125,18.5292889 43.1328125,20.1171875 L43.1328125,23 Z M53.1787109,20.0292969 L55.6396484,20.4423828 C55.3232406,21.3447311 54.8237339,22.0317359 54.1411133,22.503418 C53.4584927,22.9751 52.6044973,23.2109375 51.5791016,23.2109375 C49.9560466,23.2109375 48.7548867,22.6806694 47.9755859,21.6201172 C47.3603485,20.7705036 47.0527344,19.6982487 47.0527344,18.4033203 C47.0527344,16.8564376 47.4570272,15.6450239 48.265625,14.769043 C49.0742228,13.893062 50.0966735,13.4550781 51.3330078,13.4550781 C52.7216866,13.4550781 53.8173788,13.9135696 54.6201172,14.8305664 C55.4228556,15.7475632 55.8066408,17.1523343 55.7714844,19.0449219 L49.5839844,19.0449219 C49.6015626,19.7773474 49.8007793,20.3471659 50.1816406,20.7543945 C50.5625019,21.1616231 51.0371065,21.3652344 51.6054688,21.3652344 C51.9921894,21.3652344 52.3173815,21.2597667 52.5810547,21.0488281 C52.8447279,20.8378896 53.0439446,20.4980492 53.1787109,20.0292969 Z M53.3193359,17.5332031 C53.3017577,16.8183558 53.1171893,16.2749042 52.765625,15.902832 C52.4140607,15.5307599 51.9863306,15.3447266 51.4824219,15.3447266 C50.9433567,15.3447266 50.4980486,15.5410137 50.1464844,15.9335938 C49.7949201,16.3261738 49.6220703,16.8593716 49.6279297,17.5332031 L53.3193359,17.5332031 Z M56.9140625,20.3369141 L59.3925781,19.9589844 C59.4980474,20.4394555 59.7119125,20.804198 60.0341797,21.0532227 C60.3564469,21.3022473 60.8076143,21.4267578 61.3876953,21.4267578 C62.0263704,21.4267578 62.5068343,21.3095715 62.8291016,21.0751953 C63.0458995,20.911132 63.1542969,20.6914076 63.1542969,20.4160156 C63.1542969,20.2285147 63.0957037,20.0732428 62.9785156,19.9501953 C62.8554681,19.8330072 62.5800803,19.7246099 62.1523438,19.625 C60.1601463,19.1855447 58.8974636,18.7841815 58.3642578,18.4208984 C57.6259729,17.9169897 57.2568359,17.2168014 57.2568359,16.3203125 C57.2568359,15.5117147 57.5761687,14.832034 58.2148438,14.28125 C58.8535188,13.730466 59.8437433,13.4550781 61.1855469,13.4550781 C62.462897,13.4550781 63.4121063,13.6630839 64.0332031,14.0791016 C64.6543,14.4951193 65.0820301,15.1103475 65.3164062,15.9248047 L62.9873047,16.3554688 C62.8876948,15.9921857 62.6987319,15.7138682 62.4204102,15.5205078 C62.1420885,15.3271475 61.7451198,15.2304688 61.2294922,15.2304688 C60.5790983,15.2304688 60.1132827,15.3212882 59.8320312,15.5029297 C59.6445303,15.6318366 59.5507812,15.7988271 59.5507812,16.0039062 C59.5507812,16.1796884 59.6328117,16.3291009 59.796875,16.4521484 C60.0195324,16.6162118 60.7885676,16.8476548 62.1040039,17.1464844 C63.4194402,17.445314 64.337888,17.8115213 64.859375,18.2451172 C65.3750026,18.6845725 65.6328125,19.2968711 65.6328125,20.0820312 C65.6328125,20.9375043 65.2753942,21.6728485 64.5605469,22.2880859 C63.8456996,22.9033234 62.7880929,23.2109375 61.3876953,23.2109375 C60.1162046,23.2109375 59.109867,22.9531276 58.3686523,22.4375 C57.6274377,21.9218724 57.1425793,21.2216841 56.9140625,20.3369141 Z M73.2001953,20.0292969 L75.6611328,20.4423828 C75.344725,21.3447311 74.8452183,22.0317359 74.1625977,22.503418 C73.4799771,22.9751 72.6259817,23.2109375 71.6005859,23.2109375 C69.9775309,23.2109375 68.7763711,22.6806694 67.9970703,21.6201172 C67.3818329,20.7705036 67.0742188,19.6982487 67.0742188,18.4033203 C67.0742188,16.8564376 67.4785116,15.6450239 68.2871094,14.769043 C69.0957072,13.893062 70.1181579,13.4550781 71.3544922,13.4550781 C72.743171,13.4550781 73.8388632,13.9135696 74.6416016,14.8305664 C75.44434,15.7475632 75.8281252,17.1523343 75.7929688,19.0449219 L69.6054688,19.0449219 C69.623047,19.7773474 69.8222637,20.3471659 70.203125,20.7543945 C70.5839863,21.1616231 71.0585909,21.3652344 71.6269531,21.3652344 C72.0136738,21.3652344 72.3388659,21.2597667 72.6025391,21.0488281 C72.8662123,20.8378896 73.065429,20.4980492 73.2001953,20.0292969 Z M73.3408203,17.5332031 C73.3232421,16.8183558 73.1386736,16.2749042 72.7871094,15.902832 C72.4355451,15.5307599 72.007815,15.3447266 71.5039062,15.3447266 C70.9648411,15.3447266 70.519533,15.5410137 70.1679688,15.9335938 C69.8164045,16.3261738 69.6435547,16.8593716 69.6494141,17.5332031 L73.3408203,17.5332031 Z M82.0859375,13.6660156 L82.0859375,15.6347656 L80.3984375,15.6347656 L80.3984375,19.3964844 C80.3984375,20.1582069 80.4145506,20.6020502 80.4467773,20.7280273 C80.4790041,20.8540045 80.5522455,20.9580074 80.6665039,21.0400391 C80.7807623,21.1220707 80.9199211,21.1630859 81.0839844,21.1630859 C81.3125011,21.1630859 81.6435525,21.0839852 82.0771484,20.9257812 L82.2880859,22.8417969 C81.7138643,23.0878919 81.0634802,23.2109375 80.3369141,23.2109375 C79.8915993,23.2109375 79.4902362,23.1362312 79.1328125,22.9868164 C78.7753888,22.8374016 78.5131844,22.6440442 78.3461914,22.4067383 C78.1791984,22.1694324 78.0634769,21.8486348 77.9990234,21.4443359 C77.9462888,21.1572251 77.9199219,20.5771528 77.9199219,19.7041016 L77.9199219,15.6347656 L76.7861328,15.6347656 L76.7861328,13.6660156 L77.9199219,13.6660156 L77.9199219,11.8115234 L80.3984375,10.3701172 L80.3984375,13.6660156 L82.0859375,13.6660156 Z M82.9296875,20.3369141 L85.4082031,19.9589844 C85.5136724,20.4394555 85.7275375,20.804198 86.0498047,21.0532227 C86.3720719,21.3022473 86.8232393,21.4267578 87.4033203,21.4267578 C88.0419954,21.4267578 88.5224593,21.3095715 88.8447266,21.0751953 C89.0615245,20.911132 89.1699219,20.6914076 89.1699219,20.4160156 C89.1699219,20.2285147 89.1113287,20.0732428 88.9941406,19.9501953 C88.8710931,19.8330072 88.5957053,19.7246099 88.1679688,19.625 C86.1757713,19.1855447 84.9130886,18.7841815 84.3798828,18.4208984 C83.6415979,17.9169897 83.2724609,17.2168014 83.2724609,16.3203125 C83.2724609,15.5117147 83.5917937,14.832034 84.2304688,14.28125 C84.8691438,13.730466 85.8593683,13.4550781 87.2011719,13.4550781 C88.478522,13.4550781 89.4277313,13.6630839 90.0488281,14.0791016 C90.669925,14.4951193 91.0976551,15.1103475 91.3320312,15.9248047 L89.0029297,16.3554688 C88.9033198,15.9921857 88.7143569,15.7138682 88.4360352,15.5205078 C88.1577135,15.3271475 87.7607448,15.2304688 87.2451172,15.2304688 C86.5947233,15.2304688 86.1289077,15.3212882 85.8476562,15.5029297 C85.6601553,15.6318366 85.5664062,15.7988271 85.5664062,16.0039062 C85.5664062,16.1796884 85.6484367,16.3291009 85.8125,16.4521484 C86.0351574,16.6162118 86.8041926,16.8476548 88.1196289,17.1464844 C89.4350652,17.445314 90.353513,17.8115213 90.875,18.2451172 C91.3906276,18.6845725 91.6484375,19.2968711 91.6484375,20.0820312 C91.6484375,20.9375043 91.2910192,21.6728485 90.5761719,22.2880859 C89.8613246,22.9033234 88.8037179,23.2109375 87.4033203,23.2109375 C86.1318296,23.2109375 85.125492,22.9531276 84.3842773,22.4375 C83.6430627,21.9218724 83.1582043,21.2216841 82.9296875,20.3369141 Z"></path>
    </g>
</svg>
