<?xml version="1.0" encoding="UTF-8"?>
<svg width="120px" height="34px" viewBox="0 0 120 34">
    <g fill="#80848A" stroke="none" stroke-width="1" fill-rule="evenodd">
        <path d="M115,0 C117.761424,-5.07265313e-16 120,2.23857625 120,5 L120,29 C120,31.7614237 117.761424,34 115,34 L5,34 C2.23857625,34 3.38176876e-16,31.7614237 0,29 L0,5 C-3.38176876e-16,2.23857625 2.23857625,2.28362215e-15 5,0 L115,0 Z M34.9150391,13.4550781 C34.2939422,13.4550781 33.7285182,13.601561 33.21875,13.8945312 C32.7089818,14.1875015 32.304689,14.568357 32.0058594,15.0371094 L32.0058594,15.0371094 L32.0058594,13.6660156 L29.703125,13.6660156 L29.703125,26.5507812 L32.1728516,26.5507812 L32.1728516,21.8486328 C32.6357445,22.3466822 33.0766581,22.6982412 33.4956055,22.9033203 C33.9145529,23.1083995 34.3818334,23.2109375 34.8974609,23.2109375 C35.9814507,23.2109375 36.9042931,22.7788129 37.6660156,21.9145508 C38.4277382,21.0502886 38.8085938,19.838875 38.8085938,18.2802734 C38.8085938,16.7626877 38.4306678,15.5791058 37.6748047,14.7294922 C36.9189415,13.8798786 35.9990289,13.4550781 34.9150391,13.4550781 Z M51.3330078,13.4550781 C50.0966735,13.4550781 49.0742228,13.893062 48.265625,14.769043 C47.4570272,15.6450239 47.0527344,16.8564376 47.0527344,18.4033203 C47.0527344,19.6982487 47.3603485,20.7705036 47.9755859,21.6201172 C48.7548867,22.6806694 49.9560466,23.2109375 51.5791016,23.2109375 C52.6044973,23.2109375 53.4584927,22.9751 54.1411133,22.503418 C54.8237339,22.0317359 55.3232406,21.3447311 55.6396484,20.4423828 L55.6396484,20.4423828 L53.1787109,20.0292969 C53.0439446,20.4980492 52.8447279,20.8378896 52.5810547,21.0488281 C52.3173815,21.2597667 51.9921894,21.3652344 51.6054688,21.3652344 C51.0371065,21.3652344 50.5625019,21.1616231 50.1816406,20.7543945 C49.8007793,20.3471659 49.6015626,19.7773474 49.5839844,19.0449219 L49.5839844,19.0449219 L55.7714844,19.0449219 C55.8066408,17.1523343 55.4228556,15.7475632 54.6201172,14.8305664 C53.8173788,13.9135696 52.7216866,13.4550781 51.3330078,13.4550781 Z M61.1855469,13.4550781 C59.8437433,13.4550781 58.8535188,13.730466 58.2148438,14.28125 C57.5761687,14.832034 57.2568359,15.5117147 57.2568359,16.3203125 C57.2568359,17.2168014 57.6259729,17.9169897 58.3642578,18.4208984 C58.8974636,18.7841815 60.1601463,19.1855447 62.1523438,19.625 C62.5800803,19.7246099 62.8554681,19.8330072 62.9785156,19.9501953 C63.0957037,20.0732428 63.1542969,20.2285147 63.1542969,20.4160156 C63.1542969,20.6914076 63.0458995,20.911132 62.8291016,21.0751953 C62.5068343,21.3095715 62.0263704,21.4267578 61.3876953,21.4267578 C60.8076143,21.4267578 60.3564469,21.3022473 60.0341797,21.0532227 C59.7119125,20.804198 59.4980474,20.4394555 59.3925781,19.9589844 L59.3925781,19.9589844 L56.9140625,20.3369141 C57.1425793,21.2216841 57.6274377,21.9218724 58.3686523,22.4375 C59.109867,22.9531276 60.1162046,23.2109375 61.3876953,23.2109375 C62.7880929,23.2109375 63.8456996,22.9033234 64.5605469,22.2880859 C65.2753942,21.6728485 65.6328125,20.9375043 65.6328125,20.0820312 C65.6328125,19.2968711 65.3750026,18.6845725 64.859375,18.2451172 C64.337888,17.8115213 63.4194402,17.445314 62.1040039,17.1464844 C60.7885676,16.8476548 60.0195324,16.6162118 59.796875,16.4521484 C59.6328117,16.3291009 59.5507812,16.1796884 59.5507812,16.0039062 C59.5507812,15.7988271 59.6445303,15.6318366 59.8320312,15.5029297 C60.1132827,15.3212882 60.5790983,15.2304688 61.2294922,15.2304688 C61.7451198,15.2304688 62.1420885,15.3271475 62.4204102,15.5205078 C62.6987319,15.7138682 62.8876948,15.9921857 62.9873047,16.3554688 L62.9873047,16.3554688 L65.3164062,15.9248047 C65.0820301,15.1103475 64.6543,14.4951193 64.0332031,14.0791016 C63.4121063,13.6630839 62.462897,13.4550781 61.1855469,13.4550781 Z M71.3544922,13.4550781 C70.1181579,13.4550781 69.0957072,13.893062 68.2871094,14.769043 C67.4785116,15.6450239 67.0742188,16.8564376 67.0742188,18.4033203 C67.0742188,19.6982487 67.3818329,20.7705036 67.9970703,21.6201172 C68.7763711,22.6806694 69.9775309,23.2109375 71.6005859,23.2109375 C72.6259817,23.2109375 73.4799771,22.9751 74.1625977,22.503418 C74.8452183,22.0317359 75.344725,21.3447311 75.6611328,20.4423828 L75.6611328,20.4423828 L73.2001953,20.0292969 C73.065429,20.4980492 72.8662123,20.8378896 72.6025391,21.0488281 C72.3388659,21.2597667 72.0136738,21.3652344 71.6269531,21.3652344 C71.0585909,21.3652344 70.5839863,21.1616231 70.203125,20.7543945 C69.8222637,20.3471659 69.623047,19.7773474 69.6054688,19.0449219 L69.6054688,19.0449219 L75.7929688,19.0449219 C75.8281252,17.1523343 75.44434,15.7475632 74.6416016,14.8305664 C73.8388632,13.9135696 72.743171,13.4550781 71.3544922,13.4550781 Z M80.3984375,10.3701172 L77.9199219,11.8115234 L77.9199219,13.6660156 L76.7861328,13.6660156 L76.7861328,15.6347656 L77.9199219,15.6347656 L77.9199219,19.7041016 C77.9199219,20.5771528 77.9462888,21.1572251 77.9990234,21.4443359 C78.0634769,21.8486348 78.1791984,22.1694324 78.3461914,22.4067383 C78.5131844,22.6440442 78.7753888,22.8374016 79.1328125,22.9868164 C79.4902362,23.1362312 79.8915993,23.2109375 80.3369141,23.2109375 C81.0634802,23.2109375 81.7138643,23.0878919 82.2880859,22.8417969 L82.2880859,22.8417969 L82.0771484,20.9257812 C81.6435525,21.0839852 81.3125011,21.1630859 81.0839844,21.1630859 C80.9199211,21.1630859 80.7807623,21.1220707 80.6665039,21.0400391 C80.5522455,20.9580074 80.4790041,20.8540045 80.4467773,20.7280273 C80.4145506,20.6020502 80.3984375,20.1582069 80.3984375,19.3964844 L80.3984375,15.6347656 L82.0859375,15.6347656 L82.0859375,13.6660156 L80.3984375,13.6660156 L80.3984375,10.3701172 Z M87.2011719,13.4550781 C85.8593683,13.4550781 84.8691438,13.730466 84.2304688,14.28125 C83.5917937,14.832034 83.2724609,15.5117147 83.2724609,16.3203125 C83.2724609,17.2168014 83.6415979,17.9169897 84.3798828,18.4208984 C84.9130886,18.7841815 86.1757713,19.1855447 88.1679688,19.625 C88.5957053,19.7246099 88.8710931,19.8330072 88.9941406,19.9501953 C89.1113287,20.0732428 89.1699219,20.2285147 89.1699219,20.4160156 C89.1699219,20.6914076 89.0615245,20.911132 88.8447266,21.0751953 C88.5224593,21.3095715 88.0419954,21.4267578 87.4033203,21.4267578 C86.8232393,21.4267578 86.3720719,21.3022473 86.0498047,21.0532227 C85.7275375,20.804198 85.5136724,20.4394555 85.4082031,19.9589844 L85.4082031,19.9589844 L82.9296875,20.3369141 C83.1582043,21.2216841 83.6430627,21.9218724 84.3842773,22.4375 C85.125492,22.9531276 86.1318296,23.2109375 87.4033203,23.2109375 C88.8037179,23.2109375 89.8613246,22.9033234 90.5761719,22.2880859 C91.2910192,21.6728485 91.6484375,20.9375043 91.6484375,20.0820312 C91.6484375,19.2968711 91.3906276,18.6845725 90.875,18.2451172 C90.353513,17.8115213 89.4350652,17.445314 88.1196289,17.1464844 C86.8041926,16.8476548 86.0351574,16.6162118 85.8125,16.4521484 C85.6484367,16.3291009 85.5664062,16.1796884 85.5664062,16.0039062 C85.5664062,15.7988271 85.6601553,15.6318366 85.8476562,15.5029297 C86.1289077,15.3212882 86.5947233,15.2304688 87.2451172,15.2304688 C87.7607448,15.2304688 88.1577135,15.3271475 88.4360352,15.5205078 C88.7143569,15.7138682 88.9033198,15.9921857 89.0029297,16.3554688 L89.0029297,16.3554688 L91.3320312,15.9248047 C91.0976551,15.1103475 90.669925,14.4951193 90.0488281,14.0791016 C89.4277313,13.6630839 88.478522,13.4550781 87.2011719,13.4550781 Z M45.0839844,13.4550781 C44.6855449,13.4550781 44.3295914,13.5546865 44.0161133,13.7539062 C43.7026352,13.953126 43.3496113,14.3662078 42.9570312,14.9931641 L42.9570312,14.9931641 L42.9570312,13.6660156 L40.6630859,13.6660156 L40.6630859,23 L43.1328125,23 L43.1328125,20.1171875 C43.1328125,18.5292889 43.2016595,17.4863306 43.3393555,16.9882812 C43.4770515,16.4902319 43.6660144,16.145997 43.90625,15.9555664 C44.1464856,15.7651358 44.4394514,15.6699219 44.7851562,15.6699219 C45.1425799,15.6699219 45.5292948,15.8046862 45.9453125,16.0742188 L45.9453125,16.0742188 L46.7099609,13.9208984 C46.188474,13.61035 45.6464872,13.4550781 45.0839844,13.4550781 Z M34.2470703,15.40625 C34.8271513,15.40625 35.3134746,15.6435523 35.7060547,16.1181641 C36.0986348,16.5927758 36.2949219,17.319331 36.2949219,18.2978516 C36.2949219,19.3466849 36.1044941,20.1010719 35.7236328,20.5610352 C35.3427715,21.0209984 34.8652372,21.2509766 34.2910156,21.2509766 C33.6933564,21.2509766 33.1865255,21.0004908 32.7705078,20.4995117 C32.3544901,19.9985327 32.1464844,19.2236381 32.1464844,18.1748047 C32.1464844,17.2607376 32.3457011,16.5708031 32.7441406,16.1049805 C33.1425801,15.6391578 33.6435517,15.40625 34.2470703,15.40625 Z M51.4824219,15.3447266 C51.9863306,15.3447266 52.4140607,15.5307599 52.765625,15.902832 C53.1171893,16.2749042 53.3017577,16.8183558 53.3193359,17.5332031 L53.3193359,17.5332031 L49.6279297,17.5332031 C49.6220703,16.8593716 49.7949201,16.3261738 50.1464844,15.9335938 C50.4980486,15.5410137 50.9433567,15.3447266 51.4824219,15.3447266 Z M71.5039062,15.3447266 C72.007815,15.3447266 72.4355451,15.5307599 72.7871094,15.902832 C73.1386736,16.2749042 73.3232421,16.8183558 73.3408203,17.5332031 L73.3408203,17.5332031 L69.6494141,17.5332031 C69.6435547,16.8593716 69.8164045,16.3261738 70.1679688,15.9335938 C70.519533,15.5410137 70.9648411,15.3447266 71.5039062,15.3447266 Z"></path>
    </g>
</svg>
