<?xml version="1.0" encoding="UTF-8"?>
<svg width="120px" height="34px" viewBox="0 0 120 34">
    <g stroke="none" stroke-width="1" fill="#1497CA" fill-rule="evenodd">
        <path d="M115,0 C117.761424,-5.07265313e-16 120,2.23857625 120,5 L120,29 C120,31.7614237 117.761424,34 115,34 L5,34 C2.23857625,34 3.38176876e-16,31.7614237 0,29 L0,5 C-3.38176876e-16,2.23857625 2.23857625,2.28362215e-15 5,0 L115,0 Z M39.2763672,20.6367188 C38.5302734,20.6367188 37.90625,20.9121094 37.4042969,21.4628906 C36.9023438,22.0136719 36.6513672,22.8105469 36.6513672,23.8535156 C36.6513672,24.6855469 36.8427734,25.3808594 37.2255859,25.9394531 C37.7138672,26.6464844 38.3759766,27 39.2119141,27 C39.9619141,27 40.5830078,26.6640625 41.0751953,25.9921875 L41.0751953,25.9921875 L41.0751953,26.9003906 C41.0751953,27.2675781 41.0498047,27.5195312 40.9990234,27.65625 C40.9248047,27.8476562 40.8154297,27.9863281 40.6708984,28.0722656 C40.4560547,28.2011719 40.1337891,28.265625 39.7041016,28.265625 C39.3681641,28.265625 39.1220703,28.2070312 38.9658203,28.0898438 C38.8525391,28.0078125 38.7802734,27.8574219 38.7490234,27.6386719 L38.7490234,27.6386719 L36.8681641,27.4101562 C36.8642578,27.4882812 36.8623047,27.5546875 36.8623047,27.609375 C36.8623047,28.1640625 37.0830078,28.6220703 37.5244141,28.9833984 C37.9658203,29.3447266 38.7138672,29.5253906 39.7685547,29.5253906 C40.3271484,29.5253906 40.7890625,29.4667969 41.1542969,29.3496094 C41.5195312,29.2324219 41.8115234,29.0703125 42.0302734,28.8632812 C42.2490234,28.65625 42.4189453,28.3710938 42.5400391,28.0078125 C42.6611328,27.6445312 42.7216797,27.0957031 42.7216797,26.3613281 L42.7216797,26.3613281 L42.7216797,20.7773438 L41.1806641,20.7773438 L41.1806641,21.6503906 C40.6806641,20.9746094 40.0458984,20.6367188 39.2763672,20.6367188 Z M22.4541016,20.6367188 C22.0400391,20.6367188 21.6630859,20.734375 21.3232422,20.9296875 C20.9833984,21.125 20.7138672,21.3789062 20.5146484,21.6914062 L20.5146484,21.6914062 L20.5146484,20.7773438 L18.9794922,20.7773438 L18.9794922,29.3671875 L20.6259766,29.3671875 L20.6259766,26.2324219 C20.9345703,26.5644531 21.2285156,26.7988281 21.5078125,26.9355469 C21.7871094,27.0722656 22.0986328,27.140625 22.4423828,27.140625 C23.1650391,27.140625 23.7802734,26.8525391 24.2880859,26.2763672 C24.7958984,25.7001953 25.0498047,24.8925781 25.0498047,23.8535156 C25.0498047,22.8417969 24.7978516,22.0527344 24.2939453,21.4863281 C23.7900391,20.9199219 23.1767578,20.6367188 22.4541016,20.6367188 Z M99.4287109,18.5800781 L97.7763672,19.5410156 L97.7763672,20.7773438 L97.0205078,20.7773438 L97.0205078,22.0898438 L97.7763672,22.0898438 L97.7763672,24.8027344 C97.7763672,25.3847656 97.7939453,25.7714844 97.8291016,25.9628906 C97.8720703,26.2324219 97.9492188,26.4462891 98.0605469,26.6044922 C98.171875,26.7626953 98.3466797,26.8916016 98.5849609,26.9912109 C98.8232422,27.0908203 99.0908203,27.140625 99.3876953,27.140625 C99.8720703,27.140625 100.305664,27.0585938 100.688477,26.8945312 L100.688477,26.8945312 L100.547852,25.6171875 C100.258789,25.7226562 100.038086,25.7753906 99.8857422,25.7753906 C99.7763672,25.7753906 99.6835938,25.7480469 99.6074219,25.6933594 C99.53125,25.6386719 99.4824219,25.5693359 99.4609375,25.4853516 C99.4394531,25.4013672 99.4287109,25.1054688 99.4287109,24.5976562 L99.4287109,24.5976562 L99.4287109,22.0898438 L100.553711,22.0898438 L100.553711,20.7773438 L99.4287109,20.7773438 L99.4287109,18.5800781 Z M31.3017578,20.7773438 L29.6552734,20.7773438 L29.6552734,24.7148438 C29.6552734,25.3007812 29.7294922,25.7597656 29.8779297,26.0917969 C30.0263672,26.4238281 30.2666016,26.6816406 30.5986328,26.8652344 C30.9306641,27.0488281 31.3056641,27.140625 31.7236328,27.140625 C32.1337891,27.140625 32.5234375,27.0449219 32.8925781,26.8535156 C33.2617188,26.6621094 33.5595703,26.4003906 33.7861328,26.0683594 L33.7861328,26.0683594 L33.7861328,27 L35.3154297,27 L35.3154297,20.7773438 L33.6689453,20.7773438 L33.6680908,23.618103 C33.6618245,24.3839315 33.6210938,24.871582 33.5458984,25.0810547 C33.4638672,25.3095703 33.3115234,25.5009766 33.0888672,25.6552734 C32.8662109,25.8095703 32.6142578,25.8867188 32.3330078,25.8867188 C32.0869141,25.8867188 31.8837891,25.8291016 31.7236328,25.7138672 C31.5634766,25.5986328 31.453125,25.4423828 31.3925781,25.2451172 C31.3320312,25.0478516 31.3017578,24.5117188 31.3017578,23.6367188 L31.3017578,23.6367188 L31.3017578,20.7773438 Z M93.3994141,20.6367188 C92.5751953,20.6367188 91.8935547,20.9287109 91.3544922,21.5126953 C90.8154297,22.0966797 90.5458984,22.9042969 90.5458984,23.9355469 C90.5458984,24.7988281 90.7509766,25.5136719 91.1611328,26.0800781 C91.6806641,26.7871094 92.4814453,27.140625 93.5634766,27.140625 C94.2470703,27.140625 94.8164062,26.9833984 95.2714844,26.6689453 C95.7265625,26.3544922 96.0595703,25.8964844 96.2705078,25.2949219 L96.2705078,25.2949219 L94.6298828,25.0195312 C94.5400391,25.3320312 94.4072266,25.5585938 94.2314453,25.6992188 C94.0556641,25.8398438 93.8388672,25.9101562 93.5810547,25.9101562 C93.2021484,25.9101562 92.8857422,25.7744141 92.6318359,25.5029297 C92.3779297,25.2314453 92.2451172,24.8515625 92.2333984,24.3632812 L92.2333984,24.3632812 L96.3583984,24.3632812 C96.3818359,23.1015625 96.1259766,22.1650391 95.5908203,21.5537109 C95.0556641,20.9423828 94.3251953,20.6367188 93.3994141,20.6367188 Z M86.6201172,20.6367188 C85.7255859,20.6367188 85.0654297,20.8203125 84.6396484,21.1875 C84.2138672,21.5546875 84.0009766,22.0078125 84.0009766,22.546875 C84.0009766,23.1445312 84.2470703,23.6113281 84.7392578,23.9472656 C85.0947266,24.1894531 85.9365234,24.4570312 87.2646484,24.75 C87.5498047,24.8164062 87.7333984,24.8886719 87.8154297,24.9667969 C87.8935547,25.0488281 87.9326172,25.1523438 87.9326172,25.2773438 C87.9326172,25.4609375 87.8603516,25.6074219 87.7158203,25.7167969 C87.5009766,25.8730469 87.1806641,25.9511719 86.7548828,25.9511719 C86.3681641,25.9511719 86.0673828,25.8681641 85.8525391,25.7021484 C85.6376953,25.5361328 85.4951172,25.2929688 85.4248047,24.9726562 L85.4248047,24.9726562 L83.7724609,25.2246094 C83.9248047,25.8144531 84.2480469,26.28125 84.7421875,26.625 C85.2363281,26.96875 85.9072266,27.140625 86.7548828,27.140625 C87.6884766,27.140625 88.3935547,26.9355469 88.8701172,26.5253906 C89.3466797,26.1152344 89.5849609,25.625 89.5849609,25.0546875 C89.5849609,24.53125 89.4130859,24.1230469 89.0693359,23.8300781 C88.7216797,23.5410156 88.109375,23.296875 87.2324219,23.0976562 C86.3554688,22.8984375 85.8427734,22.7441406 85.6943359,22.6347656 C85.5849609,22.5527344 85.5302734,22.453125 85.5302734,22.3359375 C85.5302734,22.1992188 85.5927734,22.0878906 85.7177734,22.0019531 C85.9052734,21.8808594 86.2158203,21.8203125 86.6494141,21.8203125 C86.9931641,21.8203125 87.2578125,21.8847656 87.4433594,22.0136719 C87.6289062,22.1425781 87.7548828,22.328125 87.8212891,22.5703125 L87.8212891,22.5703125 L89.3740234,22.2832031 C89.2177734,21.7402344 88.9326172,21.3300781 88.5185547,21.0527344 C88.1044922,20.7753906 87.4716797,20.6367188 86.6201172,20.6367188 Z M60.0771484,18.5800781 L58.4248047,19.5410156 L58.4248047,20.7773438 L57.6689453,20.7773438 L57.6689453,22.0898438 L58.4248047,22.0898438 L58.4248047,24.8027344 C58.4248047,25.3847656 58.4423828,25.7714844 58.4775391,25.9628906 C58.5205078,26.2324219 58.5976562,26.4462891 58.7089844,26.6044922 C58.8203125,26.7626953 58.9951172,26.8916016 59.2333984,26.9912109 C59.4716797,27.0908203 59.7392578,27.140625 60.0361328,27.140625 C60.5205078,27.140625 60.9541016,27.0585938 61.3369141,26.8945312 L61.3369141,26.8945312 L61.1962891,25.6171875 C60.9072266,25.7226562 60.6865234,25.7753906 60.5341797,25.7753906 C60.4248047,25.7753906 60.3320312,25.7480469 60.2558594,25.6933594 C60.1796875,25.6386719 60.1308594,25.5693359 60.109375,25.4853516 C60.0878906,25.4013672 60.0771484,25.1054688 60.0771484,24.5976562 L60.0771484,22.0898438 L61.2021484,22.0898438 L61.2021484,20.7773438 L60.0771484,20.7773438 L60.0771484,18.5800781 Z M65.1689453,20.6367188 C64.5595703,20.6367188 64.0078125,20.7714844 63.5136719,21.0410156 C63.0195312,21.3105469 62.6376953,21.7011719 62.3681641,22.2128906 C62.0986328,22.7246094 61.9638672,23.2539062 61.9638672,23.8007812 C61.9638672,24.515625 62.0986328,25.1220703 62.3681641,25.6201172 C62.6376953,26.1181641 63.03125,26.4960938 63.5488281,26.7539062 C64.0664062,27.0117188 64.6103516,27.140625 65.1806641,27.140625 C66.1025391,27.140625 66.8671875,26.8310547 67.4746094,26.2119141 C68.0820312,25.5927734 68.3857422,24.8125 68.3857422,23.8710938 C68.3857422,22.9375 68.0849609,22.1650391 67.4833984,21.5537109 C66.8818359,20.9423828 66.1103516,20.6367188 65.1689453,20.6367188 Z M80.0517578,20.6367188 C79.2275391,20.6367188 78.5458984,20.9287109 78.0068359,21.5126953 C77.4677734,22.0966797 77.1982422,22.9042969 77.1982422,23.9355469 C77.1982422,24.7988281 77.4033203,25.5136719 77.8134766,26.0800781 C78.3330078,26.7871094 79.1337891,27.140625 80.2158203,27.140625 C80.8994141,27.140625 81.46875,26.9833984 81.9238281,26.6689453 C82.3789062,26.3544922 82.7119141,25.8964844 82.9228516,25.2949219 L82.9228516,25.2949219 L81.2822266,25.0195312 C81.1923828,25.3320312 81.0595703,25.5585938 80.8837891,25.6992188 C80.7080078,25.8398438 80.4912109,25.9101562 80.2333984,25.9101562 C79.8544922,25.9101562 79.5380859,25.7744141 79.2841797,25.5029297 C79.0302734,25.2314453 78.8974609,24.8515625 78.8857422,24.3632812 L78.8857422,24.3632812 L83.0107422,24.3632812 C83.0341797,23.1015625 82.7783203,22.1650391 82.2431641,21.5537109 C81.7080078,20.9423828 80.9775391,20.6367188 80.0517578,20.6367188 Z M45.9970703,20.7773438 L44.3505859,20.7773438 L44.3505859,27 L45.9970703,27 L45.9970703,20.7773438 Z M28.0029297,18.4101562 L26.3564453,18.4101562 L26.3564453,27 L28.0029297,27 L28.0029297,18.4101562 Z M75.8857422,20.6367188 C75.6201172,20.6367188 75.3828125,20.703125 75.1738281,20.8359375 C74.9648438,20.96875 74.7294922,21.2441406 74.4677734,21.6621094 L74.4677734,21.6621094 L74.4677734,20.7773438 L72.9384766,20.7773438 L72.9384766,27 L74.5849609,27 L74.5849609,25.078125 C74.5849609,24.0195312 74.6308594,23.3242188 74.7226562,22.9921875 C74.8144531,22.6601562 74.9404297,22.4306641 75.1005859,22.3037109 C75.2607422,22.1767578 75.4560547,22.1132812 75.6865234,22.1132812 C75.9248047,22.1132812 76.1826172,22.203125 76.4599609,22.3828125 L76.4599609,22.3828125 L76.9697266,20.9472656 C76.6220703,20.7402344 76.2607422,20.6367188 75.8857422,20.6367188 Z M51.2529297,20.6367188 C50.4287109,20.6367188 49.7451172,20.9882812 49.2021484,21.6914062 L49.2021484,21.6914062 L49.2021484,20.7773438 L47.6728516,20.7773438 L47.6728516,27 L49.3193359,27 L49.3193359,24.1816406 C49.3193359,23.4863281 49.3613281,23.0097656 49.4453125,22.7519531 C49.5292969,22.4941406 49.6845703,22.2871094 49.9111328,22.1308594 C50.1376953,21.9746094 50.3935547,21.8964844 50.6787109,21.8964844 C50.9013672,21.8964844 51.0917969,21.9511719 51.25,22.0605469 C51.4082031,22.1699219 51.5224609,22.3232422 51.5927734,22.5205078 C51.6630859,22.7177734 51.6982422,23.1523438 51.6982422,23.8242188 L51.6982422,23.8242188 L51.6982422,27 L53.3447266,27 L53.3447266,23.1328125 C53.3447266,22.6523438 53.3144531,22.2832031 53.2539062,22.0253906 C53.1933594,21.7675781 53.0859375,21.5371094 52.9316406,21.3339844 C52.7773438,21.1308594 52.5498047,20.9638672 52.2490234,20.8330078 C51.9482422,20.7021484 51.6162109,20.6367188 51.2529297,20.6367188 Z M22.0087891,21.9375 C22.3955078,21.9375 22.7197266,22.0957031 22.9814453,22.4121094 C23.2431641,22.7285156 23.3740234,23.2128906 23.3740234,23.8652344 C23.3740234,24.5644531 23.2470703,25.0673828 22.9931641,25.3740234 C22.7392578,25.6806641 22.4208984,25.8339844 22.0380859,25.8339844 C21.6396484,25.8339844 21.3017578,25.6669922 21.0244141,25.3330078 C20.7470703,24.9990234 20.6083984,24.4824219 20.6083984,23.7832031 C20.6083984,23.1738281 20.7412109,22.7138672 21.0068359,22.4033203 C21.2724609,22.0927734 21.6064453,21.9375 22.0087891,21.9375 Z M65.1748047,21.9785156 C65.6044922,21.9785156 65.9648438,22.1425781 66.2558594,22.4707031 C66.546875,22.7988281 66.6923828,23.2675781 66.6923828,23.8769531 C66.6923828,24.5019531 66.546875,24.9785156 66.2558594,25.3066406 C65.9648438,25.6347656 65.6044922,25.7988281 65.1748047,25.7988281 C64.7451172,25.7988281 64.3837891,25.6347656 64.0908203,25.3066406 C63.7978516,24.9785156 63.6513672,24.5058594 63.6513672,23.8886719 C63.6513672,23.2714844 63.7978516,22.7988281 64.0908203,22.4707031 C64.3837891,22.1425781 64.7451172,21.9785156 65.1748047,21.9785156 Z M39.6982422,21.8964844 C40.1044922,21.8964844 40.4404297,22.0527344 40.7060547,22.3652344 C40.9716797,22.6777344 41.1044922,23.15625 41.1044922,23.8007812 C41.1044922,24.4179688 40.9658203,24.8837891 40.6884766,25.1982422 C40.4111328,25.5126953 40.0712891,25.6699219 39.6689453,25.6699219 C39.2939453,25.6699219 38.9785156,25.5166016 38.7226562,25.2099609 C38.4667969,24.9033203 38.3388672,24.4199219 38.3388672,23.7597656 C38.3388672,23.1308594 38.4667969,22.6630859 38.7226562,22.3564453 C38.9785156,22.0498047 39.3037109,21.8964844 39.6982422,21.8964844 Z M80.1513672,21.8964844 C80.4873047,21.8964844 80.7724609,22.0205078 81.0068359,22.2685547 C81.2412109,22.5166016 81.3642578,22.8789062 81.3759766,23.3554688 L81.3759766,23.3554688 L78.9150391,23.3554688 C78.9111328,22.90625 79.0263672,22.5507812 79.2607422,22.2890625 C79.4951172,22.0273438 79.7919922,21.8964844 80.1513672,21.8964844 Z M93.4990234,21.8964844 C93.8349609,21.8964844 94.1201172,22.0205078 94.3544922,22.2685547 C94.5888672,22.5166016 94.7119141,22.8789062 94.7236328,23.3554688 L94.7236328,23.3554688 L92.2626953,23.3554688 C92.2587891,22.90625 92.3740234,22.5507812 92.6083984,22.2890625 C92.8427734,22.0273438 93.1396484,21.8964844 93.4990234,21.8964844 Z M45.9970703,18.4101562 L44.3505859,18.4101562 L44.3505859,19.9335938 L45.9970703,19.9335938 L45.9970703,18.4101562 Z M91.8027344,7.63671875 C91.3886719,7.63671875 91.0117188,7.734375 90.671875,7.9296875 C90.3320312,8.125 90.0625,8.37890625 89.8632812,8.69140625 L89.8632812,8.69140625 L89.8632812,7.77734375 L88.328125,7.77734375 L88.328125,16.3671875 L89.9746094,16.3671875 L89.9746094,13.2324219 C90.2832031,13.5644531 90.5771484,13.7988281 90.8564453,13.9355469 C91.1357422,14.0722656 91.4472656,14.140625 91.7910156,14.140625 C92.5136719,14.140625 93.1289062,13.8525391 93.6367188,13.2763672 C94.1445312,12.7001953 94.3984375,11.8925781 94.3984375,10.8535156 C94.3984375,9.84179688 94.1464844,9.05273438 93.6425781,8.48632812 C93.1386719,7.91992188 92.5253906,7.63671875 91.8027344,7.63671875 Z M47.4648438,7.63671875 C46.65625,7.63671875 46.046875,7.78125 45.6367188,8.0703125 C45.2265625,8.359375 44.9375,8.8046875 44.7695312,9.40625 L44.7695312,9.40625 L46.2636719,9.67578125 C46.3652344,9.38671875 46.4980469,9.18457031 46.6621094,9.06933594 C46.8261719,8.95410156 47.0546875,8.89648438 47.3476562,8.89648438 C47.78125,8.89648438 48.0761719,8.96386719 48.2324219,9.09863281 C48.3886719,9.23339844 48.4667969,9.45898438 48.4667969,9.77539062 L48.4667969,9.77539062 L48.4667969,9.93945312 C48.1699219,10.0644531 47.6367188,10.1992188 46.8671875,10.34375 C46.296875,10.453125 45.8603516,10.5810547 45.5576172,10.7275391 C45.2548828,10.8740234 45.0195312,11.0849609 44.8515625,11.3603516 C44.6835938,11.6357422 44.5996094,11.9492188 44.5996094,12.3007812 C44.5996094,12.8320312 44.7841797,13.2714844 45.1533203,13.6191406 C45.5224609,13.9667969 46.0273438,14.140625 46.6679688,14.140625 C47.03125,14.140625 47.3730469,14.0722656 47.6933594,13.9355469 C48.0136719,13.7988281 48.3144531,13.59375 48.5957031,13.3203125 C48.6074219,13.3515625 48.6269531,13.4160156 48.6542969,13.5136719 C48.7167969,13.7285156 48.7695312,13.890625 48.8125,14 L48.8125,14 L50.4414062,14 C50.296875,13.703125 50.1982422,13.4248047 50.1455078,13.1650391 C50.0927734,12.9052734 50.0664062,12.5019531 50.0664062,11.9550781 L50.0664062,11.9550781 L50.0839844,10.0332031 C50.0839844,9.31835938 50.0107422,8.82714844 49.8642578,8.55957031 C49.7177734,8.29199219 49.4648438,8.07128906 49.1054688,7.89746094 C48.7460938,7.72363281 48.1992188,7.63671875 47.4648438,7.63671875 Z M83.8691406,7.63671875 C83.2597656,7.63671875 82.7080078,7.77148438 82.2138672,8.04101562 C81.7197266,8.31054688 81.3378906,8.70117188 81.0683594,9.21289062 C80.7988281,9.72460938 80.6640625,10.2539062 80.6640625,10.8007812 C80.6640625,11.515625 80.7988281,12.1220703 81.0683594,12.6201172 C81.3378906,13.1181641 81.7314453,13.4960938 82.2490234,13.7539062 C82.7666016,14.0117188 83.3105469,14.140625 83.8808594,14.140625 C84.8027344,14.140625 85.5673828,13.8310547 86.1748047,13.2119141 C86.7822266,12.5927734 87.0859375,11.8125 87.0859375,10.8710938 C87.0859375,9.9375 86.7851562,9.16503906 86.1835938,8.55371094 C85.5820312,7.94238281 84.8105469,7.63671875 83.8691406,7.63671875 Z M37.3984375,7.63671875 C36.5742187,7.63671875 35.8925781,7.92871094 35.3535156,8.51269531 C34.8144531,9.09667969 34.5449219,9.90429688 34.5449219,10.9355469 C34.5449219,11.7988281 34.75,12.5136719 35.1601562,13.0800781 C35.6796875,13.7871094 36.4804687,14.140625 37.5625,14.140625 C38.2460937,14.140625 38.8154297,13.9833984 39.2705078,13.6689453 C39.7255859,13.3544922 40.0585937,12.8964844 40.2695312,12.2949219 L40.2695312,12.2949219 L38.6289062,12.0195312 C38.5390625,12.3320312 38.40625,12.5585938 38.2304687,12.6992188 C38.0546875,12.8398438 37.8378906,12.9101562 37.5800781,12.9101562 C37.2011719,12.9101562 36.8847656,12.7744141 36.6308594,12.5029297 C36.3769531,12.2314453 36.2441406,11.8515625 36.2324219,11.3632812 L36.2324219,11.3632812 L40.3574219,11.3632812 C40.3808594,10.1015625 40.125,9.16503906 39.5898437,8.55371094 C39.0546875,7.94238281 38.3242187,7.63671875 37.3984375,7.63671875 Z M30.6191406,7.63671875 C29.7246094,7.63671875 29.0644531,7.8203125 28.6386719,8.1875 C28.2128906,8.5546875 28,9.0078125 28,9.546875 C28,10.1445312 28.2460938,10.6113281 28.7382812,10.9472656 C29.09375,11.1894531 29.9355469,11.4570312 31.2636719,11.75 C31.5488281,11.8164062 31.7324219,11.8886719 31.8144531,11.9667969 C31.8925781,12.0488281 31.9316406,12.1523438 31.9316406,12.2773438 C31.9316406,12.4609375 31.859375,12.6074219 31.7148438,12.7167969 C31.5,12.8730469 31.1796875,12.9511719 30.7539062,12.9511719 C30.3671875,12.9511719 30.0664062,12.8681641 29.8515625,12.7021484 C29.6367188,12.5361328 29.4941406,12.2929688 29.4238281,11.9726562 L29.4238281,11.9726562 L27.7714844,12.2246094 C27.9238281,12.8144531 28.2470703,13.28125 28.7412109,13.625 C29.2353516,13.96875 29.90625,14.140625 30.7539062,14.140625 C31.6875,14.140625 32.3925781,13.9355469 32.8691406,13.5253906 C33.3457031,13.1152344 33.5839844,12.625 33.5839844,12.0546875 C33.5839844,11.53125 33.4121094,11.1230469 33.0683594,10.8300781 C32.7207031,10.5410156 32.1083984,10.296875 31.2314453,10.0976562 C30.3544922,9.8984375 29.8417969,9.74414062 29.6933594,9.63476562 C29.5839844,9.55273438 29.5292969,9.453125 29.5292969,9.3359375 C29.5292969,9.19921875 29.5917969,9.08789062 29.7167969,9.00195312 C29.9042969,8.88085938 30.2148438,8.8203125 30.6484375,8.8203125 C30.9921875,8.8203125 31.2568359,8.88476562 31.4423828,9.01367188 C31.6279297,9.14257812 31.7539062,9.328125 31.8203125,9.5703125 L31.8203125,9.5703125 L33.3730469,9.28320312 C33.2167969,8.74023438 32.9316406,8.33007812 32.5175781,8.05273438 C32.1035156,7.77539062 31.4707031,7.63671875 30.6191406,7.63671875 Z M13.6679688,7.63671875 C12.7421875,7.63671875 12.0078125,7.92285156 11.4648438,8.49511719 C10.921875,9.06738281 10.6503906,9.8671875 10.6503906,10.8945312 C10.6503906,11.9101562 10.9208984,12.7050781 11.4619141,13.2792969 C12.0029297,13.8535156 12.7285156,14.140625 13.6386719,14.140625 C14.4394531,14.140625 15.078125,13.9511719 15.5546875,13.5722656 C16.03125,13.1933594 16.3535156,12.6328125 16.5214844,11.890625 L16.5214844,11.890625 L14.9042969,11.6152344 C14.8222656,12.0488281 14.6816406,12.3544922 14.4824219,12.5322266 C14.2832031,12.7099609 14.0273438,12.7988281 13.7148438,12.7988281 C13.296875,12.7988281 12.9638672,12.6464844 12.7158203,12.3417969 C12.4677734,12.0371094 12.34375,11.515625 12.34375,10.7773438 C12.34375,10.1132812 12.4658203,9.63964844 12.7099609,9.35644531 C12.9541016,9.07324219 13.28125,8.93164062 13.6914062,8.93164062 C14,8.93164062 14.2509766,9.01367188 14.4443359,9.17773438 C14.6376953,9.34179688 14.7617188,9.5859375 14.8164062,9.91015625 L14.8164062,9.91015625 L16.4394531,9.6171875 C16.2441406,8.94921875 15.9228516,8.45214844 15.4755859,8.12597656 C15.0283203,7.79980469 14.4257812,7.63671875 13.6679688,7.63671875 Z M64.7441406,5.41015625 L63.0976562,5.41015625 L63.0976562,8.50390625 C62.5898438,7.92578125 61.9882812,7.63671875 61.2929688,7.63671875 C60.5351562,7.63671875 59.9082031,7.91113281 59.4121094,8.45996094 C58.9160156,9.00878906 58.6679688,9.81054688 58.6679688,10.8652344 C58.6679688,11.8964844 58.9228516,12.7001953 59.4326172,13.2763672 C59.9423828,13.8525391 60.5546875,14.140625 61.2695312,14.140625 C61.6210938,14.140625 61.9697266,14.0537109 62.3154297,13.8798828 C62.6611328,13.7060547 62.9609375,13.4414062 63.2148438,13.0859375 L63.2148438,13.0859375 L63.2148438,14 L64.7441406,14 L64.7441406,5.41015625 Z M76.7441406,7.63671875 C75.9199219,7.63671875 75.2382812,7.92871094 74.6992187,8.51269531 C74.1601562,9.09667969 73.890625,9.90429688 73.890625,10.9355469 C73.890625,11.7988281 74.0957031,12.5136719 74.5058594,13.0800781 C75.0253906,13.7871094 75.8261719,14.140625 76.9082031,14.140625 C77.5917969,14.140625 78.1611328,13.9833984 78.6162109,13.6689453 C79.0712891,13.3544922 79.4042969,12.8964844 79.6152344,12.2949219 L79.6152344,12.2949219 L77.9746094,12.0195312 C77.8847656,12.3320312 77.7519531,12.5585938 77.5761719,12.6992188 C77.4003906,12.8398438 77.1835937,12.9101562 76.9257812,12.9101562 C76.546875,12.9101562 76.2304687,12.7744141 75.9765625,12.5029297 C75.7226562,12.2314453 75.5898437,11.8515625 75.578125,11.3632812 L75.578125,11.3632812 L79.703125,11.3632812 C79.7265625,10.1015625 79.4707031,9.16503906 78.9355469,8.55371094 C78.4003906,7.94238281 77.6699219,7.63671875 76.7441406,7.63671875 Z M23.8457031,7.63671875 C23.2363281,7.63671875 22.6845703,7.77148438 22.1904297,8.04101562 C21.6962891,8.31054688 21.3144531,8.70117188 21.0449219,9.21289062 C20.7753906,9.72460938 20.640625,10.2539062 20.640625,10.8007812 C20.640625,11.515625 20.7753906,12.1220703 21.0449219,12.6201172 C21.3144531,13.1181641 21.7080078,13.4960938 22.2255859,13.7539062 C22.7431641,14.0117188 23.2871094,14.140625 23.8574219,14.140625 C24.7792969,14.140625 25.5439453,13.8310547 26.1513672,13.2119141 C26.7587891,12.5927734 27.0625,11.8125 27.0625,10.8710938 C27.0625,9.9375 26.7617188,9.16503906 26.1601562,8.55371094 C25.5585938,7.94238281 24.7871094,7.63671875 23.8457031,7.63671875 Z M98.078125,7.63671875 C97.2539062,7.63671875 96.5722656,7.92871094 96.0332031,8.51269531 C95.4941406,9.09667969 95.2246094,9.90429688 95.2246094,10.9355469 C95.2246094,11.7988281 95.4296875,12.5136719 95.8398437,13.0800781 C96.359375,13.7871094 97.1601562,14.140625 98.2421875,14.140625 C98.9257812,14.140625 99.4951172,13.9833984 99.9501953,13.6689453 C100.405273,13.3544922 100.738281,12.8964844 100.949219,12.2949219 L100.949219,12.2949219 L99.3085937,12.0195312 C99.21875,12.3320312 99.0859375,12.5585938 98.9101562,12.6992188 C98.734375,12.8398438 98.5175781,12.9101562 98.2597656,12.9101562 C97.8808594,12.9101562 97.5644531,12.7744141 97.3105469,12.5029297 C97.0566406,12.2314453 96.9238281,11.8515625 96.9121094,11.3632812 L96.9121094,11.3632812 L101.037109,11.3632812 C101.060547,10.1015625 100.804687,9.16503906 100.269531,8.55371094 C99.734375,7.94238281 99.0039062,7.63671875 98.078125,7.63671875 Z M72.578125,7.63671875 C72.3125,7.63671875 72.0751953,7.703125 71.8662109,7.8359375 C71.6572266,7.96875 71.421875,8.24414062 71.1601562,8.66210938 L71.1601562,8.66210938 L71.1601562,7.77734375 L69.6308594,7.77734375 L69.6308594,14 L71.2773438,14 L71.2773438,12.078125 C71.2773438,11.0195312 71.3232422,10.3242188 71.4150391,9.9921875 C71.5068359,9.66015625 71.6328125,9.43066406 71.7929688,9.30371094 C71.953125,9.17675781 72.1484375,9.11328125 72.3789062,9.11328125 C72.6171875,9.11328125 72.875,9.203125 73.1523438,9.3828125 L73.1523438,9.3828125 L73.6621094,7.94726562 C73.3144531,7.74023438 72.953125,7.63671875 72.578125,7.63671875 Z M105.947266,7.63671875 C105.123047,7.63671875 104.439453,7.98828125 103.896484,8.69140625 L103.896484,8.69140625 L103.896484,7.77734375 L102.367188,7.77734375 L102.367188,14 L104.013672,14 L104.013672,11.1816406 C104.013672,10.4863281 104.055664,10.0097656 104.139648,9.75195312 C104.223633,9.49414062 104.378906,9.28710938 104.605469,9.13085938 C104.832031,8.97460938 105.087891,8.89648438 105.373047,8.89648438 C105.595703,8.89648438 105.786133,8.95117188 105.944336,9.06054688 C106.102539,9.16992188 106.216797,9.32324219 106.287109,9.52050781 C106.357422,9.71777344 106.392578,10.1523438 106.392578,10.8242188 L106.392578,10.8242188 L106.392578,14 L108.039062,14 L108.039062,10.1328125 C108.039062,9.65234375 108.008789,9.28320312 107.948242,9.02539062 C107.887695,8.76757812 107.780273,8.53710938 107.625977,8.33398438 C107.47168,8.13085938 107.244141,7.96386719 106.943359,7.83300781 C106.642578,7.70214844 106.310547,7.63671875 105.947266,7.63671875 Z M19.3339844,5.41015625 L17.6875,5.41015625 L17.6875,14 L19.3339844,14 L19.3339844,5.41015625 Z M55.2753906,7.63671875 C54.4511719,7.63671875 53.7675781,7.98828125 53.2246094,8.69140625 L53.2246094,8.69140625 L53.2246094,7.77734375 L51.6953125,7.77734375 L51.6953125,14 L53.3417969,14 L53.3417969,11.1816406 C53.3417969,10.4863281 53.3837891,10.0097656 53.4677734,9.75195312 C53.5517578,9.49414062 53.7070312,9.28710938 53.9335938,9.13085938 C54.1601562,8.97460938 54.4160156,8.89648438 54.7011719,8.89648438 C54.9238281,8.89648438 55.1142578,8.95117188 55.2724609,9.06054688 C55.4306641,9.16992188 55.5449219,9.32324219 55.6152344,9.52050781 C55.6855469,9.71777344 55.7207031,10.1523438 55.7207031,10.8242188 L55.7207031,10.8242188 L55.7207031,14 L57.3671875,14 L57.3671875,10.1328125 C57.3671875,9.65234375 57.3369141,9.28320312 57.2763672,9.02539062 C57.2158203,8.76757812 57.1083984,8.53710938 56.9541016,8.33398438 C56.7998047,8.13085938 56.5722656,7.96386719 56.2714844,7.83300781 C55.9707031,7.70214844 55.6386719,7.63671875 55.2753906,7.63671875 Z M48.4667969,11.0117188 L48.4667969,11.3398438 C48.4667969,11.734375 48.4453125,12.0019531 48.4023438,12.1425781 C48.3398438,12.3574219 48.2089844,12.5390625 48.0097656,12.6875 C47.7402344,12.8828125 47.4570312,12.9804688 47.1601562,12.9804688 C46.8945312,12.9804688 46.6757812,12.8964844 46.5039062,12.7285156 C46.3320312,12.5605469 46.2460938,12.3613281 46.2460938,12.1308594 C46.2460938,11.8964844 46.3535156,11.703125 46.5683594,11.5507812 C46.7089844,11.4570312 47.0078125,11.3613281 47.4648438,11.2636719 C47.921875,11.1660156 48.2558594,11.0820312 48.4667969,11.0117188 L48.4667969,11.0117188 Z M61.7265625,8.89648438 C62.1289062,8.89648438 62.4589844,9.05371094 62.7167969,9.36816406 C62.9746094,9.68261719 63.1035156,10.1972656 63.1035156,10.9121094 C63.1035156,11.5527344 62.9707031,12.0341797 62.7050781,12.3564453 C62.4394531,12.6787109 62.1171875,12.8398438 61.7382812,12.8398438 C61.2617188,12.8398438 60.890625,12.625 60.625,12.1953125 C60.4414062,11.8984375 60.3496094,11.4179688 60.3496094,10.7539062 C60.3496094,10.1367188 60.4814453,9.67285156 60.7451172,9.36230469 C61.0087891,9.05175781 61.3359375,8.89648438 61.7265625,8.89648438 Z M91.3574219,8.9375 C91.7441406,8.9375 92.0683594,9.09570312 92.3300781,9.41210938 C92.5917969,9.72851562 92.7226562,10.2128906 92.7226562,10.8652344 C92.7226562,11.5644531 92.5957031,12.0673828 92.3417969,12.3740234 C92.0878906,12.6806641 91.7695312,12.8339844 91.3867188,12.8339844 C90.9882812,12.8339844 90.6503906,12.6669922 90.3730469,12.3330078 C90.0957031,11.9990234 89.9570312,11.4824219 89.9570312,10.7832031 C89.9570312,10.1738281 90.0898438,9.71386719 90.3554688,9.40332031 C90.6210938,9.09277344 90.9550781,8.9375 91.3574219,8.9375 Z M23.8515625,8.97851562 C24.28125,8.97851562 24.6416016,9.14257812 24.9326172,9.47070312 C25.2236328,9.79882812 25.3691406,10.2675781 25.3691406,10.8769531 C25.3691406,11.5019531 25.2236328,11.9785156 24.9326172,12.3066406 C24.6416016,12.6347656 24.28125,12.7988281 23.8515625,12.7988281 C23.421875,12.7988281 23.0605469,12.6347656 22.7675781,12.3066406 C22.4746094,11.9785156 22.328125,11.5058594 22.328125,10.8886719 C22.328125,10.2714844 22.4746094,9.79882812 22.7675781,9.47070312 C23.0605469,9.14257812 23.421875,8.97851562 23.8515625,8.97851562 Z M83.875,8.97851562 C84.3046875,8.97851562 84.6650391,9.14257812 84.9560547,9.47070312 C85.2470703,9.79882812 85.3925781,10.2675781 85.3925781,10.8769531 C85.3925781,11.5019531 85.2470703,11.9785156 84.9560547,12.3066406 C84.6650391,12.6347656 84.3046875,12.7988281 83.875,12.7988281 C83.4453125,12.7988281 83.0839844,12.6347656 82.7910156,12.3066406 C82.4980469,11.9785156 82.3515625,11.5058594 82.3515625,10.8886719 C82.3515625,10.2714844 82.4980469,9.79882812 82.7910156,9.47070312 C83.0839844,9.14257812 83.4453125,8.97851562 83.875,8.97851562 Z M76.84375,8.89648438 C77.1796875,8.89648438 77.4648437,9.02050781 77.6992187,9.26855469 C77.9335937,9.51660156 78.0566406,9.87890625 78.0683594,10.3554688 L78.0683594,10.3554688 L75.6074219,10.3554688 C75.6035156,9.90625 75.71875,9.55078125 75.953125,9.2890625 C76.1875,9.02734375 76.484375,8.89648438 76.84375,8.89648438 Z M98.1777344,8.89648438 C98.5136719,8.89648438 98.7988281,9.02050781 99.0332031,9.26855469 C99.2675781,9.51660156 99.390625,9.87890625 99.4023437,10.3554688 L99.4023437,10.3554688 L96.9414062,10.3554688 C96.9375,9.90625 97.0527344,9.55078125 97.2871094,9.2890625 C97.5214844,9.02734375 97.8183594,8.89648438 98.1777344,8.89648438 Z M37.4980469,8.89648438 C37.8339844,8.89648438 38.1191406,9.02050781 38.3535156,9.26855469 C38.5878906,9.51660156 38.7109375,9.87890625 38.7226562,10.3554688 L38.7226562,10.3554688 L36.2617187,10.3554688 C36.2578125,9.90625 36.3730469,9.55078125 36.6074219,9.2890625 C36.8417969,9.02734375 37.1386719,8.89648438 37.4980469,8.89648438 Z"></path>
    </g>
</svg>
