<?xml version="1.0" encoding="UTF-8"?>
<svg width="120px" height="34px" viewBox="0 0 120 34">
    <g stroke="none" stroke-width="1" fill="#80848A" fill-rule="evenodd">
        <path d="M115,0 C117.761424,-5.07265313e-16 120,2.23857625 120,5 L120,29 C120,31.7614237 117.761424,34 115,34 L5,34 C2.23857625,34 3.38176876e-16,31.7614237 0,29 L0,5 C-3.38176876e-16,2.23857625 2.23857625,2.28362215e-15 5,0 L115,0 Z M31.3291016,13.4550781 C30.0927734,13.4550781 29.0703125,13.8930664 28.2617188,14.769043 C27.453125,15.6450195 27.0488281,16.8564453 27.0488281,18.4033203 C27.0488281,19.6982422 27.3564453,20.7705078 27.9716797,21.6201172 C28.7509766,22.6806641 29.9521484,23.2109375 31.5751953,23.2109375 C32.6005859,23.2109375 33.4545898,22.9750977 34.137207,22.503418 C34.8198242,22.0317383 35.3193359,21.3447266 35.6357422,20.4423828 L35.6357422,20.4423828 L33.1748047,20.0292969 C33.0400391,20.4980469 32.8408203,20.8378906 32.5771484,21.0488281 C32.3134766,21.2597656 31.9882812,21.3652344 31.6015625,21.3652344 C31.0332031,21.3652344 30.5585938,21.1616211 30.1777344,20.7543945 C29.796875,20.347168 29.5976562,19.7773438 29.5800781,19.0449219 L29.5800781,19.0449219 L35.7675781,19.0449219 C35.8027344,17.1523438 35.4189453,15.7475586 34.6162109,14.8305664 C33.8134766,13.9135742 32.7177734,13.4550781 31.3291016,13.4550781 Z M41.1816406,13.4550781 C39.8398438,13.4550781 38.8496094,13.7304688 38.2109375,14.28125 C37.5722656,14.8320312 37.2529297,15.5117188 37.2529297,16.3203125 C37.2529297,17.2167969 37.6220703,17.9169922 38.3603516,18.4208984 C38.8935547,18.7841797 40.15625,19.1855469 42.1484375,19.625 C42.5761719,19.7246094 42.8515625,19.8330078 42.9746094,19.9501953 C43.0917969,20.0732422 43.1503906,20.2285156 43.1503906,20.4160156 C43.1503906,20.6914062 43.0419922,20.9111328 42.8251953,21.0751953 C42.5029297,21.3095703 42.0224609,21.4267578 41.3837891,21.4267578 C40.8037109,21.4267578 40.3525391,21.3022461 40.0302734,21.0532227 C39.7080078,20.8041992 39.4941406,20.4394531 39.3886719,19.9589844 L39.3886719,19.9589844 L36.9101562,20.3369141 C37.1386719,21.2216797 37.6235352,21.921875 38.3647461,22.4375 C39.105957,22.953125 40.1123047,23.2109375 41.3837891,23.2109375 C42.7841797,23.2109375 43.8417969,22.9033203 44.5566406,22.2880859 C45.2714844,21.6728516 45.6289062,20.9375 45.6289062,20.0820312 C45.6289062,19.296875 45.3710938,18.6845703 44.8554688,18.2451172 C44.3339844,17.8115234 43.4155273,17.4453125 42.1000977,17.1464844 C40.784668,16.8476562 40.015625,16.6162109 39.7929688,16.4521484 C39.6289062,16.3291016 39.546875,16.1796875 39.546875,16.0039062 C39.546875,15.7988281 39.640625,15.6318359 39.828125,15.5029297 C40.109375,15.3212891 40.5751953,15.2304688 41.2255859,15.2304688 C41.7412109,15.2304688 42.1381836,15.3271484 42.4165039,15.5205078 C42.6948242,15.7138672 42.8837891,15.9921875 42.9833984,16.3554688 L42.9833984,16.3554688 L45.3125,15.9248047 C45.078125,15.1103516 44.6503906,14.4951172 44.0292969,14.0791016 C43.4082031,13.6630859 42.4589844,13.4550781 41.1816406,13.4550781 Z M51.3505859,13.4550781 C50.1142578,13.4550781 49.0917969,13.8930664 48.2832031,14.769043 C47.4746094,15.6450195 47.0703125,16.8564453 47.0703125,18.4033203 C47.0703125,19.6982422 47.3779297,20.7705078 47.9931641,21.6201172 C48.7724609,22.6806641 49.9736328,23.2109375 51.5966797,23.2109375 C52.6220703,23.2109375 53.4760742,22.9750977 54.1586914,22.503418 C54.8413086,22.0317383 55.3408203,21.3447266 55.6572266,20.4423828 L55.6572266,20.4423828 L53.1962891,20.0292969 C53.0615234,20.4980469 52.8623047,20.8378906 52.5986328,21.0488281 C52.3349609,21.2597656 52.0097656,21.3652344 51.6230469,21.3652344 C51.0546875,21.3652344 50.5800781,21.1616211 50.1992188,20.7543945 C49.8183594,20.347168 49.6191406,19.7773438 49.6015625,19.0449219 L49.6015625,19.0449219 L55.7890625,19.0449219 C55.8242188,17.1523438 55.4404297,15.7475586 54.6376953,14.8305664 C53.8349609,13.9135742 52.7392578,13.4550781 51.3505859,13.4550781 Z M60.3945312,10.3701172 L57.9160156,11.8115234 L57.9160156,13.6660156 L56.7822266,13.6660156 L56.7822266,15.6347656 L57.9160156,15.6347656 L57.9166694,19.9349416 C57.9210276,20.680196 57.9471768,21.1833274 57.9951172,21.4443359 C58.0595703,21.8486328 58.175293,22.1694336 58.3422852,22.4067383 C58.5092773,22.644043 58.7714844,22.8374023 59.1289062,22.9868164 C59.4863281,23.1362305 59.8876953,23.2109375 60.3330078,23.2109375 C61.0595703,23.2109375 61.7099609,23.0878906 62.2841797,22.8417969 L62.2841797,22.8417969 L62.0732422,20.9257812 C61.6396484,21.0839844 61.3085938,21.1630859 61.0800781,21.1630859 C60.9160156,21.1630859 60.7768555,21.1220703 60.6625977,21.0400391 C60.5483398,20.9580078 60.4750977,20.8540039 60.4428711,20.7280273 C60.4106445,20.6020508 60.3945312,20.1582031 60.3945312,19.3964844 L60.3945312,15.6347656 L62.0820312,15.6347656 L62.0820312,13.6660156 L60.3945312,13.6660156 L60.3945312,10.3701172 Z M72.1982422,13.4550781 C70.8564453,13.4550781 69.8662109,13.7304688 69.2275391,14.28125 C68.5888672,14.8320312 68.2695312,15.5117188 68.2695312,16.3203125 C68.2695312,17.2167969 68.6386719,17.9169922 69.3769531,18.4208984 C69.9101562,18.7841797 71.1728516,19.1855469 73.1650391,19.625 C73.5927734,19.7246094 73.8681641,19.8330078 73.9912109,19.9501953 C74.1083984,20.0732422 74.1669922,20.2285156 74.1669922,20.4160156 C74.1669922,20.6914062 74.0585938,20.9111328 73.8417969,21.0751953 C73.5195312,21.3095703 73.0390625,21.4267578 72.4003906,21.4267578 C71.8203125,21.4267578 71.3691406,21.3022461 71.046875,21.0532227 C70.7246094,20.8041992 70.5107422,20.4394531 70.4052734,19.9589844 L70.4052734,19.9589844 L67.9267578,20.3369141 C68.1552734,21.2216797 68.6401367,21.921875 69.3813477,22.4375 C70.1225586,22.953125 71.1289062,23.2109375 72.4003906,23.2109375 C73.8007812,23.2109375 74.8583984,22.9033203 75.5732422,22.2880859 C76.2880859,21.6728516 76.6455078,20.9375 76.6455078,20.0820312 C76.6455078,19.296875 76.3876953,18.6845703 75.8720703,18.2451172 C75.3505859,17.8115234 74.4321289,17.4453125 73.1166992,17.1464844 C71.8012695,16.8476562 71.0322266,16.6162109 70.8095703,16.4521484 C70.6455078,16.3291016 70.5634766,16.1796875 70.5634766,16.0039062 C70.5634766,15.7988281 70.6572266,15.6318359 70.8447266,15.5029297 C71.1259766,15.3212891 71.5917969,15.2304688 72.2421875,15.2304688 C72.7578125,15.2304688 73.1547852,15.3271484 73.4331055,15.5205078 C73.7114258,15.7138672 73.9003906,15.9921875 74,16.3554688 L74,16.3554688 L76.3291016,15.9248047 C76.0947266,15.1103516 75.6669922,14.4951172 75.0458984,14.0791016 C74.4248047,13.6630859 73.4755859,13.4550781 72.1982422,13.4550781 Z M96.3681641,13.4550781 C95.1318359,13.4550781 94.109375,13.8930664 93.3007812,14.769043 C92.4921875,15.6450195 92.0878906,16.8564453 92.0878906,18.4033203 C92.0878906,19.6982422 92.3955078,20.7705078 93.0107422,21.6201172 C93.7900391,22.6806641 94.9912109,23.2109375 96.6142578,23.2109375 C97.6396484,23.2109375 98.4936523,22.9750977 99.1762695,22.503418 C99.8588867,22.0317383 100.358398,21.3447266 100.674805,20.4423828 L100.674805,20.4423828 L98.2138672,20.0292969 C98.0791016,20.4980469 97.8798828,20.8378906 97.6162109,21.0488281 C97.3525391,21.2597656 97.0273438,21.3652344 96.640625,21.3652344 C96.0722656,21.3652344 95.5976562,21.1616211 95.2167969,20.7543945 C94.8359375,20.347168 94.6367188,19.7773438 94.6191406,19.0449219 L94.6191406,19.0449219 L100.806641,19.0449219 C100.841797,17.1523438 100.458008,15.7475586 99.6552734,14.8305664 C98.8525391,13.9135742 97.7568359,13.4550781 96.3681641,13.4550781 Z M25.0800781,13.4550781 C24.6816406,13.4550781 24.3256836,13.5546875 24.012207,13.7539062 C23.6987305,13.953125 23.3457031,14.3662109 22.953125,14.9931641 L22.953125,14.9931641 L22.953125,13.6660156 L20.6591797,13.6660156 L20.6591797,23 L23.1289062,23 L23.1289062,20.1171875 C23.1289062,18.5292969 23.1977539,17.4863281 23.3354492,16.9882812 C23.4731445,16.4902344 23.6621094,16.1459961 23.9023438,15.9555664 C24.1425781,15.7651367 24.4355469,15.6699219 24.78125,15.6699219 C25.1386719,15.6699219 25.5253906,15.8046875 25.9414062,16.0742188 L25.9414062,16.0742188 L26.7060547,13.9208984 C26.1845703,13.6103516 25.6425781,13.4550781 25.0800781,13.4550781 Z M81.2773438,13.6660156 L78.8076172,13.6660156 L78.8076172,23 L81.2773438,23 L81.2773438,13.6660156 Z M90.875,13.6660156 L83.1582031,13.6660156 L83.1582031,15.7138672 L86.4541016,15.6962891 C86.9228516,15.6904297 87.3007812,15.6787109 87.5878906,15.6611328 C87.3125,15.9365234 86.8876953,16.4023438 86.3134766,17.0585938 L86.3134766,17.0585938 L82.8154297,21.0751953 L82.8154297,23 L91.1474609,23 L91.1474609,20.8291016 L87.2671777,20.8297168 C87.0725879,20.8334082 86.6667969,20.8537109 86.0498047,20.890625 L86.0498047,20.890625 L87.3066406,19.5283203 L90.875,15.4150391 L90.875,13.6660156 Z M31.4785156,15.3447266 C31.9824219,15.3447266 32.4101562,15.5307617 32.7617188,15.902832 C33.1132812,16.2749023 33.2978516,16.8183594 33.3154297,17.5332031 L33.3154297,17.5332031 L29.6240234,17.5332031 C29.6181641,16.859375 29.7910156,16.3261719 30.1425781,15.9335938 C30.4941406,15.5410156 30.9394531,15.3447266 31.4785156,15.3447266 Z M51.5,15.3447266 C52.0039062,15.3447266 52.4316406,15.5307617 52.7832031,15.902832 C53.1347656,16.2749023 53.3193359,16.8183594 53.3369141,17.5332031 L53.3369141,17.5332031 L49.6455078,17.5332031 C49.6396484,16.859375 49.8125,16.3261719 50.1640625,15.9335938 C50.515625,15.5410156 50.9609375,15.3447266 51.5,15.3447266 Z M96.5175781,15.3447266 C97.0214844,15.3447266 97.4492188,15.5307617 97.8007812,15.902832 C98.1523438,16.2749023 98.3369141,16.8183594 98.3544922,17.5332031 L98.3544922,17.5332031 L94.6630859,17.5332031 C94.6572266,16.859375 94.8300781,16.3261719 95.1816406,15.9335938 C95.5332031,15.5410156 95.9785156,15.3447266 96.5175781,15.3447266 Z M81.2773438,10.1152344 L78.8076172,10.1152344 L78.8076172,12.4003906 L81.2773438,12.4003906 L81.2773438,10.1152344 Z"></path>
    </g>
</svg>
