<?xml version="1.0" encoding="UTF-8"?>
<svg width="80px" height="24px" viewBox="0 0 80 24" version="1.1" xmlns="http://www.w3.org/2000/svg" xmlns:xlink="http://www.w3.org/1999/xlink">
    <title>RightClickCopy</title>
    <g fill="#80848A" stroke="none" stroke-width="1" fill-rule="evenodd">
        <path d="M75,0 C77.7614237,-5.07265313e-16 80,2.23857625 80,5 L80,19 C80,21.7614237 77.7614237,24 75,24 L5,24 C2.23857625,24 3.38176876e-16,21.7614237 0,19 L0,5 C-3.38176876e-16,2.23857625 2.23857625,1.39544373e-15 5,0 L75,0 Z M50.6914062,8.74023438 L48.6474609,8.74023438 L51.4091797,16.0205078 C51.2952474,16.4261068 51.1311849,16.7599284 50.9169922,17.0219727 C50.7027995,17.2840169 50.3723958,17.4150391 49.9257812,17.4150391 C49.7446289,17.4150391 49.546814,17.3983765 49.3323364,17.3650513 L49.1123047,17.3261719 L49.2832031,18.8300781 C49.6386719,18.9075521 50.0009766,18.9462891 50.3701172,18.9462891 C50.7347005,18.9462891 51.0616862,18.9075521 51.3510742,18.8300781 C51.6404622,18.7526042 51.8842773,18.6443685 52.0825195,18.5053711 C52.2807617,18.3663737 52.4562174,18.1852214 52.6088867,17.9619141 C52.7361111,17.7758247 52.8688739,17.52011 53.007175,17.19477 L53.0908203,16.9912109 L53.5488281,15.7265625 L56.1123047,8.74023438 L54.1230469,8.74023438 L52.4277344,13.8945312 L50.6914062,8.74023438 Z M45.0039062,8.57617188 C44.5208333,8.57617188 44.0810547,8.69010417 43.6845703,8.91796875 C43.3541667,9.1078559 43.0807292,9.34521484 42.8642578,9.63004557 L42.7412109,9.80664062 L42.7412109,8.74023438 L40.9501953,8.74023438 L40.9501953,18.7617188 L42.8710938,18.7617188 L42.8710938,15.1044922 C43.2311198,15.491862 43.574056,15.7652995 43.8999023,15.9248047 C44.2257487,16.0843099 44.5891927,16.1640625 44.9902344,16.1640625 C45.8333333,16.1640625 46.5511068,15.8279622 47.1435547,15.1557617 C47.7360026,14.4835612 48.0322266,13.5413411 48.0322266,12.3291016 C48.0322266,11.148763 47.7382812,10.2281901 47.1503906,9.56738281 C46.5625,8.90657552 45.8470052,8.57617188 45.0039062,8.57617188 Z M27.7636719,8.57617188 C26.6835938,8.57617188 25.8268229,8.90999349 25.1933594,9.57763672 C24.5598958,10.2452799 24.2431641,11.1783854 24.2431641,12.3769531 C24.2431641,13.561849 24.5587565,14.4892578 25.1899414,15.1591797 C25.8211263,15.8291016 26.6676432,16.1640625 27.7294922,16.1640625 C28.663737,16.1640625 29.4088542,15.9430339 29.9648438,15.5009766 C30.4652344,15.103125 30.8198145,14.533623 31.028584,13.7924707 L31.0927734,13.5390625 L29.2060547,13.2177734 C29.1103516,13.7236328 28.9462891,14.0802409 28.7138672,14.2875977 C28.4814453,14.4949544 28.1829427,14.5986328 27.8183594,14.5986328 C27.3307292,14.5986328 26.9422201,14.4208984 26.652832,14.0654297 C26.363444,13.7099609 26.21875,13.1015625 26.21875,12.2402344 C26.21875,11.4654948 26.3611654,10.9129232 26.6459961,10.5825195 C26.9308268,10.2521159 27.3125,10.0869141 27.7910156,10.0869141 C28.1510417,10.0869141 28.4438477,10.1826172 28.6694336,10.3740234 C28.862793,10.5380859 28.9967215,10.7707868 29.0712193,11.0721261 L29.1035156,11.2285156 L30.9970703,10.8867188 C30.7692057,10.1074219 30.3943685,9.52750651 29.8725586,9.14697266 C29.3507487,8.7664388 28.6477865,8.57617188 27.7636719,8.57617188 Z M35.7480469,8.57617188 C35.0371094,8.57617188 34.3933919,8.73339844 33.8168945,9.04785156 C33.2403971,9.36230469 32.7949219,9.81803385 32.4804688,10.4150391 C32.1660156,11.0120443 32.0087891,11.6295573 32.0087891,12.2675781 C32.0087891,13.1015625 32.1660156,13.809082 32.4804688,14.3901367 C32.7949219,14.9711914 33.254069,15.4121094 33.8579102,15.7128906 C34.4617513,16.0136719 35.0963542,16.1640625 35.7617188,16.1640625 C36.8372396,16.1640625 37.7293294,15.8028971 38.4379883,15.0805664 C39.1466471,14.3582357 39.5009766,13.4479167 39.5009766,12.3496094 C39.5009766,11.2604167 39.1500651,10.3592122 38.4482422,9.64599609 C37.7464193,8.93277995 36.8463542,8.57617188 35.7480469,8.57617188 Z M44.484375,10.09375 C44.9355469,10.09375 45.3138021,10.2783203 45.6191406,10.6474609 C45.9244792,11.0166016 46.0771484,11.5817057 46.0771484,12.3427734 C46.0771484,13.1585286 45.9290365,13.7452799 45.6328125,14.1030273 C45.3365885,14.4607747 44.9651693,14.6396484 44.5185547,14.6396484 C44.0537109,14.6396484 43.6595052,14.4448242 43.3359375,14.0551758 C43.0123698,13.6655273 42.8505859,13.0628255 42.8505859,12.2470703 C42.8505859,11.5361328 43.0055339,10.9995117 43.3154297,10.637207 C43.6253255,10.2749023 44.014974,10.09375 44.484375,10.09375 Z M35.7548828,10.1416016 C36.2561849,10.1416016 36.6765951,10.3330078 37.0161133,10.7158203 C37.3556315,11.0986328 37.5253906,11.6455078 37.5253906,12.3564453 C37.5253906,13.085612 37.3556315,13.6416016 37.0161133,14.0244141 C36.6765951,14.4072266 36.2561849,14.5986328 35.7548828,14.5986328 C35.2535807,14.5986328 34.8320312,14.4072266 34.4902344,14.0244141 C34.1484375,13.6416016 33.9775391,13.0901693 33.9775391,12.3701172 C33.9775391,11.6500651 34.1484375,11.0986328 34.4902344,10.7158203 C34.8320312,10.3330078 35.2535807,10.1416016 35.7548828,10.1416016 Z"></path>
    </g>
</svg>
