<?xml version="1.0" encoding="UTF-8"?>
<svg width="80px" height="24px" viewBox="0 0 80 24" version="1.1" xmlns="http://www.w3.org/2000/svg" xmlns:xlink="http://www.w3.org/1999/xlink">
    <title>Paste</title>
    <g stroke="none" stroke-width="1" fill="none" fill-rule="evenodd">
        <g id="Paste">
            <path fill-opacity="0.00997049825" fill="#FFFFFF" d="M0,0 L80,0 L80,16 C80,20.418278 76.418278,24 72,24 L8,24 C3.581722,24 5.41083001e-16,20.418278 0,16 L0,0 Z"></path>
            <path fill="#424242" fill-rule="nonzero" d="M16.9501953,8.74023438 L18.7412109,8.74023438 L18.7412109,9.80664062 C18.973634,9.44205547 19.288084,9.14583447 19.6845703,8.91796875 C20.0810567,8.69010303 20.5208309,8.57617188 21.0039062,8.57617188 C21.8470094,8.57617188 22.5624971,8.90657222 23.1503906,9.56738281 C23.7382842,10.2281934 24.0322266,11.1487571 24.0322266,12.3291016 C24.0322266,13.5413472 23.7360056,14.4835578 23.1435547,15.1557617 C22.5511038,15.8279656 21.8333375,16.1640625 20.9902344,16.1640625 C20.5891907,16.1640625 20.2257503,16.0843107 19.8999023,15.9248047 C19.5740544,15.7652987 19.2311216,15.4918639 18.8710938,15.1044922 L18.8710938,18.7617188 L16.9501953,18.7617188 L16.9501953,8.74023438 Z M18.8505859,12.2470703 C18.8505859,13.0628296 19.0123682,13.6655254 19.3359375,14.0551758 C19.6595068,14.4448262 20.0537086,14.6396484 20.5185547,14.6396484 C20.9651715,14.6396484 21.3365871,14.4607765 21.6328125,14.1030273 C21.9290379,13.7452782 22.0771484,13.1585327 22.0771484,12.3427734 C22.0771484,11.5817019 21.9244807,11.0166034 21.6191406,10.6474609 C21.3138006,10.2783185 20.9355491,10.09375 20.484375,10.09375 C20.0149716,10.09375 19.6253271,10.2749005 19.3154297,10.637207 C19.0055323,10.9995135 18.8505859,11.5361293 18.8505859,12.2470703 Z M26.9921875,10.9550781 L25.2490234,10.640625 C25.444988,9.93879857 25.7822242,9.41927252 26.2607422,9.08203125 C26.7392602,8.74478998 27.4501906,8.57617188 28.3935547,8.57617188 C29.2503298,8.57617188 29.8883443,8.6775706 30.3076172,8.88037109 C30.7268901,9.08317159 31.0219718,9.34065599 31.1928711,9.65283203 C31.3637704,9.96500807 31.4492188,10.5380818 31.4492188,11.3720703 L31.4287109,13.6142578 C31.4287109,14.2522818 31.4594723,14.7228175 31.5209961,15.0258789 C31.5825198,15.3289403 31.6975903,15.6536441 31.8662109,16 L29.9658203,16 C29.9156899,15.8723952 29.854167,15.6832695 29.78125,15.4326172 C29.7493488,15.3186843 29.7265626,15.2434898 29.7128906,15.2070312 C29.384764,15.5260433 29.033856,15.7652987 28.6601562,15.9248047 C28.2864565,16.0843107 27.8876974,16.1640625 27.4638672,16.1640625 C26.7164676,16.1640625 26.1274436,15.961265 25.6967773,15.5556641 C25.2661111,15.1500631 25.0507812,14.6373729 25.0507812,14.0175781 C25.0507812,13.6074198 25.148762,13.2417008 25.3447266,12.9204102 C25.5406911,12.5991195 25.8152652,12.3530282 26.168457,12.1821289 C26.5216489,12.0112296 27.0309212,11.8619798 27.6962891,11.734375 C28.59408,11.5657544 29.2161441,11.4085294 29.5625,11.2626953 L29.5625,11.0712891 C29.5625,10.7021466 29.4713551,10.4389656 29.2890625,10.2817383 C29.1067699,10.1245109 28.7626978,10.0458984 28.2568359,10.0458984 C27.9150374,10.0458984 27.6484385,10.1131178 27.4570312,10.2475586 C27.265624,10.3819994 27.1106777,10.6178369 26.9921875,10.9550781 Z M29.5625,12.5136719 C29.316405,12.5957035 28.9267605,12.6936843 28.3935547,12.8076172 C27.8603489,12.92155 27.5117196,13.0332026 27.3476562,13.1425781 C27.097004,13.3203134 26.9716797,13.5458971 26.9716797,13.8193359 C26.9716797,14.0882175 27.0719391,14.320637 27.2724609,14.5166016 C27.4729828,14.7125661 27.7281886,14.8105469 28.0380859,14.8105469 C28.3844418,14.8105469 28.7148422,14.6966157 29.0292969,14.46875 C29.2617199,14.2955721 29.4143877,14.0836601 29.4873047,13.8330078 C29.5374351,13.6689445 29.5625,13.3567731 29.5625,12.8964844 L29.5625,12.5136719 Z M32.6660156,13.9287109 L34.59375,13.6347656 C34.6757817,14.0084654 34.8421211,14.292154 35.0927734,14.4858398 C35.3434257,14.6795257 35.6943337,14.7763672 36.1455078,14.7763672 C36.6422551,14.7763672 37.0159493,14.6852223 37.2666016,14.5029297 C37.4352222,14.3753249 37.5195312,14.2044282 37.5195312,13.9902344 C37.5195312,13.8444003 37.4739588,13.7236333 37.3828125,13.6279297 C37.2871089,13.5367834 37.0729183,13.4524743 36.7402344,13.375 C35.1907475,13.0332014 34.2086609,12.7210301 33.7939453,12.4384766 C33.2197237,12.0465475 32.9326172,11.5019566 32.9326172,10.8046875 C32.9326172,10.1757781 33.1809871,9.64713756 33.6777344,9.21875 C34.1744817,8.79036244 34.9446562,8.57617188 35.9882812,8.57617188 C36.9817758,8.57617188 37.7200497,8.73795411 38.203125,9.06152344 C38.6862003,9.38509276 39.0188793,9.8636036 39.2011719,10.4970703 L37.3896484,10.8320312 C37.3121741,10.5494778 37.1652029,10.3330086 36.9487305,10.1826172 C36.732258,10.0322258 36.4235046,9.95703125 36.0224609,9.95703125 C35.516599,9.95703125 35.154298,10.0276686 34.9355469,10.1689453 C34.7897128,10.2692062 34.7167969,10.3990877 34.7167969,10.5585938 C34.7167969,10.6953132 34.7805983,10.811523 34.9082031,10.9072266 C35.0813811,11.0348314 35.6795196,11.2148426 36.7026367,11.4472656 C37.7257538,11.6796887 38.4401021,11.9645165 38.8457031,12.3017578 C39.2467468,12.6435564 39.4472656,13.1197886 39.4472656,13.7304688 C39.4472656,14.3958367 39.1692736,14.967771 38.6132812,15.4462891 C38.0572889,15.9248071 37.234706,16.1640625 36.1455078,16.1640625 C35.1565706,16.1640625 34.3738636,15.9635437 33.7973633,15.5625 C33.220863,15.1614563 32.8437509,14.6168654 32.6660156,13.9287109 Z M44.4580078,8.74023438 L44.4580078,10.2714844 L43.1455078,10.2714844 L43.1455078,13.1972656 C43.1455078,13.7897165 43.1580402,14.1349279 43.1831055,14.2329102 C43.2081707,14.3308924 43.2651363,14.4117835 43.3540039,14.4755859 C43.4428715,14.5393883 43.5511061,14.5712891 43.6787109,14.5712891 C43.8564462,14.5712891 44.1139306,14.5097662 44.4511719,14.3867188 L44.6152344,15.8769531 C44.1686176,16.0683603 43.6627632,16.1640625 43.0976562,16.1640625 C42.7513004,16.1640625 42.439129,16.1059576 42.1611328,15.9897461 C41.8831366,15.8735346 41.6791999,15.7231455 41.5493164,15.5385742 C41.4194329,15.354003 41.3294273,15.1044938 41.2792969,14.7900391 C41.238281,14.5667307 41.2177734,14.1155633 41.2177734,13.4365234 L41.2177734,10.2714844 L40.3359375,10.2714844 L40.3359375,8.74023438 L41.2177734,8.74023438 L41.2177734,7.29785156 L43.1455078,6.17675781 L43.1455078,8.74023438 L44.4580078,8.74023438 Z M49.9951172,13.6894531 L51.9091797,14.0107422 C51.6630847,14.7125686 51.2745795,15.2469057 50.7436523,15.6137695 C50.2127252,15.9806333 49.5485066,16.1640625 48.7509766,16.1640625 C47.4886005,16.1640625 46.554365,15.7516317 45.9482422,14.9267578 C45.4697242,14.2659472 45.2304688,13.4319712 45.2304688,12.4248047 C45.2304688,11.2216737 45.5449187,10.279463 46.1738281,9.59814453 C46.8027375,8.91682602 47.597977,8.57617188 48.5595703,8.57617188 C49.6396538,8.57617188 50.4918589,8.93277638 51.1162109,9.64599609 C51.740563,10.3592158 52.0390626,11.4518156 52.0117188,12.9238281 L47.1992188,12.9238281 C47.2128907,13.4934924 47.3678371,13.9366846 47.6640625,14.253418 C47.9602879,14.5701513 48.3294249,14.7285156 48.7714844,14.7285156 C49.0722671,14.7285156 49.3251943,14.6464852 49.5302734,14.4824219 C49.7353526,14.3183586 49.890299,14.0540383 49.9951172,13.6894531 Z M50.1044922,11.7480469 C50.0908202,11.1920545 49.947267,10.7693699 49.6738281,10.4799805 C49.4003893,10.190591 49.0677103,10.0458984 48.6757812,10.0458984 C48.2565083,10.0458984 47.9101576,10.1985662 47.6367188,10.5039062 C47.3632799,10.8092463 47.2288411,11.2239557 47.2333984,11.7480469 L50.1044922,11.7480469 Z"></path>
        </g>
    </g>
</svg>
