<?xml version="1.0" encoding="UTF-8"?>
<svg width="80px" height="24px" viewBox="0 0 80 24" version="1.1" xmlns="http://www.w3.org/2000/svg" xmlns:xlink="http://www.w3.org/1999/xlink">
    <title>RightClickPaste</title>
    <g fill="#80848A" stroke="none" stroke-width="1" fill-rule="evenodd">
        <path d="M75,0 C77.7614237,-5.07265313e-16 80,2.23857625 80,5 L80,19 C80,21.7614237 77.7614237,24 75,24 L5,24 C2.23857625,24 3.38176876e-16,21.7614237 0,19 L0,5 C-3.38176876e-16,2.23857625 2.23857625,1.39544373e-15 5,0 L75,0 Z M26.7177734,8.57617188 C26.2347005,8.57617188 25.7949219,8.69010417 25.3984375,8.91796875 C25.0680339,9.1078559 24.7945964,9.34521484 24.578125,9.63004557 L24.4550781,9.80664062 L24.4550781,8.74023438 L22.6640625,8.74023438 L22.6640625,18.7617188 L24.5849609,18.7617188 L24.5849609,15.1044922 C24.944987,15.491862 25.2879232,15.7652995 25.6137695,15.9248047 C25.9396159,16.0843099 26.3030599,16.1640625 26.7041016,16.1640625 C27.5472005,16.1640625 28.264974,15.8279622 28.8574219,15.1557617 C29.4498698,14.4835612 29.7460938,13.5413411 29.7460938,12.3291016 C29.7460938,11.148763 29.4521484,10.2281901 28.8642578,9.56738281 C28.2763672,8.90657552 27.5608724,8.57617188 26.7177734,8.57617188 Z M34.1074219,8.57617188 C33.1640625,8.57617188 32.453125,8.74479167 31.9746094,9.08203125 C31.5492622,9.38179977 31.2355404,9.82560121 31.0334443,10.4134356 L30.9628906,10.640625 L32.7060547,10.9550781 C32.8245443,10.6178385 32.9794922,10.3819987 33.1708984,10.2475586 C33.3623047,10.1131185 33.6289063,10.0458984 33.9707031,10.0458984 C34.4765625,10.0458984 34.820638,10.1245117 35.0029297,10.2817383 C35.1591797,10.4165039 35.2484654,10.6291155 35.2707868,10.9195731 L35.2763672,11.0712891 L35.2763672,11.2626953 C34.930013,11.4085286 34.3079427,11.5657552 33.4101563,11.734375 C32.7447917,11.8619792 32.2355143,12.0112305 31.8823242,12.1821289 C31.5291341,12.3530273 31.2545573,12.5991211 31.0585938,12.9204102 C30.8626302,13.2416992 30.7646484,13.6074219 30.7646484,14.0175781 C30.7646484,14.6373698 30.9799805,15.1500651 31.4106445,15.5556641 C31.8413086,15.961263 32.4303385,16.1640625 33.1777344,16.1640625 C33.6015625,16.1640625 34.0003255,16.0843099 34.3740234,15.9248047 C34.7477214,15.7652995 35.0986328,15.5260417 35.4267578,15.2070312 C35.4404297,15.2434896 35.4632161,15.3186849 35.4951172,15.4326172 C35.5534505,15.633138 35.6044922,15.7942839 35.6482422,15.9160547 L35.6796875,16 L37.5800781,16 C37.4114583,15.6536458 37.2963867,15.3289388 37.2348633,15.0258789 C37.1810303,14.7607015 37.1507492,14.3672969 37.1440201,13.845665 L37.1425781,13.6142578 L37.1630859,11.3720703 C37.1630859,10.5380859 37.0776367,9.96500651 36.9067383,9.65283203 C36.7358398,9.34065755 36.4407552,9.08317057 36.0214844,8.88037109 C35.6022135,8.67757161 34.9641927,8.57617188 34.1074219,8.57617188 Z M41.7021484,8.57617188 C40.6585286,8.57617188 39.8883464,8.79036458 39.3916016,9.21875 C38.8948568,9.64713542 38.6464844,10.1757812 38.6464844,10.8046875 C38.6464844,11.5019531 38.9335938,12.0465495 39.5078125,12.4384766 C39.922526,12.7210286 40.9046224,13.0332031 42.4541016,13.375 C42.7867839,13.452474 43.0009766,13.5367839 43.0966797,13.6279297 C43.1878255,13.7236328 43.2333984,13.844401 43.2333984,13.9902344 C43.2333984,14.2044271 43.1490885,14.3753255 42.9804688,14.5029297 C42.7298177,14.6852214 42.3561198,14.7763672 41.859375,14.7763672 C41.4082031,14.7763672 41.0572917,14.6795247 40.8066406,14.4858398 C40.5917969,14.3198242 40.4388951,14.0876814 40.3479353,13.7894113 L40.3076172,13.6347656 L38.3798828,13.9287109 C38.5576172,14.616862 38.9347331,15.1614583 39.5112305,15.5625 C40.0877279,15.9635417 40.8704427,16.1640625 41.859375,16.1640625 C42.9485677,16.1640625 43.7711589,15.9248047 44.3271484,15.4462891 C44.883138,14.9677734 45.1611328,14.3958333 45.1611328,13.7304688 C45.1611328,13.1197917 44.960612,12.6435547 44.5595703,12.3017578 C44.1539714,11.9645182 43.4396159,11.6796875 42.4165039,11.4472656 C41.3933919,11.2148438 40.7952474,11.0348307 40.6220703,10.9072266 C40.4944661,10.8115234 40.4306641,10.6953125 40.4306641,10.5585938 C40.4306641,10.3990885 40.5035807,10.2692057 40.6494141,10.1689453 C40.8681641,10.0276693 41.2304688,9.95703125 41.7363281,9.95703125 C42.1373698,9.95703125 42.4461263,10.0322266 42.6625977,10.1826172 C42.8429905,10.3079427 42.9751203,10.4791576 43.0589871,10.6962619 L43.1035156,10.8320312 L44.9150391,10.4970703 C44.7327474,9.86360677 44.4000651,9.38509115 43.9169922,9.06152344 C43.4339193,8.73795573 42.695638,8.57617188 41.7021484,8.57617188 Z M48.859375,6.17675781 L46.9316406,7.29785156 L46.9316406,8.74023438 L46.0498047,8.74023438 L46.0498047,10.2714844 L46.9316406,10.2714844 L46.9316406,13.4365234 C46.9316406,14.1155599 46.9521484,14.5667318 46.9931641,14.7900391 C47.0432943,15.1044922 47.1333008,15.3540039 47.2631836,15.5385742 C47.3930664,15.7231445 47.5970052,15.8735352 47.875,15.9897461 C48.1529948,16.105957 48.4651693,16.1640625 48.8115234,16.1640625 C49.2824436,16.1640625 49.7122215,16.097602 50.1008572,15.964681 L50.3291016,15.8769531 L50.1650391,14.3867188 C49.8277995,14.5097656 49.5703125,14.5712891 49.3925781,14.5712891 C49.264974,14.5712891 49.1567383,14.539388 49.0678711,14.4755859 C48.9790039,14.4117839 48.9220378,14.3308919 48.8969727,14.2329102 C48.8746926,14.1458152 48.8623147,13.8633757 48.8598392,13.3855915 L48.859375,10.2714844 L50.171875,10.2714844 L50.171875,8.74023438 L48.859375,8.74023438 L48.859375,6.17675781 Z M54.2734375,8.57617188 C53.311849,8.57617188 52.5166016,8.91682943 51.8876953,9.59814453 C51.2587891,10.2794596 50.9443359,11.2216797 50.9443359,12.4248047 C50.9443359,13.4319661 51.1835938,14.2659505 51.6621094,14.9267578 C52.2682292,15.7516276 53.202474,16.1640625 54.4648438,16.1640625 C55.2623698,16.1640625 55.9265951,15.9806315 56.4575195,15.6137695 C56.9294524,15.28767 57.2888596,14.8292402 57.535741,14.2384802 L57.6230469,14.0107422 L55.7089844,13.6894531 C55.6041667,14.0540365 55.4492188,14.3183594 55.2441406,14.4824219 C55.0390625,14.6464844 54.7861328,14.7285156 54.4853516,14.7285156 C54.0432943,14.7285156 53.6741536,14.5701497 53.3779297,14.253418 C53.1187337,13.9762777 52.9677022,13.6023127 52.9248352,13.1315231 L52.9130859,12.9238281 L57.7255859,12.9238281 C57.7529297,11.4518229 57.4544271,10.3592122 56.8300781,9.64599609 C56.2057292,8.93277995 55.3535156,8.57617188 54.2734375,8.57617188 Z M35.2763672,12.5136719 L35.2763672,12.8964844 C35.2763672,13.3567708 35.2513021,13.6689453 35.2011719,13.8330078 C35.1282552,14.0836589 34.9755859,14.2955729 34.7431641,14.46875 C34.4287109,14.6966146 34.0983073,14.8105469 33.7519531,14.8105469 C33.4420573,14.8105469 33.186849,14.7125651 32.9863281,14.5166016 C32.7858073,14.320638 32.6855469,14.0882161 32.6855469,13.8193359 C32.6855469,13.5458984 32.8108724,13.3203125 33.0615234,13.1425781 C33.2255859,13.0332031 33.5742188,12.9215495 34.1074219,12.8076172 C34.5644531,12.7099609 34.9160156,12.6240234 35.1621094,12.5498047 L35.2763672,12.5136719 Z M26.1982422,10.09375 C26.6494141,10.09375 27.0276693,10.2783203 27.3330078,10.6474609 C27.6383464,11.0166016 27.7910156,11.5817057 27.7910156,12.3427734 C27.7910156,13.1585286 27.6429036,13.7452799 27.3466797,14.1030273 C27.0504557,14.4607747 26.6790365,14.6396484 26.2324219,14.6396484 C25.7675781,14.6396484 25.3733724,14.4448242 25.0498047,14.0551758 C24.726237,13.6655273 24.5644531,13.0628255 24.5644531,12.2470703 C24.5644531,11.5361328 24.719401,10.9995117 25.0292969,10.637207 C25.3391927,10.2749023 25.7288411,10.09375 26.1982422,10.09375 Z M54.3896484,10.0458984 C54.7815755,10.0458984 55.1142578,10.1905924 55.3876953,10.4799805 C55.6611328,10.7693685 55.8046875,11.1920573 55.8183594,11.7480469 L52.9472656,11.7480469 C52.9427083,11.2239583 53.0771484,10.8092448 53.3505859,10.5039062 C53.6240234,10.1985677 53.9703776,10.0458984 54.3896484,10.0458984 Z"></path>
    </g>
</svg>
