<?xml version="1.0" encoding="UTF-8"?>
<svg width="80px" height="24px" viewBox="0 0 80 24">
    <g fill="#80848A" stroke="none" stroke-width="1" fill-rule="evenodd">
        <path d="M75,0 C77.7614237,-5.07265313e-16 80,2.23857625 80,5 L80,19 C80,21.7614237 77.7614237,24 75,24 L5,24 C2.23857625,24 3.38176876e-16,21.7614237 0,19 L0,5 C-3.38176876e-16,2.23857625 2.23857625,1.39544373e-15 5,0 L75,0 Z M33.6015625,8.57617188 C32.5214844,8.57617188 31.6647135,8.90999349 31.03125,9.57763672 C30.3977865,10.2452799 30.0810547,11.1783854 30.0810547,12.3769531 C30.0810547,13.561849 30.3966471,14.4892578 31.027832,15.1591797 C31.6590169,15.8291016 32.5055339,16.1640625 33.5673828,16.1640625 C34.5016276,16.1640625 35.2467448,15.9430339 35.8027344,15.5009766 C36.303125,15.103125 36.6577051,14.533623 36.8664746,13.7924707 L36.9306641,13.5390625 L35.0439453,13.2177734 C34.9482422,13.7236328 34.7841797,14.0802409 34.5517578,14.2875977 C34.3193359,14.4949544 34.0208333,14.5986328 33.65625,14.5986328 C33.1686198,14.5986328 32.7801107,14.4208984 32.4907227,14.0654297 C32.2013346,13.7099609 32.0566406,13.1015625 32.0566406,12.2402344 C32.0566406,11.4654948 32.199056,10.9129232 32.4838867,10.5825195 C32.7687174,10.2521159 33.1503906,10.0869141 33.6289062,10.0869141 C33.9889323,10.0869141 34.2817383,10.1826172 34.5073242,10.3740234 C34.7006836,10.5380859 34.8346122,10.7707868 34.9091099,11.0721261 L34.9414062,11.2285156 L36.8349609,10.8867188 C36.6070964,10.1074219 36.2322591,9.52750651 35.7104492,9.14697266 C35.1886393,8.7664388 34.4856771,8.57617188 33.6015625,8.57617188 Z M40.1708984,8.74023438 L38.25,8.74023438 L38.25,13.3339844 C38.25,14.0175781 38.3365885,14.5530599 38.5097656,14.9404297 C38.6829427,15.3277995 38.9632161,15.6285807 39.3505859,15.8427734 C39.7379557,16.0569661 40.1754557,16.1640625 40.6630859,16.1640625 C41.1416016,16.1640625 41.5961914,16.0524089 42.0268555,15.8291016 C42.3959961,15.6376953 42.7040318,15.3860212 42.9509626,15.0740792 L43.0693359,14.9130859 L43.0693359,16 L44.8535156,16 L44.8535156,8.74023438 L42.9326172,8.74023438 L42.9326172,11.8027344 C42.9326172,12.8417969 42.8847656,13.4946289 42.7890625,13.7612305 C42.6933594,14.027832 42.515625,14.2511393 42.2558594,14.4311523 C41.9960938,14.6111654 41.7021484,14.7011719 41.3740234,14.7011719 C41.0869141,14.7011719 40.8499349,14.6339518 40.6630859,14.4995117 C40.476237,14.3650716 40.3474935,14.1827799 40.2768555,13.9526367 C40.2116511,13.7401968 40.1765411,13.1908949 40.1715254,12.3047308 L40.1708984,12.0761719 L40.1708984,8.74023438 Z M48.859375,6.17675781 L46.9316406,7.29785156 L46.9316406,8.74023438 L46.0498047,8.74023438 L46.0498047,10.2714844 L46.9316406,10.2714844 L46.9316406,13.4365234 C46.9316406,14.1155599 46.9521484,14.5667318 46.9931641,14.7900391 C47.0432943,15.1044922 47.1333008,15.3540039 47.2631836,15.5385742 C47.3930664,15.7231445 47.5970052,15.8735352 47.875,15.9897461 C48.1529948,16.105957 48.4651693,16.1640625 48.8115234,16.1640625 C49.2824436,16.1640625 49.7122215,16.097602 50.1008572,15.964681 L50.3291016,15.8769531 L50.1650391,14.3867188 C49.8277995,14.5097656 49.5703125,14.5712891 49.3925781,14.5712891 C49.264974,14.5712891 49.1567383,14.539388 49.0678711,14.4755859 C48.9790039,14.4117839 48.9220378,14.3308919 48.8969727,14.2329102 C48.8746926,14.1458152 48.8623147,13.8633757 48.8598392,13.3855915 L48.859375,10.2714844 L50.171875,10.2714844 L50.171875,8.74023438 L48.859375,8.74023438 L48.859375,6.17675781 Z"></path>
    </g>
</svg>
