<?xml version="1.0" encoding="UTF-8"?>
<svg width="34px" height="34px" viewBox="0 0 34 34" version="1.1" xmlns="http://www.w3.org/2000/svg" xmlns:xlink="http://www.w3.org/1999/xlink">
    <title>Save</title>
    <g stroke="none" stroke-width="1" fill="none" fill-rule="evenodd">
        <g id="Save">
            <rect fill="#C0C0C0" x="0" y="0" width="34" height="34" rx="5"></rect>
            <path fill="#FFFFFF" fill-rule="nonzero" d="M15.584861,25.7516083 L8.64382303,18.9825362 C6.69153061,17.1123164 9.61996918,14.3063254 11.5729519,16.1765452 L13.9490338,18.4613961 C14.4899651,18.981558 14.9286662,18.8091254 14.9286662,18.0760322 L14.9286662,8.97907306 C14.9286662,7.89202303 15.8558986,7 16.9996978,7 C18.1411695,7 19.0707293,7.88606121 19.0707293,8.97907306 L19.0707293,18.0760322 C19.0707293,18.8051724 19.5094159,18.9816587 20.0505632,18.4613961 L22.4271339,16.1765452 C24.3794263,14.3063254 27.3085552,17.1123164 25.3562628,18.9825362 L18.4863635,25.7422634 C17.6831648,26.5325813 16.3870281,26.5339015 15.584861,25.7516083 Z"></path>
        </g>
    </g>
</svg>
