<?xml version="1.0" encoding="UTF-8"?>
<svg width="34px" height="34px" viewBox="0 0 100 100" version="1.1" xmlns="http://www.w3.org/2000/svg" xmlns:xlink="http://www.w3.org/1999/xlink">
    <title>Save</title>
    <g stroke="none" stroke-width="1" fill="none" fill-rule="evenodd">
        <path id="Save" fill="#C0C0C0" fill-rule="nonzero" d="M50.5,0.5 C78.1142375,0.5 100.5,22.8857625 100.5,50.5 C100.5,78.1142375 78.1142375,100.5 50.5,100.5 C22.8857625,100.5 0.5,78.1142375 0.5,50.5 C0.5,22.8857625 22.8857625,0.5 50.5,0.5 Z M47.4491199,70.4332781 L32.4850248,55.1558585 C28.2761025,50.9348764 34.5894858,44.6019106 38.7998964,48.8228928 L43.922461,53.9796742 C45.0886479,55.1536507 46.0344379,54.76448 46.0344379,53.1099294 L46.0344379,32.5785982 C46.0344379,30.1251867 48.0334464,28.1119403 50.4993484,28.1119403 C52.9602327,28.1119403 54.9642588,30.1117312 54.9642588,32.5785982 L54.9642588,53.1099294 C54.9642588,54.7555582 55.9100176,55.1538781 57.0766703,53.9796742 L62.2002887,48.8228928 C66.4092109,44.6019106 72.7240825,50.9348764 68.5151603,55.1558585 L53.7044321,70.4121872 C51.9728263,72.1958906 49.1785016,72.1988704 47.4491199,70.4332781 Z M50.5,10.9477612 C28.6559016,10.9477612 10.9477612,28.6559016 10.9477612,50.5 C10.9477612,72.3440984 28.6559016,90.0522388 50.5,90.0522388 C72.3440984,90.0522388 90.0522388,72.3440984 90.0522388,50.5 C90.0522388,28.6559016 72.3440984,10.9477612 50.5,10.9477612 Z"></path>
    </g>
</svg>
