<?xml version="1.0" encoding="UTF-8"?>
<svg width="34px" height="34px" viewBox="0 0 34 34" version="1.1" xmlns="http://www.w3.org/2000/svg" xmlns:xlink="http://www.w3.org/1999/xlink">
    <title>SaveON</title>
    <g stroke="none" stroke-width="1" fill="none" fill-rule="evenodd">
        <g id="SaveON">
            <rect fill="#57BA7B" x="0" y="0" width="34" height="34" rx="5"></rect>
            <path d="M21.1376675,18.2429366 L26.1910288,18.2429366 C26.4058781,18.2429366 26.6111644,18.3275277 26.7631269,18.4787061 C27.0789577,18.792965 27.0789577,19.3028974 26.7631269,19.6171397 L20.6901629,25.6594513 C20.6764227,25.6759167 20.6627358,25.6916041 20.6472357,25.7070263 L17.5795647,28.7592411 C17.4267155,28.9156897 17.2168962,29.0004929 16.9981343,29 C16.7831427,28.999485 16.5776966,28.9156543 16.4255214,28.7642283 L13.3551144,25.7092373 C13.3382812,25.6928249 13.3235455,25.6760942 13.3088456,25.6584082 L7.23845512,19.6185673 C7.08605017,19.4669118 7,19.2625701 7,19.0479018 C7,18.6034933 7.36241972,18.2429146 7.80907688,18.2429146 L12.8624832,18.2429146 L12.8624832,6.80498719 C12.8624832,6.36057875 13.224903,6 13.6715601,6 L20.3285732,6 C20.7752295,6 21.137632,6.36057786 21.137632,6.80498719 L21.137632,18.2429146 L21.1376676,18.2429323 L21.1376675,18.2429366 Z" id="Path" fill="#FFFFFF"></path>
        </g>
    </g>
</svg>
