<?xml version="1.0" encoding="UTF-8"?>
<svg width="34px" height="34px" viewBox="0 0 34 34" version="1.1" xmlns="http://www.w3.org/2000/svg" xmlns:xlink="http://www.w3.org/1999/xlink">
    <title>Save</title>
    <g stroke="none" stroke-width="1" fill="none" fill-rule="evenodd">
        <rect fill="#8E959E" x="0" y="0" width="34" height="34" rx="5"></rect>
        <path fill="#FFFFFF" d="M20.0642616,17.5814286 L24.019066,17.5814286 C24.187209,17.5814286 24.3478678,17.6476304 24.466795,17.7659439 C24.7139669,18.0118856 24.7139669,18.4109632 24.466795,18.6568919 L19.7140406,23.3856575 C19.7032873,23.3985435 19.6925758,23.4108206 19.6804454,23.4228901 L17.2796594,25.81158 C17.1600382,25.9340181 16.9958318,26.0003857 16.8246268,26 C16.6563726,25.9995969 16.4955886,25.9339903 16.376495,25.815483 L13.9735678,23.4246205 C13.960394,23.411776 13.9488617,23.3986824 13.9373574,23.3848412 L9.18661705,18.6580092 C9.06734361,18.5393223 9,18.3794027 9,18.2114014 C9,17.8636035 9.28363282,17.5814114 9.6331906,17.5814114 L13.5880304,17.5814114 L13.5880304,8.62998997 C13.5880304,8.28219207 13.8716632,8 14.221221,8 L19.4310573,8 C19.7806144,8 20.0642338,8.28219137 20.0642338,8.62998997 L20.0642338,17.5814114 L20.0642616,17.5814253 L20.0642616,17.5814286 Z"></path>
    </g>
</svg>
