<?xml version="1.0" encoding="UTF-8"?>
<svg width="34px" height="34px" viewBox="0 0 34 34" version="1.1" xmlns="http://www.w3.org/2000/svg" xmlns:xlink="http://www.w3.org/1999/xlink">
    <title>Success</title>
    <g stroke="none" stroke-width="1" fill="none" fill-rule="evenodd">
        <rect fill="#FFFFFF" x="0" y="0" width="34" height="34" rx="5"></rect>
        <path fill="#80848A" d="M29,0 C31.7614237,-5.07265313e-16 34,2.23857625 34,5 L34,29 C34,31.7614237 31.7614237,34 29,34 L5,34 C2.23857625,34 2.11453371e-15,31.7614237 0,29 L0,5 C-3.38176876e-16,2.23857625 2.23857625,2.28362215e-15 5,0 L29,0 Z M27,4 L7,4 C5.34314575,4 4,5.34314575 4,7 L4,7 L4,27 C4,28.6568542 5.34314575,30 7,30 L7,30 L27,30 C28.6568542,30 30,28.6568542 30,27 L30,27 L30,7 C30,5.34314575 28.6568542,4 27,4 L27,4 Z"></path>
        <path fill="#80848A" fill-rule="nonzero" d="M11.5060893,17.705134 C11.0512546,17.1237158 10.1821373,16.9996809 9.56486156,17.4280943 C8.94758585,17.8565078 8.81590143,18.6751382 9.27073616,19.2565564 L14.1298625,25.4680098 C14.7201008,26.2225152 15.936592,26.1644189 16.4427822,25.3575509 L25.466874,10.9731326 C25.8569416,10.351364 25.6380254,9.54947743 24.9779109,9.1820687 C24.3177964,8.81466008 23.4664555,9.02085947 23.0763878,9.64262805 L15.120106,22.3249554 L11.5060893,17.705134 Z"></path>
    </g>
</svg>
