<?xml version="1.0" encoding="UTF-8"?>
<svg width="34px" height="34px" viewBox="0 0 100 100" version="1.1" xmlns="http://www.w3.org/2000/svg" xmlns:xlink="http://www.w3.org/1999/xlink">
    <title>Success</title>
    <g stroke="none" stroke-width="1" fill="none" fill-rule="evenodd">
        <g id="Success" fill-rule="nonzero">
            <path fill="#C0C0C0" d="M50,0 C77.6142375,0 100,22.3857625 100,50 C100,77.6142375 77.6142375,100 50,100 C22.3857625,100 0,77.6142375 0,50 C0,22.3857625 22.3857625,0 50,0 Z"></path>
            <path fill="#EBEBEB" d="M50,10.4477612 C28.1559016,10.4477612 10.4477612,28.1559016 10.4477612,50 C10.4477612,71.8440984 28.1559016,89.5522388 50,89.5522388 C71.8440984,89.5522388 89.5522388,71.8440984 89.5522388,50 C89.5522388,28.1559016 71.8440984,10.4477612 50,10.4477612 Z"></path>
            <path fill="#C0C0C0" d="M31.870851,52.1033354 C30.5331017,50.3932817 27.9768743,50.0284733 26.1613575,51.2885127 C24.3458407,52.5485524 23.9585336,54.9562888 25.2962828,56.6663425 L39.5878309,74.9353229 C41.3238259,77.1544566 44.9017413,76.9835849 46.3905359,74.6104437 L72.9319824,32.3033312 C74.0792401,30.4746001 73.4353689,28.1161101 71.4938556,27.0354962 C69.5523422,25.9548826 67.0483985,26.5613514 65.9011406,28.3900825 L42.5003116,65.6910452 L31.870851,52.1033354 Z"></path>
        </g>
    </g>
</svg>
