<?xml version="1.0" encoding="UTF-8"?>
<svg width="34px" height="34px" viewBox="0 0 34 34" version="1.1" xmlns="http://www.w3.org/2000/svg" xmlns:xlink="http://www.w3.org/1999/xlink">
    <title>ThroughON</title>
    <g id="Page-1" stroke="none" stroke-width="1" fill="none" fill-rule="evenodd">
        <g id="Elements" transform="translate(-86.000000, -103.000000)">
            <g id="ThroughON" transform="translate(86.000000, 103.000000)">
                <rect id="Button" fill="#00A8E8" x="0" y="0" width="34" height="34" rx="5"></rect>
                <path d="M7.15681219,11.3885117 C7.05104943,11.2819598 6.99441777,11.1382204 7.00043495,10.9905177 C7.00450134,10.8806901 7.04263251,10.7746187 7.10983003,10.6862079 L9.18138244,7.96228065 L11.2528394,5.2415713 C11.358731,5.10251964 11.5262506,5.02051413 11.7043017,5.02056792 C11.8823528,5.02062171 12.0498199,5.10272842 12.1556225,5.24184403 L14.2240165,7.96247155 L16.2953949,10.686017 C16.4212815,10.851569 16.440491,11.0718709 16.3450633,11.255634 C16.2496356,11.4393972 16.0558306,11.5553104 15.843957,11.5553416 L13.9618934,11.5553416 C13.9434541,12.0417357 13.9444827,17.674874 13.9649791,28.4547564 C13.9649365,28.7558649 13.7136762,28.9999529 13.4037138,29 L10.3490123,29 C10.1991881,29.0000058 10.0555784,28.9418296 9.95014774,28.8384201 C9.84471706,28.7350105 9.78621493,28.5949496 9.78766273,28.4494118 L9.83898818,11.5553143 L7.56075134,11.5553143 C7.40838155,11.555273 7.26257494,11.4950636 7.15681219,11.3885117 Z M26.8484157,11.3679438 C26.9541785,11.2613919 27.0108101,11.1176525 27.0047929,10.9699498 C27.0007266,10.8601222 26.9625954,10.7540508 26.8953979,10.66564 L24.8238455,7.94171275 L22.7523885,5.22100341 C22.6464969,5.08195175 22.4789772,4.99994624 22.3009261,5.00000003 C22.122875,5.00005381 21.955408,5.08216053 21.8496054,5.22127614 L19.7812114,7.94190366 L17.709833,10.6654491 C17.5839464,10.8310011 17.5647369,11.051303 17.6601646,11.2350662 C17.7555923,11.4188293 17.9493973,11.5347425 18.1612709,11.5347737 L20.0433345,11.5347737 C20.0617738,12.0211678 20.0607452,17.6543061 20.0402488,28.4341885 C20.0402914,28.735297 20.2915517,28.979385 20.6015141,28.9794321 L23.6562156,28.9794321 C23.8060398,28.979438 23.9496495,28.9212617 24.0550802,28.8178522 C24.1605108,28.7144427 24.219013,28.5743817 24.2175652,28.4288439 L24.1662397,11.5347464 L26.4444766,11.5347464 C26.5968463,11.5347051 26.7426529,11.4744957 26.8484157,11.3679438 Z" id="Through" fill="#FFFFFF"></path>
            </g>
        </g>
    </g>
</svg>
