<?xml version="1.0" encoding="UTF-8"?>
<svg width="40px" height="40px" viewBox="0 0 40 40" version="1.1" xmlns="http://www.w3.org/2000/svg" xmlns:xlink="http://www.w3.org/1999/xlink">
    <title>Timing</title>
    <g stroke="none" stroke-width="1" fill="none" fill-rule="evenodd">
        <g id="Timing">
            <circle fill="#C0C0C0" cx="20" cy="20" r="20"></circle>
            <path fill="#FFFFFF" d="M11.998127,8.00000007 C11.6727896,8.00101583 11.3682746,8.16020593 11.1817571,8.42677058 C10.9952396,8.69333523 10.9500283,9.0339623 11.0605508,9.33995294 L14.9368425,19.9999994 L11.0605508,30.657116 C10.9488234,30.963454 10.9934408,31.3050242 11.180107,31.5723847 C11.3667733,31.8397453 11.6720511,31.9993271 11.998127,31.9999988 L27.9994283,31.9999988 C28.3331872,32.0005242 28.6452154,31.8345331 28.8313008,31.5574637 C29.0173862,31.2803943 29.0530051,30.9287611 28.9262612,30.6200035 L24.5821579,19.9999994 L28.9262612,9.37706496 C29.0517356,9.06862361 29.01548,8.7179642 28.8295536,8.44171934 C28.6436271,8.16547447 28.3324146,7.99987471 27.9994283,8.00000007 L11.998127,8.00000007 Z M13.4269542,9.99625632 L26.5120024,9.99625632 L22.5741821,19.620086 C22.4750313,19.8626437 22.4750313,20.1344253 22.5741821,20.376983 L26.5120024,29.9998361 L13.4269542,29.9998361 L16.9409115,20.339871 C17.0209745,20.1193556 17.0209745,19.8777134 16.9409115,19.657198 L13.4269542,9.99625632 Z M14.9700482,10.9973142 L15.5824025,12.3997718 L19.0006495,20.2099774 L19.0006495,23.0012199 L21.0017888,23.0012199 L21.0017888,20.2060706 L25.0284837,10.9973142 L14.9700482,10.9973142 Z"></path>
        </g>
    </g>
</svg>
