<?xml version="1.0" encoding="UTF-8"?>
<svg width="34px" height="34px" viewBox="0 0 34 34" version="1.1" xmlns="http://www.w3.org/2000/svg" xmlns:xlink="http://www.w3.org/1999/xlink">
    <title>TimingON</title>
    <g stroke="none" stroke-width="1" fill="none" fill-rule="evenodd">
        <g id="TimingON">
            <circle fill="#7957BA" cx="17" cy="17" r="17"></circle>
            <path fill="#FFFFFF" d="M10.198408,6.80000006 C9.92187114,6.80086346 9.66303341,6.93617504 9.50449352,7.16275499 C9.34595363,7.38933495 9.30752404,7.67886796 9.40146818,7.93896 L12.6963162,16.9999995 L9.40146818,26.0585486 C9.30649992,26.3189359 9.34442465,26.6092706 9.50309098,26.836527 C9.66175731,27.0637835 9.92124344,27.199428 10.198408,27.1999989 L23.7995141,27.1999989 C24.0832091,27.2004455 24.3484331,27.0593531 24.5066057,26.8238441 C24.6647783,26.5883352 24.6950543,26.2894469 24.587322,26.027003 L20.8948342,16.9999995 L24.587322,7.97050522 C24.6939752,7.70833007 24.663158,7.41026957 24.5051205,7.17546144 C24.347083,6.9406533 24.0825524,6.7998935 23.7995141,6.80000006 L10.198408,6.80000006 Z M11.4129111,8.49681787 L22.535202,8.49681787 L19.1880548,16.6770731 C19.1037766,16.8832471 19.1037766,17.1142615 19.1880548,17.3204356 L22.535202,25.4998607 L11.4129111,25.4998607 L14.3997748,17.2888904 C14.4678283,17.1014523 14.4678283,16.8960564 14.3997748,16.7086183 L11.4129111,8.49681787 Z M12.724541,9.34771709 L13.2450422,10.539806 L16.1505521,17.1784808 L16.1505521,19.5510369 L17.8515204,19.5510369 L17.8515204,17.17516 L21.2742112,9.34771709 L12.724541,9.34771709 Z"></path>
        </g>
    </g>
</svg>
