<?xml version="1.0" encoding="UTF-8"?>
<svg width="103px" height="12px" viewBox="0 0 103 12">
    <g stroke="none" stroke-width="1" fill="none" fill-rule="evenodd">
        <path fill="#7957BA" fill-rule="nonzero" d="M3.51000977,11.1757812 C4.11547852,11.1757812 4.6574707,11.0732422 5.13598633,10.8681641 L5.13598633,10.8681641 L4.96020508,9.27148438 C4.59887695,9.40332031 4.32299805,9.46923828 4.13256836,9.46923828 C3.99584961,9.46923828 3.87988281,9.43505859 3.78466797,9.36669922 C3.68945312,9.29833984 3.62841797,9.21166992 3.6015625,9.10668945 C3.57470703,9.00170898 3.5612793,8.63183594 3.5612793,7.99707031 L3.5612793,4.86230469 L4.9675293,4.86230469 L4.9675293,3.22167969 L3.5612793,3.22167969 L3.5612793,0.475097656 L1.49584961,1.67626953 L1.49584961,3.22167969 L0.551025391,3.22167969 L0.551025391,4.86230469 L1.49584961,4.86230469 L1.49584961,8.25341797 C1.49584961,8.98095703 1.51782227,9.46435547 1.56176758,9.70361328 C1.61547852,10.0405273 1.71191406,10.3078613 1.85107422,10.5056152 C1.99023438,10.7033691 2.20874023,10.864502 2.5065918,10.9890137 C2.80444336,11.1135254 3.13891602,11.1757812 3.51000977,11.1757812 Z M8.3659668,11 L8.3659668,8.59765625 C8.3659668,7.27441406 8.42333984,6.40527344 8.53808594,5.99023438 C8.65283203,5.57519531 8.81030273,5.28833008 9.01049805,5.12963867 C9.21069336,4.97094727 9.45483398,4.89160156 9.74291992,4.89160156 C10.0407715,4.89160156 10.3630371,5.00390625 10.7097168,5.22851562 L10.7097168,5.22851562 L11.3469238,3.43408203 C10.9123535,3.17529297 10.4606934,3.04589844 9.99194336,3.04589844 C9.65991211,3.04589844 9.36328125,3.12890625 9.10205078,3.29492188 C8.84082031,3.4609375 8.54663086,3.80517578 8.21948242,4.32763672 L8.21948242,4.32763672 L8.21948242,3.22167969 L6.30786133,3.22167969 L6.30786133,11 L8.3659668,11 Z M14.2766113,11.1757812 C14.7307129,11.1757812 15.157959,11.090332 15.5583496,10.9194336 C15.9587402,10.7485352 16.3347168,10.4921875 16.6862793,10.1503906 C16.7009277,10.1894531 16.7253418,10.2700195 16.7595215,10.3920898 C16.8376465,10.6606445 16.9035645,10.8632812 16.9572754,11 L16.9572754,11 L18.9934082,11 C18.8127441,10.6289062 18.6894531,10.2810059 18.6235352,9.95629883 C18.5576172,9.6315918 18.5246582,9.12744141 18.5246582,8.44384766 L18.5246582,8.44384766 L18.5466309,6.04150391 C18.5466309,5.14794922 18.4550781,4.53393555 18.2719727,4.19946289 C18.0888672,3.86499023 17.7727051,3.58911133 17.3234863,3.37182617 C16.8742676,3.15454102 16.1906738,3.04589844 15.2727051,3.04589844 C14.2619629,3.04589844 13.5002441,3.2265625 12.9875488,3.58789062 C12.4748535,3.94921875 12.1135254,4.50585938 11.9035645,5.2578125 L11.9035645,5.2578125 L13.7712402,5.59472656 C13.8981934,5.23339844 14.064209,4.98071289 14.2692871,4.83666992 C14.4743652,4.69262695 14.7600098,4.62060547 15.1262207,4.62060547 C15.6682129,4.62060547 16.0368652,4.70483398 16.2321777,4.87329102 C16.4274902,5.04174805 16.5251465,5.32373047 16.5251465,5.71923828 L16.5251465,5.71923828 L16.5251465,5.92431641 C16.1540527,6.08056641 15.4875488,6.24902344 14.5256348,6.4296875 C13.8127441,6.56640625 13.2670898,6.72631836 12.8886719,6.90942383 C12.5102539,7.0925293 12.2160645,7.35620117 12.0061035,7.70043945 C11.7961426,8.04467773 11.6911621,8.43652344 11.6911621,8.87597656 C11.6911621,9.54003906 11.921875,10.0893555 12.3833008,10.5239258 C12.8447266,10.9584961 13.4758301,11.1757812 14.2766113,11.1757812 Z M14.8918457,9.72558594 C14.5598145,9.72558594 14.286377,9.62060547 14.0715332,9.41064453 C13.8566895,9.20068359 13.7492676,8.95166016 13.7492676,8.66357422 C13.7492676,8.37060547 13.8835449,8.12890625 14.1520996,7.93847656 C14.3278809,7.82128906 14.701416,7.70166016 15.2727051,7.57958984 C15.8439941,7.45751953 16.2614746,7.35253906 16.5251465,7.26464844 L16.5251465,7.26464844 L16.5251465,7.67480469 C16.5251465,8.16796875 16.498291,8.50244141 16.4445801,8.67822266 C16.3664551,8.94677734 16.2028809,9.17382812 15.9538574,9.359375 C15.6169434,9.60351562 15.2629395,9.72558594 14.8918457,9.72558594 Z M23.8566895,11.1757812 C24.857666,11.1757812 25.6560059,10.9389648 26.251709,10.465332 C26.8474121,9.99169922 27.2502441,9.29101562 27.4602051,8.36328125 L27.4602051,8.36328125 L25.4387207,8.01904297 C25.3361816,8.56103516 25.1604004,8.94311523 24.911377,9.1652832 C24.6623535,9.38745117 24.3425293,9.49853516 23.9519043,9.49853516 C23.4294434,9.49853516 23.0131836,9.30810547 22.703125,8.92724609 C22.3930664,8.54638672 22.2380371,7.89453125 22.2380371,6.97167969 C22.2380371,6.14160156 22.390625,5.54956055 22.6958008,5.19555664 C23.0009766,4.84155273 23.4099121,4.66455078 23.9226074,4.66455078 C24.3083496,4.66455078 24.6220703,4.76708984 24.8637695,4.97216797 C25.1054688,5.17724609 25.260498,5.48242188 25.3288574,5.88769531 L25.3288574,5.88769531 L27.357666,5.52148438 C27.1135254,4.68652344 26.7119141,4.06518555 26.152832,3.6574707 C25.59375,3.24975586 24.8405762,3.04589844 23.8933105,3.04589844 C22.736084,3.04589844 21.8181152,3.40356445 21.1394043,4.11889648 C20.4606934,4.83422852 20.1213379,5.83398438 20.1213379,7.11816406 C20.1213379,8.38769531 20.4594727,9.38134766 21.1357422,10.0991211 C21.8120117,10.8168945 22.7189941,11.1757812 23.8566895,11.1757812 Z M30.9025879,11 L30.9025879,8.50976562 L31.8620605,7.50634766 L33.817627,11 L36.0368652,11 L33.1877441,6.06347656 L35.8464355,3.22167969 L33.3122559,3.22167969 L30.9025879,5.9609375 L30.9025879,0.262695312 L28.8444824,0.262695312 L28.8444824,11 L30.9025879,11 Z M41.5153809,11.1757812 C42.4187012,11.1757812 43.1865234,10.8168945 43.8188477,10.0991211 C44.4511719,9.38134766 44.767334,8.35839844 44.767334,7.03027344 C44.767334,5.74609375 44.4572754,4.76098633 43.8371582,4.07495117 C43.217041,3.38891602 42.4333496,3.04589844 41.486084,3.04589844 C40.6169434,3.04589844 39.8649902,3.40722656 39.2302246,4.12988281 L39.2302246,4.12988281 L39.2302246,0.262695312 L37.1721191,0.262695312 L37.1721191,11 L39.0837402,11 L39.0837402,9.85742188 C39.3962402,10.2919922 39.7685547,10.6203613 40.2006836,10.8425293 C40.6328125,11.0646973 41.0710449,11.1757812 41.5153809,11.1757812 Z M41.017334,9.54980469 C40.4265137,9.54980469 39.9528809,9.27636719 39.5964355,8.72949219 C39.3425293,8.34375 39.2155762,7.74804688 39.2155762,6.94238281 C39.2155762,6.16113281 39.3791504,5.57885742 39.7062988,5.19555664 C40.0334473,4.81225586 40.4436035,4.62060547 40.9367676,4.62060547 C41.4396973,4.62060547 41.8522949,4.81713867 42.1745605,5.21020508 C42.4968262,5.60327148 42.657959,6.24414062 42.657959,7.1328125 C42.657959,7.96777344 42.4980469,8.5793457 42.1782227,8.9675293 C41.8583984,9.35571289 41.4714355,9.54980469 41.017334,9.54980469 Z M49.9675293,11.1757812 C51.119873,11.1757812 52.0756836,10.7888184 52.8349609,10.0148926 C53.5942383,9.2409668 53.973877,8.265625 53.973877,7.08886719 C53.973877,5.921875 53.5979004,4.95629883 52.8459473,4.19213867 C52.0939941,3.42797852 51.1296387,3.04589844 49.9528809,3.04589844 C49.1911621,3.04589844 48.5014648,3.21435547 47.8837891,3.55126953 C47.2661133,3.88818359 46.7888184,4.37646484 46.4519043,5.01611328 C46.1149902,5.65576172 45.9465332,6.31738281 45.9465332,7.00097656 C45.9465332,7.89453125 46.1149902,8.65258789 46.4519043,9.27514648 C46.7888184,9.89770508 47.2807617,10.3701172 47.9277344,10.6923828 C48.574707,11.0146484 49.2546387,11.1757812 49.9675293,11.1757812 Z M49.9602051,9.49853516 C49.4230957,9.49853516 48.9714355,9.29345703 48.6052246,8.88330078 C48.2390137,8.47314453 48.0559082,7.88232422 48.0559082,7.11083984 C48.0559082,6.33935547 48.2390137,5.74853516 48.6052246,5.33837891 C48.9714355,4.92822266 49.4230957,4.72314453 49.9602051,4.72314453 C50.4973145,4.72314453 50.9477539,4.92822266 51.3115234,5.33837891 C51.675293,5.74853516 51.8571777,6.33447266 51.8571777,7.09619141 C51.8571777,7.87744141 51.675293,8.47314453 51.3115234,8.88330078 C50.9477539,9.29345703 50.4973145,9.49853516 49.9602051,9.49853516 Z M58.126709,11.1757812 C58.6394043,11.1757812 59.1264648,11.0561523 59.5878906,10.8168945 C60.0493164,10.5776367 60.4216309,10.2504883 60.704834,9.83544922 L60.704834,9.83544922 L60.704834,11 L62.6164551,11 L62.6164551,3.22167969 L60.5583496,3.22167969 L60.5583496,6.50292969 C60.5583496,7.61621094 60.5070801,8.31567383 60.404541,8.60131836 C60.302002,8.88696289 60.1115723,9.1262207 59.833252,9.3190918 C59.5549316,9.51196289 59.2399902,9.60839844 58.8884277,9.60839844 C58.5808105,9.60839844 58.3269043,9.53637695 58.126709,9.39233398 C57.9265137,9.24829102 57.7885742,9.05297852 57.7128906,8.80639648 C57.637207,8.55981445 57.5993652,7.88964844 57.5993652,6.79589844 L57.5993652,6.79589844 L57.5993652,3.22167969 L55.5412598,3.22167969 L55.5412598,8.14355469 C55.5412598,8.87597656 55.6340332,9.44970703 55.8195801,9.86474609 C56.005127,10.2797852 56.3054199,10.6020508 56.720459,10.831543 C57.135498,11.0610352 57.604248,11.1757812 58.126709,11.1757812 Z M66.8571777,11.1757812 C67.4626465,11.1757812 68.0046387,11.0732422 68.4831543,10.8681641 L68.4831543,10.8681641 L68.307373,9.27148438 C67.9460449,9.40332031 67.670166,9.46923828 67.4797363,9.46923828 C67.3430176,9.46923828 67.2270508,9.43505859 67.1318359,9.36669922 C67.0366211,9.29833984 66.9755859,9.21166992 66.9487305,9.10668945 C66.921875,9.00170898 66.9084473,8.63183594 66.9084473,7.99707031 L66.9084473,4.86230469 L68.3146973,4.86230469 L68.3146973,3.22167969 L66.9084473,3.22167969 L66.9084473,0.475097656 L64.8430176,1.67626953 L64.8430176,3.22167969 L63.8981934,3.22167969 L63.8981934,4.86230469 L64.8430176,4.86230469 L64.8438314,8.48688874 C64.8481717,9.08536482 64.869873,9.49093967 64.9089355,9.70361328 C64.9626465,10.0405273 65.059082,10.3078613 65.1982422,10.5056152 C65.3374023,10.7033691 65.5559082,10.864502 65.8537598,10.9890137 C66.1516113,11.1135254 66.486084,11.1757812 66.8571777,11.1757812 Z M71.8010254,11 L71.8010254,8.94189453 L69.7429199,8.94189453 L69.7429199,11 L71.8010254,11 Z M77.1916504,11.1757812 C78.192627,11.1757812 78.9909668,10.9389648 79.5866699,10.465332 C80.182373,9.99169922 80.5852051,9.29101562 80.795166,8.36328125 L80.795166,8.36328125 L78.7736816,8.01904297 C78.6711426,8.56103516 78.4953613,8.94311523 78.2463379,9.1652832 C77.9973145,9.38745117 77.6774902,9.49853516 77.2868652,9.49853516 C76.7644043,9.49853516 76.3481445,9.30810547 76.0380859,8.92724609 C75.7280273,8.54638672 75.572998,7.89453125 75.572998,6.97167969 C75.572998,6.14160156 75.7255859,5.54956055 76.0307617,5.19555664 C76.3359375,4.84155273 76.744873,4.66455078 77.2575684,4.66455078 C77.6433105,4.66455078 77.9570312,4.76708984 78.1987305,4.97216797 C78.4404297,5.17724609 78.595459,5.48242188 78.6638184,5.88769531 L78.6638184,5.88769531 L80.692627,5.52148438 C80.4484863,4.68652344 80.046875,4.06518555 79.487793,3.6574707 C78.9287109,3.24975586 78.1755371,3.04589844 77.2282715,3.04589844 C76.0710449,3.04589844 75.1530762,3.40356445 74.4743652,4.11889648 C73.7956543,4.83422852 73.4562988,5.83398438 73.4562988,7.11816406 C73.4562988,8.38769531 73.7944336,9.38134766 74.4707031,10.0991211 C75.1469727,10.8168945 76.0539551,11.1757812 77.1916504,11.1757812 Z M85.7976074,11.1757812 C86.9499512,11.1757812 87.9057617,10.7888184 88.6650391,10.0148926 C89.4243164,9.2409668 89.8039551,8.265625 89.8039551,7.08886719 C89.8039551,5.921875 89.4279785,4.95629883 88.6760254,4.19213867 C87.9240723,3.42797852 86.9597168,3.04589844 85.782959,3.04589844 C85.0212402,3.04589844 84.331543,3.21435547 83.7138672,3.55126953 C83.0961914,3.88818359 82.6188965,4.37646484 82.2819824,5.01611328 C81.9450684,5.65576172 81.7766113,6.31738281 81.7766113,7.00097656 C81.7766113,7.89453125 81.9450684,8.65258789 82.2819824,9.27514648 C82.6188965,9.89770508 83.1108398,10.3701172 83.7578125,10.6923828 C84.4047852,11.0146484 85.0847168,11.1757812 85.7976074,11.1757812 Z M85.7902832,9.49853516 C85.2531738,9.49853516 84.8015137,9.29345703 84.4353027,8.88330078 C84.0690918,8.47314453 83.8859863,7.88232422 83.8859863,7.11083984 C83.8859863,6.33935547 84.0690918,5.74853516 84.4353027,5.33837891 C84.8015137,4.92822266 85.2531738,4.72314453 85.7902832,4.72314453 C86.3273926,4.72314453 86.777832,4.92822266 87.1416016,5.33837891 C87.5053711,5.74853516 87.6872559,6.33447266 87.6872559,7.09619141 C87.6872559,7.87744141 87.5053711,8.47314453 87.1416016,8.88330078 C86.777832,9.29345703 86.3273926,9.49853516 85.7902832,9.49853516 Z M93.3195801,11 L93.3195801,7.22070312 C93.3195801,6.47363281 93.3745117,5.93896484 93.484375,5.61669922 C93.5942383,5.29443359 93.776123,5.04785156 94.0300293,4.87695312 C94.2839355,4.70605469 94.5695801,4.62060547 94.8869629,4.62060547 C95.1506348,4.62060547 95.359375,4.67431641 95.5131836,4.78173828 C95.6669922,4.88916016 95.7805176,5.05273438 95.8537598,5.27246094 C95.927002,5.4921875 95.963623,5.98046875 95.963623,6.73730469 L95.963623,6.73730469 L95.963623,11 L98.0217285,11 L98.0217285,7.26464844 C98.0217285,6.53222656 98.0778809,5.99633789 98.1901855,5.65698242 C98.3024902,5.31762695 98.4855957,5.06005859 98.739502,4.88427734 C98.9934082,4.70849609 99.2644043,4.62060547 99.5524902,4.62060547 C99.947998,4.62060547 100.240967,4.76708984 100.431396,5.06005859 C100.572998,5.28466797 100.643799,5.78271484 100.643799,6.55419922 L100.643799,6.55419922 L100.643799,11 L102.701904,11 L102.701904,6.02685547 C102.701904,5.28466797 102.631104,4.74755859 102.489502,4.41552734 C102.294189,3.96630859 101.998779,3.62573242 101.603271,3.39379883 C101.207764,3.16186523 100.724365,3.04589844 100.153076,3.04589844 C99.7038574,3.04589844 99.2814941,3.1484375 98.8859863,3.35351562 C98.4904785,3.55859375 98.1218262,3.86865234 97.7800293,4.28369141 C97.5456543,3.86865234 97.2453613,3.55859375 96.8791504,3.35351562 C96.5129395,3.1484375 96.0808105,3.04589844 95.5827637,3.04589844 C94.6452637,3.04589844 93.8371582,3.45849609 93.1584473,4.28369141 L93.1584473,4.28369141 L93.1584473,3.22167969 L91.2614746,3.22167969 L91.2614746,11 L93.3195801,11 Z"></path>
    </g>
</svg>
