<?xml version="1.0" encoding="UTF-8"?>
<svg width="34px" height="34px" viewBox="0 0 34 34" version="1.1" xmlns="http://www.w3.org/2000/svg" xmlns:xlink="http://www.w3.org/1999/xlink">
    <title>TransposeLOCK</title>
    <g stroke="none" stroke-width="1" fill="none" fill-rule="evenodd">
        <g transform="translate(-43.000000, -103.000000)">
            <g id="TransposeLOCK" transform="translate(43.000000, 103.000000)">
                <rect fill="#7957BA" x="0" y="0" width="34" height="34" rx="5"></rect>
                <path fill="#C0C0C0" d="M10.039179,27.0964197 C10.0325253,26.9313249 10.0287914,26.7698299 10.027952,26.6119618 C10.01184,23.376279 11.2008707,21.6325031 12.3776862,20.2882111 C12.4700261,20.1395562 12.629717,20.0425012 12.8077172,20.0268518 L12.8105247,20.0264973 C12.8158174,20.0261698 12.8211147,20.0259152 12.8264148,20.0257336 C13.0068587,20.0124396 13.1828336,20.0844639 13.2990798,20.2191894 L15.5320522,22.0825187 C15.684579,22.1728203 15.7837623,22.3282472 15.7992596,22.5023186 C15.8176099,22.6772453 15.7480073,22.8500348 15.6123172,22.9664055 C14.8815998,23.8307122 14.5280661,24.5458776 14.3552957,25.0341806 C14.1794118,25.531292 14.1892659,25.7404554 14.1894063,25.7431281 L14.1894063,25.7436463 L14.216414,28.4289315 C14.2178617,28.5744556 14.1593707,28.7145045 14.0539577,28.8179118 C13.9485447,28.9213191 13.8049559,28.9795047 13.6551459,28.9795199 L10.6004471,28.9795199 C10.2904946,28.9794743 10.0392371,28.7354026 10.039179,28.4343036 L10.039179,27.0964197 Z M17.5997331,10.9700103 L17.5981609,10.9700111 C17.6022306,10.8601824 17.6403657,10.7541109 17.7075673,10.6657014 L19.7760399,7.94496475 L21.8474042,5.22125597 C21.9532445,5.08210415 22.1207807,5 22.2988842,5 C22.4769877,5 22.6445239,5.08210415 22.7503642,5.22125597 L24.8218408,7.94496475 L26.8902292,10.6657014 C27.0160752,10.8312646 27.0352492,11.0515518 26.9398069,11.2352916 C26.8443646,11.4190313 26.6505658,11.534921 26.4387071,11.5349441 L24.16355,11.5349441 L24.1096751,12.6989521 C24.1090469,12.7093752 24.1081107,12.7197786 24.1068676,12.7301495 C23.8913117,14.7695906 22.7146534,16.5163389 21.5545872,17.8034455 C21.4600925,17.9509767 21.2988798,18.0459303 21.1205275,18.0591051 C20.9383496,18.0757826 20.7592376,18.005156 20.6405659,17.8698488 C19.9404722,17.2951805 19.0892254,16.5890143 18.4318892,16.0283359 C18.2790769,15.9368582 18.1805118,15.7799067 18.1666975,15.6060542 C18.1666679,15.6028179 18.1666679,15.5995815 18.1666975,15.5963452 C18.1664097,15.5862662 18.1664097,15.5761814 18.1666975,15.5661024 C18.1623658,15.3905699 18.2453045,15.2237494 18.3895248,15.117914 C19.8850251,13.5832472 20.0663021,12.2230289 20.0413158,11.5349433 L18.1606335,11.5349433 C18.0082666,11.5349197 17.8624552,11.4747296 17.7566797,11.3681936 C17.6509042,11.2616577 17.5942527,11.1179291 17.5997331,10.9700103 Z M7.15681219,11.3885117 C7.05104943,11.2819598 6.99441777,11.1382204 7.00043495,10.9905177 C7.00450134,10.8806901 7.04263251,10.7746187 7.10983003,10.6862079 L9.18138244,7.96228065 L11.2528394,5.2415713 C11.358731,5.10251964 11.5262506,5.02051413 11.7043017,5.02056792 C11.8823528,5.02062171 12.0498199,5.10272842 12.1556225,5.24184403 L14.2240165,7.96247155 L16.2953949,10.686017 C16.4212815,10.851569 16.440491,11.0718709 16.3450633,11.255634 C16.2496356,11.4393972 16.0558306,11.5553104 15.843957,11.5553416 L13.9618934,11.5553416 C13.9342344,12.2849327 14.139035,13.7826481 15.9199238,15.4375226 C18.6166475,17.9405327 19.7989768,18.2769944 21.2180302,19.851994 C22.5611982,21.3391558 24.1225332,23.1734695 23.9649791,27.1134092 L23.9649791,28.4547564 C23.9649365,28.7558649 23.7136762,28.9999529 23.4037138,29 L20.3490123,29 C20.1991881,29.0000058 20.0555784,28.9418296 19.9501477,28.8384201 C19.8447171,28.7350105 19.7862149,28.5949496 19.7876627,28.4494118 L19.8146142,25.7606087 C19.8146423,25.7601996 19.8199765,25.6717348 19.7556578,25.4074576 C19.6911707,25.1425261 19.5564412,24.7409154 19.2712324,24.2331141 C18.7007867,23.217566 17.526571,21.7727004 15.0862797,20.1774389 C15.0839565,20.1759194 15.0816449,20.174383 15.0793453,20.1728299 C15.0793453,20.1728299 10.3536049,17.09297 9.89509787,12.7504378 C9.89404395,12.7400889 9.89329499,12.7297128 9.89285191,12.7193223 L9.83898818,11.5553143 L7.56075134,11.5553143 C7.40838155,11.555273 7.26257494,11.4950636 7.15681219,11.3885117 Z"></path>
            </g>
        </g>
    </g>
</svg>
