<?xml version="1.0" encoding="UTF-8"?>
<svg width="34px" height="34px" viewBox="0 0 34 34">
    <g fill="#80848A" stroke="none" stroke-width="1" fill-rule="evenodd">
        <path d="M29,0 C31.7614237,-5.07265313e-16 34,2.23857625 34,5 L34,29 C34,31.7614237 31.7614237,34 29,34 L5,34 C2.23857625,34 2.11453371e-15,31.7614237 0,29 L0,5 C-3.38176876e-16,2.23857625 2.23857625,2.28362215e-15 5,0 L29,0 Z M27,4 L7,4 C5.34314575,4 4,5.34314575 4,7 L4,7 L4,27 C4,28.6568542 5.34314575,30 7,30 L7,30 L27,30 C28.6568542,30 30,28.6568542 30,27 L30,27 L30,7 C30,5.34314575 28.6568542,4 27,4 L27,4 Z"></path>
        <path d="M10.7352611,25.4136831 C10.7292728,25.2761041 10.7259123,25.1415249 10.7251568,25.0099682 C10.710656,22.3135658 11.7807836,20.8604192 12.8399175,19.7401759 C12.9230235,19.6162969 13.0667453,19.5354176 13.2269455,19.5223765 L13.2294722,19.5220811 C13.2342357,19.5218082 13.2390032,19.521596 13.2437734,19.5214447 C13.4061728,19.5103664 13.5645502,19.5703866 13.6691719,19.6826579 L15.678847,21.2354323 C15.8161211,21.3106836 15.9053861,21.440206 15.9193336,21.5852655 C15.9358489,21.7310378 15.8732065,21.875029 15.7510854,21.9720046 C15.0934398,22.6922602 14.7752595,23.2882313 14.6197661,23.6951505 C14.4614706,24.10941 14.4703393,24.2837128 14.4704657,24.2859401 L14.4704657,24.2863719 L14.4947726,26.5241096 C14.4960755,26.6453796 14.4434337,26.7620871 14.3485619,26.8482598 C14.2536902,26.9344326 14.1244603,26.9829333 13.9896313,26.9829333 L11.2404024,26.9829333 C10.9614452,26.9829333 10.7353134,26.7795021 10.7352611,26.5285864 L10.7352611,25.4136831 Z M17.5397598,11.9750086 L17.5383449,11.9750093 C17.5420075,11.8834853 17.5763292,11.7950924 17.6368105,11.7214178 L19.4984359,9.45413729 L21.3626638,7.18437997 C21.4579201,7.06842012 21.6087026,7 21.7689958,7 C21.9292889,7 22.0800715,7.06842012 22.1753278,7.18437997 L24.0396567,9.45413729 L25.9012063,11.7214178 C26.0144677,11.8593872 26.0317243,12.0429599 25.9458262,12.1960763 C25.8599281,12.3491928 25.6855092,12.4457675 25.4948364,12.4457868 L23.447195,12.4457868 L23.3987076,13.4157934 C23.3981422,13.4244794 23.3972996,13.4331489 23.3961809,13.4417913 C23.2021805,15.1413255 22.1431881,16.5969491 21.0991285,17.6695379 C21.0140833,17.7924806 20.8689918,17.8716086 20.7084747,17.8825876 C20.5445146,17.8964855 20.3833139,17.83763 20.2765093,17.724874 C19.646425,17.2459838 18.8803029,16.657512 18.2887003,16.1902799 C18.1511693,16.1140485 18.0624606,15.9832556 18.0500278,15.8383785 C18.0500011,15.8356816 18.0500011,15.8329846 18.0500278,15.8302877 C18.0497688,15.8218885 18.0497688,15.8134845 18.0500278,15.8050853 C18.0461293,15.6588082 18.1207741,15.5197912 18.2505723,15.431595 C19.5965226,14.152706 19.7596719,13.0191907 19.7371842,12.4457861 L18.0445701,12.4457861 C17.90744,12.4457664 17.7762097,12.395608 17.6810117,12.306828 C17.5858138,12.2180481 17.5348274,12.0982743 17.5397598,11.9750086 Z M8.14113097,12.3237597 C8.04594448,12.2349665 7.99497599,12.1151836 8.00039146,11.9920981 C8.0040512,11.9005751 8.03836926,11.8121822 8.09884703,11.7385066 L9.9632442,9.4685672 L11.8275555,7.20130942 C11.9228579,7.08543304 12.0736256,7.01713991 12.2338716,7.01713991 C12.3941176,7.01713991 12.5448379,7.08560701 12.6400603,7.20153669 L14.5016149,9.46872629 L16.3658554,11.7383475 C16.4791534,11.8763075 16.4964419,12.0598924 16.410557,12.2130284 C16.3246721,12.3661643 16.1502475,12.4627586 15.9595613,12.4627846 L14.2657041,12.4627846 C14.240811,13.0707773 14.4251315,14.3188734 16.0279314,15.6979355 C18.4549827,17.7837773 19.5190791,18.064162 20.7962272,19.3766617 C22.0050784,20.6159631 23.4102799,22.1445579 23.2684812,25.427841 L23.2684812,26.5456304 C23.2684429,26.7965541 23.0423086,27 22.7633425,27 L20.014111,27 C19.8792693,27 19.7500206,26.9515247 19.655133,26.8653501 C19.5602454,26.7791755 19.5075934,26.662458 19.5088965,26.5411765 L19.5331528,24.3005073 C19.5331781,24.3001664 19.5379788,24.2264456 19.480092,24.0062146 C19.4220536,23.7854384 19.3007971,23.4507629 19.0441092,23.0275951 C18.5307081,22.181305 17.4739139,20.9772504 15.2776518,19.6478658 C15.2755608,19.6465995 15.2734804,19.6453192 15.2714108,19.6440249 C15.2714108,19.6440249 11.0182444,17.077475 10.6055881,13.4586982 C10.6046396,13.4500741 10.6039655,13.4414274 10.6035667,13.4327686 L10.5550894,12.4627619 L8.50467621,12.4627619 C8.36754339,12.4627275 8.23631745,12.412553 8.14113097,12.3237597 Z"></path>
    </g>
</svg>
