<?xml version="1.0" encoding="UTF-8"?>
<svg width="16px" height="20px" viewBox="0 0 16 20">
    <g stroke="none" stroke-width="1" fill="none" fill-rule="evenodd">
        <path fill="#202124" fill-rule="nonzero" d="M14.1866135,6.09622222 L1.81338652,6.09622222 C1.69547872,6.09644444 1.60505319,6.192 1.6114805,6.31 L2.23670213,17.9495556 C2.29698582,19.0777778 3.26839539,20 4.39450355,20 L11.6054965,20 C12.7318262,20 13.7032358,19.0777778 13.7632979,17.9495556 L14.3885195,6.30977778 C14.3949468,6.192 14.3042996,6.09622222 14.1866135,6.09622222 Z M5.11879433,17.9675556 C5.11281028,17.968 5.10704787,17.968 5.10128546,17.968 C4.75576241,17.968 4.47118794,17.692 4.46187943,17.3433333 L4.23204787,8.78755556 C4.22251773,8.43311111 4.50110816,8.13844444 4.85460993,8.12862343 C5.21077128,8.12466667 5.50199468,8.39866667 5.51152482,8.75311111 L5.74135638,17.3086667 C5.75088652,17.6626667 5.47207447,17.958 5.11879433,17.9675556 Z M8.64029255,17.3262222 C8.64029255,17.6806667 8.3537234,17.968 8,17.968 C7.64671986,17.968 7.35992908,17.6806667 7.35992908,17.3262222 L7.35992908,8.77022222 C7.35992908,8.41577778 7.64649823,8.12844444 8,8.12844444 C8.3537234,8.12844444 8.64029255,8.41577778 8.64029255,8.77022222 L8.64029255,17.3262222 Z M11.1451684,8.12866667 C11.4986702,8.13844444 11.7777039,8.43311111 11.7679521,8.78755556 L11.5381206,17.3433333 C11.5288121,17.6913333 11.2444592,17.968 10.8987145,17.968 C10.8927305,17.968 10.8867465,17.968 10.8812057,17.9675556 C10.5274823,17.958 10.2486702,17.6633333 10.2582004,17.3086667 L10.4880319,8.75311111 C10.4975621,8.39844444 10.7945479,8.12133333 11.1451684,8.12866667 Z M10.4450355,0 C11.0319149,0 11.5119681,0.481333333 11.5119681,1.06933333 L11.5119681,1.06933333 L11.5119681,2.67377778 L14.933289,2.67377778 C15.5203901,2.67377778 16,3.15511111 16,3.74355556 L16,3.74355556 L16,4.27844444 C16,4.86666667 15.5197252,5.348 14.933289,5.348 L14.933289,5.348 L1.06671099,5.348 C0.480053191,5.348 0,4.86644444 0,4.27844444 L0,4.27844444 L0,3.74355556 C0,3.15533333 0.480053191,2.674 1.06671099,2.674 L1.06671099,2.674 L4.48825355,2.674 L4.48825355,1.06955556 C4.48825355,0.481333333 4.96830674,0 5.55496454,0 L5.55496454,0 Z M10.231383,1.28333333 L5.76817376,1.28333333 L5.76817376,2.67377778 L10.231383,2.67377778 L10.231383,1.28333333 Z"></path>
    </g>
</svg>
