<?xml version="1.0" encoding="UTF-8"?>
<svg width="34px" height="34px" viewBox="0 0 34 34" version="1.1" xmlns="http://www.w3.org/2000/svg" xmlns:xlink="http://www.w3.org/1999/xlink">
    <title>Variance</title>
    <g stroke="none" stroke-width="1" fill="none" fill-rule="evenodd">
        <g id="Variance">
            <circle fill="#C0C0C0" cx="17" cy="17" r="17"></circle>
            <path fill="#FFFFFF" fill-rule="nonzero" d="M10.1306122,25.5 C9.2304463,25.4990439 8.5009561,24.7695537 8.5,23.8693878 L8.5,10.1306122 C8.5009561,9.2304463 9.2304463,8.5009561 10.1306122,8.5 L23.8693878,8.5 C24.7695537,8.5009561 25.4990439,9.2304463 25.5,10.1306122 L25.5,23.8693878 C25.4990439,24.7695537 24.7695537,25.4990439 23.8693878,25.5 L10.1306122,25.5 Z M21.7773469,20.0513265 C20.8116383,20.0522851 20.0295537,20.8359234 20.0305119,21.8016321 C20.0314701,22.7673407 20.8151083,23.5494256 21.7808169,23.5484677 C22.7465255,23.5475098 23.5286106,22.7638719 23.5276531,21.7981633 C23.5271932,21.3344132 23.3425281,20.8898399 23.014282,20.5622444 C22.6860359,20.2346489 22.241097,20.0508662 21.7773469,20.0513265 Z M10.6057818,21.1299469 C10.3346914,21.7835005 10.4841814,22.5360127 10.9844925,23.0363238 C11.4848036,23.5366349 12.2373158,23.686125 12.8908694,23.4150345 C13.544423,23.143944 13.9701914,22.5057096 13.9694898,21.7981633 C13.967581,20.8342037 13.1866126,20.0532354 12.2226531,20.0513265 C11.5151067,20.0506249 10.8768723,20.4763933 10.6057818,21.1299469 Z M15.3845306,16.3308507 C15.113885,16.984247 15.2634854,17.7363388 15.7635733,18.2364267 C16.2636612,18.7365146 17.015753,18.886115 17.6691493,18.6154694 C18.3225457,18.3448237 18.7485714,17.7072311 18.7485714,17 C18.7476152,16.034687 17.965313,15.2523848 17,15.2514286 C16.2927689,15.2514286 15.6551763,15.6774543 15.3845306,16.3308507 Z M20.0305106,12.2238084 C20.031149,13.1892916 20.8141759,13.9715425 21.7796593,13.9712235 C22.7451427,13.9709046 23.5276526,13.1881365 23.5276531,12.2226531 C23.5266957,11.2566632 22.7433373,10.4740812 21.7773469,10.4740816 C20.811864,10.4750395 20.0298722,11.2583252 20.0305106,12.2238084 Z M10.6059474,11.5314846 C10.3347551,12.1848251 10.483927,12.9372012 10.9838782,13.4376488 C11.4838294,13.9380965 12.236057,14.0880151 12.8896664,13.8174714 C13.5432758,13.5469277 13.9694894,12.9092256 13.9694898,12.2018367 C13.9685357,11.2371998 13.1872885,10.4551769 12.2226531,10.4532653 C11.5152645,10.4525635 10.8771397,10.8781441 10.6059474,11.5314846 Z"></path>
        </g>
    </g>
</svg>
