<?xml version="1.0" encoding="UTF-8"?>
<svg width="40px" height="40px" viewBox="0 0 40 40" version="1.1" xmlns="http://www.w3.org/2000/svg" xmlns:xlink="http://www.w3.org/1999/xlink">
    <title>Variance</title>
    <g stroke="none" stroke-width="1" fill="none" fill-rule="evenodd">
        <g id="Variance">
            <circle fill="#C0C0C0" cx="20" cy="20" r="20"></circle>
            <path fill="#FFFFFF" fill-rule="nonzero" d="M11.9183673,30 C10.8593486,29.9988752 10.0011248,29.1406514 10,28.0816327 L10,11.9183673 C10.0011248,10.8593486 10.8593486,10.0011248 11.9183673,10 L28.0816327,10 C29.1406514,10.0011248 29.9988752,10.8593486 30,11.9183673 L30,28.0816327 C29.9988752,29.1406514 29.1406514,29.9988752 28.0816327,30 L11.9183673,30 Z M25.6204082,23.5897959 C24.4842804,23.5909236 23.5641808,24.5128511 23.5653081,25.6489789 C23.5664354,26.7851067 24.4883627,27.7052065 25.6244905,27.7040796 C26.7606183,27.7029527 27.6807184,26.7810258 27.6795918,25.644898 C27.6790508,25.0993097 27.4617978,24.5762822 27.0756259,24.1908757 C26.689454,23.8054693 26.1659965,23.5892544 25.6204082,23.5897959 Z M12.4773904,24.8587611 C12.1584604,25.6276477 12.3343311,26.5129562 12.9229324,27.1015574 C13.5115336,27.6901587 14.3968421,27.8660294 15.1657287,27.5470994 C15.9346153,27.2281695 16.4355193,26.4773054 16.4346939,25.644898 C16.4324482,24.5108279 15.5136619,23.5920416 14.3795918,23.5897959 C13.5471844,23.5889705 12.7963203,24.0898745 12.4773904,24.8587611 Z M18.0994478,19.2127655 C17.7810412,19.9814671 17.9570416,20.8662809 18.5453803,21.4546197 C19.1337191,22.0429584 20.0185329,22.2189588 20.7872345,21.9005522 C21.5559361,21.5821456 22.0571429,20.8320366 22.0571429,20 C22.0560179,18.8643377 21.1356623,17.9439821 20,17.9428571 C19.1679634,17.9428571 18.4178544,18.4440639 18.0994478,19.2127655 Z M23.5653066,14.380951 C23.5660576,15.5168136 24.4872658,16.4371088 25.6231286,16.4367336 C26.7589914,16.4363583 27.6795913,15.5154547 27.6795918,14.3795918 C27.6784655,13.2431332 26.7568674,12.3224484 25.6204082,12.322449 C24.4845459,12.3235758 23.5645555,13.2450884 23.5653066,14.380951 Z M12.4775852,13.5664524 C12.1585355,14.3350883 12.3340318,15.2202367 12.9222096,15.8089986 C13.5103875,16.3977606 14.3953612,16.5741354 15.1643134,16.2558487 C15.9332656,15.937562 16.4346935,15.1873243 16.4346939,14.355102 C16.4335714,13.2202351 15.5144571,12.3002081 14.3795918,12.2979592 C13.54737,12.2971336 12.796635,12.7978165 12.4775852,13.5664524 Z"></path>
        </g>
    </g>
</svg>
