<?xml version="1.0" encoding="UTF-8"?>
<svg width="34px" height="34px" viewBox="0 0 34 34" version="1.1" xmlns="http://www.w3.org/2000/svg" xmlns:xlink="http://www.w3.org/1999/xlink">
    <title>Variance</title>
    <g stroke="none" stroke-width="1" fill="none" fill-rule="evenodd">
        <circle fill-opacity="0" fill="#000000" cx="17" cy="17" r="17"></circle>
        <path fill="#8E959E" fill-rule="nonzero" d="M21.2515446,9.8670202 C20.3128591,6.87094172 18.7891024,5 16.9985276,5 C15.2079528,5 13.6841962,6.87094172 12.7455106,9.87023488 C9.65620654,9.17586476 7.25162852,9.54876723 6.35794846,11.0789532 C5.97069581,11.7927327 5.89397445,12.6343429 6.14577981,13.406379 C6.46724746,14.5604479 7.29341932,15.8591772 8.51499638,17.1611212 C7.29341932,18.4630651 6.45760343,19.7617944 6.14577981,20.9158633 C5.89435914,21.6879428 5.97106634,22.5293974 6.35794846,23.2432891 C6.96552231,24.2848443 8.26746629,24.7895485 10.0098209,24.7895485 C10.9323667,24.7772544 11.8507986,24.6640674 12.7487253,24.4520074 C13.6841962,27.4448712 15.2079528,29.3125983 16.9985276,29.3125983 C18.7891024,29.3125983 20.3128591,27.4448712 21.2515446,24.4455781 C22.1494668,24.6576634 23.0679015,24.7708508 23.990449,24.7831191 C25.729589,24.7831191 27.0347476,24.2784149 27.6423215,23.2368597 C28.0292036,22.5229681 28.1059108,21.6815134 27.8544901,20.9094339 C27.5330225,19.7553651 26.7068506,18.4566358 25.4852736,17.1546918 C26.7068506,15.8527478 27.5426665,14.5540185 27.8544901,13.3999497 C28.1040042,12.6284069 28.0261512,11.7882918 27.6391068,11.0757386 C26.7422121,9.54233788 24.3376341,9.17265008 21.2515446,9.8670202 Z M16.9985276,6.2858706 C18.0690149,6.2858706 19.2102251,7.7485484 19.9881768,10.1981319 C18.968129,10.507497 17.9694413,10.8833472 16.9985276,11.3232687 C16.0276104,10.8833557 15.0289233,10.5075057 14.0088785,10.1981319 C14.7868302,7.75176307 15.9280404,6.2858706 16.9985276,6.2858706 Z M20.9557944,17.1579065 C20.9557944,17.9197848 20.9268623,18.652731 20.8689981,19.3567452 C20.2678536,19.7650091 19.637777,20.163629 18.9787684,20.5397461 C18.3197597,20.9158633 17.6414629,21.2630484 16.9985276,21.5716573 C16.3555923,21.2651915 15.6955121,20.9212211 15.0182869,20.5397461 C14.3753516,20.163629 13.7324163,19.7682238 13.1280571,19.3567452 C13.0734076,18.652731 13.0412609,17.9197848 13.0412609,17.1579065 C13.0412609,16.3960282 13.070193,15.6630819 13.1280571,14.9590678 C13.7292016,14.5508038 14.3592782,14.152184 15.0182869,13.7760668 C15.6772956,13.3999497 16.3555923,13.0495499 16.9985276,12.7441557 C17.6414629,13.0656233 18.306901,13.387091 18.9787684,13.7760668 C19.6506357,14.1650427 20.264639,14.5475892 20.8689981,14.9590678 C20.9236476,15.6630819 20.9557944,16.3960282 20.9557944,17.1579065 Z M22.2159476,15.9395441 C22.7335105,16.3413787 23.215712,16.7496426 23.6593373,17.1579065 C23.215712,17.5661704 22.7335105,17.9744343 22.2159476,18.3762689 C22.2309494,17.9755059 22.2395219,17.5693851 22.241665,17.1579065 C22.2438081,16.7464279 22.2352356,16.3403071 22.2159476,15.9395441 Z M20.6857616,21.0155183 C20.5893213,21.6584536 20.4703782,22.3013889 20.3353618,22.8671719 C19.7599347,22.6967941 19.1620049,22.4878401 18.5415724,22.2435247 C18.8984014,22.0570735 19.2584452,21.8641929 19.618489,21.6584536 C19.9785327,21.4527143 20.3353618,21.2309016 20.6857616,21.0155183 Z M15.4554829,22.24031 C14.8350504,22.4846254 14.2371205,22.6935794 13.6616934,22.8639573 C13.5234624,22.2853155 13.4045193,21.6680976 13.3112937,21.0123036 C13.6616934,21.2309016 14.0153079,21.4462849 14.381781,21.6552389 C14.7482541,21.8641929 15.0986538,22.0538588 15.4554829,22.24031 Z M11.777893,18.3826982 C11.2603301,17.9808637 10.7781286,17.5725997 10.3345033,17.1643358 C10.7781286,16.7560719 11.2603301,16.347808 11.777893,15.9459734 C11.7628912,16.3467364 11.7543187,16.7528572 11.7521756,17.1643358 C11.7500325,17.5758144 11.7596765,17.9797921 11.7811077,18.3762689 L11.777893,18.3826982 Z M13.3112937,13.3002947 C13.407734,12.6573594 13.526677,12.0144241 13.6616934,11.448641 C14.2339059,11.6190189 14.8318357,11.8279729 15.4522682,12.0722883 C15.0965107,12.2587395 14.7386101,12.4537632 14.3785663,12.6573594 C14.0153079,12.869528 13.6616934,13.0849114 13.3112937,13.3002947 Z M19.618489,12.6573594 C19.2584452,12.4430476 18.9005446,12.2480239 18.544787,12.0722883 C19.1652196,11.8279729 19.7631494,11.6190189 20.3353618,11.448641 C20.4735929,12.0272828 20.592536,12.6445007 20.6857616,13.3002947 C20.3353618,13.0849114 19.9817474,12.869528 19.6152743,12.6573594 L19.618489,12.6573594 Z M7.47022652,11.7251032 C7.81419691,11.1368174 8.70144762,10.8249938 9.96481548,10.8249938 C10.7875241,10.8373439 11.6065581,10.9375677 12.4079696,11.1239587 C12.1676846,12.1582903 11.9969248,13.2075501 11.896836,14.2646976 C11.0291924,14.8779129 10.2023472,15.5469058 9.42153515,16.2674411 C8.36390659,15.1390896 7.64381905,14.0364556 7.38985961,13.0849114 C7.23026163,12.6396238 7.25928837,12.1484915 7.47022652,11.7251032 Z M7.47022652,22.5907097 C7.26379063,22.1718402 7.23482075,21.6874638 7.38985961,21.246975 C7.64381905,20.282572 8.35426256,19.1927967 9.42153515,18.0644453 C10.202832,18.7794694 11.0296666,19.4430846 11.896836,20.0511153 C11.9965183,21.1028002 12.1662008,22.1466699 12.4047549,23.1757809 C9.86194583,23.751208 7.99743347,23.5101072 7.47022652,22.5907097 Z M16.9985276,28.0267277 C15.9280404,28.0267277 14.7868302,26.5640499 14.0088785,24.1112517 C15.0289529,23.8019652 16.0276457,23.426113 16.9985276,22.986115 C17.969406,23.4261216 18.9680994,23.8019739 19.9881768,24.1112517 C19.2102251,26.5640499 18.0690149,28.0267277 16.9985276,28.0267277 Z M26.5268288,22.5907097 C25.9996218,23.5068925 24.1351094,23.751208 21.5923003,23.1918543 C21.8315604,22.1574598 22.0012467,21.108197 22.1002192,20.0511153 C22.9678684,19.4379073 23.794714,18.768914 24.5755201,18.0483719 C25.6331487,19.1767233 26.3532362,20.2793574 26.6071957,21.2309016 C26.7671719,21.6761348 26.7381362,22.1674201 26.5268288,22.5907097 Z M24.5755201,16.2545824 C23.7943212,15.5384547 22.9674844,14.8737639 22.1002192,14.2646976 C22.000537,13.2130128 21.8308545,12.1691431 21.5923003,11.1400321 C22.3937119,10.9536411 23.2127458,10.8534172 24.0354545,10.8410672 C25.2988223,10.8410672 26.186073,11.1625348 26.5300434,11.7411766 C26.7322188,12.1567604 26.7599945,12.6358906 26.6071957,13.0720527 C26.3532362,14.0364556 25.6427927,15.1262309 24.5755201,16.2545824 Z"></path>
    </g>
</svg>
