<?xml version="1.0" encoding="UTF-8"?>
<svg width="105px" height="14px" viewBox="0 0 105 14">
    <g stroke="none" stroke-width="1" fill="#7957BA" fill-rule="evenodd">
        <path d="M4.55078125,13 L0.7890625,3.66601562 L3.38183594,3.66601562 L5.13964844,8.4296875 L5.64941406,10.0205078 C5.78417969,9.61621094 5.86914062,9.34960938 5.90429688,9.22070312 C5.98632812,8.95703125 6.07421875,8.69335938 6.16796875,8.4296875 L7.94335937,3.66601562 L10.4833984,3.66601562 L6.77441406,13 L4.55078125,13 Z M17.4003906,10.0292969 L19.8613281,10.4423828 C19.5449219,11.3447266 19.0454102,12.0317383 18.362793,12.503418 C17.6801758,12.9750977 16.8261719,13.2109375 15.8007813,13.2109375 C14.1777344,13.2109375 12.9765625,12.6806641 12.1972656,11.6201172 C11.5820313,10.7705078 11.2744141,9.69824219 11.2744141,8.40332031 C11.2744141,6.85644531 11.6787109,5.64501953 12.4873047,4.76904297 C13.2958984,3.89306641 14.3183594,3.45507812 15.5546875,3.45507812 C16.9433594,3.45507812 18.0390625,3.91357422 18.8417969,4.83056641 C19.6445313,5.74755859 20.0283203,7.15234375 19.9931641,9.04492188 L13.8056641,9.04492188 C13.8232422,9.77734375 14.0224609,10.347168 14.4033203,10.7543945 C14.7841797,11.1616211 15.2587891,11.3652344 15.8271484,11.3652344 C16.2138672,11.3652344 16.5390625,11.2597656 16.8027344,11.0488281 C17.0664063,10.8378906 17.265625,10.4980469 17.4003906,10.0292969 Z M17.5410156,7.53320312 C17.5234375,6.81835938 17.3388672,6.27490234 16.9873047,5.90283203 C16.6357422,5.53076172 16.2080078,5.34472656 15.7041016,5.34472656 C15.1650391,5.34472656 14.7197266,5.54101562 14.3681641,5.93359375 C14.0166016,6.32617188 13.84375,6.859375 13.8496094,7.53320312 L17.5410156,7.53320312 Z M24.3701172,13 L21.9003906,13 L21.9003906,3.66601562 L24.1943359,3.66601562 L24.1943359,4.99316406 C24.5869141,4.36621094 24.9399414,3.953125 25.253418,3.75390625 C25.5668945,3.5546875 25.9228516,3.45507812 26.3212891,3.45507812 C26.8837891,3.45507812 27.4257812,3.61035156 27.9472656,3.92089844 L27.1826172,6.07421875 C26.7666016,5.8046875 26.3798828,5.66992188 26.0224609,5.66992188 C25.6767578,5.66992188 25.3837891,5.76513672 25.1435547,5.95556641 C24.9033203,6.14599609 24.7143555,6.49023438 24.5766602,6.98828125 C24.4389648,7.48632812 24.3701172,8.52929688 24.3701172,10.1171875 L24.3701172,13 Z M28.140625,10.3369141 L30.6191406,9.95898438 C30.7246094,10.4394531 30.9384766,10.8041992 31.2607422,11.0532227 C31.5830078,11.3022461 32.0341797,11.4267578 32.6142578,11.4267578 C33.2529297,11.4267578 33.7333984,11.3095703 34.0556641,11.0751953 C34.2724609,10.9111328 34.3808594,10.6914062 34.3808594,10.4160156 C34.3808594,10.2285156 34.3222656,10.0732422 34.2050781,9.95019531 C34.0820312,9.83300781 33.8066406,9.72460938 33.3789062,9.625 C31.3867188,9.18554688 30.1240234,8.78417969 29.5908203,8.42089844 C28.8525391,7.91699219 28.4833984,7.21679688 28.4833984,6.3203125 C28.4833984,5.51171875 28.8027344,4.83203125 29.4414062,4.28125 C30.0800781,3.73046875 31.0703125,3.45507812 32.4121094,3.45507812 C33.6894531,3.45507812 34.6386719,3.66308594 35.2597656,4.07910156 C35.8808594,4.49511719 36.3085938,5.11035156 36.5429688,5.92480469 L34.2138672,6.35546875 C34.1142578,5.9921875 33.925293,5.71386719 33.6469727,5.52050781 C33.3686523,5.32714844 32.9716797,5.23046875 32.4560547,5.23046875 C31.8056641,5.23046875 31.3398438,5.32128906 31.0585938,5.50292969 C30.8710938,5.63183594 30.7773438,5.79882812 30.7773438,6.00390625 C30.7773438,6.1796875 30.859375,6.32910156 31.0234375,6.45214844 C31.2460938,6.61621094 32.0151367,6.84765625 33.3305664,7.14648438 C34.6459961,7.4453125 35.5644531,7.81152344 36.0859375,8.24511719 C36.6015625,8.68457031 36.859375,9.296875 36.859375,10.0820312 C36.859375,10.9375 36.5019531,11.6728516 35.7871094,12.2880859 C35.0722656,12.9033203 34.0146484,13.2109375 32.6142578,13.2109375 C31.3427734,13.2109375 30.3364258,12.953125 29.5952148,12.4375 C28.8540039,11.921875 28.3691406,11.2216797 28.140625,10.3369141 Z M39.0214844,2.40039062 L39.0214844,0.115234375 L41.4912109,0.115234375 L41.4912109,2.40039062 L39.0214844,2.40039062 Z M39.0214844,13 L39.0214844,3.66601562 L41.4912109,3.66601562 L41.4912109,13 L39.0214844,13 Z M43.4511719,8.20117188 C43.4511719,7.38085938 43.6533203,6.58691406 44.0576172,5.81933594 C44.4619141,5.05175781 45.034668,4.46582031 45.7758789,4.06152344 C46.5170898,3.65722656 47.3447266,3.45507812 48.2587891,3.45507812 C49.6708984,3.45507812 50.828125,3.91357422 51.7304688,4.83056641 C52.6328125,5.74755859 53.0839844,6.90625 53.0839844,8.30664062 C53.0839844,9.71875 52.628418,10.8891602 51.7172852,11.8178711 C50.8061523,12.746582 49.6591797,13.2109375 48.2763672,13.2109375 C47.4208984,13.2109375 46.6049805,13.0175781 45.8286133,12.6308594 C45.0522461,12.2441406 44.4619141,11.6772461 44.0576172,10.9301758 C43.6533203,10.1831055 43.4511719,9.2734375 43.4511719,8.20117188 Z M45.9824219,8.33300781 C45.9824219,9.25878906 46.2021484,9.96777344 46.6416016,10.4599609 C47.0810547,10.9521484 47.6230469,11.1982422 48.2675781,11.1982422 C48.9121094,11.1982422 49.4526367,10.9521484 49.8891602,10.4599609 C50.3256836,9.96777344 50.5439453,9.25292969 50.5439453,8.31542969 C50.5439453,7.40136719 50.3256836,6.69824219 49.8891602,6.20605469 C49.4526367,5.71386719 48.9121094,5.46777344 48.2675781,5.46777344 C47.6230469,5.46777344 47.0810547,5.71386719 46.6416016,6.20605469 C46.2021484,6.69824219 45.9824219,7.40722656 45.9824219,8.33300781 Z M63.5078125,13 L61.0380859,13 L61.0380859,8.23632812 C61.0380859,7.22851562 60.9853516,6.57666016 60.8798828,6.28076172 C60.7744141,5.98486328 60.6030273,5.75488281 60.3657227,5.59082031 C60.128418,5.42675781 59.8427734,5.34472656 59.5087891,5.34472656 C59.0810547,5.34472656 58.6972656,5.46191406 58.3574219,5.69628906 C58.0175781,5.93066406 57.784668,6.24121094 57.6586914,6.62792969 C57.5327148,7.01464844 57.4697266,7.72949219 57.4697266,8.77246094 L57.4697266,13 L55,13 L55,3.66601562 L57.2939453,3.66601562 L57.2939453,5.03710938 C58.1083984,3.98242188 59.1337891,3.45507812 60.3701172,3.45507812 C60.9150391,3.45507812 61.4130859,3.55322266 61.8642578,3.74951172 C62.3154297,3.94580078 62.6567383,4.19628906 62.8881836,4.50097656 C63.1196289,4.80566406 63.2807617,5.15136719 63.371582,5.53808594 C63.4624023,5.92480469 63.5078125,6.47851562 63.5078125,7.19921875 L63.5078125,13 Z M77.8154297,10.9609375 L77.8154297,13 L70.1201172,13 C70.2034505,12.2291667 70.4534505,11.4986979 70.8701172,10.8085938 C71.2867839,10.1184896 72.1097005,9.203125 73.3388672,8.0625 C74.3284505,7.140625 74.9352214,6.515625 75.1591797,6.1875 C75.461263,5.734375 75.6123047,5.28645833 75.6123047,4.84375 C75.6123047,4.35416667 75.4807943,3.97786458 75.2177734,3.71484375 C74.9547526,3.45182292 74.5914714,3.3203125 74.1279297,3.3203125 C73.6695964,3.3203125 73.305013,3.45833333 73.0341797,3.734375 C72.7633464,4.01041667 72.6070964,4.46875 72.5654297,5.109375 L70.3779297,4.890625 C70.508138,3.68229167 70.9169922,2.81510417 71.6044922,2.2890625 C72.2919922,1.76302083 73.1513672,1.5 74.1826172,1.5 C75.3128255,1.5 76.2008464,1.8046875 76.8466797,2.4140625 C77.492513,3.0234375 77.8154297,3.78125 77.8154297,4.6875 C77.8154297,5.203125 77.7229818,5.69401042 77.5380859,6.16015625 C77.3531901,6.62630208 77.0602214,7.11458333 76.6591797,7.625 C76.3935547,7.96354167 75.914388,8.45052083 75.2216797,9.0859375 C74.5289714,9.72135417 74.0901693,10.1432292 73.9052734,10.3515625 C73.7203776,10.5598958 73.570638,10.7630208 73.4560547,10.9609375 L77.8154297,10.9609375 Z M79.7685547,13 L79.7685547,10.8046875 L81.9638672,10.8046875 L81.9638672,13 L79.7685547,13 Z M83.7451172,3.7421875 L83.7451172,1.703125 L91.2529297,1.703125 L91.2529297,3.296875 C90.633138,3.90625 90.0029297,4.78125 89.3623047,5.921875 C88.7216797,7.0625 88.2333984,8.27473958 87.8974609,9.55859375 C87.5615234,10.8424479 87.3961589,11.9895833 87.4013672,13 L85.2841797,13 C85.320638,11.4166667 85.6474609,9.80208333 86.2646484,8.15625 C86.8818359,6.51041667 87.7060547,5.0390625 88.7373047,3.7421875 L83.7451172,3.7421875 Z M93.1123047,13 L93.1123047,10.8046875 L95.3076172,10.8046875 L95.3076172,13 L93.1123047,13 Z M100.799805,1.5 C101.90918,1.5 102.776367,1.89583333 103.401367,2.6875 C104.146159,3.625 104.518555,5.1796875 104.518555,7.3515625 C104.518555,9.51822917 104.143555,11.0755208 103.393555,12.0234375 C102.773763,12.8046875 101.90918,13.1953125 100.799805,13.1953125 C99.6852214,13.1953125 98.7867839,12.7669271 98.1044922,11.9101562 C97.4222005,11.0533854 97.0810547,9.52604167 97.0810547,7.328125 C97.0810547,5.171875 97.4560547,3.61979167 98.2060547,2.671875 C98.8258464,1.890625 99.6904297,1.5 100.799805,1.5 Z M100.799805,3.3203125 C100.53418,3.3203125 100.297201,3.40494792 100.088867,3.57421875 C99.8805339,3.74348958 99.7190755,4.046875 99.6044922,4.484375 C99.4534505,5.05208333 99.3779297,6.0078125 99.3779297,7.3515625 C99.3779297,8.6953125 99.445638,9.61848958 99.5810547,10.1210938 C99.7164714,10.6236979 99.8870443,10.9583333 100.092773,11.125 C100.298503,11.2916667 100.53418,11.375 100.799805,11.375 C101.06543,11.375 101.302409,11.2903646 101.510742,11.1210938 C101.719076,10.9518229 101.880534,10.6484375 101.995117,10.2109375 C102.146159,9.6484375 102.22168,8.6953125 102.22168,7.3515625 C102.22168,6.0078125 102.153971,5.08463542 102.018555,4.58203125 C101.883138,4.07942708 101.712565,3.74348958 101.506836,3.57421875 C101.301107,3.40494792 101.06543,3.3203125 100.799805,3.3203125 Z"></path>
    </g>
</svg>
